%
M48
M72
T01C0.01969
T02C0.04000
T03C0.04724
%
T01
X28474Y15598
X42648Y13236
X51309Y13236
X56427Y10874
X60758Y7724
X82805Y13236
X87923Y10874
X92254Y7724
X104065Y13236
X88317Y19929
X88317Y26622
X70207Y25835
X49341Y25047
X35561Y25441
X56427Y39220
X51703Y40402
X52097Y45913
X56034Y48669
X70994Y43945
X76112Y43945
X88711Y45126
X92648Y41976
X90285Y49850
X91073Y57331
X117451Y49063
X126112Y49457
X128081Y43551
X116663Y38433
X130443Y34102
X128081Y27016
X115876Y22291
X109577Y25441
X114301Y27409
X52884Y55756
X28474Y50638
X20600Y50638
X32411Y43551
X37923Y43945
X16270Y43157
T02
X7608Y8512
X7608Y18512
X7608Y28512
X7608Y38512
X7608Y48512
X7608Y58512
X137530Y58512
X137530Y48512
X137530Y38512
X137530Y28512
X137530Y18512
X137530Y8512
T03
X126112Y11661
X84380Y55362
X20994Y11661
M30
