G75*
%MOIN*%
%OFA0B0*%
%FSLAX25Y25*%
%IPPOS*%
%LPD*%
%AMOC8*
5,1,8,0,0,1.08239X$1,22.5*
%
%ADD10C,0.00400*%
%ADD11C,0.00500*%
D10*
X0032374Y0012040D02*
X0033709Y0012040D01*
X0033042Y0012040D02*
X0033042Y0014042D01*
X0033709Y0013375D01*
X0034584Y0013708D02*
X0034584Y0013041D01*
X0034918Y0012707D01*
X0035919Y0012707D01*
X0035919Y0012040D02*
X0035919Y0014042D01*
X0034918Y0014042D01*
X0034584Y0013708D01*
X0035251Y0012707D02*
X0034584Y0012040D01*
X0036794Y0012374D02*
X0037128Y0012040D01*
X0038129Y0012040D01*
X0038129Y0014042D01*
X0037128Y0014042D01*
X0036794Y0013708D01*
X0036794Y0013375D01*
X0037128Y0013041D01*
X0038129Y0013041D01*
X0039004Y0013041D02*
X0040338Y0013041D01*
X0040338Y0012040D02*
X0040338Y0014042D01*
X0039004Y0014042D02*
X0039004Y0012040D01*
X0037128Y0013041D02*
X0036794Y0012707D01*
X0036794Y0012374D01*
X0071744Y0012040D02*
X0073079Y0012040D01*
X0071744Y0013375D01*
X0071744Y0013708D01*
X0072078Y0014042D01*
X0072745Y0014042D01*
X0073079Y0013708D01*
X0073954Y0013708D02*
X0073954Y0013041D01*
X0074288Y0012707D01*
X0075289Y0012707D01*
X0075289Y0012040D02*
X0075289Y0014042D01*
X0074288Y0014042D01*
X0073954Y0013708D01*
X0074622Y0012707D02*
X0073954Y0012040D01*
X0076164Y0012374D02*
X0076498Y0012040D01*
X0077499Y0012040D01*
X0077499Y0014042D01*
X0076498Y0014042D01*
X0076164Y0013708D01*
X0076164Y0013375D01*
X0076498Y0013041D01*
X0077499Y0013041D01*
X0078374Y0013041D02*
X0079709Y0013041D01*
X0079709Y0012040D02*
X0079709Y0014042D01*
X0078374Y0014042D02*
X0078374Y0012040D01*
X0076498Y0013041D02*
X0076164Y0012707D01*
X0076164Y0012374D01*
X0112114Y0012374D02*
X0112448Y0012040D01*
X0113115Y0012040D01*
X0113449Y0012374D01*
X0114324Y0012040D02*
X0114992Y0012707D01*
X0114658Y0012707D02*
X0115659Y0012707D01*
X0115659Y0012040D02*
X0115659Y0014042D01*
X0114658Y0014042D01*
X0114324Y0013708D01*
X0114324Y0013041D01*
X0114658Y0012707D01*
X0112782Y0013041D02*
X0112448Y0013041D01*
X0112114Y0012707D01*
X0112114Y0012374D01*
X0112448Y0013041D02*
X0112114Y0013375D01*
X0112114Y0013708D01*
X0112448Y0014042D01*
X0113115Y0014042D01*
X0113449Y0013708D01*
X0116534Y0013708D02*
X0116534Y0013375D01*
X0116868Y0013041D01*
X0117869Y0013041D01*
X0118744Y0013041D02*
X0120079Y0013041D01*
X0120079Y0012040D02*
X0120079Y0014042D01*
X0118744Y0014042D02*
X0118744Y0012040D01*
X0117869Y0012040D02*
X0116868Y0012040D01*
X0116534Y0012374D01*
X0116534Y0012707D01*
X0116868Y0013041D01*
X0116534Y0013708D02*
X0116868Y0014042D01*
X0117869Y0014042D01*
X0117869Y0012040D01*
X0118115Y0058456D02*
X0118115Y0060458D01*
X0119116Y0059457D01*
X0117781Y0059457D01*
X0119991Y0060124D02*
X0120325Y0060458D01*
X0120992Y0060458D01*
X0121326Y0060124D01*
X0121326Y0058790D01*
X0120992Y0058456D01*
X0120325Y0058456D01*
X0119991Y0058790D01*
X0105971Y0058790D02*
X0105638Y0058456D01*
X0104970Y0058456D01*
X0104637Y0058790D01*
X0103761Y0058790D02*
X0103428Y0058456D01*
X0102761Y0058456D01*
X0102427Y0058790D01*
X0102427Y0059123D01*
X0102761Y0059457D01*
X0103094Y0059457D01*
X0102761Y0059457D02*
X0102427Y0059790D01*
X0102427Y0060124D01*
X0102761Y0060458D01*
X0103428Y0060458D01*
X0103761Y0060124D01*
X0104637Y0060124D02*
X0104970Y0060458D01*
X0105638Y0060458D01*
X0105971Y0060124D01*
X0105971Y0058790D01*
X0042979Y0058790D02*
X0042646Y0058456D01*
X0041978Y0058456D01*
X0041645Y0058790D01*
X0040769Y0058456D02*
X0039435Y0059790D01*
X0039435Y0060124D01*
X0039768Y0060458D01*
X0040436Y0060458D01*
X0040769Y0060124D01*
X0041645Y0060124D02*
X0041978Y0060458D01*
X0042646Y0060458D01*
X0042979Y0060124D01*
X0042979Y0058790D01*
X0040769Y0058456D02*
X0039435Y0058456D01*
X0026818Y0058589D02*
X0026484Y0058255D01*
X0025817Y0058255D01*
X0025483Y0058589D01*
X0024608Y0058255D02*
X0023273Y0058255D01*
X0023941Y0058255D02*
X0023941Y0060257D01*
X0024608Y0059590D01*
X0025483Y0059923D02*
X0025817Y0060257D01*
X0026484Y0060257D01*
X0026818Y0059923D01*
X0026818Y0058589D01*
D11*
X0025522Y0048768D02*
X0025522Y0014713D01*
X0040876Y0014713D01*
X0040876Y0048768D01*
X0025522Y0048768D01*
X0064892Y0048768D02*
X0080246Y0048768D01*
X0080246Y0014713D01*
X0064892Y0014713D01*
X0064892Y0048768D01*
X0104262Y0048768D02*
X0119616Y0048768D01*
X0119616Y0014713D01*
X0104262Y0014713D01*
X0104262Y0048768D01*
M02*
