G04 EAGLE Gerber RS-274X export*
G75*
%MOMM*%
%FSLAX34Y34*%
%LPD*%
%INTop Copper*%
%IPPOS*%
%AMOC8*
5,1,8,0,0,1.08239X$1,22.5*%
G01*
%ADD10R,0.500000X0.500000*%
%ADD11R,0.350000X0.500000*%
%ADD12R,0.500000X0.350000*%
%ADD13R,0.350000X0.350000*%
%ADD14C,1.879600*%
%ADD15C,0.203200*%
%ADD16C,0.503200*%

G36*
X81190Y15245D02*
X81190Y15245D01*
X81219Y15242D01*
X81331Y15265D01*
X81443Y15281D01*
X81469Y15293D01*
X81498Y15298D01*
X81599Y15351D01*
X81702Y15397D01*
X81724Y15416D01*
X81751Y15429D01*
X81833Y15507D01*
X81919Y15580D01*
X81935Y15605D01*
X81957Y15625D01*
X82014Y15723D01*
X82077Y15817D01*
X82086Y15845D01*
X82100Y15870D01*
X82128Y15980D01*
X82162Y16088D01*
X82163Y16118D01*
X82170Y16146D01*
X82167Y16259D01*
X82170Y16372D01*
X82162Y16401D01*
X82161Y16430D01*
X82126Y16538D01*
X82098Y16647D01*
X82083Y16673D01*
X82074Y16701D01*
X82028Y16764D01*
X81953Y16892D01*
X81907Y16935D01*
X81879Y16974D01*
X79640Y19213D01*
X77977Y23227D01*
X77977Y27573D01*
X79640Y31587D01*
X82713Y34660D01*
X86727Y36323D01*
X91073Y36323D01*
X95087Y34660D01*
X97326Y32421D01*
X97350Y32403D01*
X97369Y32381D01*
X97463Y32318D01*
X97553Y32250D01*
X97581Y32240D01*
X97605Y32223D01*
X97713Y32189D01*
X97819Y32149D01*
X97848Y32146D01*
X97876Y32138D01*
X97990Y32135D01*
X98102Y32125D01*
X98131Y32131D01*
X98160Y32130D01*
X98270Y32159D01*
X98381Y32181D01*
X98407Y32195D01*
X98435Y32202D01*
X98533Y32260D01*
X98633Y32312D01*
X98655Y32332D01*
X98680Y32347D01*
X98757Y32430D01*
X98839Y32508D01*
X98854Y32533D01*
X98874Y32555D01*
X98926Y32655D01*
X98983Y32753D01*
X98990Y32782D01*
X99004Y32808D01*
X99017Y32885D01*
X99053Y33029D01*
X99051Y33091D01*
X99059Y33139D01*
X99059Y43061D01*
X99055Y43090D01*
X99058Y43119D01*
X99035Y43231D01*
X99019Y43343D01*
X99007Y43369D01*
X99002Y43398D01*
X98949Y43499D01*
X98903Y43602D01*
X98884Y43624D01*
X98871Y43651D01*
X98793Y43733D01*
X98720Y43819D01*
X98695Y43835D01*
X98675Y43857D01*
X98577Y43914D01*
X98483Y43977D01*
X98455Y43986D01*
X98430Y44000D01*
X98320Y44028D01*
X98212Y44062D01*
X98182Y44063D01*
X98154Y44070D01*
X98041Y44067D01*
X97928Y44070D01*
X97899Y44062D01*
X97870Y44061D01*
X97762Y44026D01*
X97653Y43998D01*
X97627Y43983D01*
X97599Y43974D01*
X97536Y43928D01*
X97408Y43853D01*
X97365Y43807D01*
X97326Y43779D01*
X95087Y41540D01*
X91073Y39877D01*
X86727Y39877D01*
X82713Y41540D01*
X79640Y44613D01*
X77977Y48627D01*
X77977Y52973D01*
X79441Y56507D01*
X79470Y56619D01*
X79505Y56728D01*
X79505Y56756D01*
X79512Y56783D01*
X79509Y56897D01*
X79512Y57012D01*
X79505Y57039D01*
X79504Y57067D01*
X79469Y57176D01*
X79440Y57287D01*
X79426Y57311D01*
X79418Y57338D01*
X79354Y57433D01*
X79295Y57532D01*
X79275Y57551D01*
X79259Y57574D01*
X79172Y57648D01*
X79088Y57726D01*
X79063Y57739D01*
X79042Y57757D01*
X78937Y57803D01*
X78835Y57856D01*
X78810Y57860D01*
X78782Y57872D01*
X78518Y57909D01*
X78503Y57911D01*
X60728Y57911D01*
X60641Y57899D01*
X60554Y57896D01*
X60501Y57879D01*
X60447Y57871D01*
X60367Y57836D01*
X60284Y57809D01*
X60244Y57781D01*
X60187Y57755D01*
X60074Y57659D01*
X60010Y57614D01*
X59807Y57410D01*
X54312Y57410D01*
X54225Y57398D01*
X54138Y57395D01*
X54085Y57378D01*
X54030Y57370D01*
X53951Y57335D01*
X53867Y57308D01*
X53828Y57280D01*
X53771Y57254D01*
X53658Y57158D01*
X53594Y57113D01*
X50844Y54363D01*
X49058Y52577D01*
X32730Y52577D01*
X18999Y66308D01*
X18998Y66309D01*
X18997Y66310D01*
X18884Y66395D01*
X18772Y66479D01*
X18770Y66479D01*
X18769Y66480D01*
X18637Y66530D01*
X18506Y66580D01*
X18504Y66580D01*
X18503Y66581D01*
X18358Y66592D01*
X18223Y66604D01*
X18221Y66603D01*
X18220Y66604D01*
X18204Y66600D01*
X17944Y66548D01*
X17917Y66534D01*
X17892Y66528D01*
X14873Y65277D01*
X10527Y65277D01*
X6513Y66940D01*
X4274Y69179D01*
X4250Y69197D01*
X4231Y69219D01*
X4137Y69282D01*
X4047Y69350D01*
X4019Y69360D01*
X3995Y69377D01*
X3887Y69411D01*
X3781Y69451D01*
X3752Y69454D01*
X3724Y69462D01*
X3610Y69465D01*
X3498Y69475D01*
X3469Y69469D01*
X3440Y69470D01*
X3330Y69441D01*
X3219Y69419D01*
X3193Y69405D01*
X3165Y69398D01*
X3067Y69340D01*
X2967Y69288D01*
X2945Y69268D01*
X2920Y69253D01*
X2843Y69170D01*
X2761Y69092D01*
X2746Y69067D01*
X2726Y69045D01*
X2674Y68945D01*
X2617Y68847D01*
X2610Y68818D01*
X2596Y68792D01*
X2583Y68715D01*
X2547Y68571D01*
X2549Y68509D01*
X2541Y68461D01*
X2541Y59976D01*
X2545Y59947D01*
X2542Y59917D01*
X2565Y59806D01*
X2581Y59694D01*
X2593Y59667D01*
X2598Y59639D01*
X2651Y59538D01*
X2697Y59435D01*
X2716Y59412D01*
X2729Y59386D01*
X2807Y59304D01*
X2880Y59218D01*
X2905Y59201D01*
X2925Y59180D01*
X3023Y59123D01*
X3117Y59060D01*
X3145Y59051D01*
X3170Y59036D01*
X3280Y59009D01*
X3388Y58974D01*
X3418Y58974D01*
X3446Y58966D01*
X3559Y58970D01*
X3672Y58967D01*
X3701Y58974D01*
X3730Y58975D01*
X3838Y59010D01*
X3947Y59039D01*
X3973Y59054D01*
X4001Y59063D01*
X4065Y59109D01*
X4192Y59184D01*
X4235Y59230D01*
X4274Y59258D01*
X4922Y59906D01*
X6443Y61011D01*
X8117Y61864D01*
X9904Y62445D01*
X10669Y62566D01*
X10669Y51816D01*
X10677Y51758D01*
X10675Y51700D01*
X10697Y51618D01*
X10709Y51535D01*
X10733Y51481D01*
X10747Y51425D01*
X10790Y51352D01*
X10825Y51275D01*
X10863Y51231D01*
X10893Y51180D01*
X10954Y51123D01*
X11009Y51058D01*
X11057Y51026D01*
X11100Y50986D01*
X11175Y50947D01*
X11245Y50901D01*
X11301Y50883D01*
X11353Y50856D01*
X11421Y50845D01*
X11516Y50815D01*
X11616Y50812D01*
X11684Y50801D01*
X12701Y50801D01*
X12701Y50799D01*
X11684Y50799D01*
X11626Y50791D01*
X11568Y50792D01*
X11486Y50771D01*
X11403Y50759D01*
X11349Y50735D01*
X11293Y50721D01*
X11220Y50678D01*
X11143Y50643D01*
X11098Y50605D01*
X11048Y50575D01*
X10990Y50514D01*
X10926Y50459D01*
X10894Y50411D01*
X10854Y50368D01*
X10815Y50293D01*
X10769Y50223D01*
X10751Y50167D01*
X10724Y50115D01*
X10713Y50047D01*
X10683Y49952D01*
X10680Y49852D01*
X10669Y49784D01*
X10669Y39034D01*
X9904Y39155D01*
X8117Y39736D01*
X6443Y40589D01*
X4922Y41694D01*
X4274Y42342D01*
X4250Y42360D01*
X4231Y42382D01*
X4137Y42445D01*
X4047Y42513D01*
X4019Y42524D01*
X3995Y42540D01*
X3887Y42574D01*
X3781Y42614D01*
X3752Y42617D01*
X3724Y42626D01*
X3610Y42629D01*
X3498Y42638D01*
X3469Y42632D01*
X3440Y42633D01*
X3330Y42604D01*
X3219Y42582D01*
X3193Y42568D01*
X3165Y42561D01*
X3067Y42503D01*
X2967Y42451D01*
X2945Y42431D01*
X2920Y42416D01*
X2843Y42333D01*
X2761Y42255D01*
X2746Y42230D01*
X2726Y42209D01*
X2674Y42108D01*
X2617Y42010D01*
X2610Y41982D01*
X2596Y41955D01*
X2583Y41878D01*
X2547Y41734D01*
X2549Y41672D01*
X2541Y41624D01*
X2541Y16256D01*
X2549Y16198D01*
X2547Y16140D01*
X2569Y16058D01*
X2581Y15974D01*
X2604Y15921D01*
X2619Y15865D01*
X2662Y15792D01*
X2697Y15715D01*
X2735Y15670D01*
X2764Y15620D01*
X2826Y15562D01*
X2880Y15498D01*
X2929Y15466D01*
X2972Y15426D01*
X3047Y15387D01*
X3117Y15340D01*
X3173Y15323D01*
X3225Y15296D01*
X3293Y15285D01*
X3388Y15255D01*
X3488Y15252D01*
X3556Y15241D01*
X81161Y15241D01*
X81190Y15245D01*
G37*
G36*
X98131Y57531D02*
X98131Y57531D01*
X98160Y57530D01*
X98270Y57559D01*
X98381Y57581D01*
X98407Y57595D01*
X98435Y57602D01*
X98533Y57660D01*
X98633Y57712D01*
X98655Y57732D01*
X98680Y57747D01*
X98757Y57830D01*
X98839Y57908D01*
X98854Y57933D01*
X98874Y57955D01*
X98926Y58055D01*
X98983Y58153D01*
X98990Y58182D01*
X99004Y58208D01*
X99017Y58285D01*
X99053Y58429D01*
X99051Y58491D01*
X99059Y58539D01*
X99059Y68461D01*
X99055Y68490D01*
X99058Y68519D01*
X99035Y68631D01*
X99019Y68743D01*
X99007Y68769D01*
X99002Y68798D01*
X98949Y68899D01*
X98903Y69002D01*
X98884Y69024D01*
X98871Y69051D01*
X98793Y69133D01*
X98720Y69219D01*
X98695Y69235D01*
X98675Y69257D01*
X98577Y69314D01*
X98483Y69377D01*
X98455Y69386D01*
X98430Y69400D01*
X98320Y69428D01*
X98212Y69462D01*
X98182Y69463D01*
X98154Y69470D01*
X98041Y69467D01*
X97928Y69470D01*
X97899Y69462D01*
X97870Y69461D01*
X97762Y69426D01*
X97653Y69398D01*
X97627Y69383D01*
X97599Y69374D01*
X97536Y69328D01*
X97408Y69253D01*
X97365Y69207D01*
X97326Y69179D01*
X95087Y66940D01*
X91073Y65277D01*
X86727Y65277D01*
X82713Y66940D01*
X79640Y70013D01*
X77977Y74027D01*
X77977Y78373D01*
X79640Y82387D01*
X82713Y85460D01*
X86727Y87123D01*
X91073Y87123D01*
X95087Y85460D01*
X97326Y83221D01*
X97350Y83203D01*
X97369Y83181D01*
X97463Y83118D01*
X97553Y83050D01*
X97581Y83040D01*
X97605Y83023D01*
X97713Y82989D01*
X97819Y82949D01*
X97848Y82946D01*
X97876Y82938D01*
X97990Y82935D01*
X98102Y82925D01*
X98131Y82931D01*
X98160Y82930D01*
X98270Y82959D01*
X98381Y82981D01*
X98407Y82995D01*
X98435Y83002D01*
X98533Y83060D01*
X98633Y83112D01*
X98655Y83132D01*
X98680Y83147D01*
X98757Y83230D01*
X98839Y83308D01*
X98854Y83333D01*
X98874Y83355D01*
X98926Y83455D01*
X98983Y83553D01*
X98990Y83582D01*
X99004Y83608D01*
X99017Y83685D01*
X99053Y83829D01*
X99051Y83891D01*
X99059Y83939D01*
X99059Y93861D01*
X99055Y93890D01*
X99058Y93919D01*
X99035Y94031D01*
X99019Y94143D01*
X99007Y94169D01*
X99002Y94198D01*
X98949Y94299D01*
X98903Y94402D01*
X98884Y94424D01*
X98871Y94451D01*
X98793Y94533D01*
X98720Y94619D01*
X98695Y94635D01*
X98675Y94657D01*
X98577Y94714D01*
X98483Y94777D01*
X98455Y94786D01*
X98430Y94800D01*
X98320Y94828D01*
X98212Y94862D01*
X98182Y94863D01*
X98154Y94870D01*
X98041Y94867D01*
X97928Y94870D01*
X97899Y94862D01*
X97870Y94861D01*
X97762Y94826D01*
X97653Y94798D01*
X97627Y94783D01*
X97599Y94774D01*
X97536Y94728D01*
X97408Y94653D01*
X97365Y94607D01*
X97326Y94579D01*
X95087Y92340D01*
X91073Y90677D01*
X86727Y90677D01*
X82713Y92340D01*
X79640Y95413D01*
X78495Y98179D01*
X78494Y98180D01*
X78493Y98181D01*
X78422Y98302D01*
X78350Y98423D01*
X78349Y98424D01*
X78348Y98426D01*
X78244Y98523D01*
X78143Y98619D01*
X78142Y98619D01*
X78141Y98620D01*
X78015Y98685D01*
X77891Y98749D01*
X77889Y98749D01*
X77888Y98750D01*
X77873Y98752D01*
X77612Y98804D01*
X77581Y98801D01*
X77557Y98805D01*
X65481Y98805D01*
X65394Y98793D01*
X65307Y98790D01*
X65254Y98773D01*
X65199Y98765D01*
X65120Y98730D01*
X65036Y98703D01*
X64997Y98675D01*
X64940Y98649D01*
X64827Y98553D01*
X64763Y98508D01*
X49066Y82811D01*
X49014Y82741D01*
X48954Y82677D01*
X48928Y82628D01*
X48895Y82584D01*
X48864Y82502D01*
X48824Y82424D01*
X48816Y82377D01*
X48794Y82318D01*
X48782Y82170D01*
X48769Y82093D01*
X48769Y79241D01*
X48777Y79183D01*
X48775Y79125D01*
X48797Y79043D01*
X48809Y78959D01*
X48832Y78906D01*
X48847Y78850D01*
X48890Y78777D01*
X48925Y78700D01*
X48963Y78655D01*
X48992Y78605D01*
X49054Y78547D01*
X49108Y78483D01*
X49157Y78451D01*
X49200Y78411D01*
X49275Y78372D01*
X49345Y78325D01*
X49401Y78308D01*
X49453Y78281D01*
X49521Y78270D01*
X49616Y78240D01*
X49716Y78237D01*
X49784Y78226D01*
X49785Y78226D01*
X49785Y73185D01*
X49793Y73127D01*
X49791Y73069D01*
X49813Y72987D01*
X49824Y72904D01*
X49848Y72850D01*
X49863Y72794D01*
X49906Y72721D01*
X49941Y72644D01*
X49978Y72600D01*
X50008Y72550D01*
X50070Y72492D01*
X50124Y72427D01*
X50173Y72395D01*
X50216Y72355D01*
X50291Y72317D01*
X50361Y72270D01*
X50417Y72252D01*
X50469Y72226D01*
X50537Y72214D01*
X50632Y72184D01*
X50732Y72181D01*
X50800Y72170D01*
X50858Y72178D01*
X50916Y72177D01*
X50998Y72198D01*
X51082Y72210D01*
X51135Y72234D01*
X51192Y72249D01*
X51264Y72292D01*
X51341Y72326D01*
X51386Y72364D01*
X51436Y72394D01*
X51494Y72455D01*
X51558Y72510D01*
X51590Y72558D01*
X51630Y72601D01*
X51669Y72676D01*
X51716Y72746D01*
X51733Y72802D01*
X51760Y72854D01*
X51771Y72922D01*
X51801Y73017D01*
X51804Y73117D01*
X51815Y73185D01*
X51815Y78226D01*
X52884Y78226D01*
X53531Y78053D01*
X54110Y77718D01*
X54321Y77507D01*
X54391Y77455D01*
X54455Y77395D01*
X54504Y77369D01*
X54548Y77336D01*
X54630Y77305D01*
X54708Y77265D01*
X54755Y77257D01*
X54814Y77235D01*
X54962Y77223D01*
X55039Y77210D01*
X59807Y77210D01*
X60716Y76300D01*
X60728Y76256D01*
X60740Y76172D01*
X60763Y76119D01*
X60778Y76063D01*
X60821Y75990D01*
X60856Y75913D01*
X60894Y75868D01*
X60923Y75818D01*
X60985Y75760D01*
X61039Y75696D01*
X61088Y75664D01*
X61131Y75624D01*
X61206Y75585D01*
X61276Y75538D01*
X61332Y75521D01*
X61384Y75494D01*
X61452Y75483D01*
X61547Y75453D01*
X61647Y75450D01*
X61715Y75439D01*
X68623Y75439D01*
X68667Y75406D01*
X68731Y75346D01*
X68780Y75320D01*
X68824Y75287D01*
X68906Y75256D01*
X68984Y75216D01*
X69031Y75208D01*
X69090Y75186D01*
X69238Y75174D01*
X69315Y75161D01*
X71016Y75161D01*
X73383Y72794D01*
X73383Y69446D01*
X71016Y67079D01*
X67668Y67079D01*
X65294Y69453D01*
X65295Y69458D01*
X65273Y69540D01*
X65261Y69624D01*
X65238Y69677D01*
X65223Y69733D01*
X65180Y69806D01*
X65145Y69883D01*
X65107Y69928D01*
X65078Y69978D01*
X65016Y70036D01*
X64962Y70100D01*
X64913Y70132D01*
X64870Y70172D01*
X64795Y70211D01*
X64725Y70258D01*
X64669Y70275D01*
X64617Y70302D01*
X64549Y70313D01*
X64454Y70343D01*
X64354Y70346D01*
X64286Y70357D01*
X62731Y70357D01*
X62673Y70349D01*
X62615Y70351D01*
X62533Y70329D01*
X62449Y70317D01*
X62396Y70294D01*
X62340Y70279D01*
X62267Y70236D01*
X62190Y70201D01*
X62145Y70163D01*
X62095Y70134D01*
X62037Y70072D01*
X61973Y70018D01*
X61941Y69969D01*
X61901Y69926D01*
X61862Y69851D01*
X61815Y69781D01*
X61798Y69725D01*
X61771Y69673D01*
X61760Y69605D01*
X61730Y69510D01*
X61727Y69410D01*
X61716Y69342D01*
X61716Y68325D01*
X56675Y68325D01*
X56617Y68317D01*
X56559Y68319D01*
X56477Y68297D01*
X56394Y68286D01*
X56340Y68262D01*
X56284Y68247D01*
X56211Y68204D01*
X56134Y68169D01*
X56090Y68132D01*
X56040Y68102D01*
X55982Y68040D01*
X55917Y67986D01*
X55885Y67937D01*
X55845Y67894D01*
X55807Y67819D01*
X55760Y67749D01*
X55742Y67693D01*
X55716Y67641D01*
X55704Y67573D01*
X55674Y67478D01*
X55671Y67378D01*
X55660Y67310D01*
X55668Y67252D01*
X55667Y67194D01*
X55667Y67193D01*
X55688Y67112D01*
X55700Y67028D01*
X55724Y66975D01*
X55739Y66918D01*
X55782Y66846D01*
X55816Y66769D01*
X55854Y66724D01*
X55884Y66674D01*
X55945Y66616D01*
X56000Y66552D01*
X56048Y66520D01*
X56091Y66479D01*
X56166Y66441D01*
X56236Y66394D01*
X56292Y66377D01*
X56344Y66350D01*
X56412Y66339D01*
X56507Y66309D01*
X56607Y66306D01*
X56675Y66295D01*
X61716Y66295D01*
X61716Y65226D01*
X61543Y64579D01*
X61506Y64516D01*
X61491Y64479D01*
X61470Y64447D01*
X61438Y64348D01*
X61400Y64252D01*
X61396Y64213D01*
X61384Y64176D01*
X61381Y64072D01*
X61371Y63969D01*
X61377Y63931D01*
X61376Y63892D01*
X61403Y63791D01*
X61421Y63689D01*
X61438Y63654D01*
X61448Y63617D01*
X61501Y63528D01*
X61547Y63435D01*
X61574Y63406D01*
X61594Y63372D01*
X61669Y63301D01*
X61739Y63225D01*
X61772Y63204D01*
X61801Y63178D01*
X61893Y63130D01*
X61981Y63076D01*
X62019Y63066D01*
X62054Y63048D01*
X62131Y63035D01*
X62256Y63001D01*
X62330Y63002D01*
X62385Y62993D01*
X81062Y62993D01*
X83140Y60915D01*
X83141Y60914D01*
X83142Y60913D01*
X83256Y60828D01*
X83367Y60744D01*
X83369Y60744D01*
X83370Y60743D01*
X83502Y60693D01*
X83633Y60643D01*
X83634Y60643D01*
X83636Y60642D01*
X83780Y60631D01*
X83916Y60619D01*
X83918Y60620D01*
X83919Y60620D01*
X83935Y60623D01*
X84195Y60675D01*
X84222Y60689D01*
X84246Y60695D01*
X86727Y61723D01*
X91073Y61723D01*
X95087Y60060D01*
X97326Y57821D01*
X97350Y57803D01*
X97369Y57781D01*
X97463Y57718D01*
X97553Y57650D01*
X97581Y57640D01*
X97605Y57623D01*
X97713Y57589D01*
X97819Y57549D01*
X97848Y57546D01*
X97876Y57538D01*
X97990Y57535D01*
X98102Y57525D01*
X98131Y57531D01*
G37*
%LPC*%
G36*
X14731Y52831D02*
X14731Y52831D01*
X14731Y62566D01*
X15496Y62445D01*
X17283Y61864D01*
X18957Y61011D01*
X20478Y59906D01*
X21806Y58578D01*
X22911Y57057D01*
X23764Y55383D01*
X24345Y53596D01*
X24466Y52831D01*
X14731Y52831D01*
G37*
%LPD*%
%LPC*%
G36*
X14731Y48769D02*
X14731Y48769D01*
X24466Y48769D01*
X24345Y48004D01*
X23764Y46217D01*
X22911Y44543D01*
X21806Y43022D01*
X20478Y41694D01*
X18957Y40589D01*
X17283Y39736D01*
X15496Y39155D01*
X14731Y39034D01*
X14731Y48769D01*
G37*
%LPD*%
D10*
X44925Y73185D03*
D11*
X50800Y73185D03*
D10*
X56675Y73185D03*
D12*
X44925Y67310D03*
D13*
X50800Y67310D03*
D12*
X56675Y67310D03*
D10*
X44925Y61435D03*
D11*
X50800Y61435D03*
D10*
X56675Y61435D03*
D14*
X88900Y101600D03*
X88900Y76200D03*
X88900Y50800D03*
X88900Y25400D03*
X12700Y101600D03*
X12700Y76200D03*
X12700Y50800D03*
D15*
X46228Y67564D02*
X49784Y67564D01*
X50800Y67310D01*
X46228Y67564D02*
X44925Y67310D01*
X44450Y67564D02*
X40894Y67564D01*
X14224Y94234D01*
X14224Y101346D01*
X44450Y67564D02*
X44925Y67310D01*
X14224Y101346D02*
X12700Y101600D01*
X56896Y60452D02*
X80010Y60452D01*
X88900Y51562D01*
X56896Y60452D02*
X56675Y61435D01*
X88900Y51562D02*
X88900Y50800D01*
X67564Y72898D02*
X56896Y72898D01*
X67564Y72898D02*
X69342Y71120D01*
X56896Y72898D02*
X56675Y73185D01*
D16*
X69342Y71120D03*
D15*
X64008Y67564D02*
X56896Y67564D01*
X64008Y67564D02*
X65786Y65786D01*
X72898Y65786D01*
X74676Y67564D01*
X74676Y74676D01*
X71120Y78232D01*
X51562Y78232D01*
X51562Y74676D01*
X56896Y67564D02*
X56675Y67310D01*
X50800Y73185D02*
X51562Y74676D01*
X51562Y78232D02*
X51562Y80010D01*
D16*
X51562Y80010D03*
D15*
X51562Y60452D02*
X51562Y58674D01*
X48006Y55118D01*
X33782Y55118D01*
X12700Y76200D01*
X50800Y61435D02*
X51562Y60452D01*
X44450Y62230D02*
X37338Y62230D01*
X44450Y62230D02*
X44925Y61435D01*
D16*
X37338Y62230D03*
D15*
X46228Y74676D02*
X46228Y83566D01*
X64008Y101346D01*
X88900Y101346D01*
X46228Y74676D02*
X44925Y73185D01*
X88900Y101346D02*
X88900Y101600D01*
M02*
