G04 EAGLE Gerber RS-274X export*
G75*
%MOMM*%
%FSLAX34Y34*%
%LPD*%
%INSilkscreen Top*%
%IPPOS*%
%AMOC8*
5,1,8,0,0,1.08239X$1,22.5*%
G01*
%ADD10C,0.050800*%
%ADD11C,0.203200*%


D10*
X66548Y97395D02*
X72136Y97395D01*
X72136Y96774D02*
X72136Y98016D01*
X66548Y98016D02*
X66548Y96774D01*
X66548Y100415D02*
X72136Y100415D01*
X72136Y103519D02*
X66548Y100415D01*
X66548Y103519D02*
X72136Y103519D01*
X69963Y106139D02*
X69963Y109865D01*
X71826Y108002D02*
X68100Y108002D01*
X66548Y74535D02*
X72136Y74535D01*
X72136Y73914D02*
X72136Y75156D01*
X66548Y75156D02*
X66548Y73914D01*
X66548Y77555D02*
X72136Y77555D01*
X72136Y80659D02*
X66548Y77555D01*
X66548Y80659D02*
X72136Y80659D01*
X69963Y83279D02*
X69963Y87005D01*
X69370Y42164D02*
X71854Y42164D01*
X69370Y42164D02*
X69293Y42166D01*
X69215Y42172D01*
X69139Y42181D01*
X69062Y42195D01*
X68987Y42212D01*
X68913Y42233D01*
X68839Y42258D01*
X68767Y42286D01*
X68697Y42318D01*
X68628Y42353D01*
X68561Y42392D01*
X68496Y42434D01*
X68433Y42479D01*
X68372Y42527D01*
X68314Y42578D01*
X68259Y42632D01*
X68206Y42689D01*
X68157Y42748D01*
X68110Y42810D01*
X68066Y42874D01*
X68026Y42940D01*
X67989Y43008D01*
X67955Y43078D01*
X67925Y43149D01*
X67899Y43222D01*
X67876Y43296D01*
X67857Y43371D01*
X67842Y43446D01*
X67830Y43523D01*
X67822Y43600D01*
X67818Y43677D01*
X67818Y43755D01*
X67822Y43832D01*
X67830Y43909D01*
X67842Y43986D01*
X67857Y44061D01*
X67876Y44136D01*
X67899Y44210D01*
X67925Y44283D01*
X67955Y44354D01*
X67989Y44424D01*
X68026Y44492D01*
X68066Y44558D01*
X68110Y44622D01*
X68157Y44684D01*
X68206Y44743D01*
X68259Y44800D01*
X68314Y44854D01*
X68372Y44905D01*
X68433Y44953D01*
X68496Y44998D01*
X68561Y45040D01*
X68628Y45079D01*
X68697Y45114D01*
X68767Y45146D01*
X68839Y45174D01*
X68913Y45199D01*
X68987Y45220D01*
X69062Y45237D01*
X69139Y45251D01*
X69215Y45260D01*
X69293Y45266D01*
X69370Y45268D01*
X71854Y45268D01*
X71931Y45266D01*
X72009Y45260D01*
X72085Y45251D01*
X72162Y45237D01*
X72237Y45220D01*
X72311Y45199D01*
X72385Y45174D01*
X72457Y45146D01*
X72527Y45114D01*
X72596Y45079D01*
X72663Y45040D01*
X72728Y44998D01*
X72791Y44953D01*
X72852Y44905D01*
X72910Y44854D01*
X72965Y44800D01*
X73018Y44743D01*
X73067Y44684D01*
X73114Y44622D01*
X73158Y44558D01*
X73198Y44492D01*
X73235Y44424D01*
X73269Y44354D01*
X73299Y44283D01*
X73325Y44210D01*
X73348Y44136D01*
X73367Y44061D01*
X73382Y43986D01*
X73394Y43909D01*
X73402Y43832D01*
X73406Y43755D01*
X73406Y43677D01*
X73402Y43600D01*
X73394Y43523D01*
X73382Y43446D01*
X73367Y43371D01*
X73348Y43296D01*
X73325Y43222D01*
X73299Y43149D01*
X73269Y43078D01*
X73235Y43008D01*
X73198Y42940D01*
X73158Y42874D01*
X73114Y42810D01*
X73067Y42748D01*
X73018Y42689D01*
X72965Y42632D01*
X72910Y42578D01*
X72852Y42527D01*
X72791Y42479D01*
X72728Y42434D01*
X72663Y42392D01*
X72596Y42353D01*
X72527Y42318D01*
X72457Y42286D01*
X72385Y42258D01*
X72311Y42233D01*
X72237Y42212D01*
X72162Y42195D01*
X72085Y42181D01*
X72009Y42172D01*
X71931Y42166D01*
X71854Y42164D01*
X71854Y47833D02*
X67818Y47833D01*
X71854Y47833D02*
X71931Y47835D01*
X72009Y47841D01*
X72085Y47850D01*
X72162Y47864D01*
X72237Y47881D01*
X72311Y47902D01*
X72385Y47927D01*
X72457Y47955D01*
X72527Y47987D01*
X72596Y48022D01*
X72663Y48061D01*
X72728Y48103D01*
X72791Y48148D01*
X72852Y48196D01*
X72910Y48247D01*
X72965Y48301D01*
X73018Y48358D01*
X73067Y48417D01*
X73114Y48479D01*
X73158Y48543D01*
X73198Y48609D01*
X73235Y48677D01*
X73269Y48747D01*
X73299Y48818D01*
X73325Y48891D01*
X73348Y48965D01*
X73367Y49040D01*
X73382Y49115D01*
X73394Y49192D01*
X73402Y49269D01*
X73406Y49346D01*
X73406Y49424D01*
X73402Y49501D01*
X73394Y49578D01*
X73382Y49655D01*
X73367Y49730D01*
X73348Y49805D01*
X73325Y49879D01*
X73299Y49952D01*
X73269Y50023D01*
X73235Y50093D01*
X73198Y50161D01*
X73158Y50227D01*
X73114Y50291D01*
X73067Y50353D01*
X73018Y50412D01*
X72965Y50469D01*
X72910Y50523D01*
X72852Y50574D01*
X72791Y50622D01*
X72728Y50667D01*
X72663Y50709D01*
X72596Y50748D01*
X72527Y50783D01*
X72457Y50815D01*
X72385Y50843D01*
X72311Y50868D01*
X72237Y50889D01*
X72162Y50906D01*
X72085Y50920D01*
X72009Y50929D01*
X71931Y50935D01*
X71854Y50937D01*
X71854Y50938D02*
X67818Y50938D01*
X67818Y54689D02*
X73406Y54689D01*
X67818Y53137D02*
X67818Y56241D01*
X71233Y58313D02*
X71233Y62038D01*
X73096Y60175D02*
X69370Y60175D01*
X70640Y16764D02*
X73124Y16764D01*
X70640Y16764D02*
X70563Y16766D01*
X70485Y16772D01*
X70409Y16781D01*
X70332Y16795D01*
X70257Y16812D01*
X70183Y16833D01*
X70109Y16858D01*
X70037Y16886D01*
X69967Y16918D01*
X69898Y16953D01*
X69831Y16992D01*
X69766Y17034D01*
X69703Y17079D01*
X69642Y17127D01*
X69584Y17178D01*
X69529Y17232D01*
X69476Y17289D01*
X69427Y17348D01*
X69380Y17410D01*
X69336Y17474D01*
X69296Y17540D01*
X69259Y17608D01*
X69225Y17678D01*
X69195Y17749D01*
X69169Y17822D01*
X69146Y17896D01*
X69127Y17971D01*
X69112Y18046D01*
X69100Y18123D01*
X69092Y18200D01*
X69088Y18277D01*
X69088Y18355D01*
X69092Y18432D01*
X69100Y18509D01*
X69112Y18586D01*
X69127Y18661D01*
X69146Y18736D01*
X69169Y18810D01*
X69195Y18883D01*
X69225Y18954D01*
X69259Y19024D01*
X69296Y19092D01*
X69336Y19158D01*
X69380Y19222D01*
X69427Y19284D01*
X69476Y19343D01*
X69529Y19400D01*
X69584Y19454D01*
X69642Y19505D01*
X69703Y19553D01*
X69766Y19598D01*
X69831Y19640D01*
X69898Y19679D01*
X69967Y19714D01*
X70037Y19746D01*
X70109Y19774D01*
X70183Y19799D01*
X70257Y19820D01*
X70332Y19837D01*
X70409Y19851D01*
X70485Y19860D01*
X70563Y19866D01*
X70640Y19868D01*
X73124Y19868D01*
X73201Y19866D01*
X73279Y19860D01*
X73355Y19851D01*
X73432Y19837D01*
X73507Y19820D01*
X73581Y19799D01*
X73655Y19774D01*
X73727Y19746D01*
X73797Y19714D01*
X73866Y19679D01*
X73933Y19640D01*
X73998Y19598D01*
X74061Y19553D01*
X74122Y19505D01*
X74180Y19454D01*
X74235Y19400D01*
X74288Y19343D01*
X74337Y19284D01*
X74384Y19222D01*
X74428Y19158D01*
X74468Y19092D01*
X74505Y19024D01*
X74539Y18954D01*
X74569Y18883D01*
X74595Y18810D01*
X74618Y18736D01*
X74637Y18661D01*
X74652Y18586D01*
X74664Y18509D01*
X74672Y18432D01*
X74676Y18355D01*
X74676Y18277D01*
X74672Y18200D01*
X74664Y18123D01*
X74652Y18046D01*
X74637Y17971D01*
X74618Y17896D01*
X74595Y17822D01*
X74569Y17749D01*
X74539Y17678D01*
X74505Y17608D01*
X74468Y17540D01*
X74428Y17474D01*
X74384Y17410D01*
X74337Y17348D01*
X74288Y17289D01*
X74235Y17232D01*
X74180Y17178D01*
X74122Y17127D01*
X74061Y17079D01*
X73998Y17034D01*
X73933Y16992D01*
X73866Y16953D01*
X73797Y16918D01*
X73727Y16886D01*
X73655Y16858D01*
X73581Y16833D01*
X73507Y16812D01*
X73432Y16795D01*
X73355Y16781D01*
X73279Y16772D01*
X73201Y16766D01*
X73124Y16764D01*
X73124Y22433D02*
X69088Y22433D01*
X73124Y22433D02*
X73201Y22435D01*
X73279Y22441D01*
X73355Y22450D01*
X73432Y22464D01*
X73507Y22481D01*
X73581Y22502D01*
X73655Y22527D01*
X73727Y22555D01*
X73797Y22587D01*
X73866Y22622D01*
X73933Y22661D01*
X73998Y22703D01*
X74061Y22748D01*
X74122Y22796D01*
X74180Y22847D01*
X74235Y22901D01*
X74288Y22958D01*
X74337Y23017D01*
X74384Y23079D01*
X74428Y23143D01*
X74468Y23209D01*
X74505Y23277D01*
X74539Y23347D01*
X74569Y23418D01*
X74595Y23491D01*
X74618Y23565D01*
X74637Y23640D01*
X74652Y23715D01*
X74664Y23792D01*
X74672Y23869D01*
X74676Y23946D01*
X74676Y24024D01*
X74672Y24101D01*
X74664Y24178D01*
X74652Y24255D01*
X74637Y24330D01*
X74618Y24405D01*
X74595Y24479D01*
X74569Y24552D01*
X74539Y24623D01*
X74505Y24693D01*
X74468Y24761D01*
X74428Y24827D01*
X74384Y24891D01*
X74337Y24953D01*
X74288Y25012D01*
X74235Y25069D01*
X74180Y25123D01*
X74122Y25174D01*
X74061Y25222D01*
X73998Y25267D01*
X73933Y25309D01*
X73866Y25348D01*
X73797Y25383D01*
X73727Y25415D01*
X73655Y25443D01*
X73581Y25468D01*
X73507Y25489D01*
X73432Y25506D01*
X73355Y25520D01*
X73279Y25529D01*
X73201Y25535D01*
X73124Y25537D01*
X73124Y25538D02*
X69088Y25538D01*
X69088Y29289D02*
X74676Y29289D01*
X69088Y27737D02*
X69088Y30841D01*
X72503Y32913D02*
X72503Y36638D01*
X33782Y97162D02*
X28194Y95300D01*
X28194Y99025D02*
X33782Y97162D01*
X33782Y101279D02*
X28194Y101279D01*
X28194Y102832D01*
X28196Y102908D01*
X28201Y102984D01*
X28211Y103060D01*
X28224Y103135D01*
X28241Y103209D01*
X28261Y103283D01*
X28285Y103355D01*
X28312Y103426D01*
X28343Y103496D01*
X28377Y103564D01*
X28415Y103630D01*
X28456Y103694D01*
X28499Y103757D01*
X28546Y103817D01*
X28596Y103874D01*
X28649Y103929D01*
X28704Y103982D01*
X28761Y104032D01*
X28821Y104079D01*
X28884Y104122D01*
X28948Y104163D01*
X29014Y104201D01*
X29082Y104235D01*
X29152Y104266D01*
X29223Y104293D01*
X29296Y104317D01*
X29369Y104337D01*
X29443Y104354D01*
X29518Y104367D01*
X29594Y104377D01*
X29670Y104382D01*
X29746Y104384D01*
X32230Y104384D01*
X32306Y104382D01*
X32382Y104377D01*
X32458Y104367D01*
X32533Y104354D01*
X32607Y104337D01*
X32681Y104317D01*
X32753Y104293D01*
X32824Y104266D01*
X32894Y104235D01*
X32962Y104201D01*
X33028Y104163D01*
X33092Y104122D01*
X33155Y104079D01*
X33215Y104032D01*
X33272Y103982D01*
X33327Y103929D01*
X33380Y103874D01*
X33430Y103817D01*
X33477Y103757D01*
X33520Y103694D01*
X33561Y103630D01*
X33599Y103564D01*
X33633Y103496D01*
X33664Y103426D01*
X33691Y103355D01*
X33715Y103283D01*
X33735Y103209D01*
X33752Y103135D01*
X33765Y103060D01*
X33775Y102984D01*
X33780Y102908D01*
X33782Y102832D01*
X33782Y101279D01*
X33782Y107132D02*
X28194Y107132D01*
X28194Y108684D01*
X28196Y108760D01*
X28201Y108836D01*
X28211Y108912D01*
X28224Y108987D01*
X28241Y109061D01*
X28261Y109135D01*
X28285Y109207D01*
X28312Y109278D01*
X28343Y109348D01*
X28377Y109416D01*
X28415Y109482D01*
X28456Y109546D01*
X28499Y109609D01*
X28546Y109669D01*
X28596Y109726D01*
X28649Y109781D01*
X28704Y109834D01*
X28761Y109884D01*
X28821Y109931D01*
X28884Y109974D01*
X28948Y110015D01*
X29014Y110053D01*
X29082Y110087D01*
X29152Y110118D01*
X29223Y110145D01*
X29296Y110169D01*
X29369Y110189D01*
X29443Y110206D01*
X29518Y110219D01*
X29594Y110229D01*
X29670Y110234D01*
X29746Y110236D01*
X32230Y110236D01*
X32306Y110234D01*
X32382Y110229D01*
X32458Y110219D01*
X32533Y110206D01*
X32607Y110189D01*
X32681Y110169D01*
X32753Y110145D01*
X32824Y110118D01*
X32894Y110087D01*
X32962Y110053D01*
X33028Y110015D01*
X33092Y109974D01*
X33155Y109931D01*
X33215Y109884D01*
X33272Y109834D01*
X33327Y109781D01*
X33380Y109726D01*
X33430Y109669D01*
X33477Y109609D01*
X33520Y109546D01*
X33561Y109482D01*
X33599Y109416D01*
X33633Y109348D01*
X33664Y109278D01*
X33691Y109207D01*
X33715Y109135D01*
X33735Y109061D01*
X33752Y108987D01*
X33765Y108912D01*
X33775Y108836D01*
X33780Y108760D01*
X33782Y108684D01*
X33782Y107132D01*
X32540Y75540D02*
X32610Y75538D01*
X32679Y75532D01*
X32748Y75522D01*
X32816Y75509D01*
X32884Y75491D01*
X32950Y75470D01*
X33015Y75445D01*
X33079Y75417D01*
X33141Y75385D01*
X33201Y75350D01*
X33259Y75311D01*
X33314Y75269D01*
X33368Y75224D01*
X33418Y75176D01*
X33466Y75126D01*
X33511Y75072D01*
X33553Y75017D01*
X33592Y74959D01*
X33627Y74899D01*
X33659Y74837D01*
X33687Y74773D01*
X33712Y74708D01*
X33733Y74642D01*
X33751Y74574D01*
X33764Y74506D01*
X33774Y74437D01*
X33780Y74368D01*
X33782Y74298D01*
X33780Y74199D01*
X33775Y74101D01*
X33765Y74003D01*
X33752Y73905D01*
X33736Y73808D01*
X33716Y73711D01*
X33692Y73616D01*
X33664Y73521D01*
X33633Y73427D01*
X33599Y73335D01*
X33561Y73244D01*
X33520Y73154D01*
X33475Y73066D01*
X33427Y72980D01*
X33376Y72896D01*
X33322Y72814D01*
X33264Y72733D01*
X33204Y72655D01*
X33141Y72580D01*
X33075Y72506D01*
X33006Y72436D01*
X29436Y72590D02*
X29366Y72592D01*
X29297Y72598D01*
X29228Y72608D01*
X29160Y72621D01*
X29092Y72639D01*
X29026Y72660D01*
X28961Y72685D01*
X28897Y72713D01*
X28835Y72745D01*
X28775Y72780D01*
X28717Y72819D01*
X28662Y72861D01*
X28608Y72906D01*
X28558Y72954D01*
X28510Y73004D01*
X28465Y73058D01*
X28423Y73113D01*
X28384Y73171D01*
X28349Y73231D01*
X28317Y73293D01*
X28289Y73357D01*
X28264Y73422D01*
X28243Y73488D01*
X28225Y73556D01*
X28212Y73624D01*
X28202Y73693D01*
X28196Y73762D01*
X28194Y73832D01*
X28196Y73926D01*
X28202Y74019D01*
X28211Y74112D01*
X28224Y74205D01*
X28241Y74297D01*
X28261Y74388D01*
X28286Y74479D01*
X28313Y74568D01*
X28345Y74656D01*
X28380Y74743D01*
X28418Y74829D01*
X28460Y74912D01*
X28505Y74995D01*
X28553Y75075D01*
X28605Y75153D01*
X28660Y75229D01*
X30522Y73212D02*
X30486Y73153D01*
X30446Y73097D01*
X30403Y73043D01*
X30358Y72991D01*
X30309Y72942D01*
X30258Y72896D01*
X30205Y72853D01*
X30149Y72812D01*
X30091Y72775D01*
X30031Y72740D01*
X29970Y72710D01*
X29907Y72682D01*
X29842Y72658D01*
X29776Y72638D01*
X29709Y72621D01*
X29642Y72608D01*
X29574Y72599D01*
X29505Y72593D01*
X29436Y72591D01*
X31454Y74918D02*
X31490Y74977D01*
X31530Y75033D01*
X31573Y75087D01*
X31618Y75139D01*
X31667Y75188D01*
X31718Y75234D01*
X31771Y75277D01*
X31827Y75318D01*
X31885Y75355D01*
X31945Y75390D01*
X32006Y75420D01*
X32069Y75448D01*
X32134Y75472D01*
X32200Y75492D01*
X32267Y75509D01*
X32334Y75522D01*
X32402Y75531D01*
X32471Y75537D01*
X32540Y75539D01*
X31454Y74919D02*
X30522Y73211D01*
X28194Y77922D02*
X33782Y77922D01*
X28194Y77922D02*
X28194Y79474D01*
X28196Y79550D01*
X28201Y79626D01*
X28211Y79702D01*
X28224Y79777D01*
X28241Y79851D01*
X28261Y79925D01*
X28285Y79997D01*
X28312Y80068D01*
X28343Y80138D01*
X28377Y80206D01*
X28415Y80272D01*
X28456Y80336D01*
X28499Y80399D01*
X28546Y80459D01*
X28596Y80516D01*
X28649Y80571D01*
X28704Y80624D01*
X28761Y80674D01*
X28821Y80721D01*
X28884Y80764D01*
X28948Y80805D01*
X29014Y80843D01*
X29082Y80877D01*
X29152Y80908D01*
X29223Y80935D01*
X29296Y80959D01*
X29369Y80979D01*
X29443Y80996D01*
X29518Y81009D01*
X29594Y81019D01*
X29670Y81024D01*
X29746Y81026D01*
X32230Y81026D01*
X32306Y81024D01*
X32382Y81019D01*
X32458Y81009D01*
X32533Y80996D01*
X32607Y80979D01*
X32681Y80959D01*
X32753Y80935D01*
X32824Y80908D01*
X32894Y80877D01*
X32962Y80843D01*
X33028Y80805D01*
X33092Y80764D01*
X33155Y80721D01*
X33215Y80674D01*
X33272Y80624D01*
X33327Y80571D01*
X33380Y80516D01*
X33430Y80459D01*
X33477Y80399D01*
X33520Y80336D01*
X33561Y80272D01*
X33599Y80206D01*
X33633Y80138D01*
X33664Y80068D01*
X33691Y79997D01*
X33715Y79925D01*
X33735Y79851D01*
X33752Y79777D01*
X33765Y79702D01*
X33775Y79626D01*
X33780Y79550D01*
X33782Y79474D01*
X33782Y77922D01*
X30678Y46462D02*
X30678Y45530D01*
X30678Y46462D02*
X33782Y46462D01*
X33782Y44599D01*
X33780Y44529D01*
X33774Y44460D01*
X33764Y44391D01*
X33751Y44323D01*
X33733Y44255D01*
X33712Y44189D01*
X33687Y44124D01*
X33659Y44060D01*
X33627Y43998D01*
X33592Y43938D01*
X33553Y43880D01*
X33511Y43825D01*
X33466Y43771D01*
X33418Y43721D01*
X33368Y43673D01*
X33314Y43628D01*
X33259Y43586D01*
X33201Y43547D01*
X33141Y43512D01*
X33079Y43480D01*
X33015Y43452D01*
X32950Y43427D01*
X32884Y43406D01*
X32816Y43388D01*
X32748Y43375D01*
X32679Y43365D01*
X32610Y43359D01*
X32540Y43357D01*
X29436Y43357D01*
X29366Y43359D01*
X29297Y43365D01*
X29228Y43375D01*
X29160Y43388D01*
X29092Y43406D01*
X29026Y43427D01*
X28961Y43452D01*
X28897Y43480D01*
X28835Y43512D01*
X28775Y43547D01*
X28717Y43586D01*
X28662Y43628D01*
X28608Y43673D01*
X28558Y43721D01*
X28510Y43771D01*
X28465Y43825D01*
X28423Y43880D01*
X28384Y43938D01*
X28349Y43998D01*
X28317Y44060D01*
X28289Y44124D01*
X28264Y44189D01*
X28243Y44255D01*
X28225Y44323D01*
X28212Y44391D01*
X28202Y44460D01*
X28196Y44529D01*
X28194Y44599D01*
X28194Y46462D01*
X28194Y49209D02*
X33782Y49209D01*
X33782Y52314D02*
X28194Y49209D01*
X28194Y52314D02*
X33782Y52314D01*
X33782Y55062D02*
X28194Y55062D01*
X28194Y56614D01*
X28196Y56690D01*
X28201Y56766D01*
X28211Y56842D01*
X28224Y56917D01*
X28241Y56991D01*
X28261Y57065D01*
X28285Y57137D01*
X28312Y57208D01*
X28343Y57278D01*
X28377Y57346D01*
X28415Y57412D01*
X28456Y57476D01*
X28499Y57539D01*
X28546Y57599D01*
X28596Y57656D01*
X28649Y57711D01*
X28704Y57764D01*
X28761Y57814D01*
X28821Y57861D01*
X28884Y57904D01*
X28948Y57945D01*
X29014Y57983D01*
X29082Y58017D01*
X29152Y58048D01*
X29223Y58075D01*
X29296Y58099D01*
X29369Y58119D01*
X29443Y58136D01*
X29518Y58149D01*
X29594Y58159D01*
X29670Y58164D01*
X29746Y58166D01*
X32230Y58166D01*
X32306Y58164D01*
X32382Y58159D01*
X32458Y58149D01*
X32533Y58136D01*
X32607Y58119D01*
X32681Y58099D01*
X32753Y58075D01*
X32824Y58048D01*
X32894Y58017D01*
X32962Y57983D01*
X33028Y57945D01*
X33092Y57904D01*
X33155Y57861D01*
X33215Y57814D01*
X33272Y57764D01*
X33327Y57711D01*
X33380Y57656D01*
X33430Y57599D01*
X33477Y57539D01*
X33520Y57476D01*
X33561Y57412D01*
X33599Y57346D01*
X33633Y57278D01*
X33664Y57208D01*
X33691Y57137D01*
X33715Y57065D01*
X33735Y56991D01*
X33752Y56917D01*
X33765Y56842D01*
X33775Y56766D01*
X33780Y56690D01*
X33782Y56614D01*
X33782Y55062D01*
X7874Y32766D02*
X7874Y27178D01*
X7874Y32766D02*
X9426Y32766D01*
X9503Y32764D01*
X9581Y32758D01*
X9657Y32749D01*
X9734Y32735D01*
X9809Y32718D01*
X9883Y32697D01*
X9957Y32672D01*
X10029Y32644D01*
X10099Y32612D01*
X10168Y32577D01*
X10235Y32538D01*
X10300Y32496D01*
X10363Y32451D01*
X10424Y32403D01*
X10482Y32352D01*
X10537Y32298D01*
X10590Y32241D01*
X10639Y32182D01*
X10686Y32120D01*
X10730Y32056D01*
X10770Y31990D01*
X10807Y31922D01*
X10841Y31852D01*
X10871Y31781D01*
X10897Y31708D01*
X10920Y31634D01*
X10939Y31559D01*
X10954Y31484D01*
X10966Y31407D01*
X10974Y31330D01*
X10978Y31253D01*
X10978Y31175D01*
X10974Y31098D01*
X10966Y31021D01*
X10954Y30944D01*
X10939Y30869D01*
X10920Y30794D01*
X10897Y30720D01*
X10871Y30647D01*
X10841Y30576D01*
X10807Y30506D01*
X10770Y30438D01*
X10730Y30372D01*
X10686Y30308D01*
X10639Y30246D01*
X10590Y30187D01*
X10537Y30130D01*
X10482Y30076D01*
X10424Y30025D01*
X10363Y29977D01*
X10300Y29932D01*
X10235Y29890D01*
X10168Y29851D01*
X10099Y29816D01*
X10029Y29784D01*
X9957Y29756D01*
X9883Y29731D01*
X9809Y29710D01*
X9734Y29693D01*
X9657Y29679D01*
X9581Y29670D01*
X9503Y29664D01*
X9426Y29662D01*
X7874Y29662D01*
X12784Y27178D02*
X14647Y32766D01*
X16509Y27178D01*
X16044Y28575D02*
X13250Y28575D01*
X18819Y27178D02*
X18819Y32766D01*
X20682Y29662D01*
X22544Y32766D01*
X22544Y27178D01*
X25165Y28730D02*
X25167Y28807D01*
X25173Y28885D01*
X25182Y28961D01*
X25196Y29038D01*
X25213Y29113D01*
X25234Y29187D01*
X25259Y29261D01*
X25287Y29333D01*
X25319Y29403D01*
X25354Y29472D01*
X25393Y29539D01*
X25435Y29604D01*
X25480Y29667D01*
X25528Y29728D01*
X25579Y29786D01*
X25633Y29841D01*
X25690Y29894D01*
X25749Y29943D01*
X25811Y29990D01*
X25875Y30034D01*
X25941Y30074D01*
X26009Y30111D01*
X26079Y30145D01*
X26150Y30175D01*
X26223Y30201D01*
X26297Y30224D01*
X26372Y30243D01*
X26447Y30258D01*
X26524Y30270D01*
X26601Y30278D01*
X26678Y30282D01*
X26756Y30282D01*
X26833Y30278D01*
X26910Y30270D01*
X26987Y30258D01*
X27062Y30243D01*
X27137Y30224D01*
X27211Y30201D01*
X27284Y30175D01*
X27355Y30145D01*
X27425Y30111D01*
X27493Y30074D01*
X27559Y30034D01*
X27623Y29990D01*
X27685Y29943D01*
X27744Y29894D01*
X27801Y29841D01*
X27855Y29786D01*
X27906Y29728D01*
X27954Y29667D01*
X27999Y29604D01*
X28041Y29539D01*
X28080Y29472D01*
X28115Y29403D01*
X28147Y29333D01*
X28175Y29261D01*
X28200Y29187D01*
X28221Y29113D01*
X28238Y29038D01*
X28252Y28961D01*
X28261Y28885D01*
X28267Y28807D01*
X28269Y28730D01*
X28267Y28653D01*
X28261Y28575D01*
X28252Y28499D01*
X28238Y28422D01*
X28221Y28347D01*
X28200Y28273D01*
X28175Y28199D01*
X28147Y28127D01*
X28115Y28057D01*
X28080Y27988D01*
X28041Y27921D01*
X27999Y27856D01*
X27954Y27793D01*
X27906Y27732D01*
X27855Y27674D01*
X27801Y27619D01*
X27744Y27566D01*
X27685Y27517D01*
X27623Y27470D01*
X27559Y27426D01*
X27493Y27386D01*
X27425Y27349D01*
X27355Y27315D01*
X27284Y27285D01*
X27211Y27259D01*
X27137Y27236D01*
X27062Y27217D01*
X26987Y27202D01*
X26910Y27190D01*
X26833Y27182D01*
X26756Y27178D01*
X26678Y27178D01*
X26601Y27182D01*
X26524Y27190D01*
X26447Y27202D01*
X26372Y27217D01*
X26297Y27236D01*
X26223Y27259D01*
X26150Y27285D01*
X26079Y27315D01*
X26009Y27349D01*
X25941Y27386D01*
X25875Y27426D01*
X25811Y27470D01*
X25749Y27517D01*
X25690Y27566D01*
X25633Y27619D01*
X25579Y27674D01*
X25528Y27732D01*
X25480Y27793D01*
X25435Y27856D01*
X25393Y27921D01*
X25354Y27988D01*
X25319Y28057D01*
X25287Y28127D01*
X25259Y28199D01*
X25234Y28273D01*
X25213Y28347D01*
X25196Y28422D01*
X25182Y28499D01*
X25173Y28575D01*
X25167Y28653D01*
X25165Y28730D01*
X25475Y31524D02*
X25477Y31594D01*
X25483Y31663D01*
X25493Y31732D01*
X25506Y31800D01*
X25524Y31868D01*
X25545Y31934D01*
X25570Y31999D01*
X25598Y32063D01*
X25630Y32125D01*
X25665Y32185D01*
X25704Y32243D01*
X25746Y32298D01*
X25791Y32352D01*
X25839Y32402D01*
X25889Y32450D01*
X25943Y32495D01*
X25998Y32537D01*
X26056Y32576D01*
X26116Y32611D01*
X26178Y32643D01*
X26242Y32671D01*
X26307Y32696D01*
X26373Y32717D01*
X26441Y32735D01*
X26509Y32748D01*
X26578Y32758D01*
X26647Y32764D01*
X26717Y32766D01*
X26787Y32764D01*
X26856Y32758D01*
X26925Y32748D01*
X26993Y32735D01*
X27061Y32717D01*
X27127Y32696D01*
X27192Y32671D01*
X27256Y32643D01*
X27318Y32611D01*
X27378Y32576D01*
X27436Y32537D01*
X27491Y32495D01*
X27545Y32450D01*
X27595Y32402D01*
X27643Y32352D01*
X27688Y32298D01*
X27730Y32243D01*
X27769Y32185D01*
X27804Y32125D01*
X27836Y32063D01*
X27864Y31999D01*
X27889Y31934D01*
X27910Y31868D01*
X27928Y31800D01*
X27941Y31732D01*
X27951Y31663D01*
X27957Y31594D01*
X27959Y31524D01*
X27957Y31454D01*
X27951Y31385D01*
X27941Y31316D01*
X27928Y31248D01*
X27910Y31180D01*
X27889Y31114D01*
X27864Y31049D01*
X27836Y30985D01*
X27804Y30923D01*
X27769Y30863D01*
X27730Y30805D01*
X27688Y30750D01*
X27643Y30696D01*
X27595Y30646D01*
X27545Y30598D01*
X27491Y30553D01*
X27436Y30511D01*
X27378Y30472D01*
X27318Y30437D01*
X27256Y30405D01*
X27192Y30377D01*
X27127Y30352D01*
X27061Y30331D01*
X26993Y30313D01*
X26925Y30300D01*
X26856Y30290D01*
X26787Y30284D01*
X26717Y30282D01*
X26647Y30284D01*
X26578Y30290D01*
X26509Y30300D01*
X26441Y30313D01*
X26373Y30331D01*
X26307Y30352D01*
X26242Y30377D01*
X26178Y30405D01*
X26116Y30437D01*
X26056Y30472D01*
X25998Y30511D01*
X25943Y30553D01*
X25889Y30598D01*
X25839Y30646D01*
X25791Y30696D01*
X25746Y30750D01*
X25704Y30805D01*
X25665Y30863D01*
X25630Y30923D01*
X25598Y30985D01*
X25570Y31049D01*
X25545Y31114D01*
X25524Y31180D01*
X25506Y31248D01*
X25493Y31316D01*
X25483Y31385D01*
X25477Y31454D01*
X25475Y31524D01*
X30651Y29972D02*
X30653Y30103D01*
X30658Y30233D01*
X30668Y30363D01*
X30681Y30493D01*
X30697Y30623D01*
X30717Y30752D01*
X30741Y30880D01*
X30769Y31007D01*
X30800Y31134D01*
X30835Y31260D01*
X30873Y31385D01*
X30915Y31509D01*
X30960Y31631D01*
X31009Y31752D01*
X31061Y31872D01*
X31117Y31990D01*
X31116Y31990D02*
X31139Y32050D01*
X31165Y32110D01*
X31194Y32167D01*
X31227Y32223D01*
X31263Y32277D01*
X31301Y32329D01*
X31343Y32379D01*
X31387Y32426D01*
X31434Y32471D01*
X31484Y32513D01*
X31535Y32552D01*
X31589Y32588D01*
X31645Y32621D01*
X31702Y32651D01*
X31761Y32678D01*
X31822Y32701D01*
X31883Y32721D01*
X31946Y32737D01*
X32010Y32750D01*
X32074Y32759D01*
X32138Y32764D01*
X32203Y32766D01*
X32268Y32764D01*
X32332Y32759D01*
X32396Y32750D01*
X32460Y32737D01*
X32523Y32721D01*
X32584Y32701D01*
X32645Y32678D01*
X32704Y32651D01*
X32761Y32621D01*
X32817Y32588D01*
X32871Y32552D01*
X32922Y32513D01*
X32972Y32471D01*
X33019Y32426D01*
X33063Y32379D01*
X33105Y32329D01*
X33143Y32277D01*
X33179Y32223D01*
X33212Y32167D01*
X33241Y32110D01*
X33267Y32050D01*
X33290Y31990D01*
X33346Y31872D01*
X33398Y31752D01*
X33447Y31631D01*
X33492Y31509D01*
X33534Y31385D01*
X33572Y31260D01*
X33607Y31134D01*
X33638Y31008D01*
X33666Y30880D01*
X33690Y30752D01*
X33710Y30623D01*
X33726Y30493D01*
X33739Y30363D01*
X33749Y30233D01*
X33754Y30103D01*
X33756Y29972D01*
X30651Y29972D02*
X30653Y29841D01*
X30658Y29711D01*
X30668Y29581D01*
X30681Y29451D01*
X30697Y29321D01*
X30717Y29192D01*
X30741Y29064D01*
X30769Y28937D01*
X30800Y28810D01*
X30835Y28684D01*
X30873Y28559D01*
X30915Y28435D01*
X30960Y28313D01*
X31009Y28192D01*
X31061Y28072D01*
X31117Y27954D01*
X31116Y27954D02*
X31139Y27894D01*
X31165Y27834D01*
X31194Y27777D01*
X31227Y27721D01*
X31263Y27667D01*
X31301Y27615D01*
X31343Y27565D01*
X31387Y27518D01*
X31434Y27473D01*
X31484Y27431D01*
X31535Y27392D01*
X31589Y27356D01*
X31645Y27323D01*
X31702Y27293D01*
X31761Y27266D01*
X31822Y27243D01*
X31883Y27223D01*
X31946Y27207D01*
X32010Y27194D01*
X32074Y27185D01*
X32138Y27180D01*
X32203Y27178D01*
X33290Y27954D02*
X33346Y28072D01*
X33398Y28192D01*
X33447Y28313D01*
X33492Y28435D01*
X33534Y28559D01*
X33572Y28684D01*
X33607Y28810D01*
X33638Y28936D01*
X33666Y29064D01*
X33690Y29192D01*
X33710Y29321D01*
X33726Y29451D01*
X33739Y29581D01*
X33749Y29711D01*
X33754Y29841D01*
X33756Y29972D01*
X33290Y27954D02*
X33267Y27894D01*
X33241Y27834D01*
X33212Y27777D01*
X33179Y27721D01*
X33143Y27667D01*
X33105Y27615D01*
X33063Y27565D01*
X33019Y27518D01*
X32972Y27473D01*
X32922Y27431D01*
X32871Y27392D01*
X32817Y27356D01*
X32761Y27323D01*
X32704Y27293D01*
X32645Y27266D01*
X32584Y27243D01*
X32523Y27223D01*
X32460Y27207D01*
X32396Y27194D01*
X32332Y27185D01*
X32268Y27180D01*
X32203Y27178D01*
X30961Y28420D02*
X33445Y31524D01*
X36137Y31524D02*
X37690Y32766D01*
X37690Y27178D01*
X39242Y27178D02*
X36137Y27178D01*
X41624Y30282D02*
X43486Y30282D01*
X43486Y30283D02*
X43556Y30281D01*
X43625Y30275D01*
X43694Y30265D01*
X43762Y30252D01*
X43830Y30234D01*
X43896Y30213D01*
X43961Y30188D01*
X44025Y30160D01*
X44087Y30128D01*
X44147Y30093D01*
X44205Y30054D01*
X44260Y30012D01*
X44314Y29967D01*
X44364Y29919D01*
X44412Y29869D01*
X44457Y29815D01*
X44499Y29760D01*
X44538Y29702D01*
X44573Y29642D01*
X44605Y29580D01*
X44633Y29516D01*
X44658Y29451D01*
X44679Y29385D01*
X44697Y29317D01*
X44710Y29249D01*
X44720Y29180D01*
X44726Y29111D01*
X44728Y29041D01*
X44728Y28730D01*
X44726Y28653D01*
X44720Y28575D01*
X44711Y28499D01*
X44697Y28422D01*
X44680Y28347D01*
X44659Y28273D01*
X44634Y28199D01*
X44606Y28127D01*
X44574Y28057D01*
X44539Y27988D01*
X44500Y27921D01*
X44458Y27856D01*
X44413Y27793D01*
X44365Y27732D01*
X44314Y27674D01*
X44260Y27619D01*
X44203Y27566D01*
X44144Y27517D01*
X44082Y27470D01*
X44018Y27426D01*
X43952Y27386D01*
X43884Y27349D01*
X43814Y27315D01*
X43743Y27285D01*
X43670Y27259D01*
X43596Y27236D01*
X43521Y27217D01*
X43446Y27202D01*
X43369Y27190D01*
X43292Y27182D01*
X43215Y27178D01*
X43137Y27178D01*
X43060Y27182D01*
X42983Y27190D01*
X42906Y27202D01*
X42831Y27217D01*
X42756Y27236D01*
X42682Y27259D01*
X42609Y27285D01*
X42538Y27315D01*
X42468Y27349D01*
X42400Y27386D01*
X42334Y27426D01*
X42270Y27470D01*
X42208Y27517D01*
X42149Y27566D01*
X42092Y27619D01*
X42038Y27674D01*
X41987Y27732D01*
X41939Y27793D01*
X41894Y27856D01*
X41852Y27921D01*
X41813Y27988D01*
X41778Y28057D01*
X41746Y28127D01*
X41718Y28199D01*
X41693Y28273D01*
X41672Y28347D01*
X41655Y28422D01*
X41641Y28499D01*
X41632Y28575D01*
X41626Y28653D01*
X41624Y28730D01*
X41624Y30282D01*
X41623Y30282D02*
X41625Y30380D01*
X41631Y30477D01*
X41640Y30574D01*
X41654Y30671D01*
X41671Y30767D01*
X41692Y30862D01*
X41716Y30956D01*
X41745Y31050D01*
X41777Y31142D01*
X41812Y31233D01*
X41851Y31322D01*
X41894Y31410D01*
X41940Y31496D01*
X41989Y31580D01*
X42042Y31662D01*
X42097Y31742D01*
X42156Y31820D01*
X42218Y31895D01*
X42283Y31968D01*
X42351Y32038D01*
X42421Y32106D01*
X42494Y32171D01*
X42569Y32233D01*
X42647Y32292D01*
X42727Y32347D01*
X42809Y32400D01*
X42893Y32449D01*
X42979Y32495D01*
X43067Y32538D01*
X43156Y32577D01*
X43247Y32612D01*
X43339Y32644D01*
X43433Y32673D01*
X43527Y32697D01*
X43622Y32718D01*
X43718Y32735D01*
X43815Y32749D01*
X43912Y32758D01*
X44009Y32764D01*
X44107Y32766D01*
X9426Y21138D02*
X7874Y21138D01*
X9426Y21138D02*
X9503Y21136D01*
X9581Y21130D01*
X9657Y21121D01*
X9734Y21107D01*
X9809Y21090D01*
X9883Y21069D01*
X9957Y21044D01*
X10029Y21016D01*
X10099Y20984D01*
X10168Y20949D01*
X10235Y20910D01*
X10300Y20868D01*
X10363Y20823D01*
X10424Y20775D01*
X10482Y20724D01*
X10537Y20670D01*
X10590Y20613D01*
X10639Y20554D01*
X10686Y20492D01*
X10730Y20428D01*
X10770Y20362D01*
X10807Y20294D01*
X10841Y20224D01*
X10871Y20153D01*
X10897Y20080D01*
X10920Y20006D01*
X10939Y19931D01*
X10954Y19856D01*
X10966Y19779D01*
X10974Y19702D01*
X10978Y19625D01*
X10978Y19547D01*
X10974Y19470D01*
X10966Y19393D01*
X10954Y19316D01*
X10939Y19241D01*
X10920Y19166D01*
X10897Y19092D01*
X10871Y19019D01*
X10841Y18948D01*
X10807Y18878D01*
X10770Y18810D01*
X10730Y18744D01*
X10686Y18680D01*
X10639Y18618D01*
X10590Y18559D01*
X10537Y18502D01*
X10482Y18448D01*
X10424Y18397D01*
X10363Y18349D01*
X10300Y18304D01*
X10235Y18262D01*
X10168Y18223D01*
X10099Y18188D01*
X10029Y18156D01*
X9957Y18128D01*
X9883Y18103D01*
X9809Y18082D01*
X9734Y18065D01*
X9657Y18051D01*
X9581Y18042D01*
X9503Y18036D01*
X9426Y18034D01*
X7874Y18034D01*
X7874Y23622D01*
X9426Y23622D01*
X9496Y23620D01*
X9565Y23614D01*
X9634Y23604D01*
X9702Y23591D01*
X9770Y23573D01*
X9836Y23552D01*
X9901Y23527D01*
X9965Y23499D01*
X10027Y23467D01*
X10087Y23432D01*
X10145Y23393D01*
X10200Y23351D01*
X10254Y23306D01*
X10304Y23258D01*
X10352Y23208D01*
X10397Y23154D01*
X10439Y23099D01*
X10478Y23041D01*
X10513Y22981D01*
X10545Y22919D01*
X10573Y22855D01*
X10598Y22790D01*
X10619Y22724D01*
X10637Y22656D01*
X10650Y22588D01*
X10660Y22519D01*
X10666Y22450D01*
X10668Y22380D01*
X10666Y22310D01*
X10660Y22241D01*
X10650Y22172D01*
X10637Y22104D01*
X10619Y22036D01*
X10598Y21970D01*
X10573Y21905D01*
X10545Y21841D01*
X10513Y21779D01*
X10478Y21719D01*
X10439Y21661D01*
X10397Y21606D01*
X10352Y21552D01*
X10304Y21502D01*
X10254Y21454D01*
X10200Y21409D01*
X10145Y21367D01*
X10087Y21328D01*
X10027Y21293D01*
X9965Y21261D01*
X9901Y21233D01*
X9836Y21208D01*
X9770Y21187D01*
X9702Y21169D01*
X9634Y21156D01*
X9565Y21146D01*
X9496Y21140D01*
X9426Y21138D01*
X13255Y21759D02*
X13255Y18034D01*
X13255Y21759D02*
X15117Y21759D01*
X15117Y21138D01*
X17811Y18034D02*
X19363Y18034D01*
X17811Y18034D02*
X17753Y18036D01*
X17694Y18041D01*
X17637Y18050D01*
X17579Y18063D01*
X17523Y18080D01*
X17468Y18099D01*
X17415Y18123D01*
X17362Y18149D01*
X17312Y18179D01*
X17264Y18212D01*
X17218Y18248D01*
X17174Y18286D01*
X17132Y18328D01*
X17094Y18372D01*
X17058Y18418D01*
X17025Y18466D01*
X16995Y18516D01*
X16969Y18569D01*
X16945Y18622D01*
X16926Y18677D01*
X16909Y18733D01*
X16896Y18791D01*
X16887Y18848D01*
X16882Y18907D01*
X16880Y18965D01*
X16880Y20518D01*
X16879Y20518D02*
X16881Y20588D01*
X16887Y20657D01*
X16897Y20726D01*
X16910Y20794D01*
X16928Y20862D01*
X16949Y20928D01*
X16974Y20993D01*
X17002Y21057D01*
X17034Y21119D01*
X17069Y21179D01*
X17108Y21237D01*
X17150Y21292D01*
X17195Y21346D01*
X17243Y21396D01*
X17293Y21444D01*
X17347Y21489D01*
X17402Y21531D01*
X17460Y21570D01*
X17520Y21605D01*
X17582Y21637D01*
X17646Y21665D01*
X17711Y21690D01*
X17777Y21711D01*
X17845Y21729D01*
X17913Y21742D01*
X17982Y21752D01*
X18051Y21758D01*
X18121Y21760D01*
X18191Y21758D01*
X18260Y21752D01*
X18329Y21742D01*
X18397Y21729D01*
X18465Y21711D01*
X18531Y21690D01*
X18596Y21665D01*
X18660Y21637D01*
X18722Y21605D01*
X18782Y21570D01*
X18840Y21531D01*
X18895Y21489D01*
X18949Y21444D01*
X18999Y21396D01*
X19047Y21346D01*
X19092Y21292D01*
X19134Y21237D01*
X19173Y21179D01*
X19208Y21119D01*
X19240Y21057D01*
X19268Y20993D01*
X19293Y20928D01*
X19314Y20862D01*
X19332Y20794D01*
X19345Y20726D01*
X19355Y20657D01*
X19361Y20588D01*
X19363Y20518D01*
X19363Y19897D01*
X16880Y19897D01*
X22692Y20207D02*
X24089Y20207D01*
X22692Y20208D02*
X22628Y20206D01*
X22563Y20200D01*
X22500Y20191D01*
X22437Y20178D01*
X22375Y20161D01*
X22314Y20140D01*
X22254Y20116D01*
X22196Y20088D01*
X22139Y20057D01*
X22085Y20023D01*
X22032Y19985D01*
X21982Y19944D01*
X21935Y19901D01*
X21890Y19855D01*
X21848Y19806D01*
X21809Y19755D01*
X21773Y19701D01*
X21740Y19646D01*
X21711Y19588D01*
X21685Y19530D01*
X21662Y19469D01*
X21643Y19408D01*
X21628Y19345D01*
X21617Y19281D01*
X21609Y19218D01*
X21605Y19153D01*
X21605Y19089D01*
X21609Y19024D01*
X21617Y18961D01*
X21628Y18897D01*
X21643Y18834D01*
X21662Y18773D01*
X21685Y18712D01*
X21711Y18654D01*
X21740Y18596D01*
X21773Y18541D01*
X21809Y18487D01*
X21848Y18436D01*
X21890Y18387D01*
X21935Y18341D01*
X21982Y18298D01*
X22032Y18257D01*
X22085Y18219D01*
X22139Y18185D01*
X22196Y18154D01*
X22254Y18126D01*
X22314Y18102D01*
X22375Y18081D01*
X22437Y18064D01*
X22500Y18051D01*
X22563Y18042D01*
X22628Y18036D01*
X22692Y18034D01*
X24089Y18034D01*
X24089Y20828D01*
X24087Y20886D01*
X24082Y20945D01*
X24073Y21002D01*
X24060Y21060D01*
X24043Y21116D01*
X24024Y21171D01*
X24000Y21224D01*
X23974Y21277D01*
X23944Y21327D01*
X23911Y21375D01*
X23875Y21421D01*
X23837Y21465D01*
X23795Y21507D01*
X23751Y21545D01*
X23705Y21581D01*
X23657Y21614D01*
X23607Y21644D01*
X23554Y21670D01*
X23501Y21694D01*
X23446Y21713D01*
X23390Y21730D01*
X23332Y21743D01*
X23275Y21752D01*
X23216Y21757D01*
X23158Y21759D01*
X21916Y21759D01*
X26821Y23622D02*
X26821Y18034D01*
X26821Y19897D02*
X29305Y21759D01*
X27908Y20673D02*
X29305Y18034D01*
X31327Y19276D02*
X31327Y20518D01*
X31329Y20588D01*
X31335Y20657D01*
X31345Y20726D01*
X31358Y20794D01*
X31376Y20862D01*
X31397Y20928D01*
X31422Y20993D01*
X31450Y21057D01*
X31482Y21119D01*
X31517Y21179D01*
X31556Y21237D01*
X31598Y21292D01*
X31643Y21346D01*
X31691Y21396D01*
X31741Y21444D01*
X31795Y21489D01*
X31850Y21531D01*
X31908Y21570D01*
X31968Y21605D01*
X32030Y21637D01*
X32094Y21665D01*
X32159Y21690D01*
X32225Y21711D01*
X32293Y21729D01*
X32361Y21742D01*
X32430Y21752D01*
X32499Y21758D01*
X32569Y21760D01*
X32639Y21758D01*
X32708Y21752D01*
X32777Y21742D01*
X32845Y21729D01*
X32913Y21711D01*
X32979Y21690D01*
X33044Y21665D01*
X33108Y21637D01*
X33170Y21605D01*
X33230Y21570D01*
X33288Y21531D01*
X33343Y21489D01*
X33397Y21444D01*
X33447Y21396D01*
X33495Y21346D01*
X33540Y21292D01*
X33582Y21237D01*
X33621Y21179D01*
X33656Y21119D01*
X33688Y21057D01*
X33716Y20993D01*
X33741Y20928D01*
X33762Y20862D01*
X33780Y20794D01*
X33793Y20726D01*
X33803Y20657D01*
X33809Y20588D01*
X33811Y20518D01*
X33811Y19276D01*
X33809Y19206D01*
X33803Y19137D01*
X33793Y19068D01*
X33780Y19000D01*
X33762Y18932D01*
X33741Y18866D01*
X33716Y18801D01*
X33688Y18737D01*
X33656Y18675D01*
X33621Y18615D01*
X33582Y18557D01*
X33540Y18502D01*
X33495Y18448D01*
X33447Y18398D01*
X33397Y18350D01*
X33343Y18305D01*
X33288Y18263D01*
X33230Y18224D01*
X33170Y18189D01*
X33108Y18157D01*
X33044Y18129D01*
X32979Y18104D01*
X32913Y18083D01*
X32845Y18065D01*
X32777Y18052D01*
X32708Y18042D01*
X32639Y18036D01*
X32569Y18034D01*
X32499Y18036D01*
X32430Y18042D01*
X32361Y18052D01*
X32293Y18065D01*
X32225Y18083D01*
X32159Y18104D01*
X32094Y18129D01*
X32030Y18157D01*
X31968Y18189D01*
X31908Y18224D01*
X31850Y18263D01*
X31795Y18305D01*
X31741Y18350D01*
X31691Y18398D01*
X31643Y18448D01*
X31598Y18502D01*
X31556Y18557D01*
X31517Y18615D01*
X31482Y18675D01*
X31450Y18737D01*
X31422Y18801D01*
X31397Y18866D01*
X31376Y18932D01*
X31358Y19000D01*
X31345Y19068D01*
X31335Y19137D01*
X31329Y19206D01*
X31327Y19276D01*
X36265Y18965D02*
X36265Y21759D01*
X36265Y18965D02*
X36267Y18907D01*
X36272Y18848D01*
X36281Y18791D01*
X36294Y18733D01*
X36311Y18677D01*
X36330Y18622D01*
X36354Y18569D01*
X36380Y18516D01*
X36410Y18466D01*
X36443Y18418D01*
X36479Y18372D01*
X36517Y18328D01*
X36559Y18286D01*
X36603Y18248D01*
X36649Y18212D01*
X36697Y18179D01*
X36747Y18149D01*
X36800Y18123D01*
X36853Y18099D01*
X36908Y18080D01*
X36964Y18063D01*
X37022Y18050D01*
X37079Y18041D01*
X37138Y18036D01*
X37196Y18034D01*
X38748Y18034D01*
X38748Y21759D01*
X40736Y21759D02*
X42599Y21759D01*
X41357Y23622D02*
X41357Y18965D01*
X41359Y18907D01*
X41364Y18848D01*
X41373Y18791D01*
X41386Y18733D01*
X41403Y18677D01*
X41422Y18622D01*
X41446Y18569D01*
X41472Y18516D01*
X41502Y18466D01*
X41535Y18418D01*
X41571Y18372D01*
X41609Y18328D01*
X41651Y18286D01*
X41695Y18248D01*
X41741Y18212D01*
X41789Y18179D01*
X41840Y18149D01*
X41892Y18123D01*
X41945Y18099D01*
X42000Y18080D01*
X42056Y18063D01*
X42114Y18050D01*
X42171Y18041D01*
X42230Y18036D01*
X42288Y18034D01*
X42599Y18034D01*
X48662Y18034D02*
X47420Y21759D01*
X49904Y21759D02*
X48662Y18034D01*
X52048Y22380D02*
X53600Y23622D01*
X53600Y18034D01*
X52048Y18034D02*
X55152Y18034D01*
D11*
X101600Y19050D02*
X101600Y31750D01*
X101600Y19050D02*
X95250Y12700D01*
X82550Y12700D02*
X76200Y19050D01*
X101600Y57150D02*
X95250Y63500D01*
X101600Y57150D02*
X101600Y44450D01*
X95250Y38100D01*
X82550Y38100D02*
X76200Y44450D01*
X76200Y57150D01*
X82550Y63500D01*
X95250Y38100D02*
X101600Y31750D01*
X82550Y38100D02*
X76200Y31750D01*
X76200Y19050D01*
X101600Y95250D02*
X101600Y107950D01*
X101600Y95250D02*
X95250Y88900D01*
X82550Y88900D02*
X76200Y95250D01*
X95250Y88900D02*
X101600Y82550D01*
X101600Y69850D01*
X95250Y63500D01*
X82550Y63500D02*
X76200Y69850D01*
X76200Y82550D01*
X82550Y88900D01*
X82550Y114300D02*
X95250Y114300D01*
X101600Y107950D01*
X82550Y114300D02*
X76200Y107950D01*
X76200Y95250D01*
X82550Y12700D02*
X95250Y12700D01*
X25400Y57150D02*
X19050Y63500D01*
X25400Y57150D02*
X25400Y44450D01*
X19050Y38100D01*
X6350Y38100D02*
X0Y44450D01*
X0Y57150D01*
X6350Y63500D01*
X25400Y95250D02*
X25400Y107950D01*
X25400Y95250D02*
X19050Y88900D01*
X6350Y88900D02*
X0Y95250D01*
X19050Y88900D02*
X25400Y82550D01*
X25400Y69850D01*
X19050Y63500D01*
X6350Y63500D02*
X0Y69850D01*
X0Y82550D01*
X6350Y88900D01*
X6350Y114300D02*
X19050Y114300D01*
X25400Y107950D01*
X6350Y114300D02*
X0Y107950D01*
X0Y95250D01*
X6350Y38100D02*
X19050Y38100D01*
M02*
