G75*
%MOIN*%
%OFA0B0*%
%FSLAX25Y25*%
%IPPOS*%
%LPD*%
%AMOC8*
5,1,8,0,0,1.08239X$1,22.5*
%
%ADD10C,0.01772*%
%ADD11R,0.04737X0.02375*%
%ADD12R,0.04737X0.02178*%
D10*
X0004685Y0017614D02*
X0004910Y0017617D01*
X0005136Y0017625D01*
X0005361Y0017639D01*
X0005586Y0017658D01*
X0005810Y0017682D01*
X0006033Y0017712D01*
X0006256Y0017747D01*
X0006478Y0017788D01*
X0006698Y0017834D01*
X0006918Y0017885D01*
X0007136Y0017942D01*
X0007353Y0018004D01*
X0007568Y0018071D01*
X0007782Y0018143D01*
X0007994Y0018220D01*
X0008204Y0018303D01*
X0008411Y0018390D01*
X0008617Y0018483D01*
X0008820Y0018580D01*
X0009021Y0018683D01*
X0009220Y0018790D01*
X0009415Y0018902D01*
X0009608Y0019019D01*
X0009799Y0019140D01*
X0009986Y0019266D01*
X0010170Y0019396D01*
X0010350Y0019531D01*
X0010528Y0019670D01*
X0010702Y0019813D01*
X0010873Y0019961D01*
X0011040Y0020112D01*
X0011203Y0020268D01*
X0011362Y0020427D01*
X0011518Y0020590D01*
X0011669Y0020757D01*
X0011817Y0020928D01*
X0011960Y0021102D01*
X0012099Y0021280D01*
X0012234Y0021460D01*
X0012364Y0021644D01*
X0012490Y0021831D01*
X0012611Y0022022D01*
X0012728Y0022215D01*
X0012840Y0022410D01*
X0012947Y0022609D01*
X0013050Y0022810D01*
X0013147Y0023013D01*
X0013240Y0023219D01*
X0013327Y0023426D01*
X0013410Y0023636D01*
X0013487Y0023848D01*
X0013559Y0024062D01*
X0013626Y0024277D01*
X0013688Y0024494D01*
X0013745Y0024712D01*
X0013796Y0024932D01*
X0013842Y0025152D01*
X0013883Y0025374D01*
X0013918Y0025597D01*
X0013948Y0025820D01*
X0013972Y0026044D01*
X0013991Y0026269D01*
X0014005Y0026494D01*
X0014013Y0026720D01*
X0014016Y0026945D01*
X0014016Y0036827D01*
X0017559Y0036630D02*
X0017559Y0026669D01*
X0021142Y0027102D02*
X0021142Y0036591D01*
X0010472Y0036472D02*
X0010472Y0026906D01*
X0017559Y0026669D02*
X0017555Y0026366D01*
X0017544Y0026062D01*
X0017526Y0025759D01*
X0017500Y0025457D01*
X0017467Y0025155D01*
X0017427Y0024854D01*
X0017380Y0024555D01*
X0017325Y0024256D01*
X0017263Y0023959D01*
X0017194Y0023663D01*
X0017118Y0023370D01*
X0017035Y0023078D01*
X0016944Y0022788D01*
X0016847Y0022501D01*
X0016743Y0022216D01*
X0016632Y0021933D01*
X0016514Y0021653D01*
X0016389Y0021377D01*
X0016258Y0021103D01*
X0016120Y0020833D01*
X0015976Y0020566D01*
X0015825Y0020302D01*
X0015668Y0020042D01*
X0015505Y0019787D01*
X0015336Y0019535D01*
X0015160Y0019287D01*
X0014979Y0019044D01*
X0014792Y0018805D01*
X0014599Y0018570D01*
X0014401Y0018341D01*
X0014197Y0018116D01*
X0013987Y0017896D01*
X0013773Y0017682D01*
X0013553Y0017472D01*
X0013328Y0017268D01*
X0013099Y0017070D01*
X0012864Y0016877D01*
X0012625Y0016690D01*
X0012382Y0016509D01*
X0012134Y0016333D01*
X0011882Y0016164D01*
X0011627Y0016001D01*
X0011367Y0015844D01*
X0011103Y0015693D01*
X0010836Y0015549D01*
X0010566Y0015411D01*
X0010292Y0015280D01*
X0010016Y0015155D01*
X0009736Y0015037D01*
X0009453Y0014926D01*
X0009168Y0014822D01*
X0008881Y0014725D01*
X0008591Y0014634D01*
X0008299Y0014551D01*
X0008006Y0014475D01*
X0007710Y0014406D01*
X0007413Y0014344D01*
X0007114Y0014289D01*
X0006815Y0014242D01*
X0006514Y0014202D01*
X0006212Y0014169D01*
X0005910Y0014143D01*
X0005607Y0014125D01*
X0005303Y0014114D01*
X0005000Y0014110D01*
X0004764Y0021197D02*
X0004913Y0021199D01*
X0005063Y0021205D01*
X0005212Y0021215D01*
X0005361Y0021228D01*
X0005509Y0021246D01*
X0005657Y0021267D01*
X0005804Y0021293D01*
X0005951Y0021322D01*
X0006097Y0021355D01*
X0006242Y0021392D01*
X0006385Y0021432D01*
X0006528Y0021476D01*
X0006670Y0021524D01*
X0006810Y0021576D01*
X0006949Y0021632D01*
X0007086Y0021691D01*
X0007222Y0021753D01*
X0007356Y0021819D01*
X0007488Y0021889D01*
X0007619Y0021962D01*
X0007747Y0022038D01*
X0007873Y0022118D01*
X0007998Y0022201D01*
X0008120Y0022287D01*
X0008239Y0022377D01*
X0008357Y0022469D01*
X0008472Y0022565D01*
X0008584Y0022663D01*
X0008694Y0022765D01*
X0008801Y0022869D01*
X0008905Y0022976D01*
X0009007Y0023086D01*
X0009105Y0023198D01*
X0009201Y0023313D01*
X0009293Y0023431D01*
X0009383Y0023550D01*
X0009469Y0023672D01*
X0009552Y0023797D01*
X0009632Y0023923D01*
X0009708Y0024052D01*
X0009781Y0024182D01*
X0009851Y0024314D01*
X0009917Y0024448D01*
X0009979Y0024584D01*
X0010038Y0024721D01*
X0010094Y0024860D01*
X0010146Y0025000D01*
X0010194Y0025142D01*
X0010238Y0025285D01*
X0010278Y0025428D01*
X0010315Y0025573D01*
X0010348Y0025719D01*
X0010377Y0025866D01*
X0010403Y0026013D01*
X0010424Y0026161D01*
X0010442Y0026309D01*
X0010455Y0026458D01*
X0010465Y0026607D01*
X0010471Y0026757D01*
X0010473Y0026906D01*
X0010472Y0036472D02*
X0010470Y0036620D01*
X0010464Y0036767D01*
X0010454Y0036915D01*
X0010441Y0037062D01*
X0010423Y0037209D01*
X0010401Y0037355D01*
X0010376Y0037501D01*
X0010347Y0037645D01*
X0010313Y0037789D01*
X0010276Y0037932D01*
X0010236Y0038075D01*
X0010191Y0038215D01*
X0010143Y0038355D01*
X0010091Y0038493D01*
X0010035Y0038630D01*
X0009976Y0038766D01*
X0009913Y0038899D01*
X0009847Y0039032D01*
X0009777Y0039162D01*
X0009703Y0039290D01*
X0009627Y0039416D01*
X0009547Y0039541D01*
X0009463Y0039663D01*
X0009377Y0039782D01*
X0009287Y0039900D01*
X0009194Y0040015D01*
X0009099Y0040127D01*
X0009000Y0040237D01*
X0008898Y0040345D01*
X0008794Y0040449D01*
X0008686Y0040551D01*
X0008576Y0040650D01*
X0008464Y0040745D01*
X0008349Y0040838D01*
X0008231Y0040928D01*
X0008112Y0041014D01*
X0007990Y0041098D01*
X0007865Y0041178D01*
X0007739Y0041254D01*
X0007611Y0041328D01*
X0007481Y0041398D01*
X0007348Y0041464D01*
X0007215Y0041527D01*
X0007079Y0041586D01*
X0006942Y0041642D01*
X0006804Y0041694D01*
X0006664Y0041742D01*
X0006524Y0041787D01*
X0006381Y0041827D01*
X0006238Y0041864D01*
X0006094Y0041898D01*
X0005950Y0041927D01*
X0005804Y0041952D01*
X0005658Y0041974D01*
X0005511Y0041992D01*
X0005364Y0042005D01*
X0005216Y0042015D01*
X0005069Y0042021D01*
X0004921Y0042023D01*
X0005236Y0045607D02*
X0005448Y0045604D01*
X0005660Y0045597D01*
X0005872Y0045584D01*
X0006083Y0045566D01*
X0006294Y0045543D01*
X0006505Y0045515D01*
X0006714Y0045482D01*
X0006923Y0045443D01*
X0007131Y0045400D01*
X0007337Y0045352D01*
X0007543Y0045299D01*
X0007747Y0045240D01*
X0007949Y0045177D01*
X0008150Y0045109D01*
X0008349Y0045036D01*
X0008547Y0044959D01*
X0008742Y0044876D01*
X0008936Y0044789D01*
X0009127Y0044698D01*
X0009316Y0044601D01*
X0009503Y0044500D01*
X0009687Y0044395D01*
X0009869Y0044285D01*
X0010048Y0044171D01*
X0010224Y0044053D01*
X0010397Y0043930D01*
X0010567Y0043803D01*
X0010734Y0043673D01*
X0010898Y0043538D01*
X0011058Y0043399D01*
X0011215Y0043256D01*
X0011369Y0043110D01*
X0011519Y0042960D01*
X0011665Y0042806D01*
X0011808Y0042649D01*
X0011947Y0042489D01*
X0012082Y0042325D01*
X0012212Y0042158D01*
X0012339Y0041988D01*
X0012462Y0041815D01*
X0012580Y0041639D01*
X0012694Y0041460D01*
X0012804Y0041278D01*
X0012909Y0041094D01*
X0013010Y0040907D01*
X0013107Y0040718D01*
X0013198Y0040527D01*
X0013285Y0040333D01*
X0013368Y0040138D01*
X0013445Y0039940D01*
X0013518Y0039741D01*
X0013586Y0039540D01*
X0013649Y0039338D01*
X0013708Y0039134D01*
X0013761Y0038928D01*
X0013809Y0038722D01*
X0013852Y0038514D01*
X0013891Y0038305D01*
X0013924Y0038096D01*
X0013952Y0037885D01*
X0013975Y0037674D01*
X0013993Y0037463D01*
X0014006Y0037251D01*
X0014013Y0037039D01*
X0014016Y0036827D01*
X0017559Y0036630D02*
X0017555Y0036932D01*
X0017544Y0037233D01*
X0017526Y0037534D01*
X0017501Y0037834D01*
X0017468Y0038134D01*
X0017428Y0038433D01*
X0017381Y0038731D01*
X0017326Y0039028D01*
X0017265Y0039323D01*
X0017196Y0039617D01*
X0017121Y0039909D01*
X0017038Y0040199D01*
X0016948Y0040487D01*
X0016852Y0040772D01*
X0016748Y0041055D01*
X0016638Y0041336D01*
X0016521Y0041614D01*
X0016397Y0041889D01*
X0016266Y0042161D01*
X0016129Y0042430D01*
X0015986Y0042695D01*
X0015836Y0042957D01*
X0015680Y0043215D01*
X0015518Y0043469D01*
X0015350Y0043719D01*
X0015176Y0043966D01*
X0014995Y0044207D01*
X0014809Y0044445D01*
X0014618Y0044678D01*
X0014420Y0044906D01*
X0014218Y0045129D01*
X0014010Y0045347D01*
X0013796Y0045561D01*
X0013578Y0045769D01*
X0013355Y0045971D01*
X0013127Y0046169D01*
X0012894Y0046360D01*
X0012656Y0046546D01*
X0012415Y0046727D01*
X0012168Y0046901D01*
X0011918Y0047069D01*
X0011664Y0047231D01*
X0011406Y0047387D01*
X0011144Y0047537D01*
X0010879Y0047680D01*
X0010610Y0047817D01*
X0010338Y0047948D01*
X0010063Y0048072D01*
X0009785Y0048189D01*
X0009504Y0048299D01*
X0009221Y0048403D01*
X0008936Y0048499D01*
X0008648Y0048589D01*
X0008358Y0048672D01*
X0008066Y0048747D01*
X0007772Y0048816D01*
X0007477Y0048877D01*
X0007180Y0048932D01*
X0006882Y0048979D01*
X0006583Y0049019D01*
X0006283Y0049052D01*
X0005983Y0049077D01*
X0005682Y0049095D01*
X0005381Y0049106D01*
X0005079Y0049110D01*
X0005000Y0052693D02*
X0005000Y0052732D01*
X0005000Y0052733D02*
X0005390Y0052728D01*
X0005780Y0052714D01*
X0006169Y0052691D01*
X0006558Y0052658D01*
X0006946Y0052615D01*
X0007332Y0052564D01*
X0007718Y0052503D01*
X0008101Y0052432D01*
X0008483Y0052353D01*
X0008863Y0052264D01*
X0009241Y0052166D01*
X0009616Y0052059D01*
X0009988Y0051943D01*
X0010358Y0051818D01*
X0010724Y0051684D01*
X0011087Y0051541D01*
X0011447Y0051390D01*
X0011802Y0051230D01*
X0012154Y0051061D01*
X0012502Y0050884D01*
X0012845Y0050699D01*
X0013183Y0050505D01*
X0013517Y0050303D01*
X0013846Y0050093D01*
X0014170Y0049876D01*
X0014488Y0049650D01*
X0014801Y0049417D01*
X0015108Y0049177D01*
X0015409Y0048929D01*
X0015704Y0048673D01*
X0015993Y0048411D01*
X0016275Y0048142D01*
X0016551Y0047866D01*
X0016820Y0047584D01*
X0017082Y0047295D01*
X0017338Y0047000D01*
X0017586Y0046699D01*
X0017826Y0046392D01*
X0018059Y0046079D01*
X0018285Y0045761D01*
X0018502Y0045437D01*
X0018712Y0045108D01*
X0018914Y0044774D01*
X0019108Y0044436D01*
X0019293Y0044093D01*
X0019470Y0043745D01*
X0019639Y0043393D01*
X0019799Y0043038D01*
X0019950Y0042678D01*
X0020093Y0042315D01*
X0020227Y0041949D01*
X0020352Y0041579D01*
X0020468Y0041207D01*
X0020575Y0040832D01*
X0020673Y0040454D01*
X0020762Y0040074D01*
X0020841Y0039692D01*
X0020912Y0039309D01*
X0020973Y0038923D01*
X0021024Y0038537D01*
X0021067Y0038149D01*
X0021100Y0037760D01*
X0021123Y0037371D01*
X0021137Y0036981D01*
X0021142Y0036591D01*
X0021142Y0027102D02*
X0021137Y0026703D01*
X0021123Y0026305D01*
X0021099Y0025907D01*
X0021065Y0025510D01*
X0021022Y0025114D01*
X0020969Y0024719D01*
X0020907Y0024325D01*
X0020835Y0023933D01*
X0020753Y0023542D01*
X0020663Y0023154D01*
X0020563Y0022768D01*
X0020453Y0022385D01*
X0020335Y0022004D01*
X0020207Y0021627D01*
X0020070Y0021252D01*
X0019924Y0020881D01*
X0019769Y0020514D01*
X0019606Y0020151D01*
X0019433Y0019791D01*
X0019252Y0019436D01*
X0019063Y0019085D01*
X0018865Y0018739D01*
X0018659Y0018398D01*
X0018444Y0018062D01*
X0018222Y0017731D01*
X0017992Y0017406D01*
X0017753Y0017086D01*
X0017508Y0016772D01*
X0017254Y0016465D01*
X0016993Y0016163D01*
X0016726Y0015868D01*
X0016451Y0015579D01*
X0016169Y0015297D01*
X0015880Y0015022D01*
X0015585Y0014755D01*
X0015283Y0014494D01*
X0014976Y0014240D01*
X0014662Y0013995D01*
X0014342Y0013756D01*
X0014017Y0013526D01*
X0013686Y0013304D01*
X0013350Y0013089D01*
X0013009Y0012883D01*
X0012663Y0012685D01*
X0012312Y0012496D01*
X0011957Y0012315D01*
X0011597Y0012142D01*
X0011234Y0011979D01*
X0010867Y0011824D01*
X0010496Y0011678D01*
X0010121Y0011541D01*
X0009744Y0011413D01*
X0009363Y0011295D01*
X0008980Y0011185D01*
X0008594Y0011085D01*
X0008206Y0010995D01*
X0007815Y0010913D01*
X0007423Y0010841D01*
X0007029Y0010779D01*
X0006634Y0010726D01*
X0006238Y0010683D01*
X0005841Y0010649D01*
X0005443Y0010625D01*
X0005045Y0010611D01*
X0004646Y0010606D01*
D11*
X0005000Y0010547D03*
X0005000Y0042043D03*
D12*
X0005000Y0045587D03*
X0005000Y0049130D03*
X0005000Y0052673D03*
X0005000Y0021177D03*
X0005000Y0017634D03*
X0005000Y0014091D03*
M02*
