G75*
%MOIN*%
%OFA0B0*%
%FSLAX25Y25*%
%IPPOS*%
%LPD*%
%AMOC8*
5,1,8,0,0,1.08239X$1,22.5*
%
%ADD10C,0.05524*%
%ADD11R,0.05131X0.04737*%
%ADD12R,0.05524X0.02178*%
%ADD13C,0.08674*%
D10*
X0024386Y0052490D03*
X0087772Y0096191D03*
X0129504Y0052490D03*
D11*
X0126551Y0096191D03*
X0119858Y0096191D03*
X0110803Y0096191D03*
X0104110Y0096191D03*
X0047811Y0096191D03*
X0041118Y0096191D03*
X0031669Y0096191D03*
X0024976Y0096191D03*
D12*
X0026039Y0086644D03*
X0026039Y0084085D03*
X0026039Y0081526D03*
X0026039Y0078967D03*
X0026039Y0076408D03*
X0026039Y0073848D03*
X0026039Y0071289D03*
X0026039Y0068730D03*
X0026039Y0066171D03*
X0026039Y0063612D03*
X0026039Y0061053D03*
X0026039Y0058494D03*
X0047142Y0058494D03*
X0047142Y0061053D03*
X0047142Y0063612D03*
X0047142Y0066171D03*
X0047142Y0068730D03*
X0047142Y0071289D03*
X0047142Y0073848D03*
X0047142Y0076408D03*
X0047142Y0078967D03*
X0047142Y0081526D03*
X0047142Y0084085D03*
X0047142Y0086644D03*
X0065409Y0086644D03*
X0065409Y0084085D03*
X0065409Y0081526D03*
X0065409Y0078967D03*
X0065409Y0076408D03*
X0065409Y0073848D03*
X0065409Y0071289D03*
X0065409Y0068730D03*
X0065409Y0066171D03*
X0065409Y0063612D03*
X0065409Y0061053D03*
X0065409Y0058494D03*
X0086512Y0058494D03*
X0086512Y0061053D03*
X0086512Y0063612D03*
X0086512Y0066171D03*
X0086512Y0068730D03*
X0086512Y0071289D03*
X0086512Y0073848D03*
X0086512Y0076408D03*
X0086512Y0078967D03*
X0086512Y0081526D03*
X0086512Y0084085D03*
X0086512Y0086644D03*
X0104780Y0086644D03*
X0104780Y0084085D03*
X0104780Y0081526D03*
X0104780Y0078967D03*
X0104780Y0076408D03*
X0104780Y0073848D03*
X0104780Y0071289D03*
X0104780Y0068730D03*
X0104780Y0066171D03*
X0104780Y0063612D03*
X0104780Y0061053D03*
X0104780Y0058494D03*
X0125882Y0058494D03*
X0125882Y0061053D03*
X0125882Y0063612D03*
X0125882Y0066171D03*
X0125882Y0068730D03*
X0125882Y0071289D03*
X0125882Y0073848D03*
X0125882Y0076408D03*
X0125882Y0078967D03*
X0125882Y0081526D03*
X0125882Y0084085D03*
X0125882Y0086644D03*
D13*
X0011000Y0047372D03*
X0011000Y0059183D03*
X0011000Y0070994D03*
X0011000Y0082805D03*
X0011000Y0094616D03*
X0011000Y0106427D03*
X0140921Y0106427D03*
X0140921Y0094616D03*
X0140921Y0082805D03*
X0140921Y0070994D03*
X0140921Y0059183D03*
X0140921Y0047372D03*
M02*
