%
M48
M72
T01C0.01969
T02C0.04724
%
T01
X16118Y54065
X14543Y65089
X16512Y77687
X20843Y83986
X23992Y91467
X15724Y99341
X18874Y103671
X31866Y91467
X35803Y84380
X41315Y84774
X55094Y81230
X59819Y80049
X55488Y86742
X59425Y89498
X56276Y96585
X40528Y109971
X74386Y84774
X79504Y84774
X92102Y85955
X93677Y90679
X94465Y98159
X96039Y82805
X91709Y67451
X91709Y60758
X86197Y54065
X91315Y51703
X107457Y54065
X112969Y66270
X117693Y68238
X119268Y63120
X131472Y67451
X133835Y56821
X136197Y52490
X120055Y79262
X120843Y89892
X129504Y90285
X131472Y84380
X132260Y97766
X131472Y105246
X73598Y66663
X59819Y51703
X54701Y54065
X46039Y54065
X52732Y65876
X38953Y66270
X31866Y56427
T02
X24386Y52490
X87772Y96191
X129504Y52490
M30
