G75*
%MOIN*%
%OFA0B0*%
%FSLAX25Y25*%
%IPPOS*%
%LPD*%
%AMOC8*
5,1,8,0,0,1.08239X$1,22.5*
%
%ADD10C,0.01000*%
%ADD11C,0.00200*%
%ADD12C,0.00800*%
%ADD13C,0.00500*%
%ADD14R,0.01181X0.01181*%
D10*
X0039772Y0001500D02*
X0039772Y0032012D01*
X0070284Y0032012D02*
X0070284Y0001500D01*
X0100796Y0001500D02*
X0100796Y0032012D01*
X0131308Y0032012D02*
X0131308Y0001500D01*
X0161819Y0001500D02*
X0161819Y0032012D01*
X0192331Y0032012D02*
X0192331Y0001500D01*
X0222843Y0001500D02*
X0222843Y0032012D01*
X0253355Y0032012D02*
X0253355Y0001500D01*
X0283867Y0001500D02*
X0283867Y0032012D01*
X0314378Y0032012D02*
X0314378Y0001500D01*
X0344890Y0001500D02*
X0344890Y0032012D01*
X0375402Y0032012D02*
X0375402Y0001500D01*
X0405914Y0001500D02*
X0405914Y0032012D01*
X0436426Y0032012D02*
X0436426Y0001500D01*
X0466938Y0001500D02*
X0466938Y0032012D01*
X0497449Y0032012D02*
X0497449Y0001500D01*
X0527961Y0001500D02*
X0527961Y0032012D01*
X0558473Y0032012D02*
X0558473Y0001500D01*
X0588985Y0001500D02*
X0588985Y0032012D01*
X0619497Y0032012D02*
X0619497Y0001500D01*
X0650008Y0001500D02*
X0650008Y0032012D01*
X0680520Y0032012D02*
X0680520Y0001500D01*
X0711032Y0001500D02*
X0711032Y0032012D01*
X0741544Y0032012D02*
X0741544Y0001500D01*
X0772056Y0001500D02*
X0772056Y0032012D01*
X0802567Y0032012D02*
X0802567Y0001500D01*
X0833079Y0001500D02*
X0833079Y0032012D01*
X0863591Y0032012D02*
X0863591Y0001500D01*
X0894103Y0001500D02*
X0894103Y0032012D01*
X0924615Y0032012D02*
X0924615Y0001500D01*
X0955126Y0001500D02*
X0955126Y0032012D01*
X0985638Y0032012D02*
X0985638Y0001500D01*
D11*
X0983568Y0003185D02*
X0983401Y0003018D01*
X0983068Y0003018D01*
X0982901Y0003185D01*
X0982901Y0003519D02*
X0983235Y0003685D01*
X0983401Y0003685D01*
X0983568Y0003519D01*
X0983568Y0003185D01*
X0982901Y0003519D02*
X0982901Y0004019D01*
X0983568Y0004019D01*
X0982463Y0003852D02*
X0982297Y0004019D01*
X0981963Y0004019D01*
X0981796Y0003852D01*
X0981796Y0003685D01*
X0981963Y0003519D01*
X0982463Y0003519D01*
X0982463Y0003852D02*
X0982463Y0003185D01*
X0982297Y0003018D01*
X0981963Y0003018D01*
X0981796Y0003185D01*
X0981358Y0003018D02*
X0981025Y0003352D01*
X0981192Y0003352D02*
X0980691Y0003352D01*
X0980691Y0003018D02*
X0980691Y0004019D01*
X0981192Y0004019D01*
X0981358Y0003852D01*
X0981358Y0003519D01*
X0981192Y0003352D01*
X0953056Y0003685D02*
X0952389Y0003018D01*
X0953056Y0003018D01*
X0951952Y0003185D02*
X0951952Y0003852D01*
X0951785Y0004019D01*
X0951451Y0004019D01*
X0951284Y0003852D01*
X0951284Y0003685D01*
X0951451Y0003519D01*
X0951952Y0003519D01*
X0951952Y0003185D02*
X0951785Y0003018D01*
X0951451Y0003018D01*
X0951284Y0003185D01*
X0950847Y0003018D02*
X0950513Y0003352D01*
X0950680Y0003352D02*
X0950179Y0003352D01*
X0950179Y0003018D02*
X0950179Y0004019D01*
X0950680Y0004019D01*
X0950847Y0003852D01*
X0950847Y0003519D01*
X0950680Y0003352D01*
X0952389Y0003852D02*
X0952556Y0004019D01*
X0952890Y0004019D01*
X0953056Y0003852D01*
X0953056Y0003685D01*
X0922545Y0003519D02*
X0922044Y0003519D01*
X0921877Y0003685D01*
X0921877Y0003852D01*
X0922044Y0004019D01*
X0922378Y0004019D01*
X0922545Y0003852D01*
X0922545Y0003185D01*
X0922378Y0003018D01*
X0922044Y0003018D01*
X0921877Y0003185D01*
X0921440Y0003185D02*
X0921273Y0003018D01*
X0920939Y0003018D01*
X0920773Y0003185D01*
X0920773Y0003352D01*
X0920939Y0003519D01*
X0921273Y0003519D01*
X0921440Y0003352D01*
X0921440Y0003185D01*
X0921273Y0003519D02*
X0921440Y0003685D01*
X0921440Y0003852D01*
X0921273Y0004019D01*
X0920939Y0004019D01*
X0920773Y0003852D01*
X0920773Y0003685D01*
X0920939Y0003519D01*
X0920335Y0003519D02*
X0920168Y0003352D01*
X0919668Y0003352D01*
X0920001Y0003352D02*
X0920335Y0003018D01*
X0920335Y0003519D02*
X0920335Y0003852D01*
X0920168Y0004019D01*
X0919668Y0004019D01*
X0919668Y0003018D01*
X0892033Y0003185D02*
X0892033Y0003352D01*
X0891866Y0003519D01*
X0891366Y0003519D01*
X0891366Y0003185D01*
X0891532Y0003018D01*
X0891866Y0003018D01*
X0892033Y0003185D01*
X0891699Y0003852D02*
X0891366Y0003519D01*
X0890928Y0003685D02*
X0890761Y0003519D01*
X0890427Y0003519D01*
X0890261Y0003685D01*
X0890261Y0003852D01*
X0890427Y0004019D01*
X0890761Y0004019D01*
X0890928Y0003852D01*
X0890928Y0003685D01*
X0890761Y0003519D02*
X0890928Y0003352D01*
X0890928Y0003185D01*
X0890761Y0003018D01*
X0890427Y0003018D01*
X0890261Y0003185D01*
X0890261Y0003352D01*
X0890427Y0003519D01*
X0889823Y0003519D02*
X0889656Y0003352D01*
X0889156Y0003352D01*
X0889489Y0003352D02*
X0889823Y0003018D01*
X0889823Y0003519D02*
X0889823Y0003852D01*
X0889656Y0004019D01*
X0889156Y0004019D01*
X0889156Y0003018D01*
X0891699Y0003852D02*
X0892033Y0004019D01*
X0861521Y0003852D02*
X0861521Y0003685D01*
X0861354Y0003519D01*
X0861521Y0003352D01*
X0861521Y0003185D01*
X0861354Y0003018D01*
X0861021Y0003018D01*
X0860854Y0003185D01*
X0860416Y0003185D02*
X0860249Y0003018D01*
X0859916Y0003018D01*
X0859749Y0003185D01*
X0859749Y0003352D01*
X0859916Y0003519D01*
X0860249Y0003519D01*
X0860416Y0003352D01*
X0860416Y0003185D01*
X0860249Y0003519D02*
X0860416Y0003685D01*
X0860416Y0003852D01*
X0860249Y0004019D01*
X0859916Y0004019D01*
X0859749Y0003852D01*
X0859749Y0003685D01*
X0859916Y0003519D01*
X0859311Y0003519D02*
X0859144Y0003352D01*
X0858644Y0003352D01*
X0858978Y0003352D02*
X0859311Y0003018D01*
X0859311Y0003519D02*
X0859311Y0003852D01*
X0859144Y0004019D01*
X0858644Y0004019D01*
X0858644Y0003018D01*
X0861187Y0003519D02*
X0861354Y0003519D01*
X0861521Y0003852D02*
X0861354Y0004019D01*
X0861021Y0004019D01*
X0860854Y0003852D01*
X0831009Y0003852D02*
X0831009Y0003185D01*
X0830842Y0003018D01*
X0830509Y0003018D01*
X0830342Y0003185D01*
X0831009Y0003852D01*
X0830842Y0004019D01*
X0830509Y0004019D01*
X0830342Y0003852D01*
X0830342Y0003185D01*
X0829904Y0003185D02*
X0829737Y0003018D01*
X0829404Y0003018D01*
X0829237Y0003185D01*
X0829237Y0003352D01*
X0829404Y0003519D01*
X0829737Y0003519D01*
X0829904Y0003352D01*
X0829904Y0003185D01*
X0829737Y0003519D02*
X0829904Y0003685D01*
X0829904Y0003852D01*
X0829737Y0004019D01*
X0829404Y0004019D01*
X0829237Y0003852D01*
X0829237Y0003685D01*
X0829404Y0003519D01*
X0828799Y0003519D02*
X0828633Y0003352D01*
X0828132Y0003352D01*
X0828466Y0003352D02*
X0828799Y0003018D01*
X0828799Y0003519D02*
X0828799Y0003852D01*
X0828633Y0004019D01*
X0828132Y0004019D01*
X0828132Y0003018D01*
X0800497Y0003852D02*
X0799830Y0003185D01*
X0799830Y0003018D01*
X0799392Y0003852D02*
X0798725Y0003185D01*
X0798725Y0003018D01*
X0798288Y0003018D02*
X0797954Y0003352D01*
X0798121Y0003352D02*
X0797620Y0003352D01*
X0797620Y0003018D02*
X0797620Y0004019D01*
X0798121Y0004019D01*
X0798288Y0003852D01*
X0798288Y0003519D01*
X0798121Y0003352D01*
X0798725Y0004019D02*
X0799392Y0004019D01*
X0799392Y0003852D01*
X0799830Y0004019D02*
X0800497Y0004019D01*
X0800497Y0003852D01*
X0769986Y0003519D02*
X0769318Y0003519D01*
X0769819Y0004019D01*
X0769819Y0003018D01*
X0768881Y0003852D02*
X0768213Y0003185D01*
X0768213Y0003018D01*
X0767776Y0003018D02*
X0767442Y0003352D01*
X0767609Y0003352D02*
X0767109Y0003352D01*
X0767109Y0003018D02*
X0767109Y0004019D01*
X0767609Y0004019D01*
X0767776Y0003852D01*
X0767776Y0003519D01*
X0767609Y0003352D01*
X0768213Y0004019D02*
X0768881Y0004019D01*
X0768881Y0003852D01*
X0739474Y0003018D02*
X0738807Y0003018D01*
X0739140Y0003018D02*
X0739140Y0004019D01*
X0738807Y0003685D01*
X0738369Y0003852D02*
X0737702Y0003185D01*
X0737702Y0003018D01*
X0737264Y0003018D02*
X0736930Y0003352D01*
X0737097Y0003352D02*
X0736597Y0003352D01*
X0736597Y0003018D02*
X0736597Y0004019D01*
X0737097Y0004019D01*
X0737264Y0003852D01*
X0737264Y0003519D01*
X0737097Y0003352D01*
X0737702Y0004019D02*
X0738369Y0004019D01*
X0738369Y0003852D01*
X0708962Y0003852D02*
X0708962Y0003685D01*
X0708795Y0003519D01*
X0708462Y0003519D01*
X0708295Y0003685D01*
X0708295Y0003852D01*
X0708462Y0004019D01*
X0708795Y0004019D01*
X0708962Y0003852D01*
X0708795Y0003519D02*
X0708962Y0003352D01*
X0708962Y0003185D01*
X0708795Y0003018D01*
X0708462Y0003018D01*
X0708295Y0003185D01*
X0708295Y0003352D01*
X0708462Y0003519D01*
X0707857Y0003352D02*
X0707690Y0003519D01*
X0707190Y0003519D01*
X0707190Y0003185D01*
X0707357Y0003018D01*
X0707690Y0003018D01*
X0707857Y0003185D01*
X0707857Y0003352D01*
X0707523Y0003852D02*
X0707190Y0003519D01*
X0706752Y0003519D02*
X0706585Y0003352D01*
X0706085Y0003352D01*
X0706419Y0003352D02*
X0706752Y0003018D01*
X0706752Y0003519D02*
X0706752Y0003852D01*
X0706585Y0004019D01*
X0706085Y0004019D01*
X0706085Y0003018D01*
X0707523Y0003852D02*
X0707857Y0004019D01*
X0678450Y0004019D02*
X0677783Y0004019D01*
X0677783Y0003519D01*
X0678117Y0003685D01*
X0678283Y0003685D01*
X0678450Y0003519D01*
X0678450Y0003185D01*
X0678283Y0003018D01*
X0677950Y0003018D01*
X0677783Y0003185D01*
X0677345Y0003185D02*
X0677345Y0003352D01*
X0677178Y0003519D01*
X0676678Y0003519D01*
X0676678Y0003185D01*
X0676845Y0003018D01*
X0677178Y0003018D01*
X0677345Y0003185D01*
X0677012Y0003852D02*
X0676678Y0003519D01*
X0676240Y0003519D02*
X0676073Y0003352D01*
X0675573Y0003352D01*
X0675907Y0003352D02*
X0676240Y0003018D01*
X0676240Y0003519D02*
X0676240Y0003852D01*
X0676073Y0004019D01*
X0675573Y0004019D01*
X0675573Y0003018D01*
X0677012Y0003852D02*
X0677345Y0004019D01*
X0647938Y0003852D02*
X0647772Y0004019D01*
X0647438Y0004019D01*
X0647271Y0003852D01*
X0646833Y0004019D02*
X0646500Y0003852D01*
X0646166Y0003519D01*
X0646667Y0003519D01*
X0646833Y0003352D01*
X0646833Y0003185D01*
X0646667Y0003018D01*
X0646333Y0003018D01*
X0646166Y0003185D01*
X0646166Y0003519D01*
X0645729Y0003519D02*
X0645562Y0003352D01*
X0645061Y0003352D01*
X0645395Y0003352D02*
X0645729Y0003018D01*
X0645729Y0003519D02*
X0645729Y0003852D01*
X0645562Y0004019D01*
X0645061Y0004019D01*
X0645061Y0003018D01*
X0647271Y0003018D02*
X0647938Y0003685D01*
X0647938Y0003852D01*
X0647938Y0003018D02*
X0647271Y0003018D01*
X0617427Y0003185D02*
X0617427Y0003852D01*
X0617260Y0004019D01*
X0616926Y0004019D01*
X0616759Y0003852D01*
X0616759Y0003685D01*
X0616926Y0003519D01*
X0617427Y0003519D01*
X0617427Y0003185D02*
X0617260Y0003018D01*
X0616926Y0003018D01*
X0616759Y0003185D01*
X0616322Y0003185D02*
X0616155Y0003018D01*
X0615821Y0003018D01*
X0615654Y0003185D01*
X0615654Y0003519D02*
X0615988Y0003685D01*
X0616155Y0003685D01*
X0616322Y0003519D01*
X0616322Y0003185D01*
X0615654Y0003519D02*
X0615654Y0004019D01*
X0616322Y0004019D01*
X0615217Y0003852D02*
X0615217Y0003519D01*
X0615050Y0003352D01*
X0614549Y0003352D01*
X0614549Y0003018D02*
X0614549Y0004019D01*
X0615050Y0004019D01*
X0615217Y0003852D01*
X0614883Y0003352D02*
X0615217Y0003018D01*
X0586915Y0003185D02*
X0586915Y0003352D01*
X0586748Y0003519D01*
X0586248Y0003519D01*
X0586248Y0003185D01*
X0586414Y0003018D01*
X0586748Y0003018D01*
X0586915Y0003185D01*
X0586581Y0003852D02*
X0586248Y0003519D01*
X0585810Y0003519D02*
X0585810Y0003185D01*
X0585643Y0003018D01*
X0585309Y0003018D01*
X0585143Y0003185D01*
X0585143Y0003519D02*
X0585476Y0003685D01*
X0585643Y0003685D01*
X0585810Y0003519D01*
X0585810Y0004019D02*
X0585143Y0004019D01*
X0585143Y0003519D01*
X0584705Y0003519D02*
X0584538Y0003352D01*
X0584038Y0003352D01*
X0584371Y0003352D02*
X0584705Y0003018D01*
X0584705Y0003519D02*
X0584705Y0003852D01*
X0584538Y0004019D01*
X0584038Y0004019D01*
X0584038Y0003018D01*
X0586581Y0003852D02*
X0586915Y0004019D01*
X0556403Y0003852D02*
X0556403Y0003685D01*
X0556236Y0003519D01*
X0556403Y0003352D01*
X0556403Y0003185D01*
X0556236Y0003018D01*
X0555903Y0003018D01*
X0555736Y0003185D01*
X0555298Y0003185D02*
X0555131Y0003018D01*
X0554798Y0003018D01*
X0554631Y0003185D01*
X0554631Y0003519D02*
X0554964Y0003685D01*
X0555131Y0003685D01*
X0555298Y0003519D01*
X0555298Y0003185D01*
X0554631Y0003519D02*
X0554631Y0004019D01*
X0555298Y0004019D01*
X0555736Y0003852D02*
X0555903Y0004019D01*
X0556236Y0004019D01*
X0556403Y0003852D01*
X0556236Y0003519D02*
X0556069Y0003519D01*
X0554193Y0003519D02*
X0554026Y0003352D01*
X0553526Y0003352D01*
X0553859Y0003352D02*
X0554193Y0003018D01*
X0554193Y0003519D02*
X0554193Y0003852D01*
X0554026Y0004019D01*
X0553526Y0004019D01*
X0553526Y0003018D01*
X0525891Y0003185D02*
X0525891Y0003852D01*
X0525224Y0003185D01*
X0525391Y0003018D01*
X0525724Y0003018D01*
X0525891Y0003185D01*
X0525224Y0003185D02*
X0525224Y0003852D01*
X0525391Y0004019D01*
X0525724Y0004019D01*
X0525891Y0003852D01*
X0524786Y0004019D02*
X0524119Y0004019D01*
X0524119Y0003519D01*
X0524453Y0003685D01*
X0524619Y0003685D01*
X0524786Y0003519D01*
X0524786Y0003185D01*
X0524619Y0003018D01*
X0524286Y0003018D01*
X0524119Y0003185D01*
X0523681Y0003018D02*
X0523348Y0003352D01*
X0523514Y0003352D02*
X0523014Y0003352D01*
X0523014Y0003018D02*
X0523014Y0004019D01*
X0523514Y0004019D01*
X0523681Y0003852D01*
X0523681Y0003519D01*
X0523514Y0003352D01*
X0495379Y0003852D02*
X0494712Y0003185D01*
X0494712Y0003018D01*
X0494108Y0003018D02*
X0494108Y0004019D01*
X0493607Y0003519D01*
X0494274Y0003519D01*
X0494712Y0004019D02*
X0495379Y0004019D01*
X0495379Y0003852D01*
X0493169Y0003852D02*
X0493169Y0003519D01*
X0493003Y0003352D01*
X0492502Y0003352D01*
X0492836Y0003352D02*
X0493169Y0003018D01*
X0492502Y0003018D02*
X0492502Y0004019D01*
X0493003Y0004019D01*
X0493169Y0003852D01*
X0464868Y0003519D02*
X0464200Y0003519D01*
X0464701Y0004019D01*
X0464701Y0003018D01*
X0463763Y0003519D02*
X0463095Y0003519D01*
X0463596Y0004019D01*
X0463596Y0003018D01*
X0462658Y0003018D02*
X0462324Y0003352D01*
X0462491Y0003352D02*
X0461990Y0003352D01*
X0461990Y0003018D02*
X0461990Y0004019D01*
X0462491Y0004019D01*
X0462658Y0003852D01*
X0462658Y0003519D01*
X0462491Y0003352D01*
X0434356Y0003018D02*
X0433688Y0003018D01*
X0434022Y0003018D02*
X0434022Y0004019D01*
X0433688Y0003685D01*
X0433251Y0003519D02*
X0432584Y0003519D01*
X0433084Y0004019D01*
X0433084Y0003018D01*
X0432146Y0003018D02*
X0431812Y0003352D01*
X0431979Y0003352D02*
X0431479Y0003352D01*
X0431479Y0003018D02*
X0431479Y0004019D01*
X0431979Y0004019D01*
X0432146Y0003852D01*
X0432146Y0003519D01*
X0431979Y0003352D01*
X0403844Y0003352D02*
X0403844Y0003185D01*
X0403677Y0003018D01*
X0403343Y0003018D01*
X0403177Y0003185D01*
X0403177Y0003352D01*
X0403343Y0003519D01*
X0403677Y0003519D01*
X0403844Y0003352D01*
X0403677Y0003519D02*
X0403844Y0003685D01*
X0403844Y0003852D01*
X0403677Y0004019D01*
X0403343Y0004019D01*
X0403177Y0003852D01*
X0403177Y0003685D01*
X0403343Y0003519D01*
X0402739Y0003685D02*
X0402572Y0003519D01*
X0402739Y0003352D01*
X0402739Y0003185D01*
X0402572Y0003018D01*
X0402239Y0003018D01*
X0402072Y0003185D01*
X0401634Y0003018D02*
X0401300Y0003352D01*
X0401467Y0003352D02*
X0400967Y0003352D01*
X0400967Y0003018D02*
X0400967Y0004019D01*
X0401467Y0004019D01*
X0401634Y0003852D01*
X0401634Y0003519D01*
X0401467Y0003352D01*
X0402072Y0003852D02*
X0402239Y0004019D01*
X0402572Y0004019D01*
X0402739Y0003852D01*
X0402739Y0003685D01*
X0402572Y0003519D02*
X0402405Y0003519D01*
X0373332Y0003519D02*
X0373332Y0003185D01*
X0373165Y0003018D01*
X0372832Y0003018D01*
X0372665Y0003185D01*
X0372665Y0003519D02*
X0372998Y0003685D01*
X0373165Y0003685D01*
X0373332Y0003519D01*
X0373332Y0004019D02*
X0372665Y0004019D01*
X0372665Y0003519D01*
X0372227Y0003685D02*
X0372060Y0003519D01*
X0372227Y0003352D01*
X0372227Y0003185D01*
X0372060Y0003018D01*
X0371727Y0003018D01*
X0371560Y0003185D01*
X0371122Y0003018D02*
X0370789Y0003352D01*
X0370955Y0003352D02*
X0370455Y0003352D01*
X0370455Y0003018D02*
X0370455Y0004019D01*
X0370955Y0004019D01*
X0371122Y0003852D01*
X0371122Y0003519D01*
X0370955Y0003352D01*
X0371560Y0003852D02*
X0371727Y0004019D01*
X0372060Y0004019D01*
X0372227Y0003852D01*
X0372227Y0003685D01*
X0372060Y0003519D02*
X0371894Y0003519D01*
X0342820Y0003685D02*
X0342153Y0003018D01*
X0342820Y0003018D01*
X0341715Y0003185D02*
X0341549Y0003018D01*
X0341215Y0003018D01*
X0341048Y0003185D01*
X0340610Y0003018D02*
X0340277Y0003352D01*
X0340444Y0003352D02*
X0339943Y0003352D01*
X0339943Y0003018D02*
X0339943Y0004019D01*
X0340444Y0004019D01*
X0340610Y0003852D01*
X0340610Y0003519D01*
X0340444Y0003352D01*
X0341048Y0003852D02*
X0341215Y0004019D01*
X0341549Y0004019D01*
X0341715Y0003852D01*
X0341715Y0003685D01*
X0341549Y0003519D01*
X0341715Y0003352D01*
X0341715Y0003185D01*
X0341549Y0003519D02*
X0341382Y0003519D01*
X0342153Y0003852D02*
X0342320Y0004019D01*
X0342653Y0004019D01*
X0342820Y0003852D01*
X0342820Y0003685D01*
X0312308Y0003519D02*
X0311808Y0003519D01*
X0311641Y0003685D01*
X0311641Y0003852D01*
X0311808Y0004019D01*
X0312142Y0004019D01*
X0312308Y0003852D01*
X0312308Y0003185D01*
X0312142Y0003018D01*
X0311808Y0003018D01*
X0311641Y0003185D01*
X0311204Y0003018D02*
X0310536Y0003018D01*
X0311204Y0003685D01*
X0311204Y0003852D01*
X0311037Y0004019D01*
X0310703Y0004019D01*
X0310536Y0003852D01*
X0310099Y0003852D02*
X0310099Y0003519D01*
X0309932Y0003352D01*
X0309431Y0003352D01*
X0309431Y0003018D02*
X0309431Y0004019D01*
X0309932Y0004019D01*
X0310099Y0003852D01*
X0309765Y0003352D02*
X0310099Y0003018D01*
X0281797Y0003185D02*
X0281797Y0003352D01*
X0281630Y0003519D01*
X0281129Y0003519D01*
X0281129Y0003185D01*
X0281296Y0003018D01*
X0281630Y0003018D01*
X0281797Y0003185D01*
X0281463Y0003852D02*
X0281129Y0003519D01*
X0280692Y0003685D02*
X0280024Y0003018D01*
X0280692Y0003018D01*
X0279587Y0003018D02*
X0279253Y0003352D01*
X0279420Y0003352D02*
X0278920Y0003352D01*
X0278920Y0003018D02*
X0278920Y0004019D01*
X0279420Y0004019D01*
X0279587Y0003852D01*
X0279587Y0003519D01*
X0279420Y0003352D01*
X0280024Y0003852D02*
X0280191Y0004019D01*
X0280525Y0004019D01*
X0280692Y0003852D01*
X0280692Y0003685D01*
X0281463Y0003852D02*
X0281797Y0004019D01*
X0251285Y0003852D02*
X0251285Y0003685D01*
X0251118Y0003519D01*
X0251285Y0003352D01*
X0251285Y0003185D01*
X0251118Y0003018D01*
X0250784Y0003018D01*
X0250618Y0003185D01*
X0250180Y0003018D02*
X0249513Y0003018D01*
X0250180Y0003685D01*
X0250180Y0003852D01*
X0250013Y0004019D01*
X0249679Y0004019D01*
X0249513Y0003852D01*
X0249075Y0003852D02*
X0249075Y0003519D01*
X0248908Y0003352D01*
X0248408Y0003352D01*
X0248741Y0003352D02*
X0249075Y0003018D01*
X0248408Y0003018D02*
X0248408Y0004019D01*
X0248908Y0004019D01*
X0249075Y0003852D01*
X0250618Y0003852D02*
X0250784Y0004019D01*
X0251118Y0004019D01*
X0251285Y0003852D01*
X0251118Y0003519D02*
X0250951Y0003519D01*
X0220773Y0003852D02*
X0220106Y0003185D01*
X0220273Y0003018D01*
X0220606Y0003018D01*
X0220773Y0003185D01*
X0220773Y0003852D01*
X0220606Y0004019D01*
X0220273Y0004019D01*
X0220106Y0003852D01*
X0220106Y0003185D01*
X0219668Y0003018D02*
X0219001Y0003018D01*
X0219668Y0003685D01*
X0219668Y0003852D01*
X0219501Y0004019D01*
X0219168Y0004019D01*
X0219001Y0003852D01*
X0218563Y0003852D02*
X0218563Y0003519D01*
X0218396Y0003352D01*
X0217896Y0003352D01*
X0218230Y0003352D02*
X0218563Y0003018D01*
X0217896Y0003018D02*
X0217896Y0004019D01*
X0218396Y0004019D01*
X0218563Y0003852D01*
X0190261Y0003852D02*
X0189594Y0003185D01*
X0189594Y0003018D01*
X0189156Y0003018D02*
X0188489Y0003018D01*
X0188823Y0003018D02*
X0188823Y0004019D01*
X0188489Y0003685D01*
X0188051Y0003852D02*
X0188051Y0003519D01*
X0187885Y0003352D01*
X0187384Y0003352D01*
X0187718Y0003352D02*
X0188051Y0003018D01*
X0187384Y0003018D02*
X0187384Y0004019D01*
X0187885Y0004019D01*
X0188051Y0003852D01*
X0189594Y0004019D02*
X0190261Y0004019D01*
X0190261Y0003852D01*
X0159749Y0003519D02*
X0159082Y0003519D01*
X0159583Y0004019D01*
X0159583Y0003018D01*
X0158644Y0003018D02*
X0157977Y0003018D01*
X0158311Y0003018D02*
X0158311Y0004019D01*
X0157977Y0003685D01*
X0157540Y0003852D02*
X0157540Y0003519D01*
X0157373Y0003352D01*
X0156872Y0003352D01*
X0156872Y0003018D02*
X0156872Y0004019D01*
X0157373Y0004019D01*
X0157540Y0003852D01*
X0157206Y0003352D02*
X0157540Y0003018D01*
X0129238Y0003018D02*
X0128570Y0003018D01*
X0128904Y0003018D02*
X0128904Y0004019D01*
X0128570Y0003685D01*
X0127799Y0004019D02*
X0127799Y0003018D01*
X0127465Y0003018D02*
X0128133Y0003018D01*
X0127028Y0003018D02*
X0126694Y0003352D01*
X0126861Y0003352D02*
X0126360Y0003352D01*
X0126360Y0003018D02*
X0126360Y0004019D01*
X0126861Y0004019D01*
X0127028Y0003852D01*
X0127028Y0003519D01*
X0126861Y0003352D01*
X0127465Y0003685D02*
X0127799Y0004019D01*
X0098726Y0003852D02*
X0098726Y0003685D01*
X0098559Y0003519D01*
X0098225Y0003519D01*
X0098059Y0003685D01*
X0098059Y0003852D01*
X0098225Y0004019D01*
X0098559Y0004019D01*
X0098726Y0003852D01*
X0098559Y0003519D02*
X0098726Y0003352D01*
X0098726Y0003185D01*
X0098559Y0003018D01*
X0098225Y0003018D01*
X0098059Y0003185D01*
X0098059Y0003352D01*
X0098225Y0003519D01*
X0097621Y0003519D02*
X0097454Y0003352D01*
X0096954Y0003352D01*
X0097287Y0003352D02*
X0097621Y0003018D01*
X0097621Y0003519D02*
X0097621Y0003852D01*
X0097454Y0004019D01*
X0096954Y0004019D01*
X0096954Y0003018D01*
X0068214Y0003018D02*
X0067547Y0003018D01*
X0068214Y0003685D01*
X0068214Y0003852D01*
X0068047Y0004019D01*
X0067714Y0004019D01*
X0067547Y0003852D01*
X0067109Y0003852D02*
X0067109Y0003519D01*
X0066942Y0003352D01*
X0066442Y0003352D01*
X0066775Y0003352D02*
X0067109Y0003018D01*
X0066442Y0003018D02*
X0066442Y0004019D01*
X0066942Y0004019D01*
X0067109Y0003852D01*
X0037702Y0004019D02*
X0037035Y0004019D01*
X0037035Y0003519D01*
X0037369Y0003685D01*
X0037535Y0003685D01*
X0037702Y0003519D01*
X0037702Y0003185D01*
X0037535Y0003018D01*
X0037202Y0003018D01*
X0037035Y0003185D01*
X0036597Y0003018D02*
X0036264Y0003352D01*
X0036430Y0003352D02*
X0035930Y0003352D01*
X0035930Y0003018D02*
X0035930Y0004019D01*
X0036430Y0004019D01*
X0036597Y0003852D01*
X0036597Y0003519D01*
X0036430Y0003352D01*
X0042935Y0009356D02*
X0043769Y0009356D01*
X0043936Y0009523D01*
X0043936Y0009856D01*
X0043769Y0010023D01*
X0042935Y0010023D01*
X0043102Y0010461D02*
X0042935Y0010628D01*
X0042935Y0010961D01*
X0043102Y0011128D01*
X0043269Y0011128D01*
X0043936Y0010461D01*
X0043936Y0011128D01*
X0073447Y0010961D02*
X0073614Y0011128D01*
X0073781Y0011128D01*
X0073947Y0010961D01*
X0074114Y0011128D01*
X0074281Y0011128D01*
X0074448Y0010961D01*
X0074448Y0010628D01*
X0074281Y0010461D01*
X0074281Y0010023D02*
X0073447Y0010023D01*
X0073614Y0010461D02*
X0073447Y0010628D01*
X0073447Y0010961D01*
X0073947Y0010961D02*
X0073947Y0010794D01*
X0074281Y0010023D02*
X0074448Y0009856D01*
X0074448Y0009523D01*
X0074281Y0009356D01*
X0073447Y0009356D01*
X0103959Y0009356D02*
X0104793Y0009356D01*
X0104960Y0009523D01*
X0104960Y0009856D01*
X0104793Y0010023D01*
X0103959Y0010023D01*
X0104459Y0010461D02*
X0104459Y0011128D01*
X0103959Y0010961D02*
X0104459Y0010461D01*
X0104960Y0010961D02*
X0103959Y0010961D01*
X0134471Y0011128D02*
X0134471Y0010461D01*
X0134971Y0010461D01*
X0134804Y0010794D01*
X0134804Y0010961D01*
X0134971Y0011128D01*
X0135305Y0011128D01*
X0135471Y0010961D01*
X0135471Y0010628D01*
X0135305Y0010461D01*
X0135305Y0010023D02*
X0134471Y0010023D01*
X0134471Y0009356D02*
X0135305Y0009356D01*
X0135471Y0009523D01*
X0135471Y0009856D01*
X0135305Y0010023D01*
X0164982Y0010023D02*
X0165816Y0010023D01*
X0165983Y0009856D01*
X0165983Y0009523D01*
X0165816Y0009356D01*
X0164982Y0009356D01*
X0165483Y0010461D02*
X0165483Y0010961D01*
X0165650Y0011128D01*
X0165816Y0011128D01*
X0165983Y0010961D01*
X0165983Y0010628D01*
X0165816Y0010461D01*
X0165483Y0010461D01*
X0165149Y0010794D01*
X0164982Y0011128D01*
X0195494Y0011128D02*
X0195494Y0010461D01*
X0195494Y0010023D02*
X0196328Y0010023D01*
X0196495Y0009856D01*
X0196495Y0009523D01*
X0196328Y0009356D01*
X0195494Y0009356D01*
X0196328Y0010461D02*
X0196495Y0010461D01*
X0196328Y0010461D02*
X0195661Y0011128D01*
X0195494Y0011128D01*
X0226006Y0010961D02*
X0226173Y0011128D01*
X0226340Y0011128D01*
X0226506Y0010961D01*
X0226506Y0010628D01*
X0226340Y0010461D01*
X0226173Y0010461D01*
X0226006Y0010628D01*
X0226006Y0010961D01*
X0226506Y0010961D02*
X0226673Y0011128D01*
X0226840Y0011128D01*
X0227007Y0010961D01*
X0227007Y0010628D01*
X0226840Y0010461D01*
X0226673Y0010461D01*
X0226506Y0010628D01*
X0226840Y0010023D02*
X0226006Y0010023D01*
X0226006Y0009356D02*
X0226840Y0009356D01*
X0227007Y0009523D01*
X0227007Y0009856D01*
X0226840Y0010023D01*
X0256518Y0010023D02*
X0257352Y0010023D01*
X0257519Y0009856D01*
X0257519Y0009523D01*
X0257352Y0009356D01*
X0256518Y0009356D01*
X0256685Y0010461D02*
X0256851Y0010461D01*
X0257018Y0010628D01*
X0257018Y0011128D01*
X0256685Y0011128D02*
X0256518Y0010961D01*
X0256518Y0010628D01*
X0256685Y0010461D01*
X0257352Y0010461D02*
X0257519Y0010628D01*
X0257519Y0010961D01*
X0257352Y0011128D01*
X0256685Y0011128D01*
X0287030Y0010794D02*
X0287363Y0010461D01*
X0287030Y0010794D02*
X0288030Y0010794D01*
X0288030Y0010461D02*
X0288030Y0011128D01*
X0287864Y0011566D02*
X0287196Y0012233D01*
X0287864Y0012233D01*
X0288030Y0012066D01*
X0288030Y0011733D01*
X0287864Y0011566D01*
X0287196Y0011566D01*
X0287030Y0011733D01*
X0287030Y0012066D01*
X0287196Y0012233D01*
X0317541Y0011899D02*
X0317875Y0011566D01*
X0317541Y0011899D02*
X0318542Y0011899D01*
X0318542Y0011566D02*
X0318542Y0012233D01*
X0318542Y0011128D02*
X0318542Y0010461D01*
X0318542Y0010794D02*
X0317541Y0010794D01*
X0317875Y0010461D01*
X0317541Y0010023D02*
X0318375Y0010023D01*
X0318542Y0009856D01*
X0318542Y0009523D01*
X0318375Y0009356D01*
X0317541Y0009356D01*
X0288030Y0009523D02*
X0288030Y0009856D01*
X0287864Y0010023D01*
X0287030Y0010023D01*
X0287030Y0009356D02*
X0287864Y0009356D01*
X0288030Y0009523D01*
X0348053Y0009356D02*
X0348887Y0009356D01*
X0349054Y0009523D01*
X0349054Y0009856D01*
X0348887Y0010023D01*
X0348053Y0010023D01*
X0348387Y0010461D02*
X0348053Y0010794D01*
X0349054Y0010794D01*
X0349054Y0010461D02*
X0349054Y0011128D01*
X0349054Y0011566D02*
X0348387Y0012233D01*
X0348220Y0012233D01*
X0348053Y0012066D01*
X0348053Y0011733D01*
X0348220Y0011566D01*
X0349054Y0011566D02*
X0349054Y0012233D01*
X0378565Y0012066D02*
X0378565Y0011733D01*
X0378732Y0011566D01*
X0379065Y0011899D02*
X0379065Y0012066D01*
X0379232Y0012233D01*
X0379399Y0012233D01*
X0379566Y0012066D01*
X0379566Y0011733D01*
X0379399Y0011566D01*
X0379566Y0011128D02*
X0379566Y0010461D01*
X0379566Y0010794D02*
X0378565Y0010794D01*
X0378899Y0010461D01*
X0378565Y0010023D02*
X0379399Y0010023D01*
X0379566Y0009856D01*
X0379566Y0009523D01*
X0379399Y0009356D01*
X0378565Y0009356D01*
X0409077Y0009356D02*
X0409911Y0009356D01*
X0410078Y0009523D01*
X0410078Y0009856D01*
X0409911Y0010023D01*
X0409077Y0010023D01*
X0409410Y0010461D02*
X0409077Y0010794D01*
X0410078Y0010794D01*
X0410078Y0010461D02*
X0410078Y0011128D01*
X0409577Y0011566D02*
X0409577Y0012233D01*
X0409077Y0012066D02*
X0409577Y0011566D01*
X0410078Y0012066D02*
X0409077Y0012066D01*
X0379065Y0012066D02*
X0378899Y0012233D01*
X0378732Y0012233D01*
X0378565Y0012066D01*
X0439589Y0012233D02*
X0439589Y0011566D01*
X0440089Y0011566D01*
X0439922Y0011899D01*
X0439922Y0012066D01*
X0440089Y0012233D01*
X0440423Y0012233D01*
X0440589Y0012066D01*
X0440589Y0011733D01*
X0440423Y0011566D01*
X0440589Y0011128D02*
X0440589Y0010461D01*
X0440589Y0010794D02*
X0439589Y0010794D01*
X0439922Y0010461D01*
X0439589Y0010023D02*
X0440423Y0010023D01*
X0440589Y0009856D01*
X0440589Y0009523D01*
X0440423Y0009356D01*
X0439589Y0009356D01*
X0470100Y0009356D02*
X0470934Y0009356D01*
X0471101Y0009523D01*
X0471101Y0009856D01*
X0470934Y0010023D01*
X0470100Y0010023D01*
X0470434Y0010461D02*
X0470100Y0010794D01*
X0471101Y0010794D01*
X0471101Y0010461D02*
X0471101Y0011128D01*
X0470934Y0011566D02*
X0471101Y0011733D01*
X0471101Y0012066D01*
X0470934Y0012233D01*
X0470768Y0012233D01*
X0470601Y0012066D01*
X0470601Y0011566D01*
X0470934Y0011566D01*
X0470601Y0011566D02*
X0470267Y0011899D01*
X0470100Y0012233D01*
X0500612Y0012233D02*
X0500612Y0011566D01*
X0500779Y0012233D02*
X0501446Y0011566D01*
X0501613Y0011566D01*
X0501613Y0011128D02*
X0501613Y0010461D01*
X0501613Y0010794D02*
X0500612Y0010794D01*
X0500946Y0010461D01*
X0500612Y0010023D02*
X0501446Y0010023D01*
X0501613Y0009856D01*
X0501613Y0009523D01*
X0501446Y0009356D01*
X0500612Y0009356D01*
X0531124Y0009356D02*
X0531958Y0009356D01*
X0532125Y0009523D01*
X0532125Y0009856D01*
X0531958Y0010023D01*
X0531124Y0010023D01*
X0531458Y0010461D02*
X0531124Y0010794D01*
X0532125Y0010794D01*
X0532125Y0010461D02*
X0532125Y0011128D01*
X0531958Y0011566D02*
X0531791Y0011566D01*
X0531624Y0011733D01*
X0531624Y0012066D01*
X0531791Y0012233D01*
X0531958Y0012233D01*
X0532125Y0012066D01*
X0532125Y0011733D01*
X0531958Y0011566D01*
X0531624Y0011733D02*
X0531458Y0011566D01*
X0531291Y0011566D01*
X0531124Y0011733D01*
X0531124Y0012066D01*
X0531291Y0012233D01*
X0531458Y0012233D01*
X0531624Y0012066D01*
X0561636Y0012066D02*
X0561636Y0011733D01*
X0561803Y0011566D01*
X0561969Y0011566D01*
X0562136Y0011733D01*
X0562136Y0012233D01*
X0561803Y0012233D02*
X0561636Y0012066D01*
X0561803Y0012233D02*
X0562470Y0012233D01*
X0562637Y0012066D01*
X0562637Y0011733D01*
X0562470Y0011566D01*
X0562637Y0011128D02*
X0562637Y0010461D01*
X0562637Y0010794D02*
X0561636Y0010794D01*
X0561969Y0010461D01*
X0561636Y0010023D02*
X0562470Y0010023D01*
X0562637Y0009856D01*
X0562637Y0009523D01*
X0562470Y0009356D01*
X0561636Y0009356D01*
X0592148Y0009356D02*
X0592982Y0009356D01*
X0593149Y0009523D01*
X0593149Y0009856D01*
X0592982Y0010023D01*
X0592148Y0010023D01*
X0592314Y0010461D02*
X0592148Y0010628D01*
X0592148Y0010961D01*
X0592314Y0011128D01*
X0592481Y0011128D01*
X0593149Y0010461D01*
X0593149Y0011128D01*
X0592982Y0011566D02*
X0592314Y0012233D01*
X0592982Y0012233D01*
X0593149Y0012066D01*
X0593149Y0011733D01*
X0592982Y0011566D01*
X0592314Y0011566D01*
X0592148Y0011733D01*
X0592148Y0012066D01*
X0592314Y0012233D01*
X0622659Y0011899D02*
X0623660Y0011899D01*
X0623660Y0011566D02*
X0623660Y0012233D01*
X0622993Y0011566D02*
X0622659Y0011899D01*
X0622826Y0011128D02*
X0622659Y0010961D01*
X0622659Y0010628D01*
X0622826Y0010461D01*
X0622659Y0010023D02*
X0623494Y0010023D01*
X0623660Y0009856D01*
X0623660Y0009523D01*
X0623494Y0009356D01*
X0622659Y0009356D01*
X0623660Y0010461D02*
X0622993Y0011128D01*
X0622826Y0011128D01*
X0623660Y0011128D02*
X0623660Y0010461D01*
X0653171Y0010628D02*
X0653338Y0010461D01*
X0653171Y0010628D02*
X0653171Y0010961D01*
X0653338Y0011128D01*
X0653505Y0011128D01*
X0654172Y0010461D01*
X0654172Y0011128D01*
X0654172Y0011566D02*
X0653505Y0012233D01*
X0653338Y0012233D01*
X0653171Y0012066D01*
X0653171Y0011733D01*
X0653338Y0011566D01*
X0654172Y0011566D02*
X0654172Y0012233D01*
X0683683Y0012066D02*
X0683683Y0011733D01*
X0683850Y0011566D01*
X0683850Y0011128D02*
X0683683Y0010961D01*
X0683683Y0010628D01*
X0683850Y0010461D01*
X0683683Y0010023D02*
X0684517Y0010023D01*
X0684684Y0009856D01*
X0684684Y0009523D01*
X0684517Y0009356D01*
X0683683Y0009356D01*
X0684684Y0010461D02*
X0684017Y0011128D01*
X0683850Y0011128D01*
X0684517Y0011566D02*
X0684684Y0011733D01*
X0684684Y0012066D01*
X0684517Y0012233D01*
X0684350Y0012233D01*
X0684184Y0012066D01*
X0684184Y0011899D01*
X0684184Y0012066D02*
X0684017Y0012233D01*
X0683850Y0012233D01*
X0683683Y0012066D01*
X0684684Y0011128D02*
X0684684Y0010461D01*
X0714195Y0010628D02*
X0714362Y0010461D01*
X0714195Y0010628D02*
X0714195Y0010961D01*
X0714362Y0011128D01*
X0714529Y0011128D01*
X0715196Y0010461D01*
X0715196Y0011128D01*
X0714695Y0011566D02*
X0714695Y0012233D01*
X0714195Y0012066D02*
X0714695Y0011566D01*
X0715196Y0012066D02*
X0714195Y0012066D01*
X0744707Y0012233D02*
X0744707Y0011566D01*
X0745207Y0011566D01*
X0745040Y0011899D01*
X0745040Y0012066D01*
X0745207Y0012233D01*
X0745541Y0012233D01*
X0745708Y0012066D01*
X0745708Y0011733D01*
X0745541Y0011566D01*
X0745708Y0011128D02*
X0745708Y0010461D01*
X0745040Y0011128D01*
X0744874Y0011128D01*
X0744707Y0010961D01*
X0744707Y0010628D01*
X0744874Y0010461D01*
X0744707Y0010023D02*
X0745541Y0010023D01*
X0745708Y0009856D01*
X0745708Y0009523D01*
X0745541Y0009356D01*
X0744707Y0009356D01*
X0715196Y0009523D02*
X0715196Y0009856D01*
X0715029Y0010023D01*
X0714195Y0010023D01*
X0714195Y0009356D02*
X0715029Y0009356D01*
X0715196Y0009523D01*
X0775219Y0009356D02*
X0776053Y0009356D01*
X0776219Y0009523D01*
X0776219Y0009856D01*
X0776053Y0010023D01*
X0775219Y0010023D01*
X0775385Y0010461D02*
X0775219Y0010628D01*
X0775219Y0010961D01*
X0775385Y0011128D01*
X0775552Y0011128D01*
X0776219Y0010461D01*
X0776219Y0011128D01*
X0776053Y0011566D02*
X0776219Y0011733D01*
X0776219Y0012066D01*
X0776053Y0012233D01*
X0775886Y0012233D01*
X0775719Y0012066D01*
X0775719Y0011566D01*
X0776053Y0011566D01*
X0775719Y0011566D02*
X0775385Y0011899D01*
X0775219Y0012233D01*
X0805730Y0012233D02*
X0805730Y0011566D01*
X0805897Y0011128D02*
X0805730Y0010961D01*
X0805730Y0010628D01*
X0805897Y0010461D01*
X0805730Y0010023D02*
X0806564Y0010023D01*
X0806731Y0009856D01*
X0806731Y0009523D01*
X0806564Y0009356D01*
X0805730Y0009356D01*
X0806731Y0010461D02*
X0806064Y0011128D01*
X0805897Y0011128D01*
X0806564Y0011566D02*
X0806731Y0011566D01*
X0806564Y0011566D02*
X0805897Y0012233D01*
X0805730Y0012233D01*
X0806731Y0011128D02*
X0806731Y0010461D01*
X0836242Y0010628D02*
X0836409Y0010461D01*
X0836242Y0010628D02*
X0836242Y0010961D01*
X0836409Y0011128D01*
X0836576Y0011128D01*
X0837243Y0010461D01*
X0837243Y0011128D01*
X0837076Y0011566D02*
X0836909Y0011566D01*
X0836743Y0011733D01*
X0836743Y0012066D01*
X0836909Y0012233D01*
X0837076Y0012233D01*
X0837243Y0012066D01*
X0837243Y0011733D01*
X0837076Y0011566D01*
X0836743Y0011733D02*
X0836576Y0011566D01*
X0836409Y0011566D01*
X0836242Y0011733D01*
X0836242Y0012066D01*
X0836409Y0012233D01*
X0836576Y0012233D01*
X0836743Y0012066D01*
X0866754Y0012066D02*
X0866754Y0011733D01*
X0866921Y0011566D01*
X0867088Y0011566D01*
X0867254Y0011733D01*
X0867254Y0012233D01*
X0866921Y0012233D02*
X0866754Y0012066D01*
X0866921Y0012233D02*
X0867588Y0012233D01*
X0867755Y0012066D01*
X0867755Y0011733D01*
X0867588Y0011566D01*
X0867755Y0011128D02*
X0867755Y0010461D01*
X0867088Y0011128D01*
X0866921Y0011128D01*
X0866754Y0010961D01*
X0866754Y0010628D01*
X0866921Y0010461D01*
X0866754Y0010023D02*
X0867588Y0010023D01*
X0867755Y0009856D01*
X0867755Y0009523D01*
X0867588Y0009356D01*
X0866754Y0009356D01*
X0837243Y0009523D02*
X0837243Y0009856D01*
X0837076Y0010023D01*
X0836242Y0010023D01*
X0836242Y0009356D02*
X0837076Y0009356D01*
X0837243Y0009523D01*
X0897266Y0009356D02*
X0898100Y0009356D01*
X0898267Y0009523D01*
X0898267Y0009856D01*
X0898100Y0010023D01*
X0897266Y0010023D01*
X0897433Y0010461D02*
X0897266Y0010628D01*
X0897266Y0010961D01*
X0897433Y0011128D01*
X0897599Y0011128D01*
X0897766Y0010961D01*
X0897933Y0011128D01*
X0898100Y0011128D01*
X0898267Y0010961D01*
X0898267Y0010628D01*
X0898100Y0010461D01*
X0897766Y0010794D02*
X0897766Y0010961D01*
X0897433Y0011566D02*
X0897266Y0011733D01*
X0897266Y0012066D01*
X0897433Y0012233D01*
X0898100Y0011566D01*
X0898267Y0011733D01*
X0898267Y0012066D01*
X0898100Y0012233D01*
X0897433Y0012233D01*
X0897433Y0011566D02*
X0898100Y0011566D01*
X0927778Y0011899D02*
X0928111Y0011566D01*
X0928111Y0011128D02*
X0928278Y0010961D01*
X0928445Y0011128D01*
X0928612Y0011128D01*
X0928778Y0010961D01*
X0928778Y0010628D01*
X0928612Y0010461D01*
X0928612Y0010023D02*
X0927778Y0010023D01*
X0927944Y0010461D02*
X0927778Y0010628D01*
X0927778Y0010961D01*
X0927944Y0011128D01*
X0928111Y0011128D01*
X0928278Y0010961D02*
X0928278Y0010794D01*
X0928612Y0010023D02*
X0928778Y0009856D01*
X0928778Y0009523D01*
X0928612Y0009356D01*
X0927778Y0009356D01*
X0958289Y0009356D02*
X0959123Y0009356D01*
X0959290Y0009523D01*
X0959290Y0009856D01*
X0959123Y0010023D01*
X0958289Y0010023D01*
X0958456Y0010461D02*
X0958289Y0010628D01*
X0958289Y0010961D01*
X0958456Y0011128D01*
X0958623Y0011128D01*
X0958790Y0010961D01*
X0958957Y0011128D01*
X0959123Y0011128D01*
X0959290Y0010961D01*
X0959290Y0010628D01*
X0959123Y0010461D01*
X0958790Y0010794D02*
X0958790Y0010961D01*
X0958456Y0011566D02*
X0958289Y0011733D01*
X0958289Y0012066D01*
X0958456Y0012233D01*
X0958623Y0012233D01*
X0959290Y0011566D01*
X0959290Y0012233D01*
X0928778Y0012233D02*
X0928778Y0011566D01*
X0928778Y0011899D02*
X0927778Y0011899D01*
X0654172Y0009856D02*
X0654172Y0009523D01*
X0654005Y0009356D01*
X0653171Y0009356D01*
X0653171Y0010023D02*
X0654005Y0010023D01*
X0654172Y0009856D01*
X0500779Y0012233D02*
X0500612Y0012233D01*
X0500642Y0025576D02*
X0501310Y0025576D01*
X0500976Y0025576D02*
X0500976Y0026577D01*
X0500642Y0026244D01*
X0500205Y0026410D02*
X0500038Y0026577D01*
X0499704Y0026577D01*
X0499538Y0026410D01*
X0499538Y0025743D01*
X0499704Y0025576D01*
X0500038Y0025576D01*
X0500205Y0025743D01*
X0501747Y0025743D02*
X0501747Y0025576D01*
X0501747Y0025743D02*
X0502415Y0026410D01*
X0502415Y0026577D01*
X0501747Y0026577D01*
X0530049Y0026410D02*
X0530049Y0025743D01*
X0530216Y0025576D01*
X0530550Y0025576D01*
X0530717Y0025743D01*
X0531154Y0025576D02*
X0531821Y0025576D01*
X0531488Y0025576D02*
X0531488Y0026577D01*
X0531154Y0026244D01*
X0530717Y0026410D02*
X0530550Y0026577D01*
X0530216Y0026577D01*
X0530049Y0026410D01*
X0532259Y0026410D02*
X0532259Y0026244D01*
X0532426Y0026077D01*
X0532760Y0026077D01*
X0532926Y0025910D01*
X0532926Y0025743D01*
X0532760Y0025576D01*
X0532426Y0025576D01*
X0532259Y0025743D01*
X0532259Y0025910D01*
X0532426Y0026077D01*
X0532760Y0026077D02*
X0532926Y0026244D01*
X0532926Y0026410D01*
X0532760Y0026577D01*
X0532426Y0026577D01*
X0532259Y0026410D01*
X0560561Y0026410D02*
X0560561Y0025743D01*
X0560728Y0025576D01*
X0561062Y0025576D01*
X0561228Y0025743D01*
X0561666Y0025576D02*
X0562333Y0025576D01*
X0562000Y0025576D02*
X0562000Y0026577D01*
X0561666Y0026244D01*
X0561228Y0026410D02*
X0561062Y0026577D01*
X0560728Y0026577D01*
X0560561Y0026410D01*
X0562771Y0026410D02*
X0562771Y0026244D01*
X0562938Y0026077D01*
X0563438Y0026077D01*
X0563438Y0026410D02*
X0563271Y0026577D01*
X0562938Y0026577D01*
X0562771Y0026410D01*
X0562771Y0025743D02*
X0562938Y0025576D01*
X0563271Y0025576D01*
X0563438Y0025743D01*
X0563438Y0026410D01*
X0591073Y0026410D02*
X0591073Y0025743D01*
X0591240Y0025576D01*
X0591573Y0025576D01*
X0591740Y0025743D01*
X0592178Y0025576D02*
X0592845Y0026244D01*
X0592845Y0026410D01*
X0592678Y0026577D01*
X0592345Y0026577D01*
X0592178Y0026410D01*
X0591740Y0026410D02*
X0591573Y0026577D01*
X0591240Y0026577D01*
X0591073Y0026410D01*
X0593283Y0026410D02*
X0593283Y0025743D01*
X0593950Y0026410D01*
X0593950Y0025743D01*
X0593783Y0025576D01*
X0593450Y0025576D01*
X0593283Y0025743D01*
X0592845Y0025576D02*
X0592178Y0025576D01*
X0593283Y0026410D02*
X0593450Y0026577D01*
X0593783Y0026577D01*
X0593950Y0026410D01*
X0621585Y0026410D02*
X0621585Y0025743D01*
X0621752Y0025576D01*
X0622085Y0025576D01*
X0622252Y0025743D01*
X0622690Y0025576D02*
X0623357Y0026244D01*
X0623357Y0026410D01*
X0623190Y0026577D01*
X0622856Y0026577D01*
X0622690Y0026410D01*
X0622252Y0026410D02*
X0622085Y0026577D01*
X0621752Y0026577D01*
X0621585Y0026410D01*
X0623795Y0026244D02*
X0624128Y0026577D01*
X0624128Y0025576D01*
X0623795Y0025576D02*
X0624462Y0025576D01*
X0623357Y0025576D02*
X0622690Y0025576D01*
X0652097Y0025743D02*
X0652263Y0025576D01*
X0652597Y0025576D01*
X0652764Y0025743D01*
X0653202Y0025576D02*
X0653869Y0026244D01*
X0653869Y0026410D01*
X0653702Y0026577D01*
X0653368Y0026577D01*
X0653202Y0026410D01*
X0652764Y0026410D02*
X0652597Y0026577D01*
X0652263Y0026577D01*
X0652097Y0026410D01*
X0652097Y0025743D01*
X0653202Y0025576D02*
X0653869Y0025576D01*
X0654306Y0025576D02*
X0654974Y0026244D01*
X0654974Y0026410D01*
X0654807Y0026577D01*
X0654473Y0026577D01*
X0654306Y0026410D01*
X0654306Y0025576D02*
X0654974Y0025576D01*
X0682608Y0025743D02*
X0682775Y0025576D01*
X0683109Y0025576D01*
X0683276Y0025743D01*
X0683713Y0025576D02*
X0684381Y0026244D01*
X0684381Y0026410D01*
X0684214Y0026577D01*
X0683880Y0026577D01*
X0683713Y0026410D01*
X0683276Y0026410D02*
X0683109Y0026577D01*
X0682775Y0026577D01*
X0682608Y0026410D01*
X0682608Y0025743D01*
X0683713Y0025576D02*
X0684381Y0025576D01*
X0684818Y0025743D02*
X0684985Y0025576D01*
X0685319Y0025576D01*
X0685485Y0025743D01*
X0685485Y0025910D01*
X0685319Y0026077D01*
X0685152Y0026077D01*
X0685319Y0026077D02*
X0685485Y0026244D01*
X0685485Y0026410D01*
X0685319Y0026577D01*
X0684985Y0026577D01*
X0684818Y0026410D01*
X0713120Y0026410D02*
X0713120Y0025743D01*
X0713287Y0025576D01*
X0713621Y0025576D01*
X0713787Y0025743D01*
X0714225Y0025576D02*
X0714892Y0026244D01*
X0714892Y0026410D01*
X0714726Y0026577D01*
X0714392Y0026577D01*
X0714225Y0026410D01*
X0713787Y0026410D02*
X0713621Y0026577D01*
X0713287Y0026577D01*
X0713120Y0026410D01*
X0715330Y0026077D02*
X0715997Y0026077D01*
X0715830Y0026577D02*
X0715330Y0026077D01*
X0715830Y0025576D02*
X0715830Y0026577D01*
X0714892Y0025576D02*
X0714225Y0025576D01*
X0743632Y0025743D02*
X0743799Y0025576D01*
X0744132Y0025576D01*
X0744299Y0025743D01*
X0744737Y0025576D02*
X0745404Y0026244D01*
X0745404Y0026410D01*
X0745237Y0026577D01*
X0744904Y0026577D01*
X0744737Y0026410D01*
X0744299Y0026410D02*
X0744132Y0026577D01*
X0743799Y0026577D01*
X0743632Y0026410D01*
X0743632Y0025743D01*
X0744737Y0025576D02*
X0745404Y0025576D01*
X0745842Y0025743D02*
X0746009Y0025576D01*
X0746342Y0025576D01*
X0746509Y0025743D01*
X0746509Y0026077D01*
X0746342Y0026244D01*
X0746175Y0026244D01*
X0745842Y0026077D01*
X0745842Y0026577D01*
X0746509Y0026577D01*
X0774144Y0026410D02*
X0774144Y0025743D01*
X0774311Y0025576D01*
X0774644Y0025576D01*
X0774811Y0025743D01*
X0775249Y0025576D02*
X0775916Y0026244D01*
X0775916Y0026410D01*
X0775749Y0026577D01*
X0775416Y0026577D01*
X0775249Y0026410D01*
X0774811Y0026410D02*
X0774644Y0026577D01*
X0774311Y0026577D01*
X0774144Y0026410D01*
X0776354Y0026077D02*
X0776854Y0026077D01*
X0777021Y0025910D01*
X0777021Y0025743D01*
X0776854Y0025576D01*
X0776520Y0025576D01*
X0776354Y0025743D01*
X0776354Y0026077D01*
X0776687Y0026410D01*
X0777021Y0026577D01*
X0775916Y0025576D02*
X0775249Y0025576D01*
X0804656Y0025743D02*
X0804822Y0025576D01*
X0805156Y0025576D01*
X0805323Y0025743D01*
X0805761Y0025576D02*
X0806428Y0026244D01*
X0806428Y0026410D01*
X0806261Y0026577D01*
X0805927Y0026577D01*
X0805761Y0026410D01*
X0805323Y0026410D02*
X0805156Y0026577D01*
X0804822Y0026577D01*
X0804656Y0026410D01*
X0804656Y0025743D01*
X0805761Y0025576D02*
X0806428Y0025576D01*
X0806865Y0025576D02*
X0806865Y0025743D01*
X0807533Y0026410D01*
X0807533Y0026577D01*
X0806865Y0026577D01*
X0835167Y0026410D02*
X0835167Y0025743D01*
X0835334Y0025576D01*
X0835668Y0025576D01*
X0835835Y0025743D01*
X0836272Y0025576D02*
X0836940Y0026244D01*
X0836940Y0026410D01*
X0836773Y0026577D01*
X0836439Y0026577D01*
X0836272Y0026410D01*
X0835835Y0026410D02*
X0835668Y0026577D01*
X0835334Y0026577D01*
X0835167Y0026410D01*
X0837377Y0026410D02*
X0837377Y0026244D01*
X0837544Y0026077D01*
X0837878Y0026077D01*
X0838045Y0025910D01*
X0838045Y0025743D01*
X0837878Y0025576D01*
X0837544Y0025576D01*
X0837377Y0025743D01*
X0837377Y0025910D01*
X0837544Y0026077D01*
X0837878Y0026077D02*
X0838045Y0026244D01*
X0838045Y0026410D01*
X0837878Y0026577D01*
X0837544Y0026577D01*
X0837377Y0026410D01*
X0836940Y0025576D02*
X0836272Y0025576D01*
X0865679Y0025743D02*
X0865846Y0025576D01*
X0866180Y0025576D01*
X0866346Y0025743D01*
X0866784Y0025576D02*
X0867451Y0026244D01*
X0867451Y0026410D01*
X0867285Y0026577D01*
X0866951Y0026577D01*
X0866784Y0026410D01*
X0866346Y0026410D02*
X0866180Y0026577D01*
X0865846Y0026577D01*
X0865679Y0026410D01*
X0865679Y0025743D01*
X0866784Y0025576D02*
X0867451Y0025576D01*
X0867889Y0025743D02*
X0868056Y0025576D01*
X0868390Y0025576D01*
X0868556Y0025743D01*
X0868556Y0026410D01*
X0868390Y0026577D01*
X0868056Y0026577D01*
X0867889Y0026410D01*
X0867889Y0026244D01*
X0868056Y0026077D01*
X0868556Y0026077D01*
X0896191Y0025743D02*
X0896358Y0025576D01*
X0896691Y0025576D01*
X0896858Y0025743D01*
X0897296Y0025743D02*
X0897463Y0025576D01*
X0897796Y0025576D01*
X0897963Y0025743D01*
X0897963Y0025910D01*
X0897796Y0026077D01*
X0897630Y0026077D01*
X0897796Y0026077D02*
X0897963Y0026244D01*
X0897963Y0026410D01*
X0897796Y0026577D01*
X0897463Y0026577D01*
X0897296Y0026410D01*
X0896858Y0026410D02*
X0896691Y0026577D01*
X0896358Y0026577D01*
X0896191Y0026410D01*
X0896191Y0025743D01*
X0898401Y0025743D02*
X0899068Y0026410D01*
X0899068Y0025743D01*
X0898901Y0025576D01*
X0898568Y0025576D01*
X0898401Y0025743D01*
X0898401Y0026410D01*
X0898568Y0026577D01*
X0898901Y0026577D01*
X0899068Y0026410D01*
X0926703Y0026410D02*
X0926703Y0025743D01*
X0926870Y0025576D01*
X0927203Y0025576D01*
X0927370Y0025743D01*
X0927808Y0025743D02*
X0927975Y0025576D01*
X0928308Y0025576D01*
X0928475Y0025743D01*
X0928475Y0025910D01*
X0928308Y0026077D01*
X0928141Y0026077D01*
X0928308Y0026077D02*
X0928475Y0026244D01*
X0928475Y0026410D01*
X0928308Y0026577D01*
X0927975Y0026577D01*
X0927808Y0026410D01*
X0927370Y0026410D02*
X0927203Y0026577D01*
X0926870Y0026577D01*
X0926703Y0026410D01*
X0928913Y0026244D02*
X0929246Y0026577D01*
X0929246Y0025576D01*
X0928913Y0025576D02*
X0929580Y0025576D01*
X0957215Y0025743D02*
X0957215Y0026410D01*
X0957381Y0026577D01*
X0957715Y0026577D01*
X0957882Y0026410D01*
X0958320Y0026410D02*
X0958486Y0026577D01*
X0958820Y0026577D01*
X0958987Y0026410D01*
X0958987Y0026244D01*
X0958820Y0026077D01*
X0958987Y0025910D01*
X0958987Y0025743D01*
X0958820Y0025576D01*
X0958486Y0025576D01*
X0958320Y0025743D01*
X0957882Y0025743D02*
X0957715Y0025576D01*
X0957381Y0025576D01*
X0957215Y0025743D01*
X0958653Y0026077D02*
X0958820Y0026077D01*
X0959425Y0026410D02*
X0959591Y0026577D01*
X0959925Y0026577D01*
X0960092Y0026410D01*
X0960092Y0026244D01*
X0959425Y0025576D01*
X0960092Y0025576D01*
X0959689Y0028076D02*
X0959856Y0028243D01*
X0959856Y0028410D01*
X0959689Y0028577D01*
X0959188Y0028577D01*
X0959188Y0028243D01*
X0959355Y0028076D01*
X0959689Y0028076D01*
X0959188Y0028577D02*
X0959522Y0028910D01*
X0959856Y0029077D01*
X0958751Y0028910D02*
X0958584Y0029077D01*
X0958250Y0029077D01*
X0958083Y0028910D01*
X0958083Y0028744D01*
X0958250Y0028577D01*
X0958751Y0028577D01*
X0958751Y0028910D02*
X0958751Y0028243D01*
X0958584Y0028076D01*
X0958250Y0028076D01*
X0958083Y0028243D01*
X0957646Y0028076D02*
X0957312Y0028410D01*
X0957479Y0028410D02*
X0956978Y0028410D01*
X0956978Y0028076D02*
X0956978Y0029077D01*
X0957479Y0029077D01*
X0957646Y0028910D01*
X0957646Y0028577D01*
X0957479Y0028410D01*
X0954265Y0029376D02*
X0953598Y0029376D01*
X0953931Y0029376D02*
X0953931Y0030376D01*
X0953598Y0030043D01*
X0953160Y0030210D02*
X0953160Y0029542D01*
X0952993Y0029376D01*
X0952660Y0029376D01*
X0952493Y0029542D01*
X0952660Y0029876D02*
X0953160Y0029876D01*
X0953160Y0030210D02*
X0952993Y0030376D01*
X0952660Y0030376D01*
X0952493Y0030210D01*
X0952493Y0030043D01*
X0952660Y0029876D01*
X0952055Y0029876D02*
X0951888Y0029709D01*
X0951388Y0029709D01*
X0951388Y0029376D02*
X0951388Y0030376D01*
X0951888Y0030376D01*
X0952055Y0030210D01*
X0952055Y0029876D01*
X0951722Y0029709D02*
X0952055Y0029376D01*
X0929344Y0028910D02*
X0929344Y0028744D01*
X0929177Y0028577D01*
X0929344Y0028410D01*
X0929344Y0028243D01*
X0929177Y0028076D01*
X0928843Y0028076D01*
X0928677Y0028243D01*
X0928239Y0028243D02*
X0928239Y0028910D01*
X0928072Y0029077D01*
X0927738Y0029077D01*
X0927572Y0028910D01*
X0927572Y0028744D01*
X0927738Y0028577D01*
X0928239Y0028577D01*
X0928239Y0028243D02*
X0928072Y0028076D01*
X0927738Y0028076D01*
X0927572Y0028243D01*
X0927134Y0028076D02*
X0926800Y0028410D01*
X0926967Y0028410D02*
X0926467Y0028410D01*
X0926467Y0028076D02*
X0926467Y0029077D01*
X0926967Y0029077D01*
X0927134Y0028910D01*
X0927134Y0028577D01*
X0926967Y0028410D01*
X0929010Y0028577D02*
X0929177Y0028577D01*
X0929344Y0028910D02*
X0929177Y0029077D01*
X0928843Y0029077D01*
X0928677Y0028910D01*
X0923753Y0029542D02*
X0923586Y0029376D01*
X0923253Y0029376D01*
X0923086Y0029542D01*
X0923086Y0029709D01*
X0923253Y0029876D01*
X0923586Y0029876D01*
X0923753Y0029709D01*
X0923753Y0029542D01*
X0923586Y0029876D02*
X0923753Y0030043D01*
X0923753Y0030210D01*
X0923586Y0030376D01*
X0923253Y0030376D01*
X0923086Y0030210D01*
X0923086Y0030043D01*
X0923253Y0029876D01*
X0922648Y0029709D02*
X0922648Y0029542D01*
X0922481Y0029376D01*
X0922148Y0029376D01*
X0921981Y0029542D01*
X0921981Y0029709D01*
X0922148Y0029876D01*
X0922481Y0029876D01*
X0922648Y0029709D01*
X0922481Y0029876D02*
X0922648Y0030043D01*
X0922648Y0030210D01*
X0922481Y0030376D01*
X0922148Y0030376D01*
X0921981Y0030210D01*
X0921981Y0030043D01*
X0922148Y0029876D01*
X0921543Y0029876D02*
X0921377Y0029709D01*
X0920876Y0029709D01*
X0920876Y0029376D02*
X0920876Y0030376D01*
X0921377Y0030376D01*
X0921543Y0030210D01*
X0921543Y0029876D01*
X0921210Y0029709D02*
X0921543Y0029376D01*
X0898832Y0028910D02*
X0898165Y0028243D01*
X0898332Y0028076D01*
X0898665Y0028076D01*
X0898832Y0028243D01*
X0898832Y0028910D01*
X0898665Y0029077D01*
X0898332Y0029077D01*
X0898165Y0028910D01*
X0898165Y0028243D01*
X0897727Y0028243D02*
X0897727Y0028910D01*
X0897560Y0029077D01*
X0897227Y0029077D01*
X0897060Y0028910D01*
X0897060Y0028744D01*
X0897227Y0028577D01*
X0897727Y0028577D01*
X0897727Y0028243D02*
X0897560Y0028076D01*
X0897227Y0028076D01*
X0897060Y0028243D01*
X0896622Y0028076D02*
X0896288Y0028410D01*
X0896455Y0028410D02*
X0895955Y0028410D01*
X0895955Y0028076D02*
X0895955Y0029077D01*
X0896455Y0029077D01*
X0896622Y0028910D01*
X0896622Y0028577D01*
X0896455Y0028410D01*
X0893241Y0029542D02*
X0893075Y0029376D01*
X0892741Y0029376D01*
X0892574Y0029542D01*
X0892574Y0029876D02*
X0892908Y0030043D01*
X0893075Y0030043D01*
X0893241Y0029876D01*
X0893241Y0029542D01*
X0892574Y0029876D02*
X0892574Y0030376D01*
X0893241Y0030376D01*
X0892136Y0030210D02*
X0892136Y0030043D01*
X0891970Y0029876D01*
X0891636Y0029876D01*
X0891469Y0030043D01*
X0891469Y0030210D01*
X0891636Y0030376D01*
X0891970Y0030376D01*
X0892136Y0030210D01*
X0891970Y0029876D02*
X0892136Y0029709D01*
X0892136Y0029542D01*
X0891970Y0029376D01*
X0891636Y0029376D01*
X0891469Y0029542D01*
X0891469Y0029709D01*
X0891636Y0029876D01*
X0891032Y0029876D02*
X0890865Y0029709D01*
X0890364Y0029709D01*
X0890364Y0029376D02*
X0890364Y0030376D01*
X0890865Y0030376D01*
X0891032Y0030210D01*
X0891032Y0029876D01*
X0890698Y0029709D02*
X0891032Y0029376D01*
X0868320Y0029077D02*
X0868320Y0028910D01*
X0867653Y0028243D01*
X0867653Y0028076D01*
X0867215Y0028243D02*
X0867048Y0028076D01*
X0866715Y0028076D01*
X0866548Y0028243D01*
X0866548Y0028410D01*
X0866715Y0028577D01*
X0867048Y0028577D01*
X0867215Y0028410D01*
X0867215Y0028243D01*
X0867048Y0028577D02*
X0867215Y0028744D01*
X0867215Y0028910D01*
X0867048Y0029077D01*
X0866715Y0029077D01*
X0866548Y0028910D01*
X0866548Y0028744D01*
X0866715Y0028577D01*
X0866110Y0028577D02*
X0865943Y0028410D01*
X0865443Y0028410D01*
X0865443Y0028076D02*
X0865443Y0029077D01*
X0865943Y0029077D01*
X0866110Y0028910D01*
X0866110Y0028577D01*
X0865777Y0028410D02*
X0866110Y0028076D01*
X0867653Y0029077D02*
X0868320Y0029077D01*
X0862730Y0029376D02*
X0862062Y0029376D01*
X0862730Y0030043D01*
X0862730Y0030210D01*
X0862563Y0030376D01*
X0862229Y0030376D01*
X0862062Y0030210D01*
X0861625Y0030210D02*
X0861625Y0030043D01*
X0861458Y0029876D01*
X0861124Y0029876D01*
X0860957Y0030043D01*
X0860957Y0030210D01*
X0861124Y0030376D01*
X0861458Y0030376D01*
X0861625Y0030210D01*
X0861458Y0029876D02*
X0861625Y0029709D01*
X0861625Y0029542D01*
X0861458Y0029376D01*
X0861124Y0029376D01*
X0860957Y0029542D01*
X0860957Y0029709D01*
X0861124Y0029876D01*
X0860520Y0029876D02*
X0860353Y0029709D01*
X0859852Y0029709D01*
X0859852Y0029376D02*
X0859852Y0030376D01*
X0860353Y0030376D01*
X0860520Y0030210D01*
X0860520Y0029876D01*
X0860186Y0029709D02*
X0860520Y0029376D01*
X0837808Y0028577D02*
X0837141Y0028577D01*
X0837641Y0029077D01*
X0837641Y0028076D01*
X0836703Y0028243D02*
X0836537Y0028076D01*
X0836203Y0028076D01*
X0836036Y0028243D01*
X0836036Y0028410D01*
X0836203Y0028577D01*
X0836537Y0028577D01*
X0836703Y0028410D01*
X0836703Y0028243D01*
X0836537Y0028577D02*
X0836703Y0028744D01*
X0836703Y0028910D01*
X0836537Y0029077D01*
X0836203Y0029077D01*
X0836036Y0028910D01*
X0836036Y0028744D01*
X0836203Y0028577D01*
X0835598Y0028577D02*
X0835432Y0028410D01*
X0834931Y0028410D01*
X0834931Y0028076D02*
X0834931Y0029077D01*
X0835432Y0029077D01*
X0835598Y0028910D01*
X0835598Y0028577D01*
X0835265Y0028410D02*
X0835598Y0028076D01*
X0832218Y0029542D02*
X0832218Y0030210D01*
X0832051Y0030376D01*
X0831717Y0030376D01*
X0831551Y0030210D01*
X0831551Y0030043D01*
X0831717Y0029876D01*
X0832218Y0029876D01*
X0832218Y0029542D02*
X0832051Y0029376D01*
X0831717Y0029376D01*
X0831551Y0029542D01*
X0831113Y0030210D02*
X0830446Y0029542D01*
X0830446Y0029376D01*
X0830008Y0029376D02*
X0829674Y0029709D01*
X0829841Y0029709D02*
X0829341Y0029709D01*
X0829341Y0029376D02*
X0829341Y0030376D01*
X0829841Y0030376D01*
X0830008Y0030210D01*
X0830008Y0029876D01*
X0829841Y0029709D01*
X0830446Y0030376D02*
X0831113Y0030376D01*
X0831113Y0030210D01*
X0806963Y0029077D02*
X0806963Y0028076D01*
X0806629Y0028076D02*
X0807297Y0028076D01*
X0806629Y0028744D02*
X0806963Y0029077D01*
X0806192Y0028910D02*
X0806192Y0028744D01*
X0806025Y0028577D01*
X0805691Y0028577D01*
X0805524Y0028744D01*
X0805524Y0028910D01*
X0805691Y0029077D01*
X0806025Y0029077D01*
X0806192Y0028910D01*
X0806025Y0028577D02*
X0806192Y0028410D01*
X0806192Y0028243D01*
X0806025Y0028076D01*
X0805691Y0028076D01*
X0805524Y0028243D01*
X0805524Y0028410D01*
X0805691Y0028577D01*
X0805087Y0028577D02*
X0804920Y0028410D01*
X0804419Y0028410D01*
X0804419Y0028076D02*
X0804419Y0029077D01*
X0804920Y0029077D01*
X0805087Y0028910D01*
X0805087Y0028577D01*
X0804753Y0028410D02*
X0805087Y0028076D01*
X0801706Y0029542D02*
X0801706Y0029709D01*
X0801539Y0029876D01*
X0801039Y0029876D01*
X0801039Y0029542D01*
X0801206Y0029376D01*
X0801539Y0029376D01*
X0801706Y0029542D01*
X0801039Y0029876D02*
X0801372Y0030210D01*
X0801706Y0030376D01*
X0800601Y0030376D02*
X0800601Y0030210D01*
X0799934Y0029542D01*
X0799934Y0029376D01*
X0799496Y0029376D02*
X0799162Y0029709D01*
X0799329Y0029709D02*
X0798829Y0029709D01*
X0798829Y0029376D02*
X0798829Y0030376D01*
X0799329Y0030376D01*
X0799496Y0030210D01*
X0799496Y0029876D01*
X0799329Y0029709D01*
X0799934Y0030376D02*
X0800601Y0030376D01*
X0771194Y0030210D02*
X0771194Y0030043D01*
X0771027Y0029876D01*
X0771194Y0029709D01*
X0771194Y0029542D01*
X0771027Y0029376D01*
X0770694Y0029376D01*
X0770527Y0029542D01*
X0770861Y0029876D02*
X0771027Y0029876D01*
X0771194Y0030210D02*
X0771027Y0030376D01*
X0770694Y0030376D01*
X0770527Y0030210D01*
X0770089Y0030210D02*
X0769422Y0029542D01*
X0769422Y0029376D01*
X0768984Y0029376D02*
X0768651Y0029709D01*
X0768817Y0029709D02*
X0768317Y0029709D01*
X0768317Y0029376D02*
X0768317Y0030376D01*
X0768817Y0030376D01*
X0768984Y0030210D01*
X0768984Y0029876D01*
X0768817Y0029709D01*
X0769422Y0030376D02*
X0770089Y0030376D01*
X0770089Y0030210D01*
X0773908Y0029077D02*
X0774408Y0029077D01*
X0774575Y0028910D01*
X0774575Y0028577D01*
X0774408Y0028410D01*
X0773908Y0028410D01*
X0774241Y0028410D02*
X0774575Y0028076D01*
X0775013Y0028076D02*
X0775013Y0028243D01*
X0775680Y0028910D01*
X0775680Y0029077D01*
X0775013Y0029077D01*
X0773908Y0029077D02*
X0773908Y0028076D01*
X0776117Y0028243D02*
X0776117Y0028410D01*
X0776284Y0028577D01*
X0776618Y0028577D01*
X0776785Y0028410D01*
X0776785Y0028243D01*
X0776618Y0028076D01*
X0776284Y0028076D01*
X0776117Y0028243D01*
X0776284Y0028577D02*
X0776117Y0028744D01*
X0776117Y0028910D01*
X0776284Y0029077D01*
X0776618Y0029077D01*
X0776785Y0028910D01*
X0776785Y0028744D01*
X0776618Y0028577D01*
X0746273Y0028577D02*
X0746273Y0028243D01*
X0746106Y0028076D01*
X0745772Y0028076D01*
X0745606Y0028243D01*
X0745606Y0028577D02*
X0745939Y0028744D01*
X0746106Y0028744D01*
X0746273Y0028577D01*
X0746273Y0029077D02*
X0745606Y0029077D01*
X0745606Y0028577D01*
X0745168Y0028910D02*
X0744501Y0028243D01*
X0744501Y0028076D01*
X0744063Y0028076D02*
X0743729Y0028410D01*
X0743896Y0028410D02*
X0743396Y0028410D01*
X0743396Y0028076D02*
X0743396Y0029077D01*
X0743896Y0029077D01*
X0744063Y0028910D01*
X0744063Y0028577D01*
X0743896Y0028410D01*
X0744501Y0029077D02*
X0745168Y0029077D01*
X0745168Y0028910D01*
X0740682Y0029542D02*
X0740516Y0029376D01*
X0740182Y0029376D01*
X0740015Y0029542D01*
X0740682Y0030210D01*
X0740682Y0029542D01*
X0740015Y0029542D02*
X0740015Y0030210D01*
X0740182Y0030376D01*
X0740516Y0030376D01*
X0740682Y0030210D01*
X0739577Y0030210D02*
X0738910Y0029542D01*
X0738910Y0029376D01*
X0738472Y0029376D02*
X0738139Y0029709D01*
X0738306Y0029709D02*
X0737805Y0029709D01*
X0737805Y0029376D02*
X0737805Y0030376D01*
X0738306Y0030376D01*
X0738472Y0030210D01*
X0738472Y0029876D01*
X0738306Y0029709D01*
X0738910Y0030376D02*
X0739577Y0030376D01*
X0739577Y0030210D01*
X0715761Y0028910D02*
X0715594Y0029077D01*
X0715261Y0029077D01*
X0715094Y0028910D01*
X0714656Y0028910D02*
X0713989Y0028243D01*
X0713989Y0028076D01*
X0713551Y0028076D02*
X0713218Y0028410D01*
X0713384Y0028410D02*
X0712884Y0028410D01*
X0712884Y0028076D02*
X0712884Y0029077D01*
X0713384Y0029077D01*
X0713551Y0028910D01*
X0713551Y0028577D01*
X0713384Y0028410D01*
X0715094Y0028076D02*
X0715761Y0028744D01*
X0715761Y0028910D01*
X0714656Y0028910D02*
X0714656Y0029077D01*
X0713989Y0029077D01*
X0710171Y0030210D02*
X0709503Y0029542D01*
X0709503Y0029376D01*
X0709066Y0029542D02*
X0709066Y0029709D01*
X0708899Y0029876D01*
X0708398Y0029876D01*
X0708398Y0029542D01*
X0708565Y0029376D01*
X0708899Y0029376D01*
X0709066Y0029542D01*
X0708732Y0030210D02*
X0708398Y0029876D01*
X0707961Y0029876D02*
X0707794Y0029709D01*
X0707293Y0029709D01*
X0707293Y0029376D02*
X0707293Y0030376D01*
X0707794Y0030376D01*
X0707961Y0030210D01*
X0707961Y0029876D01*
X0707627Y0029709D02*
X0707961Y0029376D01*
X0708732Y0030210D02*
X0709066Y0030376D01*
X0709503Y0030376D02*
X0710171Y0030376D01*
X0710171Y0030210D01*
X0685249Y0028910D02*
X0685082Y0029077D01*
X0684749Y0029077D01*
X0684582Y0028910D01*
X0684582Y0028744D01*
X0684749Y0028577D01*
X0685249Y0028577D01*
X0685249Y0028910D02*
X0685249Y0028243D01*
X0685082Y0028076D01*
X0684749Y0028076D01*
X0684582Y0028243D01*
X0684144Y0028243D02*
X0684144Y0028410D01*
X0683978Y0028577D01*
X0683477Y0028577D01*
X0683477Y0028243D01*
X0683644Y0028076D01*
X0683978Y0028076D01*
X0684144Y0028243D01*
X0683811Y0028910D02*
X0683477Y0028577D01*
X0683039Y0028577D02*
X0682873Y0028410D01*
X0682372Y0028410D01*
X0682372Y0028076D02*
X0682372Y0029077D01*
X0682873Y0029077D01*
X0683039Y0028910D01*
X0683039Y0028577D01*
X0682706Y0028410D02*
X0683039Y0028076D01*
X0683811Y0028910D02*
X0684144Y0029077D01*
X0679492Y0029376D02*
X0679492Y0030376D01*
X0678991Y0029876D01*
X0679659Y0029876D01*
X0678554Y0029709D02*
X0678387Y0029876D01*
X0677887Y0029876D01*
X0677887Y0029542D01*
X0678053Y0029376D01*
X0678387Y0029376D01*
X0678554Y0029542D01*
X0678554Y0029709D01*
X0678220Y0030210D02*
X0677887Y0029876D01*
X0677449Y0029876D02*
X0677282Y0029709D01*
X0676782Y0029709D01*
X0677115Y0029709D02*
X0677449Y0029376D01*
X0677449Y0029876D02*
X0677449Y0030210D01*
X0677282Y0030376D01*
X0676782Y0030376D01*
X0676782Y0029376D01*
X0678220Y0030210D02*
X0678554Y0030376D01*
X0654737Y0029077D02*
X0654404Y0028910D01*
X0654070Y0028577D01*
X0654571Y0028577D01*
X0654737Y0028410D01*
X0654737Y0028243D01*
X0654571Y0028076D01*
X0654237Y0028076D01*
X0654070Y0028243D01*
X0654070Y0028577D01*
X0653633Y0028410D02*
X0653466Y0028577D01*
X0652965Y0028577D01*
X0652965Y0028243D01*
X0653132Y0028076D01*
X0653466Y0028076D01*
X0653633Y0028243D01*
X0653633Y0028410D01*
X0653299Y0028910D02*
X0652965Y0028577D01*
X0652528Y0028577D02*
X0652361Y0028410D01*
X0651860Y0028410D01*
X0651860Y0028076D02*
X0651860Y0029077D01*
X0652361Y0029077D01*
X0652528Y0028910D01*
X0652528Y0028577D01*
X0652194Y0028410D02*
X0652528Y0028076D01*
X0653299Y0028910D02*
X0653633Y0029077D01*
X0649147Y0029376D02*
X0648480Y0029376D01*
X0648813Y0029376D02*
X0648813Y0030376D01*
X0648480Y0030043D01*
X0648042Y0030376D02*
X0647708Y0030210D01*
X0647375Y0029876D01*
X0647875Y0029876D01*
X0648042Y0029709D01*
X0648042Y0029542D01*
X0647875Y0029376D01*
X0647542Y0029376D01*
X0647375Y0029542D01*
X0647375Y0029876D01*
X0646937Y0029876D02*
X0646770Y0029709D01*
X0646270Y0029709D01*
X0646603Y0029709D02*
X0646937Y0029376D01*
X0646937Y0029876D02*
X0646937Y0030210D01*
X0646770Y0030376D01*
X0646270Y0030376D01*
X0646270Y0029376D01*
X0624226Y0028910D02*
X0624226Y0028744D01*
X0624059Y0028577D01*
X0624226Y0028410D01*
X0624226Y0028243D01*
X0624059Y0028076D01*
X0623725Y0028076D01*
X0623558Y0028243D01*
X0623121Y0028243D02*
X0623121Y0028410D01*
X0622954Y0028577D01*
X0622453Y0028577D01*
X0622453Y0028243D01*
X0622620Y0028076D01*
X0622954Y0028076D01*
X0623121Y0028243D01*
X0622787Y0028910D02*
X0622453Y0028577D01*
X0622016Y0028577D02*
X0621849Y0028410D01*
X0621349Y0028410D01*
X0621682Y0028410D02*
X0622016Y0028076D01*
X0622016Y0028577D02*
X0622016Y0028910D01*
X0621849Y0029077D01*
X0621349Y0029077D01*
X0621349Y0028076D01*
X0623892Y0028577D02*
X0624059Y0028577D01*
X0624226Y0028910D02*
X0624059Y0029077D01*
X0623725Y0029077D01*
X0623558Y0028910D01*
X0623121Y0029077D02*
X0622787Y0028910D01*
X0618635Y0029542D02*
X0618468Y0029376D01*
X0618135Y0029376D01*
X0617968Y0029542D01*
X0617968Y0029709D01*
X0618135Y0029876D01*
X0618468Y0029876D01*
X0618635Y0029709D01*
X0618635Y0029542D01*
X0618468Y0029876D02*
X0618635Y0030043D01*
X0618635Y0030210D01*
X0618468Y0030376D01*
X0618135Y0030376D01*
X0617968Y0030210D01*
X0617968Y0030043D01*
X0618135Y0029876D01*
X0617530Y0029876D02*
X0617530Y0029542D01*
X0617363Y0029376D01*
X0617030Y0029376D01*
X0616863Y0029542D01*
X0616863Y0029876D02*
X0617197Y0030043D01*
X0617363Y0030043D01*
X0617530Y0029876D01*
X0617530Y0030376D02*
X0616863Y0030376D01*
X0616863Y0029876D01*
X0616425Y0029876D02*
X0616258Y0029709D01*
X0615758Y0029709D01*
X0615758Y0029376D02*
X0615758Y0030376D01*
X0616258Y0030376D01*
X0616425Y0030210D01*
X0616425Y0029876D01*
X0616092Y0029709D02*
X0616425Y0029376D01*
X0593714Y0028910D02*
X0593047Y0028243D01*
X0593213Y0028076D01*
X0593547Y0028076D01*
X0593714Y0028243D01*
X0593714Y0028910D01*
X0593547Y0029077D01*
X0593213Y0029077D01*
X0593047Y0028910D01*
X0593047Y0028243D01*
X0592609Y0028243D02*
X0592609Y0028410D01*
X0592442Y0028577D01*
X0591942Y0028577D01*
X0591942Y0028243D01*
X0592108Y0028076D01*
X0592442Y0028076D01*
X0592609Y0028243D01*
X0592275Y0028910D02*
X0591942Y0028577D01*
X0591504Y0028577D02*
X0591337Y0028410D01*
X0590837Y0028410D01*
X0591170Y0028410D02*
X0591504Y0028076D01*
X0591504Y0028577D02*
X0591504Y0028910D01*
X0591337Y0029077D01*
X0590837Y0029077D01*
X0590837Y0028076D01*
X0592275Y0028910D02*
X0592609Y0029077D01*
X0588123Y0029542D02*
X0587956Y0029376D01*
X0587623Y0029376D01*
X0587456Y0029542D01*
X0587456Y0029876D02*
X0587790Y0030043D01*
X0587956Y0030043D01*
X0588123Y0029876D01*
X0588123Y0029542D01*
X0587456Y0029876D02*
X0587456Y0030376D01*
X0588123Y0030376D01*
X0587018Y0030376D02*
X0586351Y0030376D01*
X0586351Y0029876D01*
X0586685Y0030043D01*
X0586852Y0030043D01*
X0587018Y0029876D01*
X0587018Y0029542D01*
X0586852Y0029376D01*
X0586518Y0029376D01*
X0586351Y0029542D01*
X0585913Y0029376D02*
X0585580Y0029709D01*
X0585747Y0029709D02*
X0585246Y0029709D01*
X0585246Y0029376D02*
X0585246Y0030376D01*
X0585747Y0030376D01*
X0585913Y0030210D01*
X0585913Y0029876D01*
X0585747Y0029709D01*
X0563202Y0029077D02*
X0563202Y0028910D01*
X0562535Y0028243D01*
X0562535Y0028076D01*
X0562097Y0028243D02*
X0561930Y0028076D01*
X0561597Y0028076D01*
X0561430Y0028243D01*
X0561430Y0028577D02*
X0561763Y0028744D01*
X0561930Y0028744D01*
X0562097Y0028577D01*
X0562097Y0028243D01*
X0561430Y0028577D02*
X0561430Y0029077D01*
X0562097Y0029077D01*
X0562535Y0029077D02*
X0563202Y0029077D01*
X0560992Y0028910D02*
X0560992Y0028577D01*
X0560825Y0028410D01*
X0560325Y0028410D01*
X0560659Y0028410D02*
X0560992Y0028076D01*
X0560325Y0028076D02*
X0560325Y0029077D01*
X0560825Y0029077D01*
X0560992Y0028910D01*
X0557611Y0029376D02*
X0556944Y0029376D01*
X0557611Y0030043D01*
X0557611Y0030210D01*
X0557445Y0030376D01*
X0557111Y0030376D01*
X0556944Y0030210D01*
X0556507Y0030376D02*
X0555839Y0030376D01*
X0555839Y0029876D01*
X0556173Y0030043D01*
X0556340Y0030043D01*
X0556507Y0029876D01*
X0556507Y0029542D01*
X0556340Y0029376D01*
X0556006Y0029376D01*
X0555839Y0029542D01*
X0555402Y0029376D02*
X0555068Y0029709D01*
X0555235Y0029709D02*
X0554734Y0029709D01*
X0554734Y0029376D02*
X0554734Y0030376D01*
X0555235Y0030376D01*
X0555402Y0030210D01*
X0555402Y0029876D01*
X0555235Y0029709D01*
X0532690Y0028577D02*
X0532023Y0028577D01*
X0532523Y0029077D01*
X0532523Y0028076D01*
X0531585Y0028243D02*
X0531418Y0028076D01*
X0531085Y0028076D01*
X0530918Y0028243D01*
X0530918Y0028577D02*
X0531252Y0028744D01*
X0531418Y0028744D01*
X0531585Y0028577D01*
X0531585Y0028243D01*
X0530918Y0028577D02*
X0530918Y0029077D01*
X0531585Y0029077D01*
X0530480Y0028910D02*
X0530480Y0028577D01*
X0530314Y0028410D01*
X0529813Y0028410D01*
X0529813Y0028076D02*
X0529813Y0029077D01*
X0530314Y0029077D01*
X0530480Y0028910D01*
X0527100Y0029542D02*
X0527100Y0030210D01*
X0526933Y0030376D01*
X0526599Y0030376D01*
X0526432Y0030210D01*
X0526432Y0030043D01*
X0526599Y0029876D01*
X0527100Y0029876D01*
X0527100Y0029542D02*
X0526933Y0029376D01*
X0526599Y0029376D01*
X0526432Y0029542D01*
X0525995Y0029876D02*
X0525327Y0029876D01*
X0525828Y0030376D01*
X0525828Y0029376D01*
X0524890Y0029376D02*
X0524556Y0029709D01*
X0524723Y0029709D02*
X0524223Y0029709D01*
X0524223Y0029376D02*
X0524223Y0030376D01*
X0524723Y0030376D01*
X0524890Y0030210D01*
X0524890Y0029876D01*
X0524723Y0029709D01*
X0501845Y0029077D02*
X0501511Y0028744D01*
X0501073Y0028577D02*
X0501073Y0028243D01*
X0500907Y0028076D01*
X0500573Y0028076D01*
X0500406Y0028243D01*
X0500406Y0028577D02*
X0500740Y0028744D01*
X0500907Y0028744D01*
X0501073Y0028577D01*
X0501073Y0029077D02*
X0500406Y0029077D01*
X0500406Y0028577D01*
X0499969Y0028577D02*
X0499802Y0028410D01*
X0499301Y0028410D01*
X0499301Y0028076D02*
X0499301Y0029077D01*
X0499802Y0029077D01*
X0499969Y0028910D01*
X0499969Y0028577D01*
X0499635Y0028410D02*
X0499969Y0028076D01*
X0501511Y0028076D02*
X0502178Y0028076D01*
X0501845Y0028076D02*
X0501845Y0029077D01*
X0496588Y0029542D02*
X0496588Y0029709D01*
X0496421Y0029876D01*
X0495921Y0029876D01*
X0495921Y0029542D01*
X0496087Y0029376D01*
X0496421Y0029376D01*
X0496588Y0029542D01*
X0495921Y0029876D02*
X0496254Y0030210D01*
X0496588Y0030376D01*
X0495483Y0029876D02*
X0494816Y0029876D01*
X0495316Y0030376D01*
X0495316Y0029376D01*
X0494378Y0029376D02*
X0494044Y0029709D01*
X0494211Y0029709D02*
X0493711Y0029709D01*
X0493711Y0029376D02*
X0493711Y0030376D01*
X0494211Y0030376D01*
X0494378Y0030210D01*
X0494378Y0029876D01*
X0494211Y0029709D01*
X0471667Y0028910D02*
X0471667Y0028744D01*
X0471500Y0028577D01*
X0471166Y0028577D01*
X0470999Y0028744D01*
X0470999Y0028910D01*
X0471166Y0029077D01*
X0471500Y0029077D01*
X0471667Y0028910D01*
X0471500Y0028577D02*
X0471667Y0028410D01*
X0471667Y0028243D01*
X0471500Y0028076D01*
X0471166Y0028076D01*
X0470999Y0028243D01*
X0470999Y0028410D01*
X0471166Y0028577D01*
X0470562Y0028577D02*
X0469894Y0028577D01*
X0470395Y0029077D01*
X0470395Y0028076D01*
X0469457Y0028076D02*
X0469123Y0028410D01*
X0469290Y0028410D02*
X0468789Y0028410D01*
X0468789Y0028076D02*
X0468789Y0029077D01*
X0469290Y0029077D01*
X0469457Y0028910D01*
X0469457Y0028577D01*
X0469290Y0028410D01*
X0466076Y0029542D02*
X0465909Y0029376D01*
X0465576Y0029376D01*
X0465409Y0029542D01*
X0465742Y0029876D02*
X0465909Y0029876D01*
X0466076Y0029709D01*
X0466076Y0029542D01*
X0465909Y0029876D02*
X0466076Y0030043D01*
X0466076Y0030210D01*
X0465909Y0030376D01*
X0465576Y0030376D01*
X0465409Y0030210D01*
X0464971Y0029876D02*
X0464304Y0029876D01*
X0464804Y0030376D01*
X0464804Y0029376D01*
X0463866Y0029376D02*
X0463533Y0029709D01*
X0463699Y0029709D02*
X0463199Y0029709D01*
X0463199Y0029376D02*
X0463199Y0030376D01*
X0463699Y0030376D01*
X0463866Y0030210D01*
X0463866Y0029876D01*
X0463699Y0029709D01*
X0441155Y0029077D02*
X0440488Y0029077D01*
X0440488Y0028577D01*
X0440821Y0028744D01*
X0440988Y0028744D01*
X0441155Y0028577D01*
X0441155Y0028243D01*
X0440988Y0028076D01*
X0440654Y0028076D01*
X0440488Y0028243D01*
X0440050Y0028577D02*
X0439383Y0028577D01*
X0439883Y0029077D01*
X0439883Y0028076D01*
X0438945Y0028076D02*
X0438611Y0028410D01*
X0438778Y0028410D02*
X0438278Y0028410D01*
X0438278Y0028076D02*
X0438278Y0029077D01*
X0438778Y0029077D01*
X0438945Y0028910D01*
X0438945Y0028577D01*
X0438778Y0028410D01*
X0435564Y0029542D02*
X0435397Y0029376D01*
X0435064Y0029376D01*
X0434897Y0029542D01*
X0435564Y0030210D01*
X0435564Y0029542D01*
X0434897Y0029542D02*
X0434897Y0030210D01*
X0435064Y0030376D01*
X0435397Y0030376D01*
X0435564Y0030210D01*
X0434459Y0029876D02*
X0433792Y0029876D01*
X0434292Y0030376D01*
X0434292Y0029376D01*
X0433354Y0029376D02*
X0433021Y0029709D01*
X0433188Y0029709D02*
X0432687Y0029709D01*
X0432687Y0029376D02*
X0432687Y0030376D01*
X0433188Y0030376D01*
X0433354Y0030210D01*
X0433354Y0029876D01*
X0433188Y0029709D01*
X0410643Y0028910D02*
X0410476Y0029077D01*
X0410143Y0029077D01*
X0409976Y0028910D01*
X0409538Y0028577D02*
X0408871Y0028577D01*
X0409371Y0029077D01*
X0409371Y0028076D01*
X0409976Y0028076D02*
X0410643Y0028744D01*
X0410643Y0028910D01*
X0408433Y0028910D02*
X0408433Y0028577D01*
X0408266Y0028410D01*
X0407766Y0028410D01*
X0408099Y0028410D02*
X0408433Y0028076D01*
X0407766Y0028076D02*
X0407766Y0029077D01*
X0408266Y0029077D01*
X0408433Y0028910D01*
X0405052Y0030210D02*
X0404385Y0029542D01*
X0404385Y0029376D01*
X0403947Y0029542D02*
X0403781Y0029376D01*
X0403447Y0029376D01*
X0403280Y0029542D01*
X0402843Y0029376D02*
X0402509Y0029709D01*
X0402676Y0029709D02*
X0402175Y0029709D01*
X0402175Y0029376D02*
X0402175Y0030376D01*
X0402676Y0030376D01*
X0402843Y0030210D01*
X0402843Y0029876D01*
X0402676Y0029709D01*
X0403280Y0030210D02*
X0403447Y0030376D01*
X0403781Y0030376D01*
X0403947Y0030210D01*
X0403947Y0030043D01*
X0403781Y0029876D01*
X0403947Y0029709D01*
X0403947Y0029542D01*
X0403781Y0029876D02*
X0403614Y0029876D01*
X0404385Y0030376D02*
X0405052Y0030376D01*
X0405052Y0030210D01*
X0380131Y0028910D02*
X0379964Y0029077D01*
X0379631Y0029077D01*
X0379464Y0028910D01*
X0379464Y0028744D01*
X0379631Y0028577D01*
X0380131Y0028577D01*
X0380131Y0028910D02*
X0380131Y0028243D01*
X0379964Y0028076D01*
X0379631Y0028076D01*
X0379464Y0028243D01*
X0379026Y0028243D02*
X0378859Y0028076D01*
X0378526Y0028076D01*
X0378359Y0028243D01*
X0377921Y0028076D02*
X0377588Y0028410D01*
X0377754Y0028410D02*
X0377254Y0028410D01*
X0377254Y0028076D02*
X0377254Y0029077D01*
X0377754Y0029077D01*
X0377921Y0028910D01*
X0377921Y0028577D01*
X0377754Y0028410D01*
X0378693Y0028577D02*
X0378859Y0028577D01*
X0379026Y0028410D01*
X0379026Y0028243D01*
X0378859Y0028577D02*
X0379026Y0028744D01*
X0379026Y0028910D01*
X0378859Y0029077D01*
X0378526Y0029077D01*
X0378359Y0028910D01*
X0374374Y0029376D02*
X0374374Y0030376D01*
X0373873Y0029876D01*
X0374541Y0029876D01*
X0373436Y0029709D02*
X0373436Y0029542D01*
X0373269Y0029376D01*
X0372935Y0029376D01*
X0372768Y0029542D01*
X0372331Y0029376D02*
X0371997Y0029709D01*
X0372164Y0029709D02*
X0371663Y0029709D01*
X0371663Y0029376D02*
X0371663Y0030376D01*
X0372164Y0030376D01*
X0372331Y0030210D01*
X0372331Y0029876D01*
X0372164Y0029709D01*
X0372768Y0030210D02*
X0372935Y0030376D01*
X0373269Y0030376D01*
X0373436Y0030210D01*
X0373436Y0030043D01*
X0373269Y0029876D01*
X0373436Y0029709D01*
X0373269Y0029876D02*
X0373102Y0029876D01*
X0349619Y0029077D02*
X0349286Y0028910D01*
X0348952Y0028577D01*
X0349453Y0028577D01*
X0349619Y0028410D01*
X0349619Y0028243D01*
X0349453Y0028076D01*
X0349119Y0028076D01*
X0348952Y0028243D01*
X0348952Y0028577D01*
X0348514Y0028744D02*
X0348348Y0028577D01*
X0348514Y0028410D01*
X0348514Y0028243D01*
X0348348Y0028076D01*
X0348014Y0028076D01*
X0347847Y0028243D01*
X0347409Y0028076D02*
X0347076Y0028410D01*
X0347243Y0028410D02*
X0346742Y0028410D01*
X0346742Y0028076D02*
X0346742Y0029077D01*
X0347243Y0029077D01*
X0347409Y0028910D01*
X0347409Y0028577D01*
X0347243Y0028410D01*
X0348181Y0028577D02*
X0348348Y0028577D01*
X0348514Y0028744D02*
X0348514Y0028910D01*
X0348348Y0029077D01*
X0348014Y0029077D01*
X0347847Y0028910D01*
X0344029Y0029376D02*
X0343362Y0029376D01*
X0343695Y0029376D02*
X0343695Y0030376D01*
X0343362Y0030043D01*
X0342924Y0030043D02*
X0342757Y0029876D01*
X0342924Y0029709D01*
X0342924Y0029542D01*
X0342757Y0029376D01*
X0342423Y0029376D01*
X0342257Y0029542D01*
X0341819Y0029376D02*
X0341485Y0029709D01*
X0341652Y0029709D02*
X0341152Y0029709D01*
X0341152Y0029376D02*
X0341152Y0030376D01*
X0341652Y0030376D01*
X0341819Y0030210D01*
X0341819Y0029876D01*
X0341652Y0029709D01*
X0342257Y0030210D02*
X0342423Y0030376D01*
X0342757Y0030376D01*
X0342924Y0030210D01*
X0342924Y0030043D01*
X0342757Y0029876D02*
X0342590Y0029876D01*
X0319108Y0028910D02*
X0319108Y0028744D01*
X0318941Y0028577D01*
X0319108Y0028410D01*
X0319108Y0028243D01*
X0318941Y0028076D01*
X0318607Y0028076D01*
X0318440Y0028243D01*
X0318003Y0028243D02*
X0317836Y0028076D01*
X0317502Y0028076D01*
X0317335Y0028243D01*
X0316898Y0028076D02*
X0316564Y0028410D01*
X0316731Y0028410D02*
X0316230Y0028410D01*
X0316230Y0028076D02*
X0316230Y0029077D01*
X0316731Y0029077D01*
X0316898Y0028910D01*
X0316898Y0028577D01*
X0316731Y0028410D01*
X0317669Y0028577D02*
X0317836Y0028577D01*
X0318003Y0028410D01*
X0318003Y0028243D01*
X0317836Y0028577D02*
X0318003Y0028744D01*
X0318003Y0028910D01*
X0317836Y0029077D01*
X0317502Y0029077D01*
X0317335Y0028910D01*
X0318440Y0028910D02*
X0318607Y0029077D01*
X0318941Y0029077D01*
X0319108Y0028910D01*
X0318941Y0028577D02*
X0318774Y0028577D01*
X0313517Y0029542D02*
X0313350Y0029376D01*
X0313017Y0029376D01*
X0312850Y0029542D01*
X0312850Y0029709D01*
X0313017Y0029876D01*
X0313350Y0029876D01*
X0313517Y0029709D01*
X0313517Y0029542D01*
X0313350Y0029876D02*
X0313517Y0030043D01*
X0313517Y0030210D01*
X0313350Y0030376D01*
X0313017Y0030376D01*
X0312850Y0030210D01*
X0312850Y0030043D01*
X0313017Y0029876D01*
X0312412Y0030043D02*
X0312412Y0030210D01*
X0312245Y0030376D01*
X0311912Y0030376D01*
X0311745Y0030210D01*
X0311307Y0030210D02*
X0311307Y0029876D01*
X0311140Y0029709D01*
X0310640Y0029709D01*
X0310640Y0029376D02*
X0310640Y0030376D01*
X0311140Y0030376D01*
X0311307Y0030210D01*
X0310973Y0029709D02*
X0311307Y0029376D01*
X0311745Y0029376D02*
X0312412Y0030043D01*
X0312412Y0029376D02*
X0311745Y0029376D01*
X0288596Y0028910D02*
X0287928Y0028243D01*
X0288095Y0028076D01*
X0288429Y0028076D01*
X0288596Y0028243D01*
X0288596Y0028910D01*
X0288429Y0029077D01*
X0288095Y0029077D01*
X0287928Y0028910D01*
X0287928Y0028243D01*
X0287491Y0028243D02*
X0287324Y0028076D01*
X0286990Y0028076D01*
X0286824Y0028243D01*
X0286386Y0028076D02*
X0286052Y0028410D01*
X0286219Y0028410D02*
X0285719Y0028410D01*
X0285719Y0028076D02*
X0285719Y0029077D01*
X0286219Y0029077D01*
X0286386Y0028910D01*
X0286386Y0028577D01*
X0286219Y0028410D01*
X0287157Y0028577D02*
X0287324Y0028577D01*
X0287491Y0028410D01*
X0287491Y0028243D01*
X0287324Y0028577D02*
X0287491Y0028744D01*
X0287491Y0028910D01*
X0287324Y0029077D01*
X0286990Y0029077D01*
X0286824Y0028910D01*
X0283005Y0029542D02*
X0282838Y0029376D01*
X0282505Y0029376D01*
X0282338Y0029542D01*
X0282338Y0029876D02*
X0282672Y0030043D01*
X0282838Y0030043D01*
X0283005Y0029876D01*
X0283005Y0029542D01*
X0282338Y0029876D02*
X0282338Y0030376D01*
X0283005Y0030376D01*
X0281900Y0030210D02*
X0281733Y0030376D01*
X0281400Y0030376D01*
X0281233Y0030210D01*
X0280795Y0030210D02*
X0280795Y0029876D01*
X0280628Y0029709D01*
X0280128Y0029709D01*
X0280128Y0029376D02*
X0280128Y0030376D01*
X0280628Y0030376D01*
X0280795Y0030210D01*
X0280462Y0029709D02*
X0280795Y0029376D01*
X0281233Y0029376D02*
X0281900Y0030043D01*
X0281900Y0030210D01*
X0281900Y0029376D02*
X0281233Y0029376D01*
X0258084Y0029077D02*
X0258084Y0028910D01*
X0257417Y0028243D01*
X0257417Y0028076D01*
X0256979Y0028076D02*
X0256312Y0028076D01*
X0256979Y0028744D01*
X0256979Y0028910D01*
X0256812Y0029077D01*
X0256479Y0029077D01*
X0256312Y0028910D01*
X0255874Y0028910D02*
X0255874Y0028577D01*
X0255707Y0028410D01*
X0255207Y0028410D01*
X0255540Y0028410D02*
X0255874Y0028076D01*
X0255207Y0028076D02*
X0255207Y0029077D01*
X0255707Y0029077D01*
X0255874Y0028910D01*
X0257417Y0029077D02*
X0258084Y0029077D01*
X0252493Y0029376D02*
X0251826Y0029376D01*
X0252493Y0030043D01*
X0252493Y0030210D01*
X0252327Y0030376D01*
X0251993Y0030376D01*
X0251826Y0030210D01*
X0251388Y0030210D02*
X0251222Y0030376D01*
X0250888Y0030376D01*
X0250721Y0030210D01*
X0250283Y0030210D02*
X0250283Y0029876D01*
X0250117Y0029709D01*
X0249616Y0029709D01*
X0249616Y0029376D02*
X0249616Y0030376D01*
X0250117Y0030376D01*
X0250283Y0030210D01*
X0249950Y0029709D02*
X0250283Y0029376D01*
X0250721Y0029376D02*
X0251388Y0030043D01*
X0251388Y0030210D01*
X0251388Y0029376D02*
X0250721Y0029376D01*
X0227572Y0028577D02*
X0226905Y0028577D01*
X0227405Y0029077D01*
X0227405Y0028076D01*
X0226467Y0028076D02*
X0225800Y0028076D01*
X0226467Y0028744D01*
X0226467Y0028910D01*
X0226300Y0029077D01*
X0225967Y0029077D01*
X0225800Y0028910D01*
X0225362Y0028910D02*
X0225362Y0028577D01*
X0225195Y0028410D01*
X0224695Y0028410D01*
X0225029Y0028410D02*
X0225362Y0028076D01*
X0224695Y0028076D02*
X0224695Y0029077D01*
X0225195Y0029077D01*
X0225362Y0028910D01*
X0221982Y0029542D02*
X0221982Y0030210D01*
X0221815Y0030376D01*
X0221481Y0030376D01*
X0221314Y0030210D01*
X0221314Y0030043D01*
X0221481Y0029876D01*
X0221982Y0029876D01*
X0221982Y0029542D02*
X0221815Y0029376D01*
X0221481Y0029376D01*
X0221314Y0029542D01*
X0220877Y0029376D02*
X0220209Y0029376D01*
X0220543Y0029376D02*
X0220543Y0030376D01*
X0220209Y0030043D01*
X0219772Y0030210D02*
X0219772Y0029876D01*
X0219605Y0029709D01*
X0219104Y0029709D01*
X0219104Y0029376D02*
X0219104Y0030376D01*
X0219605Y0030376D01*
X0219772Y0030210D01*
X0219438Y0029709D02*
X0219772Y0029376D01*
X0197060Y0028076D02*
X0196393Y0028076D01*
X0196727Y0028076D02*
X0196727Y0029077D01*
X0196393Y0028744D01*
X0195955Y0028744D02*
X0195955Y0028910D01*
X0195789Y0029077D01*
X0195455Y0029077D01*
X0195288Y0028910D01*
X0194850Y0028910D02*
X0194850Y0028577D01*
X0194684Y0028410D01*
X0194183Y0028410D01*
X0194183Y0028076D02*
X0194183Y0029077D01*
X0194684Y0029077D01*
X0194850Y0028910D01*
X0195288Y0028076D02*
X0195955Y0028744D01*
X0195955Y0028076D02*
X0195288Y0028076D01*
X0194850Y0028076D02*
X0194517Y0028410D01*
X0191470Y0029542D02*
X0191470Y0029709D01*
X0191303Y0029876D01*
X0190802Y0029876D01*
X0190802Y0029542D01*
X0190969Y0029376D01*
X0191303Y0029376D01*
X0191470Y0029542D01*
X0191136Y0030210D02*
X0190802Y0029876D01*
X0191136Y0030210D02*
X0191470Y0030376D01*
X0190031Y0030376D02*
X0190031Y0029376D01*
X0189698Y0029376D02*
X0190365Y0029376D01*
X0189698Y0030043D02*
X0190031Y0030376D01*
X0189260Y0030210D02*
X0189260Y0029876D01*
X0189093Y0029709D01*
X0188593Y0029709D01*
X0188926Y0029709D02*
X0189260Y0029376D01*
X0188593Y0029376D02*
X0188593Y0030376D01*
X0189093Y0030376D01*
X0189260Y0030210D01*
X0166548Y0028910D02*
X0166548Y0028744D01*
X0166382Y0028577D01*
X0166048Y0028577D01*
X0165881Y0028744D01*
X0165881Y0028910D01*
X0166048Y0029077D01*
X0166382Y0029077D01*
X0166548Y0028910D01*
X0166382Y0028577D02*
X0166548Y0028410D01*
X0166548Y0028243D01*
X0166382Y0028076D01*
X0166048Y0028076D01*
X0165881Y0028243D01*
X0165881Y0028410D01*
X0166048Y0028577D01*
X0165444Y0028076D02*
X0164776Y0028076D01*
X0165110Y0028076D02*
X0165110Y0029077D01*
X0164776Y0028744D01*
X0164339Y0028910D02*
X0164339Y0028577D01*
X0164172Y0028410D01*
X0163671Y0028410D01*
X0163671Y0028076D02*
X0163671Y0029077D01*
X0164172Y0029077D01*
X0164339Y0028910D01*
X0160958Y0029542D02*
X0160791Y0029376D01*
X0160457Y0029376D01*
X0160291Y0029542D01*
X0159853Y0029376D02*
X0159186Y0029376D01*
X0159519Y0029376D02*
X0159519Y0030376D01*
X0159186Y0030043D01*
X0158748Y0030210D02*
X0158748Y0029876D01*
X0158581Y0029709D01*
X0158081Y0029709D01*
X0158081Y0029376D02*
X0158081Y0030376D01*
X0158581Y0030376D01*
X0158748Y0030210D01*
X0158414Y0029709D02*
X0158748Y0029376D01*
X0160624Y0029876D02*
X0160791Y0029876D01*
X0160958Y0029709D01*
X0160958Y0029542D01*
X0160791Y0029876D02*
X0160958Y0030043D01*
X0160958Y0030210D01*
X0160791Y0030376D01*
X0160457Y0030376D01*
X0160291Y0030210D01*
X0136037Y0029077D02*
X0135369Y0029077D01*
X0135369Y0028577D01*
X0135703Y0028744D01*
X0135870Y0028744D01*
X0136037Y0028577D01*
X0136037Y0028243D01*
X0135870Y0028076D01*
X0135536Y0028076D01*
X0135369Y0028243D01*
X0134932Y0028076D02*
X0134264Y0028076D01*
X0134598Y0028076D02*
X0134598Y0029077D01*
X0134264Y0028744D01*
X0133827Y0028910D02*
X0133827Y0028577D01*
X0133660Y0028410D01*
X0133160Y0028410D01*
X0133493Y0028410D02*
X0133827Y0028076D01*
X0133160Y0028076D02*
X0133160Y0029077D01*
X0133660Y0029077D01*
X0133827Y0028910D01*
X0130446Y0029542D02*
X0130279Y0029376D01*
X0129946Y0029376D01*
X0129779Y0029542D01*
X0130446Y0030210D01*
X0130446Y0029542D01*
X0129779Y0029542D02*
X0129779Y0030210D01*
X0129946Y0030376D01*
X0130279Y0030376D01*
X0130446Y0030210D01*
X0129008Y0030376D02*
X0129008Y0029376D01*
X0129341Y0029376D02*
X0128674Y0029376D01*
X0128236Y0029376D02*
X0127903Y0029709D01*
X0128069Y0029709D02*
X0127569Y0029709D01*
X0127569Y0029376D02*
X0127569Y0030376D01*
X0128069Y0030376D01*
X0128236Y0030210D01*
X0128236Y0029876D01*
X0128069Y0029709D01*
X0128674Y0030043D02*
X0129008Y0030376D01*
X0105525Y0028910D02*
X0105358Y0029077D01*
X0105024Y0029077D01*
X0104858Y0028910D01*
X0105525Y0028910D02*
X0105525Y0028744D01*
X0104858Y0028076D01*
X0105525Y0028076D01*
X0104420Y0028076D02*
X0103753Y0028076D01*
X0104086Y0028076D02*
X0104086Y0029077D01*
X0103753Y0028744D01*
X0103315Y0028910D02*
X0103315Y0028577D01*
X0103148Y0028410D01*
X0102648Y0028410D01*
X0102981Y0028410D02*
X0103315Y0028076D01*
X0102648Y0028076D02*
X0102648Y0029077D01*
X0103148Y0029077D01*
X0103315Y0028910D01*
X0098829Y0030210D02*
X0098162Y0029542D01*
X0098162Y0029376D01*
X0097724Y0029376D02*
X0097391Y0029709D01*
X0097558Y0029709D02*
X0097057Y0029709D01*
X0097057Y0029376D02*
X0097057Y0030376D01*
X0097558Y0030376D01*
X0097724Y0030210D01*
X0097724Y0029876D01*
X0097558Y0029709D01*
X0098162Y0030376D02*
X0098829Y0030376D01*
X0098829Y0030210D01*
X0073908Y0028910D02*
X0073741Y0029077D01*
X0073408Y0029077D01*
X0073241Y0028910D01*
X0073241Y0028744D01*
X0073408Y0028577D01*
X0073908Y0028577D01*
X0073908Y0028910D02*
X0073908Y0028243D01*
X0073741Y0028076D01*
X0073408Y0028076D01*
X0073241Y0028243D01*
X0072803Y0028076D02*
X0072470Y0028410D01*
X0072636Y0028410D02*
X0072136Y0028410D01*
X0072136Y0028076D02*
X0072136Y0029077D01*
X0072636Y0029077D01*
X0072803Y0028910D01*
X0072803Y0028577D01*
X0072636Y0028410D01*
X0068318Y0029376D02*
X0067650Y0029376D01*
X0067984Y0029376D02*
X0067984Y0030376D01*
X0067650Y0030043D01*
X0067213Y0030210D02*
X0067213Y0029876D01*
X0067046Y0029709D01*
X0066545Y0029709D01*
X0066545Y0029376D02*
X0066545Y0030376D01*
X0067046Y0030376D01*
X0067213Y0030210D01*
X0066879Y0029709D02*
X0067213Y0029376D01*
X0043396Y0028910D02*
X0043396Y0028744D01*
X0043229Y0028577D01*
X0043396Y0028410D01*
X0043396Y0028243D01*
X0043229Y0028076D01*
X0042896Y0028076D01*
X0042729Y0028243D01*
X0042291Y0028076D02*
X0041958Y0028410D01*
X0042125Y0028410D02*
X0041624Y0028410D01*
X0041624Y0028076D02*
X0041624Y0029077D01*
X0042125Y0029077D01*
X0042291Y0028910D01*
X0042291Y0028577D01*
X0042125Y0028410D01*
X0043063Y0028577D02*
X0043229Y0028577D01*
X0043396Y0028910D02*
X0043229Y0029077D01*
X0042896Y0029077D01*
X0042729Y0028910D01*
X0037639Y0029376D02*
X0037639Y0030376D01*
X0037139Y0029876D01*
X0037806Y0029876D01*
X0036701Y0029876D02*
X0036534Y0029709D01*
X0036034Y0029709D01*
X0036367Y0029709D02*
X0036701Y0029376D01*
X0036701Y0029876D02*
X0036701Y0030210D01*
X0036534Y0030376D01*
X0036034Y0030376D01*
X0036034Y0029376D01*
X0012884Y0029077D02*
X0012551Y0028910D01*
X0012217Y0028577D01*
X0012718Y0028577D01*
X0012884Y0028410D01*
X0012884Y0028243D01*
X0012718Y0028076D01*
X0012384Y0028076D01*
X0012217Y0028243D01*
X0012217Y0028577D01*
X0011780Y0028577D02*
X0011613Y0028410D01*
X0011112Y0028410D01*
X0011112Y0028076D02*
X0011112Y0029077D01*
X0011613Y0029077D01*
X0011780Y0028910D01*
X0011780Y0028577D01*
X0011446Y0028410D02*
X0011780Y0028076D01*
X0011849Y0026577D02*
X0011515Y0026577D01*
X0011349Y0026410D01*
X0011349Y0025743D01*
X0011515Y0025576D01*
X0011849Y0025576D01*
X0012016Y0025743D01*
X0012453Y0025576D02*
X0013121Y0026244D01*
X0013121Y0026410D01*
X0012954Y0026577D01*
X0012620Y0026577D01*
X0012453Y0026410D01*
X0012016Y0026410D02*
X0011849Y0026577D01*
X0012453Y0025576D02*
X0013121Y0025576D01*
X0041860Y0025743D02*
X0042027Y0025576D01*
X0042361Y0025576D01*
X0042528Y0025743D01*
X0042965Y0025576D02*
X0043633Y0025576D01*
X0043299Y0025576D02*
X0043299Y0026577D01*
X0042965Y0026244D01*
X0042528Y0026410D02*
X0042361Y0026577D01*
X0042027Y0026577D01*
X0041860Y0026410D01*
X0041860Y0025743D01*
X0072372Y0025743D02*
X0072539Y0025576D01*
X0072873Y0025576D01*
X0073039Y0025743D01*
X0073477Y0025743D02*
X0073644Y0025576D01*
X0073978Y0025576D01*
X0074144Y0025743D01*
X0074144Y0025910D01*
X0073978Y0026077D01*
X0073811Y0026077D01*
X0073978Y0026077D02*
X0074144Y0026244D01*
X0074144Y0026410D01*
X0073978Y0026577D01*
X0073644Y0026577D01*
X0073477Y0026410D01*
X0073039Y0026410D02*
X0072873Y0026577D01*
X0072539Y0026577D01*
X0072372Y0026410D01*
X0072372Y0025743D01*
X0102884Y0025743D02*
X0103051Y0025576D01*
X0103384Y0025576D01*
X0103551Y0025743D01*
X0103989Y0026077D02*
X0104656Y0026077D01*
X0104489Y0026577D02*
X0103989Y0026077D01*
X0103551Y0026410D02*
X0103384Y0026577D01*
X0103051Y0026577D01*
X0102884Y0026410D01*
X0102884Y0025743D01*
X0104489Y0025576D02*
X0104489Y0026577D01*
X0133396Y0026410D02*
X0133396Y0025743D01*
X0133563Y0025576D01*
X0133896Y0025576D01*
X0134063Y0025743D01*
X0134501Y0025743D02*
X0134668Y0025576D01*
X0135001Y0025576D01*
X0135168Y0025743D01*
X0135168Y0026077D01*
X0135001Y0026244D01*
X0134834Y0026244D01*
X0134501Y0026077D01*
X0134501Y0026577D01*
X0135168Y0026577D01*
X0134063Y0026410D02*
X0133896Y0026577D01*
X0133563Y0026577D01*
X0133396Y0026410D01*
X0163908Y0026410D02*
X0163908Y0025743D01*
X0164074Y0025576D01*
X0164408Y0025576D01*
X0164575Y0025743D01*
X0165013Y0025743D02*
X0165179Y0025576D01*
X0165513Y0025576D01*
X0165680Y0025743D01*
X0165680Y0025910D01*
X0165513Y0026077D01*
X0165013Y0026077D01*
X0165013Y0025743D01*
X0165013Y0026077D02*
X0165346Y0026410D01*
X0165680Y0026577D01*
X0164575Y0026410D02*
X0164408Y0026577D01*
X0164074Y0026577D01*
X0163908Y0026410D01*
X0194419Y0026410D02*
X0194419Y0025743D01*
X0194586Y0025576D01*
X0194920Y0025576D01*
X0195087Y0025743D01*
X0195524Y0025743D02*
X0195524Y0025576D01*
X0195524Y0025743D02*
X0196192Y0026410D01*
X0196192Y0026577D01*
X0195524Y0026577D01*
X0195087Y0026410D02*
X0194920Y0026577D01*
X0194586Y0026577D01*
X0194419Y0026410D01*
X0224931Y0026410D02*
X0224931Y0025743D01*
X0225098Y0025576D01*
X0225432Y0025576D01*
X0225598Y0025743D01*
X0226036Y0025743D02*
X0226036Y0025910D01*
X0226203Y0026077D01*
X0226537Y0026077D01*
X0226703Y0025910D01*
X0226703Y0025743D01*
X0226537Y0025576D01*
X0226203Y0025576D01*
X0226036Y0025743D01*
X0226203Y0026077D02*
X0226036Y0026244D01*
X0226036Y0026410D01*
X0226203Y0026577D01*
X0226537Y0026577D01*
X0226703Y0026410D01*
X0226703Y0026244D01*
X0226537Y0026077D01*
X0225598Y0026410D02*
X0225432Y0026577D01*
X0225098Y0026577D01*
X0224931Y0026410D01*
X0255443Y0026410D02*
X0255443Y0025743D01*
X0255610Y0025576D01*
X0255943Y0025576D01*
X0256110Y0025743D01*
X0256548Y0025743D02*
X0256715Y0025576D01*
X0257048Y0025576D01*
X0257215Y0025743D01*
X0257215Y0026410D01*
X0257048Y0026577D01*
X0256715Y0026577D01*
X0256548Y0026410D01*
X0256548Y0026244D01*
X0256715Y0026077D01*
X0257215Y0026077D01*
X0256110Y0026410D02*
X0255943Y0026577D01*
X0255610Y0026577D01*
X0255443Y0026410D01*
X0285955Y0026410D02*
X0285955Y0025743D01*
X0286122Y0025576D01*
X0286455Y0025576D01*
X0286622Y0025743D01*
X0287060Y0025576D02*
X0287727Y0025576D01*
X0287393Y0025576D02*
X0287393Y0026577D01*
X0287060Y0026244D01*
X0286622Y0026410D02*
X0286455Y0026577D01*
X0286122Y0026577D01*
X0285955Y0026410D01*
X0288165Y0026410D02*
X0288165Y0025743D01*
X0288832Y0026410D01*
X0288832Y0025743D01*
X0288665Y0025576D01*
X0288332Y0025576D01*
X0288165Y0025743D01*
X0288165Y0026410D02*
X0288332Y0026577D01*
X0288665Y0026577D01*
X0288832Y0026410D01*
X0316467Y0026410D02*
X0316467Y0025743D01*
X0316633Y0025576D01*
X0316967Y0025576D01*
X0317134Y0025743D01*
X0317572Y0025576D02*
X0318239Y0025576D01*
X0317905Y0025576D02*
X0317905Y0026577D01*
X0317572Y0026244D01*
X0317134Y0026410D02*
X0316967Y0026577D01*
X0316633Y0026577D01*
X0316467Y0026410D01*
X0318677Y0026244D02*
X0319010Y0026577D01*
X0319010Y0025576D01*
X0318677Y0025576D02*
X0319344Y0025576D01*
X0346978Y0025743D02*
X0347145Y0025576D01*
X0347479Y0025576D01*
X0347646Y0025743D01*
X0348083Y0025576D02*
X0348751Y0025576D01*
X0348417Y0025576D02*
X0348417Y0026577D01*
X0348083Y0026244D01*
X0347646Y0026410D02*
X0347479Y0026577D01*
X0347145Y0026577D01*
X0346978Y0026410D01*
X0346978Y0025743D01*
X0349188Y0025576D02*
X0349856Y0026244D01*
X0349856Y0026410D01*
X0349689Y0026577D01*
X0349355Y0026577D01*
X0349188Y0026410D01*
X0349188Y0025576D02*
X0349856Y0025576D01*
X0377490Y0025743D02*
X0377657Y0025576D01*
X0377991Y0025576D01*
X0378158Y0025743D01*
X0378595Y0025576D02*
X0379262Y0025576D01*
X0378929Y0025576D02*
X0378929Y0026577D01*
X0378595Y0026244D01*
X0378158Y0026410D02*
X0377991Y0026577D01*
X0377657Y0026577D01*
X0377490Y0026410D01*
X0377490Y0025743D01*
X0379700Y0025743D02*
X0379867Y0025576D01*
X0380201Y0025576D01*
X0380367Y0025743D01*
X0380367Y0025910D01*
X0380201Y0026077D01*
X0380034Y0026077D01*
X0380201Y0026077D02*
X0380367Y0026244D01*
X0380367Y0026410D01*
X0380201Y0026577D01*
X0379867Y0026577D01*
X0379700Y0026410D01*
X0408002Y0026410D02*
X0408002Y0025743D01*
X0408169Y0025576D01*
X0408502Y0025576D01*
X0408669Y0025743D01*
X0409107Y0025576D02*
X0409774Y0025576D01*
X0409441Y0025576D02*
X0409441Y0026577D01*
X0409107Y0026244D01*
X0408669Y0026410D02*
X0408502Y0026577D01*
X0408169Y0026577D01*
X0408002Y0026410D01*
X0410212Y0026077D02*
X0410879Y0026077D01*
X0410712Y0026577D02*
X0410212Y0026077D01*
X0410712Y0025576D02*
X0410712Y0026577D01*
X0438514Y0026410D02*
X0438514Y0025743D01*
X0438681Y0025576D01*
X0439014Y0025576D01*
X0439181Y0025743D01*
X0439619Y0025576D02*
X0440286Y0025576D01*
X0439952Y0025576D02*
X0439952Y0026577D01*
X0439619Y0026244D01*
X0439181Y0026410D02*
X0439014Y0026577D01*
X0438681Y0026577D01*
X0438514Y0026410D01*
X0440724Y0026577D02*
X0440724Y0026077D01*
X0441057Y0026244D01*
X0441224Y0026244D01*
X0441391Y0026077D01*
X0441391Y0025743D01*
X0441224Y0025576D01*
X0440891Y0025576D01*
X0440724Y0025743D01*
X0440724Y0026577D02*
X0441391Y0026577D01*
X0469026Y0026410D02*
X0469026Y0025743D01*
X0469193Y0025576D01*
X0469526Y0025576D01*
X0469693Y0025743D01*
X0470131Y0025576D02*
X0470798Y0025576D01*
X0470464Y0025576D02*
X0470464Y0026577D01*
X0470131Y0026244D01*
X0469693Y0026410D02*
X0469526Y0026577D01*
X0469193Y0026577D01*
X0469026Y0026410D01*
X0471236Y0026077D02*
X0471736Y0026077D01*
X0471903Y0025910D01*
X0471903Y0025743D01*
X0471736Y0025576D01*
X0471402Y0025576D01*
X0471236Y0025743D01*
X0471236Y0026077D01*
X0471569Y0026410D01*
X0471903Y0026577D01*
X0530147Y0028410D02*
X0530480Y0028076D01*
X0410643Y0028076D02*
X0409976Y0028076D01*
X0164339Y0028076D02*
X0164005Y0028410D01*
X0013424Y0011128D02*
X0013424Y0010461D01*
X0013424Y0010794D02*
X0012423Y0010794D01*
X0012757Y0010461D01*
X0012423Y0010023D02*
X0013257Y0010023D01*
X0013424Y0009856D01*
X0013424Y0009523D01*
X0013257Y0009356D01*
X0012423Y0009356D01*
X0715094Y0028076D02*
X0715761Y0028076D01*
X0981900Y0029376D02*
X0981900Y0030376D01*
X0982400Y0030376D01*
X0982567Y0030210D01*
X0982567Y0029876D01*
X0982400Y0029709D01*
X0981900Y0029709D01*
X0982233Y0029709D02*
X0982567Y0029376D01*
X0983005Y0029542D02*
X0983171Y0029376D01*
X0983505Y0029376D01*
X0983672Y0029542D01*
X0983672Y0030210D01*
X0983505Y0030376D01*
X0983171Y0030376D01*
X0983005Y0030210D01*
X0983005Y0030043D01*
X0983171Y0029876D01*
X0983672Y0029876D01*
X0984110Y0029876D02*
X0984777Y0029876D01*
X0984610Y0029376D02*
X0984610Y0030376D01*
X0984110Y0029876D01*
D12*
X0979339Y0024236D02*
X0960441Y0024236D01*
X0960441Y0011244D01*
X0979339Y0011244D01*
X0979339Y0009276D01*
X0960441Y0009276D01*
X0960441Y0011244D01*
X0948827Y0011244D02*
X0929930Y0011244D01*
X0929930Y0024236D01*
X0948827Y0024236D01*
X0948827Y0011244D01*
X0948827Y0009276D01*
X0929930Y0009276D01*
X0929930Y0011244D01*
X0918315Y0011244D02*
X0899418Y0011244D01*
X0899418Y0024236D01*
X0918315Y0024236D01*
X0918315Y0011244D01*
X0918315Y0009276D01*
X0899418Y0009276D01*
X0899418Y0011244D01*
X0887804Y0011244D02*
X0868906Y0011244D01*
X0868906Y0024236D01*
X0887804Y0024236D01*
X0887804Y0011244D01*
X0887804Y0009276D01*
X0868906Y0009276D01*
X0868906Y0011244D01*
X0857292Y0011244D02*
X0838394Y0011244D01*
X0838394Y0024236D01*
X0857292Y0024236D01*
X0857292Y0011244D01*
X0857292Y0009276D01*
X0838394Y0009276D01*
X0838394Y0011244D01*
X0826780Y0011244D02*
X0807882Y0011244D01*
X0807882Y0024236D01*
X0826780Y0024236D01*
X0826780Y0011244D01*
X0826780Y0009276D01*
X0807882Y0009276D01*
X0807882Y0011244D01*
X0796268Y0011244D02*
X0777371Y0011244D01*
X0777371Y0024236D01*
X0796268Y0024236D01*
X0796268Y0011244D01*
X0796268Y0009276D01*
X0777371Y0009276D01*
X0777371Y0011244D01*
X0765756Y0011244D02*
X0746859Y0011244D01*
X0746859Y0024236D01*
X0765756Y0024236D01*
X0765756Y0011244D01*
X0765756Y0009276D01*
X0746859Y0009276D01*
X0746859Y0011244D01*
X0735245Y0011244D02*
X0716347Y0011244D01*
X0716347Y0024236D01*
X0735245Y0024236D01*
X0735245Y0011244D01*
X0735245Y0009276D01*
X0716347Y0009276D01*
X0716347Y0011244D01*
X0704733Y0011244D02*
X0685835Y0011244D01*
X0685835Y0024236D01*
X0704733Y0024236D01*
X0704733Y0011244D01*
X0704733Y0009276D01*
X0685835Y0009276D01*
X0685835Y0011244D01*
X0674221Y0011244D02*
X0655323Y0011244D01*
X0655323Y0024236D01*
X0674221Y0024236D01*
X0674221Y0011244D01*
X0674221Y0009276D01*
X0655323Y0009276D01*
X0655323Y0011244D01*
X0643709Y0011244D02*
X0624812Y0011244D01*
X0624812Y0024236D01*
X0643709Y0024236D01*
X0643709Y0011244D01*
X0643709Y0009276D01*
X0624812Y0009276D01*
X0624812Y0011244D01*
X0613197Y0011244D02*
X0594300Y0011244D01*
X0594300Y0024236D01*
X0613197Y0024236D01*
X0613197Y0011244D01*
X0613197Y0009276D01*
X0594300Y0009276D01*
X0594300Y0011244D01*
X0582686Y0011244D02*
X0563788Y0011244D01*
X0563788Y0024236D01*
X0582686Y0024236D01*
X0582686Y0011244D01*
X0582686Y0009276D01*
X0563788Y0009276D01*
X0563788Y0011244D01*
X0552174Y0011244D02*
X0533276Y0011244D01*
X0533276Y0024236D01*
X0552174Y0024236D01*
X0552174Y0011244D01*
X0552174Y0009276D01*
X0533276Y0009276D01*
X0533276Y0011244D01*
X0521662Y0011244D02*
X0502764Y0011244D01*
X0502764Y0024236D01*
X0521662Y0024236D01*
X0521662Y0011244D01*
X0521662Y0009276D01*
X0502764Y0009276D01*
X0502764Y0011244D01*
X0491150Y0011244D02*
X0472252Y0011244D01*
X0472252Y0024236D01*
X0491150Y0024236D01*
X0491150Y0011244D01*
X0491150Y0009276D01*
X0472252Y0009276D01*
X0472252Y0011244D01*
X0460638Y0011244D02*
X0441741Y0011244D01*
X0441741Y0024236D01*
X0460638Y0024236D01*
X0460638Y0011244D01*
X0460638Y0009276D01*
X0441741Y0009276D01*
X0441741Y0011244D01*
X0430126Y0011244D02*
X0411229Y0011244D01*
X0411229Y0024236D01*
X0430126Y0024236D01*
X0430126Y0011244D01*
X0430126Y0009276D01*
X0411229Y0009276D01*
X0411229Y0011244D01*
X0399615Y0011244D02*
X0380717Y0011244D01*
X0380717Y0024236D01*
X0399615Y0024236D01*
X0399615Y0011244D01*
X0399615Y0009276D01*
X0380717Y0009276D01*
X0380717Y0011244D01*
X0369103Y0011244D02*
X0350205Y0011244D01*
X0350205Y0024236D01*
X0369103Y0024236D01*
X0369103Y0011244D01*
X0369103Y0009276D01*
X0350205Y0009276D01*
X0350205Y0011244D01*
X0338591Y0011244D02*
X0319693Y0011244D01*
X0319693Y0024236D01*
X0338591Y0024236D01*
X0338591Y0011244D01*
X0338591Y0009276D01*
X0319693Y0009276D01*
X0319693Y0011244D01*
X0308079Y0011244D02*
X0289182Y0011244D01*
X0289182Y0024236D01*
X0308079Y0024236D01*
X0308079Y0011244D01*
X0308079Y0009276D01*
X0289182Y0009276D01*
X0289182Y0011244D01*
X0277567Y0011244D02*
X0258670Y0011244D01*
X0258670Y0024236D01*
X0277567Y0024236D01*
X0277567Y0011244D01*
X0277567Y0009276D01*
X0258670Y0009276D01*
X0258670Y0011244D01*
X0247056Y0011244D02*
X0228158Y0011244D01*
X0228158Y0024236D01*
X0247056Y0024236D01*
X0247056Y0011244D01*
X0247056Y0009276D01*
X0228158Y0009276D01*
X0228158Y0011244D01*
X0216544Y0011244D02*
X0197646Y0011244D01*
X0197646Y0024236D01*
X0216544Y0024236D01*
X0216544Y0011244D01*
X0216544Y0009276D01*
X0197646Y0009276D01*
X0197646Y0011244D01*
X0186032Y0011244D02*
X0167134Y0011244D01*
X0167134Y0024236D01*
X0186032Y0024236D01*
X0186032Y0011244D01*
X0186032Y0009276D01*
X0167134Y0009276D01*
X0167134Y0011244D01*
X0155520Y0011244D02*
X0136623Y0011244D01*
X0136623Y0024236D01*
X0155520Y0024236D01*
X0155520Y0011244D01*
X0155520Y0009276D01*
X0136623Y0009276D01*
X0136623Y0011244D01*
X0125008Y0011244D02*
X0106111Y0011244D01*
X0106111Y0024236D01*
X0125008Y0024236D01*
X0125008Y0011244D01*
X0125008Y0009276D01*
X0106111Y0009276D01*
X0106111Y0011244D01*
X0094497Y0011244D02*
X0075599Y0011244D01*
X0075599Y0024236D01*
X0094497Y0024236D01*
X0094497Y0011244D01*
X0094497Y0009276D01*
X0075599Y0009276D01*
X0075599Y0011244D01*
X0063985Y0011244D02*
X0045087Y0011244D01*
X0045087Y0024236D01*
X0063985Y0024236D01*
X0063985Y0011244D01*
X0063985Y0009276D01*
X0045087Y0009276D01*
X0045087Y0011244D01*
X0033473Y0011244D02*
X0014575Y0011244D01*
X0014575Y0024236D01*
X0033473Y0024236D01*
X0033473Y0011244D01*
X0033473Y0009276D01*
X0014575Y0009276D01*
X0014575Y0011244D01*
X0979339Y0011244D02*
X0979339Y0024236D01*
D13*
X0961690Y0013606D02*
X0961692Y0013673D01*
X0961698Y0013739D01*
X0961708Y0013805D01*
X0961722Y0013870D01*
X0961739Y0013934D01*
X0961761Y0013997D01*
X0961786Y0014059D01*
X0961815Y0014119D01*
X0961848Y0014177D01*
X0961884Y0014234D01*
X0961923Y0014287D01*
X0961965Y0014339D01*
X0962010Y0014388D01*
X0962059Y0014434D01*
X0962109Y0014477D01*
X0962163Y0014517D01*
X0962218Y0014554D01*
X0962276Y0014587D01*
X0962336Y0014617D01*
X0962397Y0014643D01*
X0962460Y0014665D01*
X0962524Y0014684D01*
X0962589Y0014699D01*
X0962654Y0014710D01*
X0962721Y0014717D01*
X0962787Y0014720D01*
X0962854Y0014719D01*
X0962920Y0014714D01*
X0962986Y0014705D01*
X0963052Y0014692D01*
X0963116Y0014675D01*
X0963180Y0014655D01*
X0963242Y0014630D01*
X0963302Y0014602D01*
X0963361Y0014571D01*
X0963418Y0014536D01*
X0963472Y0014497D01*
X0963524Y0014456D01*
X0963574Y0014411D01*
X0963621Y0014364D01*
X0963664Y0014314D01*
X0963705Y0014261D01*
X0963743Y0014206D01*
X0963777Y0014149D01*
X0963808Y0014089D01*
X0963835Y0014028D01*
X0963858Y0013966D01*
X0963878Y0013902D01*
X0963894Y0013838D01*
X0963906Y0013772D01*
X0963914Y0013706D01*
X0963918Y0013639D01*
X0963918Y0013573D01*
X0963914Y0013506D01*
X0963906Y0013440D01*
X0963894Y0013374D01*
X0963878Y0013310D01*
X0963858Y0013246D01*
X0963835Y0013184D01*
X0963808Y0013123D01*
X0963777Y0013063D01*
X0963743Y0013006D01*
X0963705Y0012951D01*
X0963664Y0012898D01*
X0963621Y0012848D01*
X0963574Y0012801D01*
X0963524Y0012756D01*
X0963472Y0012715D01*
X0963418Y0012676D01*
X0963361Y0012641D01*
X0963302Y0012610D01*
X0963242Y0012582D01*
X0963180Y0012557D01*
X0963116Y0012537D01*
X0963052Y0012520D01*
X0962986Y0012507D01*
X0962920Y0012498D01*
X0962854Y0012493D01*
X0962787Y0012492D01*
X0962721Y0012495D01*
X0962654Y0012502D01*
X0962589Y0012513D01*
X0962524Y0012528D01*
X0962460Y0012547D01*
X0962397Y0012569D01*
X0962336Y0012595D01*
X0962276Y0012625D01*
X0962218Y0012658D01*
X0962163Y0012695D01*
X0962109Y0012735D01*
X0962059Y0012778D01*
X0962010Y0012824D01*
X0961965Y0012873D01*
X0961923Y0012925D01*
X0961884Y0012978D01*
X0961848Y0013035D01*
X0961815Y0013093D01*
X0961786Y0013153D01*
X0961761Y0013215D01*
X0961739Y0013278D01*
X0961722Y0013342D01*
X0961708Y0013407D01*
X0961698Y0013473D01*
X0961692Y0013539D01*
X0961690Y0013606D01*
X0931178Y0013606D02*
X0931180Y0013673D01*
X0931186Y0013739D01*
X0931196Y0013805D01*
X0931210Y0013870D01*
X0931227Y0013934D01*
X0931249Y0013997D01*
X0931274Y0014059D01*
X0931303Y0014119D01*
X0931336Y0014177D01*
X0931372Y0014234D01*
X0931411Y0014287D01*
X0931453Y0014339D01*
X0931498Y0014388D01*
X0931547Y0014434D01*
X0931597Y0014477D01*
X0931651Y0014517D01*
X0931706Y0014554D01*
X0931764Y0014587D01*
X0931824Y0014617D01*
X0931885Y0014643D01*
X0931948Y0014665D01*
X0932012Y0014684D01*
X0932077Y0014699D01*
X0932142Y0014710D01*
X0932209Y0014717D01*
X0932275Y0014720D01*
X0932342Y0014719D01*
X0932408Y0014714D01*
X0932474Y0014705D01*
X0932540Y0014692D01*
X0932604Y0014675D01*
X0932668Y0014655D01*
X0932730Y0014630D01*
X0932790Y0014602D01*
X0932849Y0014571D01*
X0932906Y0014536D01*
X0932960Y0014497D01*
X0933012Y0014456D01*
X0933062Y0014411D01*
X0933109Y0014364D01*
X0933152Y0014314D01*
X0933193Y0014261D01*
X0933231Y0014206D01*
X0933265Y0014149D01*
X0933296Y0014089D01*
X0933323Y0014028D01*
X0933346Y0013966D01*
X0933366Y0013902D01*
X0933382Y0013838D01*
X0933394Y0013772D01*
X0933402Y0013706D01*
X0933406Y0013639D01*
X0933406Y0013573D01*
X0933402Y0013506D01*
X0933394Y0013440D01*
X0933382Y0013374D01*
X0933366Y0013310D01*
X0933346Y0013246D01*
X0933323Y0013184D01*
X0933296Y0013123D01*
X0933265Y0013063D01*
X0933231Y0013006D01*
X0933193Y0012951D01*
X0933152Y0012898D01*
X0933109Y0012848D01*
X0933062Y0012801D01*
X0933012Y0012756D01*
X0932960Y0012715D01*
X0932906Y0012676D01*
X0932849Y0012641D01*
X0932790Y0012610D01*
X0932730Y0012582D01*
X0932668Y0012557D01*
X0932604Y0012537D01*
X0932540Y0012520D01*
X0932474Y0012507D01*
X0932408Y0012498D01*
X0932342Y0012493D01*
X0932275Y0012492D01*
X0932209Y0012495D01*
X0932142Y0012502D01*
X0932077Y0012513D01*
X0932012Y0012528D01*
X0931948Y0012547D01*
X0931885Y0012569D01*
X0931824Y0012595D01*
X0931764Y0012625D01*
X0931706Y0012658D01*
X0931651Y0012695D01*
X0931597Y0012735D01*
X0931547Y0012778D01*
X0931498Y0012824D01*
X0931453Y0012873D01*
X0931411Y0012925D01*
X0931372Y0012978D01*
X0931336Y0013035D01*
X0931303Y0013093D01*
X0931274Y0013153D01*
X0931249Y0013215D01*
X0931227Y0013278D01*
X0931210Y0013342D01*
X0931196Y0013407D01*
X0931186Y0013473D01*
X0931180Y0013539D01*
X0931178Y0013606D01*
X0900666Y0013606D02*
X0900668Y0013673D01*
X0900674Y0013739D01*
X0900684Y0013805D01*
X0900698Y0013870D01*
X0900715Y0013934D01*
X0900737Y0013997D01*
X0900762Y0014059D01*
X0900791Y0014119D01*
X0900824Y0014177D01*
X0900860Y0014234D01*
X0900899Y0014287D01*
X0900941Y0014339D01*
X0900986Y0014388D01*
X0901035Y0014434D01*
X0901085Y0014477D01*
X0901139Y0014517D01*
X0901194Y0014554D01*
X0901252Y0014587D01*
X0901312Y0014617D01*
X0901373Y0014643D01*
X0901436Y0014665D01*
X0901500Y0014684D01*
X0901565Y0014699D01*
X0901630Y0014710D01*
X0901697Y0014717D01*
X0901763Y0014720D01*
X0901830Y0014719D01*
X0901896Y0014714D01*
X0901962Y0014705D01*
X0902028Y0014692D01*
X0902092Y0014675D01*
X0902156Y0014655D01*
X0902218Y0014630D01*
X0902278Y0014602D01*
X0902337Y0014571D01*
X0902394Y0014536D01*
X0902448Y0014497D01*
X0902500Y0014456D01*
X0902550Y0014411D01*
X0902597Y0014364D01*
X0902640Y0014314D01*
X0902681Y0014261D01*
X0902719Y0014206D01*
X0902753Y0014149D01*
X0902784Y0014089D01*
X0902811Y0014028D01*
X0902834Y0013966D01*
X0902854Y0013902D01*
X0902870Y0013838D01*
X0902882Y0013772D01*
X0902890Y0013706D01*
X0902894Y0013639D01*
X0902894Y0013573D01*
X0902890Y0013506D01*
X0902882Y0013440D01*
X0902870Y0013374D01*
X0902854Y0013310D01*
X0902834Y0013246D01*
X0902811Y0013184D01*
X0902784Y0013123D01*
X0902753Y0013063D01*
X0902719Y0013006D01*
X0902681Y0012951D01*
X0902640Y0012898D01*
X0902597Y0012848D01*
X0902550Y0012801D01*
X0902500Y0012756D01*
X0902448Y0012715D01*
X0902394Y0012676D01*
X0902337Y0012641D01*
X0902278Y0012610D01*
X0902218Y0012582D01*
X0902156Y0012557D01*
X0902092Y0012537D01*
X0902028Y0012520D01*
X0901962Y0012507D01*
X0901896Y0012498D01*
X0901830Y0012493D01*
X0901763Y0012492D01*
X0901697Y0012495D01*
X0901630Y0012502D01*
X0901565Y0012513D01*
X0901500Y0012528D01*
X0901436Y0012547D01*
X0901373Y0012569D01*
X0901312Y0012595D01*
X0901252Y0012625D01*
X0901194Y0012658D01*
X0901139Y0012695D01*
X0901085Y0012735D01*
X0901035Y0012778D01*
X0900986Y0012824D01*
X0900941Y0012873D01*
X0900899Y0012925D01*
X0900860Y0012978D01*
X0900824Y0013035D01*
X0900791Y0013093D01*
X0900762Y0013153D01*
X0900737Y0013215D01*
X0900715Y0013278D01*
X0900698Y0013342D01*
X0900684Y0013407D01*
X0900674Y0013473D01*
X0900668Y0013539D01*
X0900666Y0013606D01*
X0870154Y0013606D02*
X0870156Y0013673D01*
X0870162Y0013739D01*
X0870172Y0013805D01*
X0870186Y0013870D01*
X0870203Y0013934D01*
X0870225Y0013997D01*
X0870250Y0014059D01*
X0870279Y0014119D01*
X0870312Y0014177D01*
X0870348Y0014234D01*
X0870387Y0014287D01*
X0870429Y0014339D01*
X0870474Y0014388D01*
X0870523Y0014434D01*
X0870573Y0014477D01*
X0870627Y0014517D01*
X0870682Y0014554D01*
X0870740Y0014587D01*
X0870800Y0014617D01*
X0870861Y0014643D01*
X0870924Y0014665D01*
X0870988Y0014684D01*
X0871053Y0014699D01*
X0871118Y0014710D01*
X0871185Y0014717D01*
X0871251Y0014720D01*
X0871318Y0014719D01*
X0871384Y0014714D01*
X0871450Y0014705D01*
X0871516Y0014692D01*
X0871580Y0014675D01*
X0871644Y0014655D01*
X0871706Y0014630D01*
X0871766Y0014602D01*
X0871825Y0014571D01*
X0871882Y0014536D01*
X0871936Y0014497D01*
X0871988Y0014456D01*
X0872038Y0014411D01*
X0872085Y0014364D01*
X0872128Y0014314D01*
X0872169Y0014261D01*
X0872207Y0014206D01*
X0872241Y0014149D01*
X0872272Y0014089D01*
X0872299Y0014028D01*
X0872322Y0013966D01*
X0872342Y0013902D01*
X0872358Y0013838D01*
X0872370Y0013772D01*
X0872378Y0013706D01*
X0872382Y0013639D01*
X0872382Y0013573D01*
X0872378Y0013506D01*
X0872370Y0013440D01*
X0872358Y0013374D01*
X0872342Y0013310D01*
X0872322Y0013246D01*
X0872299Y0013184D01*
X0872272Y0013123D01*
X0872241Y0013063D01*
X0872207Y0013006D01*
X0872169Y0012951D01*
X0872128Y0012898D01*
X0872085Y0012848D01*
X0872038Y0012801D01*
X0871988Y0012756D01*
X0871936Y0012715D01*
X0871882Y0012676D01*
X0871825Y0012641D01*
X0871766Y0012610D01*
X0871706Y0012582D01*
X0871644Y0012557D01*
X0871580Y0012537D01*
X0871516Y0012520D01*
X0871450Y0012507D01*
X0871384Y0012498D01*
X0871318Y0012493D01*
X0871251Y0012492D01*
X0871185Y0012495D01*
X0871118Y0012502D01*
X0871053Y0012513D01*
X0870988Y0012528D01*
X0870924Y0012547D01*
X0870861Y0012569D01*
X0870800Y0012595D01*
X0870740Y0012625D01*
X0870682Y0012658D01*
X0870627Y0012695D01*
X0870573Y0012735D01*
X0870523Y0012778D01*
X0870474Y0012824D01*
X0870429Y0012873D01*
X0870387Y0012925D01*
X0870348Y0012978D01*
X0870312Y0013035D01*
X0870279Y0013093D01*
X0870250Y0013153D01*
X0870225Y0013215D01*
X0870203Y0013278D01*
X0870186Y0013342D01*
X0870172Y0013407D01*
X0870162Y0013473D01*
X0870156Y0013539D01*
X0870154Y0013606D01*
X0839642Y0013606D02*
X0839644Y0013673D01*
X0839650Y0013739D01*
X0839660Y0013805D01*
X0839674Y0013870D01*
X0839691Y0013934D01*
X0839713Y0013997D01*
X0839738Y0014059D01*
X0839767Y0014119D01*
X0839800Y0014177D01*
X0839836Y0014234D01*
X0839875Y0014287D01*
X0839917Y0014339D01*
X0839962Y0014388D01*
X0840011Y0014434D01*
X0840061Y0014477D01*
X0840115Y0014517D01*
X0840170Y0014554D01*
X0840228Y0014587D01*
X0840288Y0014617D01*
X0840349Y0014643D01*
X0840412Y0014665D01*
X0840476Y0014684D01*
X0840541Y0014699D01*
X0840606Y0014710D01*
X0840673Y0014717D01*
X0840739Y0014720D01*
X0840806Y0014719D01*
X0840872Y0014714D01*
X0840938Y0014705D01*
X0841004Y0014692D01*
X0841068Y0014675D01*
X0841132Y0014655D01*
X0841194Y0014630D01*
X0841254Y0014602D01*
X0841313Y0014571D01*
X0841370Y0014536D01*
X0841424Y0014497D01*
X0841476Y0014456D01*
X0841526Y0014411D01*
X0841573Y0014364D01*
X0841616Y0014314D01*
X0841657Y0014261D01*
X0841695Y0014206D01*
X0841729Y0014149D01*
X0841760Y0014089D01*
X0841787Y0014028D01*
X0841810Y0013966D01*
X0841830Y0013902D01*
X0841846Y0013838D01*
X0841858Y0013772D01*
X0841866Y0013706D01*
X0841870Y0013639D01*
X0841870Y0013573D01*
X0841866Y0013506D01*
X0841858Y0013440D01*
X0841846Y0013374D01*
X0841830Y0013310D01*
X0841810Y0013246D01*
X0841787Y0013184D01*
X0841760Y0013123D01*
X0841729Y0013063D01*
X0841695Y0013006D01*
X0841657Y0012951D01*
X0841616Y0012898D01*
X0841573Y0012848D01*
X0841526Y0012801D01*
X0841476Y0012756D01*
X0841424Y0012715D01*
X0841370Y0012676D01*
X0841313Y0012641D01*
X0841254Y0012610D01*
X0841194Y0012582D01*
X0841132Y0012557D01*
X0841068Y0012537D01*
X0841004Y0012520D01*
X0840938Y0012507D01*
X0840872Y0012498D01*
X0840806Y0012493D01*
X0840739Y0012492D01*
X0840673Y0012495D01*
X0840606Y0012502D01*
X0840541Y0012513D01*
X0840476Y0012528D01*
X0840412Y0012547D01*
X0840349Y0012569D01*
X0840288Y0012595D01*
X0840228Y0012625D01*
X0840170Y0012658D01*
X0840115Y0012695D01*
X0840061Y0012735D01*
X0840011Y0012778D01*
X0839962Y0012824D01*
X0839917Y0012873D01*
X0839875Y0012925D01*
X0839836Y0012978D01*
X0839800Y0013035D01*
X0839767Y0013093D01*
X0839738Y0013153D01*
X0839713Y0013215D01*
X0839691Y0013278D01*
X0839674Y0013342D01*
X0839660Y0013407D01*
X0839650Y0013473D01*
X0839644Y0013539D01*
X0839642Y0013606D01*
X0809131Y0013606D02*
X0809133Y0013673D01*
X0809139Y0013739D01*
X0809149Y0013805D01*
X0809163Y0013870D01*
X0809180Y0013934D01*
X0809202Y0013997D01*
X0809227Y0014059D01*
X0809256Y0014119D01*
X0809289Y0014177D01*
X0809325Y0014234D01*
X0809364Y0014287D01*
X0809406Y0014339D01*
X0809451Y0014388D01*
X0809500Y0014434D01*
X0809550Y0014477D01*
X0809604Y0014517D01*
X0809659Y0014554D01*
X0809717Y0014587D01*
X0809777Y0014617D01*
X0809838Y0014643D01*
X0809901Y0014665D01*
X0809965Y0014684D01*
X0810030Y0014699D01*
X0810095Y0014710D01*
X0810162Y0014717D01*
X0810228Y0014720D01*
X0810295Y0014719D01*
X0810361Y0014714D01*
X0810427Y0014705D01*
X0810493Y0014692D01*
X0810557Y0014675D01*
X0810621Y0014655D01*
X0810683Y0014630D01*
X0810743Y0014602D01*
X0810802Y0014571D01*
X0810859Y0014536D01*
X0810913Y0014497D01*
X0810965Y0014456D01*
X0811015Y0014411D01*
X0811062Y0014364D01*
X0811105Y0014314D01*
X0811146Y0014261D01*
X0811184Y0014206D01*
X0811218Y0014149D01*
X0811249Y0014089D01*
X0811276Y0014028D01*
X0811299Y0013966D01*
X0811319Y0013902D01*
X0811335Y0013838D01*
X0811347Y0013772D01*
X0811355Y0013706D01*
X0811359Y0013639D01*
X0811359Y0013573D01*
X0811355Y0013506D01*
X0811347Y0013440D01*
X0811335Y0013374D01*
X0811319Y0013310D01*
X0811299Y0013246D01*
X0811276Y0013184D01*
X0811249Y0013123D01*
X0811218Y0013063D01*
X0811184Y0013006D01*
X0811146Y0012951D01*
X0811105Y0012898D01*
X0811062Y0012848D01*
X0811015Y0012801D01*
X0810965Y0012756D01*
X0810913Y0012715D01*
X0810859Y0012676D01*
X0810802Y0012641D01*
X0810743Y0012610D01*
X0810683Y0012582D01*
X0810621Y0012557D01*
X0810557Y0012537D01*
X0810493Y0012520D01*
X0810427Y0012507D01*
X0810361Y0012498D01*
X0810295Y0012493D01*
X0810228Y0012492D01*
X0810162Y0012495D01*
X0810095Y0012502D01*
X0810030Y0012513D01*
X0809965Y0012528D01*
X0809901Y0012547D01*
X0809838Y0012569D01*
X0809777Y0012595D01*
X0809717Y0012625D01*
X0809659Y0012658D01*
X0809604Y0012695D01*
X0809550Y0012735D01*
X0809500Y0012778D01*
X0809451Y0012824D01*
X0809406Y0012873D01*
X0809364Y0012925D01*
X0809325Y0012978D01*
X0809289Y0013035D01*
X0809256Y0013093D01*
X0809227Y0013153D01*
X0809202Y0013215D01*
X0809180Y0013278D01*
X0809163Y0013342D01*
X0809149Y0013407D01*
X0809139Y0013473D01*
X0809133Y0013539D01*
X0809131Y0013606D01*
X0778619Y0013606D02*
X0778621Y0013673D01*
X0778627Y0013739D01*
X0778637Y0013805D01*
X0778651Y0013870D01*
X0778668Y0013934D01*
X0778690Y0013997D01*
X0778715Y0014059D01*
X0778744Y0014119D01*
X0778777Y0014177D01*
X0778813Y0014234D01*
X0778852Y0014287D01*
X0778894Y0014339D01*
X0778939Y0014388D01*
X0778988Y0014434D01*
X0779038Y0014477D01*
X0779092Y0014517D01*
X0779147Y0014554D01*
X0779205Y0014587D01*
X0779265Y0014617D01*
X0779326Y0014643D01*
X0779389Y0014665D01*
X0779453Y0014684D01*
X0779518Y0014699D01*
X0779583Y0014710D01*
X0779650Y0014717D01*
X0779716Y0014720D01*
X0779783Y0014719D01*
X0779849Y0014714D01*
X0779915Y0014705D01*
X0779981Y0014692D01*
X0780045Y0014675D01*
X0780109Y0014655D01*
X0780171Y0014630D01*
X0780231Y0014602D01*
X0780290Y0014571D01*
X0780347Y0014536D01*
X0780401Y0014497D01*
X0780453Y0014456D01*
X0780503Y0014411D01*
X0780550Y0014364D01*
X0780593Y0014314D01*
X0780634Y0014261D01*
X0780672Y0014206D01*
X0780706Y0014149D01*
X0780737Y0014089D01*
X0780764Y0014028D01*
X0780787Y0013966D01*
X0780807Y0013902D01*
X0780823Y0013838D01*
X0780835Y0013772D01*
X0780843Y0013706D01*
X0780847Y0013639D01*
X0780847Y0013573D01*
X0780843Y0013506D01*
X0780835Y0013440D01*
X0780823Y0013374D01*
X0780807Y0013310D01*
X0780787Y0013246D01*
X0780764Y0013184D01*
X0780737Y0013123D01*
X0780706Y0013063D01*
X0780672Y0013006D01*
X0780634Y0012951D01*
X0780593Y0012898D01*
X0780550Y0012848D01*
X0780503Y0012801D01*
X0780453Y0012756D01*
X0780401Y0012715D01*
X0780347Y0012676D01*
X0780290Y0012641D01*
X0780231Y0012610D01*
X0780171Y0012582D01*
X0780109Y0012557D01*
X0780045Y0012537D01*
X0779981Y0012520D01*
X0779915Y0012507D01*
X0779849Y0012498D01*
X0779783Y0012493D01*
X0779716Y0012492D01*
X0779650Y0012495D01*
X0779583Y0012502D01*
X0779518Y0012513D01*
X0779453Y0012528D01*
X0779389Y0012547D01*
X0779326Y0012569D01*
X0779265Y0012595D01*
X0779205Y0012625D01*
X0779147Y0012658D01*
X0779092Y0012695D01*
X0779038Y0012735D01*
X0778988Y0012778D01*
X0778939Y0012824D01*
X0778894Y0012873D01*
X0778852Y0012925D01*
X0778813Y0012978D01*
X0778777Y0013035D01*
X0778744Y0013093D01*
X0778715Y0013153D01*
X0778690Y0013215D01*
X0778668Y0013278D01*
X0778651Y0013342D01*
X0778637Y0013407D01*
X0778627Y0013473D01*
X0778621Y0013539D01*
X0778619Y0013606D01*
X0748107Y0013606D02*
X0748109Y0013673D01*
X0748115Y0013739D01*
X0748125Y0013805D01*
X0748139Y0013870D01*
X0748156Y0013934D01*
X0748178Y0013997D01*
X0748203Y0014059D01*
X0748232Y0014119D01*
X0748265Y0014177D01*
X0748301Y0014234D01*
X0748340Y0014287D01*
X0748382Y0014339D01*
X0748427Y0014388D01*
X0748476Y0014434D01*
X0748526Y0014477D01*
X0748580Y0014517D01*
X0748635Y0014554D01*
X0748693Y0014587D01*
X0748753Y0014617D01*
X0748814Y0014643D01*
X0748877Y0014665D01*
X0748941Y0014684D01*
X0749006Y0014699D01*
X0749071Y0014710D01*
X0749138Y0014717D01*
X0749204Y0014720D01*
X0749271Y0014719D01*
X0749337Y0014714D01*
X0749403Y0014705D01*
X0749469Y0014692D01*
X0749533Y0014675D01*
X0749597Y0014655D01*
X0749659Y0014630D01*
X0749719Y0014602D01*
X0749778Y0014571D01*
X0749835Y0014536D01*
X0749889Y0014497D01*
X0749941Y0014456D01*
X0749991Y0014411D01*
X0750038Y0014364D01*
X0750081Y0014314D01*
X0750122Y0014261D01*
X0750160Y0014206D01*
X0750194Y0014149D01*
X0750225Y0014089D01*
X0750252Y0014028D01*
X0750275Y0013966D01*
X0750295Y0013902D01*
X0750311Y0013838D01*
X0750323Y0013772D01*
X0750331Y0013706D01*
X0750335Y0013639D01*
X0750335Y0013573D01*
X0750331Y0013506D01*
X0750323Y0013440D01*
X0750311Y0013374D01*
X0750295Y0013310D01*
X0750275Y0013246D01*
X0750252Y0013184D01*
X0750225Y0013123D01*
X0750194Y0013063D01*
X0750160Y0013006D01*
X0750122Y0012951D01*
X0750081Y0012898D01*
X0750038Y0012848D01*
X0749991Y0012801D01*
X0749941Y0012756D01*
X0749889Y0012715D01*
X0749835Y0012676D01*
X0749778Y0012641D01*
X0749719Y0012610D01*
X0749659Y0012582D01*
X0749597Y0012557D01*
X0749533Y0012537D01*
X0749469Y0012520D01*
X0749403Y0012507D01*
X0749337Y0012498D01*
X0749271Y0012493D01*
X0749204Y0012492D01*
X0749138Y0012495D01*
X0749071Y0012502D01*
X0749006Y0012513D01*
X0748941Y0012528D01*
X0748877Y0012547D01*
X0748814Y0012569D01*
X0748753Y0012595D01*
X0748693Y0012625D01*
X0748635Y0012658D01*
X0748580Y0012695D01*
X0748526Y0012735D01*
X0748476Y0012778D01*
X0748427Y0012824D01*
X0748382Y0012873D01*
X0748340Y0012925D01*
X0748301Y0012978D01*
X0748265Y0013035D01*
X0748232Y0013093D01*
X0748203Y0013153D01*
X0748178Y0013215D01*
X0748156Y0013278D01*
X0748139Y0013342D01*
X0748125Y0013407D01*
X0748115Y0013473D01*
X0748109Y0013539D01*
X0748107Y0013606D01*
X0717595Y0013606D02*
X0717597Y0013673D01*
X0717603Y0013739D01*
X0717613Y0013805D01*
X0717627Y0013870D01*
X0717644Y0013934D01*
X0717666Y0013997D01*
X0717691Y0014059D01*
X0717720Y0014119D01*
X0717753Y0014177D01*
X0717789Y0014234D01*
X0717828Y0014287D01*
X0717870Y0014339D01*
X0717915Y0014388D01*
X0717964Y0014434D01*
X0718014Y0014477D01*
X0718068Y0014517D01*
X0718123Y0014554D01*
X0718181Y0014587D01*
X0718241Y0014617D01*
X0718302Y0014643D01*
X0718365Y0014665D01*
X0718429Y0014684D01*
X0718494Y0014699D01*
X0718559Y0014710D01*
X0718626Y0014717D01*
X0718692Y0014720D01*
X0718759Y0014719D01*
X0718825Y0014714D01*
X0718891Y0014705D01*
X0718957Y0014692D01*
X0719021Y0014675D01*
X0719085Y0014655D01*
X0719147Y0014630D01*
X0719207Y0014602D01*
X0719266Y0014571D01*
X0719323Y0014536D01*
X0719377Y0014497D01*
X0719429Y0014456D01*
X0719479Y0014411D01*
X0719526Y0014364D01*
X0719569Y0014314D01*
X0719610Y0014261D01*
X0719648Y0014206D01*
X0719682Y0014149D01*
X0719713Y0014089D01*
X0719740Y0014028D01*
X0719763Y0013966D01*
X0719783Y0013902D01*
X0719799Y0013838D01*
X0719811Y0013772D01*
X0719819Y0013706D01*
X0719823Y0013639D01*
X0719823Y0013573D01*
X0719819Y0013506D01*
X0719811Y0013440D01*
X0719799Y0013374D01*
X0719783Y0013310D01*
X0719763Y0013246D01*
X0719740Y0013184D01*
X0719713Y0013123D01*
X0719682Y0013063D01*
X0719648Y0013006D01*
X0719610Y0012951D01*
X0719569Y0012898D01*
X0719526Y0012848D01*
X0719479Y0012801D01*
X0719429Y0012756D01*
X0719377Y0012715D01*
X0719323Y0012676D01*
X0719266Y0012641D01*
X0719207Y0012610D01*
X0719147Y0012582D01*
X0719085Y0012557D01*
X0719021Y0012537D01*
X0718957Y0012520D01*
X0718891Y0012507D01*
X0718825Y0012498D01*
X0718759Y0012493D01*
X0718692Y0012492D01*
X0718626Y0012495D01*
X0718559Y0012502D01*
X0718494Y0012513D01*
X0718429Y0012528D01*
X0718365Y0012547D01*
X0718302Y0012569D01*
X0718241Y0012595D01*
X0718181Y0012625D01*
X0718123Y0012658D01*
X0718068Y0012695D01*
X0718014Y0012735D01*
X0717964Y0012778D01*
X0717915Y0012824D01*
X0717870Y0012873D01*
X0717828Y0012925D01*
X0717789Y0012978D01*
X0717753Y0013035D01*
X0717720Y0013093D01*
X0717691Y0013153D01*
X0717666Y0013215D01*
X0717644Y0013278D01*
X0717627Y0013342D01*
X0717613Y0013407D01*
X0717603Y0013473D01*
X0717597Y0013539D01*
X0717595Y0013606D01*
X0687083Y0013606D02*
X0687085Y0013673D01*
X0687091Y0013739D01*
X0687101Y0013805D01*
X0687115Y0013870D01*
X0687132Y0013934D01*
X0687154Y0013997D01*
X0687179Y0014059D01*
X0687208Y0014119D01*
X0687241Y0014177D01*
X0687277Y0014234D01*
X0687316Y0014287D01*
X0687358Y0014339D01*
X0687403Y0014388D01*
X0687452Y0014434D01*
X0687502Y0014477D01*
X0687556Y0014517D01*
X0687611Y0014554D01*
X0687669Y0014587D01*
X0687729Y0014617D01*
X0687790Y0014643D01*
X0687853Y0014665D01*
X0687917Y0014684D01*
X0687982Y0014699D01*
X0688047Y0014710D01*
X0688114Y0014717D01*
X0688180Y0014720D01*
X0688247Y0014719D01*
X0688313Y0014714D01*
X0688379Y0014705D01*
X0688445Y0014692D01*
X0688509Y0014675D01*
X0688573Y0014655D01*
X0688635Y0014630D01*
X0688695Y0014602D01*
X0688754Y0014571D01*
X0688811Y0014536D01*
X0688865Y0014497D01*
X0688917Y0014456D01*
X0688967Y0014411D01*
X0689014Y0014364D01*
X0689057Y0014314D01*
X0689098Y0014261D01*
X0689136Y0014206D01*
X0689170Y0014149D01*
X0689201Y0014089D01*
X0689228Y0014028D01*
X0689251Y0013966D01*
X0689271Y0013902D01*
X0689287Y0013838D01*
X0689299Y0013772D01*
X0689307Y0013706D01*
X0689311Y0013639D01*
X0689311Y0013573D01*
X0689307Y0013506D01*
X0689299Y0013440D01*
X0689287Y0013374D01*
X0689271Y0013310D01*
X0689251Y0013246D01*
X0689228Y0013184D01*
X0689201Y0013123D01*
X0689170Y0013063D01*
X0689136Y0013006D01*
X0689098Y0012951D01*
X0689057Y0012898D01*
X0689014Y0012848D01*
X0688967Y0012801D01*
X0688917Y0012756D01*
X0688865Y0012715D01*
X0688811Y0012676D01*
X0688754Y0012641D01*
X0688695Y0012610D01*
X0688635Y0012582D01*
X0688573Y0012557D01*
X0688509Y0012537D01*
X0688445Y0012520D01*
X0688379Y0012507D01*
X0688313Y0012498D01*
X0688247Y0012493D01*
X0688180Y0012492D01*
X0688114Y0012495D01*
X0688047Y0012502D01*
X0687982Y0012513D01*
X0687917Y0012528D01*
X0687853Y0012547D01*
X0687790Y0012569D01*
X0687729Y0012595D01*
X0687669Y0012625D01*
X0687611Y0012658D01*
X0687556Y0012695D01*
X0687502Y0012735D01*
X0687452Y0012778D01*
X0687403Y0012824D01*
X0687358Y0012873D01*
X0687316Y0012925D01*
X0687277Y0012978D01*
X0687241Y0013035D01*
X0687208Y0013093D01*
X0687179Y0013153D01*
X0687154Y0013215D01*
X0687132Y0013278D01*
X0687115Y0013342D01*
X0687101Y0013407D01*
X0687091Y0013473D01*
X0687085Y0013539D01*
X0687083Y0013606D01*
X0656572Y0013606D02*
X0656574Y0013673D01*
X0656580Y0013739D01*
X0656590Y0013805D01*
X0656604Y0013870D01*
X0656621Y0013934D01*
X0656643Y0013997D01*
X0656668Y0014059D01*
X0656697Y0014119D01*
X0656730Y0014177D01*
X0656766Y0014234D01*
X0656805Y0014287D01*
X0656847Y0014339D01*
X0656892Y0014388D01*
X0656941Y0014434D01*
X0656991Y0014477D01*
X0657045Y0014517D01*
X0657100Y0014554D01*
X0657158Y0014587D01*
X0657218Y0014617D01*
X0657279Y0014643D01*
X0657342Y0014665D01*
X0657406Y0014684D01*
X0657471Y0014699D01*
X0657536Y0014710D01*
X0657603Y0014717D01*
X0657669Y0014720D01*
X0657736Y0014719D01*
X0657802Y0014714D01*
X0657868Y0014705D01*
X0657934Y0014692D01*
X0657998Y0014675D01*
X0658062Y0014655D01*
X0658124Y0014630D01*
X0658184Y0014602D01*
X0658243Y0014571D01*
X0658300Y0014536D01*
X0658354Y0014497D01*
X0658406Y0014456D01*
X0658456Y0014411D01*
X0658503Y0014364D01*
X0658546Y0014314D01*
X0658587Y0014261D01*
X0658625Y0014206D01*
X0658659Y0014149D01*
X0658690Y0014089D01*
X0658717Y0014028D01*
X0658740Y0013966D01*
X0658760Y0013902D01*
X0658776Y0013838D01*
X0658788Y0013772D01*
X0658796Y0013706D01*
X0658800Y0013639D01*
X0658800Y0013573D01*
X0658796Y0013506D01*
X0658788Y0013440D01*
X0658776Y0013374D01*
X0658760Y0013310D01*
X0658740Y0013246D01*
X0658717Y0013184D01*
X0658690Y0013123D01*
X0658659Y0013063D01*
X0658625Y0013006D01*
X0658587Y0012951D01*
X0658546Y0012898D01*
X0658503Y0012848D01*
X0658456Y0012801D01*
X0658406Y0012756D01*
X0658354Y0012715D01*
X0658300Y0012676D01*
X0658243Y0012641D01*
X0658184Y0012610D01*
X0658124Y0012582D01*
X0658062Y0012557D01*
X0657998Y0012537D01*
X0657934Y0012520D01*
X0657868Y0012507D01*
X0657802Y0012498D01*
X0657736Y0012493D01*
X0657669Y0012492D01*
X0657603Y0012495D01*
X0657536Y0012502D01*
X0657471Y0012513D01*
X0657406Y0012528D01*
X0657342Y0012547D01*
X0657279Y0012569D01*
X0657218Y0012595D01*
X0657158Y0012625D01*
X0657100Y0012658D01*
X0657045Y0012695D01*
X0656991Y0012735D01*
X0656941Y0012778D01*
X0656892Y0012824D01*
X0656847Y0012873D01*
X0656805Y0012925D01*
X0656766Y0012978D01*
X0656730Y0013035D01*
X0656697Y0013093D01*
X0656668Y0013153D01*
X0656643Y0013215D01*
X0656621Y0013278D01*
X0656604Y0013342D01*
X0656590Y0013407D01*
X0656580Y0013473D01*
X0656574Y0013539D01*
X0656572Y0013606D01*
X0626060Y0013606D02*
X0626062Y0013673D01*
X0626068Y0013739D01*
X0626078Y0013805D01*
X0626092Y0013870D01*
X0626109Y0013934D01*
X0626131Y0013997D01*
X0626156Y0014059D01*
X0626185Y0014119D01*
X0626218Y0014177D01*
X0626254Y0014234D01*
X0626293Y0014287D01*
X0626335Y0014339D01*
X0626380Y0014388D01*
X0626429Y0014434D01*
X0626479Y0014477D01*
X0626533Y0014517D01*
X0626588Y0014554D01*
X0626646Y0014587D01*
X0626706Y0014617D01*
X0626767Y0014643D01*
X0626830Y0014665D01*
X0626894Y0014684D01*
X0626959Y0014699D01*
X0627024Y0014710D01*
X0627091Y0014717D01*
X0627157Y0014720D01*
X0627224Y0014719D01*
X0627290Y0014714D01*
X0627356Y0014705D01*
X0627422Y0014692D01*
X0627486Y0014675D01*
X0627550Y0014655D01*
X0627612Y0014630D01*
X0627672Y0014602D01*
X0627731Y0014571D01*
X0627788Y0014536D01*
X0627842Y0014497D01*
X0627894Y0014456D01*
X0627944Y0014411D01*
X0627991Y0014364D01*
X0628034Y0014314D01*
X0628075Y0014261D01*
X0628113Y0014206D01*
X0628147Y0014149D01*
X0628178Y0014089D01*
X0628205Y0014028D01*
X0628228Y0013966D01*
X0628248Y0013902D01*
X0628264Y0013838D01*
X0628276Y0013772D01*
X0628284Y0013706D01*
X0628288Y0013639D01*
X0628288Y0013573D01*
X0628284Y0013506D01*
X0628276Y0013440D01*
X0628264Y0013374D01*
X0628248Y0013310D01*
X0628228Y0013246D01*
X0628205Y0013184D01*
X0628178Y0013123D01*
X0628147Y0013063D01*
X0628113Y0013006D01*
X0628075Y0012951D01*
X0628034Y0012898D01*
X0627991Y0012848D01*
X0627944Y0012801D01*
X0627894Y0012756D01*
X0627842Y0012715D01*
X0627788Y0012676D01*
X0627731Y0012641D01*
X0627672Y0012610D01*
X0627612Y0012582D01*
X0627550Y0012557D01*
X0627486Y0012537D01*
X0627422Y0012520D01*
X0627356Y0012507D01*
X0627290Y0012498D01*
X0627224Y0012493D01*
X0627157Y0012492D01*
X0627091Y0012495D01*
X0627024Y0012502D01*
X0626959Y0012513D01*
X0626894Y0012528D01*
X0626830Y0012547D01*
X0626767Y0012569D01*
X0626706Y0012595D01*
X0626646Y0012625D01*
X0626588Y0012658D01*
X0626533Y0012695D01*
X0626479Y0012735D01*
X0626429Y0012778D01*
X0626380Y0012824D01*
X0626335Y0012873D01*
X0626293Y0012925D01*
X0626254Y0012978D01*
X0626218Y0013035D01*
X0626185Y0013093D01*
X0626156Y0013153D01*
X0626131Y0013215D01*
X0626109Y0013278D01*
X0626092Y0013342D01*
X0626078Y0013407D01*
X0626068Y0013473D01*
X0626062Y0013539D01*
X0626060Y0013606D01*
X0595548Y0013606D02*
X0595550Y0013673D01*
X0595556Y0013739D01*
X0595566Y0013805D01*
X0595580Y0013870D01*
X0595597Y0013934D01*
X0595619Y0013997D01*
X0595644Y0014059D01*
X0595673Y0014119D01*
X0595706Y0014177D01*
X0595742Y0014234D01*
X0595781Y0014287D01*
X0595823Y0014339D01*
X0595868Y0014388D01*
X0595917Y0014434D01*
X0595967Y0014477D01*
X0596021Y0014517D01*
X0596076Y0014554D01*
X0596134Y0014587D01*
X0596194Y0014617D01*
X0596255Y0014643D01*
X0596318Y0014665D01*
X0596382Y0014684D01*
X0596447Y0014699D01*
X0596512Y0014710D01*
X0596579Y0014717D01*
X0596645Y0014720D01*
X0596712Y0014719D01*
X0596778Y0014714D01*
X0596844Y0014705D01*
X0596910Y0014692D01*
X0596974Y0014675D01*
X0597038Y0014655D01*
X0597100Y0014630D01*
X0597160Y0014602D01*
X0597219Y0014571D01*
X0597276Y0014536D01*
X0597330Y0014497D01*
X0597382Y0014456D01*
X0597432Y0014411D01*
X0597479Y0014364D01*
X0597522Y0014314D01*
X0597563Y0014261D01*
X0597601Y0014206D01*
X0597635Y0014149D01*
X0597666Y0014089D01*
X0597693Y0014028D01*
X0597716Y0013966D01*
X0597736Y0013902D01*
X0597752Y0013838D01*
X0597764Y0013772D01*
X0597772Y0013706D01*
X0597776Y0013639D01*
X0597776Y0013573D01*
X0597772Y0013506D01*
X0597764Y0013440D01*
X0597752Y0013374D01*
X0597736Y0013310D01*
X0597716Y0013246D01*
X0597693Y0013184D01*
X0597666Y0013123D01*
X0597635Y0013063D01*
X0597601Y0013006D01*
X0597563Y0012951D01*
X0597522Y0012898D01*
X0597479Y0012848D01*
X0597432Y0012801D01*
X0597382Y0012756D01*
X0597330Y0012715D01*
X0597276Y0012676D01*
X0597219Y0012641D01*
X0597160Y0012610D01*
X0597100Y0012582D01*
X0597038Y0012557D01*
X0596974Y0012537D01*
X0596910Y0012520D01*
X0596844Y0012507D01*
X0596778Y0012498D01*
X0596712Y0012493D01*
X0596645Y0012492D01*
X0596579Y0012495D01*
X0596512Y0012502D01*
X0596447Y0012513D01*
X0596382Y0012528D01*
X0596318Y0012547D01*
X0596255Y0012569D01*
X0596194Y0012595D01*
X0596134Y0012625D01*
X0596076Y0012658D01*
X0596021Y0012695D01*
X0595967Y0012735D01*
X0595917Y0012778D01*
X0595868Y0012824D01*
X0595823Y0012873D01*
X0595781Y0012925D01*
X0595742Y0012978D01*
X0595706Y0013035D01*
X0595673Y0013093D01*
X0595644Y0013153D01*
X0595619Y0013215D01*
X0595597Y0013278D01*
X0595580Y0013342D01*
X0595566Y0013407D01*
X0595556Y0013473D01*
X0595550Y0013539D01*
X0595548Y0013606D01*
X0565036Y0013606D02*
X0565038Y0013673D01*
X0565044Y0013739D01*
X0565054Y0013805D01*
X0565068Y0013870D01*
X0565085Y0013934D01*
X0565107Y0013997D01*
X0565132Y0014059D01*
X0565161Y0014119D01*
X0565194Y0014177D01*
X0565230Y0014234D01*
X0565269Y0014287D01*
X0565311Y0014339D01*
X0565356Y0014388D01*
X0565405Y0014434D01*
X0565455Y0014477D01*
X0565509Y0014517D01*
X0565564Y0014554D01*
X0565622Y0014587D01*
X0565682Y0014617D01*
X0565743Y0014643D01*
X0565806Y0014665D01*
X0565870Y0014684D01*
X0565935Y0014699D01*
X0566000Y0014710D01*
X0566067Y0014717D01*
X0566133Y0014720D01*
X0566200Y0014719D01*
X0566266Y0014714D01*
X0566332Y0014705D01*
X0566398Y0014692D01*
X0566462Y0014675D01*
X0566526Y0014655D01*
X0566588Y0014630D01*
X0566648Y0014602D01*
X0566707Y0014571D01*
X0566764Y0014536D01*
X0566818Y0014497D01*
X0566870Y0014456D01*
X0566920Y0014411D01*
X0566967Y0014364D01*
X0567010Y0014314D01*
X0567051Y0014261D01*
X0567089Y0014206D01*
X0567123Y0014149D01*
X0567154Y0014089D01*
X0567181Y0014028D01*
X0567204Y0013966D01*
X0567224Y0013902D01*
X0567240Y0013838D01*
X0567252Y0013772D01*
X0567260Y0013706D01*
X0567264Y0013639D01*
X0567264Y0013573D01*
X0567260Y0013506D01*
X0567252Y0013440D01*
X0567240Y0013374D01*
X0567224Y0013310D01*
X0567204Y0013246D01*
X0567181Y0013184D01*
X0567154Y0013123D01*
X0567123Y0013063D01*
X0567089Y0013006D01*
X0567051Y0012951D01*
X0567010Y0012898D01*
X0566967Y0012848D01*
X0566920Y0012801D01*
X0566870Y0012756D01*
X0566818Y0012715D01*
X0566764Y0012676D01*
X0566707Y0012641D01*
X0566648Y0012610D01*
X0566588Y0012582D01*
X0566526Y0012557D01*
X0566462Y0012537D01*
X0566398Y0012520D01*
X0566332Y0012507D01*
X0566266Y0012498D01*
X0566200Y0012493D01*
X0566133Y0012492D01*
X0566067Y0012495D01*
X0566000Y0012502D01*
X0565935Y0012513D01*
X0565870Y0012528D01*
X0565806Y0012547D01*
X0565743Y0012569D01*
X0565682Y0012595D01*
X0565622Y0012625D01*
X0565564Y0012658D01*
X0565509Y0012695D01*
X0565455Y0012735D01*
X0565405Y0012778D01*
X0565356Y0012824D01*
X0565311Y0012873D01*
X0565269Y0012925D01*
X0565230Y0012978D01*
X0565194Y0013035D01*
X0565161Y0013093D01*
X0565132Y0013153D01*
X0565107Y0013215D01*
X0565085Y0013278D01*
X0565068Y0013342D01*
X0565054Y0013407D01*
X0565044Y0013473D01*
X0565038Y0013539D01*
X0565036Y0013606D01*
X0534524Y0013606D02*
X0534526Y0013673D01*
X0534532Y0013739D01*
X0534542Y0013805D01*
X0534556Y0013870D01*
X0534573Y0013934D01*
X0534595Y0013997D01*
X0534620Y0014059D01*
X0534649Y0014119D01*
X0534682Y0014177D01*
X0534718Y0014234D01*
X0534757Y0014287D01*
X0534799Y0014339D01*
X0534844Y0014388D01*
X0534893Y0014434D01*
X0534943Y0014477D01*
X0534997Y0014517D01*
X0535052Y0014554D01*
X0535110Y0014587D01*
X0535170Y0014617D01*
X0535231Y0014643D01*
X0535294Y0014665D01*
X0535358Y0014684D01*
X0535423Y0014699D01*
X0535488Y0014710D01*
X0535555Y0014717D01*
X0535621Y0014720D01*
X0535688Y0014719D01*
X0535754Y0014714D01*
X0535820Y0014705D01*
X0535886Y0014692D01*
X0535950Y0014675D01*
X0536014Y0014655D01*
X0536076Y0014630D01*
X0536136Y0014602D01*
X0536195Y0014571D01*
X0536252Y0014536D01*
X0536306Y0014497D01*
X0536358Y0014456D01*
X0536408Y0014411D01*
X0536455Y0014364D01*
X0536498Y0014314D01*
X0536539Y0014261D01*
X0536577Y0014206D01*
X0536611Y0014149D01*
X0536642Y0014089D01*
X0536669Y0014028D01*
X0536692Y0013966D01*
X0536712Y0013902D01*
X0536728Y0013838D01*
X0536740Y0013772D01*
X0536748Y0013706D01*
X0536752Y0013639D01*
X0536752Y0013573D01*
X0536748Y0013506D01*
X0536740Y0013440D01*
X0536728Y0013374D01*
X0536712Y0013310D01*
X0536692Y0013246D01*
X0536669Y0013184D01*
X0536642Y0013123D01*
X0536611Y0013063D01*
X0536577Y0013006D01*
X0536539Y0012951D01*
X0536498Y0012898D01*
X0536455Y0012848D01*
X0536408Y0012801D01*
X0536358Y0012756D01*
X0536306Y0012715D01*
X0536252Y0012676D01*
X0536195Y0012641D01*
X0536136Y0012610D01*
X0536076Y0012582D01*
X0536014Y0012557D01*
X0535950Y0012537D01*
X0535886Y0012520D01*
X0535820Y0012507D01*
X0535754Y0012498D01*
X0535688Y0012493D01*
X0535621Y0012492D01*
X0535555Y0012495D01*
X0535488Y0012502D01*
X0535423Y0012513D01*
X0535358Y0012528D01*
X0535294Y0012547D01*
X0535231Y0012569D01*
X0535170Y0012595D01*
X0535110Y0012625D01*
X0535052Y0012658D01*
X0534997Y0012695D01*
X0534943Y0012735D01*
X0534893Y0012778D01*
X0534844Y0012824D01*
X0534799Y0012873D01*
X0534757Y0012925D01*
X0534718Y0012978D01*
X0534682Y0013035D01*
X0534649Y0013093D01*
X0534620Y0013153D01*
X0534595Y0013215D01*
X0534573Y0013278D01*
X0534556Y0013342D01*
X0534542Y0013407D01*
X0534532Y0013473D01*
X0534526Y0013539D01*
X0534524Y0013606D01*
X0504012Y0013606D02*
X0504014Y0013673D01*
X0504020Y0013739D01*
X0504030Y0013805D01*
X0504044Y0013870D01*
X0504061Y0013934D01*
X0504083Y0013997D01*
X0504108Y0014059D01*
X0504137Y0014119D01*
X0504170Y0014177D01*
X0504206Y0014234D01*
X0504245Y0014287D01*
X0504287Y0014339D01*
X0504332Y0014388D01*
X0504381Y0014434D01*
X0504431Y0014477D01*
X0504485Y0014517D01*
X0504540Y0014554D01*
X0504598Y0014587D01*
X0504658Y0014617D01*
X0504719Y0014643D01*
X0504782Y0014665D01*
X0504846Y0014684D01*
X0504911Y0014699D01*
X0504976Y0014710D01*
X0505043Y0014717D01*
X0505109Y0014720D01*
X0505176Y0014719D01*
X0505242Y0014714D01*
X0505308Y0014705D01*
X0505374Y0014692D01*
X0505438Y0014675D01*
X0505502Y0014655D01*
X0505564Y0014630D01*
X0505624Y0014602D01*
X0505683Y0014571D01*
X0505740Y0014536D01*
X0505794Y0014497D01*
X0505846Y0014456D01*
X0505896Y0014411D01*
X0505943Y0014364D01*
X0505986Y0014314D01*
X0506027Y0014261D01*
X0506065Y0014206D01*
X0506099Y0014149D01*
X0506130Y0014089D01*
X0506157Y0014028D01*
X0506180Y0013966D01*
X0506200Y0013902D01*
X0506216Y0013838D01*
X0506228Y0013772D01*
X0506236Y0013706D01*
X0506240Y0013639D01*
X0506240Y0013573D01*
X0506236Y0013506D01*
X0506228Y0013440D01*
X0506216Y0013374D01*
X0506200Y0013310D01*
X0506180Y0013246D01*
X0506157Y0013184D01*
X0506130Y0013123D01*
X0506099Y0013063D01*
X0506065Y0013006D01*
X0506027Y0012951D01*
X0505986Y0012898D01*
X0505943Y0012848D01*
X0505896Y0012801D01*
X0505846Y0012756D01*
X0505794Y0012715D01*
X0505740Y0012676D01*
X0505683Y0012641D01*
X0505624Y0012610D01*
X0505564Y0012582D01*
X0505502Y0012557D01*
X0505438Y0012537D01*
X0505374Y0012520D01*
X0505308Y0012507D01*
X0505242Y0012498D01*
X0505176Y0012493D01*
X0505109Y0012492D01*
X0505043Y0012495D01*
X0504976Y0012502D01*
X0504911Y0012513D01*
X0504846Y0012528D01*
X0504782Y0012547D01*
X0504719Y0012569D01*
X0504658Y0012595D01*
X0504598Y0012625D01*
X0504540Y0012658D01*
X0504485Y0012695D01*
X0504431Y0012735D01*
X0504381Y0012778D01*
X0504332Y0012824D01*
X0504287Y0012873D01*
X0504245Y0012925D01*
X0504206Y0012978D01*
X0504170Y0013035D01*
X0504137Y0013093D01*
X0504108Y0013153D01*
X0504083Y0013215D01*
X0504061Y0013278D01*
X0504044Y0013342D01*
X0504030Y0013407D01*
X0504020Y0013473D01*
X0504014Y0013539D01*
X0504012Y0013606D01*
X0473501Y0013606D02*
X0473503Y0013673D01*
X0473509Y0013739D01*
X0473519Y0013805D01*
X0473533Y0013870D01*
X0473550Y0013934D01*
X0473572Y0013997D01*
X0473597Y0014059D01*
X0473626Y0014119D01*
X0473659Y0014177D01*
X0473695Y0014234D01*
X0473734Y0014287D01*
X0473776Y0014339D01*
X0473821Y0014388D01*
X0473870Y0014434D01*
X0473920Y0014477D01*
X0473974Y0014517D01*
X0474029Y0014554D01*
X0474087Y0014587D01*
X0474147Y0014617D01*
X0474208Y0014643D01*
X0474271Y0014665D01*
X0474335Y0014684D01*
X0474400Y0014699D01*
X0474465Y0014710D01*
X0474532Y0014717D01*
X0474598Y0014720D01*
X0474665Y0014719D01*
X0474731Y0014714D01*
X0474797Y0014705D01*
X0474863Y0014692D01*
X0474927Y0014675D01*
X0474991Y0014655D01*
X0475053Y0014630D01*
X0475113Y0014602D01*
X0475172Y0014571D01*
X0475229Y0014536D01*
X0475283Y0014497D01*
X0475335Y0014456D01*
X0475385Y0014411D01*
X0475432Y0014364D01*
X0475475Y0014314D01*
X0475516Y0014261D01*
X0475554Y0014206D01*
X0475588Y0014149D01*
X0475619Y0014089D01*
X0475646Y0014028D01*
X0475669Y0013966D01*
X0475689Y0013902D01*
X0475705Y0013838D01*
X0475717Y0013772D01*
X0475725Y0013706D01*
X0475729Y0013639D01*
X0475729Y0013573D01*
X0475725Y0013506D01*
X0475717Y0013440D01*
X0475705Y0013374D01*
X0475689Y0013310D01*
X0475669Y0013246D01*
X0475646Y0013184D01*
X0475619Y0013123D01*
X0475588Y0013063D01*
X0475554Y0013006D01*
X0475516Y0012951D01*
X0475475Y0012898D01*
X0475432Y0012848D01*
X0475385Y0012801D01*
X0475335Y0012756D01*
X0475283Y0012715D01*
X0475229Y0012676D01*
X0475172Y0012641D01*
X0475113Y0012610D01*
X0475053Y0012582D01*
X0474991Y0012557D01*
X0474927Y0012537D01*
X0474863Y0012520D01*
X0474797Y0012507D01*
X0474731Y0012498D01*
X0474665Y0012493D01*
X0474598Y0012492D01*
X0474532Y0012495D01*
X0474465Y0012502D01*
X0474400Y0012513D01*
X0474335Y0012528D01*
X0474271Y0012547D01*
X0474208Y0012569D01*
X0474147Y0012595D01*
X0474087Y0012625D01*
X0474029Y0012658D01*
X0473974Y0012695D01*
X0473920Y0012735D01*
X0473870Y0012778D01*
X0473821Y0012824D01*
X0473776Y0012873D01*
X0473734Y0012925D01*
X0473695Y0012978D01*
X0473659Y0013035D01*
X0473626Y0013093D01*
X0473597Y0013153D01*
X0473572Y0013215D01*
X0473550Y0013278D01*
X0473533Y0013342D01*
X0473519Y0013407D01*
X0473509Y0013473D01*
X0473503Y0013539D01*
X0473501Y0013606D01*
X0442989Y0013606D02*
X0442991Y0013673D01*
X0442997Y0013739D01*
X0443007Y0013805D01*
X0443021Y0013870D01*
X0443038Y0013934D01*
X0443060Y0013997D01*
X0443085Y0014059D01*
X0443114Y0014119D01*
X0443147Y0014177D01*
X0443183Y0014234D01*
X0443222Y0014287D01*
X0443264Y0014339D01*
X0443309Y0014388D01*
X0443358Y0014434D01*
X0443408Y0014477D01*
X0443462Y0014517D01*
X0443517Y0014554D01*
X0443575Y0014587D01*
X0443635Y0014617D01*
X0443696Y0014643D01*
X0443759Y0014665D01*
X0443823Y0014684D01*
X0443888Y0014699D01*
X0443953Y0014710D01*
X0444020Y0014717D01*
X0444086Y0014720D01*
X0444153Y0014719D01*
X0444219Y0014714D01*
X0444285Y0014705D01*
X0444351Y0014692D01*
X0444415Y0014675D01*
X0444479Y0014655D01*
X0444541Y0014630D01*
X0444601Y0014602D01*
X0444660Y0014571D01*
X0444717Y0014536D01*
X0444771Y0014497D01*
X0444823Y0014456D01*
X0444873Y0014411D01*
X0444920Y0014364D01*
X0444963Y0014314D01*
X0445004Y0014261D01*
X0445042Y0014206D01*
X0445076Y0014149D01*
X0445107Y0014089D01*
X0445134Y0014028D01*
X0445157Y0013966D01*
X0445177Y0013902D01*
X0445193Y0013838D01*
X0445205Y0013772D01*
X0445213Y0013706D01*
X0445217Y0013639D01*
X0445217Y0013573D01*
X0445213Y0013506D01*
X0445205Y0013440D01*
X0445193Y0013374D01*
X0445177Y0013310D01*
X0445157Y0013246D01*
X0445134Y0013184D01*
X0445107Y0013123D01*
X0445076Y0013063D01*
X0445042Y0013006D01*
X0445004Y0012951D01*
X0444963Y0012898D01*
X0444920Y0012848D01*
X0444873Y0012801D01*
X0444823Y0012756D01*
X0444771Y0012715D01*
X0444717Y0012676D01*
X0444660Y0012641D01*
X0444601Y0012610D01*
X0444541Y0012582D01*
X0444479Y0012557D01*
X0444415Y0012537D01*
X0444351Y0012520D01*
X0444285Y0012507D01*
X0444219Y0012498D01*
X0444153Y0012493D01*
X0444086Y0012492D01*
X0444020Y0012495D01*
X0443953Y0012502D01*
X0443888Y0012513D01*
X0443823Y0012528D01*
X0443759Y0012547D01*
X0443696Y0012569D01*
X0443635Y0012595D01*
X0443575Y0012625D01*
X0443517Y0012658D01*
X0443462Y0012695D01*
X0443408Y0012735D01*
X0443358Y0012778D01*
X0443309Y0012824D01*
X0443264Y0012873D01*
X0443222Y0012925D01*
X0443183Y0012978D01*
X0443147Y0013035D01*
X0443114Y0013093D01*
X0443085Y0013153D01*
X0443060Y0013215D01*
X0443038Y0013278D01*
X0443021Y0013342D01*
X0443007Y0013407D01*
X0442997Y0013473D01*
X0442991Y0013539D01*
X0442989Y0013606D01*
X0412477Y0013606D02*
X0412479Y0013673D01*
X0412485Y0013739D01*
X0412495Y0013805D01*
X0412509Y0013870D01*
X0412526Y0013934D01*
X0412548Y0013997D01*
X0412573Y0014059D01*
X0412602Y0014119D01*
X0412635Y0014177D01*
X0412671Y0014234D01*
X0412710Y0014287D01*
X0412752Y0014339D01*
X0412797Y0014388D01*
X0412846Y0014434D01*
X0412896Y0014477D01*
X0412950Y0014517D01*
X0413005Y0014554D01*
X0413063Y0014587D01*
X0413123Y0014617D01*
X0413184Y0014643D01*
X0413247Y0014665D01*
X0413311Y0014684D01*
X0413376Y0014699D01*
X0413441Y0014710D01*
X0413508Y0014717D01*
X0413574Y0014720D01*
X0413641Y0014719D01*
X0413707Y0014714D01*
X0413773Y0014705D01*
X0413839Y0014692D01*
X0413903Y0014675D01*
X0413967Y0014655D01*
X0414029Y0014630D01*
X0414089Y0014602D01*
X0414148Y0014571D01*
X0414205Y0014536D01*
X0414259Y0014497D01*
X0414311Y0014456D01*
X0414361Y0014411D01*
X0414408Y0014364D01*
X0414451Y0014314D01*
X0414492Y0014261D01*
X0414530Y0014206D01*
X0414564Y0014149D01*
X0414595Y0014089D01*
X0414622Y0014028D01*
X0414645Y0013966D01*
X0414665Y0013902D01*
X0414681Y0013838D01*
X0414693Y0013772D01*
X0414701Y0013706D01*
X0414705Y0013639D01*
X0414705Y0013573D01*
X0414701Y0013506D01*
X0414693Y0013440D01*
X0414681Y0013374D01*
X0414665Y0013310D01*
X0414645Y0013246D01*
X0414622Y0013184D01*
X0414595Y0013123D01*
X0414564Y0013063D01*
X0414530Y0013006D01*
X0414492Y0012951D01*
X0414451Y0012898D01*
X0414408Y0012848D01*
X0414361Y0012801D01*
X0414311Y0012756D01*
X0414259Y0012715D01*
X0414205Y0012676D01*
X0414148Y0012641D01*
X0414089Y0012610D01*
X0414029Y0012582D01*
X0413967Y0012557D01*
X0413903Y0012537D01*
X0413839Y0012520D01*
X0413773Y0012507D01*
X0413707Y0012498D01*
X0413641Y0012493D01*
X0413574Y0012492D01*
X0413508Y0012495D01*
X0413441Y0012502D01*
X0413376Y0012513D01*
X0413311Y0012528D01*
X0413247Y0012547D01*
X0413184Y0012569D01*
X0413123Y0012595D01*
X0413063Y0012625D01*
X0413005Y0012658D01*
X0412950Y0012695D01*
X0412896Y0012735D01*
X0412846Y0012778D01*
X0412797Y0012824D01*
X0412752Y0012873D01*
X0412710Y0012925D01*
X0412671Y0012978D01*
X0412635Y0013035D01*
X0412602Y0013093D01*
X0412573Y0013153D01*
X0412548Y0013215D01*
X0412526Y0013278D01*
X0412509Y0013342D01*
X0412495Y0013407D01*
X0412485Y0013473D01*
X0412479Y0013539D01*
X0412477Y0013606D01*
X0381965Y0013606D02*
X0381967Y0013673D01*
X0381973Y0013739D01*
X0381983Y0013805D01*
X0381997Y0013870D01*
X0382014Y0013934D01*
X0382036Y0013997D01*
X0382061Y0014059D01*
X0382090Y0014119D01*
X0382123Y0014177D01*
X0382159Y0014234D01*
X0382198Y0014287D01*
X0382240Y0014339D01*
X0382285Y0014388D01*
X0382334Y0014434D01*
X0382384Y0014477D01*
X0382438Y0014517D01*
X0382493Y0014554D01*
X0382551Y0014587D01*
X0382611Y0014617D01*
X0382672Y0014643D01*
X0382735Y0014665D01*
X0382799Y0014684D01*
X0382864Y0014699D01*
X0382929Y0014710D01*
X0382996Y0014717D01*
X0383062Y0014720D01*
X0383129Y0014719D01*
X0383195Y0014714D01*
X0383261Y0014705D01*
X0383327Y0014692D01*
X0383391Y0014675D01*
X0383455Y0014655D01*
X0383517Y0014630D01*
X0383577Y0014602D01*
X0383636Y0014571D01*
X0383693Y0014536D01*
X0383747Y0014497D01*
X0383799Y0014456D01*
X0383849Y0014411D01*
X0383896Y0014364D01*
X0383939Y0014314D01*
X0383980Y0014261D01*
X0384018Y0014206D01*
X0384052Y0014149D01*
X0384083Y0014089D01*
X0384110Y0014028D01*
X0384133Y0013966D01*
X0384153Y0013902D01*
X0384169Y0013838D01*
X0384181Y0013772D01*
X0384189Y0013706D01*
X0384193Y0013639D01*
X0384193Y0013573D01*
X0384189Y0013506D01*
X0384181Y0013440D01*
X0384169Y0013374D01*
X0384153Y0013310D01*
X0384133Y0013246D01*
X0384110Y0013184D01*
X0384083Y0013123D01*
X0384052Y0013063D01*
X0384018Y0013006D01*
X0383980Y0012951D01*
X0383939Y0012898D01*
X0383896Y0012848D01*
X0383849Y0012801D01*
X0383799Y0012756D01*
X0383747Y0012715D01*
X0383693Y0012676D01*
X0383636Y0012641D01*
X0383577Y0012610D01*
X0383517Y0012582D01*
X0383455Y0012557D01*
X0383391Y0012537D01*
X0383327Y0012520D01*
X0383261Y0012507D01*
X0383195Y0012498D01*
X0383129Y0012493D01*
X0383062Y0012492D01*
X0382996Y0012495D01*
X0382929Y0012502D01*
X0382864Y0012513D01*
X0382799Y0012528D01*
X0382735Y0012547D01*
X0382672Y0012569D01*
X0382611Y0012595D01*
X0382551Y0012625D01*
X0382493Y0012658D01*
X0382438Y0012695D01*
X0382384Y0012735D01*
X0382334Y0012778D01*
X0382285Y0012824D01*
X0382240Y0012873D01*
X0382198Y0012925D01*
X0382159Y0012978D01*
X0382123Y0013035D01*
X0382090Y0013093D01*
X0382061Y0013153D01*
X0382036Y0013215D01*
X0382014Y0013278D01*
X0381997Y0013342D01*
X0381983Y0013407D01*
X0381973Y0013473D01*
X0381967Y0013539D01*
X0381965Y0013606D01*
X0351453Y0013606D02*
X0351455Y0013673D01*
X0351461Y0013739D01*
X0351471Y0013805D01*
X0351485Y0013870D01*
X0351502Y0013934D01*
X0351524Y0013997D01*
X0351549Y0014059D01*
X0351578Y0014119D01*
X0351611Y0014177D01*
X0351647Y0014234D01*
X0351686Y0014287D01*
X0351728Y0014339D01*
X0351773Y0014388D01*
X0351822Y0014434D01*
X0351872Y0014477D01*
X0351926Y0014517D01*
X0351981Y0014554D01*
X0352039Y0014587D01*
X0352099Y0014617D01*
X0352160Y0014643D01*
X0352223Y0014665D01*
X0352287Y0014684D01*
X0352352Y0014699D01*
X0352417Y0014710D01*
X0352484Y0014717D01*
X0352550Y0014720D01*
X0352617Y0014719D01*
X0352683Y0014714D01*
X0352749Y0014705D01*
X0352815Y0014692D01*
X0352879Y0014675D01*
X0352943Y0014655D01*
X0353005Y0014630D01*
X0353065Y0014602D01*
X0353124Y0014571D01*
X0353181Y0014536D01*
X0353235Y0014497D01*
X0353287Y0014456D01*
X0353337Y0014411D01*
X0353384Y0014364D01*
X0353427Y0014314D01*
X0353468Y0014261D01*
X0353506Y0014206D01*
X0353540Y0014149D01*
X0353571Y0014089D01*
X0353598Y0014028D01*
X0353621Y0013966D01*
X0353641Y0013902D01*
X0353657Y0013838D01*
X0353669Y0013772D01*
X0353677Y0013706D01*
X0353681Y0013639D01*
X0353681Y0013573D01*
X0353677Y0013506D01*
X0353669Y0013440D01*
X0353657Y0013374D01*
X0353641Y0013310D01*
X0353621Y0013246D01*
X0353598Y0013184D01*
X0353571Y0013123D01*
X0353540Y0013063D01*
X0353506Y0013006D01*
X0353468Y0012951D01*
X0353427Y0012898D01*
X0353384Y0012848D01*
X0353337Y0012801D01*
X0353287Y0012756D01*
X0353235Y0012715D01*
X0353181Y0012676D01*
X0353124Y0012641D01*
X0353065Y0012610D01*
X0353005Y0012582D01*
X0352943Y0012557D01*
X0352879Y0012537D01*
X0352815Y0012520D01*
X0352749Y0012507D01*
X0352683Y0012498D01*
X0352617Y0012493D01*
X0352550Y0012492D01*
X0352484Y0012495D01*
X0352417Y0012502D01*
X0352352Y0012513D01*
X0352287Y0012528D01*
X0352223Y0012547D01*
X0352160Y0012569D01*
X0352099Y0012595D01*
X0352039Y0012625D01*
X0351981Y0012658D01*
X0351926Y0012695D01*
X0351872Y0012735D01*
X0351822Y0012778D01*
X0351773Y0012824D01*
X0351728Y0012873D01*
X0351686Y0012925D01*
X0351647Y0012978D01*
X0351611Y0013035D01*
X0351578Y0013093D01*
X0351549Y0013153D01*
X0351524Y0013215D01*
X0351502Y0013278D01*
X0351485Y0013342D01*
X0351471Y0013407D01*
X0351461Y0013473D01*
X0351455Y0013539D01*
X0351453Y0013606D01*
X0320942Y0013606D02*
X0320944Y0013673D01*
X0320950Y0013739D01*
X0320960Y0013805D01*
X0320974Y0013870D01*
X0320991Y0013934D01*
X0321013Y0013997D01*
X0321038Y0014059D01*
X0321067Y0014119D01*
X0321100Y0014177D01*
X0321136Y0014234D01*
X0321175Y0014287D01*
X0321217Y0014339D01*
X0321262Y0014388D01*
X0321311Y0014434D01*
X0321361Y0014477D01*
X0321415Y0014517D01*
X0321470Y0014554D01*
X0321528Y0014587D01*
X0321588Y0014617D01*
X0321649Y0014643D01*
X0321712Y0014665D01*
X0321776Y0014684D01*
X0321841Y0014699D01*
X0321906Y0014710D01*
X0321973Y0014717D01*
X0322039Y0014720D01*
X0322106Y0014719D01*
X0322172Y0014714D01*
X0322238Y0014705D01*
X0322304Y0014692D01*
X0322368Y0014675D01*
X0322432Y0014655D01*
X0322494Y0014630D01*
X0322554Y0014602D01*
X0322613Y0014571D01*
X0322670Y0014536D01*
X0322724Y0014497D01*
X0322776Y0014456D01*
X0322826Y0014411D01*
X0322873Y0014364D01*
X0322916Y0014314D01*
X0322957Y0014261D01*
X0322995Y0014206D01*
X0323029Y0014149D01*
X0323060Y0014089D01*
X0323087Y0014028D01*
X0323110Y0013966D01*
X0323130Y0013902D01*
X0323146Y0013838D01*
X0323158Y0013772D01*
X0323166Y0013706D01*
X0323170Y0013639D01*
X0323170Y0013573D01*
X0323166Y0013506D01*
X0323158Y0013440D01*
X0323146Y0013374D01*
X0323130Y0013310D01*
X0323110Y0013246D01*
X0323087Y0013184D01*
X0323060Y0013123D01*
X0323029Y0013063D01*
X0322995Y0013006D01*
X0322957Y0012951D01*
X0322916Y0012898D01*
X0322873Y0012848D01*
X0322826Y0012801D01*
X0322776Y0012756D01*
X0322724Y0012715D01*
X0322670Y0012676D01*
X0322613Y0012641D01*
X0322554Y0012610D01*
X0322494Y0012582D01*
X0322432Y0012557D01*
X0322368Y0012537D01*
X0322304Y0012520D01*
X0322238Y0012507D01*
X0322172Y0012498D01*
X0322106Y0012493D01*
X0322039Y0012492D01*
X0321973Y0012495D01*
X0321906Y0012502D01*
X0321841Y0012513D01*
X0321776Y0012528D01*
X0321712Y0012547D01*
X0321649Y0012569D01*
X0321588Y0012595D01*
X0321528Y0012625D01*
X0321470Y0012658D01*
X0321415Y0012695D01*
X0321361Y0012735D01*
X0321311Y0012778D01*
X0321262Y0012824D01*
X0321217Y0012873D01*
X0321175Y0012925D01*
X0321136Y0012978D01*
X0321100Y0013035D01*
X0321067Y0013093D01*
X0321038Y0013153D01*
X0321013Y0013215D01*
X0320991Y0013278D01*
X0320974Y0013342D01*
X0320960Y0013407D01*
X0320950Y0013473D01*
X0320944Y0013539D01*
X0320942Y0013606D01*
X0290430Y0013606D02*
X0290432Y0013673D01*
X0290438Y0013739D01*
X0290448Y0013805D01*
X0290462Y0013870D01*
X0290479Y0013934D01*
X0290501Y0013997D01*
X0290526Y0014059D01*
X0290555Y0014119D01*
X0290588Y0014177D01*
X0290624Y0014234D01*
X0290663Y0014287D01*
X0290705Y0014339D01*
X0290750Y0014388D01*
X0290799Y0014434D01*
X0290849Y0014477D01*
X0290903Y0014517D01*
X0290958Y0014554D01*
X0291016Y0014587D01*
X0291076Y0014617D01*
X0291137Y0014643D01*
X0291200Y0014665D01*
X0291264Y0014684D01*
X0291329Y0014699D01*
X0291394Y0014710D01*
X0291461Y0014717D01*
X0291527Y0014720D01*
X0291594Y0014719D01*
X0291660Y0014714D01*
X0291726Y0014705D01*
X0291792Y0014692D01*
X0291856Y0014675D01*
X0291920Y0014655D01*
X0291982Y0014630D01*
X0292042Y0014602D01*
X0292101Y0014571D01*
X0292158Y0014536D01*
X0292212Y0014497D01*
X0292264Y0014456D01*
X0292314Y0014411D01*
X0292361Y0014364D01*
X0292404Y0014314D01*
X0292445Y0014261D01*
X0292483Y0014206D01*
X0292517Y0014149D01*
X0292548Y0014089D01*
X0292575Y0014028D01*
X0292598Y0013966D01*
X0292618Y0013902D01*
X0292634Y0013838D01*
X0292646Y0013772D01*
X0292654Y0013706D01*
X0292658Y0013639D01*
X0292658Y0013573D01*
X0292654Y0013506D01*
X0292646Y0013440D01*
X0292634Y0013374D01*
X0292618Y0013310D01*
X0292598Y0013246D01*
X0292575Y0013184D01*
X0292548Y0013123D01*
X0292517Y0013063D01*
X0292483Y0013006D01*
X0292445Y0012951D01*
X0292404Y0012898D01*
X0292361Y0012848D01*
X0292314Y0012801D01*
X0292264Y0012756D01*
X0292212Y0012715D01*
X0292158Y0012676D01*
X0292101Y0012641D01*
X0292042Y0012610D01*
X0291982Y0012582D01*
X0291920Y0012557D01*
X0291856Y0012537D01*
X0291792Y0012520D01*
X0291726Y0012507D01*
X0291660Y0012498D01*
X0291594Y0012493D01*
X0291527Y0012492D01*
X0291461Y0012495D01*
X0291394Y0012502D01*
X0291329Y0012513D01*
X0291264Y0012528D01*
X0291200Y0012547D01*
X0291137Y0012569D01*
X0291076Y0012595D01*
X0291016Y0012625D01*
X0290958Y0012658D01*
X0290903Y0012695D01*
X0290849Y0012735D01*
X0290799Y0012778D01*
X0290750Y0012824D01*
X0290705Y0012873D01*
X0290663Y0012925D01*
X0290624Y0012978D01*
X0290588Y0013035D01*
X0290555Y0013093D01*
X0290526Y0013153D01*
X0290501Y0013215D01*
X0290479Y0013278D01*
X0290462Y0013342D01*
X0290448Y0013407D01*
X0290438Y0013473D01*
X0290432Y0013539D01*
X0290430Y0013606D01*
X0259918Y0013606D02*
X0259920Y0013673D01*
X0259926Y0013739D01*
X0259936Y0013805D01*
X0259950Y0013870D01*
X0259967Y0013934D01*
X0259989Y0013997D01*
X0260014Y0014059D01*
X0260043Y0014119D01*
X0260076Y0014177D01*
X0260112Y0014234D01*
X0260151Y0014287D01*
X0260193Y0014339D01*
X0260238Y0014388D01*
X0260287Y0014434D01*
X0260337Y0014477D01*
X0260391Y0014517D01*
X0260446Y0014554D01*
X0260504Y0014587D01*
X0260564Y0014617D01*
X0260625Y0014643D01*
X0260688Y0014665D01*
X0260752Y0014684D01*
X0260817Y0014699D01*
X0260882Y0014710D01*
X0260949Y0014717D01*
X0261015Y0014720D01*
X0261082Y0014719D01*
X0261148Y0014714D01*
X0261214Y0014705D01*
X0261280Y0014692D01*
X0261344Y0014675D01*
X0261408Y0014655D01*
X0261470Y0014630D01*
X0261530Y0014602D01*
X0261589Y0014571D01*
X0261646Y0014536D01*
X0261700Y0014497D01*
X0261752Y0014456D01*
X0261802Y0014411D01*
X0261849Y0014364D01*
X0261892Y0014314D01*
X0261933Y0014261D01*
X0261971Y0014206D01*
X0262005Y0014149D01*
X0262036Y0014089D01*
X0262063Y0014028D01*
X0262086Y0013966D01*
X0262106Y0013902D01*
X0262122Y0013838D01*
X0262134Y0013772D01*
X0262142Y0013706D01*
X0262146Y0013639D01*
X0262146Y0013573D01*
X0262142Y0013506D01*
X0262134Y0013440D01*
X0262122Y0013374D01*
X0262106Y0013310D01*
X0262086Y0013246D01*
X0262063Y0013184D01*
X0262036Y0013123D01*
X0262005Y0013063D01*
X0261971Y0013006D01*
X0261933Y0012951D01*
X0261892Y0012898D01*
X0261849Y0012848D01*
X0261802Y0012801D01*
X0261752Y0012756D01*
X0261700Y0012715D01*
X0261646Y0012676D01*
X0261589Y0012641D01*
X0261530Y0012610D01*
X0261470Y0012582D01*
X0261408Y0012557D01*
X0261344Y0012537D01*
X0261280Y0012520D01*
X0261214Y0012507D01*
X0261148Y0012498D01*
X0261082Y0012493D01*
X0261015Y0012492D01*
X0260949Y0012495D01*
X0260882Y0012502D01*
X0260817Y0012513D01*
X0260752Y0012528D01*
X0260688Y0012547D01*
X0260625Y0012569D01*
X0260564Y0012595D01*
X0260504Y0012625D01*
X0260446Y0012658D01*
X0260391Y0012695D01*
X0260337Y0012735D01*
X0260287Y0012778D01*
X0260238Y0012824D01*
X0260193Y0012873D01*
X0260151Y0012925D01*
X0260112Y0012978D01*
X0260076Y0013035D01*
X0260043Y0013093D01*
X0260014Y0013153D01*
X0259989Y0013215D01*
X0259967Y0013278D01*
X0259950Y0013342D01*
X0259936Y0013407D01*
X0259926Y0013473D01*
X0259920Y0013539D01*
X0259918Y0013606D01*
X0229406Y0013606D02*
X0229408Y0013673D01*
X0229414Y0013739D01*
X0229424Y0013805D01*
X0229438Y0013870D01*
X0229455Y0013934D01*
X0229477Y0013997D01*
X0229502Y0014059D01*
X0229531Y0014119D01*
X0229564Y0014177D01*
X0229600Y0014234D01*
X0229639Y0014287D01*
X0229681Y0014339D01*
X0229726Y0014388D01*
X0229775Y0014434D01*
X0229825Y0014477D01*
X0229879Y0014517D01*
X0229934Y0014554D01*
X0229992Y0014587D01*
X0230052Y0014617D01*
X0230113Y0014643D01*
X0230176Y0014665D01*
X0230240Y0014684D01*
X0230305Y0014699D01*
X0230370Y0014710D01*
X0230437Y0014717D01*
X0230503Y0014720D01*
X0230570Y0014719D01*
X0230636Y0014714D01*
X0230702Y0014705D01*
X0230768Y0014692D01*
X0230832Y0014675D01*
X0230896Y0014655D01*
X0230958Y0014630D01*
X0231018Y0014602D01*
X0231077Y0014571D01*
X0231134Y0014536D01*
X0231188Y0014497D01*
X0231240Y0014456D01*
X0231290Y0014411D01*
X0231337Y0014364D01*
X0231380Y0014314D01*
X0231421Y0014261D01*
X0231459Y0014206D01*
X0231493Y0014149D01*
X0231524Y0014089D01*
X0231551Y0014028D01*
X0231574Y0013966D01*
X0231594Y0013902D01*
X0231610Y0013838D01*
X0231622Y0013772D01*
X0231630Y0013706D01*
X0231634Y0013639D01*
X0231634Y0013573D01*
X0231630Y0013506D01*
X0231622Y0013440D01*
X0231610Y0013374D01*
X0231594Y0013310D01*
X0231574Y0013246D01*
X0231551Y0013184D01*
X0231524Y0013123D01*
X0231493Y0013063D01*
X0231459Y0013006D01*
X0231421Y0012951D01*
X0231380Y0012898D01*
X0231337Y0012848D01*
X0231290Y0012801D01*
X0231240Y0012756D01*
X0231188Y0012715D01*
X0231134Y0012676D01*
X0231077Y0012641D01*
X0231018Y0012610D01*
X0230958Y0012582D01*
X0230896Y0012557D01*
X0230832Y0012537D01*
X0230768Y0012520D01*
X0230702Y0012507D01*
X0230636Y0012498D01*
X0230570Y0012493D01*
X0230503Y0012492D01*
X0230437Y0012495D01*
X0230370Y0012502D01*
X0230305Y0012513D01*
X0230240Y0012528D01*
X0230176Y0012547D01*
X0230113Y0012569D01*
X0230052Y0012595D01*
X0229992Y0012625D01*
X0229934Y0012658D01*
X0229879Y0012695D01*
X0229825Y0012735D01*
X0229775Y0012778D01*
X0229726Y0012824D01*
X0229681Y0012873D01*
X0229639Y0012925D01*
X0229600Y0012978D01*
X0229564Y0013035D01*
X0229531Y0013093D01*
X0229502Y0013153D01*
X0229477Y0013215D01*
X0229455Y0013278D01*
X0229438Y0013342D01*
X0229424Y0013407D01*
X0229414Y0013473D01*
X0229408Y0013539D01*
X0229406Y0013606D01*
X0198894Y0013606D02*
X0198896Y0013673D01*
X0198902Y0013739D01*
X0198912Y0013805D01*
X0198926Y0013870D01*
X0198943Y0013934D01*
X0198965Y0013997D01*
X0198990Y0014059D01*
X0199019Y0014119D01*
X0199052Y0014177D01*
X0199088Y0014234D01*
X0199127Y0014287D01*
X0199169Y0014339D01*
X0199214Y0014388D01*
X0199263Y0014434D01*
X0199313Y0014477D01*
X0199367Y0014517D01*
X0199422Y0014554D01*
X0199480Y0014587D01*
X0199540Y0014617D01*
X0199601Y0014643D01*
X0199664Y0014665D01*
X0199728Y0014684D01*
X0199793Y0014699D01*
X0199858Y0014710D01*
X0199925Y0014717D01*
X0199991Y0014720D01*
X0200058Y0014719D01*
X0200124Y0014714D01*
X0200190Y0014705D01*
X0200256Y0014692D01*
X0200320Y0014675D01*
X0200384Y0014655D01*
X0200446Y0014630D01*
X0200506Y0014602D01*
X0200565Y0014571D01*
X0200622Y0014536D01*
X0200676Y0014497D01*
X0200728Y0014456D01*
X0200778Y0014411D01*
X0200825Y0014364D01*
X0200868Y0014314D01*
X0200909Y0014261D01*
X0200947Y0014206D01*
X0200981Y0014149D01*
X0201012Y0014089D01*
X0201039Y0014028D01*
X0201062Y0013966D01*
X0201082Y0013902D01*
X0201098Y0013838D01*
X0201110Y0013772D01*
X0201118Y0013706D01*
X0201122Y0013639D01*
X0201122Y0013573D01*
X0201118Y0013506D01*
X0201110Y0013440D01*
X0201098Y0013374D01*
X0201082Y0013310D01*
X0201062Y0013246D01*
X0201039Y0013184D01*
X0201012Y0013123D01*
X0200981Y0013063D01*
X0200947Y0013006D01*
X0200909Y0012951D01*
X0200868Y0012898D01*
X0200825Y0012848D01*
X0200778Y0012801D01*
X0200728Y0012756D01*
X0200676Y0012715D01*
X0200622Y0012676D01*
X0200565Y0012641D01*
X0200506Y0012610D01*
X0200446Y0012582D01*
X0200384Y0012557D01*
X0200320Y0012537D01*
X0200256Y0012520D01*
X0200190Y0012507D01*
X0200124Y0012498D01*
X0200058Y0012493D01*
X0199991Y0012492D01*
X0199925Y0012495D01*
X0199858Y0012502D01*
X0199793Y0012513D01*
X0199728Y0012528D01*
X0199664Y0012547D01*
X0199601Y0012569D01*
X0199540Y0012595D01*
X0199480Y0012625D01*
X0199422Y0012658D01*
X0199367Y0012695D01*
X0199313Y0012735D01*
X0199263Y0012778D01*
X0199214Y0012824D01*
X0199169Y0012873D01*
X0199127Y0012925D01*
X0199088Y0012978D01*
X0199052Y0013035D01*
X0199019Y0013093D01*
X0198990Y0013153D01*
X0198965Y0013215D01*
X0198943Y0013278D01*
X0198926Y0013342D01*
X0198912Y0013407D01*
X0198902Y0013473D01*
X0198896Y0013539D01*
X0198894Y0013606D01*
X0168383Y0013606D02*
X0168385Y0013673D01*
X0168391Y0013739D01*
X0168401Y0013805D01*
X0168415Y0013870D01*
X0168432Y0013934D01*
X0168454Y0013997D01*
X0168479Y0014059D01*
X0168508Y0014119D01*
X0168541Y0014177D01*
X0168577Y0014234D01*
X0168616Y0014287D01*
X0168658Y0014339D01*
X0168703Y0014388D01*
X0168752Y0014434D01*
X0168802Y0014477D01*
X0168856Y0014517D01*
X0168911Y0014554D01*
X0168969Y0014587D01*
X0169029Y0014617D01*
X0169090Y0014643D01*
X0169153Y0014665D01*
X0169217Y0014684D01*
X0169282Y0014699D01*
X0169347Y0014710D01*
X0169414Y0014717D01*
X0169480Y0014720D01*
X0169547Y0014719D01*
X0169613Y0014714D01*
X0169679Y0014705D01*
X0169745Y0014692D01*
X0169809Y0014675D01*
X0169873Y0014655D01*
X0169935Y0014630D01*
X0169995Y0014602D01*
X0170054Y0014571D01*
X0170111Y0014536D01*
X0170165Y0014497D01*
X0170217Y0014456D01*
X0170267Y0014411D01*
X0170314Y0014364D01*
X0170357Y0014314D01*
X0170398Y0014261D01*
X0170436Y0014206D01*
X0170470Y0014149D01*
X0170501Y0014089D01*
X0170528Y0014028D01*
X0170551Y0013966D01*
X0170571Y0013902D01*
X0170587Y0013838D01*
X0170599Y0013772D01*
X0170607Y0013706D01*
X0170611Y0013639D01*
X0170611Y0013573D01*
X0170607Y0013506D01*
X0170599Y0013440D01*
X0170587Y0013374D01*
X0170571Y0013310D01*
X0170551Y0013246D01*
X0170528Y0013184D01*
X0170501Y0013123D01*
X0170470Y0013063D01*
X0170436Y0013006D01*
X0170398Y0012951D01*
X0170357Y0012898D01*
X0170314Y0012848D01*
X0170267Y0012801D01*
X0170217Y0012756D01*
X0170165Y0012715D01*
X0170111Y0012676D01*
X0170054Y0012641D01*
X0169995Y0012610D01*
X0169935Y0012582D01*
X0169873Y0012557D01*
X0169809Y0012537D01*
X0169745Y0012520D01*
X0169679Y0012507D01*
X0169613Y0012498D01*
X0169547Y0012493D01*
X0169480Y0012492D01*
X0169414Y0012495D01*
X0169347Y0012502D01*
X0169282Y0012513D01*
X0169217Y0012528D01*
X0169153Y0012547D01*
X0169090Y0012569D01*
X0169029Y0012595D01*
X0168969Y0012625D01*
X0168911Y0012658D01*
X0168856Y0012695D01*
X0168802Y0012735D01*
X0168752Y0012778D01*
X0168703Y0012824D01*
X0168658Y0012873D01*
X0168616Y0012925D01*
X0168577Y0012978D01*
X0168541Y0013035D01*
X0168508Y0013093D01*
X0168479Y0013153D01*
X0168454Y0013215D01*
X0168432Y0013278D01*
X0168415Y0013342D01*
X0168401Y0013407D01*
X0168391Y0013473D01*
X0168385Y0013539D01*
X0168383Y0013606D01*
X0137871Y0013606D02*
X0137873Y0013673D01*
X0137879Y0013739D01*
X0137889Y0013805D01*
X0137903Y0013870D01*
X0137920Y0013934D01*
X0137942Y0013997D01*
X0137967Y0014059D01*
X0137996Y0014119D01*
X0138029Y0014177D01*
X0138065Y0014234D01*
X0138104Y0014287D01*
X0138146Y0014339D01*
X0138191Y0014388D01*
X0138240Y0014434D01*
X0138290Y0014477D01*
X0138344Y0014517D01*
X0138399Y0014554D01*
X0138457Y0014587D01*
X0138517Y0014617D01*
X0138578Y0014643D01*
X0138641Y0014665D01*
X0138705Y0014684D01*
X0138770Y0014699D01*
X0138835Y0014710D01*
X0138902Y0014717D01*
X0138968Y0014720D01*
X0139035Y0014719D01*
X0139101Y0014714D01*
X0139167Y0014705D01*
X0139233Y0014692D01*
X0139297Y0014675D01*
X0139361Y0014655D01*
X0139423Y0014630D01*
X0139483Y0014602D01*
X0139542Y0014571D01*
X0139599Y0014536D01*
X0139653Y0014497D01*
X0139705Y0014456D01*
X0139755Y0014411D01*
X0139802Y0014364D01*
X0139845Y0014314D01*
X0139886Y0014261D01*
X0139924Y0014206D01*
X0139958Y0014149D01*
X0139989Y0014089D01*
X0140016Y0014028D01*
X0140039Y0013966D01*
X0140059Y0013902D01*
X0140075Y0013838D01*
X0140087Y0013772D01*
X0140095Y0013706D01*
X0140099Y0013639D01*
X0140099Y0013573D01*
X0140095Y0013506D01*
X0140087Y0013440D01*
X0140075Y0013374D01*
X0140059Y0013310D01*
X0140039Y0013246D01*
X0140016Y0013184D01*
X0139989Y0013123D01*
X0139958Y0013063D01*
X0139924Y0013006D01*
X0139886Y0012951D01*
X0139845Y0012898D01*
X0139802Y0012848D01*
X0139755Y0012801D01*
X0139705Y0012756D01*
X0139653Y0012715D01*
X0139599Y0012676D01*
X0139542Y0012641D01*
X0139483Y0012610D01*
X0139423Y0012582D01*
X0139361Y0012557D01*
X0139297Y0012537D01*
X0139233Y0012520D01*
X0139167Y0012507D01*
X0139101Y0012498D01*
X0139035Y0012493D01*
X0138968Y0012492D01*
X0138902Y0012495D01*
X0138835Y0012502D01*
X0138770Y0012513D01*
X0138705Y0012528D01*
X0138641Y0012547D01*
X0138578Y0012569D01*
X0138517Y0012595D01*
X0138457Y0012625D01*
X0138399Y0012658D01*
X0138344Y0012695D01*
X0138290Y0012735D01*
X0138240Y0012778D01*
X0138191Y0012824D01*
X0138146Y0012873D01*
X0138104Y0012925D01*
X0138065Y0012978D01*
X0138029Y0013035D01*
X0137996Y0013093D01*
X0137967Y0013153D01*
X0137942Y0013215D01*
X0137920Y0013278D01*
X0137903Y0013342D01*
X0137889Y0013407D01*
X0137879Y0013473D01*
X0137873Y0013539D01*
X0137871Y0013606D01*
X0107359Y0013606D02*
X0107361Y0013673D01*
X0107367Y0013739D01*
X0107377Y0013805D01*
X0107391Y0013870D01*
X0107408Y0013934D01*
X0107430Y0013997D01*
X0107455Y0014059D01*
X0107484Y0014119D01*
X0107517Y0014177D01*
X0107553Y0014234D01*
X0107592Y0014287D01*
X0107634Y0014339D01*
X0107679Y0014388D01*
X0107728Y0014434D01*
X0107778Y0014477D01*
X0107832Y0014517D01*
X0107887Y0014554D01*
X0107945Y0014587D01*
X0108005Y0014617D01*
X0108066Y0014643D01*
X0108129Y0014665D01*
X0108193Y0014684D01*
X0108258Y0014699D01*
X0108323Y0014710D01*
X0108390Y0014717D01*
X0108456Y0014720D01*
X0108523Y0014719D01*
X0108589Y0014714D01*
X0108655Y0014705D01*
X0108721Y0014692D01*
X0108785Y0014675D01*
X0108849Y0014655D01*
X0108911Y0014630D01*
X0108971Y0014602D01*
X0109030Y0014571D01*
X0109087Y0014536D01*
X0109141Y0014497D01*
X0109193Y0014456D01*
X0109243Y0014411D01*
X0109290Y0014364D01*
X0109333Y0014314D01*
X0109374Y0014261D01*
X0109412Y0014206D01*
X0109446Y0014149D01*
X0109477Y0014089D01*
X0109504Y0014028D01*
X0109527Y0013966D01*
X0109547Y0013902D01*
X0109563Y0013838D01*
X0109575Y0013772D01*
X0109583Y0013706D01*
X0109587Y0013639D01*
X0109587Y0013573D01*
X0109583Y0013506D01*
X0109575Y0013440D01*
X0109563Y0013374D01*
X0109547Y0013310D01*
X0109527Y0013246D01*
X0109504Y0013184D01*
X0109477Y0013123D01*
X0109446Y0013063D01*
X0109412Y0013006D01*
X0109374Y0012951D01*
X0109333Y0012898D01*
X0109290Y0012848D01*
X0109243Y0012801D01*
X0109193Y0012756D01*
X0109141Y0012715D01*
X0109087Y0012676D01*
X0109030Y0012641D01*
X0108971Y0012610D01*
X0108911Y0012582D01*
X0108849Y0012557D01*
X0108785Y0012537D01*
X0108721Y0012520D01*
X0108655Y0012507D01*
X0108589Y0012498D01*
X0108523Y0012493D01*
X0108456Y0012492D01*
X0108390Y0012495D01*
X0108323Y0012502D01*
X0108258Y0012513D01*
X0108193Y0012528D01*
X0108129Y0012547D01*
X0108066Y0012569D01*
X0108005Y0012595D01*
X0107945Y0012625D01*
X0107887Y0012658D01*
X0107832Y0012695D01*
X0107778Y0012735D01*
X0107728Y0012778D01*
X0107679Y0012824D01*
X0107634Y0012873D01*
X0107592Y0012925D01*
X0107553Y0012978D01*
X0107517Y0013035D01*
X0107484Y0013093D01*
X0107455Y0013153D01*
X0107430Y0013215D01*
X0107408Y0013278D01*
X0107391Y0013342D01*
X0107377Y0013407D01*
X0107367Y0013473D01*
X0107361Y0013539D01*
X0107359Y0013606D01*
X0076847Y0013606D02*
X0076849Y0013673D01*
X0076855Y0013739D01*
X0076865Y0013805D01*
X0076879Y0013870D01*
X0076896Y0013934D01*
X0076918Y0013997D01*
X0076943Y0014059D01*
X0076972Y0014119D01*
X0077005Y0014177D01*
X0077041Y0014234D01*
X0077080Y0014287D01*
X0077122Y0014339D01*
X0077167Y0014388D01*
X0077216Y0014434D01*
X0077266Y0014477D01*
X0077320Y0014517D01*
X0077375Y0014554D01*
X0077433Y0014587D01*
X0077493Y0014617D01*
X0077554Y0014643D01*
X0077617Y0014665D01*
X0077681Y0014684D01*
X0077746Y0014699D01*
X0077811Y0014710D01*
X0077878Y0014717D01*
X0077944Y0014720D01*
X0078011Y0014719D01*
X0078077Y0014714D01*
X0078143Y0014705D01*
X0078209Y0014692D01*
X0078273Y0014675D01*
X0078337Y0014655D01*
X0078399Y0014630D01*
X0078459Y0014602D01*
X0078518Y0014571D01*
X0078575Y0014536D01*
X0078629Y0014497D01*
X0078681Y0014456D01*
X0078731Y0014411D01*
X0078778Y0014364D01*
X0078821Y0014314D01*
X0078862Y0014261D01*
X0078900Y0014206D01*
X0078934Y0014149D01*
X0078965Y0014089D01*
X0078992Y0014028D01*
X0079015Y0013966D01*
X0079035Y0013902D01*
X0079051Y0013838D01*
X0079063Y0013772D01*
X0079071Y0013706D01*
X0079075Y0013639D01*
X0079075Y0013573D01*
X0079071Y0013506D01*
X0079063Y0013440D01*
X0079051Y0013374D01*
X0079035Y0013310D01*
X0079015Y0013246D01*
X0078992Y0013184D01*
X0078965Y0013123D01*
X0078934Y0013063D01*
X0078900Y0013006D01*
X0078862Y0012951D01*
X0078821Y0012898D01*
X0078778Y0012848D01*
X0078731Y0012801D01*
X0078681Y0012756D01*
X0078629Y0012715D01*
X0078575Y0012676D01*
X0078518Y0012641D01*
X0078459Y0012610D01*
X0078399Y0012582D01*
X0078337Y0012557D01*
X0078273Y0012537D01*
X0078209Y0012520D01*
X0078143Y0012507D01*
X0078077Y0012498D01*
X0078011Y0012493D01*
X0077944Y0012492D01*
X0077878Y0012495D01*
X0077811Y0012502D01*
X0077746Y0012513D01*
X0077681Y0012528D01*
X0077617Y0012547D01*
X0077554Y0012569D01*
X0077493Y0012595D01*
X0077433Y0012625D01*
X0077375Y0012658D01*
X0077320Y0012695D01*
X0077266Y0012735D01*
X0077216Y0012778D01*
X0077167Y0012824D01*
X0077122Y0012873D01*
X0077080Y0012925D01*
X0077041Y0012978D01*
X0077005Y0013035D01*
X0076972Y0013093D01*
X0076943Y0013153D01*
X0076918Y0013215D01*
X0076896Y0013278D01*
X0076879Y0013342D01*
X0076865Y0013407D01*
X0076855Y0013473D01*
X0076849Y0013539D01*
X0076847Y0013606D01*
X0046335Y0013606D02*
X0046337Y0013673D01*
X0046343Y0013739D01*
X0046353Y0013805D01*
X0046367Y0013870D01*
X0046384Y0013934D01*
X0046406Y0013997D01*
X0046431Y0014059D01*
X0046460Y0014119D01*
X0046493Y0014177D01*
X0046529Y0014234D01*
X0046568Y0014287D01*
X0046610Y0014339D01*
X0046655Y0014388D01*
X0046704Y0014434D01*
X0046754Y0014477D01*
X0046808Y0014517D01*
X0046863Y0014554D01*
X0046921Y0014587D01*
X0046981Y0014617D01*
X0047042Y0014643D01*
X0047105Y0014665D01*
X0047169Y0014684D01*
X0047234Y0014699D01*
X0047299Y0014710D01*
X0047366Y0014717D01*
X0047432Y0014720D01*
X0047499Y0014719D01*
X0047565Y0014714D01*
X0047631Y0014705D01*
X0047697Y0014692D01*
X0047761Y0014675D01*
X0047825Y0014655D01*
X0047887Y0014630D01*
X0047947Y0014602D01*
X0048006Y0014571D01*
X0048063Y0014536D01*
X0048117Y0014497D01*
X0048169Y0014456D01*
X0048219Y0014411D01*
X0048266Y0014364D01*
X0048309Y0014314D01*
X0048350Y0014261D01*
X0048388Y0014206D01*
X0048422Y0014149D01*
X0048453Y0014089D01*
X0048480Y0014028D01*
X0048503Y0013966D01*
X0048523Y0013902D01*
X0048539Y0013838D01*
X0048551Y0013772D01*
X0048559Y0013706D01*
X0048563Y0013639D01*
X0048563Y0013573D01*
X0048559Y0013506D01*
X0048551Y0013440D01*
X0048539Y0013374D01*
X0048523Y0013310D01*
X0048503Y0013246D01*
X0048480Y0013184D01*
X0048453Y0013123D01*
X0048422Y0013063D01*
X0048388Y0013006D01*
X0048350Y0012951D01*
X0048309Y0012898D01*
X0048266Y0012848D01*
X0048219Y0012801D01*
X0048169Y0012756D01*
X0048117Y0012715D01*
X0048063Y0012676D01*
X0048006Y0012641D01*
X0047947Y0012610D01*
X0047887Y0012582D01*
X0047825Y0012557D01*
X0047761Y0012537D01*
X0047697Y0012520D01*
X0047631Y0012507D01*
X0047565Y0012498D01*
X0047499Y0012493D01*
X0047432Y0012492D01*
X0047366Y0012495D01*
X0047299Y0012502D01*
X0047234Y0012513D01*
X0047169Y0012528D01*
X0047105Y0012547D01*
X0047042Y0012569D01*
X0046981Y0012595D01*
X0046921Y0012625D01*
X0046863Y0012658D01*
X0046808Y0012695D01*
X0046754Y0012735D01*
X0046704Y0012778D01*
X0046655Y0012824D01*
X0046610Y0012873D01*
X0046568Y0012925D01*
X0046529Y0012978D01*
X0046493Y0013035D01*
X0046460Y0013093D01*
X0046431Y0013153D01*
X0046406Y0013215D01*
X0046384Y0013278D01*
X0046367Y0013342D01*
X0046353Y0013407D01*
X0046343Y0013473D01*
X0046337Y0013539D01*
X0046335Y0013606D01*
X0015824Y0013606D02*
X0015826Y0013673D01*
X0015832Y0013739D01*
X0015842Y0013805D01*
X0015856Y0013870D01*
X0015873Y0013934D01*
X0015895Y0013997D01*
X0015920Y0014059D01*
X0015949Y0014119D01*
X0015982Y0014177D01*
X0016018Y0014234D01*
X0016057Y0014287D01*
X0016099Y0014339D01*
X0016144Y0014388D01*
X0016193Y0014434D01*
X0016243Y0014477D01*
X0016297Y0014517D01*
X0016352Y0014554D01*
X0016410Y0014587D01*
X0016470Y0014617D01*
X0016531Y0014643D01*
X0016594Y0014665D01*
X0016658Y0014684D01*
X0016723Y0014699D01*
X0016788Y0014710D01*
X0016855Y0014717D01*
X0016921Y0014720D01*
X0016988Y0014719D01*
X0017054Y0014714D01*
X0017120Y0014705D01*
X0017186Y0014692D01*
X0017250Y0014675D01*
X0017314Y0014655D01*
X0017376Y0014630D01*
X0017436Y0014602D01*
X0017495Y0014571D01*
X0017552Y0014536D01*
X0017606Y0014497D01*
X0017658Y0014456D01*
X0017708Y0014411D01*
X0017755Y0014364D01*
X0017798Y0014314D01*
X0017839Y0014261D01*
X0017877Y0014206D01*
X0017911Y0014149D01*
X0017942Y0014089D01*
X0017969Y0014028D01*
X0017992Y0013966D01*
X0018012Y0013902D01*
X0018028Y0013838D01*
X0018040Y0013772D01*
X0018048Y0013706D01*
X0018052Y0013639D01*
X0018052Y0013573D01*
X0018048Y0013506D01*
X0018040Y0013440D01*
X0018028Y0013374D01*
X0018012Y0013310D01*
X0017992Y0013246D01*
X0017969Y0013184D01*
X0017942Y0013123D01*
X0017911Y0013063D01*
X0017877Y0013006D01*
X0017839Y0012951D01*
X0017798Y0012898D01*
X0017755Y0012848D01*
X0017708Y0012801D01*
X0017658Y0012756D01*
X0017606Y0012715D01*
X0017552Y0012676D01*
X0017495Y0012641D01*
X0017436Y0012610D01*
X0017376Y0012582D01*
X0017314Y0012557D01*
X0017250Y0012537D01*
X0017186Y0012520D01*
X0017120Y0012507D01*
X0017054Y0012498D01*
X0016988Y0012493D01*
X0016921Y0012492D01*
X0016855Y0012495D01*
X0016788Y0012502D01*
X0016723Y0012513D01*
X0016658Y0012528D01*
X0016594Y0012547D01*
X0016531Y0012569D01*
X0016470Y0012595D01*
X0016410Y0012625D01*
X0016352Y0012658D01*
X0016297Y0012695D01*
X0016243Y0012735D01*
X0016193Y0012778D01*
X0016144Y0012824D01*
X0016099Y0012873D01*
X0016057Y0012925D01*
X0016018Y0012978D01*
X0015982Y0013035D01*
X0015949Y0013093D01*
X0015920Y0013153D01*
X0015895Y0013215D01*
X0015873Y0013278D01*
X0015856Y0013342D01*
X0015842Y0013407D01*
X0015832Y0013473D01*
X0015826Y0013539D01*
X0015824Y0013606D01*
D14*
X0036327Y0005437D03*
X0066839Y0005437D03*
X0097351Y0005437D03*
X0127863Y0005437D03*
X0158375Y0005437D03*
X0188886Y0005437D03*
X0219398Y0005437D03*
X0249910Y0005437D03*
X0280422Y0005437D03*
X0310934Y0005437D03*
X0341445Y0005437D03*
X0371957Y0005437D03*
X0402469Y0005437D03*
X0432981Y0005437D03*
X0463493Y0005437D03*
X0494004Y0005437D03*
X0524516Y0005437D03*
X0555028Y0005437D03*
X0585540Y0005437D03*
X0616052Y0005437D03*
X0646563Y0005437D03*
X0677075Y0005437D03*
X0707587Y0005437D03*
X0738099Y0005437D03*
X0768611Y0005437D03*
X0799123Y0005437D03*
X0829634Y0005437D03*
X0860146Y0005437D03*
X0890658Y0005437D03*
X0921170Y0005437D03*
X0951682Y0005437D03*
X0982193Y0005437D03*
X0982686Y0028075D03*
X0952174Y0028075D03*
X0921662Y0028075D03*
X0891150Y0028075D03*
X0860638Y0028075D03*
X0830126Y0028075D03*
X0799615Y0028075D03*
X0769103Y0028075D03*
X0738591Y0028075D03*
X0708079Y0028075D03*
X0677567Y0028075D03*
X0647056Y0028075D03*
X0616544Y0028075D03*
X0586032Y0028075D03*
X0555520Y0028075D03*
X0525008Y0028075D03*
X0494497Y0028075D03*
X0463985Y0028075D03*
X0433473Y0028075D03*
X0402961Y0028075D03*
X0372449Y0028075D03*
X0341938Y0028075D03*
X0311426Y0028075D03*
X0280914Y0028075D03*
X0250402Y0028075D03*
X0219890Y0028075D03*
X0189378Y0028075D03*
X0158867Y0028075D03*
X0128355Y0028075D03*
X0097843Y0028075D03*
X0067331Y0028075D03*
X0036819Y0028075D03*
X0042626Y0030142D03*
X0012115Y0030142D03*
X0073138Y0030142D03*
X0103650Y0030142D03*
X0134162Y0030142D03*
X0164674Y0030142D03*
X0195186Y0030142D03*
X0225697Y0030142D03*
X0256209Y0030142D03*
X0286721Y0030142D03*
X0317233Y0030142D03*
X0347745Y0030142D03*
X0378256Y0030142D03*
X0408768Y0030142D03*
X0439280Y0030142D03*
X0469792Y0030142D03*
X0500304Y0030142D03*
X0530815Y0030142D03*
X0561327Y0030142D03*
X0591839Y0030142D03*
X0622351Y0030142D03*
X0652863Y0030142D03*
X0683375Y0030142D03*
X0713886Y0030142D03*
X0744398Y0030142D03*
X0774910Y0030142D03*
X0805422Y0030142D03*
X0835934Y0030142D03*
X0866445Y0030142D03*
X0896957Y0030142D03*
X0927469Y0030142D03*
X0957981Y0030142D03*
M02*
