G75*
%MOIN*%
%OFA0B0*%
%FSLAX25Y25*%
%IPPOS*%
%LPD*%
%AMOC8*
5,1,8,0,0,1.08239X$1,22.5*
%
%ADD10C,0.04000*%
%ADD11OC8,0.02381*%
%ADD12C,0.00787*%
D10*
X0019634Y0006717D03*
X0029398Y0006717D03*
X0050146Y0006717D03*
X0059910Y0006717D03*
X0080658Y0006717D03*
X0090422Y0006717D03*
X0111170Y0006717D03*
X0120934Y0006717D03*
X0141682Y0006717D03*
X0151445Y0006717D03*
X0172193Y0006717D03*
X0181957Y0006717D03*
X0202705Y0006717D03*
X0212469Y0006717D03*
X0233217Y0006717D03*
X0242981Y0006717D03*
X0263729Y0006717D03*
X0273493Y0006717D03*
X0294241Y0006717D03*
X0304004Y0006717D03*
X0324752Y0006717D03*
X0334516Y0006717D03*
X0355264Y0006717D03*
X0365028Y0006717D03*
X0385776Y0006717D03*
X0395540Y0006717D03*
X0416288Y0006717D03*
X0426052Y0006717D03*
X0446800Y0006717D03*
X0456563Y0006717D03*
X0477312Y0006717D03*
X0487075Y0006717D03*
X0507823Y0006717D03*
X0517587Y0006717D03*
X0538335Y0006717D03*
X0548099Y0006717D03*
X0568847Y0006717D03*
X0578611Y0006717D03*
X0599359Y0006717D03*
X0609123Y0006717D03*
X0629871Y0006717D03*
X0639634Y0006717D03*
X0660382Y0006717D03*
X0670146Y0006717D03*
X0690894Y0006717D03*
X0700658Y0006717D03*
X0721406Y0006717D03*
X0731170Y0006717D03*
X0751918Y0006717D03*
X0761682Y0006717D03*
X0782430Y0006717D03*
X0792193Y0006717D03*
X0812941Y0006717D03*
X0822705Y0006717D03*
X0843453Y0006717D03*
X0853217Y0006717D03*
X0873965Y0006717D03*
X0883729Y0006717D03*
X0904477Y0006717D03*
X0914241Y0006717D03*
X0934989Y0006717D03*
X0944752Y0006717D03*
X0965501Y0006717D03*
X0975264Y0006717D03*
D11*
X0973827Y0012327D03*
X0943315Y0012327D03*
X0912804Y0012327D03*
X0882292Y0012327D03*
X0851780Y0012327D03*
X0821268Y0012327D03*
X0790756Y0012327D03*
X0760245Y0012327D03*
X0729733Y0012327D03*
X0699221Y0012327D03*
X0668709Y0012327D03*
X0638197Y0012327D03*
X0607686Y0012327D03*
X0577174Y0012327D03*
X0546662Y0012327D03*
X0516150Y0012327D03*
X0485638Y0012327D03*
X0455126Y0012327D03*
X0424615Y0012327D03*
X0394103Y0012327D03*
X0363591Y0012327D03*
X0333079Y0012327D03*
X0302567Y0012327D03*
X0272056Y0012327D03*
X0241544Y0012327D03*
X0211032Y0012327D03*
X0180520Y0012327D03*
X0150008Y0012327D03*
X0119497Y0012327D03*
X0088985Y0012327D03*
X0058473Y0012327D03*
X0027961Y0012327D03*
X0026977Y0018232D03*
X0057489Y0018232D03*
X0088001Y0018232D03*
X0118512Y0018232D03*
X0149024Y0018232D03*
X0179536Y0018232D03*
X0210048Y0018232D03*
X0240560Y0018232D03*
X0271071Y0018232D03*
X0301583Y0018232D03*
X0332095Y0018232D03*
X0362607Y0018232D03*
X0393119Y0018232D03*
X0423630Y0018232D03*
X0454142Y0018232D03*
X0484654Y0018232D03*
X0515166Y0018232D03*
X0545678Y0018232D03*
X0576189Y0018232D03*
X0606701Y0018232D03*
X0637213Y0018232D03*
X0667725Y0018232D03*
X0698237Y0018232D03*
X0728749Y0018232D03*
X0759260Y0018232D03*
X0789772Y0018232D03*
X0820284Y0018232D03*
X0850796Y0018232D03*
X0881308Y0018232D03*
X0911819Y0018232D03*
X0942331Y0018232D03*
X0972843Y0018232D03*
X0969398Y0020201D03*
X0963493Y0020201D03*
X0975796Y0020693D03*
X0945284Y0020693D03*
X0938886Y0020201D03*
X0932981Y0020201D03*
X0914772Y0020693D03*
X0908375Y0020201D03*
X0902469Y0020201D03*
X0884260Y0020693D03*
X0877863Y0020201D03*
X0871957Y0020201D03*
X0853749Y0020693D03*
X0847351Y0020201D03*
X0841445Y0020201D03*
X0823237Y0020693D03*
X0816839Y0020201D03*
X0810934Y0020201D03*
X0792725Y0020693D03*
X0786327Y0020201D03*
X0780422Y0020201D03*
X0762213Y0020693D03*
X0755815Y0020201D03*
X0749910Y0020201D03*
X0731701Y0020693D03*
X0725304Y0020201D03*
X0719398Y0020201D03*
X0701189Y0020693D03*
X0694792Y0020201D03*
X0688886Y0020201D03*
X0670678Y0020693D03*
X0664280Y0020201D03*
X0658375Y0020201D03*
X0640166Y0020693D03*
X0633768Y0020201D03*
X0627863Y0020201D03*
X0609654Y0020693D03*
X0603256Y0020201D03*
X0597351Y0020201D03*
X0579142Y0020693D03*
X0572745Y0020201D03*
X0566839Y0020201D03*
X0548630Y0020693D03*
X0542233Y0020201D03*
X0536327Y0020201D03*
X0518119Y0020693D03*
X0511721Y0020201D03*
X0505815Y0020201D03*
X0487607Y0020693D03*
X0481209Y0020201D03*
X0475304Y0020201D03*
X0457095Y0020693D03*
X0450697Y0020201D03*
X0444792Y0020201D03*
X0426583Y0020693D03*
X0420186Y0020201D03*
X0414280Y0020201D03*
X0396071Y0020693D03*
X0389674Y0020201D03*
X0383768Y0020201D03*
X0365560Y0020693D03*
X0359162Y0020201D03*
X0353256Y0020201D03*
X0335048Y0020693D03*
X0328650Y0020201D03*
X0322745Y0020201D03*
X0304536Y0020693D03*
X0298138Y0020201D03*
X0292233Y0020201D03*
X0274024Y0020693D03*
X0267626Y0020201D03*
X0261721Y0020201D03*
X0243512Y0020693D03*
X0237115Y0020201D03*
X0231209Y0020201D03*
X0213001Y0020693D03*
X0206603Y0020201D03*
X0200697Y0020201D03*
X0182489Y0020693D03*
X0176091Y0020201D03*
X0170186Y0020201D03*
X0151977Y0020693D03*
X0145579Y0020201D03*
X0139674Y0020201D03*
X0121465Y0020693D03*
X0115067Y0020201D03*
X0109162Y0020201D03*
X0090953Y0020693D03*
X0084556Y0020201D03*
X0078650Y0020201D03*
X0060441Y0020693D03*
X0054044Y0020201D03*
X0048138Y0020201D03*
X0029930Y0020693D03*
X0023532Y0020201D03*
X0017626Y0020201D03*
X0011130Y0024138D03*
X0036819Y0024886D03*
X0041642Y0024138D03*
X0067331Y0024886D03*
X0072154Y0024138D03*
X0097843Y0024886D03*
X0102666Y0024138D03*
X0128355Y0024886D03*
X0133178Y0024138D03*
X0158867Y0024886D03*
X0163689Y0024138D03*
X0189378Y0024886D03*
X0194201Y0024138D03*
X0219890Y0024886D03*
X0224713Y0024138D03*
X0250402Y0024886D03*
X0255225Y0024138D03*
X0280914Y0024886D03*
X0285737Y0024138D03*
X0311426Y0024886D03*
X0316249Y0024138D03*
X0341938Y0024886D03*
X0346760Y0024138D03*
X0372449Y0024886D03*
X0377272Y0024138D03*
X0402961Y0024886D03*
X0407784Y0024138D03*
X0433473Y0024886D03*
X0438296Y0024138D03*
X0463985Y0024886D03*
X0468808Y0024138D03*
X0494497Y0024886D03*
X0499319Y0024138D03*
X0525008Y0024886D03*
X0529831Y0024138D03*
X0555520Y0024886D03*
X0560343Y0024138D03*
X0586032Y0024886D03*
X0590855Y0024138D03*
X0616544Y0024886D03*
X0621367Y0024138D03*
X0647056Y0024886D03*
X0651878Y0024138D03*
X0677567Y0024886D03*
X0682390Y0024138D03*
X0708079Y0024886D03*
X0712902Y0024138D03*
X0738591Y0024886D03*
X0743414Y0024138D03*
X0769103Y0024886D03*
X0773926Y0024138D03*
X0799615Y0024886D03*
X0804438Y0024138D03*
X0830126Y0024886D03*
X0834949Y0024138D03*
X0860638Y0024886D03*
X0865461Y0024138D03*
X0891150Y0024886D03*
X0895973Y0024138D03*
X0921662Y0024886D03*
X0926485Y0024138D03*
X0952174Y0024886D03*
X0956997Y0024138D03*
X0982686Y0024886D03*
D12*
X0019142Y0006717D02*
X0015825Y0010033D01*
X0021071Y0015280D01*
X0028945Y0015280D01*
X0029930Y0016264D01*
X0029930Y0020693D01*
X0029201Y0024886D02*
X0024516Y0020201D01*
X0023532Y0020201D01*
X0022056Y0017248D02*
X0019103Y0020201D01*
X0017626Y0020201D01*
X0048138Y0020201D02*
X0049615Y0020201D01*
X0052567Y0017248D01*
X0057489Y0017248D01*
X0057489Y0018232D01*
X0080126Y0020201D02*
X0083079Y0017248D01*
X0088001Y0017248D01*
X0088001Y0018232D01*
X0110638Y0020201D02*
X0113591Y0017248D01*
X0118512Y0017248D01*
X0118512Y0018232D01*
X0141150Y0020201D02*
X0144103Y0017248D01*
X0149024Y0017248D01*
X0149024Y0018232D01*
X0171662Y0020201D02*
X0174615Y0017248D01*
X0179536Y0017248D01*
X0179536Y0018232D01*
X0202174Y0020201D02*
X0205126Y0017248D01*
X0210048Y0017248D01*
X0210048Y0018232D01*
X0232686Y0020201D02*
X0235638Y0017248D01*
X0240560Y0017248D01*
X0240560Y0018232D01*
X0263197Y0020201D02*
X0266150Y0017248D01*
X0271071Y0017248D01*
X0271071Y0018232D01*
X0293709Y0020201D02*
X0296662Y0017248D01*
X0301583Y0017248D01*
X0301583Y0018232D01*
X0324221Y0020201D02*
X0327174Y0017248D01*
X0332095Y0017248D01*
X0332095Y0018232D01*
X0354733Y0020201D02*
X0357686Y0017248D01*
X0362607Y0017248D01*
X0362607Y0018232D01*
X0385245Y0020201D02*
X0388197Y0017248D01*
X0393119Y0017248D01*
X0393119Y0018232D01*
X0415756Y0020201D02*
X0418709Y0017248D01*
X0423630Y0017248D01*
X0423630Y0018232D01*
X0446268Y0020201D02*
X0449221Y0017248D01*
X0454142Y0017248D01*
X0454142Y0018232D01*
X0476780Y0020201D02*
X0479733Y0017248D01*
X0484654Y0017248D01*
X0484654Y0018232D01*
X0507292Y0020201D02*
X0510245Y0017248D01*
X0515166Y0017248D01*
X0515166Y0018232D01*
X0537804Y0020201D02*
X0540756Y0017248D01*
X0545678Y0017248D01*
X0545678Y0018232D01*
X0568315Y0020201D02*
X0571268Y0017248D01*
X0576189Y0017248D01*
X0576189Y0018232D01*
X0598827Y0020201D02*
X0601780Y0017248D01*
X0606701Y0017248D01*
X0606701Y0018232D01*
X0629339Y0020201D02*
X0632292Y0017248D01*
X0637213Y0017248D01*
X0637213Y0018232D01*
X0659851Y0020201D02*
X0662804Y0017248D01*
X0667725Y0017248D01*
X0667725Y0018232D01*
X0690363Y0020201D02*
X0693315Y0017248D01*
X0698237Y0017248D01*
X0698237Y0018232D01*
X0720875Y0020201D02*
X0723827Y0017248D01*
X0728749Y0017248D01*
X0728749Y0018232D01*
X0751386Y0020201D02*
X0754339Y0017248D01*
X0759260Y0017248D01*
X0759260Y0018232D01*
X0781898Y0020201D02*
X0784851Y0017248D01*
X0789772Y0017248D01*
X0789772Y0018232D01*
X0812410Y0020201D02*
X0815363Y0017248D01*
X0820284Y0017248D01*
X0820284Y0018232D01*
X0842922Y0020201D02*
X0845875Y0017248D01*
X0850796Y0017248D01*
X0850796Y0018232D01*
X0873434Y0020201D02*
X0876386Y0017248D01*
X0881308Y0017248D01*
X0881308Y0018232D01*
X0903945Y0020201D02*
X0906898Y0017248D01*
X0911819Y0017248D01*
X0911819Y0018232D01*
X0934457Y0020201D02*
X0937410Y0017248D01*
X0942331Y0017248D01*
X0942331Y0018232D01*
X0964969Y0020201D02*
X0967922Y0017248D01*
X0972843Y0017248D01*
X0972843Y0018232D01*
X0975796Y0016264D02*
X0974812Y0015280D01*
X0966938Y0015280D01*
X0961691Y0010033D01*
X0965008Y0006717D01*
X0965501Y0006717D01*
X0975264Y0006717D02*
X0975264Y0010890D01*
X0973827Y0012327D01*
X0944752Y0010890D02*
X0943315Y0012327D01*
X0914241Y0010890D02*
X0912804Y0012327D01*
X0883729Y0010890D02*
X0882292Y0012327D01*
X0853217Y0010890D02*
X0851780Y0012327D01*
X0822705Y0010890D02*
X0821268Y0012327D01*
X0822705Y0010890D02*
X0822705Y0006717D01*
X0812941Y0006717D02*
X0812449Y0006717D01*
X0809132Y0010033D01*
X0814378Y0015280D01*
X0822252Y0015280D01*
X0823237Y0016264D01*
X0823237Y0020693D01*
X0822508Y0024886D02*
X0817823Y0020201D01*
X0816839Y0020201D01*
X0812410Y0020201D02*
X0810934Y0020201D01*
X0792725Y0020693D02*
X0792725Y0016264D01*
X0791741Y0015280D01*
X0783867Y0015280D01*
X0778621Y0010033D01*
X0781938Y0006717D01*
X0782430Y0006717D01*
X0792193Y0006717D02*
X0792193Y0010890D01*
X0790756Y0012327D01*
X0761682Y0010890D02*
X0760245Y0012327D01*
X0731170Y0010890D02*
X0729733Y0012327D01*
X0700658Y0010890D02*
X0699221Y0012327D01*
X0670146Y0010890D02*
X0668709Y0012327D01*
X0639634Y0010890D02*
X0638197Y0012327D01*
X0609123Y0010890D02*
X0607686Y0012327D01*
X0578611Y0010890D02*
X0577174Y0012327D01*
X0548099Y0010890D02*
X0546662Y0012327D01*
X0517587Y0010890D02*
X0516150Y0012327D01*
X0487075Y0010890D02*
X0485638Y0012327D01*
X0456563Y0010890D02*
X0455126Y0012327D01*
X0456563Y0010890D02*
X0456563Y0006717D01*
X0446800Y0006717D02*
X0446308Y0006717D01*
X0442991Y0010033D01*
X0448237Y0015280D01*
X0456111Y0015280D01*
X0457095Y0016264D01*
X0457095Y0020693D01*
X0456367Y0024886D02*
X0451682Y0020201D01*
X0450697Y0020201D01*
X0446268Y0020201D02*
X0444792Y0020201D01*
X0426583Y0020693D02*
X0426583Y0016264D01*
X0425599Y0015280D01*
X0417725Y0015280D01*
X0412479Y0010033D01*
X0415796Y0006717D01*
X0416288Y0006717D01*
X0426052Y0006717D02*
X0426052Y0010890D01*
X0424615Y0012327D01*
X0395540Y0010890D02*
X0394103Y0012327D01*
X0365028Y0010890D02*
X0363591Y0012327D01*
X0334516Y0010890D02*
X0333079Y0012327D01*
X0304004Y0010890D02*
X0302567Y0012327D01*
X0273493Y0010890D02*
X0272056Y0012327D01*
X0242981Y0010890D02*
X0241544Y0012327D01*
X0212469Y0010890D02*
X0211032Y0012327D01*
X0181957Y0010890D02*
X0180520Y0012327D01*
X0151445Y0010890D02*
X0150008Y0012327D01*
X0120934Y0010890D02*
X0119497Y0012327D01*
X0090422Y0010890D02*
X0088985Y0012327D01*
X0090422Y0010890D02*
X0090422Y0006717D01*
X0080658Y0006717D02*
X0080166Y0006717D01*
X0076849Y0010033D01*
X0082095Y0015280D01*
X0089969Y0015280D01*
X0090953Y0016264D01*
X0090953Y0020693D01*
X0090225Y0024886D02*
X0085540Y0020201D01*
X0084556Y0020201D01*
X0080126Y0020201D02*
X0078650Y0020201D01*
X0060441Y0020693D02*
X0060441Y0016264D01*
X0059457Y0015280D01*
X0051583Y0015280D01*
X0046337Y0010033D01*
X0049654Y0006717D01*
X0050146Y0006717D01*
X0059910Y0006717D02*
X0059910Y0010890D01*
X0058473Y0012327D01*
X0029398Y0010890D02*
X0027961Y0012327D01*
X0029398Y0010890D02*
X0029398Y0006717D01*
X0019634Y0006717D02*
X0019142Y0006717D01*
X0015825Y0010033D02*
X0011130Y0014728D01*
X0011130Y0024138D01*
X0029201Y0024886D02*
X0036819Y0024886D01*
X0041642Y0024138D02*
X0041642Y0014728D01*
X0046337Y0010033D01*
X0072154Y0014728D02*
X0076849Y0010033D01*
X0102666Y0014728D02*
X0107361Y0010033D01*
X0112607Y0015280D01*
X0120481Y0015280D01*
X0121465Y0016264D01*
X0121465Y0020693D01*
X0120737Y0024886D02*
X0116052Y0020201D01*
X0115067Y0020201D01*
X0110638Y0020201D02*
X0109162Y0020201D01*
X0139674Y0020201D02*
X0141150Y0020201D01*
X0145579Y0020201D02*
X0146563Y0020201D01*
X0151249Y0024886D01*
X0158867Y0024886D01*
X0163689Y0024138D02*
X0163689Y0014728D01*
X0168384Y0010033D01*
X0173630Y0015280D01*
X0181504Y0015280D01*
X0182489Y0016264D01*
X0182489Y0020693D01*
X0181760Y0024886D02*
X0177075Y0020201D01*
X0176091Y0020201D01*
X0171662Y0020201D02*
X0170186Y0020201D01*
X0151977Y0020693D02*
X0151977Y0016264D01*
X0150993Y0015280D01*
X0143119Y0015280D01*
X0137873Y0010033D01*
X0141189Y0006717D01*
X0141682Y0006717D01*
X0151445Y0006717D02*
X0151445Y0010890D01*
X0137873Y0010033D02*
X0133178Y0014728D01*
X0133178Y0024138D01*
X0128355Y0024886D02*
X0120737Y0024886D01*
X0102666Y0024138D02*
X0102666Y0014728D01*
X0072154Y0014728D02*
X0072154Y0024138D01*
X0067331Y0024886D02*
X0059713Y0024886D01*
X0055028Y0020201D01*
X0054044Y0020201D01*
X0026977Y0018232D02*
X0026977Y0017248D01*
X0022056Y0017248D01*
X0120934Y0010890D02*
X0120934Y0006717D01*
X0111170Y0006717D02*
X0110678Y0006717D01*
X0107361Y0010033D01*
X0168384Y0010033D02*
X0171701Y0006717D01*
X0172193Y0006717D01*
X0181957Y0006717D02*
X0181957Y0010890D01*
X0194201Y0014728D02*
X0198896Y0010033D01*
X0204142Y0015280D01*
X0212016Y0015280D01*
X0213001Y0016264D01*
X0213001Y0020693D01*
X0212272Y0024886D02*
X0207587Y0020201D01*
X0206603Y0020201D01*
X0202174Y0020201D02*
X0200697Y0020201D01*
X0231209Y0020201D02*
X0232686Y0020201D01*
X0237115Y0020201D02*
X0238099Y0020201D01*
X0242784Y0024886D01*
X0250402Y0024886D01*
X0255225Y0024138D02*
X0255225Y0014728D01*
X0259920Y0010033D01*
X0265166Y0015280D01*
X0273040Y0015280D01*
X0274024Y0016264D01*
X0274024Y0020693D01*
X0273296Y0024886D02*
X0268611Y0020201D01*
X0267626Y0020201D01*
X0263197Y0020201D02*
X0261721Y0020201D01*
X0243512Y0020693D02*
X0243512Y0016264D01*
X0242528Y0015280D01*
X0234654Y0015280D01*
X0229408Y0010033D01*
X0232725Y0006717D01*
X0233217Y0006717D01*
X0242981Y0006717D02*
X0242981Y0010890D01*
X0229408Y0010033D02*
X0224713Y0014728D01*
X0224713Y0024138D01*
X0219890Y0024886D02*
X0212272Y0024886D01*
X0194201Y0024138D02*
X0194201Y0014728D01*
X0285737Y0014728D02*
X0290432Y0010033D01*
X0295678Y0015280D01*
X0303552Y0015280D01*
X0304536Y0016264D01*
X0304536Y0020693D01*
X0303808Y0024886D02*
X0299123Y0020201D01*
X0298138Y0020201D01*
X0293709Y0020201D02*
X0292233Y0020201D01*
X0322745Y0020201D02*
X0324221Y0020201D01*
X0328650Y0020201D02*
X0329634Y0020201D01*
X0334319Y0024886D01*
X0341938Y0024886D01*
X0346760Y0024138D02*
X0346760Y0014728D01*
X0351455Y0010033D01*
X0356701Y0015280D01*
X0364575Y0015280D01*
X0365560Y0016264D01*
X0365560Y0020693D01*
X0364831Y0024886D02*
X0360146Y0020201D01*
X0359162Y0020201D01*
X0354733Y0020201D02*
X0353256Y0020201D01*
X0335048Y0020693D02*
X0335048Y0016264D01*
X0334063Y0015280D01*
X0326189Y0015280D01*
X0320943Y0010033D01*
X0324260Y0006717D01*
X0324752Y0006717D01*
X0334516Y0006717D02*
X0334516Y0010890D01*
X0320943Y0010033D02*
X0316249Y0014728D01*
X0316249Y0024138D01*
X0311426Y0024886D02*
X0303808Y0024886D01*
X0285737Y0024138D02*
X0285737Y0014728D01*
X0273493Y0010890D02*
X0273493Y0006717D01*
X0263729Y0006717D02*
X0263237Y0006717D01*
X0259920Y0010033D01*
X0290432Y0010033D02*
X0293749Y0006717D01*
X0294241Y0006717D01*
X0304004Y0006717D02*
X0304004Y0010890D01*
X0351455Y0010033D02*
X0354772Y0006717D01*
X0355264Y0006717D01*
X0365028Y0006717D02*
X0365028Y0010890D01*
X0377272Y0014728D02*
X0381967Y0010033D01*
X0387213Y0015280D01*
X0395087Y0015280D01*
X0396071Y0016264D01*
X0396071Y0020693D01*
X0395343Y0024886D02*
X0390658Y0020201D01*
X0389674Y0020201D01*
X0385245Y0020201D02*
X0383768Y0020201D01*
X0414280Y0020201D02*
X0415756Y0020201D01*
X0420186Y0020201D02*
X0421170Y0020201D01*
X0425855Y0024886D01*
X0433473Y0024886D01*
X0438296Y0024138D02*
X0438296Y0014728D01*
X0442991Y0010033D01*
X0468808Y0014728D02*
X0473502Y0010033D01*
X0478749Y0015280D01*
X0486623Y0015280D01*
X0487607Y0016264D01*
X0487607Y0020693D01*
X0486878Y0024886D02*
X0482193Y0020201D01*
X0481209Y0020201D01*
X0476780Y0020201D02*
X0475304Y0020201D01*
X0505815Y0020201D02*
X0507292Y0020201D01*
X0511721Y0020201D02*
X0512705Y0020201D01*
X0517390Y0024886D01*
X0525008Y0024886D01*
X0529831Y0024138D02*
X0529831Y0014728D01*
X0534526Y0010033D01*
X0539772Y0015280D01*
X0547646Y0015280D01*
X0548630Y0016264D01*
X0548630Y0020693D01*
X0547902Y0024886D02*
X0543217Y0020201D01*
X0542233Y0020201D01*
X0537804Y0020201D02*
X0536327Y0020201D01*
X0518119Y0020693D02*
X0518119Y0016264D01*
X0517134Y0015280D01*
X0509260Y0015280D01*
X0504014Y0010033D01*
X0507331Y0006717D01*
X0507823Y0006717D01*
X0517587Y0006717D02*
X0517587Y0010890D01*
X0504014Y0010033D02*
X0499319Y0014728D01*
X0499319Y0024138D01*
X0494497Y0024886D02*
X0486878Y0024886D01*
X0468808Y0024138D02*
X0468808Y0014728D01*
X0412479Y0010033D02*
X0407784Y0014728D01*
X0407784Y0024138D01*
X0402961Y0024886D02*
X0395343Y0024886D01*
X0377272Y0024138D02*
X0377272Y0014728D01*
X0395540Y0010890D02*
X0395540Y0006717D01*
X0385776Y0006717D02*
X0385284Y0006717D01*
X0381967Y0010033D01*
X0473502Y0010033D02*
X0476819Y0006717D01*
X0477312Y0006717D01*
X0487075Y0006717D02*
X0487075Y0010890D01*
X0534526Y0010033D02*
X0537843Y0006717D01*
X0538335Y0006717D01*
X0548099Y0006717D02*
X0548099Y0010890D01*
X0560343Y0014728D02*
X0565038Y0010033D01*
X0570284Y0015280D01*
X0578158Y0015280D01*
X0579142Y0016264D01*
X0579142Y0020693D01*
X0578414Y0024886D02*
X0573729Y0020201D01*
X0572745Y0020201D01*
X0568315Y0020201D02*
X0566839Y0020201D01*
X0597351Y0020201D02*
X0598827Y0020201D01*
X0603256Y0020201D02*
X0604241Y0020201D01*
X0608926Y0024886D01*
X0616544Y0024886D01*
X0621367Y0024138D02*
X0621367Y0014728D01*
X0626062Y0010033D01*
X0631308Y0015280D01*
X0639182Y0015280D01*
X0640166Y0016264D01*
X0640166Y0020693D01*
X0639438Y0024886D02*
X0634752Y0020201D01*
X0633768Y0020201D01*
X0629339Y0020201D02*
X0627863Y0020201D01*
X0609654Y0020693D02*
X0609654Y0016264D01*
X0608670Y0015280D01*
X0600796Y0015280D01*
X0595550Y0010033D01*
X0598867Y0006717D01*
X0599359Y0006717D01*
X0609123Y0006717D02*
X0609123Y0010890D01*
X0595550Y0010033D02*
X0590855Y0014728D01*
X0590855Y0024138D01*
X0586032Y0024886D02*
X0578414Y0024886D01*
X0560343Y0024138D02*
X0560343Y0014728D01*
X0651878Y0014728D02*
X0656573Y0010033D01*
X0661819Y0015280D01*
X0669693Y0015280D01*
X0670678Y0016264D01*
X0670678Y0020693D01*
X0669949Y0024886D02*
X0665264Y0020201D01*
X0664280Y0020201D01*
X0659851Y0020201D02*
X0658375Y0020201D01*
X0688886Y0020201D02*
X0690363Y0020201D01*
X0694792Y0020201D02*
X0695776Y0020201D01*
X0700461Y0024886D01*
X0708079Y0024886D01*
X0712902Y0024138D02*
X0712902Y0014728D01*
X0717597Y0010033D01*
X0722843Y0015280D01*
X0730717Y0015280D01*
X0731701Y0016264D01*
X0731701Y0020693D01*
X0730973Y0024886D02*
X0726288Y0020201D01*
X0725304Y0020201D01*
X0720875Y0020201D02*
X0719398Y0020201D01*
X0701189Y0020693D02*
X0701189Y0016264D01*
X0700205Y0015280D01*
X0692331Y0015280D01*
X0687085Y0010033D01*
X0690402Y0006717D01*
X0690894Y0006717D01*
X0700658Y0006717D02*
X0700658Y0010890D01*
X0687085Y0010033D02*
X0682390Y0014728D01*
X0682390Y0024138D01*
X0677567Y0024886D02*
X0669949Y0024886D01*
X0651878Y0024138D02*
X0651878Y0014728D01*
X0639634Y0010890D02*
X0639634Y0006717D01*
X0629871Y0006717D02*
X0629378Y0006717D01*
X0626062Y0010033D01*
X0656573Y0010033D02*
X0659890Y0006717D01*
X0660382Y0006717D01*
X0670146Y0006717D02*
X0670146Y0010890D01*
X0717597Y0010033D02*
X0720914Y0006717D01*
X0721406Y0006717D01*
X0731170Y0006717D02*
X0731170Y0010890D01*
X0743414Y0014728D02*
X0748109Y0010033D01*
X0753355Y0015280D01*
X0761229Y0015280D01*
X0762213Y0016264D01*
X0762213Y0020693D01*
X0761485Y0024886D02*
X0756800Y0020201D01*
X0755815Y0020201D01*
X0751386Y0020201D02*
X0749910Y0020201D01*
X0780422Y0020201D02*
X0781898Y0020201D01*
X0786327Y0020201D02*
X0787312Y0020201D01*
X0791997Y0024886D01*
X0799615Y0024886D01*
X0804438Y0024138D02*
X0804438Y0014728D01*
X0809132Y0010033D01*
X0834949Y0014728D02*
X0839644Y0010033D01*
X0844890Y0015280D01*
X0852764Y0015280D01*
X0853749Y0016264D01*
X0853749Y0020693D01*
X0853020Y0024886D02*
X0848335Y0020201D01*
X0847351Y0020201D01*
X0842922Y0020201D02*
X0841445Y0020201D01*
X0871957Y0020201D02*
X0873434Y0020201D01*
X0877863Y0020201D02*
X0878847Y0020201D01*
X0883532Y0024886D01*
X0891150Y0024886D01*
X0895973Y0024138D02*
X0895973Y0014728D01*
X0900668Y0010033D01*
X0905914Y0015280D01*
X0913788Y0015280D01*
X0914772Y0016264D01*
X0914772Y0020693D01*
X0914044Y0024886D02*
X0909359Y0020201D01*
X0908375Y0020201D01*
X0903945Y0020201D02*
X0902469Y0020201D01*
X0884260Y0020693D02*
X0884260Y0016264D01*
X0883276Y0015280D01*
X0875402Y0015280D01*
X0870156Y0010033D01*
X0873473Y0006717D01*
X0873965Y0006717D01*
X0883729Y0006717D02*
X0883729Y0010890D01*
X0870156Y0010033D02*
X0865461Y0014728D01*
X0865461Y0024138D01*
X0860638Y0024886D02*
X0853020Y0024886D01*
X0834949Y0024138D02*
X0834949Y0014728D01*
X0778621Y0010033D02*
X0773926Y0014728D01*
X0773926Y0024138D01*
X0769103Y0024886D02*
X0761485Y0024886D01*
X0743414Y0024138D02*
X0743414Y0014728D01*
X0761682Y0010890D02*
X0761682Y0006717D01*
X0751918Y0006717D02*
X0751426Y0006717D01*
X0748109Y0010033D01*
X0839644Y0010033D02*
X0842961Y0006717D01*
X0843453Y0006717D01*
X0853217Y0006717D02*
X0853217Y0010890D01*
X0900668Y0010033D02*
X0903985Y0006717D01*
X0904477Y0006717D01*
X0914241Y0006717D02*
X0914241Y0010890D01*
X0926485Y0014728D02*
X0931180Y0010033D01*
X0936426Y0015280D01*
X0944300Y0015280D01*
X0945284Y0016264D01*
X0945284Y0020693D01*
X0944556Y0024886D02*
X0939871Y0020201D01*
X0938886Y0020201D01*
X0934457Y0020201D02*
X0932981Y0020201D01*
X0963493Y0020201D02*
X0964969Y0020201D01*
X0969398Y0020201D02*
X0970382Y0020201D01*
X0975067Y0024886D01*
X0982686Y0024886D01*
X0956997Y0024138D02*
X0956997Y0014728D01*
X0961691Y0010033D01*
X0944752Y0010890D02*
X0944752Y0006717D01*
X0934989Y0006717D02*
X0934497Y0006717D01*
X0931180Y0010033D01*
X0926485Y0014728D02*
X0926485Y0024138D01*
X0921662Y0024886D02*
X0914044Y0024886D01*
X0944556Y0024886D02*
X0952174Y0024886D01*
X0975796Y0020693D02*
X0975796Y0016264D01*
X0830126Y0024886D02*
X0822508Y0024886D01*
X0738591Y0024886D02*
X0730973Y0024886D01*
X0647056Y0024886D02*
X0639438Y0024886D01*
X0555520Y0024886D02*
X0547902Y0024886D01*
X0463985Y0024886D02*
X0456367Y0024886D01*
X0372449Y0024886D02*
X0364831Y0024886D01*
X0280914Y0024886D02*
X0273296Y0024886D01*
X0189378Y0024886D02*
X0181760Y0024886D01*
X0097843Y0024886D02*
X0090225Y0024886D01*
X0212469Y0010890D02*
X0212469Y0006717D01*
X0202705Y0006717D02*
X0202213Y0006717D01*
X0198896Y0010033D01*
X0565038Y0010033D02*
X0568355Y0006717D01*
X0568847Y0006717D01*
X0578611Y0006717D02*
X0578611Y0010890D01*
M02*
