%
M48
M72
T01C0.01181
%
T01
X27961Y12327
X58473Y12327
X88985Y12327
X119497Y12327
X150008Y12327
X180520Y12327
X211032Y12327
X241544Y12327
X272056Y12327
X302567Y12327
X333079Y12327
X363591Y12327
X394103Y12327
X424615Y12327
X455126Y12327
X485638Y12327
X516150Y12327
X546662Y12327
X577174Y12327
X607686Y12327
X638197Y12327
X668709Y12327
X699221Y12327
X729733Y12327
X760245Y12327
X790756Y12327
X821268Y12327
X851780Y12327
X882292Y12327
X912804Y12327
X943315Y12327
X973827Y12327
X972843Y18232
X942331Y18232
X911819Y18232
X881308Y18232
X850796Y18232
X820284Y18232
X789772Y18232
X759260Y18232
X728749Y18232
X698237Y18232
X667725Y18232
X637213Y18232
X606701Y18232
X576189Y18232
X545678Y18232
X515166Y18232
X484654Y18232
X454142Y18232
X423630Y18232
X393119Y18232
X362607Y18232
X332095Y18232
X301583Y18232
X271071Y18232
X240560Y18232
X210048Y18232
X179536Y18232
X149024Y18232
X118512Y18232
X88001Y18232
X57489Y18232
X26977Y18232
X23532Y20201
X17626Y20201
X29930Y20693
X48138Y20201
X54044Y20201
X60441Y20693
X78650Y20201
X84556Y20201
X90953Y20693
X109162Y20201
X115067Y20201
X121465Y20693
X139674Y20201
X145579Y20201
X151977Y20693
X170186Y20201
X176091Y20201
X182489Y20693
X200697Y20201
X206603Y20201
X213001Y20693
X231209Y20201
X237115Y20201
X243512Y20693
X261721Y20201
X267626Y20201
X274024Y20693
X292233Y20201
X298138Y20201
X304536Y20693
X322745Y20201
X328650Y20201
X335048Y20693
X353256Y20201
X359162Y20201
X365560Y20693
X383768Y20201
X389674Y20201
X396071Y20693
X414280Y20201
X420186Y20201
X426583Y20693
X444792Y20201
X450697Y20201
X457095Y20693
X475304Y20201
X481209Y20201
X487607Y20693
X505815Y20201
X511721Y20201
X518119Y20693
X536327Y20201
X542233Y20201
X548630Y20693
X566839Y20201
X572745Y20201
X579142Y20693
X597351Y20201
X603256Y20201
X609654Y20693
X627863Y20201
X633768Y20201
X640166Y20693
X658375Y20201
X664280Y20201
X670678Y20693
X688886Y20201
X694792Y20201
X701189Y20693
X719398Y20201
X725304Y20201
X731701Y20693
X749910Y20201
X755815Y20201
X762213Y20693
X780422Y20201
X786327Y20201
X792725Y20693
X810934Y20201
X816839Y20201
X823237Y20693
X841445Y20201
X847351Y20201
X853749Y20693
X871957Y20201
X877863Y20201
X884260Y20693
X902469Y20201
X908375Y20201
X914772Y20693
X932981Y20201
X938886Y20201
X945284Y20693
X963493Y20201
X969398Y20201
X975796Y20693
X956997Y24138
X952174Y24886
X926485Y24138
X921662Y24886
X895973Y24138
X891150Y24886
X865461Y24138
X860638Y24886
X834949Y24138
X830126Y24886
X804438Y24138
X799615Y24886
X773926Y24138
X769103Y24886
X743414Y24138
X738591Y24886
X712902Y24138
X708079Y24886
X682390Y24138
X677567Y24886
X651878Y24138
X647056Y24886
X621367Y24138
X616544Y24886
X590855Y24138
X586032Y24886
X560343Y24138
X555520Y24886
X529831Y24138
X525008Y24886
X499319Y24138
X494497Y24886
X468808Y24138
X463985Y24886
X438296Y24138
X433473Y24886
X407784Y24138
X402961Y24886
X377272Y24138
X372449Y24886
X346760Y24138
X341938Y24886
X316249Y24138
X311426Y24886
X285737Y24138
X280914Y24886
X255225Y24138
X250402Y24886
X224713Y24138
X219890Y24886
X194201Y24138
X189378Y24886
X163689Y24138
X158867Y24886
X133178Y24138
X128355Y24886
X102666Y24138
X97843Y24886
X72154Y24138
X67331Y24886
X41642Y24138
X36819Y24886
X11130Y24138
X982686Y24886
M30
