%
M48
M72
T01C0.01378
%
T01
X20058Y11386
X20550Y18275
X26455Y25165
X27440Y35008
X33444Y34220
X33345Y41897
X33837Y48787
X37381Y54889
X37381Y54889
X35314Y61582
X35314Y61582
X47617Y66504
X48109Y73393
X54014Y80283
X54999Y90126
X60904Y97015
X61396Y103905
X55294Y110598
X62833Y116661
X75137Y121582
X75629Y128472
X81534Y135362
X82518Y145204
X88424Y152094
X88916Y158984
X82814Y165677
X90392Y171779
X100629Y161740
X100629Y161740
X110373Y165677
X116475Y158984
X115983Y152094
X110077Y145204
X109093Y135362
X103188Y128472
X102696Y121582
X90392Y116661
X82853Y110598
X88955Y103905
X88463Y97015
X82558Y90126
X92892Y81760
X98503Y90224
X110117Y90126
X116022Y97015
X116514Y103905
X110412Y110598
X117951Y116661
X130255Y121582
X130747Y128472
X136652Y135362
X137637Y145204
X143542Y152094
X144034Y158984
X137932Y165677
X145511Y171779
X157814Y176701
X158306Y183590
X164211Y190480
X165196Y200323
X171101Y207212
X171593Y214102
X165491Y220795
X173109Y226937
X185412Y231858
X185904Y238748
X191810Y245638
X192794Y255480
X198700Y262370
X199192Y269260
X193089Y275952
X200668Y282055
X212971Y286976
X213463Y293866
X219369Y300756
X220353Y310598
X226259Y317488
X226751Y324378
X220648Y331071
X228188Y337212
X240491Y342134
X240983Y349023
X246888Y355913
X258207Y357389
X263818Y365854
X253778Y372645
X254270Y379535
X248168Y386228
X255747Y392330
X268050Y397252
X268542Y404141
X274448Y411031
X275432Y420874
X281337Y427764
X281829Y434653
X275727Y441346
X283345Y447409
X295648Y452330
X296140Y459220
X302046Y466110
X303030Y475952
X308936Y482842
X309428Y489732
X303326Y496425
X310904Y502527
X323207Y507449
X323700Y514338
X329605Y521228
X330589Y531071
X336495Y537960
X336987Y544850
X330885Y551543
X338385Y557606
X350688Y562527
X351180Y569417
X357085Y576307
X358070Y586149
X363975Y593039
X364467Y599929
X358365Y606622
X365944Y612724
X378247Y617645
X378739Y624535
X384644Y631425
X385629Y641267
X391534Y648157
X392026Y655047
X385924Y661740
X376180Y657803
X376180Y657803
X364467Y655047
X363975Y648157
X358070Y641267
X346455Y641366
X340845Y632901
X329526Y631425
X323621Y624535
X323129Y617645
X310826Y612724
X303247Y606622
X309349Y599929
X308857Y593039
X302951Y586149
X301967Y576307
X296062Y569417
X295570Y562527
X283266Y557606
X275766Y551543
X281869Y544850
X281377Y537960
X275471Y531071
X274487Y521228
X268581Y514338
X268089Y507449
X255786Y502527
X248207Y496425
X254310Y489732
X253818Y482842
X247912Y475952
X246928Y466110
X241022Y459220
X240530Y452330
X228227Y447409
X220609Y441346
X226711Y434653
X226219Y427764
X220314Y420874
X219329Y411031
X213424Y404141
X212932Y397252
X200629Y392330
X193050Y386228
X199152Y379535
X198660Y372645
X192755Y365756
X181140Y365854
X175530Y357389
X164211Y355913
X158306Y349023
X157814Y342134
X145511Y337212
X137971Y331071
X144074Y324378
X143581Y317488
X137676Y310598
X136692Y300756
X130786Y293866
X130294Y286976
X137971Y275952
X144074Y269260
X155786Y272015
X155786Y272015
X145550Y282055
X157853Y286976
X158345Y293866
X164251Y300756
X165235Y310598
X171140Y317488
X171633Y324378
X165530Y331071
X173070Y337212
X185373Y342134
X185865Y349023
X191770Y355913
X203089Y357389
X208700Y365854
X220314Y365756
X226219Y372645
X226711Y379535
X220609Y386228
X228188Y392330
X240491Y397252
X240983Y404141
X246888Y411031
X247873Y420874
X253778Y427764
X254270Y434653
X248168Y441346
X255786Y447409
X268089Y452330
X268581Y459220
X274487Y466110
X275471Y475952
X281377Y482842
X281869Y489732
X275766Y496425
X283345Y502527
X293581Y492488
X293581Y492488
X295648Y507449
X296140Y514338
X302046Y521228
X303030Y531071
X308936Y537960
X309428Y544850
X303326Y551543
X310826Y557606
X323129Y562527
X323621Y569417
X329526Y576307
X330511Y586149
X336416Y593039
X336908Y599929
X330806Y606622
X338385Y612724
X350688Y617645
X351180Y624535
X357085Y631425
X368404Y632901
X374014Y641366
X395963Y632901
X401574Y641366
X413188Y641267
X419093Y648157
X419585Y655047
X413483Y661740
X403739Y657803
X403739Y657803
X431298Y657803
X431298Y657803
X441042Y661740
X447144Y655047
X446652Y648157
X440747Y641267
X451081Y632901
X456692Y641366
X468306Y641267
X474211Y648157
X474703Y655047
X468601Y661740
X458857Y657803
X458857Y657803
X478640Y632901
X484251Y641366
X495865Y641267
X501770Y648157
X502263Y655047
X496160Y661740
X486416Y657803
X486416Y657803
X506200Y632901
X511810Y641366
X523424Y641267
X529329Y648157
X529822Y655047
X523719Y661740
X513975Y657803
X513975Y657803
X533759Y632901
X539369Y641366
X550983Y641267
X556888Y648157
X557381Y655047
X551278Y661740
X541534Y657803
X541534Y657803
X566928Y641366
X561318Y632901
X549999Y631425
X544093Y624535
X543601Y617645
X551278Y606622
X557381Y599929
X556888Y593039
X550983Y586149
X539369Y586248
X533759Y577783
X544093Y569417
X543601Y562527
X531298Y557606
X523798Y551543
X529900Y544850
X529408Y537960
X523503Y531071
X522518Y521228
X516613Y514338
X516121Y507449
X503818Y502527
X496239Y496425
X502341Y489732
X501849Y482842
X495944Y475952
X494959Y466110
X489054Y459220
X488562Y452330
X476259Y447409
X468640Y441346
X474743Y434653
X474251Y427764
X468345Y420874
X467361Y411031
X461455Y404141
X460963Y397252
X448660Y392330
X441081Y386228
X447184Y379535
X446692Y372645
X440786Y365756
X451121Y357389
X456731Y365854
X468345Y365756
X474251Y372645
X474743Y379535
X468640Y386228
X476219Y392330
X488522Y397252
X489014Y404141
X494920Y411031
X495904Y420874
X501810Y427764
X502302Y434653
X496200Y441346
X503818Y447409
X516121Y452330
X516613Y459220
X522518Y466110
X523503Y475952
X529408Y482842
X529900Y489732
X523798Y496425
X531377Y502527
X543680Y507449
X544172Y514338
X550077Y521228
X551062Y531071
X556967Y537960
X557459Y544850
X551357Y551543
X558857Y557606
X571160Y562527
X571652Y569417
X577558Y576307
X588877Y577783
X594487Y586248
X584448Y593039
X584940Y599929
X578837Y606622
X586416Y612724
X598719Y617645
X599211Y624535
X605117Y631425
X616436Y632901
X622046Y641366
X612007Y648157
X612499Y655047
X606396Y661740
X596652Y657803
X596652Y657803
X584940Y655047
X584448Y648157
X578542Y641267
X588877Y632901
X594487Y641366
X606101Y641267
X624211Y657803
X624211Y657803
X633955Y661740
X640058Y655047
X639566Y648157
X633660Y641267
X643995Y632901
X649605Y641366
X661219Y641267
X660727Y634771
X660235Y631425
X654329Y624535
X653837Y617645
X641534Y612724
X633955Y606622
X640058Y599929
X639566Y593039
X633660Y586149
X632676Y576307
X626770Y569417
X626278Y562527
X613975Y557606
X606475Y551543
X612577Y544850
X612085Y537960
X606180Y531071
X605196Y521228
X599290Y514338
X598798Y507449
X586495Y502527
X578916Y496425
X585018Y489732
X584526Y482842
X578621Y475952
X577637Y466110
X571731Y459220
X571239Y452330
X558936Y447409
X551318Y441346
X557420Y434653
X556928Y427764
X551022Y420874
X550038Y411031
X544133Y404141
X543640Y397252
X531337Y392330
X523759Y386228
X529861Y379535
X529369Y372645
X523463Y365756
X511849Y365854
X506239Y357389
X494920Y355913
X489014Y349023
X488522Y342134
X476219Y337212
X468680Y331071
X474782Y324378
X474290Y317488
X468385Y310598
X467400Y300756
X461495Y293866
X461003Y286976
X468680Y275952
X474782Y269260
X486495Y272015
X486495Y272015
X476259Y282055
X488562Y286976
X489054Y293866
X494959Y300756
X495944Y310598
X501849Y317488
X502341Y324378
X496239Y331071
X503778Y337212
X516081Y342134
X516574Y349023
X522479Y355913
X533798Y357389
X539408Y365854
X551022Y365756
X556928Y372645
X557420Y379535
X551318Y386228
X558896Y392330
X571200Y397252
X571692Y404141
X577597Y411031
X578581Y420874
X584487Y427764
X584979Y434653
X578877Y441346
X586495Y447409
X598798Y452330
X599290Y459220
X605196Y466110
X606180Y475952
X612085Y482842
X612577Y489732
X606475Y496425
X614054Y502527
X624290Y492488
X624290Y492488
X634034Y496425
X640137Y489732
X639644Y482842
X633739Y475952
X632755Y466110
X626849Y459220
X626357Y452330
X614054Y447409
X606436Y441346
X612538Y434653
X612046Y427764
X606140Y420874
X605156Y411031
X599251Y404141
X598759Y397252
X586455Y392330
X578877Y386228
X584979Y379535
X584487Y372645
X578581Y365756
X588916Y357389
X594526Y365854
X606140Y365756
X612046Y372645
X612538Y379535
X606436Y386228
X614014Y392330
X626318Y397252
X626810Y404141
X632715Y411031
X633700Y420874
X639605Y427764
X640097Y434653
X633995Y441346
X641613Y447409
X653916Y452330
X654408Y459220
X660314Y466110
X660806Y469456
X661298Y475952
X668286Y480086
X666219Y482645
X667696Y489732
X672395Y494850
X669172Y502527
X672322Y504004
X661593Y496425
X651849Y492488
X651849Y492488
X641613Y502527
X653916Y507449
X654408Y514338
X660314Y521228
X660806Y524575
X661298Y531071
X668286Y535204
X666219Y537764
X667696Y544850
X672395Y549968
X669093Y557606
X672243Y559082
X661593Y551543
X651849Y547606
X651849Y547606
X640137Y544850
X639644Y537960
X633739Y531071
X632755Y521228
X626849Y514338
X626357Y507449
X616514Y522704
X622125Y531169
X624290Y547606
X624290Y547606
X634034Y551543
X641534Y557606
X653837Y562527
X654329Y569417
X660235Y576307
X660727Y579653
X661219Y586149
X668207Y590283
X666140Y592842
X667617Y599929
X672316Y605047
X661514Y606622
X669093Y612724
X672243Y614201
X669487Y629949
X668207Y645401
X666140Y647960
X667617Y655047
X672316Y660165
X661514Y661740
X651770Y657803
X651770Y657803
X632676Y631425
X626770Y624535
X626278Y617645
X613975Y612724
X606396Y606622
X612499Y599929
X612007Y593039
X606101Y586149
X605117Y576307
X599211Y569417
X598719Y562527
X586416Y557606
X578916Y551543
X585018Y544850
X584526Y537960
X578621Y531071
X577637Y521228
X571731Y514338
X571239Y507449
X558936Y502527
X551357Y496425
X557459Y489732
X556967Y482842
X551062Y475952
X550077Y466110
X544172Y459220
X543680Y452330
X531377Y447409
X523759Y441346
X529861Y434653
X529369Y427764
X523463Y420874
X522479Y411031
X516574Y404141
X516081Y397252
X503778Y392330
X496200Y386228
X502302Y379535
X501810Y372645
X495904Y365756
X484290Y365854
X478680Y357389
X467361Y355913
X461455Y349023
X460963Y342134
X448660Y337212
X441121Y331071
X447223Y324378
X446731Y317488
X440826Y310598
X439841Y300756
X433936Y293866
X433444Y286976
X441121Y275952
X447223Y269260
X458936Y272015
X458936Y272015
X448700Y282055
X431377Y272015
X431377Y272015
X419664Y269260
X413562Y275952
X421140Y282055
X405885Y286976
X406377Y293866
X412282Y300756
X423601Y302232
X429211Y310697
X419172Y317488
X419664Y324378
X413562Y331071
X421101Y337212
X433404Y342134
X433896Y349023
X439802Y355913
X429172Y365854
X423562Y357389
X412243Y355913
X406337Y349023
X405845Y342134
X393542Y337212
X386003Y331071
X392105Y324378
X391613Y317488
X385707Y310598
X374093Y310697
X368483Y302232
X378818Y293866
X378326Y286976
X386003Y275952
X392105Y269260
X393581Y282055
X403818Y272015
X403818Y272015
X391613Y262370
X385707Y255480
X384723Y245638
X378818Y238748
X378326Y231858
X366022Y226937
X358404Y220795
X364507Y214102
X364014Y207212
X358109Y200323
X357125Y190480
X351219Y183590
X350727Y176701
X338424Y171779
X330845Y165677
X336948Y158984
X336455Y152094
X330550Y145204
X329566Y135362
X323660Y128472
X323168Y121582
X310865Y116661
X303326Y110598
X309428Y103905
X308936Y97015
X303030Y90126
X313365Y81760
X318975Y90224
X330589Y90126
X336495Y97015
X336987Y103905
X330885Y110598
X338424Y116661
X350727Y121582
X351219Y128472
X357125Y135362
X358109Y145204
X364014Y152094
X364507Y158984
X358404Y165677
X365983Y171779
X378286Y176701
X378778Y183590
X384684Y190480
X385668Y200323
X391574Y207212
X392066Y214102
X385963Y220795
X393581Y226937
X405885Y231858
X406377Y238748
X412282Y245638
X413266Y255480
X419172Y262370
X429211Y255578
X423601Y247114
X433936Y238748
X433444Y231858
X421140Y226937
X413522Y220795
X419625Y214102
X419133Y207212
X413227Y200323
X412243Y190480
X406337Y183590
X405845Y176701
X393542Y171779
X385963Y165677
X392066Y158984
X391574Y152094
X385668Y145204
X384684Y135362
X378778Y128472
X378286Y121582
X365983Y116661
X358444Y110598
X364546Y103905
X364054Y97015
X358148Y90126
X346534Y90224
X340924Y81760
X329605Y80283
X323700Y73393
X323207Y66504
X310904Y61582
X303326Y55480
X309428Y48787
X308936Y41897
X303030Y35008
X302046Y25165
X296140Y18275
X295648Y11386
X283345Y6464
X268089Y11386
X268581Y18275
X274487Y25165
X285806Y26641
X291416Y35106
X281377Y41897
X281869Y48787
X275766Y55480
X283345Y61582
X295648Y66504
X296140Y73393
X302046Y80283
X291416Y90224
X285806Y81760
X274487Y80283
X268581Y73393
X268089Y66504
X255786Y61582
X248207Y55480
X254310Y48787
X253818Y41897
X247912Y35008
X246928Y25165
X241022Y18275
X240530Y11386
X228227Y6464
X212971Y11386
X213463Y18275
X219369Y25165
X220353Y35008
X226259Y41897
X226751Y48787
X220648Y55480
X228227Y61582
X240530Y66504
X241022Y73393
X246928Y80283
X258247Y81760
X263857Y90224
X253818Y97015
X254310Y103905
X248207Y110598
X255747Y116661
X268050Y121582
X268542Y128472
X274448Y135362
X275432Y145204
X281337Y152094
X281829Y158984
X275727Y165677
X283306Y171779
X293542Y161740
X293542Y161740
X303286Y165677
X309388Y158984
X308896Y152094
X302991Y145204
X302007Y135362
X296101Y128472
X295609Y121582
X283306Y116661
X275766Y110598
X281869Y103905
X281377Y97015
X275471Y90126
X266022Y106661
X266022Y106661
X247912Y90126
X236298Y90224
X230688Y81760
X219369Y80283
X213463Y73393
X212971Y66504
X200668Y61582
X193089Y55480
X199192Y48787
X198700Y41897
X192794Y35008
X181180Y35106
X175570Y26641
X185904Y18275
X185412Y11386
X173109Y6464
X158345Y18275
X157853Y11386
X145550Y6464
X130294Y11386
X130786Y18275
X136692Y25165
X148011Y26641
X153621Y35106
X165235Y35008
X171140Y41897
X171633Y48787
X165530Y55480
X173109Y61582
X185412Y66504
X185904Y73393
X191810Y80283
X192794Y90126
X198700Y97015
X199192Y103905
X193089Y110598
X200629Y116661
X212932Y121582
X213424Y128472
X219329Y135362
X220314Y145204
X226219Y152094
X226711Y158984
X220609Y165677
X228188Y171779
X240491Y176701
X240983Y183590
X246888Y190480
X247873Y200323
X253778Y207212
X254270Y214102
X248168Y220795
X255786Y226937
X268089Y231858
X268581Y238748
X274487Y245638
X275471Y255480
X281377Y262370
X291416Y255578
X285806Y247114
X296140Y238748
X295648Y231858
X283345Y226937
X275727Y220795
X281829Y214102
X281337Y207212
X275432Y200323
X274448Y190480
X268542Y183590
X268050Y176701
X255747Y171779
X248168Y165677
X254270Y158984
X253778Y152094
X247873Y145204
X246888Y135362
X240983Y128472
X240491Y121582
X228188Y116661
X220648Y110598
X226751Y103905
X226259Y97015
X220353Y90126
X208739Y90224
X203129Y81760
X181180Y90224
X175570Y81760
X164251Y80283
X158345Y73393
X157853Y66504
X145550Y61582
X137971Y55480
X144074Y48787
X143581Y41897
X137676Y35008
X126062Y35106
X116022Y41897
X116514Y48787
X110412Y55480
X117991Y61582
X130294Y66504
X130786Y73393
X136692Y80283
X148011Y81760
X153621Y90224
X165235Y90126
X171140Y97015
X171633Y103905
X165530Y110598
X173070Y116661
X185373Y121582
X185865Y128472
X191770Y135362
X192755Y145204
X198660Y152094
X199152Y158984
X193050Y165677
X200629Y171779
X212932Y176701
X213424Y183590
X219329Y190480
X220314Y200323
X226219Y207212
X226711Y214102
X220609Y220795
X228227Y226937
X240530Y231858
X241022Y238748
X246928Y245638
X247912Y255480
X253818Y262370
X263857Y255578
X258247Y247114
X236298Y255578
X230688Y247114
X219369Y245638
X213463Y238748
X212971Y231858
X200668Y226937
X193050Y220795
X199152Y214102
X198660Y207212
X192755Y200323
X191770Y190480
X185865Y183590
X185373Y176701
X173070Y171779
X165491Y165677
X171593Y158984
X171101Y152094
X165196Y145204
X164211Y135362
X158306Y128472
X157814Y121582
X145511Y116661
X137971Y110598
X144074Y103905
X143581Y97015
X137676Y90126
X126062Y90224
X120451Y81760
X109133Y80283
X103227Y73393
X102735Y66504
X90432Y61582
X82853Y55480
X88955Y48787
X88463Y41897
X82558Y35008
X81574Y25165
X75668Y18275
X75176Y11386
X62873Y6464
X47617Y11386
X48109Y18275
X54014Y25165
X54999Y35008
X60904Y41897
X61396Y48787
X55294Y55480
X62873Y61582
X75176Y66504
X75668Y73393
X81574Y80283
X70944Y90224
X65333Y81760
X43385Y90224
X37774Y81760
X32459Y89535
X27440Y90126
X33345Y97015
X33837Y103905
X37971Y110008
X35274Y116661
X47577Y121582
X48070Y128472
X53975Y135362
X54959Y145204
X60865Y152094
X61357Y158984
X55255Y165677
X62833Y171779
X75137Y176701
X75629Y183590
X81534Y190480
X82518Y200323
X88424Y207212
X88916Y214102
X82814Y220795
X90432Y226937
X100629Y216858
X100629Y216858
X110373Y220795
X116475Y214102
X115983Y207212
X110077Y200323
X109093Y190480
X103188Y183590
X102696Y176701
X117951Y171779
X128188Y161740
X128188Y161740
X130255Y176701
X130747Y183590
X136652Y190480
X137637Y200323
X143542Y207212
X144034Y214102
X137932Y220795
X145550Y226937
X157853Y231858
X158345Y238748
X164251Y245638
X165235Y255480
X171140Y262370
X171633Y269260
X165530Y275952
X173109Y282055
X185412Y286976
X185904Y293866
X191810Y300756
X192794Y310598
X198700Y317488
X199192Y324378
X193089Y331071
X200629Y337212
X212932Y342134
X213424Y349023
X219329Y355913
X230648Y357389
X236259Y365854
X247873Y365756
X238424Y382291
X238424Y382291
X265983Y382291
X265983Y382291
X275727Y386228
X281829Y379535
X281337Y372645
X275432Y365756
X285766Y357389
X291377Y365854
X302991Y365756
X308896Y372645
X309388Y379535
X303286Y386228
X310865Y392330
X323168Y397252
X323660Y404141
X329566Y411031
X330550Y420874
X336455Y427764
X336948Y434653
X330845Y441346
X338463Y447409
X350766Y452330
X351259Y459220
X357164Y466110
X358148Y475952
X364054Y482842
X364546Y489732
X358444Y496425
X366022Y502527
X378326Y507449
X378818Y514338
X384723Y521228
X385707Y531071
X391613Y537960
X392105Y544850
X386003Y551543
X393503Y557606
X405806Y562527
X406298Y569417
X412203Y576307
X423522Y577783
X429133Y586248
X419093Y593039
X419585Y599929
X413483Y606622
X421062Y612724
X433365Y617645
X433857Y624535
X439763Y631425
X429133Y641366
X423522Y632901
X412203Y631425
X406298Y624535
X405806Y617645
X393503Y612724
X385924Y606622
X392026Y599929
X391534Y593039
X385629Y586149
X374014Y586248
X368404Y577783
X378739Y569417
X378247Y562527
X365944Y557606
X358444Y551543
X364546Y544850
X364054Y537960
X358148Y531071
X357164Y521228
X351259Y514338
X350766Y507449
X338463Y502527
X330885Y496425
X336987Y489732
X336495Y482842
X330589Y475952
X329605Y466110
X323700Y459220
X323207Y452330
X310904Y447409
X303286Y441346
X309388Y434653
X308896Y427764
X302991Y420874
X302007Y411031
X296101Y404141
X295609Y397252
X283306Y392330
X293542Y382291
X293542Y382291
X313326Y357389
X318936Y365854
X330550Y365756
X336455Y372645
X336948Y379535
X330845Y386228
X338424Y392330
X350727Y397252
X351219Y404141
X357125Y411031
X358109Y420874
X364014Y427764
X364507Y434653
X358404Y441346
X366022Y447409
X378326Y452330
X378818Y459220
X384723Y466110
X385707Y475952
X391613Y482842
X392105Y489732
X386003Y496425
X393581Y502527
X405885Y507449
X406377Y514338
X412282Y521228
X413266Y531071
X419172Y537960
X419664Y544850
X413562Y551543
X421062Y557606
X433365Y562527
X433857Y569417
X439763Y576307
X451081Y577783
X456692Y586248
X446652Y593039
X447144Y599929
X441042Y606622
X448621Y612724
X460924Y617645
X461416Y624535
X467322Y631425
X476180Y612724
X468601Y606622
X474703Y599929
X474211Y593039
X468306Y586149
X467322Y576307
X461416Y569417
X460924Y562527
X448621Y557606
X441121Y551543
X447223Y544850
X446731Y537960
X440826Y531071
X439841Y521228
X433936Y514338
X433444Y507449
X421140Y502527
X413562Y496425
X419664Y489732
X419172Y482842
X413266Y475952
X412282Y466110
X406377Y459220
X405885Y452330
X393581Y447409
X385963Y441346
X392066Y434653
X391574Y427764
X385668Y420874
X384684Y411031
X378778Y404141
X378286Y397252
X365983Y392330
X358404Y386228
X364507Y379535
X364014Y372645
X358109Y365756
X346495Y365854
X340885Y357389
X329566Y355913
X323660Y349023
X323168Y342134
X310865Y337212
X303326Y331071
X309428Y324378
X308936Y317488
X303030Y310598
X302046Y300756
X296140Y293866
X295648Y286976
X303326Y275952
X309428Y269260
X321140Y272015
X321140Y272015
X310904Y282055
X323207Y286976
X323700Y293866
X329605Y300756
X330589Y310598
X336495Y317488
X336987Y324378
X330885Y331071
X338424Y337212
X350727Y342134
X351219Y349023
X357125Y355913
X368444Y357389
X374054Y365854
X385668Y365756
X391574Y372645
X392066Y379535
X385963Y386228
X393542Y392330
X405845Y397252
X406337Y404141
X412243Y411031
X413227Y420874
X419133Y427764
X419625Y434653
X413522Y441346
X421140Y447409
X433444Y452330
X433936Y459220
X439841Y466110
X440826Y475952
X446731Y482842
X447223Y489732
X441121Y496425
X448700Y502527
X458936Y492488
X458936Y492488
X468680Y496425
X474782Y489732
X474290Y482842
X468385Y475952
X467400Y466110
X461495Y459220
X461003Y452330
X448700Y447409
X441081Y441346
X447184Y434653
X446692Y427764
X440786Y420874
X439802Y411031
X433896Y404141
X433404Y397252
X421101Y392330
X413522Y386228
X419625Y379535
X419133Y372645
X413227Y365756
X401613Y365854
X396003Y357389
X384684Y355913
X378778Y349023
X378286Y342134
X365983Y337212
X358444Y331071
X364546Y324378
X364054Y317488
X358148Y310598
X346534Y310697
X340924Y302232
X351259Y293866
X350766Y286976
X338463Y282055
X330885Y275952
X336987Y269260
X336495Y262370
X330589Y255480
X329605Y245638
X323700Y238748
X323207Y231858
X310904Y226937
X303286Y220795
X309388Y214102
X308896Y207212
X302991Y200323
X302007Y190480
X296101Y183590
X295609Y176701
X310865Y171779
X323168Y176701
X323660Y183590
X329566Y190480
X330550Y200323
X336455Y207212
X336948Y214102
X330845Y220795
X338463Y226937
X350766Y231858
X351259Y238748
X357164Y245638
X358148Y255480
X364054Y262370
X364546Y269260
X358444Y275952
X366022Y282055
X376259Y272015
X376259Y272015
X374093Y255578
X368483Y247114
X346534Y255578
X340924Y247114
X318975Y255578
X313365Y247114
X302046Y245638
X303030Y255480
X308936Y262370
X293581Y272015
X293581Y272015
X281869Y269260
X275766Y275952
X283345Y282055
X268089Y286976
X268581Y293866
X274487Y300756
X285806Y302232
X291416Y310697
X281377Y317488
X281869Y324378
X275766Y331071
X283306Y337212
X295609Y342134
X296101Y349023
X302007Y355913
X274448Y355913
X268542Y349023
X268050Y342134
X255747Y337212
X248207Y331071
X254310Y324378
X253818Y317488
X247912Y310598
X246928Y300756
X241022Y293866
X240530Y286976
X248207Y275952
X254310Y269260
X255786Y282055
X266022Y272015
X266022Y272015
X238463Y272015
X238463Y272015
X226751Y269260
X220648Y275952
X228227Y282055
X210904Y272015
X210904Y272015
X226259Y262370
X220353Y255480
X208739Y255578
X203129Y247114
X181180Y255578
X175570Y247114
X153621Y255578
X148011Y247114
X136692Y245638
X130786Y238748
X130294Y231858
X117991Y226937
X128188Y216858
X128188Y216858
X126022Y200421
X120412Y191956
X98463Y200421
X92853Y191956
X70904Y200421
X65294Y191956
X53975Y190480
X48070Y183590
X47577Y176701
X35274Y171779
X35274Y171779
X37341Y165086
X37341Y165086
X33798Y158984
X33306Y152094
X33404Y144417
X27400Y145204
X26416Y135362
X21101Y130834
X20845Y123393
X20609Y119811
X20845Y99181
X20845Y99181
X26455Y80283
X20353Y76740
X20451Y69260
X20845Y65913
X20944Y44161
X37774Y26641
X43385Y35106
X45550Y51543
X45550Y51543
X70944Y35106
X65333Y26641
X92892Y26641
X98503Y35106
X110117Y35008
X109133Y25165
X103227Y18275
X102735Y11386
X90432Y6464
X117991Y6464
X120451Y26641
X128227Y51543
X128227Y51543
X100668Y51543
X100668Y51543
X73109Y51543
X73109Y51543
X35314Y6464
X45550Y106661
X45550Y106661
X73109Y106661
X73109Y106661
X100668Y106661
X100668Y106661
X128227Y106661
X128227Y106661
X155786Y106661
X155786Y106661
X183345Y106661
X183345Y106661
X210904Y106661
X210904Y106661
X238463Y106661
X238463Y106661
X230648Y136838
X236259Y145303
X238424Y161740
X238424Y161740
X263818Y145303
X258207Y136838
X265983Y161740
X265983Y161740
X291377Y145303
X285766Y136838
X313326Y136838
X318936Y145303
X321101Y161740
X321101Y161740
X348660Y161740
X348660Y161740
X346495Y145303
X340885Y136838
X368444Y136838
X374054Y145303
X376219Y161740
X376219Y161740
X401613Y145303
X396003Y136838
X406337Y128472
X405845Y121582
X393542Y116661
X386003Y110598
X392105Y103905
X391613Y97015
X385707Y90126
X374093Y90224
X368483Y81760
X357164Y80283
X351259Y73393
X350766Y66504
X338463Y61582
X330885Y55480
X336987Y48787
X336495Y41897
X330589Y35008
X318975Y35106
X313365Y26641
X323700Y18275
X323207Y11386
X310904Y6464
X329605Y25165
X340924Y26641
X351259Y18275
X350766Y11386
X338463Y6464
X357164Y25165
X358148Y35008
X364054Y41897
X364546Y48787
X358444Y55480
X366022Y61582
X378326Y66504
X378818Y73393
X384723Y80283
X396042Y81760
X401652Y90224
X413266Y90126
X419172Y97015
X419664Y103905
X413562Y110598
X421101Y116661
X433404Y121582
X433896Y128472
X439802Y135362
X440786Y145204
X446692Y152094
X447184Y158984
X441081Y165677
X448660Y171779
X458896Y161740
X458896Y161740
X468640Y165677
X474743Y158984
X474251Y152094
X468345Y145204
X467361Y135362
X461455Y128472
X460963Y121582
X448660Y116661
X441121Y110598
X447223Y103905
X446731Y97015
X440826Y90126
X451160Y81760
X456770Y90224
X468385Y90126
X474290Y97015
X474782Y103905
X468680Y110598
X476219Y116661
X488522Y121582
X489014Y128472
X494920Y135362
X495904Y145204
X501810Y152094
X502302Y158984
X496200Y165677
X503778Y171779
X516081Y176701
X516574Y183590
X522479Y190480
X523463Y200323
X529369Y207212
X529861Y214102
X523759Y220795
X531377Y226937
X543680Y231858
X544172Y238748
X550077Y245638
X551062Y255480
X556967Y262370
X567007Y255578
X561396Y247114
X571731Y238748
X571239Y231858
X558936Y226937
X551318Y220795
X557420Y214102
X556928Y207212
X551022Y200323
X550038Y190480
X544133Y183590
X543640Y176701
X531337Y171779
X523759Y165677
X529861Y158984
X529369Y152094
X523463Y145204
X522479Y135362
X516574Y128472
X516081Y121582
X503778Y116661
X496239Y110598
X502341Y103905
X501849Y97015
X495944Y90126
X484329Y90224
X478719Y81760
X467400Y80283
X461495Y73393
X461003Y66504
X468680Y55480
X474782Y48787
X474290Y41897
X468385Y35008
X467400Y25165
X461495Y18275
X461003Y11386
X448700Y6464
X433444Y11386
X433936Y18275
X439841Y25165
X451160Y26641
X456770Y35106
X446731Y41897
X447223Y48787
X441121Y55480
X448700Y61582
X458936Y51543
X458936Y51543
X440826Y35008
X429211Y35106
X419172Y41897
X419664Y48787
X413562Y55480
X421140Y61582
X433444Y66504
X433936Y73393
X439841Y80283
X429211Y90224
X423601Y81760
X412282Y80283
X406377Y73393
X405885Y66504
X393581Y61582
X386003Y55480
X392105Y48787
X391613Y41897
X385707Y35008
X374093Y35106
X368483Y26641
X378818Y18275
X378326Y11386
X366022Y6464
X384723Y25165
X396042Y26641
X406377Y18275
X405885Y11386
X393581Y6464
X412282Y25165
X423601Y26641
X413266Y35008
X401652Y35106
X403818Y51543
X403818Y51543
X431377Y51543
X431377Y51543
X476259Y61582
X488562Y66504
X489054Y73393
X494959Y80283
X506278Y81760
X511888Y90224
X523503Y90126
X529408Y97015
X529900Y103905
X523798Y110598
X531337Y116661
X543640Y121582
X544133Y128472
X550038Y135362
X551022Y145204
X556928Y152094
X557420Y158984
X551318Y165677
X558896Y171779
X571200Y176701
X571692Y183590
X577597Y190480
X578581Y200323
X584487Y207212
X584979Y214102
X578877Y220795
X586495Y226937
X598798Y231858
X599290Y238748
X605196Y245638
X606180Y255480
X612085Y262370
X622125Y255578
X616514Y247114
X626849Y238748
X626357Y231858
X614054Y226937
X606436Y220795
X612538Y214102
X612046Y207212
X606140Y200323
X605156Y190480
X599251Y183590
X598759Y176701
X586455Y171779
X578877Y165677
X584979Y158984
X584487Y152094
X578581Y145204
X577597Y135362
X571692Y128472
X571200Y121582
X558896Y116661
X551357Y110598
X557459Y103905
X556967Y97015
X551062Y90126
X539448Y90224
X533837Y81760
X522518Y80283
X516613Y73393
X516121Y66504
X503818Y61582
X496239Y55480
X502341Y48787
X501849Y41897
X495944Y35008
X484329Y35106
X478719Y26641
X489054Y18275
X488562Y11386
X476259Y6464
X494959Y25165
X506278Y26641
X516613Y18275
X516121Y11386
X503818Y6464
X522518Y25165
X523503Y35008
X529408Y41897
X529900Y48787
X523798Y55480
X531377Y61582
X543680Y66504
X544172Y73393
X550077Y80283
X561396Y81760
X567007Y90224
X578621Y90126
X584526Y97015
X585018Y103905
X578916Y110598
X586455Y116661
X598759Y121582
X599251Y128472
X605156Y135362
X606140Y145204
X612046Y152094
X612538Y158984
X606436Y165677
X614014Y171779
X624251Y161740
X624251Y161740
X633995Y165677
X640097Y158984
X639605Y152094
X633700Y145204
X632715Y135362
X626810Y128472
X626318Y121582
X614014Y116661
X606475Y110598
X612577Y103905
X612085Y97015
X606180Y90126
X616514Y81760
X622125Y90224
X633739Y90126
X639644Y97015
X640137Y103905
X634034Y110598
X641574Y116661
X653877Y121582
X654369Y128472
X660274Y135362
X660766Y138708
X661259Y145204
X668247Y149338
X666180Y151897
X667656Y158984
X672355Y164102
X669133Y171779
X672282Y173256
X661554Y165677
X651810Y161740
X651810Y161740
X641574Y171779
X653877Y176701
X654369Y183590
X660274Y190480
X660766Y193827
X661259Y200323
X668247Y204456
X666180Y207015
X667656Y214102
X672355Y219220
X669172Y226937
X672322Y228413
X661554Y220795
X651810Y216858
X651810Y216858
X640097Y214102
X639605Y207212
X633700Y200323
X632715Y190480
X626810Y183590
X626318Y176701
X616475Y191956
X622085Y200421
X624251Y216858
X624251Y216858
X633995Y220795
X641613Y226937
X653916Y231858
X654408Y238748
X660314Y245638
X660806Y248984
X661298Y255480
X668286Y259614
X666219Y262173
X667696Y269260
X672395Y274378
X669172Y282055
X672322Y283531
X661593Y275952
X651849Y272015
X651849Y272015
X640137Y269260
X634034Y275952
X641613Y282055
X653916Y286976
X654408Y293866
X660314Y300756
X660806Y304102
X661298Y310598
X668286Y314732
X666219Y317291
X667696Y324378
X672395Y329496
X661593Y331071
X669133Y337212
X672282Y338689
X669526Y354437
X660274Y355913
X660766Y359260
X661259Y365756
X668247Y369889
X666180Y372449
X667656Y379535
X672355Y384653
X669133Y392330
X672282Y393807
X661554Y386228
X651810Y382291
X651810Y382291
X640097Y379535
X639605Y372645
X633700Y365756
X644034Y357389
X649644Y365854
X632715Y355913
X626810Y349023
X626318Y342134
X634034Y331071
X640137Y324378
X639644Y317488
X633739Y310598
X632755Y300756
X626849Y293866
X626357Y286976
X614054Y282055
X606475Y275952
X612577Y269260
X624290Y272015
X624290Y272015
X639644Y262370
X633739Y255480
X632755Y245638
X644074Y247114
X649684Y255578
X669566Y244161
X649644Y200421
X644034Y191956
X669526Y189004
X649644Y145303
X644034Y136838
X622085Y145303
X616475Y136838
X594526Y145303
X588916Y136838
X566967Y145303
X561357Y136838
X539408Y145303
X533798Y136838
X511849Y145303
X506239Y136838
X484290Y145303
X478680Y136838
X456731Y145303
X451121Y136838
X429172Y145303
X423562Y136838
X412243Y135362
X413227Y145204
X419133Y152094
X419625Y158984
X413522Y165677
X421101Y171779
X433404Y176701
X433896Y183590
X439802Y190480
X440786Y200323
X446692Y207212
X447184Y214102
X441081Y220795
X448700Y226937
X458896Y216858
X458896Y216858
X468640Y220795
X474743Y214102
X474251Y207212
X468345Y200323
X467361Y190480
X461455Y183590
X460963Y176701
X476219Y171779
X488522Y176701
X489014Y183590
X494920Y190480
X495904Y200323
X501810Y207212
X502302Y214102
X496200Y220795
X503818Y226937
X516121Y231858
X516613Y238748
X522518Y245638
X523503Y255480
X529408Y262370
X529900Y269260
X523798Y275952
X531377Y282055
X543680Y286976
X544172Y293866
X550077Y300756
X551062Y310598
X556967Y317488
X557459Y324378
X551357Y331071
X558896Y337212
X571200Y342134
X571692Y349023
X577597Y355913
X566967Y365854
X561357Y357389
X550038Y355913
X544133Y349023
X543640Y342134
X531337Y337212
X523798Y331071
X529900Y324378
X529408Y317488
X523503Y310598
X511888Y310697
X506278Y302232
X516613Y293866
X516121Y286976
X503818Y282055
X496239Y275952
X502341Y269260
X501849Y262370
X495944Y255480
X494959Y245638
X489054Y238748
X488562Y231858
X476259Y226937
X486455Y216858
X486455Y216858
X484290Y200421
X478680Y191956
X456731Y200421
X451121Y191956
X429172Y200421
X423562Y191956
X401613Y200421
X396003Y191956
X374054Y200421
X368444Y191956
X346495Y200421
X340885Y191956
X318936Y200421
X313326Y191956
X291377Y200421
X285766Y191956
X263818Y200421
X258207Y191956
X236259Y200421
X230648Y191956
X208700Y200421
X203089Y191956
X181140Y200421
X175530Y191956
X153581Y200421
X147971Y191956
X155747Y216858
X155747Y216858
X183306Y216858
X183306Y216858
X210865Y216858
X210865Y216858
X238424Y216858
X238424Y216858
X265983Y216858
X265983Y216858
X293542Y216858
X293542Y216858
X321101Y216858
X321101Y216858
X348660Y216858
X348660Y216858
X376219Y216858
X376219Y216858
X403778Y216858
X403778Y216858
X431337Y216858
X431337Y216858
X439841Y245638
X440826Y255480
X446731Y262370
X456770Y255578
X451160Y247114
X461495Y238748
X461003Y231858
X467400Y245638
X468385Y255480
X474290Y262370
X484329Y255578
X478719Y247114
X506278Y247114
X511888Y255578
X514054Y272015
X514054Y272015
X541613Y272015
X541613Y272015
X551357Y275952
X557459Y269260
X558936Y282055
X571239Y286976
X571731Y293866
X577637Y300756
X588955Y302232
X594566Y310697
X584526Y317488
X585018Y324378
X578916Y331071
X586455Y337212
X598759Y342134
X599251Y349023
X605156Y355913
X616475Y357389
X622085Y365854
X624251Y382291
X624251Y382291
X633995Y386228
X641574Y392330
X653877Y397252
X654369Y404141
X660274Y411031
X660766Y414378
X661259Y420874
X668247Y425008
X666180Y427567
X667656Y434653
X672355Y439771
X669172Y447409
X672322Y448886
X661554Y441346
X651810Y437409
X651810Y437409
X649644Y420972
X644034Y412508
X622085Y420972
X616475Y412508
X594526Y420972
X588916Y412508
X566967Y420972
X561357Y412508
X539408Y420972
X533798Y412508
X511849Y420972
X506239Y412508
X484290Y420972
X478680Y412508
X456731Y420972
X451121Y412508
X429172Y420972
X423562Y412508
X401613Y420972
X396003Y412508
X374054Y420972
X368444Y412508
X346495Y420972
X340885Y412508
X318936Y420972
X313326Y412508
X291377Y420972
X285766Y412508
X263818Y420972
X258207Y412508
X236259Y420972
X230648Y412508
X208700Y420972
X203089Y412508
X191770Y411031
X185865Y404141
X185373Y397252
X173070Y392330
X165491Y386228
X171593Y379535
X171101Y372645
X165196Y365756
X153581Y365854
X147971Y357389
X136652Y355913
X130747Y349023
X130255Y342134
X117951Y337212
X110412Y331071
X116514Y324378
X116022Y317488
X110117Y310598
X109133Y300756
X103227Y293866
X102735Y286976
X110412Y275952
X116514Y269260
X128227Y272015
X128227Y272015
X117991Y282055
X100668Y272015
X100668Y272015
X88955Y269260
X82853Y275952
X90432Y282055
X75176Y286976
X75668Y293866
X81574Y300756
X92892Y302232
X98503Y310697
X88463Y317488
X88955Y324378
X82853Y331071
X90392Y337212
X102696Y342134
X103188Y349023
X109093Y355913
X120412Y357389
X126022Y365854
X115983Y372645
X116475Y379535
X110373Y386228
X117951Y392330
X130255Y397252
X130747Y404141
X136652Y411031
X137637Y420874
X143542Y427764
X144034Y434653
X137932Y441346
X145550Y447409
X157853Y452330
X158345Y459220
X164251Y466110
X165235Y475952
X171140Y482842
X171633Y489732
X165530Y496425
X173109Y502527
X185412Y507449
X185904Y514338
X191810Y521228
X192794Y531071
X198700Y537960
X199192Y544850
X193089Y551543
X200589Y557606
X212892Y562527
X213385Y569417
X219290Y576307
X220274Y586149
X226180Y593039
X226672Y599929
X220570Y606622
X228148Y612724
X240451Y617645
X240944Y624535
X246849Y631425
X258168Y632901
X263778Y641366
X253739Y648157
X254231Y655047
X248129Y661740
X238385Y657803
X238385Y657803
X226672Y655047
X226180Y648157
X220274Y641267
X208660Y641366
X203050Y632901
X191731Y631425
X185826Y624535
X185333Y617645
X173030Y612724
X165451Y606622
X171554Y599929
X171062Y593039
X165156Y586149
X153542Y586248
X147932Y577783
X136613Y576307
X130707Y569417
X130215Y562527
X117912Y557606
X110412Y551543
X116514Y544850
X116022Y537960
X110117Y531071
X109133Y521228
X103227Y514338
X102735Y507449
X90432Y502527
X82853Y496425
X88955Y489732
X88463Y482842
X82558Y475952
X81574Y466110
X75668Y459220
X75176Y452330
X62873Y447409
X55255Y441346
X61357Y434653
X60865Y427764
X54959Y420874
X53975Y411031
X48070Y404141
X47577Y397252
X35274Y392330
X35274Y392330
X37341Y385638
X37341Y385638
X33798Y379535
X33306Y372645
X33404Y364968
X27400Y365756
X20904Y374909
X26416Y355913
X20707Y352764
X20451Y345834
X20018Y342134
X35274Y337212
X36987Y330086
X33837Y324378
X33345Y317488
X32459Y309811
X27440Y310598
X20845Y319850
X15826Y310697
X20353Y297212
X26455Y300756
X20451Y289732
X20845Y286386
X35314Y282055
X35314Y282055
X37381Y275362
X37381Y275362
X33837Y269260
X33345Y262370
X33444Y254693
X27440Y255480
X26455Y245638
X20944Y240913
X21042Y234023
X20648Y230283
X35314Y226937
X36790Y220638
X33798Y214102
X33306Y207212
X32656Y199771
X27400Y200323
X26416Y190480
X20314Y186937
X20412Y179456
X20806Y176110
X37735Y191956
X43345Y200421
X54959Y200323
X60865Y207212
X61357Y214102
X55255Y220795
X62873Y226937
X75176Y231858
X75668Y238748
X81574Y245638
X82558Y255480
X88463Y262370
X98503Y255578
X92892Y247114
X103227Y238748
X102735Y231858
X109133Y245638
X110117Y255480
X116022Y262370
X126062Y255578
X120451Y247114
X137676Y255480
X143581Y262370
X148011Y302232
X153621Y310697
X155786Y327134
X155786Y327134
X128227Y327134
X128227Y327134
X126062Y310697
X120451Y302232
X100668Y327134
X100668Y327134
X82558Y310598
X70944Y310697
X60904Y317488
X61396Y324378
X55294Y331071
X62833Y337212
X75137Y342134
X75629Y349023
X81534Y355913
X92853Y357389
X98463Y365854
X88424Y372645
X88916Y379535
X82814Y386228
X90392Y392330
X102696Y397252
X103188Y404141
X109093Y411031
X110077Y420874
X115983Y427764
X116475Y434653
X110373Y441346
X117991Y447409
X130294Y452330
X130786Y459220
X136692Y466110
X137676Y475952
X143581Y482842
X144074Y489732
X137971Y496425
X145550Y502527
X157853Y507449
X158345Y514338
X164251Y521228
X165235Y531071
X171140Y537960
X171633Y544850
X165530Y551543
X173030Y557606
X185333Y562527
X185826Y569417
X191731Y576307
X192715Y586149
X198621Y593039
X199113Y599929
X193011Y606622
X200589Y612724
X212892Y617645
X213385Y624535
X219290Y631425
X230609Y632901
X236219Y641366
X247833Y641267
X265944Y657803
X265944Y657803
X275688Y661740
X281790Y655047
X281298Y648157
X275392Y641267
X285727Y632901
X291337Y641366
X302951Y641267
X308857Y648157
X309349Y655047
X303247Y661740
X293503Y657803
X293503Y657803
X313286Y632901
X318896Y641366
X330511Y641267
X336416Y648157
X336908Y655047
X330806Y661740
X321062Y657803
X321062Y657803
X348621Y657803
X348621Y657803
X358365Y661740
X301967Y631425
X296062Y624535
X295570Y617645
X283266Y612724
X275688Y606622
X281790Y599929
X281298Y593039
X275392Y586149
X274408Y576307
X268503Y569417
X268011Y562527
X255707Y557606
X248207Y551543
X254310Y544850
X253818Y537960
X247912Y531071
X246928Y521228
X241022Y514338
X240530Y507449
X228227Y502527
X220648Y496425
X226751Y489732
X226259Y482842
X220353Y475952
X219369Y466110
X213463Y459220
X212971Y452330
X200668Y447409
X193050Y441346
X199152Y434653
X198660Y427764
X192755Y420874
X181140Y420972
X175530Y412508
X164211Y411031
X158306Y404141
X157814Y397252
X145511Y392330
X137932Y386228
X144034Y379535
X143542Y372645
X137637Y365756
X128188Y382291
X128188Y382291
X110077Y365756
X100629Y382291
X100629Y382291
X82518Y365756
X70904Y365854
X65294Y357389
X53975Y355913
X48070Y349023
X47577Y342134
X45550Y327134
X45550Y327134
X43385Y310697
X54999Y310598
X54014Y300756
X48109Y293866
X47617Y286976
X55294Y275952
X61396Y269260
X62873Y282055
X73109Y272015
X73109Y272015
X60904Y262370
X54999Y255480
X54014Y245638
X48109Y238748
X47617Y231858
X45511Y216858
X45511Y216858
X20845Y209614
X15786Y200421
X45511Y161740
X45511Y161740
X43345Y145303
X37735Y136838
X20904Y154358
X65294Y136838
X70904Y145303
X73070Y161740
X73070Y161740
X98463Y145303
X92853Y136838
X120412Y136838
X126022Y145303
X147971Y136838
X153581Y145303
X155747Y161740
X155747Y161740
X183306Y161740
X183306Y161740
X181140Y145303
X175530Y136838
X203089Y136838
X208700Y145303
X210865Y161740
X210865Y161740
X293581Y106661
X293581Y106661
X321140Y106661
X321140Y106661
X348700Y106661
X348700Y106661
X376259Y106661
X376259Y106661
X403818Y106661
X403818Y106661
X431377Y106661
X431377Y106661
X458936Y106661
X458936Y106661
X486495Y106661
X486495Y106661
X514054Y106661
X514054Y106661
X541613Y106661
X541613Y106661
X569172Y106661
X569172Y106661
X594566Y90224
X588955Y81760
X577637Y80283
X571731Y73393
X571239Y66504
X578916Y55480
X585018Y48787
X584526Y41897
X578621Y35008
X577637Y25165
X571731Y18275
X571239Y11386
X558936Y6464
X543680Y11386
X544172Y18275
X550077Y25165
X551062Y35008
X556967Y41897
X557459Y48787
X551357Y55480
X558936Y61582
X569172Y51543
X569172Y51543
X567007Y35106
X561396Y26641
X539448Y35106
X533837Y26641
X531377Y6464
X511888Y35106
X514054Y51543
X514054Y51543
X541613Y51543
X541613Y51543
X586495Y61582
X598798Y66504
X599290Y73393
X605196Y80283
X614054Y61582
X606475Y55480
X612577Y48787
X612085Y41897
X606180Y35008
X605196Y25165
X599290Y18275
X598798Y11386
X586495Y6464
X588955Y26641
X594566Y35106
X596731Y51543
X596731Y51543
X624290Y51543
X624290Y51543
X634034Y55480
X640137Y48787
X639644Y41897
X633739Y35008
X632755Y25165
X626849Y18275
X626357Y11386
X614054Y6464
X616514Y26641
X622125Y35106
X644074Y26641
X649684Y35106
X661298Y35008
X660806Y28512
X660314Y25165
X654408Y18275
X653916Y11386
X641613Y6464
X669172Y6464
X672322Y7941
X669566Y23689
X668286Y39141
X666219Y41701
X667696Y48787
X672395Y53905
X669172Y61582
X672322Y63059
X661593Y55480
X651849Y51543
X651849Y51543
X641613Y61582
X653916Y66504
X654408Y73393
X660314Y80283
X660806Y83630
X661298Y90126
X668286Y94260
X666219Y96819
X667696Y103905
X672395Y109023
X669133Y116661
X672282Y118138
X661593Y110598
X651849Y106661
X651849Y106661
X649684Y90224
X644074Y81760
X632755Y80283
X626849Y73393
X626357Y66504
X624290Y106661
X624290Y106661
X596731Y106661
X596731Y106661
X596692Y161740
X596692Y161740
X569133Y161740
X569133Y161740
X541574Y161740
X541574Y161740
X514014Y161740
X514014Y161740
X486455Y161740
X486455Y161740
X506239Y191956
X511849Y200421
X514014Y216858
X514014Y216858
X541574Y216858
X541574Y216858
X539408Y200421
X533798Y191956
X561357Y191956
X566967Y200421
X569133Y216858
X569133Y216858
X594526Y200421
X588916Y191956
X596692Y216858
X596692Y216858
X588955Y247114
X594566Y255578
X584526Y262370
X578621Y255480
X577637Y245638
X585018Y269260
X578916Y275952
X586495Y282055
X598798Y286976
X599290Y293866
X605196Y300756
X616514Y302232
X622125Y310697
X612085Y317488
X612577Y324378
X606475Y331071
X614014Y337212
X624290Y327134
X624290Y327134
X606180Y310598
X596731Y327134
X596731Y327134
X578621Y310598
X567007Y310697
X561396Y302232
X539448Y310697
X533837Y302232
X522518Y300756
X514054Y327134
X514054Y327134
X541613Y327134
X541613Y327134
X569172Y327134
X569172Y327134
X569172Y272015
X569172Y272015
X596731Y272015
X596731Y272015
X644074Y302232
X649684Y310697
X651849Y327134
X651849Y327134
X641574Y337212
X653877Y342134
X654369Y349023
X669566Y299279
X596692Y382291
X596692Y382291
X569133Y382291
X569133Y382291
X541574Y382291
X541574Y382291
X514014Y382291
X514014Y382291
X486455Y382291
X486455Y382291
X458896Y382291
X458896Y382291
X431337Y382291
X431337Y382291
X403778Y382291
X403778Y382291
X376219Y382291
X376219Y382291
X348660Y382291
X348660Y382291
X321101Y382291
X321101Y382291
X321101Y437409
X321101Y437409
X293542Y437409
X293542Y437409
X265983Y437409
X265983Y437409
X238424Y437409
X238424Y437409
X210865Y437409
X210865Y437409
X183306Y437409
X183306Y437409
X171593Y434653
X171101Y427764
X165196Y420874
X153581Y420972
X147971Y412508
X126022Y420972
X120412Y412508
X98463Y420972
X92853Y412508
X81534Y411031
X75629Y404141
X75137Y397252
X62833Y392330
X55255Y386228
X61357Y379535
X60865Y372645
X54959Y365756
X43345Y365854
X37735Y357389
X45511Y382291
X45511Y382291
X73070Y382291
X73070Y382291
X65294Y412508
X70904Y420972
X82518Y420874
X88424Y427764
X88916Y434653
X82814Y441346
X90432Y447409
X102735Y452330
X103227Y459220
X109133Y466110
X110117Y475952
X116022Y482842
X116514Y489732
X110412Y496425
X117991Y502527
X128227Y492488
X128227Y492488
X130294Y507449
X130786Y514338
X136692Y521228
X137676Y531071
X143581Y537960
X144074Y544850
X137971Y551543
X145471Y557606
X157774Y562527
X158266Y569417
X164172Y576307
X175491Y577783
X181101Y586248
X183266Y602685
X183266Y602685
X158266Y624535
X157774Y617645
X145471Y612724
X137892Y606622
X143995Y599929
X143503Y593039
X137597Y586149
X125983Y586248
X115944Y593039
X116436Y599929
X110333Y606622
X117912Y612724
X130215Y617645
X130707Y624535
X136613Y631425
X147932Y632901
X153542Y641366
X165156Y641267
X171062Y648157
X171554Y655047
X165451Y661740
X155707Y657803
X155707Y657803
X143995Y655047
X143503Y648157
X137597Y641267
X125983Y641366
X120373Y632901
X109054Y631425
X103148Y624535
X102656Y617645
X90353Y612724
X82774Y606622
X88877Y599929
X88385Y593039
X82479Y586149
X81495Y576307
X75589Y569417
X75097Y562527
X62794Y557606
X55294Y551543
X61396Y544850
X60904Y537960
X54999Y531071
X54014Y521228
X48109Y514338
X47617Y507449
X35314Y502527
X35314Y502527
X37381Y495834
X37381Y495834
X33837Y489732
X33345Y482842
X33444Y475165
X27440Y475952
X26455Y466110
X20550Y462370
X20648Y455480
X20058Y452330
X35314Y447409
X37932Y440756
X33798Y434653
X33306Y427764
X32420Y420283
X27400Y420874
X26416Y411031
X20314Y407488
X20412Y400008
X20806Y396661
X37735Y412508
X43345Y420972
X45511Y437409
X45511Y437409
X47617Y452330
X48109Y459220
X54014Y466110
X54999Y475952
X60904Y482842
X61396Y489732
X55294Y496425
X62873Y502527
X75176Y507449
X75668Y514338
X81574Y521228
X82558Y531071
X88463Y537960
X88955Y544850
X82853Y551543
X90353Y557606
X102656Y562527
X103148Y569417
X109054Y576307
X120373Y577783
X110038Y586149
X98424Y586248
X92814Y577783
X70865Y586248
X60826Y593039
X61318Y599929
X55215Y606622
X62794Y612724
X75097Y617645
X75589Y624535
X81495Y631425
X92814Y632901
X98424Y641366
X88385Y648157
X88877Y655047
X82774Y661740
X73030Y657803
X73030Y657803
X61318Y655047
X60826Y648157
X54920Y641267
X43306Y641366
X37696Y632901
X26377Y631425
X20274Y627882
X20373Y620401
X20766Y617055
X35235Y612724
X35235Y612724
X37302Y606031
X37302Y606031
X33759Y599929
X33266Y593039
X27361Y586149
X33365Y585362
X37696Y577783
X48030Y569417
X47538Y562527
X35235Y557606
X37184Y550952
X33837Y544850
X33345Y537960
X33444Y530283
X27440Y531071
X26455Y521228
X20353Y517685
X20451Y510204
X20845Y506858
X20944Y485106
X37774Y467586
X43385Y476051
X45550Y492488
X45550Y492488
X70944Y476051
X65333Y467586
X92892Y467586
X98503Y476051
X100668Y492488
X100668Y492488
X126062Y476051
X120451Y467586
X148011Y467586
X153621Y476051
X155786Y492488
X155786Y492488
X183345Y492488
X183345Y492488
X193089Y496425
X199192Y489732
X198700Y482842
X192794Y475952
X191810Y466110
X185904Y459220
X185412Y452330
X173109Y447409
X165491Y441346
X155747Y437409
X155747Y437409
X128188Y437409
X128188Y437409
X100629Y437409
X100629Y437409
X73070Y437409
X73070Y437409
X20806Y429929
X20806Y429929
X73109Y492488
X73109Y492488
X65333Y522704
X70944Y531169
X73109Y547606
X73109Y547606
X98503Y531169
X92892Y522704
X100668Y547606
X100668Y547606
X128227Y547606
X128227Y547606
X126062Y531169
X120451Y522704
X148011Y522704
X153621Y531169
X155786Y547606
X155786Y547606
X183345Y547606
X183345Y547606
X181180Y531169
X175570Y522704
X200668Y502527
X212971Y507449
X213463Y514338
X219369Y521228
X220353Y531071
X226259Y537960
X226751Y544850
X220648Y551543
X228148Y557606
X240451Y562527
X240944Y569417
X246849Y576307
X258168Y577783
X263778Y586248
X253739Y593039
X254231Y599929
X248129Y606622
X255707Y612724
X268011Y617645
X268503Y624535
X274408Y631425
X265944Y602685
X265944Y602685
X247833Y586149
X236219Y586248
X230609Y577783
X208660Y586248
X203050Y577783
X210826Y602685
X210826Y602685
X238385Y602685
X238385Y602685
X285727Y577783
X291337Y586248
X293503Y602685
X293503Y602685
X321062Y602685
X321062Y602685
X318896Y586248
X313286Y577783
X340845Y577783
X346455Y586248
X348621Y602685
X348621Y602685
X376180Y602685
X376180Y602685
X401574Y586248
X395963Y577783
X384644Y576307
X376259Y547606
X376259Y547606
X374093Y531169
X368483Y522704
X346534Y531169
X340924Y522704
X318975Y531169
X313365Y522704
X291416Y531169
X285806Y522704
X263857Y531169
X258247Y522704
X236298Y531169
X230688Y522704
X208739Y531169
X203129Y522704
X210904Y547606
X210904Y547606
X238463Y547606
X238463Y547606
X266022Y547606
X266022Y547606
X293581Y547606
X293581Y547606
X321140Y547606
X321140Y547606
X348700Y547606
X348700Y547606
X396042Y522704
X401652Y531169
X403818Y547606
X403818Y547606
X429211Y531169
X423601Y522704
X431377Y547606
X431377Y547606
X458936Y547606
X458936Y547606
X468680Y551543
X474782Y544850
X474290Y537960
X468385Y531071
X467400Y521228
X461495Y514338
X461003Y507449
X476259Y502527
X488562Y507449
X489054Y514338
X494959Y521228
X495944Y531071
X501849Y537960
X502341Y544850
X496239Y551543
X503739Y557606
X516042Y562527
X516534Y569417
X522440Y576307
X523424Y586149
X529329Y593039
X529822Y599929
X523719Y606622
X531298Y612724
X541534Y602685
X541534Y602685
X558857Y612724
X571160Y617645
X571652Y624535
X577558Y631425
X569093Y657803
X569093Y657803
X578837Y661740
X522440Y631425
X516534Y624535
X516042Y617645
X503739Y612724
X496160Y606622
X502263Y599929
X501770Y593039
X495865Y586149
X484251Y586248
X478640Y577783
X488975Y569417
X488483Y562527
X476180Y557606
X486495Y547606
X486495Y547606
X484329Y531169
X478719Y522704
X456770Y531169
X451160Y522704
X431377Y492488
X431377Y492488
X429211Y476051
X423601Y467586
X401652Y476051
X396042Y467586
X374093Y476051
X368483Y467586
X346534Y476051
X340924Y467586
X318975Y476051
X313365Y467586
X291416Y476051
X285806Y467586
X263857Y476051
X258247Y467586
X236298Y476051
X230688Y467586
X208739Y476051
X203129Y467586
X181180Y476051
X175570Y467586
X210904Y492488
X210904Y492488
X238463Y492488
X238463Y492488
X266022Y492488
X266022Y492488
X321140Y492488
X321140Y492488
X348700Y492488
X348700Y492488
X376259Y492488
X376259Y492488
X403818Y492488
X403818Y492488
X451160Y467586
X456770Y476051
X478719Y467586
X484329Y476051
X486495Y492488
X486495Y492488
X514054Y492488
X514054Y492488
X511888Y476051
X506278Y467586
X533837Y467586
X539448Y476051
X541613Y492488
X541613Y492488
X567007Y476051
X561396Y467586
X588955Y467586
X594566Y476051
X596731Y492488
X596731Y492488
X622125Y476051
X616514Y467586
X644074Y467586
X649684Y476051
X669566Y464634
X624251Y437409
X624251Y437409
X596692Y437409
X596692Y437409
X569133Y437409
X569133Y437409
X541574Y437409
X541574Y437409
X514014Y437409
X514014Y437409
X486455Y437409
X486455Y437409
X458896Y437409
X458896Y437409
X431337Y437409
X431337Y437409
X403778Y437409
X403778Y437409
X376219Y437409
X376219Y437409
X348660Y437409
X348660Y437409
X348700Y327134
X348700Y327134
X376259Y327134
X376259Y327134
X401652Y310697
X396042Y302232
X384723Y300756
X357164Y300756
X348700Y272015
X348700Y272015
X313365Y302232
X318975Y310697
X321140Y327134
X321140Y327134
X293581Y327134
X293581Y327134
X275471Y310598
X263857Y310697
X258247Y302232
X236298Y310697
X230688Y302232
X208739Y310697
X203129Y302232
X181180Y310697
X175570Y302232
X183345Y327134
X183345Y327134
X210904Y327134
X210904Y327134
X238463Y327134
X238463Y327134
X266022Y327134
X266022Y327134
X210865Y382291
X210865Y382291
X183306Y382291
X183306Y382291
X155747Y382291
X155747Y382291
X73109Y327134
X73109Y327134
X65333Y302232
X37774Y302232
X45550Y272015
X45550Y272015
X43385Y255578
X37774Y247114
X20944Y264634
X65333Y247114
X70944Y255578
X73070Y216858
X73070Y216858
X183345Y272015
X183345Y272015
X396042Y247114
X401652Y255578
X451160Y302232
X456770Y310697
X458936Y327134
X458936Y327134
X431377Y327134
X431377Y327134
X413266Y310598
X403818Y327134
X403818Y327134
X478719Y302232
X484329Y310697
X486495Y327134
X486495Y327134
X539448Y255578
X533837Y247114
X431337Y161740
X431337Y161740
X403778Y161740
X403778Y161740
X376259Y51543
X376259Y51543
X348700Y51543
X348700Y51543
X346534Y35106
X321140Y51543
X321140Y51543
X293581Y51543
X293581Y51543
X275471Y35008
X263857Y35106
X258247Y26641
X255786Y6464
X230688Y26641
X236298Y35106
X238463Y51543
X238463Y51543
X210904Y51543
X210904Y51543
X208739Y35106
X203129Y26641
X191810Y25165
X200668Y6464
X164251Y25165
X155786Y51543
X155786Y51543
X183345Y51543
X183345Y51543
X266022Y51543
X266022Y51543
X421140Y6464
X486495Y51543
X486495Y51543
X669566Y78807
X669526Y133886
X669526Y409555
X569172Y492488
X569172Y492488
X561396Y522704
X567007Y531169
X569172Y547606
X569172Y547606
X594566Y531169
X588955Y522704
X596731Y547606
X596731Y547606
X616436Y577783
X622046Y586248
X624211Y602685
X624211Y602685
X596652Y602685
X596652Y602685
X578542Y586149
X566928Y586248
X561318Y577783
X549999Y576307
X541613Y547606
X541613Y547606
X539448Y531169
X533837Y522704
X511888Y531169
X506278Y522704
X514054Y547606
X514054Y547606
X506200Y577783
X511810Y586248
X513975Y602685
X513975Y602685
X488975Y624535
X488483Y617645
X486416Y602685
X486416Y602685
X458857Y602685
X458857Y602685
X440747Y586149
X431298Y602685
X431298Y602685
X413188Y586149
X403739Y602685
X403739Y602685
X494881Y576307
X494881Y631425
X569093Y602685
X569093Y602685
X643995Y577783
X649605Y586248
X651770Y602685
X651770Y602685
X669487Y574830
X649684Y531169
X644074Y522704
X669566Y519752
X220570Y661740
X210826Y657803
X210826Y657803
X199113Y655047
X198621Y648157
X192715Y641267
X181101Y641366
X175491Y632901
X164172Y631425
X155707Y602685
X155707Y602685
X128148Y602685
X128148Y602685
X100589Y602685
X100589Y602685
X73030Y602685
X73030Y602685
X54920Y586149
X43306Y586248
X53936Y576307
X65255Y577783
X45471Y602685
X45471Y602685
X47538Y617645
X48030Y624535
X53936Y631425
X65255Y632901
X70865Y641366
X82479Y641267
X100589Y657803
X100589Y657803
X110333Y661740
X116436Y655047
X115944Y648157
X110038Y641267
X128148Y657803
X128148Y657803
X137892Y661740
X183266Y657803
X183266Y657803
X193011Y661740
X55215Y661740
X45471Y657803
X45471Y657803
X33759Y655047
X33266Y648157
X27361Y641267
X15747Y641366
X17912Y657803
X17912Y657803
X27656Y661740
X20865Y595303
X26377Y576307
X20668Y573157
X21042Y566307
X19979Y562527
X20845Y541110
X37774Y522704
X43385Y531169
X45550Y547606
X45550Y547606
M30
