G75*
%MOIN*%
%OFA0B0*%
%FSLAX25Y25*%
%IPPOS*%
%LPD*%
%AMOC8*
5,1,8,0,0,1.08239X$1,22.5*
%
%ADD10C,0.04800*%
D10*
X0022066Y0026346D03*
X0031829Y0026346D03*
X0049625Y0026346D03*
X0059388Y0026346D03*
X0077184Y0026346D03*
X0086948Y0026346D03*
X0104743Y0026346D03*
X0114507Y0026346D03*
X0132302Y0026346D03*
X0142066Y0026346D03*
X0159861Y0026346D03*
X0169625Y0026346D03*
X0187420Y0026346D03*
X0197184Y0026346D03*
X0214979Y0026346D03*
X0224743Y0026346D03*
X0242538Y0026346D03*
X0252302Y0026346D03*
X0270097Y0026346D03*
X0279861Y0026346D03*
X0297656Y0026346D03*
X0307420Y0026346D03*
X0325215Y0026346D03*
X0334979Y0026346D03*
X0352774Y0026346D03*
X0362538Y0026346D03*
X0380333Y0026346D03*
X0390097Y0026346D03*
X0407892Y0026346D03*
X0417656Y0026346D03*
X0435451Y0026346D03*
X0445215Y0026346D03*
X0463011Y0026346D03*
X0472774Y0026346D03*
X0490570Y0026346D03*
X0500333Y0026346D03*
X0518129Y0026346D03*
X0527892Y0026346D03*
X0545688Y0026346D03*
X0555451Y0026346D03*
X0573247Y0026346D03*
X0583011Y0026346D03*
X0600806Y0026346D03*
X0610570Y0026346D03*
X0628365Y0026346D03*
X0638129Y0026346D03*
X0655924Y0026346D03*
X0665688Y0026346D03*
X0665688Y0053905D03*
X0655924Y0053905D03*
X0638129Y0053905D03*
X0628365Y0053905D03*
X0610570Y0053905D03*
X0600806Y0053905D03*
X0583011Y0053905D03*
X0573247Y0053905D03*
X0555451Y0053905D03*
X0545688Y0053905D03*
X0527892Y0053905D03*
X0518129Y0053905D03*
X0500333Y0053905D03*
X0490570Y0053905D03*
X0472774Y0053905D03*
X0463011Y0053905D03*
X0445215Y0053905D03*
X0435451Y0053905D03*
X0417656Y0053905D03*
X0407892Y0053905D03*
X0390097Y0053905D03*
X0380333Y0053905D03*
X0362538Y0053905D03*
X0352774Y0053905D03*
X0334979Y0053905D03*
X0325215Y0053905D03*
X0307420Y0053905D03*
X0297656Y0053905D03*
X0279861Y0053905D03*
X0270097Y0053905D03*
X0252302Y0053905D03*
X0242538Y0053905D03*
X0224743Y0053905D03*
X0214979Y0053905D03*
X0197184Y0053905D03*
X0187420Y0053905D03*
X0169625Y0053905D03*
X0159861Y0053905D03*
X0142066Y0053905D03*
X0132302Y0053905D03*
X0114507Y0053905D03*
X0104743Y0053905D03*
X0086948Y0053905D03*
X0077184Y0053905D03*
X0059388Y0053905D03*
X0049625Y0053905D03*
X0031829Y0053905D03*
X0022066Y0053905D03*
X0022066Y0081464D03*
X0031829Y0081464D03*
X0049625Y0081464D03*
X0059388Y0081464D03*
X0077184Y0081464D03*
X0086948Y0081464D03*
X0104743Y0081464D03*
X0114507Y0081464D03*
X0132302Y0081464D03*
X0142066Y0081464D03*
X0159861Y0081464D03*
X0169625Y0081464D03*
X0187420Y0081464D03*
X0197184Y0081464D03*
X0214979Y0081464D03*
X0224743Y0081464D03*
X0242538Y0081464D03*
X0252302Y0081464D03*
X0270097Y0081464D03*
X0279861Y0081464D03*
X0297656Y0081464D03*
X0307420Y0081464D03*
X0325215Y0081464D03*
X0334979Y0081464D03*
X0352774Y0081464D03*
X0362538Y0081464D03*
X0380333Y0081464D03*
X0390097Y0081464D03*
X0407892Y0081464D03*
X0417656Y0081464D03*
X0435451Y0081464D03*
X0445215Y0081464D03*
X0463011Y0081464D03*
X0472774Y0081464D03*
X0490570Y0081464D03*
X0500333Y0081464D03*
X0518129Y0081464D03*
X0527892Y0081464D03*
X0545688Y0081464D03*
X0555451Y0081464D03*
X0573247Y0081464D03*
X0583011Y0081464D03*
X0600806Y0081464D03*
X0610570Y0081464D03*
X0628365Y0081464D03*
X0638129Y0081464D03*
X0655924Y0081464D03*
X0665688Y0081464D03*
X0665688Y0109023D03*
X0655924Y0109023D03*
X0638129Y0109023D03*
X0628365Y0109023D03*
X0610570Y0109023D03*
X0600806Y0109023D03*
X0583011Y0109023D03*
X0573247Y0109023D03*
X0555451Y0109023D03*
X0545688Y0109023D03*
X0527892Y0109023D03*
X0518129Y0109023D03*
X0500333Y0109023D03*
X0490570Y0109023D03*
X0472774Y0109023D03*
X0463011Y0109023D03*
X0445215Y0109023D03*
X0435451Y0109023D03*
X0417656Y0109023D03*
X0407892Y0109023D03*
X0390097Y0109023D03*
X0380333Y0109023D03*
X0362538Y0109023D03*
X0352774Y0109023D03*
X0334979Y0109023D03*
X0325215Y0109023D03*
X0307420Y0109023D03*
X0297656Y0109023D03*
X0279861Y0109023D03*
X0270097Y0109023D03*
X0252302Y0109023D03*
X0242538Y0109023D03*
X0224743Y0109023D03*
X0214979Y0109023D03*
X0197184Y0109023D03*
X0187420Y0109023D03*
X0169625Y0109023D03*
X0159861Y0109023D03*
X0142066Y0109023D03*
X0132302Y0109023D03*
X0114507Y0109023D03*
X0104743Y0109023D03*
X0086948Y0109023D03*
X0077184Y0109023D03*
X0059388Y0109023D03*
X0049625Y0109023D03*
X0031829Y0109023D03*
X0022066Y0109023D03*
X0022026Y0136543D03*
X0031790Y0136543D03*
X0049585Y0136543D03*
X0059349Y0136543D03*
X0077144Y0136543D03*
X0086908Y0136543D03*
X0104703Y0136543D03*
X0114467Y0136543D03*
X0132263Y0136543D03*
X0142026Y0136543D03*
X0159822Y0136543D03*
X0169585Y0136543D03*
X0187381Y0136543D03*
X0197144Y0136543D03*
X0214940Y0136543D03*
X0224703Y0136543D03*
X0242499Y0136543D03*
X0252263Y0136543D03*
X0270058Y0136543D03*
X0279822Y0136543D03*
X0297617Y0136543D03*
X0307381Y0136543D03*
X0325176Y0136543D03*
X0334940Y0136543D03*
X0352735Y0136543D03*
X0362499Y0136543D03*
X0380294Y0136543D03*
X0390058Y0136543D03*
X0407853Y0136543D03*
X0417617Y0136543D03*
X0435412Y0136543D03*
X0445176Y0136543D03*
X0462971Y0136543D03*
X0472735Y0136543D03*
X0490530Y0136543D03*
X0500294Y0136543D03*
X0518089Y0136543D03*
X0527853Y0136543D03*
X0545648Y0136543D03*
X0555412Y0136543D03*
X0573207Y0136543D03*
X0582971Y0136543D03*
X0600766Y0136543D03*
X0610530Y0136543D03*
X0628326Y0136543D03*
X0638089Y0136543D03*
X0655885Y0136543D03*
X0665648Y0136543D03*
X0665648Y0164102D03*
X0655885Y0164102D03*
X0638089Y0164102D03*
X0628326Y0164102D03*
X0610530Y0164102D03*
X0600766Y0164102D03*
X0582971Y0164102D03*
X0573207Y0164102D03*
X0555412Y0164102D03*
X0545648Y0164102D03*
X0527853Y0164102D03*
X0518089Y0164102D03*
X0500294Y0164102D03*
X0490530Y0164102D03*
X0472735Y0164102D03*
X0462971Y0164102D03*
X0445176Y0164102D03*
X0435412Y0164102D03*
X0417617Y0164102D03*
X0407853Y0164102D03*
X0390058Y0164102D03*
X0380294Y0164102D03*
X0362499Y0164102D03*
X0352735Y0164102D03*
X0334940Y0164102D03*
X0325176Y0164102D03*
X0307381Y0164102D03*
X0297617Y0164102D03*
X0279822Y0164102D03*
X0270058Y0164102D03*
X0252263Y0164102D03*
X0242499Y0164102D03*
X0224703Y0164102D03*
X0214940Y0164102D03*
X0197144Y0164102D03*
X0187381Y0164102D03*
X0169585Y0164102D03*
X0159822Y0164102D03*
X0142026Y0164102D03*
X0132263Y0164102D03*
X0114467Y0164102D03*
X0104703Y0164102D03*
X0086908Y0164102D03*
X0077144Y0164102D03*
X0059349Y0164102D03*
X0049585Y0164102D03*
X0031790Y0164102D03*
X0022026Y0164102D03*
X0022026Y0191661D03*
X0031790Y0191661D03*
X0049585Y0191661D03*
X0059349Y0191661D03*
X0077144Y0191661D03*
X0086908Y0191661D03*
X0104703Y0191661D03*
X0114467Y0191661D03*
X0132263Y0191661D03*
X0142026Y0191661D03*
X0159822Y0191661D03*
X0169585Y0191661D03*
X0187381Y0191661D03*
X0197144Y0191661D03*
X0214940Y0191661D03*
X0224703Y0191661D03*
X0242499Y0191661D03*
X0252263Y0191661D03*
X0270058Y0191661D03*
X0279822Y0191661D03*
X0297617Y0191661D03*
X0307381Y0191661D03*
X0325176Y0191661D03*
X0334940Y0191661D03*
X0352735Y0191661D03*
X0362499Y0191661D03*
X0380294Y0191661D03*
X0390058Y0191661D03*
X0407853Y0191661D03*
X0417617Y0191661D03*
X0435412Y0191661D03*
X0445176Y0191661D03*
X0462971Y0191661D03*
X0472735Y0191661D03*
X0490530Y0191661D03*
X0500294Y0191661D03*
X0518089Y0191661D03*
X0527853Y0191661D03*
X0545648Y0191661D03*
X0555412Y0191661D03*
X0573207Y0191661D03*
X0582971Y0191661D03*
X0600766Y0191661D03*
X0610530Y0191661D03*
X0628326Y0191661D03*
X0638089Y0191661D03*
X0655885Y0191661D03*
X0665648Y0191661D03*
X0665648Y0219220D03*
X0655885Y0219220D03*
X0638089Y0219220D03*
X0628326Y0219220D03*
X0610530Y0219220D03*
X0600766Y0219220D03*
X0582971Y0219220D03*
X0573207Y0219220D03*
X0555412Y0219220D03*
X0545648Y0219220D03*
X0527853Y0219220D03*
X0518089Y0219220D03*
X0500294Y0219220D03*
X0490530Y0219220D03*
X0472735Y0219220D03*
X0462971Y0219220D03*
X0445176Y0219220D03*
X0435412Y0219220D03*
X0417617Y0219220D03*
X0407853Y0219220D03*
X0390058Y0219220D03*
X0380294Y0219220D03*
X0362499Y0219220D03*
X0352735Y0219220D03*
X0334940Y0219220D03*
X0325176Y0219220D03*
X0307381Y0219220D03*
X0297617Y0219220D03*
X0279822Y0219220D03*
X0270058Y0219220D03*
X0252263Y0219220D03*
X0242499Y0219220D03*
X0224703Y0219220D03*
X0214940Y0219220D03*
X0197144Y0219220D03*
X0187381Y0219220D03*
X0169585Y0219220D03*
X0159822Y0219220D03*
X0142026Y0219220D03*
X0132263Y0219220D03*
X0114467Y0219220D03*
X0104703Y0219220D03*
X0086908Y0219220D03*
X0077144Y0219220D03*
X0059349Y0219220D03*
X0049585Y0219220D03*
X0031790Y0219220D03*
X0022026Y0219220D03*
X0022066Y0246819D03*
X0031829Y0246819D03*
X0049625Y0246819D03*
X0059388Y0246819D03*
X0077184Y0246819D03*
X0086948Y0246819D03*
X0104743Y0246819D03*
X0114507Y0246819D03*
X0132302Y0246819D03*
X0142066Y0246819D03*
X0159861Y0246819D03*
X0169625Y0246819D03*
X0187420Y0246819D03*
X0197184Y0246819D03*
X0214979Y0246819D03*
X0224743Y0246819D03*
X0242538Y0246819D03*
X0252302Y0246819D03*
X0270097Y0246819D03*
X0279861Y0246819D03*
X0297656Y0246819D03*
X0307420Y0246819D03*
X0325215Y0246819D03*
X0334979Y0246819D03*
X0352774Y0246819D03*
X0362538Y0246819D03*
X0380333Y0246819D03*
X0390097Y0246819D03*
X0407892Y0246819D03*
X0417656Y0246819D03*
X0435451Y0246819D03*
X0445215Y0246819D03*
X0463011Y0246819D03*
X0472774Y0246819D03*
X0490570Y0246819D03*
X0500333Y0246819D03*
X0518129Y0246819D03*
X0527892Y0246819D03*
X0545688Y0246819D03*
X0555451Y0246819D03*
X0573247Y0246819D03*
X0583011Y0246819D03*
X0600806Y0246819D03*
X0610570Y0246819D03*
X0628365Y0246819D03*
X0638129Y0246819D03*
X0655924Y0246819D03*
X0665688Y0246819D03*
X0665688Y0274378D03*
X0655924Y0274378D03*
X0638129Y0274378D03*
X0628365Y0274378D03*
X0610570Y0274378D03*
X0600806Y0274378D03*
X0583011Y0274378D03*
X0573247Y0274378D03*
X0555451Y0274378D03*
X0545688Y0274378D03*
X0527892Y0274378D03*
X0518129Y0274378D03*
X0500333Y0274378D03*
X0490570Y0274378D03*
X0472774Y0274378D03*
X0463011Y0274378D03*
X0445215Y0274378D03*
X0435451Y0274378D03*
X0417656Y0274378D03*
X0407892Y0274378D03*
X0390097Y0274378D03*
X0380333Y0274378D03*
X0362538Y0274378D03*
X0352774Y0274378D03*
X0334979Y0274378D03*
X0325215Y0274378D03*
X0307420Y0274378D03*
X0297656Y0274378D03*
X0279861Y0274378D03*
X0270097Y0274378D03*
X0252302Y0274378D03*
X0242538Y0274378D03*
X0224743Y0274378D03*
X0214979Y0274378D03*
X0197184Y0274378D03*
X0187420Y0274378D03*
X0169625Y0274378D03*
X0159861Y0274378D03*
X0142066Y0274378D03*
X0132302Y0274378D03*
X0114507Y0274378D03*
X0104743Y0274378D03*
X0086948Y0274378D03*
X0077184Y0274378D03*
X0059388Y0274378D03*
X0049625Y0274378D03*
X0031829Y0274378D03*
X0022066Y0274378D03*
X0022066Y0301937D03*
X0031829Y0301937D03*
X0049625Y0301937D03*
X0059388Y0301937D03*
X0077184Y0301937D03*
X0086948Y0301937D03*
X0104743Y0301937D03*
X0114507Y0301937D03*
X0132302Y0301937D03*
X0142066Y0301937D03*
X0159861Y0301937D03*
X0169625Y0301937D03*
X0187420Y0301937D03*
X0197184Y0301937D03*
X0214979Y0301937D03*
X0224743Y0301937D03*
X0242538Y0301937D03*
X0252302Y0301937D03*
X0270097Y0301937D03*
X0279861Y0301937D03*
X0297656Y0301937D03*
X0307420Y0301937D03*
X0325215Y0301937D03*
X0334979Y0301937D03*
X0352774Y0301937D03*
X0362538Y0301937D03*
X0380333Y0301937D03*
X0390097Y0301937D03*
X0407892Y0301937D03*
X0417656Y0301937D03*
X0435451Y0301937D03*
X0445215Y0301937D03*
X0463011Y0301937D03*
X0472774Y0301937D03*
X0490570Y0301937D03*
X0500333Y0301937D03*
X0518129Y0301937D03*
X0527892Y0301937D03*
X0545688Y0301937D03*
X0555451Y0301937D03*
X0573247Y0301937D03*
X0583011Y0301937D03*
X0600806Y0301937D03*
X0610570Y0301937D03*
X0628365Y0301937D03*
X0638129Y0301937D03*
X0655924Y0301937D03*
X0665688Y0301937D03*
X0665688Y0329496D03*
X0655924Y0329496D03*
X0638129Y0329496D03*
X0628365Y0329496D03*
X0610570Y0329496D03*
X0600806Y0329496D03*
X0583011Y0329496D03*
X0573247Y0329496D03*
X0555451Y0329496D03*
X0545688Y0329496D03*
X0527892Y0329496D03*
X0518129Y0329496D03*
X0500333Y0329496D03*
X0490570Y0329496D03*
X0472774Y0329496D03*
X0463011Y0329496D03*
X0445215Y0329496D03*
X0435451Y0329496D03*
X0417656Y0329496D03*
X0407892Y0329496D03*
X0390097Y0329496D03*
X0380333Y0329496D03*
X0362538Y0329496D03*
X0352774Y0329496D03*
X0334979Y0329496D03*
X0325215Y0329496D03*
X0307420Y0329496D03*
X0297656Y0329496D03*
X0279861Y0329496D03*
X0270097Y0329496D03*
X0252302Y0329496D03*
X0242538Y0329496D03*
X0224743Y0329496D03*
X0214979Y0329496D03*
X0197184Y0329496D03*
X0187420Y0329496D03*
X0169625Y0329496D03*
X0159861Y0329496D03*
X0142066Y0329496D03*
X0132302Y0329496D03*
X0114507Y0329496D03*
X0104743Y0329496D03*
X0086948Y0329496D03*
X0077184Y0329496D03*
X0059388Y0329496D03*
X0049625Y0329496D03*
X0031829Y0329496D03*
X0022066Y0329496D03*
X0022026Y0357094D03*
X0031790Y0357094D03*
X0049585Y0357094D03*
X0059349Y0357094D03*
X0077144Y0357094D03*
X0086908Y0357094D03*
X0104703Y0357094D03*
X0114467Y0357094D03*
X0132263Y0357094D03*
X0142026Y0357094D03*
X0159822Y0357094D03*
X0169585Y0357094D03*
X0187381Y0357094D03*
X0197144Y0357094D03*
X0214940Y0357094D03*
X0224703Y0357094D03*
X0242499Y0357094D03*
X0252263Y0357094D03*
X0270058Y0357094D03*
X0279822Y0357094D03*
X0297617Y0357094D03*
X0307381Y0357094D03*
X0325176Y0357094D03*
X0334940Y0357094D03*
X0352735Y0357094D03*
X0362499Y0357094D03*
X0380294Y0357094D03*
X0390058Y0357094D03*
X0407853Y0357094D03*
X0417617Y0357094D03*
X0435412Y0357094D03*
X0445176Y0357094D03*
X0462971Y0357094D03*
X0472735Y0357094D03*
X0490530Y0357094D03*
X0500294Y0357094D03*
X0518089Y0357094D03*
X0527853Y0357094D03*
X0545648Y0357094D03*
X0555412Y0357094D03*
X0573207Y0357094D03*
X0582971Y0357094D03*
X0600766Y0357094D03*
X0610530Y0357094D03*
X0628326Y0357094D03*
X0638089Y0357094D03*
X0655885Y0357094D03*
X0665648Y0357094D03*
X0665648Y0384653D03*
X0655885Y0384653D03*
X0638089Y0384653D03*
X0628326Y0384653D03*
X0610530Y0384653D03*
X0600766Y0384653D03*
X0582971Y0384653D03*
X0573207Y0384653D03*
X0555412Y0384653D03*
X0545648Y0384653D03*
X0527853Y0384653D03*
X0518089Y0384653D03*
X0500294Y0384653D03*
X0490530Y0384653D03*
X0472735Y0384653D03*
X0462971Y0384653D03*
X0445176Y0384653D03*
X0435412Y0384653D03*
X0417617Y0384653D03*
X0407853Y0384653D03*
X0390058Y0384653D03*
X0380294Y0384653D03*
X0362499Y0384653D03*
X0352735Y0384653D03*
X0334940Y0384653D03*
X0325176Y0384653D03*
X0307381Y0384653D03*
X0297617Y0384653D03*
X0279822Y0384653D03*
X0270058Y0384653D03*
X0252263Y0384653D03*
X0242499Y0384653D03*
X0224703Y0384653D03*
X0214940Y0384653D03*
X0197144Y0384653D03*
X0187381Y0384653D03*
X0169585Y0384653D03*
X0159822Y0384653D03*
X0142026Y0384653D03*
X0132263Y0384653D03*
X0114467Y0384653D03*
X0104703Y0384653D03*
X0086908Y0384653D03*
X0077144Y0384653D03*
X0059349Y0384653D03*
X0049585Y0384653D03*
X0031790Y0384653D03*
X0022026Y0384653D03*
X0022026Y0412212D03*
X0031790Y0412212D03*
X0049585Y0412212D03*
X0059349Y0412212D03*
X0077144Y0412212D03*
X0086908Y0412212D03*
X0104703Y0412212D03*
X0114467Y0412212D03*
X0132263Y0412212D03*
X0142026Y0412212D03*
X0159822Y0412212D03*
X0169585Y0412212D03*
X0187381Y0412212D03*
X0197144Y0412212D03*
X0214940Y0412212D03*
X0224703Y0412212D03*
X0242499Y0412212D03*
X0252263Y0412212D03*
X0270058Y0412212D03*
X0279822Y0412212D03*
X0297617Y0412212D03*
X0307381Y0412212D03*
X0325176Y0412212D03*
X0334940Y0412212D03*
X0352735Y0412212D03*
X0362499Y0412212D03*
X0380294Y0412212D03*
X0390058Y0412212D03*
X0407853Y0412212D03*
X0417617Y0412212D03*
X0435412Y0412212D03*
X0445176Y0412212D03*
X0462971Y0412212D03*
X0472735Y0412212D03*
X0490530Y0412212D03*
X0500294Y0412212D03*
X0518089Y0412212D03*
X0527853Y0412212D03*
X0545648Y0412212D03*
X0555412Y0412212D03*
X0573207Y0412212D03*
X0582971Y0412212D03*
X0600766Y0412212D03*
X0610530Y0412212D03*
X0628326Y0412212D03*
X0638089Y0412212D03*
X0655885Y0412212D03*
X0665648Y0412212D03*
X0665648Y0439771D03*
X0655885Y0439771D03*
X0638089Y0439771D03*
X0628326Y0439771D03*
X0610530Y0439771D03*
X0600766Y0439771D03*
X0582971Y0439771D03*
X0573207Y0439771D03*
X0555412Y0439771D03*
X0545648Y0439771D03*
X0527853Y0439771D03*
X0518089Y0439771D03*
X0500294Y0439771D03*
X0490530Y0439771D03*
X0472735Y0439771D03*
X0462971Y0439771D03*
X0445176Y0439771D03*
X0435412Y0439771D03*
X0417617Y0439771D03*
X0407853Y0439771D03*
X0390058Y0439771D03*
X0380294Y0439771D03*
X0362499Y0439771D03*
X0352735Y0439771D03*
X0334940Y0439771D03*
X0325176Y0439771D03*
X0307381Y0439771D03*
X0297617Y0439771D03*
X0279822Y0439771D03*
X0270058Y0439771D03*
X0252263Y0439771D03*
X0242499Y0439771D03*
X0224703Y0439771D03*
X0214940Y0439771D03*
X0197144Y0439771D03*
X0187381Y0439771D03*
X0169585Y0439771D03*
X0159822Y0439771D03*
X0142026Y0439771D03*
X0132263Y0439771D03*
X0114467Y0439771D03*
X0104703Y0439771D03*
X0086908Y0439771D03*
X0077144Y0439771D03*
X0059349Y0439771D03*
X0049585Y0439771D03*
X0031790Y0439771D03*
X0022026Y0439771D03*
X0022066Y0467291D03*
X0031829Y0467291D03*
X0049625Y0467291D03*
X0059388Y0467291D03*
X0077184Y0467291D03*
X0086948Y0467291D03*
X0104743Y0467291D03*
X0114507Y0467291D03*
X0132302Y0467291D03*
X0142066Y0467291D03*
X0159861Y0467291D03*
X0169625Y0467291D03*
X0187420Y0467291D03*
X0197184Y0467291D03*
X0214979Y0467291D03*
X0224743Y0467291D03*
X0242538Y0467291D03*
X0252302Y0467291D03*
X0270097Y0467291D03*
X0279861Y0467291D03*
X0297656Y0467291D03*
X0307420Y0467291D03*
X0325215Y0467291D03*
X0334979Y0467291D03*
X0352774Y0467291D03*
X0362538Y0467291D03*
X0380333Y0467291D03*
X0390097Y0467291D03*
X0407892Y0467291D03*
X0417656Y0467291D03*
X0435451Y0467291D03*
X0445215Y0467291D03*
X0463011Y0467291D03*
X0472774Y0467291D03*
X0490570Y0467291D03*
X0500333Y0467291D03*
X0518129Y0467291D03*
X0527892Y0467291D03*
X0545688Y0467291D03*
X0555451Y0467291D03*
X0573247Y0467291D03*
X0583011Y0467291D03*
X0600806Y0467291D03*
X0610570Y0467291D03*
X0628365Y0467291D03*
X0638129Y0467291D03*
X0655924Y0467291D03*
X0665688Y0467291D03*
X0665688Y0494850D03*
X0655924Y0494850D03*
X0638129Y0494850D03*
X0628365Y0494850D03*
X0610570Y0494850D03*
X0600806Y0494850D03*
X0583011Y0494850D03*
X0573247Y0494850D03*
X0555451Y0494850D03*
X0545688Y0494850D03*
X0527892Y0494850D03*
X0518129Y0494850D03*
X0500333Y0494850D03*
X0490570Y0494850D03*
X0472774Y0494850D03*
X0463011Y0494850D03*
X0445215Y0494850D03*
X0435451Y0494850D03*
X0417656Y0494850D03*
X0407892Y0494850D03*
X0390097Y0494850D03*
X0380333Y0494850D03*
X0362538Y0494850D03*
X0352774Y0494850D03*
X0334979Y0494850D03*
X0325215Y0494850D03*
X0307420Y0494850D03*
X0297656Y0494850D03*
X0279861Y0494850D03*
X0270097Y0494850D03*
X0252302Y0494850D03*
X0242538Y0494850D03*
X0224743Y0494850D03*
X0214979Y0494850D03*
X0197184Y0494850D03*
X0187420Y0494850D03*
X0169625Y0494850D03*
X0159861Y0494850D03*
X0142066Y0494850D03*
X0132302Y0494850D03*
X0114507Y0494850D03*
X0104743Y0494850D03*
X0086948Y0494850D03*
X0077184Y0494850D03*
X0059388Y0494850D03*
X0049625Y0494850D03*
X0031829Y0494850D03*
X0022066Y0494850D03*
X0022066Y0522409D03*
X0031829Y0522409D03*
X0049625Y0522409D03*
X0059388Y0522409D03*
X0077184Y0522409D03*
X0086948Y0522409D03*
X0104743Y0522409D03*
X0114507Y0522409D03*
X0132302Y0522409D03*
X0142066Y0522409D03*
X0159861Y0522409D03*
X0169625Y0522409D03*
X0187420Y0522409D03*
X0197184Y0522409D03*
X0214979Y0522409D03*
X0224743Y0522409D03*
X0242538Y0522409D03*
X0252302Y0522409D03*
X0270097Y0522409D03*
X0279861Y0522409D03*
X0297656Y0522409D03*
X0307420Y0522409D03*
X0325215Y0522409D03*
X0334979Y0522409D03*
X0352774Y0522409D03*
X0362538Y0522409D03*
X0380333Y0522409D03*
X0390097Y0522409D03*
X0407892Y0522409D03*
X0417656Y0522409D03*
X0435451Y0522409D03*
X0445215Y0522409D03*
X0463011Y0522409D03*
X0472774Y0522409D03*
X0490570Y0522409D03*
X0500333Y0522409D03*
X0518129Y0522409D03*
X0527892Y0522409D03*
X0545688Y0522409D03*
X0555451Y0522409D03*
X0573247Y0522409D03*
X0583011Y0522409D03*
X0600806Y0522409D03*
X0610570Y0522409D03*
X0628365Y0522409D03*
X0638129Y0522409D03*
X0655924Y0522409D03*
X0665688Y0522409D03*
X0665688Y0549968D03*
X0655924Y0549968D03*
X0638129Y0549968D03*
X0628365Y0549968D03*
X0610570Y0549968D03*
X0600806Y0549968D03*
X0583011Y0549968D03*
X0573247Y0549968D03*
X0555451Y0549968D03*
X0545688Y0549968D03*
X0527892Y0549968D03*
X0518129Y0549968D03*
X0500333Y0549968D03*
X0490570Y0549968D03*
X0472774Y0549968D03*
X0463011Y0549968D03*
X0445215Y0549968D03*
X0435451Y0549968D03*
X0417656Y0549968D03*
X0407892Y0549968D03*
X0390097Y0549968D03*
X0380333Y0549968D03*
X0362538Y0549968D03*
X0352774Y0549968D03*
X0334979Y0549968D03*
X0325215Y0549968D03*
X0307420Y0549968D03*
X0297656Y0549968D03*
X0279861Y0549968D03*
X0270097Y0549968D03*
X0252302Y0549968D03*
X0242538Y0549968D03*
X0224743Y0549968D03*
X0214979Y0549968D03*
X0197184Y0549968D03*
X0187420Y0549968D03*
X0169625Y0549968D03*
X0159861Y0549968D03*
X0142066Y0549968D03*
X0132302Y0549968D03*
X0114507Y0549968D03*
X0104743Y0549968D03*
X0086948Y0549968D03*
X0077184Y0549968D03*
X0059388Y0549968D03*
X0049625Y0549968D03*
X0031829Y0549968D03*
X0022066Y0549968D03*
X0021987Y0577488D03*
X0031751Y0577488D03*
X0049546Y0577488D03*
X0059310Y0577488D03*
X0077105Y0577488D03*
X0086869Y0577488D03*
X0104664Y0577488D03*
X0114428Y0577488D03*
X0132223Y0577488D03*
X0141987Y0577488D03*
X0159782Y0577488D03*
X0169546Y0577488D03*
X0187341Y0577488D03*
X0197105Y0577488D03*
X0214900Y0577488D03*
X0224664Y0577488D03*
X0242459Y0577488D03*
X0252223Y0577488D03*
X0270018Y0577488D03*
X0279782Y0577488D03*
X0297577Y0577488D03*
X0307341Y0577488D03*
X0325137Y0577488D03*
X0334900Y0577488D03*
X0352696Y0577488D03*
X0362459Y0577488D03*
X0380255Y0577488D03*
X0390018Y0577488D03*
X0407814Y0577488D03*
X0417577Y0577488D03*
X0435373Y0577488D03*
X0445137Y0577488D03*
X0462932Y0577488D03*
X0472696Y0577488D03*
X0490491Y0577488D03*
X0500255Y0577488D03*
X0518050Y0577488D03*
X0527814Y0577488D03*
X0545609Y0577488D03*
X0555373Y0577488D03*
X0573168Y0577488D03*
X0582932Y0577488D03*
X0600727Y0577488D03*
X0610491Y0577488D03*
X0628286Y0577488D03*
X0638050Y0577488D03*
X0655845Y0577488D03*
X0665609Y0577488D03*
X0665609Y0605047D03*
X0655845Y0605047D03*
X0638050Y0605047D03*
X0628286Y0605047D03*
X0610491Y0605047D03*
X0600727Y0605047D03*
X0582932Y0605047D03*
X0573168Y0605047D03*
X0555373Y0605047D03*
X0545609Y0605047D03*
X0527814Y0605047D03*
X0518050Y0605047D03*
X0500255Y0605047D03*
X0490491Y0605047D03*
X0472696Y0605047D03*
X0462932Y0605047D03*
X0445137Y0605047D03*
X0435373Y0605047D03*
X0417577Y0605047D03*
X0407814Y0605047D03*
X0390018Y0605047D03*
X0380255Y0605047D03*
X0362459Y0605047D03*
X0352696Y0605047D03*
X0334900Y0605047D03*
X0325137Y0605047D03*
X0307341Y0605047D03*
X0297577Y0605047D03*
X0279782Y0605047D03*
X0270018Y0605047D03*
X0252223Y0605047D03*
X0242459Y0605047D03*
X0224664Y0605047D03*
X0214900Y0605047D03*
X0197105Y0605047D03*
X0187341Y0605047D03*
X0169546Y0605047D03*
X0159782Y0605047D03*
X0141987Y0605047D03*
X0132223Y0605047D03*
X0114428Y0605047D03*
X0104664Y0605047D03*
X0086869Y0605047D03*
X0077105Y0605047D03*
X0059310Y0605047D03*
X0049546Y0605047D03*
X0031751Y0605047D03*
X0021987Y0605047D03*
X0021987Y0632606D03*
X0031751Y0632606D03*
X0049546Y0632606D03*
X0059310Y0632606D03*
X0077105Y0632606D03*
X0086869Y0632606D03*
X0104664Y0632606D03*
X0114428Y0632606D03*
X0132223Y0632606D03*
X0141987Y0632606D03*
X0159782Y0632606D03*
X0169546Y0632606D03*
X0187341Y0632606D03*
X0197105Y0632606D03*
X0214900Y0632606D03*
X0224664Y0632606D03*
X0242459Y0632606D03*
X0252223Y0632606D03*
X0270018Y0632606D03*
X0279782Y0632606D03*
X0297577Y0632606D03*
X0307341Y0632606D03*
X0325137Y0632606D03*
X0334900Y0632606D03*
X0352696Y0632606D03*
X0362459Y0632606D03*
X0380255Y0632606D03*
X0390018Y0632606D03*
X0407814Y0632606D03*
X0417577Y0632606D03*
X0435373Y0632606D03*
X0445137Y0632606D03*
X0462932Y0632606D03*
X0472696Y0632606D03*
X0490491Y0632606D03*
X0500255Y0632606D03*
X0518050Y0632606D03*
X0527814Y0632606D03*
X0545609Y0632606D03*
X0555373Y0632606D03*
X0573168Y0632606D03*
X0582932Y0632606D03*
X0600727Y0632606D03*
X0610491Y0632606D03*
X0628286Y0632606D03*
X0638050Y0632606D03*
X0655845Y0632606D03*
X0665609Y0632606D03*
X0665609Y0660165D03*
X0655845Y0660165D03*
X0638050Y0660165D03*
X0628286Y0660165D03*
X0610491Y0660165D03*
X0600727Y0660165D03*
X0582932Y0660165D03*
X0573168Y0660165D03*
X0555373Y0660165D03*
X0545609Y0660165D03*
X0527814Y0660165D03*
X0518050Y0660165D03*
X0500255Y0660165D03*
X0490491Y0660165D03*
X0472696Y0660165D03*
X0462932Y0660165D03*
X0445137Y0660165D03*
X0435373Y0660165D03*
X0417577Y0660165D03*
X0407814Y0660165D03*
X0390018Y0660165D03*
X0380255Y0660165D03*
X0362459Y0660165D03*
X0352696Y0660165D03*
X0334900Y0660165D03*
X0325137Y0660165D03*
X0307341Y0660165D03*
X0297577Y0660165D03*
X0279782Y0660165D03*
X0270018Y0660165D03*
X0252223Y0660165D03*
X0242459Y0660165D03*
X0224664Y0660165D03*
X0214900Y0660165D03*
X0197105Y0660165D03*
X0187341Y0660165D03*
X0169546Y0660165D03*
X0159782Y0660165D03*
X0141987Y0660165D03*
X0132223Y0660165D03*
X0114428Y0660165D03*
X0104664Y0660165D03*
X0086869Y0660165D03*
X0077105Y0660165D03*
X0059310Y0660165D03*
X0049546Y0660165D03*
X0031751Y0660165D03*
X0021987Y0660165D03*
M02*
