G75*
%MOIN*%
%OFA0B0*%
%FSLAX25Y25*%
%IPPOS*%
%LPD*%
%AMOC8*
5,1,8,0,0,1.08239X$1,22.5*
%
%ADD10C,0.00000*%
D10*
X0006425Y0009063D02*
X0171780Y0009063D01*
X0171780Y0084850D01*
X0187528Y0084850D01*
X0187528Y0098630D01*
X0171780Y0098630D01*
X0171780Y0174417D01*
X0095992Y0174417D01*
X0095992Y0190165D01*
X0082213Y0190165D01*
X0082213Y0174417D01*
X0006425Y0174417D01*
X0006425Y0009063D01*
X0009476Y0013492D02*
X0009478Y0013566D01*
X0009484Y0013640D01*
X0009494Y0013713D01*
X0009508Y0013786D01*
X0009525Y0013858D01*
X0009547Y0013928D01*
X0009572Y0013998D01*
X0009601Y0014066D01*
X0009634Y0014132D01*
X0009670Y0014197D01*
X0009710Y0014259D01*
X0009752Y0014320D01*
X0009798Y0014378D01*
X0009847Y0014433D01*
X0009899Y0014486D01*
X0009954Y0014536D01*
X0010011Y0014582D01*
X0010071Y0014626D01*
X0010133Y0014666D01*
X0010197Y0014703D01*
X0010263Y0014737D01*
X0010331Y0014767D01*
X0010400Y0014793D01*
X0010471Y0014816D01*
X0010542Y0014834D01*
X0010615Y0014849D01*
X0010688Y0014860D01*
X0010762Y0014867D01*
X0010836Y0014870D01*
X0010909Y0014869D01*
X0010983Y0014864D01*
X0011057Y0014855D01*
X0011130Y0014842D01*
X0011202Y0014825D01*
X0011273Y0014805D01*
X0011343Y0014780D01*
X0011411Y0014752D01*
X0011478Y0014721D01*
X0011543Y0014685D01*
X0011606Y0014647D01*
X0011667Y0014605D01*
X0011726Y0014559D01*
X0011782Y0014511D01*
X0011835Y0014460D01*
X0011885Y0014406D01*
X0011933Y0014349D01*
X0011977Y0014290D01*
X0012019Y0014228D01*
X0012057Y0014165D01*
X0012091Y0014099D01*
X0012122Y0014032D01*
X0012149Y0013963D01*
X0012172Y0013893D01*
X0012192Y0013822D01*
X0012208Y0013749D01*
X0012220Y0013676D01*
X0012228Y0013603D01*
X0012232Y0013529D01*
X0012232Y0013455D01*
X0012228Y0013381D01*
X0012220Y0013308D01*
X0012208Y0013235D01*
X0012192Y0013162D01*
X0012172Y0013091D01*
X0012149Y0013021D01*
X0012122Y0012952D01*
X0012091Y0012885D01*
X0012057Y0012819D01*
X0012019Y0012756D01*
X0011977Y0012694D01*
X0011933Y0012635D01*
X0011885Y0012578D01*
X0011835Y0012524D01*
X0011782Y0012473D01*
X0011726Y0012425D01*
X0011667Y0012379D01*
X0011606Y0012337D01*
X0011543Y0012299D01*
X0011478Y0012263D01*
X0011411Y0012232D01*
X0011343Y0012204D01*
X0011273Y0012179D01*
X0011202Y0012159D01*
X0011130Y0012142D01*
X0011057Y0012129D01*
X0010983Y0012120D01*
X0010909Y0012115D01*
X0010836Y0012114D01*
X0010762Y0012117D01*
X0010688Y0012124D01*
X0010615Y0012135D01*
X0010542Y0012150D01*
X0010471Y0012168D01*
X0010400Y0012191D01*
X0010331Y0012217D01*
X0010263Y0012247D01*
X0010197Y0012281D01*
X0010133Y0012318D01*
X0010071Y0012358D01*
X0010011Y0012402D01*
X0009954Y0012448D01*
X0009899Y0012498D01*
X0009847Y0012551D01*
X0009798Y0012606D01*
X0009752Y0012664D01*
X0009710Y0012725D01*
X0009670Y0012787D01*
X0009634Y0012852D01*
X0009601Y0012918D01*
X0009572Y0012986D01*
X0009547Y0013056D01*
X0009525Y0013126D01*
X0009508Y0013198D01*
X0009494Y0013271D01*
X0009484Y0013344D01*
X0009478Y0013418D01*
X0009476Y0013492D01*
X0087724Y0050894D02*
X0087726Y0050968D01*
X0087732Y0051042D01*
X0087742Y0051115D01*
X0087756Y0051188D01*
X0087773Y0051260D01*
X0087795Y0051330D01*
X0087820Y0051400D01*
X0087849Y0051468D01*
X0087882Y0051534D01*
X0087918Y0051599D01*
X0087958Y0051661D01*
X0088000Y0051722D01*
X0088046Y0051780D01*
X0088095Y0051835D01*
X0088147Y0051888D01*
X0088202Y0051938D01*
X0088259Y0051984D01*
X0088319Y0052028D01*
X0088381Y0052068D01*
X0088445Y0052105D01*
X0088511Y0052139D01*
X0088579Y0052169D01*
X0088648Y0052195D01*
X0088719Y0052218D01*
X0088790Y0052236D01*
X0088863Y0052251D01*
X0088936Y0052262D01*
X0089010Y0052269D01*
X0089084Y0052272D01*
X0089157Y0052271D01*
X0089231Y0052266D01*
X0089305Y0052257D01*
X0089378Y0052244D01*
X0089450Y0052227D01*
X0089521Y0052207D01*
X0089591Y0052182D01*
X0089659Y0052154D01*
X0089726Y0052123D01*
X0089791Y0052087D01*
X0089854Y0052049D01*
X0089915Y0052007D01*
X0089974Y0051961D01*
X0090030Y0051913D01*
X0090083Y0051862D01*
X0090133Y0051808D01*
X0090181Y0051751D01*
X0090225Y0051692D01*
X0090267Y0051630D01*
X0090305Y0051567D01*
X0090339Y0051501D01*
X0090370Y0051434D01*
X0090397Y0051365D01*
X0090420Y0051295D01*
X0090440Y0051224D01*
X0090456Y0051151D01*
X0090468Y0051078D01*
X0090476Y0051005D01*
X0090480Y0050931D01*
X0090480Y0050857D01*
X0090476Y0050783D01*
X0090468Y0050710D01*
X0090456Y0050637D01*
X0090440Y0050564D01*
X0090420Y0050493D01*
X0090397Y0050423D01*
X0090370Y0050354D01*
X0090339Y0050287D01*
X0090305Y0050221D01*
X0090267Y0050158D01*
X0090225Y0050096D01*
X0090181Y0050037D01*
X0090133Y0049980D01*
X0090083Y0049926D01*
X0090030Y0049875D01*
X0089974Y0049827D01*
X0089915Y0049781D01*
X0089854Y0049739D01*
X0089791Y0049701D01*
X0089726Y0049665D01*
X0089659Y0049634D01*
X0089591Y0049606D01*
X0089521Y0049581D01*
X0089450Y0049561D01*
X0089378Y0049544D01*
X0089305Y0049531D01*
X0089231Y0049522D01*
X0089157Y0049517D01*
X0089084Y0049516D01*
X0089010Y0049519D01*
X0088936Y0049526D01*
X0088863Y0049537D01*
X0088790Y0049552D01*
X0088719Y0049570D01*
X0088648Y0049593D01*
X0088579Y0049619D01*
X0088511Y0049649D01*
X0088445Y0049683D01*
X0088381Y0049720D01*
X0088319Y0049760D01*
X0088259Y0049804D01*
X0088202Y0049850D01*
X0088147Y0049900D01*
X0088095Y0049953D01*
X0088046Y0050008D01*
X0088000Y0050066D01*
X0087958Y0050127D01*
X0087918Y0050189D01*
X0087882Y0050254D01*
X0087849Y0050320D01*
X0087820Y0050388D01*
X0087795Y0050458D01*
X0087773Y0050528D01*
X0087756Y0050600D01*
X0087742Y0050673D01*
X0087732Y0050746D01*
X0087726Y0050820D01*
X0087724Y0050894D01*
X0165972Y0013492D02*
X0165974Y0013566D01*
X0165980Y0013640D01*
X0165990Y0013713D01*
X0166004Y0013786D01*
X0166021Y0013858D01*
X0166043Y0013928D01*
X0166068Y0013998D01*
X0166097Y0014066D01*
X0166130Y0014132D01*
X0166166Y0014197D01*
X0166206Y0014259D01*
X0166248Y0014320D01*
X0166294Y0014378D01*
X0166343Y0014433D01*
X0166395Y0014486D01*
X0166450Y0014536D01*
X0166507Y0014582D01*
X0166567Y0014626D01*
X0166629Y0014666D01*
X0166693Y0014703D01*
X0166759Y0014737D01*
X0166827Y0014767D01*
X0166896Y0014793D01*
X0166967Y0014816D01*
X0167038Y0014834D01*
X0167111Y0014849D01*
X0167184Y0014860D01*
X0167258Y0014867D01*
X0167332Y0014870D01*
X0167405Y0014869D01*
X0167479Y0014864D01*
X0167553Y0014855D01*
X0167626Y0014842D01*
X0167698Y0014825D01*
X0167769Y0014805D01*
X0167839Y0014780D01*
X0167907Y0014752D01*
X0167974Y0014721D01*
X0168039Y0014685D01*
X0168102Y0014647D01*
X0168163Y0014605D01*
X0168222Y0014559D01*
X0168278Y0014511D01*
X0168331Y0014460D01*
X0168381Y0014406D01*
X0168429Y0014349D01*
X0168473Y0014290D01*
X0168515Y0014228D01*
X0168553Y0014165D01*
X0168587Y0014099D01*
X0168618Y0014032D01*
X0168645Y0013963D01*
X0168668Y0013893D01*
X0168688Y0013822D01*
X0168704Y0013749D01*
X0168716Y0013676D01*
X0168724Y0013603D01*
X0168728Y0013529D01*
X0168728Y0013455D01*
X0168724Y0013381D01*
X0168716Y0013308D01*
X0168704Y0013235D01*
X0168688Y0013162D01*
X0168668Y0013091D01*
X0168645Y0013021D01*
X0168618Y0012952D01*
X0168587Y0012885D01*
X0168553Y0012819D01*
X0168515Y0012756D01*
X0168473Y0012694D01*
X0168429Y0012635D01*
X0168381Y0012578D01*
X0168331Y0012524D01*
X0168278Y0012473D01*
X0168222Y0012425D01*
X0168163Y0012379D01*
X0168102Y0012337D01*
X0168039Y0012299D01*
X0167974Y0012263D01*
X0167907Y0012232D01*
X0167839Y0012204D01*
X0167769Y0012179D01*
X0167698Y0012159D01*
X0167626Y0012142D01*
X0167553Y0012129D01*
X0167479Y0012120D01*
X0167405Y0012115D01*
X0167332Y0012114D01*
X0167258Y0012117D01*
X0167184Y0012124D01*
X0167111Y0012135D01*
X0167038Y0012150D01*
X0166967Y0012168D01*
X0166896Y0012191D01*
X0166827Y0012217D01*
X0166759Y0012247D01*
X0166693Y0012281D01*
X0166629Y0012318D01*
X0166567Y0012358D01*
X0166507Y0012402D01*
X0166450Y0012448D01*
X0166395Y0012498D01*
X0166343Y0012551D01*
X0166294Y0012606D01*
X0166248Y0012664D01*
X0166206Y0012725D01*
X0166166Y0012787D01*
X0166130Y0012852D01*
X0166097Y0012918D01*
X0166068Y0012986D01*
X0166043Y0013056D01*
X0166021Y0013126D01*
X0166004Y0013198D01*
X0165990Y0013271D01*
X0165980Y0013344D01*
X0165974Y0013418D01*
X0165972Y0013492D01*
X0087724Y0133079D02*
X0087726Y0133153D01*
X0087732Y0133227D01*
X0087742Y0133300D01*
X0087756Y0133373D01*
X0087773Y0133445D01*
X0087795Y0133515D01*
X0087820Y0133585D01*
X0087849Y0133653D01*
X0087882Y0133719D01*
X0087918Y0133784D01*
X0087958Y0133846D01*
X0088000Y0133907D01*
X0088046Y0133965D01*
X0088095Y0134020D01*
X0088147Y0134073D01*
X0088202Y0134123D01*
X0088259Y0134169D01*
X0088319Y0134213D01*
X0088381Y0134253D01*
X0088445Y0134290D01*
X0088511Y0134324D01*
X0088579Y0134354D01*
X0088648Y0134380D01*
X0088719Y0134403D01*
X0088790Y0134421D01*
X0088863Y0134436D01*
X0088936Y0134447D01*
X0089010Y0134454D01*
X0089084Y0134457D01*
X0089157Y0134456D01*
X0089231Y0134451D01*
X0089305Y0134442D01*
X0089378Y0134429D01*
X0089450Y0134412D01*
X0089521Y0134392D01*
X0089591Y0134367D01*
X0089659Y0134339D01*
X0089726Y0134308D01*
X0089791Y0134272D01*
X0089854Y0134234D01*
X0089915Y0134192D01*
X0089974Y0134146D01*
X0090030Y0134098D01*
X0090083Y0134047D01*
X0090133Y0133993D01*
X0090181Y0133936D01*
X0090225Y0133877D01*
X0090267Y0133815D01*
X0090305Y0133752D01*
X0090339Y0133686D01*
X0090370Y0133619D01*
X0090397Y0133550D01*
X0090420Y0133480D01*
X0090440Y0133409D01*
X0090456Y0133336D01*
X0090468Y0133263D01*
X0090476Y0133190D01*
X0090480Y0133116D01*
X0090480Y0133042D01*
X0090476Y0132968D01*
X0090468Y0132895D01*
X0090456Y0132822D01*
X0090440Y0132749D01*
X0090420Y0132678D01*
X0090397Y0132608D01*
X0090370Y0132539D01*
X0090339Y0132472D01*
X0090305Y0132406D01*
X0090267Y0132343D01*
X0090225Y0132281D01*
X0090181Y0132222D01*
X0090133Y0132165D01*
X0090083Y0132111D01*
X0090030Y0132060D01*
X0089974Y0132012D01*
X0089915Y0131966D01*
X0089854Y0131924D01*
X0089791Y0131886D01*
X0089726Y0131850D01*
X0089659Y0131819D01*
X0089591Y0131791D01*
X0089521Y0131766D01*
X0089450Y0131746D01*
X0089378Y0131729D01*
X0089305Y0131716D01*
X0089231Y0131707D01*
X0089157Y0131702D01*
X0089084Y0131701D01*
X0089010Y0131704D01*
X0088936Y0131711D01*
X0088863Y0131722D01*
X0088790Y0131737D01*
X0088719Y0131755D01*
X0088648Y0131778D01*
X0088579Y0131804D01*
X0088511Y0131834D01*
X0088445Y0131868D01*
X0088381Y0131905D01*
X0088319Y0131945D01*
X0088259Y0131989D01*
X0088202Y0132035D01*
X0088147Y0132085D01*
X0088095Y0132138D01*
X0088046Y0132193D01*
X0088000Y0132251D01*
X0087958Y0132312D01*
X0087918Y0132374D01*
X0087882Y0132439D01*
X0087849Y0132505D01*
X0087820Y0132573D01*
X0087795Y0132643D01*
X0087773Y0132713D01*
X0087756Y0132785D01*
X0087742Y0132858D01*
X0087732Y0132931D01*
X0087726Y0133005D01*
X0087724Y0133079D01*
X0009476Y0169988D02*
X0009478Y0170062D01*
X0009484Y0170136D01*
X0009494Y0170209D01*
X0009508Y0170282D01*
X0009525Y0170354D01*
X0009547Y0170424D01*
X0009572Y0170494D01*
X0009601Y0170562D01*
X0009634Y0170628D01*
X0009670Y0170693D01*
X0009710Y0170755D01*
X0009752Y0170816D01*
X0009798Y0170874D01*
X0009847Y0170929D01*
X0009899Y0170982D01*
X0009954Y0171032D01*
X0010011Y0171078D01*
X0010071Y0171122D01*
X0010133Y0171162D01*
X0010197Y0171199D01*
X0010263Y0171233D01*
X0010331Y0171263D01*
X0010400Y0171289D01*
X0010471Y0171312D01*
X0010542Y0171330D01*
X0010615Y0171345D01*
X0010688Y0171356D01*
X0010762Y0171363D01*
X0010836Y0171366D01*
X0010909Y0171365D01*
X0010983Y0171360D01*
X0011057Y0171351D01*
X0011130Y0171338D01*
X0011202Y0171321D01*
X0011273Y0171301D01*
X0011343Y0171276D01*
X0011411Y0171248D01*
X0011478Y0171217D01*
X0011543Y0171181D01*
X0011606Y0171143D01*
X0011667Y0171101D01*
X0011726Y0171055D01*
X0011782Y0171007D01*
X0011835Y0170956D01*
X0011885Y0170902D01*
X0011933Y0170845D01*
X0011977Y0170786D01*
X0012019Y0170724D01*
X0012057Y0170661D01*
X0012091Y0170595D01*
X0012122Y0170528D01*
X0012149Y0170459D01*
X0012172Y0170389D01*
X0012192Y0170318D01*
X0012208Y0170245D01*
X0012220Y0170172D01*
X0012228Y0170099D01*
X0012232Y0170025D01*
X0012232Y0169951D01*
X0012228Y0169877D01*
X0012220Y0169804D01*
X0012208Y0169731D01*
X0012192Y0169658D01*
X0012172Y0169587D01*
X0012149Y0169517D01*
X0012122Y0169448D01*
X0012091Y0169381D01*
X0012057Y0169315D01*
X0012019Y0169252D01*
X0011977Y0169190D01*
X0011933Y0169131D01*
X0011885Y0169074D01*
X0011835Y0169020D01*
X0011782Y0168969D01*
X0011726Y0168921D01*
X0011667Y0168875D01*
X0011606Y0168833D01*
X0011543Y0168795D01*
X0011478Y0168759D01*
X0011411Y0168728D01*
X0011343Y0168700D01*
X0011273Y0168675D01*
X0011202Y0168655D01*
X0011130Y0168638D01*
X0011057Y0168625D01*
X0010983Y0168616D01*
X0010909Y0168611D01*
X0010836Y0168610D01*
X0010762Y0168613D01*
X0010688Y0168620D01*
X0010615Y0168631D01*
X0010542Y0168646D01*
X0010471Y0168664D01*
X0010400Y0168687D01*
X0010331Y0168713D01*
X0010263Y0168743D01*
X0010197Y0168777D01*
X0010133Y0168814D01*
X0010071Y0168854D01*
X0010011Y0168898D01*
X0009954Y0168944D01*
X0009899Y0168994D01*
X0009847Y0169047D01*
X0009798Y0169102D01*
X0009752Y0169160D01*
X0009710Y0169221D01*
X0009670Y0169283D01*
X0009634Y0169348D01*
X0009601Y0169414D01*
X0009572Y0169482D01*
X0009547Y0169552D01*
X0009525Y0169622D01*
X0009508Y0169694D01*
X0009494Y0169767D01*
X0009484Y0169840D01*
X0009478Y0169914D01*
X0009476Y0169988D01*
X0165972Y0169988D02*
X0165974Y0170062D01*
X0165980Y0170136D01*
X0165990Y0170209D01*
X0166004Y0170282D01*
X0166021Y0170354D01*
X0166043Y0170424D01*
X0166068Y0170494D01*
X0166097Y0170562D01*
X0166130Y0170628D01*
X0166166Y0170693D01*
X0166206Y0170755D01*
X0166248Y0170816D01*
X0166294Y0170874D01*
X0166343Y0170929D01*
X0166395Y0170982D01*
X0166450Y0171032D01*
X0166507Y0171078D01*
X0166567Y0171122D01*
X0166629Y0171162D01*
X0166693Y0171199D01*
X0166759Y0171233D01*
X0166827Y0171263D01*
X0166896Y0171289D01*
X0166967Y0171312D01*
X0167038Y0171330D01*
X0167111Y0171345D01*
X0167184Y0171356D01*
X0167258Y0171363D01*
X0167332Y0171366D01*
X0167405Y0171365D01*
X0167479Y0171360D01*
X0167553Y0171351D01*
X0167626Y0171338D01*
X0167698Y0171321D01*
X0167769Y0171301D01*
X0167839Y0171276D01*
X0167907Y0171248D01*
X0167974Y0171217D01*
X0168039Y0171181D01*
X0168102Y0171143D01*
X0168163Y0171101D01*
X0168222Y0171055D01*
X0168278Y0171007D01*
X0168331Y0170956D01*
X0168381Y0170902D01*
X0168429Y0170845D01*
X0168473Y0170786D01*
X0168515Y0170724D01*
X0168553Y0170661D01*
X0168587Y0170595D01*
X0168618Y0170528D01*
X0168645Y0170459D01*
X0168668Y0170389D01*
X0168688Y0170318D01*
X0168704Y0170245D01*
X0168716Y0170172D01*
X0168724Y0170099D01*
X0168728Y0170025D01*
X0168728Y0169951D01*
X0168724Y0169877D01*
X0168716Y0169804D01*
X0168704Y0169731D01*
X0168688Y0169658D01*
X0168668Y0169587D01*
X0168645Y0169517D01*
X0168618Y0169448D01*
X0168587Y0169381D01*
X0168553Y0169315D01*
X0168515Y0169252D01*
X0168473Y0169190D01*
X0168429Y0169131D01*
X0168381Y0169074D01*
X0168331Y0169020D01*
X0168278Y0168969D01*
X0168222Y0168921D01*
X0168163Y0168875D01*
X0168102Y0168833D01*
X0168039Y0168795D01*
X0167974Y0168759D01*
X0167907Y0168728D01*
X0167839Y0168700D01*
X0167769Y0168675D01*
X0167698Y0168655D01*
X0167626Y0168638D01*
X0167553Y0168625D01*
X0167479Y0168616D01*
X0167405Y0168611D01*
X0167332Y0168610D01*
X0167258Y0168613D01*
X0167184Y0168620D01*
X0167111Y0168631D01*
X0167038Y0168646D01*
X0166967Y0168664D01*
X0166896Y0168687D01*
X0166827Y0168713D01*
X0166759Y0168743D01*
X0166693Y0168777D01*
X0166629Y0168814D01*
X0166567Y0168854D01*
X0166507Y0168898D01*
X0166450Y0168944D01*
X0166395Y0168994D01*
X0166343Y0169047D01*
X0166294Y0169102D01*
X0166248Y0169160D01*
X0166206Y0169221D01*
X0166166Y0169283D01*
X0166130Y0169348D01*
X0166097Y0169414D01*
X0166068Y0169482D01*
X0166043Y0169552D01*
X0166021Y0169622D01*
X0166004Y0169694D01*
X0165990Y0169767D01*
X0165980Y0169840D01*
X0165974Y0169914D01*
X0165972Y0169988D01*
M02*
