G75*
%MOIN*%
%OFA0B0*%
%FSLAX25Y25*%
%IPPOS*%
%LPD*%
%AMOC8*
5,1,8,0,0,1.08239X$1,22.5*
%
%ADD10C,0.04000*%
%ADD11R,0.00984X0.15748*%
%ADD12R,0.15748X0.00984*%
%ADD13C,0.01987*%
%ADD14C,0.01000*%
D10*
X0015323Y0012803D03*
X0025087Y0012803D03*
X0042882Y0012803D03*
X0052646Y0012803D03*
X0070441Y0012803D03*
X0080205Y0012803D03*
X0098000Y0012803D03*
X0107764Y0012803D03*
X0125559Y0012803D03*
X0135323Y0012803D03*
X0153118Y0012803D03*
X0162882Y0012803D03*
X0162882Y0040362D03*
X0153118Y0040362D03*
X0135323Y0040362D03*
X0125559Y0040362D03*
X0107764Y0040362D03*
X0098000Y0040362D03*
X0080205Y0040362D03*
X0070441Y0040362D03*
X0052646Y0040362D03*
X0042882Y0040362D03*
X0025087Y0040362D03*
X0015323Y0040362D03*
X0015323Y0067921D03*
X0025087Y0067921D03*
X0042882Y0067921D03*
X0052646Y0067921D03*
X0070441Y0067921D03*
X0080205Y0067921D03*
X0098000Y0067921D03*
X0107764Y0067921D03*
X0125559Y0067921D03*
X0135323Y0067921D03*
X0153118Y0067921D03*
X0162882Y0067921D03*
X0162882Y0095480D03*
X0153118Y0095480D03*
X0135323Y0095480D03*
X0125559Y0095480D03*
X0107764Y0095480D03*
X0098000Y0095480D03*
X0080205Y0095480D03*
X0070441Y0095480D03*
X0052646Y0095480D03*
X0042882Y0095480D03*
X0025087Y0095480D03*
X0015323Y0095480D03*
X0015323Y0123039D03*
X0025087Y0123039D03*
X0042882Y0123039D03*
X0052646Y0123039D03*
X0070441Y0123039D03*
X0080205Y0123039D03*
X0098000Y0123039D03*
X0107764Y0123039D03*
X0125559Y0123039D03*
X0135323Y0123039D03*
X0153118Y0123039D03*
X0162882Y0123039D03*
X0162882Y0150598D03*
X0153118Y0150598D03*
X0135323Y0150598D03*
X0125559Y0150598D03*
X0107764Y0150598D03*
X0098000Y0150598D03*
X0080205Y0150598D03*
X0070441Y0150598D03*
X0052646Y0150598D03*
X0042882Y0150598D03*
X0025087Y0150598D03*
X0015323Y0150598D03*
D11*
X0084181Y0182291D03*
X0086150Y0182291D03*
X0088118Y0182291D03*
X0090087Y0182291D03*
X0092055Y0182291D03*
X0094024Y0182291D03*
D12*
X0179654Y0096661D03*
X0179654Y0094693D03*
X0179654Y0092724D03*
X0179654Y0090756D03*
X0179654Y0088787D03*
X0179654Y0086819D03*
D13*
X0167843Y0084850D03*
X0162921Y0087803D03*
X0159476Y0090264D03*
X0165874Y0092724D03*
X0167843Y0095677D03*
X0167843Y0099122D03*
X0148157Y0096661D03*
X0148157Y0092232D03*
X0141760Y0087311D03*
X0138315Y0087311D03*
X0136839Y0083866D03*
X0131425Y0085835D03*
X0129457Y0083866D03*
X0125520Y0083374D03*
X0126504Y0088787D03*
X0129457Y0096169D03*
X0121583Y0096169D03*
X0113709Y0105028D03*
X0116661Y0106012D03*
X0108787Y0099122D03*
X0111740Y0096169D03*
X0113709Y0084358D03*
X0119614Y0071563D03*
X0121091Y0066642D03*
X0112724Y0068118D03*
X0100913Y0071563D03*
X0091563Y0065657D03*
X0091071Y0062705D03*
X0083689Y0063197D03*
X0086150Y0054831D03*
X0079752Y0044496D03*
X0076307Y0044496D03*
X0080736Y0036622D03*
X0082705Y0033669D03*
X0086150Y0033669D03*
X0088118Y0024811D03*
X0086642Y0019890D03*
X0096976Y0030224D03*
X0101898Y0035146D03*
X0111248Y0032685D03*
X0110264Y0027764D03*
X0119122Y0028256D03*
X0123059Y0028256D03*
X0120598Y0032193D03*
X0131917Y0030717D03*
X0134378Y0028748D03*
X0138315Y0036130D03*
X0141760Y0039575D03*
X0149142Y0044004D03*
X0148157Y0054831D03*
X0146189Y0059752D03*
X0139299Y0068118D03*
X0131917Y0075008D03*
X0137331Y0092232D03*
X0140283Y0092232D03*
X0146681Y0105028D03*
X0134378Y0107980D03*
X0130441Y0113394D03*
X0127980Y0107488D03*
X0139791Y0123728D03*
X0134378Y0129142D03*
X0131917Y0139476D03*
X0129949Y0144890D03*
X0128965Y0148335D03*
X0130933Y0150303D03*
X0135854Y0145382D03*
X0141760Y0150303D03*
X0155539Y0143906D03*
X0155539Y0158177D03*
X0156031Y0162114D03*
X0126996Y0163591D03*
X0122567Y0161130D03*
X0119122Y0160638D03*
X0121091Y0166051D03*
X0111740Y0149319D03*
X0118630Y0138984D03*
X0122567Y0138492D03*
X0113709Y0134555D03*
X0112232Y0123728D03*
X0101898Y0120283D03*
X0100913Y0126189D03*
X0095008Y0117823D03*
X0078768Y0100106D03*
X0066957Y0089772D03*
X0064496Y0094693D03*
X0059575Y0092724D03*
X0054161Y0089772D03*
X0053669Y0085343D03*
X0051209Y0083374D03*
X0048256Y0083374D03*
X0041858Y0083866D03*
X0042350Y0086819D03*
X0036445Y0092724D03*
X0031031Y0093807D03*
X0032016Y0099614D03*
X0031031Y0102075D03*
X0041858Y0104535D03*
X0044811Y0106012D03*
X0047272Y0108965D03*
X0056622Y0117823D03*
X0057114Y0123236D03*
X0046287Y0121760D03*
X0059575Y0107980D03*
X0046780Y0095185D03*
X0057114Y0084358D03*
X0059575Y0075008D03*
X0057114Y0068118D03*
X0061051Y0063197D03*
X0051209Y0071563D03*
X0035953Y0065657D03*
X0029555Y0068118D03*
X0035953Y0050402D03*
X0039398Y0050894D03*
X0046287Y0053846D03*
X0035953Y0038591D03*
X0039398Y0035146D03*
X0040382Y0030717D03*
X0035953Y0028748D03*
X0046780Y0037606D03*
X0049240Y0031701D03*
X0051701Y0028748D03*
X0055146Y0036130D03*
X0059083Y0039575D03*
X0067941Y0027272D03*
X0061543Y0013000D03*
X0057114Y0013000D03*
X0048748Y0019890D03*
X0040382Y0017429D03*
X0029555Y0013000D03*
X0017744Y0015953D03*
X0031031Y0043512D03*
X0086150Y0076484D03*
X0088610Y0080913D03*
X0118630Y0050402D03*
X0123551Y0049417D03*
X0132409Y0049417D03*
X0137823Y0049909D03*
X0130441Y0040067D03*
X0139299Y0013492D03*
X0112724Y0013000D03*
X0158492Y0067134D03*
X0089594Y0145382D03*
X0087626Y0147350D03*
X0075815Y0150303D03*
X0082213Y0159654D03*
X0085657Y0161130D03*
X0089102Y0167528D03*
X0092055Y0167035D03*
X0093039Y0163098D03*
X0095992Y0161130D03*
X0062035Y0151287D03*
X0059083Y0150303D03*
X0062035Y0144398D03*
X0051701Y0138984D03*
X0049240Y0140953D03*
X0046780Y0138492D03*
X0041858Y0143413D03*
X0039398Y0145874D03*
X0037429Y0151287D03*
X0036445Y0160638D03*
X0039398Y0160638D03*
X0046976Y0150598D03*
X0045795Y0146366D03*
X0035953Y0138984D03*
X0023157Y0136524D03*
X0016760Y0127665D03*
X0030539Y0122744D03*
X0054161Y0159654D03*
D14*
X0042350Y0159654D01*
X0034969Y0152272D01*
X0034969Y0146858D01*
X0038413Y0143413D01*
X0038413Y0130618D01*
X0042843Y0126189D01*
X0042843Y0123236D01*
X0042882Y0123039D01*
X0046287Y0121760D02*
X0046287Y0125205D01*
X0041858Y0129634D01*
X0041858Y0143413D01*
X0044811Y0143906D02*
X0062035Y0143906D01*
X0062035Y0144398D01*
X0062035Y0151287D01*
X0059083Y0150303D02*
X0058787Y0150598D01*
X0052646Y0150598D01*
X0051209Y0153748D02*
X0049240Y0151780D01*
X0049240Y0149811D01*
X0045795Y0146366D01*
X0044811Y0143906D02*
X0041120Y0147596D01*
X0039398Y0145874D01*
X0041120Y0147596D02*
X0037429Y0151287D01*
X0042882Y0150598D02*
X0046976Y0150598D01*
X0051209Y0153748D02*
X0063020Y0153748D01*
X0067449Y0149319D01*
X0067449Y0148827D01*
X0068925Y0147350D01*
X0081720Y0147350D01*
X0090579Y0156209D01*
X0090579Y0165067D01*
X0092055Y0166543D01*
X0092055Y0167035D01*
X0092055Y0169988D01*
X0090087Y0171957D01*
X0090087Y0182291D01*
X0090087Y0181563D01*
X0088118Y0181563D02*
X0088118Y0182291D01*
X0088118Y0171465D01*
X0089102Y0170480D01*
X0089102Y0167528D01*
X0086150Y0170480D02*
X0086150Y0182291D01*
X0086150Y0181563D01*
X0084181Y0181563D02*
X0084181Y0182291D01*
X0084181Y0171957D01*
X0082213Y0169988D01*
X0082213Y0164083D01*
X0024142Y0164083D01*
X0009870Y0149811D01*
X0009870Y0068610D01*
X0024388Y0054093D01*
X0011839Y0041543D01*
X0011839Y0039083D01*
X0033492Y0017429D01*
X0040382Y0017429D01*
X0042882Y0012803D02*
X0042882Y0033217D01*
X0044811Y0035146D01*
X0054161Y0035146D01*
X0055146Y0036130D01*
X0059083Y0039575D02*
X0058295Y0040362D01*
X0052646Y0040362D01*
X0046780Y0037606D02*
X0045638Y0037606D01*
X0042882Y0040362D01*
X0039398Y0035146D02*
X0035953Y0038591D01*
X0031031Y0043512D02*
X0058591Y0043512D01*
X0074339Y0027764D01*
X0074339Y0027272D01*
X0067941Y0027272D01*
X0074339Y0027272D02*
X0075815Y0027272D01*
X0080490Y0022596D01*
X0090579Y0032685D01*
X0090579Y0047941D01*
X0093531Y0050894D01*
X0093531Y0054339D01*
X0088610Y0059260D01*
X0088610Y0080913D01*
X0086150Y0076976D02*
X0086150Y0076484D01*
X0086150Y0054831D01*
X0086150Y0033669D01*
X0083689Y0036130D02*
X0083689Y0059260D01*
X0067941Y0075008D01*
X0059575Y0075008D01*
X0057114Y0073531D02*
X0057114Y0084358D01*
X0056130Y0087803D02*
X0053669Y0085343D01*
X0051209Y0083374D02*
X0051209Y0071563D01*
X0052646Y0067921D02*
X0056917Y0067921D01*
X0057114Y0068118D01*
X0057114Y0073531D02*
X0062724Y0067921D01*
X0070441Y0067921D01*
X0078571Y0067921D02*
X0078571Y0068807D01*
X0059575Y0087803D01*
X0056130Y0087803D01*
X0054161Y0089772D02*
X0066957Y0089772D01*
X0066957Y0093709D02*
X0066957Y0095677D01*
X0060559Y0102075D01*
X0031031Y0102075D01*
X0032016Y0099614D02*
X0031524Y0099122D01*
X0024142Y0099122D01*
X0021681Y0096661D01*
X0021681Y0080421D01*
X0035953Y0066150D01*
X0035953Y0065657D01*
X0024388Y0054093D01*
X0023157Y0050402D02*
X0035953Y0050402D01*
X0039398Y0050894D02*
X0039890Y0051386D01*
X0064988Y0051386D01*
X0070441Y0045933D01*
X0070441Y0040362D01*
X0069417Y0036622D02*
X0073846Y0036622D01*
X0073846Y0044988D01*
X0065480Y0053354D01*
X0062528Y0053354D01*
X0048256Y0067626D01*
X0048256Y0083374D01*
X0045795Y0083866D02*
X0045795Y0089280D01*
X0048748Y0092232D01*
X0059083Y0092232D01*
X0059575Y0092724D01*
X0063709Y0095480D02*
X0064496Y0094693D01*
X0063709Y0095480D02*
X0052646Y0095480D01*
X0046780Y0095185D02*
X0046484Y0095480D01*
X0042882Y0095480D01*
X0036445Y0092724D02*
X0042350Y0086819D01*
X0041858Y0083866D02*
X0040874Y0083866D01*
X0033984Y0090756D01*
X0033984Y0095677D01*
X0032508Y0097154D01*
X0026760Y0097154D01*
X0025087Y0095480D01*
X0031031Y0093807D02*
X0031031Y0073899D01*
X0033415Y0071516D01*
X0046287Y0058276D01*
X0046287Y0053846D01*
X0042882Y0067921D02*
X0042882Y0080953D01*
X0045795Y0083866D01*
X0029555Y0068118D02*
X0029358Y0067921D01*
X0025087Y0067921D01*
X0015323Y0067921D02*
X0015323Y0089240D01*
X0011839Y0092724D01*
X0011839Y0098138D01*
X0022173Y0108472D01*
X0046780Y0108472D01*
X0047272Y0108965D01*
X0044811Y0106012D02*
X0045303Y0105520D01*
X0068433Y0105520D01*
X0070441Y0103512D01*
X0070441Y0095480D01*
X0066957Y0093709D02*
X0083689Y0076976D01*
X0083689Y0063197D01*
X0080205Y0067921D02*
X0078571Y0067921D01*
X0086150Y0076976D02*
X0076307Y0086819D01*
X0076307Y0100106D01*
X0068925Y0107488D01*
X0061051Y0107488D01*
X0060559Y0107980D01*
X0059575Y0107980D01*
X0051701Y0107980D01*
X0023157Y0136524D01*
X0016760Y0127665D02*
X0015323Y0126228D01*
X0015323Y0123039D01*
X0025087Y0123039D02*
X0030244Y0123039D01*
X0030539Y0122744D01*
X0046780Y0127173D02*
X0046780Y0138492D01*
X0049240Y0140953D02*
X0050224Y0141937D01*
X0061051Y0141937D01*
X0079949Y0123039D01*
X0080205Y0123039D01*
X0070441Y0123039D02*
X0067291Y0126189D01*
X0056622Y0126189D01*
X0051701Y0131110D01*
X0051701Y0138984D01*
X0062035Y0143906D02*
X0080736Y0143906D01*
X0083935Y0147104D01*
X0096484Y0134555D01*
X0104358Y0134555D01*
X0104358Y0107488D01*
X0094516Y0097646D01*
X0094516Y0094201D01*
X0096484Y0092232D01*
X0099929Y0092232D01*
X0106819Y0099122D01*
X0108787Y0099122D01*
X0136346Y0099122D01*
X0140283Y0095185D01*
X0140283Y0092232D01*
X0140283Y0088787D01*
X0141760Y0087311D01*
X0138315Y0087311D02*
X0143974Y0081652D01*
X0144220Y0081898D01*
X0144220Y0091740D01*
X0148157Y0095677D01*
X0148157Y0096661D01*
X0148157Y0092232D02*
X0166366Y0074024D01*
X0166366Y0066642D01*
X0161937Y0062213D01*
X0145205Y0062213D01*
X0132409Y0049417D01*
X0137823Y0049417D02*
X0143728Y0049417D01*
X0149142Y0044004D01*
X0153079Y0040067D02*
X0144713Y0040067D01*
X0137823Y0046957D01*
X0126012Y0046957D01*
X0123551Y0049417D01*
X0118630Y0050402D02*
X0118138Y0050894D01*
X0108787Y0050894D01*
X0098256Y0040362D01*
X0098000Y0040362D01*
X0101898Y0035146D02*
X0096976Y0030224D01*
X0096976Y0026780D01*
X0087626Y0017429D01*
X0085657Y0017429D01*
X0080490Y0022596D01*
X0086642Y0019890D02*
X0094516Y0027764D01*
X0094516Y0032685D01*
X0095008Y0032685D01*
X0105835Y0043512D01*
X0109280Y0043512D01*
X0120598Y0032193D01*
X0119122Y0028256D02*
X0107764Y0039614D01*
X0107764Y0040362D01*
X0111248Y0032685D02*
X0118138Y0025795D01*
X0120598Y0025795D01*
X0123059Y0028256D01*
X0123059Y0038098D01*
X0121091Y0040067D01*
X0121091Y0066642D01*
X0125559Y0067921D02*
X0125559Y0068571D01*
X0123059Y0071563D01*
X0123059Y0084358D01*
X0126504Y0087803D01*
X0126504Y0088787D01*
X0125520Y0083374D02*
X0126996Y0081898D01*
X0126996Y0071071D01*
X0133886Y0064181D01*
X0158984Y0064181D01*
X0162724Y0067921D01*
X0162882Y0067921D01*
X0158492Y0067134D02*
X0143974Y0081652D01*
X0138315Y0087311D02*
X0129457Y0096169D01*
X0125559Y0095480D02*
X0125559Y0095146D01*
X0136839Y0083866D01*
X0131917Y0085343D02*
X0131425Y0085835D01*
X0131917Y0085343D02*
X0131917Y0075008D01*
X0129457Y0072055D02*
X0129457Y0083866D01*
X0137331Y0092232D02*
X0135323Y0094240D01*
X0135323Y0095480D01*
X0143236Y0105028D02*
X0117646Y0105028D01*
X0116661Y0106012D01*
X0113709Y0105028D02*
X0104358Y0105028D01*
X0098000Y0098669D01*
X0098000Y0095480D01*
X0091563Y0090756D02*
X0091563Y0065657D01*
X0102636Y0054585D01*
X0094516Y0046465D01*
X0094516Y0032685D01*
X0092547Y0032193D02*
X0092547Y0047449D01*
X0095500Y0050402D01*
X0095500Y0055323D01*
X0091071Y0059752D01*
X0091071Y0062705D01*
X0098000Y0067921D02*
X0098000Y0068650D01*
X0100913Y0071563D01*
X0107764Y0067921D02*
X0112528Y0067921D01*
X0112724Y0068118D01*
X0119614Y0071563D02*
X0102636Y0054585D01*
X0083689Y0036130D02*
X0082705Y0035146D01*
X0082705Y0033669D01*
X0080736Y0036622D02*
X0073846Y0036622D01*
X0069417Y0036622D02*
X0060067Y0045972D01*
X0030047Y0045972D01*
X0028571Y0044496D01*
X0028571Y0042528D01*
X0040382Y0030717D01*
X0035953Y0028748D02*
X0025087Y0039614D01*
X0025087Y0040362D01*
X0015323Y0040362D02*
X0015323Y0042567D01*
X0023157Y0050402D01*
X0049240Y0031701D02*
X0049732Y0032193D01*
X0059575Y0032193D01*
X0078965Y0012803D01*
X0080205Y0012803D01*
X0070441Y0012803D02*
X0065185Y0012803D01*
X0059575Y0018413D01*
X0052685Y0018413D01*
X0051701Y0019398D01*
X0051701Y0028748D01*
X0048748Y0019890D02*
X0052685Y0015953D01*
X0058591Y0015953D01*
X0061543Y0013000D01*
X0057114Y0013000D02*
X0056917Y0012803D01*
X0052646Y0012803D01*
X0029555Y0013000D02*
X0029358Y0012803D01*
X0025087Y0012803D01*
X0017744Y0015953D02*
X0015323Y0013531D01*
X0015323Y0012803D01*
X0061051Y0063197D02*
X0079752Y0044496D01*
X0076307Y0044496D02*
X0080205Y0040598D01*
X0080205Y0040362D01*
X0092547Y0032193D02*
X0088118Y0027764D01*
X0088118Y0024811D01*
X0098000Y0015500D02*
X0110264Y0027764D01*
X0098000Y0015500D02*
X0098000Y0012803D01*
X0107764Y0012803D02*
X0112528Y0012803D01*
X0112724Y0013000D01*
X0125559Y0012803D02*
X0125559Y0033709D01*
X0127488Y0035638D01*
X0137823Y0035638D01*
X0138315Y0036130D01*
X0141760Y0039575D02*
X0140972Y0040362D01*
X0135323Y0040362D01*
X0130441Y0040067D02*
X0130146Y0040362D01*
X0125559Y0040362D01*
X0132902Y0031701D02*
X0131917Y0030717D01*
X0132902Y0031701D02*
X0143236Y0031701D01*
X0162134Y0012803D01*
X0162882Y0012803D01*
X0153118Y0012803D02*
X0146878Y0012803D01*
X0143236Y0016445D01*
X0136839Y0016445D01*
X0134378Y0018906D01*
X0134378Y0028748D01*
X0139299Y0013492D02*
X0139102Y0012803D01*
X0135323Y0012803D01*
X0153079Y0040067D02*
X0153118Y0040362D01*
X0162429Y0040559D02*
X0162685Y0040559D01*
X0162882Y0040362D01*
X0162429Y0040559D02*
X0148157Y0054831D01*
X0146189Y0059752D02*
X0161937Y0059752D01*
X0168335Y0066150D01*
X0168335Y0074516D01*
X0165382Y0077469D01*
X0165382Y0087803D01*
X0168335Y0087803D01*
X0169319Y0088787D01*
X0179654Y0088787D01*
X0179654Y0086819D02*
X0169811Y0086819D01*
X0167843Y0084850D01*
X0165382Y0087803D02*
X0162921Y0087803D01*
X0159476Y0090264D02*
X0159476Y0093709D01*
X0148157Y0105028D01*
X0146681Y0105028D01*
X0148157Y0107488D02*
X0134870Y0107488D01*
X0134378Y0107980D01*
X0130441Y0113394D02*
X0122075Y0121760D01*
X0122075Y0138492D01*
X0122567Y0138492D01*
X0111740Y0149319D01*
X0107764Y0149850D02*
X0118630Y0138984D01*
X0113709Y0134555D02*
X0104358Y0134555D01*
X0100913Y0126189D02*
X0098000Y0123276D01*
X0098000Y0123039D01*
X0101898Y0120283D02*
X0081967Y0100352D01*
X0072862Y0109457D01*
X0061543Y0109457D01*
X0049240Y0121760D01*
X0049240Y0124713D01*
X0046780Y0127173D01*
X0052646Y0123039D02*
X0056917Y0123039D01*
X0057114Y0123236D01*
X0056622Y0117823D02*
X0095008Y0117823D01*
X0107764Y0123039D02*
X0111543Y0123039D01*
X0112232Y0123728D01*
X0125559Y0123039D02*
X0125559Y0140500D01*
X0129949Y0144890D01*
X0129949Y0147350D02*
X0130933Y0147350D01*
X0132409Y0145874D01*
X0132409Y0143413D01*
X0132409Y0142921D01*
X0155539Y0142921D01*
X0155539Y0143906D01*
X0155539Y0142921D02*
X0159969Y0142921D01*
X0166366Y0149319D01*
X0166366Y0151780D01*
X0156031Y0162114D01*
X0155539Y0158177D02*
X0162882Y0150835D01*
X0162882Y0150598D01*
X0153118Y0150598D02*
X0153118Y0156661D01*
X0148650Y0161130D01*
X0122567Y0161130D01*
X0119122Y0160638D02*
X0118138Y0161622D01*
X0109280Y0161622D01*
X0098256Y0150598D01*
X0098000Y0150598D01*
X0094516Y0150303D02*
X0094516Y0151780D01*
X0106327Y0163591D01*
X0126996Y0163591D01*
X0121091Y0166051D02*
X0106327Y0166051D01*
X0087626Y0147350D01*
X0089594Y0145382D02*
X0094516Y0150303D01*
X0095992Y0159161D02*
X0095992Y0161130D01*
X0096976Y0162114D01*
X0096976Y0170972D01*
X0093945Y0174004D01*
X0094024Y0182291D01*
X0092055Y0182291D02*
X0092055Y0181799D01*
X0092055Y0182291D02*
X0092055Y0172941D01*
X0095008Y0169988D01*
X0095008Y0165067D01*
X0093039Y0163098D01*
X0095992Y0159161D02*
X0083935Y0147104D01*
X0080205Y0150598D02*
X0076110Y0150598D01*
X0075815Y0150303D01*
X0070441Y0150598D02*
X0069614Y0150598D01*
X0066465Y0153748D01*
X0066465Y0157193D01*
X0061543Y0162114D01*
X0040874Y0162114D01*
X0039398Y0160638D01*
X0036445Y0160638D02*
X0034476Y0162114D01*
X0024634Y0162114D01*
X0015323Y0152803D01*
X0015323Y0150598D01*
X0025087Y0150598D02*
X0025087Y0149850D01*
X0035953Y0138984D01*
X0040382Y0106012D02*
X0022665Y0106012D01*
X0015323Y0098669D01*
X0015323Y0095480D01*
X0040382Y0106012D02*
X0041858Y0104535D01*
X0078768Y0100106D02*
X0080205Y0098669D01*
X0080205Y0095480D01*
X0081967Y0100352D02*
X0091563Y0090756D01*
X0107764Y0090303D02*
X0113709Y0084358D01*
X0107764Y0090303D02*
X0107764Y0095480D01*
X0111740Y0096169D02*
X0121583Y0096169D01*
X0127980Y0107488D02*
X0137085Y0116593D01*
X0129457Y0124220D01*
X0129457Y0140461D01*
X0132409Y0143413D01*
X0132409Y0139969D02*
X0131917Y0139476D01*
X0132409Y0139969D02*
X0147173Y0139969D01*
X0162882Y0124260D01*
X0162882Y0123039D01*
X0153118Y0123039D02*
X0146386Y0123039D01*
X0143236Y0126189D01*
X0137331Y0126189D01*
X0134378Y0129142D01*
X0135323Y0123039D02*
X0139102Y0123039D01*
X0139791Y0123728D01*
X0137085Y0116593D02*
X0144220Y0109457D01*
X0153571Y0109457D01*
X0167350Y0095677D01*
X0167843Y0095677D01*
X0168827Y0094693D01*
X0179654Y0094693D01*
X0179654Y0096661D02*
X0170303Y0096661D01*
X0167843Y0099122D01*
X0162882Y0095480D02*
X0160165Y0095480D01*
X0148157Y0107488D01*
X0143236Y0105028D02*
X0152783Y0095480D01*
X0153118Y0095480D01*
X0159476Y0090264D02*
X0167843Y0090264D01*
X0168335Y0090756D01*
X0179654Y0090756D01*
X0179654Y0092724D02*
X0165874Y0092724D01*
X0153118Y0067921D02*
X0143925Y0067921D01*
X0140776Y0071071D01*
X0130441Y0071071D01*
X0129457Y0072055D01*
X0135323Y0067921D02*
X0139102Y0067921D01*
X0139299Y0068118D01*
X0137823Y0049909D02*
X0137823Y0049417D01*
X0135854Y0145382D02*
X0130933Y0150303D01*
X0130638Y0150598D01*
X0125559Y0150598D01*
X0128965Y0148335D02*
X0129949Y0147350D01*
X0135323Y0150598D02*
X0141957Y0150598D01*
X0141760Y0150303D01*
X0107764Y0150598D02*
X0107764Y0149850D01*
X0085657Y0161130D02*
X0085657Y0169988D01*
X0086150Y0170480D01*
X0082213Y0164083D02*
X0082213Y0159654D01*
M02*
