G75*
%MOIN*%
%OFA0B0*%
%FSLAX25Y25*%
%IPPOS*%
%LPD*%
%AMOC8*
5,1,8,0,0,1.08239X$1,22.5*
%
%ADD10R,0.04331X0.03937*%
%ADD11R,0.01378X0.04724*%
%ADD12R,0.01181X0.03150*%
%ADD13R,0.09449X0.08661*%
%ADD14R,0.05118X0.03346*%
%ADD15R,0.03150X0.01181*%
%ADD16R,0.08661X0.09449*%
%ADD17R,0.03346X0.05118*%
%ADD18C,0.01987*%
%ADD19C,0.01000*%
%ADD20C,0.01600*%
D10*
X0016858Y0030224D03*
X0023551Y0030224D03*
X0023650Y0039083D03*
X0016957Y0039083D03*
X0077882Y0084850D03*
X0084575Y0084850D03*
X0084575Y0093709D03*
X0077882Y0093709D03*
X0093630Y0093709D03*
X0100323Y0093709D03*
X0100323Y0084850D03*
X0093630Y0084850D03*
X0154654Y0038591D03*
X0161346Y0038591D03*
X0161346Y0029732D03*
X0154654Y0029732D03*
X0155638Y0139969D03*
X0162331Y0139969D03*
X0162331Y0148827D03*
X0155638Y0148827D03*
X0024043Y0149319D03*
X0017350Y0149319D03*
X0017350Y0140461D03*
X0024043Y0140461D03*
D11*
X0033689Y0134339D03*
X0036248Y0134339D03*
X0038807Y0134339D03*
X0041366Y0134339D03*
X0043925Y0134339D03*
X0046484Y0134339D03*
X0049043Y0134339D03*
X0051602Y0134339D03*
X0054161Y0134339D03*
X0056720Y0134339D03*
X0059280Y0134339D03*
X0061839Y0134339D03*
X0061839Y0155441D03*
X0059280Y0155441D03*
X0056720Y0155441D03*
X0054161Y0155441D03*
X0051602Y0155441D03*
X0049043Y0155441D03*
X0046484Y0155441D03*
X0043925Y0155441D03*
X0041366Y0155441D03*
X0038807Y0155441D03*
X0036248Y0155441D03*
X0033689Y0155441D03*
X0039102Y0100323D03*
X0041661Y0100323D03*
X0044220Y0100323D03*
X0046780Y0100323D03*
X0049339Y0100323D03*
X0051898Y0100323D03*
X0054457Y0100323D03*
X0057016Y0100323D03*
X0059575Y0100323D03*
X0062134Y0100323D03*
X0064693Y0100323D03*
X0067252Y0100323D03*
X0067252Y0079220D03*
X0064693Y0079220D03*
X0062134Y0079220D03*
X0059575Y0079220D03*
X0057016Y0079220D03*
X0054457Y0079220D03*
X0051898Y0079220D03*
X0049339Y0079220D03*
X0046780Y0079220D03*
X0044220Y0079220D03*
X0041661Y0079220D03*
X0039102Y0079220D03*
X0038807Y0045205D03*
X0036248Y0045205D03*
X0033689Y0045205D03*
X0041366Y0045205D03*
X0043925Y0045205D03*
X0046484Y0045205D03*
X0049043Y0045205D03*
X0051602Y0045205D03*
X0054161Y0045205D03*
X0056720Y0045205D03*
X0059280Y0045205D03*
X0061839Y0045205D03*
X0061839Y0024102D03*
X0059280Y0024102D03*
X0056720Y0024102D03*
X0054161Y0024102D03*
X0051602Y0024102D03*
X0049043Y0024102D03*
X0046484Y0024102D03*
X0043925Y0024102D03*
X0041366Y0024102D03*
X0038807Y0024102D03*
X0036248Y0024102D03*
X0033689Y0024102D03*
X0111445Y0079220D03*
X0114004Y0079220D03*
X0116563Y0079220D03*
X0119122Y0079220D03*
X0121681Y0079220D03*
X0124240Y0079220D03*
X0126799Y0079220D03*
X0129358Y0079220D03*
X0131917Y0079220D03*
X0134476Y0079220D03*
X0137035Y0079220D03*
X0139594Y0079220D03*
X0139594Y0100323D03*
X0137035Y0100323D03*
X0134476Y0100323D03*
X0131917Y0100323D03*
X0129358Y0100323D03*
X0126799Y0100323D03*
X0124240Y0100323D03*
X0121681Y0100323D03*
X0119122Y0100323D03*
X0116563Y0100323D03*
X0114004Y0100323D03*
X0111445Y0100323D03*
X0116366Y0134339D03*
X0118925Y0134339D03*
X0121484Y0134339D03*
X0124043Y0134339D03*
X0126602Y0134339D03*
X0129161Y0134339D03*
X0131720Y0134339D03*
X0134280Y0134339D03*
X0136839Y0134339D03*
X0139398Y0134339D03*
X0141957Y0134339D03*
X0144516Y0134339D03*
X0144516Y0155441D03*
X0141957Y0155441D03*
X0139398Y0155441D03*
X0136839Y0155441D03*
X0134280Y0155441D03*
X0131720Y0155441D03*
X0129161Y0155441D03*
X0126602Y0155441D03*
X0124043Y0155441D03*
X0121484Y0155441D03*
X0118925Y0155441D03*
X0116366Y0155441D03*
X0116366Y0045205D03*
X0118925Y0045205D03*
X0121484Y0045205D03*
X0124043Y0045205D03*
X0126602Y0045205D03*
X0129161Y0045205D03*
X0131720Y0045205D03*
X0134280Y0045205D03*
X0136839Y0045205D03*
X0139398Y0045205D03*
X0141957Y0045205D03*
X0144516Y0045205D03*
X0144516Y0024102D03*
X0141957Y0024102D03*
X0139398Y0024102D03*
X0136839Y0024102D03*
X0134280Y0024102D03*
X0131720Y0024102D03*
X0129161Y0024102D03*
X0126602Y0024102D03*
X0124043Y0024102D03*
X0121484Y0024102D03*
X0118925Y0024102D03*
X0116366Y0024102D03*
D12*
X0094024Y0030126D03*
X0092055Y0030126D03*
X0090087Y0030126D03*
X0088118Y0030126D03*
X0086150Y0030126D03*
X0084181Y0030126D03*
X0084181Y0155323D03*
X0086150Y0155323D03*
X0088118Y0155323D03*
X0090087Y0155323D03*
X0092055Y0155323D03*
X0094024Y0155323D03*
D13*
X0103669Y0161228D03*
X0074535Y0161228D03*
X0074535Y0024220D03*
X0103669Y0024220D03*
D14*
X0101504Y0018217D03*
X0076701Y0018217D03*
X0076701Y0167232D03*
X0101504Y0167232D03*
D15*
X0152685Y0096661D03*
X0152685Y0094693D03*
X0152685Y0092724D03*
X0152685Y0090756D03*
X0152685Y0088787D03*
X0152685Y0086819D03*
X0027488Y0086819D03*
X0027488Y0088787D03*
X0027488Y0090756D03*
X0027488Y0092724D03*
X0027488Y0094693D03*
X0027488Y0096661D03*
D16*
X0021583Y0106307D03*
X0021583Y0077173D03*
X0158591Y0077173D03*
X0158591Y0106307D03*
D17*
X0164594Y0104142D03*
X0164594Y0079339D03*
X0015579Y0079339D03*
X0015579Y0104142D03*
D18*
X0031031Y0102075D03*
X0032016Y0099614D03*
X0031031Y0093807D03*
X0036445Y0092724D03*
X0042350Y0086819D03*
X0041858Y0083866D03*
X0048256Y0083374D03*
X0051209Y0083374D03*
X0053669Y0085343D03*
X0057114Y0084358D03*
X0054161Y0089772D03*
X0059575Y0092724D03*
X0064496Y0094693D03*
X0066957Y0089772D03*
X0078768Y0100106D03*
X0095008Y0117823D03*
X0101898Y0120283D03*
X0100913Y0126189D03*
X0112232Y0123728D03*
X0113709Y0134555D03*
X0118630Y0138984D03*
X0122567Y0138492D03*
X0129949Y0144890D03*
X0128965Y0148335D03*
X0130933Y0150303D03*
X0135854Y0145382D03*
X0131917Y0139476D03*
X0134378Y0129142D03*
X0139791Y0123728D03*
X0130441Y0113394D03*
X0127980Y0107488D03*
X0134378Y0107980D03*
X0146681Y0105028D03*
X0148157Y0096661D03*
X0148157Y0092232D03*
X0141760Y0087311D03*
X0138315Y0087311D03*
X0136839Y0083866D03*
X0131425Y0085835D03*
X0129457Y0083866D03*
X0125520Y0083374D03*
X0126504Y0088787D03*
X0129457Y0096169D03*
X0121583Y0096169D03*
X0113709Y0105028D03*
X0116661Y0106012D03*
X0108787Y0099122D03*
X0111740Y0096169D03*
X0113709Y0084358D03*
X0119614Y0071563D03*
X0121091Y0066642D03*
X0112724Y0068118D03*
X0100913Y0071563D03*
X0091563Y0065657D03*
X0091071Y0062705D03*
X0083689Y0063197D03*
X0086150Y0054831D03*
X0079752Y0044496D03*
X0076307Y0044496D03*
X0080736Y0036622D03*
X0082705Y0033669D03*
X0086150Y0033669D03*
X0088118Y0024811D03*
X0086642Y0019890D03*
X0096976Y0030224D03*
X0101898Y0035146D03*
X0111248Y0032685D03*
X0110264Y0027764D03*
X0119122Y0028256D03*
X0123059Y0028256D03*
X0120598Y0032193D03*
X0131917Y0030717D03*
X0134378Y0028748D03*
X0138315Y0036130D03*
X0141760Y0039575D03*
X0149142Y0044004D03*
X0148157Y0054831D03*
X0146189Y0059752D03*
X0139299Y0068118D03*
X0131917Y0075008D03*
X0137331Y0092232D03*
X0140283Y0092232D03*
X0159476Y0090264D03*
X0162921Y0087803D03*
X0167843Y0084850D03*
X0165874Y0092724D03*
X0167843Y0095677D03*
X0167843Y0099122D03*
X0158492Y0067134D03*
X0137823Y0049909D03*
X0132409Y0049417D03*
X0123551Y0049417D03*
X0118630Y0050402D03*
X0130441Y0040067D03*
X0139299Y0013492D03*
X0112724Y0013000D03*
X0067941Y0027272D03*
X0059083Y0039575D03*
X0055146Y0036130D03*
X0049240Y0031701D03*
X0051701Y0028748D03*
X0046780Y0037606D03*
X0040382Y0030717D03*
X0039398Y0035146D03*
X0035953Y0038591D03*
X0031031Y0043512D03*
X0035953Y0050402D03*
X0039398Y0050894D03*
X0046287Y0053846D03*
X0035953Y0065657D03*
X0029555Y0068118D03*
X0051209Y0071563D03*
X0057114Y0068118D03*
X0061051Y0063197D03*
X0059575Y0075008D03*
X0046780Y0095185D03*
X0041858Y0104535D03*
X0044811Y0106012D03*
X0047272Y0108965D03*
X0056622Y0117823D03*
X0057114Y0123236D03*
X0046287Y0121760D03*
X0059575Y0107980D03*
X0030539Y0122744D03*
X0023157Y0136524D03*
X0016760Y0127665D03*
X0035953Y0138984D03*
X0041858Y0143413D03*
X0039398Y0145874D03*
X0037429Y0151287D03*
X0036445Y0160638D03*
X0039398Y0160638D03*
X0046976Y0150598D03*
X0045795Y0146366D03*
X0049240Y0140953D03*
X0051701Y0138984D03*
X0046780Y0138492D03*
X0059083Y0150303D03*
X0062035Y0151287D03*
X0062035Y0144398D03*
X0075815Y0150303D03*
X0082213Y0159654D03*
X0085657Y0161130D03*
X0089102Y0167528D03*
X0092055Y0167035D03*
X0093039Y0163098D03*
X0095992Y0161130D03*
X0087626Y0147350D03*
X0089594Y0145382D03*
X0111740Y0149319D03*
X0119122Y0160638D03*
X0122567Y0161130D03*
X0121091Y0166051D03*
X0126996Y0163591D03*
X0141760Y0150303D03*
X0155539Y0143906D03*
X0155539Y0158177D03*
X0156031Y0162114D03*
X0088610Y0080913D03*
X0086150Y0076484D03*
X0035953Y0028748D03*
X0040382Y0017429D03*
X0048748Y0019890D03*
X0057114Y0013000D03*
X0061543Y0013000D03*
X0029555Y0013000D03*
X0017744Y0015953D03*
X0054161Y0159654D03*
D19*
X0015283Y0029732D02*
X0015283Y0014969D01*
X0016760Y0013492D01*
X0023157Y0013492D01*
X0033492Y0023827D01*
X0033689Y0024102D01*
X0036248Y0024102D02*
X0036445Y0024299D01*
X0036445Y0028256D01*
X0035953Y0028748D01*
X0040382Y0030717D02*
X0043827Y0030717D01*
X0043827Y0024319D01*
X0043925Y0024102D01*
X0046287Y0023827D02*
X0046484Y0024102D01*
X0046287Y0023827D02*
X0046287Y0019890D01*
X0048748Y0019890D01*
X0049732Y0017429D02*
X0054161Y0021858D01*
X0054161Y0024102D01*
X0051701Y0024201D02*
X0051602Y0024102D01*
X0051701Y0024201D02*
X0051701Y0028748D01*
X0049240Y0031701D02*
X0049240Y0024299D01*
X0049043Y0024102D01*
X0049732Y0017429D02*
X0041366Y0017429D01*
X0040382Y0017429D01*
X0041366Y0017429D02*
X0041366Y0024102D01*
X0038906Y0024004D02*
X0038807Y0024102D01*
X0038906Y0024004D02*
X0038906Y0019398D01*
X0032508Y0013000D01*
X0029555Y0013000D01*
X0017744Y0015953D02*
X0017744Y0016937D01*
X0041366Y0040559D01*
X0041366Y0045205D01*
X0038906Y0045303D02*
X0038807Y0045205D01*
X0038906Y0045303D02*
X0038906Y0050402D01*
X0039398Y0050894D01*
X0035953Y0050402D02*
X0035953Y0045500D01*
X0036248Y0045205D01*
X0033689Y0045205D02*
X0033492Y0044988D01*
X0031770Y0043266D01*
X0031524Y0043512D01*
X0031031Y0043512D01*
X0031770Y0043266D02*
X0031031Y0042528D01*
X0021189Y0042528D01*
X0017744Y0039083D01*
X0016957Y0039083D01*
X0023650Y0039083D02*
X0024142Y0038591D01*
X0035953Y0038591D01*
X0039398Y0035146D02*
X0046287Y0042035D01*
X0047272Y0041051D01*
X0050717Y0041051D01*
X0051602Y0041937D01*
X0051602Y0045205D01*
X0049240Y0045480D02*
X0049043Y0045205D01*
X0049240Y0045480D02*
X0049240Y0050402D01*
X0051209Y0052370D01*
X0079752Y0052370D01*
X0084673Y0047449D01*
X0094516Y0047449D01*
X0099437Y0052370D01*
X0117154Y0052370D01*
X0117646Y0052862D01*
X0123551Y0052862D01*
X0126504Y0049909D01*
X0126504Y0045303D01*
X0126602Y0045205D01*
X0129161Y0045205D02*
X0129161Y0051583D01*
X0129457Y0051878D01*
X0128965Y0051878D01*
X0126012Y0054831D01*
X0086150Y0054831D01*
X0048256Y0054831D01*
X0047272Y0053846D01*
X0046287Y0053846D01*
X0046287Y0045480D01*
X0046484Y0045205D01*
X0046287Y0044988D01*
X0046287Y0042035D01*
X0043925Y0045205D02*
X0043827Y0045480D01*
X0043827Y0055323D01*
X0045795Y0057291D01*
X0147173Y0057291D01*
X0148650Y0058768D01*
X0148650Y0062213D01*
X0109772Y0062213D01*
X0108295Y0063689D01*
X0108295Y0082390D01*
X0119614Y0093709D01*
X0123551Y0093709D01*
X0126996Y0097154D01*
X0126996Y0100126D01*
X0126799Y0100323D01*
X0129358Y0100323D02*
X0129457Y0100598D01*
X0129457Y0104043D01*
X0127980Y0104043D01*
X0127980Y0107488D01*
X0127980Y0104043D02*
X0124043Y0104043D01*
X0124043Y0100598D01*
X0124240Y0100323D01*
X0124043Y0100106D01*
X0124043Y0096661D01*
X0122075Y0096661D01*
X0121583Y0096169D01*
X0119122Y0095677D02*
X0119122Y0100323D01*
X0121583Y0100598D02*
X0121681Y0100323D01*
X0121583Y0100598D02*
X0121583Y0104535D01*
X0117646Y0108472D01*
X0064004Y0108472D01*
X0061051Y0105520D01*
X0054654Y0105520D01*
X0054654Y0100598D01*
X0054457Y0100323D01*
X0056622Y0100106D02*
X0057016Y0100323D01*
X0056622Y0100106D02*
X0056622Y0097646D01*
X0055638Y0096661D01*
X0053177Y0096661D01*
X0052685Y0097154D01*
X0052193Y0097154D01*
X0052193Y0100106D01*
X0051898Y0100323D01*
X0052193Y0100598D01*
X0052193Y0107980D01*
X0059575Y0107980D01*
X0062528Y0104535D02*
X0062528Y0100717D01*
X0062134Y0100323D01*
X0059575Y0100323D02*
X0059575Y0092724D01*
X0064496Y0094693D02*
X0064496Y0100126D01*
X0064693Y0100323D01*
X0067252Y0100323D02*
X0067449Y0100106D01*
X0067449Y0097154D01*
X0081228Y0097154D01*
X0084181Y0094201D01*
X0084575Y0093709D01*
X0084575Y0089280D02*
X0093630Y0089280D01*
X0093630Y0093709D02*
X0094024Y0094201D01*
X0096976Y0097154D01*
X0108295Y0097154D01*
X0109526Y0098384D01*
X0108787Y0099122D01*
X0109526Y0098384D02*
X0111248Y0100106D01*
X0111445Y0100323D01*
X0113709Y0100618D02*
X0113709Y0105028D01*
X0116661Y0106012D02*
X0116661Y0100421D01*
X0116563Y0100323D01*
X0114004Y0100323D02*
X0113709Y0100618D01*
X0111740Y0096169D02*
X0109772Y0094201D01*
X0100913Y0094201D01*
X0100323Y0093709D01*
X0100323Y0084850D02*
X0099929Y0084358D01*
X0092055Y0076484D01*
X0086150Y0076484D01*
X0078276Y0084358D01*
X0077882Y0084850D01*
X0084575Y0084850D02*
X0085165Y0084358D01*
X0088610Y0080913D01*
X0100913Y0077469D02*
X0100913Y0071563D01*
X0100913Y0077469D02*
X0119122Y0095677D01*
X0119122Y0090756D02*
X0124043Y0090756D01*
X0129457Y0096169D01*
X0131917Y0095185D02*
X0131917Y0100323D01*
X0134378Y0100421D02*
X0134476Y0100323D01*
X0134378Y0100421D02*
X0134378Y0107980D01*
X0135362Y0110441D02*
X0145697Y0100106D01*
X0145697Y0095185D01*
X0147665Y0093217D01*
X0148650Y0093217D01*
X0148650Y0092724D01*
X0152685Y0092724D01*
X0165874Y0092724D01*
X0167843Y0095677D02*
X0157508Y0095677D01*
X0156524Y0094693D01*
X0152685Y0094693D01*
X0152685Y0096661D02*
X0152094Y0097154D01*
X0151602Y0096661D01*
X0148157Y0096661D01*
X0148650Y0092724D02*
X0148157Y0092232D01*
X0150618Y0090756D02*
X0149634Y0089772D01*
X0135854Y0089772D01*
X0132409Y0086327D01*
X0131425Y0086327D01*
X0131425Y0085835D01*
X0131425Y0086327D02*
X0121583Y0086327D01*
X0121583Y0079437D01*
X0121681Y0079220D01*
X0124043Y0078945D02*
X0124240Y0079220D01*
X0124043Y0078945D02*
X0124043Y0075992D01*
X0119614Y0071563D01*
X0116661Y0070579D02*
X0116661Y0079122D01*
X0116563Y0079220D01*
X0114201Y0079417D02*
X0114004Y0079220D01*
X0114201Y0079417D02*
X0114201Y0083866D01*
X0113709Y0084358D01*
X0111445Y0079220D02*
X0111248Y0078945D01*
X0111248Y0070087D01*
X0110264Y0069102D01*
X0110264Y0066150D01*
X0112232Y0064181D01*
X0138807Y0064181D01*
X0150618Y0064181D01*
X0150618Y0051386D01*
X0144713Y0045480D01*
X0144516Y0045205D01*
X0144713Y0044988D01*
X0144713Y0024319D01*
X0144516Y0024102D01*
X0144713Y0026287D01*
X0158000Y0026287D01*
X0160953Y0029240D01*
X0161346Y0029732D01*
X0164890Y0027272D02*
X0164890Y0065165D01*
X0162921Y0067134D01*
X0158492Y0067134D01*
X0146189Y0059752D02*
X0145697Y0060244D01*
X0070894Y0060244D01*
X0067941Y0063197D01*
X0061051Y0063197D01*
X0031031Y0063197D01*
X0027094Y0067134D01*
X0027094Y0070087D01*
X0030047Y0073039D01*
X0030047Y0081406D01*
X0026602Y0084850D01*
X0022665Y0084850D01*
X0021189Y0086327D01*
X0021189Y0089280D01*
X0012331Y0089280D01*
X0010362Y0091248D01*
X0010362Y0148335D01*
X0034476Y0172449D01*
X0092547Y0172449D01*
X0094516Y0170480D01*
X0094516Y0166051D01*
X0093039Y0164575D01*
X0093039Y0163098D01*
X0092055Y0162114D01*
X0092055Y0155323D01*
X0090087Y0155323D02*
X0090087Y0153256D01*
X0091071Y0152272D01*
X0108787Y0152272D01*
X0111740Y0149319D01*
X0116366Y0155441D02*
X0116169Y0156209D01*
X0116169Y0164575D01*
X0120106Y0168512D01*
X0156524Y0168512D01*
X0158492Y0166543D01*
X0158492Y0152272D01*
X0158984Y0152272D01*
X0161937Y0149319D01*
X0162331Y0148827D01*
X0158492Y0152272D02*
X0144713Y0152272D01*
X0144713Y0134555D01*
X0144516Y0134339D01*
X0141957Y0134339D02*
X0141760Y0134535D01*
X0141760Y0139476D01*
X0135854Y0145382D01*
X0129949Y0144890D02*
X0136839Y0151780D01*
X0136839Y0155441D01*
X0139299Y0155539D02*
X0139398Y0155441D01*
X0139299Y0155539D02*
X0139299Y0159161D01*
X0140283Y0160146D01*
X0153571Y0160146D01*
X0155539Y0158177D01*
X0156031Y0162114D02*
X0136346Y0162114D01*
X0134378Y0160146D01*
X0134378Y0155717D01*
X0134280Y0155441D01*
X0131917Y0155638D02*
X0131720Y0155441D01*
X0131917Y0155638D02*
X0131917Y0158177D01*
X0127488Y0162606D01*
X0126996Y0162606D01*
X0126996Y0163591D01*
X0126504Y0160638D02*
X0126504Y0155717D01*
X0126602Y0155441D01*
X0128965Y0155224D02*
X0129161Y0155441D01*
X0128965Y0155224D02*
X0128965Y0151780D01*
X0128472Y0151287D01*
X0128472Y0148335D01*
X0128965Y0148335D01*
X0130441Y0150303D02*
X0130933Y0150303D01*
X0124043Y0151287D02*
X0124043Y0155441D01*
X0121583Y0155539D02*
X0121484Y0155441D01*
X0121583Y0155539D02*
X0121583Y0161130D01*
X0122567Y0161130D01*
X0119122Y0160638D02*
X0119122Y0155638D01*
X0118925Y0155441D01*
X0116366Y0155441D02*
X0116169Y0155717D01*
X0094516Y0155717D01*
X0094024Y0155323D01*
X0094024Y0156701D01*
X0095500Y0158177D01*
X0095500Y0160638D01*
X0095992Y0161130D01*
X0090087Y0165067D02*
X0090087Y0155323D01*
X0088118Y0155323D02*
X0088118Y0150795D01*
X0092547Y0146366D01*
X0092547Y0112409D01*
X0094516Y0110441D01*
X0135362Y0110441D01*
X0138315Y0113394D02*
X0130441Y0113394D01*
X0135362Y0119791D02*
X0135362Y0125697D01*
X0134378Y0126681D01*
X0124043Y0126681D01*
X0123551Y0126681D01*
X0114693Y0117823D01*
X0095008Y0117823D01*
X0101898Y0120283D02*
X0103374Y0120283D01*
X0103374Y0127665D01*
X0117154Y0141445D01*
X0126996Y0141445D01*
X0128965Y0139476D01*
X0128965Y0134555D01*
X0129161Y0134339D01*
X0126602Y0134339D02*
X0126504Y0134555D01*
X0126504Y0138492D01*
X0122567Y0138492D01*
X0118630Y0138984D02*
X0118630Y0134634D01*
X0118925Y0134339D01*
X0116366Y0134339D02*
X0116169Y0134555D01*
X0113709Y0134555D01*
X0121484Y0134339D02*
X0121583Y0134240D01*
X0121583Y0129142D01*
X0116169Y0123728D01*
X0112232Y0123728D01*
X0100913Y0126189D02*
X0100913Y0128157D01*
X0124043Y0151287D01*
X0126504Y0160638D02*
X0121091Y0166051D01*
X0141760Y0155146D02*
X0141760Y0150303D01*
X0144713Y0152272D02*
X0144713Y0155224D01*
X0144516Y0155441D01*
X0141957Y0155441D02*
X0141760Y0155146D01*
X0155539Y0143906D02*
X0155638Y0143906D01*
X0139398Y0134339D02*
X0139299Y0134240D01*
X0139299Y0131110D01*
X0139791Y0130618D01*
X0139791Y0123728D01*
X0136839Y0128157D02*
X0135362Y0126681D01*
X0134378Y0126681D01*
X0134378Y0129142D02*
X0134378Y0134240D01*
X0134280Y0134339D01*
X0136839Y0134339D02*
X0136839Y0128157D01*
X0131720Y0134339D02*
X0131917Y0134535D01*
X0131917Y0139476D01*
X0124043Y0134339D02*
X0124043Y0126681D01*
X0135362Y0119791D02*
X0152587Y0102567D01*
X0152587Y0097154D01*
X0152685Y0096661D01*
X0155539Y0096661D01*
X0158000Y0099122D01*
X0167843Y0099122D01*
X0158984Y0090756D02*
X0159476Y0090264D01*
X0158984Y0090756D02*
X0152685Y0090756D01*
X0150618Y0090756D01*
X0152685Y0088787D02*
X0156524Y0088787D01*
X0157508Y0087803D01*
X0162921Y0087803D01*
X0167843Y0084850D02*
X0157016Y0084850D01*
X0155047Y0086819D01*
X0152685Y0086819D01*
X0142252Y0086819D01*
X0141760Y0087311D01*
X0141760Y0078945D01*
X0139791Y0078945D01*
X0139594Y0079220D01*
X0137035Y0079220D02*
X0136839Y0079417D01*
X0136839Y0083866D01*
X0137331Y0086327D02*
X0135854Y0086327D01*
X0131917Y0082390D01*
X0131917Y0079220D01*
X0129457Y0079319D02*
X0129358Y0079220D01*
X0129457Y0079319D02*
X0129457Y0083866D01*
X0126996Y0081898D02*
X0126996Y0079417D01*
X0126799Y0079220D01*
X0126996Y0081898D02*
X0125520Y0083374D01*
X0126504Y0088787D02*
X0126504Y0089772D01*
X0131917Y0095185D01*
X0137331Y0092232D02*
X0137331Y0100028D01*
X0137035Y0100323D01*
X0139594Y0100323D02*
X0139791Y0100106D01*
X0139791Y0092232D01*
X0140283Y0092232D01*
X0138315Y0087311D02*
X0137331Y0086327D01*
X0134476Y0079220D02*
X0134378Y0078827D01*
X0134378Y0071071D01*
X0137331Y0068118D01*
X0139299Y0068118D01*
X0141760Y0067134D02*
X0138807Y0064181D01*
X0141760Y0067134D02*
X0141760Y0078945D01*
X0131917Y0075008D02*
X0129457Y0075008D01*
X0121091Y0066642D01*
X0116661Y0070579D02*
X0114201Y0068118D01*
X0112724Y0068118D01*
X0119122Y0079220D02*
X0119122Y0090756D01*
X0138315Y0113394D02*
X0146681Y0105028D01*
X0148157Y0054831D02*
X0142252Y0048925D01*
X0140283Y0048925D01*
X0139299Y0047941D01*
X0139299Y0045303D01*
X0139398Y0045205D01*
X0136839Y0045205D02*
X0136839Y0040559D01*
X0138315Y0039083D01*
X0138315Y0036130D01*
X0141760Y0039575D02*
X0141760Y0045008D01*
X0141957Y0045205D01*
X0137823Y0049909D02*
X0134870Y0049909D01*
X0134870Y0048925D01*
X0134378Y0048433D01*
X0134378Y0045303D01*
X0134280Y0045205D01*
X0131917Y0045480D02*
X0131917Y0048925D01*
X0132409Y0049417D01*
X0131917Y0049417D01*
X0133394Y0051878D02*
X0129457Y0051878D01*
X0133394Y0051878D02*
X0134870Y0050402D01*
X0134870Y0049909D01*
X0131917Y0045480D02*
X0131720Y0045283D01*
X0131720Y0045205D01*
X0130441Y0040067D02*
X0141760Y0028748D01*
X0141760Y0024299D01*
X0141957Y0024102D01*
X0139398Y0024102D02*
X0139299Y0023709D01*
X0139299Y0013492D01*
X0135362Y0011031D02*
X0148650Y0011031D01*
X0164890Y0027272D01*
X0154654Y0038591D02*
X0149240Y0044004D01*
X0149142Y0044004D01*
X0152685Y0040559D02*
X0154654Y0038591D01*
X0136839Y0024102D02*
X0136839Y0021858D01*
X0135362Y0020382D01*
X0135362Y0011031D01*
X0135362Y0020382D02*
X0124043Y0020382D01*
X0124043Y0024102D01*
X0121583Y0024004D02*
X0121484Y0024102D01*
X0121583Y0024004D02*
X0121583Y0019398D01*
X0115185Y0013000D01*
X0112724Y0013000D01*
X0105343Y0013000D02*
X0116169Y0023827D01*
X0116366Y0024102D01*
X0118925Y0024102D02*
X0119122Y0024299D01*
X0119122Y0028256D01*
X0123059Y0028256D02*
X0123551Y0027764D01*
X0125028Y0027764D01*
X0126504Y0026287D01*
X0126504Y0024319D01*
X0126602Y0024102D01*
X0128965Y0024319D02*
X0129161Y0024102D01*
X0128965Y0024319D02*
X0128965Y0032193D01*
X0120598Y0032193D01*
X0111248Y0032685D02*
X0098453Y0032685D01*
X0094516Y0036622D01*
X0087626Y0036622D01*
X0090087Y0034161D01*
X0090087Y0030126D01*
X0092055Y0030126D02*
X0092055Y0022843D01*
X0089102Y0019890D01*
X0086642Y0019890D01*
X0081720Y0024811D01*
X0081720Y0029240D01*
X0078276Y0032685D01*
X0078276Y0043020D01*
X0079752Y0044496D01*
X0076307Y0044496D02*
X0071878Y0044496D01*
X0065972Y0050402D01*
X0058591Y0050402D01*
X0056622Y0048433D01*
X0056622Y0045303D01*
X0056720Y0045205D01*
X0059083Y0045008D02*
X0059280Y0045205D01*
X0059083Y0045008D02*
X0059083Y0039575D01*
X0055146Y0039575D02*
X0055146Y0036130D01*
X0055146Y0039575D02*
X0054161Y0040559D01*
X0054161Y0045205D01*
X0061839Y0045205D02*
X0062035Y0044988D01*
X0062035Y0027272D01*
X0067941Y0027272D01*
X0062035Y0027272D02*
X0062035Y0024319D01*
X0061839Y0024102D01*
X0059280Y0024102D02*
X0059083Y0024299D01*
X0059083Y0028748D01*
X0050224Y0037606D01*
X0046780Y0037606D01*
X0056720Y0024102D02*
X0056622Y0024004D01*
X0056622Y0021366D01*
X0057114Y0020874D01*
X0057114Y0013000D01*
X0061543Y0013000D02*
X0079752Y0013000D01*
X0086642Y0019890D01*
X0088118Y0024811D02*
X0088118Y0030126D01*
X0086150Y0030126D02*
X0086150Y0033669D01*
X0084181Y0032193D02*
X0082705Y0033669D01*
X0084181Y0032193D02*
X0084181Y0030126D01*
X0080736Y0036622D02*
X0087626Y0036622D01*
X0094024Y0030126D02*
X0094516Y0028256D01*
X0095008Y0028256D01*
X0096976Y0030224D01*
X0094024Y0030126D02*
X0094024Y0014969D01*
X0095992Y0013000D01*
X0105343Y0013000D01*
X0092055Y0022350D02*
X0092055Y0022843D01*
X0101898Y0035146D02*
X0106327Y0035146D01*
X0116169Y0044988D01*
X0116366Y0045205D01*
X0118630Y0045500D02*
X0118925Y0045205D01*
X0118630Y0045500D02*
X0118630Y0050402D01*
X0121583Y0047449D02*
X0123551Y0049417D01*
X0121583Y0047449D02*
X0121583Y0045480D01*
X0121484Y0045205D01*
X0124043Y0045205D02*
X0124043Y0041051D01*
X0110756Y0027764D01*
X0110264Y0027764D01*
X0131720Y0024102D02*
X0131917Y0024398D01*
X0131917Y0030717D01*
X0134378Y0028748D02*
X0134378Y0024201D01*
X0134280Y0024102D01*
X0091071Y0062705D02*
X0090579Y0063197D01*
X0083689Y0063197D01*
X0091563Y0065657D02*
X0053177Y0065657D01*
X0051209Y0067626D01*
X0051209Y0071563D01*
X0047764Y0074024D02*
X0058098Y0074024D01*
X0059329Y0075254D01*
X0059575Y0075008D01*
X0059329Y0075254D02*
X0059575Y0075500D01*
X0059575Y0079220D01*
X0062035Y0079122D02*
X0062134Y0079220D01*
X0062035Y0079122D02*
X0062035Y0074024D01*
X0057114Y0069102D01*
X0057114Y0068118D01*
X0047764Y0074024D02*
X0047026Y0074762D01*
X0038413Y0066150D01*
X0036445Y0066150D01*
X0035953Y0065657D01*
X0037429Y0068118D02*
X0044319Y0075008D01*
X0044319Y0079122D01*
X0044220Y0079220D01*
X0041858Y0079417D02*
X0041661Y0079220D01*
X0041858Y0079417D02*
X0041858Y0083866D01*
X0042350Y0086819D02*
X0046287Y0082882D01*
X0047764Y0082882D01*
X0048256Y0082882D01*
X0048256Y0083374D01*
X0047764Y0082882D02*
X0049240Y0081406D01*
X0049240Y0079437D01*
X0049339Y0079220D01*
X0051701Y0079437D02*
X0051898Y0079220D01*
X0051701Y0079437D02*
X0051701Y0083374D01*
X0051209Y0083374D01*
X0053669Y0083374D02*
X0053669Y0085343D01*
X0053669Y0083374D02*
X0054654Y0082390D01*
X0054654Y0079417D01*
X0054457Y0079220D01*
X0057016Y0079220D02*
X0057114Y0079319D01*
X0057114Y0084358D01*
X0054161Y0089772D02*
X0038906Y0089772D01*
X0038906Y0100106D01*
X0039102Y0100323D01*
X0041661Y0100323D02*
X0041858Y0100520D01*
X0041858Y0104535D01*
X0044319Y0105520D02*
X0044319Y0100421D01*
X0044220Y0100323D01*
X0046780Y0100323D02*
X0046780Y0104043D01*
X0047272Y0104535D01*
X0047272Y0108965D01*
X0044811Y0106012D02*
X0044319Y0105520D01*
X0049240Y0103551D02*
X0049240Y0100421D01*
X0049339Y0100323D01*
X0049240Y0103551D02*
X0049732Y0104043D01*
X0049732Y0112409D01*
X0051701Y0114378D01*
X0058591Y0114378D01*
X0089594Y0145382D01*
X0087626Y0147350D02*
X0058591Y0147350D01*
X0054654Y0151287D01*
X0049240Y0151287D01*
X0049240Y0155224D01*
X0049043Y0155441D01*
X0046484Y0155441D02*
X0046287Y0155638D01*
X0046287Y0161130D01*
X0051209Y0161130D01*
X0051701Y0161130D01*
X0061051Y0170480D01*
X0079260Y0170480D01*
X0085657Y0164083D01*
X0085657Y0161130D01*
X0085165Y0160638D01*
X0085165Y0158669D01*
X0086150Y0157685D01*
X0086150Y0155323D01*
X0088118Y0155323D02*
X0088118Y0166543D01*
X0089102Y0167528D01*
X0090087Y0165067D02*
X0092055Y0167035D01*
X0082213Y0159654D02*
X0082213Y0157291D01*
X0084181Y0155323D01*
X0075815Y0150303D02*
X0073354Y0150303D01*
X0063020Y0160638D01*
X0057114Y0160638D01*
X0056622Y0160146D01*
X0056622Y0155539D01*
X0056720Y0155441D01*
X0059083Y0155146D02*
X0059280Y0155441D01*
X0059083Y0155146D02*
X0059083Y0150303D01*
X0062035Y0151287D02*
X0062035Y0155224D01*
X0061839Y0155441D01*
X0054161Y0155441D02*
X0054161Y0159654D01*
X0051602Y0160736D02*
X0051209Y0161130D01*
X0051602Y0160736D02*
X0051602Y0155441D01*
X0047469Y0150598D02*
X0046976Y0150598D01*
X0047469Y0150598D02*
X0059083Y0138984D01*
X0059083Y0134535D01*
X0059280Y0134339D01*
X0061839Y0134339D02*
X0062035Y0134555D01*
X0062035Y0144398D01*
X0056720Y0134339D02*
X0056622Y0134240D01*
X0056622Y0131110D01*
X0057114Y0130618D01*
X0057114Y0123236D01*
X0056622Y0117823D02*
X0048748Y0117823D01*
X0048748Y0116346D01*
X0032016Y0099614D01*
X0029063Y0096661D01*
X0027488Y0096661D01*
X0027488Y0094693D02*
X0030638Y0094693D01*
X0031031Y0093807D01*
X0027488Y0092724D02*
X0023650Y0092724D01*
X0022665Y0093709D01*
X0022665Y0097646D01*
X0024142Y0099122D01*
X0028079Y0099122D01*
X0031031Y0102075D01*
X0031031Y0106504D01*
X0046287Y0121760D01*
X0048748Y0117823D02*
X0048748Y0129142D01*
X0042843Y0129142D01*
X0041366Y0130618D01*
X0041366Y0134339D01*
X0038906Y0134240D02*
X0038807Y0134339D01*
X0038906Y0134240D02*
X0038906Y0130618D01*
X0031031Y0122744D01*
X0030539Y0122744D01*
X0024634Y0125205D02*
X0015776Y0125205D01*
X0014299Y0126681D01*
X0014299Y0138000D01*
X0016268Y0139969D01*
X0016760Y0139969D01*
X0017350Y0140461D01*
X0023650Y0139969D02*
X0023650Y0136524D01*
X0023157Y0136524D01*
X0023650Y0139969D02*
X0024043Y0140461D01*
X0024043Y0149319D02*
X0024043Y0155126D01*
X0032508Y0163591D01*
X0044319Y0163591D01*
X0046287Y0161622D01*
X0046287Y0161130D01*
X0043925Y0155441D02*
X0043827Y0155224D01*
X0043827Y0151287D01*
X0041858Y0149319D01*
X0041858Y0143413D01*
X0039398Y0145874D02*
X0033492Y0139969D01*
X0033492Y0134555D01*
X0033689Y0134339D01*
X0033492Y0134063D01*
X0024634Y0125205D01*
X0017744Y0127665D02*
X0041366Y0151287D01*
X0041366Y0155441D01*
X0038906Y0155539D02*
X0038807Y0155441D01*
X0038906Y0155539D02*
X0038906Y0159654D01*
X0039398Y0160146D01*
X0039398Y0160638D01*
X0036445Y0160638D02*
X0036445Y0155736D01*
X0036248Y0155441D01*
X0033689Y0155441D02*
X0033492Y0155224D01*
X0033492Y0153256D01*
X0035461Y0151287D01*
X0037429Y0151287D01*
X0044319Y0146366D02*
X0045795Y0146366D01*
X0044319Y0146366D02*
X0044319Y0137508D01*
X0043827Y0137016D01*
X0043827Y0134437D01*
X0043925Y0134339D01*
X0046484Y0134339D02*
X0046780Y0134555D01*
X0046780Y0138492D01*
X0049240Y0140953D02*
X0049240Y0134535D01*
X0049043Y0134339D01*
X0051602Y0134339D02*
X0051701Y0134437D01*
X0051701Y0138984D01*
X0054161Y0134339D02*
X0054161Y0130126D01*
X0053177Y0129142D01*
X0048748Y0129142D01*
X0036445Y0134535D02*
X0036248Y0134339D01*
X0036445Y0134535D02*
X0036445Y0138492D01*
X0035953Y0138984D01*
X0017744Y0127665D02*
X0016760Y0127665D01*
X0046780Y0095185D02*
X0052193Y0095185D01*
X0064496Y0082882D01*
X0064496Y0079417D01*
X0064693Y0079220D01*
X0067252Y0079220D02*
X0067449Y0079437D01*
X0067449Y0089772D01*
X0066957Y0089772D01*
X0067449Y0089772D02*
X0067449Y0097154D01*
X0062528Y0104535D02*
X0063020Y0105028D01*
X0073846Y0105028D01*
X0078768Y0100106D01*
X0046780Y0079220D02*
X0046780Y0075008D01*
X0047026Y0074762D01*
X0039102Y0079220D02*
X0038906Y0079929D01*
X0038906Y0087311D01*
X0038413Y0086819D01*
X0027488Y0086819D01*
X0027488Y0088787D02*
X0023157Y0088787D01*
X0022665Y0089280D01*
X0021189Y0089280D01*
X0027488Y0090756D02*
X0034476Y0090756D01*
X0036445Y0092724D01*
X0038906Y0089772D02*
X0038906Y0087311D01*
X0038906Y0079437D02*
X0039102Y0079220D01*
X0037429Y0068118D02*
X0029555Y0068118D01*
X0016858Y0030224D02*
X0016268Y0029732D01*
X0015283Y0029732D01*
D20*
X0016858Y0030224D02*
X0016957Y0030323D01*
X0016957Y0039083D01*
X0023157Y0039083D02*
X0023157Y0030618D01*
X0023551Y0030224D01*
X0023650Y0039083D02*
X0023157Y0039083D01*
X0077882Y0084850D02*
X0077882Y0093709D01*
X0084575Y0093709D02*
X0084575Y0089280D01*
X0084575Y0084850D01*
X0093630Y0084850D02*
X0093630Y0089280D01*
X0093630Y0093709D01*
X0100323Y0093709D02*
X0100323Y0084850D01*
X0154654Y0038591D02*
X0154654Y0029732D01*
X0161346Y0029732D02*
X0161346Y0038591D01*
X0162331Y0139969D02*
X0162331Y0148827D01*
X0155638Y0148827D02*
X0155638Y0143906D01*
X0155638Y0139969D01*
X0024043Y0140461D02*
X0024043Y0149319D01*
X0017350Y0149319D02*
X0017350Y0140461D01*
M02*
