G75*
%MOIN*%
%OFA0B0*%
%FSLAX25Y25*%
%IPPOS*%
%LPD*%
%AMOC8*
5,1,8,0,0,1.08239X$1,22.5*
%
%ADD10C,0.03556*%
%ADD11C,0.04800*%
%ADD12R,0.01784X0.16548*%
%ADD13R,0.16548X0.01784*%
D10*
X0010854Y0013492D03*
X0089102Y0050894D03*
X0167350Y0013492D03*
X0089102Y0133079D03*
X0167350Y0169988D03*
X0010854Y0169988D03*
D11*
X0015323Y0150598D03*
X0025087Y0150598D03*
X0042882Y0150598D03*
X0052646Y0150598D03*
X0070441Y0150598D03*
X0080205Y0150598D03*
X0098000Y0150598D03*
X0107764Y0150598D03*
X0125559Y0150598D03*
X0135323Y0150598D03*
X0153118Y0150598D03*
X0162882Y0150598D03*
X0162882Y0123039D03*
X0153118Y0123039D03*
X0135323Y0123039D03*
X0125559Y0123039D03*
X0107764Y0123039D03*
X0098000Y0123039D03*
X0080205Y0123039D03*
X0070441Y0123039D03*
X0052646Y0123039D03*
X0042882Y0123039D03*
X0025087Y0123039D03*
X0015323Y0123039D03*
X0015323Y0095480D03*
X0025087Y0095480D03*
X0042882Y0095480D03*
X0052646Y0095480D03*
X0070441Y0095480D03*
X0080205Y0095480D03*
X0098000Y0095480D03*
X0107764Y0095480D03*
X0125559Y0095480D03*
X0135323Y0095480D03*
X0153118Y0095480D03*
X0162882Y0095480D03*
X0162882Y0067921D03*
X0153118Y0067921D03*
X0135323Y0067921D03*
X0125559Y0067921D03*
X0107764Y0067921D03*
X0098000Y0067921D03*
X0080205Y0067921D03*
X0070441Y0067921D03*
X0052646Y0067921D03*
X0042882Y0067921D03*
X0025087Y0067921D03*
X0015323Y0067921D03*
X0015323Y0040362D03*
X0025087Y0040362D03*
X0042882Y0040362D03*
X0052646Y0040362D03*
X0070441Y0040362D03*
X0080205Y0040362D03*
X0098000Y0040362D03*
X0107764Y0040362D03*
X0125559Y0040362D03*
X0135323Y0040362D03*
X0153118Y0040362D03*
X0162882Y0040362D03*
X0162882Y0012803D03*
X0153118Y0012803D03*
X0135323Y0012803D03*
X0125559Y0012803D03*
X0107764Y0012803D03*
X0098000Y0012803D03*
X0080205Y0012803D03*
X0070441Y0012803D03*
X0052646Y0012803D03*
X0042882Y0012803D03*
X0025087Y0012803D03*
X0015323Y0012803D03*
D12*
X0084181Y0182291D03*
X0086150Y0182291D03*
X0088118Y0182291D03*
X0090087Y0182291D03*
X0092055Y0182291D03*
X0094024Y0182291D03*
D13*
X0179654Y0096661D03*
X0179654Y0094693D03*
X0179654Y0092724D03*
X0179654Y0090756D03*
X0179654Y0088787D03*
X0179654Y0086819D03*
M02*
