%
M48
M72
T01C0.00787
T02C0.02756
%
T01
X17744Y15953
X29555Y13000
X40382Y17429
X48748Y19890
X51701Y28748
X49240Y31701
X46780Y37606
X40382Y30717
X39398Y35146
X35953Y38591
X31031Y43512
X35953Y50402
X39398Y50894
X46287Y53846
X35953Y65657
X29555Y68118
X41858Y83866
X42350Y86819
X48256Y83374
X51209Y83374
X53669Y85343
X57114Y84358
X54161Y89772
X59575Y92724
X64496Y94693
X66957Y89772
X78768Y100106
X95008Y117823
X101898Y120283
X100913Y126189
X112232Y123728
X113709Y134555
X118630Y138984
X122567Y138492
X129949Y144890
X128965Y148335
X130933Y150303
X135854Y145382
X131917Y139476
X134378Y129142
X139791Y123728
X130441Y113394
X127980Y107488
X134378Y107980
X146681Y105028
X148157Y96661
X148157Y92232
X141760Y87311
X138315Y87311
X136839Y83866
X131425Y85835
X129457Y83866
X125520Y83374
X126504Y88787
X129457Y96169
X121583Y96169
X113709Y105028
X116661Y106012
X108787Y99122
X111740Y96169
X113709Y84358
X119614Y71563
X121091Y66642
X112724Y68118
X100913Y71563
X91563Y65657
X91071Y62705
X83689Y63197
X86150Y54831
X79752Y44496
X76307Y44496
X80736Y36622
X82705Y33669
X86150Y33669
X88118Y24811
X86642Y19890
X96976Y30224
X101898Y35146
X111248Y32685
X110264Y27764
X119122Y28256
X123059Y28256
X120598Y32193
X131917Y30717
X134378Y28748
X138315Y36130
X141760Y39575
X149142Y44004
X148157Y54831
X146189Y59752
X139299Y68118
X131917Y75008
X137331Y92232
X140283Y92232
X159476Y90264
X162921Y87803
X167843Y84850
X165874Y92724
X167843Y95677
X167843Y99122
X158492Y67134
X137823Y49909
X132409Y49417
X123551Y49417
X118630Y50402
X130441Y40067
X139299Y13492
X112724Y13000
X67941Y27272
X59083Y39575
X55146Y36130
X35953Y28748
X57114Y13000
X61543Y13000
X61051Y63197
X57114Y68118
X51209Y71563
X59575Y75008
X46780Y95185
X41858Y104535
X44811Y106012
X47272Y108965
X56622Y117823
X57114Y123236
X46287Y121760
X59575Y107980
X36445Y92724
X31031Y93807
X32016Y99614
X31031Y102075
X30539Y122744
X23157Y136524
X16760Y127665
X35953Y138984
X41858Y143413
X39398Y145874
X37429Y151287
X36445Y160638
X39398Y160638
X46976Y150598
X45795Y146366
X49240Y140953
X51701Y138984
X46780Y138492
X59083Y150303
X62035Y151287
X62035Y144398
X75815Y150303
X82213Y159654
X85657Y161130
X89102Y167528
X92055Y167035
X93039Y163098
X95992Y161130
X87626Y147350
X89594Y145382
X111740Y149319
X119122Y160638
X122567Y161130
X121091Y166051
X126996Y163591
X141760Y150303
X155539Y143906
X155539Y158177
X156031Y162114
X88610Y80913
X86150Y76484
X54161Y159654
T02
X10854Y13492
X89102Y50894
X167350Y13492
X89102Y133079
X167350Y169988
X10854Y169988
M30
