G75*
%MOIN*%
%OFA0B0*%
%FSLAX25Y25*%
%IPPOS*%
%LPD*%
%AMOC8*
5,1,8,0,0,1.08239X$1,22.5*
%
%ADD10C,0.03556*%
%ADD11R,0.05131X0.04737*%
%ADD12R,0.02178X0.05524*%
%ADD13R,0.09449X0.08661*%
%ADD14R,0.05118X0.03346*%
%ADD15R,0.01378X0.03346*%
%ADD16R,0.08661X0.09449*%
%ADD17R,0.03346X0.05118*%
%ADD18R,0.03346X0.01378*%
D10*
X0010854Y0013492D03*
X0089102Y0050894D03*
X0167350Y0013492D03*
X0089102Y0133079D03*
X0167350Y0169988D03*
X0010854Y0169988D03*
D11*
X0017350Y0149319D03*
X0024043Y0149319D03*
X0024043Y0140461D03*
X0017350Y0140461D03*
X0077882Y0093709D03*
X0084575Y0093709D03*
X0084575Y0084850D03*
X0077882Y0084850D03*
X0093630Y0084850D03*
X0100323Y0084850D03*
X0100323Y0093709D03*
X0093630Y0093709D03*
X0154654Y0038591D03*
X0161346Y0038591D03*
X0161346Y0029732D03*
X0154654Y0029732D03*
X0155638Y0139969D03*
X0162331Y0139969D03*
X0162331Y0148827D03*
X0155638Y0148827D03*
X0023650Y0039083D03*
X0016957Y0039083D03*
X0016858Y0030224D03*
X0023551Y0030224D03*
D12*
X0033689Y0024102D03*
X0036248Y0024102D03*
X0038807Y0024102D03*
X0041366Y0024102D03*
X0043925Y0024102D03*
X0046484Y0024102D03*
X0049043Y0024102D03*
X0051602Y0024102D03*
X0054161Y0024102D03*
X0056720Y0024102D03*
X0059280Y0024102D03*
X0061839Y0024102D03*
X0061839Y0045205D03*
X0059280Y0045205D03*
X0056720Y0045205D03*
X0054161Y0045205D03*
X0051602Y0045205D03*
X0049043Y0045205D03*
X0046484Y0045205D03*
X0043925Y0045205D03*
X0041366Y0045205D03*
X0038807Y0045205D03*
X0036248Y0045205D03*
X0033689Y0045205D03*
X0039102Y0079220D03*
X0041661Y0079220D03*
X0044220Y0079220D03*
X0046780Y0079220D03*
X0049339Y0079220D03*
X0051898Y0079220D03*
X0054457Y0079220D03*
X0057016Y0079220D03*
X0059575Y0079220D03*
X0062134Y0079220D03*
X0064693Y0079220D03*
X0067252Y0079220D03*
X0067252Y0100323D03*
X0064693Y0100323D03*
X0062134Y0100323D03*
X0059575Y0100323D03*
X0057016Y0100323D03*
X0054457Y0100323D03*
X0051898Y0100323D03*
X0049339Y0100323D03*
X0046780Y0100323D03*
X0044220Y0100323D03*
X0041661Y0100323D03*
X0039102Y0100323D03*
X0038807Y0134339D03*
X0036248Y0134339D03*
X0033689Y0134339D03*
X0041366Y0134339D03*
X0043925Y0134339D03*
X0046484Y0134339D03*
X0049043Y0134339D03*
X0051602Y0134339D03*
X0054161Y0134339D03*
X0056720Y0134339D03*
X0059280Y0134339D03*
X0061839Y0134339D03*
X0061839Y0155441D03*
X0059280Y0155441D03*
X0056720Y0155441D03*
X0054161Y0155441D03*
X0051602Y0155441D03*
X0049043Y0155441D03*
X0046484Y0155441D03*
X0043925Y0155441D03*
X0041366Y0155441D03*
X0038807Y0155441D03*
X0036248Y0155441D03*
X0033689Y0155441D03*
X0111445Y0100323D03*
X0114004Y0100323D03*
X0116563Y0100323D03*
X0119122Y0100323D03*
X0121681Y0100323D03*
X0124240Y0100323D03*
X0126799Y0100323D03*
X0129358Y0100323D03*
X0131917Y0100323D03*
X0134476Y0100323D03*
X0137035Y0100323D03*
X0139594Y0100323D03*
X0139594Y0079220D03*
X0137035Y0079220D03*
X0134476Y0079220D03*
X0131917Y0079220D03*
X0129358Y0079220D03*
X0126799Y0079220D03*
X0124240Y0079220D03*
X0121681Y0079220D03*
X0119122Y0079220D03*
X0116563Y0079220D03*
X0114004Y0079220D03*
X0111445Y0079220D03*
X0116366Y0045205D03*
X0118925Y0045205D03*
X0121484Y0045205D03*
X0124043Y0045205D03*
X0126602Y0045205D03*
X0129161Y0045205D03*
X0131720Y0045205D03*
X0134280Y0045205D03*
X0136839Y0045205D03*
X0139398Y0045205D03*
X0141957Y0045205D03*
X0144516Y0045205D03*
X0144516Y0024102D03*
X0141957Y0024102D03*
X0139398Y0024102D03*
X0136839Y0024102D03*
X0134280Y0024102D03*
X0131720Y0024102D03*
X0129161Y0024102D03*
X0126602Y0024102D03*
X0124043Y0024102D03*
X0121484Y0024102D03*
X0118925Y0024102D03*
X0116366Y0024102D03*
X0116366Y0134339D03*
X0118925Y0134339D03*
X0121484Y0134339D03*
X0124043Y0134339D03*
X0126602Y0134339D03*
X0129161Y0134339D03*
X0131720Y0134339D03*
X0134280Y0134339D03*
X0136839Y0134339D03*
X0139398Y0134339D03*
X0141957Y0134339D03*
X0144516Y0134339D03*
X0144516Y0155441D03*
X0141957Y0155441D03*
X0139398Y0155441D03*
X0136839Y0155441D03*
X0134280Y0155441D03*
X0131720Y0155441D03*
X0129161Y0155441D03*
X0126602Y0155441D03*
X0124043Y0155441D03*
X0121484Y0155441D03*
X0118925Y0155441D03*
X0116366Y0155441D03*
D13*
X0103669Y0161228D03*
X0074535Y0161228D03*
X0074535Y0024220D03*
X0103669Y0024220D03*
D14*
X0101504Y0018217D03*
X0076701Y0018217D03*
X0076701Y0167232D03*
X0101504Y0167232D03*
D15*
X0094024Y0155323D03*
X0092055Y0155323D03*
X0090087Y0155323D03*
X0088118Y0155323D03*
X0086150Y0155323D03*
X0084181Y0155323D03*
X0084181Y0030126D03*
X0086150Y0030126D03*
X0088118Y0030126D03*
X0090087Y0030126D03*
X0092055Y0030126D03*
X0094024Y0030126D03*
D16*
X0158591Y0077173D03*
X0158591Y0106307D03*
X0021583Y0106307D03*
X0021583Y0077173D03*
D17*
X0015579Y0079339D03*
X0015579Y0104142D03*
X0164594Y0104142D03*
X0164594Y0079339D03*
D18*
X0152685Y0086819D03*
X0152685Y0088787D03*
X0152685Y0090756D03*
X0152685Y0092724D03*
X0152685Y0094693D03*
X0152685Y0096661D03*
X0027488Y0096661D03*
X0027488Y0094693D03*
X0027488Y0092724D03*
X0027488Y0090756D03*
X0027488Y0088787D03*
X0027488Y0086819D03*
M02*
