%
M48
M72
T01C0.01181
T02C0.03937
T03C0.07874
%
T01
X36591Y11635
X49386Y11635
X53815Y8190
X48402Y20001
X48402Y30335
X58736Y39194
X56768Y43623
X63657Y44115
X70547Y46576
X78913Y38702
X80390Y29351
X84327Y27875
X88756Y24430
X84327Y20985
X78913Y18032
X85311Y8682
X70055Y8190
X65134Y18032
X43972Y50020
X36591Y50020
X56276Y56910
X66610Y64292
X68579Y60847
X63657Y67245
X69071Y79548
X70055Y86930
X76453Y78072
X83835Y67245
X83835Y60355
X78913Y57402
X56276Y79056
X53323Y86930
X43972Y83977
X36591Y83977
X32161Y90867
X36591Y98249
X36591Y104646
X36591Y113505
X48402Y109076
X56276Y97757
X62673Y106123
X69071Y105631
X78913Y96280
X84327Y99233
X84327Y106123
X80882Y108091
X76453Y117442
X70055Y125808
X62181Y120394
X56177Y126103
X49878Y126300
X53815Y137619
X61197Y138111
X48402Y144509
X43972Y141556
X32654Y142048
X36591Y126300
X23303Y125316
X8047Y155335
X36591Y167639
X43480Y167639
X42988Y174036
X49386Y170591
X49386Y158780
X60213Y156812
X63657Y158780
X69563Y165178
X73500Y162225
X78913Y175513
X84327Y178465
X76945Y186339
X80882Y198150
X87280Y199135
X80390Y205040
X87280Y207009
X78913Y214883
X83835Y217835
X76945Y226202
X84819Y229154
X70055Y217343
X63657Y224233
X60213Y226202
X57752Y215867
X48402Y227186
X70547Y205040
X68579Y197658
X59228Y196182
X59720Y186831
X63657Y185355
X42988Y187816
X76453Y147461
X79406Y144509
X84327Y145493
X83835Y138603
X78913Y135650
X137476Y146969
X150764Y135650
X154701Y124331
X163067Y124331
X167988Y117442
X171925Y125316
X176846Y117442
X166512Y109076
X179307Y96280
X181276Y107107
X192102Y96280
X196531Y86438
X203421Y88406
X205390Y95296
X210803Y95296
X214740Y88406
X210803Y103662
X205390Y103662
X195055Y107107
X197024Y117442
X197024Y125808
X192594Y125808
X188165Y125808
X188165Y136143
X180783Y145493
X179307Y136143
X166512Y135650
X161098Y157304
X162083Y167146
X161098Y174036
X154701Y167146
X161098Y186831
X167004Y195198
X161591Y202087
X154701Y198643
X171925Y205040
X176846Y196182
X187181Y205040
X190134Y201103
X197024Y196182
X195055Y185355
X205390Y183879
X205390Y177481
X205390Y165670
X197024Y165670
X197024Y156812
X195055Y146969
X205390Y144017
X210803Y144017
X205390Y135650
X210803Y131713
X201945Y125808
X222122Y133190
X222122Y140080
X230488Y165670
X187181Y162717
X176846Y159272
X181768Y184863
X205390Y209961
X197024Y214391
X192102Y215867
X187181Y223741
X180783Y218820
X176354Y220788
X166020Y228170
X143874Y216851
X198992Y225709
X207358Y226202
X218677Y230631
X166512Y95296
X166512Y88406
X176846Y80532
X187181Y83485
X197024Y78072
X194563Y66753
X183736Y57894
X181276Y67245
X170449Y59863
X173894Y56910
X167004Y64292
X162083Y49528
X154701Y49528
X167496Y38702
X176846Y39686
X181768Y43623
X187181Y44607
X197024Y47068
X197024Y38702
X194563Y27383
X205390Y27383
X205390Y20001
X204406Y13111
X197516Y8190
X188165Y8190
X171433Y19017
X167004Y23446
X173894Y26398
X167496Y11635
X154701Y11635
X150764Y19017
X205390Y57402
X205390Y66753
X154701Y88406
X42988Y69706
T02
X6571Y5237
X234917Y5237
X234917Y233583
X6571Y233583
T03
X120744Y217835
X120744Y119410
X120744Y20985
M30
