G75*
%MOIN*%
%OFA0B0*%
%FSLAX25Y25*%
%IPPOS*%
%LPD*%
%AMOC8*
5,1,8,0,0,1.08239X$1,22.5*
%
%ADD10C,0.00400*%
%ADD11C,0.00600*%
%ADD12C,0.00500*%
D10*
X0039080Y0013378D02*
X0039080Y0014046D01*
X0039413Y0014379D01*
X0039080Y0015255D02*
X0039080Y0016589D01*
X0039080Y0015922D02*
X0041081Y0015922D01*
X0040414Y0015255D01*
X0040748Y0014379D02*
X0041081Y0014046D01*
X0041081Y0013378D01*
X0040748Y0013045D01*
X0039413Y0013045D01*
X0039080Y0013378D01*
X0039212Y0029206D02*
X0038879Y0029540D01*
X0038879Y0030207D01*
X0039212Y0030541D01*
X0038879Y0031416D02*
X0040213Y0032751D01*
X0040547Y0032751D01*
X0040880Y0032417D01*
X0040880Y0031750D01*
X0040547Y0031416D01*
X0040547Y0030541D02*
X0040880Y0030207D01*
X0040880Y0029540D01*
X0040547Y0029206D01*
X0039212Y0029206D01*
X0038879Y0031416D02*
X0038879Y0032751D01*
X0085294Y0030110D02*
X0085294Y0028775D01*
X0085294Y0029443D02*
X0087296Y0029443D01*
X0086629Y0028775D01*
X0086963Y0027900D02*
X0086295Y0027900D01*
X0085962Y0027566D01*
X0085962Y0026565D01*
X0085294Y0026565D02*
X0087296Y0026565D01*
X0087296Y0027566D01*
X0086963Y0027900D01*
X0085962Y0027233D02*
X0085294Y0027900D01*
X0085628Y0025690D02*
X0085294Y0025356D01*
X0085294Y0024356D01*
X0087296Y0024356D01*
X0087296Y0025356D01*
X0086963Y0025690D01*
X0086629Y0025690D01*
X0086295Y0025356D01*
X0086295Y0024356D01*
X0086295Y0023480D02*
X0086295Y0022146D01*
X0085294Y0022146D02*
X0087296Y0022146D01*
X0087296Y0023480D02*
X0085294Y0023480D01*
X0086295Y0025356D02*
X0085962Y0025690D01*
X0085628Y0025690D01*
X0085294Y0061516D02*
X0087296Y0061516D01*
X0086295Y0061516D02*
X0086295Y0062850D01*
X0086295Y0063726D02*
X0086295Y0064726D01*
X0085962Y0065060D01*
X0085628Y0065060D01*
X0085294Y0064726D01*
X0085294Y0063726D01*
X0087296Y0063726D01*
X0087296Y0064726D01*
X0086963Y0065060D01*
X0086629Y0065060D01*
X0086295Y0064726D01*
X0085962Y0065936D02*
X0085962Y0066936D01*
X0086295Y0067270D01*
X0086963Y0067270D01*
X0087296Y0066936D01*
X0087296Y0065936D01*
X0085294Y0065936D01*
X0085962Y0066603D02*
X0085294Y0067270D01*
X0085294Y0068145D02*
X0086629Y0069480D01*
X0086963Y0069480D01*
X0087296Y0069146D01*
X0087296Y0068479D01*
X0086963Y0068145D01*
X0085294Y0068145D02*
X0085294Y0069480D01*
X0085294Y0062850D02*
X0087296Y0062850D01*
X0087296Y0101886D02*
X0085294Y0101886D01*
X0086295Y0101886D02*
X0086295Y0103220D01*
X0086295Y0104096D02*
X0086295Y0105097D01*
X0085962Y0105430D01*
X0085628Y0105430D01*
X0085294Y0105097D01*
X0085294Y0104096D01*
X0087296Y0104096D01*
X0087296Y0105097D01*
X0086963Y0105430D01*
X0086629Y0105430D01*
X0086295Y0105097D01*
X0085962Y0106306D02*
X0085962Y0107306D01*
X0086295Y0107640D01*
X0086963Y0107640D01*
X0087296Y0107306D01*
X0087296Y0106306D01*
X0085294Y0106306D01*
X0085962Y0106973D02*
X0085294Y0107640D01*
X0085628Y0108515D02*
X0085294Y0108849D01*
X0085294Y0109516D01*
X0085628Y0109850D01*
X0085962Y0109850D01*
X0086295Y0109516D01*
X0086295Y0109183D01*
X0086295Y0109516D02*
X0086629Y0109850D01*
X0086963Y0109850D01*
X0087296Y0109516D01*
X0087296Y0108849D01*
X0086963Y0108515D01*
X0087296Y0103220D02*
X0085294Y0103220D01*
X0085294Y0140256D02*
X0087296Y0140256D01*
X0086295Y0140256D02*
X0086295Y0141590D01*
X0086295Y0142466D02*
X0086295Y0143467D01*
X0085962Y0143800D01*
X0085628Y0143800D01*
X0085294Y0143467D01*
X0085294Y0142466D01*
X0087296Y0142466D01*
X0087296Y0143467D01*
X0086963Y0143800D01*
X0086629Y0143800D01*
X0086295Y0143467D01*
X0085962Y0144676D02*
X0085962Y0145677D01*
X0086295Y0146010D01*
X0086963Y0146010D01*
X0087296Y0145677D01*
X0087296Y0144676D01*
X0085294Y0144676D01*
X0085962Y0145343D02*
X0085294Y0146010D01*
X0085294Y0146886D02*
X0085294Y0148220D01*
X0085294Y0147553D02*
X0087296Y0147553D01*
X0086629Y0146886D01*
X0086963Y0149095D02*
X0087296Y0149429D01*
X0087296Y0150096D01*
X0086963Y0150430D01*
X0085628Y0149095D01*
X0085294Y0149429D01*
X0085294Y0150096D01*
X0085628Y0150430D01*
X0086963Y0150430D01*
X0086963Y0149095D02*
X0085628Y0149095D01*
X0085294Y0141590D02*
X0087296Y0141590D01*
X0087296Y0179626D02*
X0085294Y0179626D01*
X0086295Y0179626D02*
X0086295Y0180960D01*
X0086295Y0181836D02*
X0086295Y0182837D01*
X0085962Y0183170D01*
X0085628Y0183170D01*
X0085294Y0182837D01*
X0085294Y0181836D01*
X0087296Y0181836D01*
X0087296Y0182837D01*
X0086963Y0183170D01*
X0086629Y0183170D01*
X0086295Y0182837D01*
X0085962Y0184046D02*
X0085962Y0185047D01*
X0086295Y0185380D01*
X0086963Y0185380D01*
X0087296Y0185047D01*
X0087296Y0184046D01*
X0085294Y0184046D01*
X0085962Y0184713D02*
X0085294Y0185380D01*
X0085294Y0186256D02*
X0085294Y0187590D01*
X0085294Y0186923D02*
X0087296Y0186923D01*
X0086629Y0186256D01*
X0086629Y0188466D02*
X0087296Y0189133D01*
X0085294Y0189133D01*
X0085294Y0188466D02*
X0085294Y0189800D01*
X0085294Y0180960D02*
X0087296Y0180960D01*
X0087296Y0219996D02*
X0085294Y0219996D01*
X0086295Y0219996D02*
X0086295Y0221331D01*
X0086295Y0222206D02*
X0086295Y0223207D01*
X0085962Y0223540D01*
X0085628Y0223540D01*
X0085294Y0223207D01*
X0085294Y0222206D01*
X0087296Y0222206D01*
X0087296Y0223207D01*
X0086963Y0223540D01*
X0086629Y0223540D01*
X0086295Y0223207D01*
X0085962Y0224416D02*
X0085962Y0225417D01*
X0086295Y0225750D01*
X0086963Y0225750D01*
X0087296Y0225417D01*
X0087296Y0224416D01*
X0085294Y0224416D01*
X0085962Y0225083D02*
X0085294Y0225750D01*
X0085294Y0226626D02*
X0085294Y0227960D01*
X0085294Y0227293D02*
X0087296Y0227293D01*
X0086629Y0226626D01*
X0086963Y0228836D02*
X0087296Y0229169D01*
X0087296Y0229836D01*
X0086963Y0230170D01*
X0086629Y0230170D01*
X0085294Y0228836D01*
X0085294Y0230170D01*
X0085294Y0221331D02*
X0087296Y0221331D01*
X0040880Y0223787D02*
X0040547Y0223453D01*
X0039212Y0223453D01*
X0038879Y0223787D01*
X0038879Y0224454D01*
X0039212Y0224787D01*
X0038879Y0225663D02*
X0038879Y0226997D01*
X0038879Y0226330D02*
X0040880Y0226330D01*
X0040213Y0225663D01*
X0040547Y0224787D02*
X0040880Y0224454D01*
X0040880Y0223787D01*
X0039880Y0227873D02*
X0039880Y0228874D01*
X0039546Y0229207D01*
X0039212Y0229207D01*
X0038879Y0228874D01*
X0038879Y0228206D01*
X0039212Y0227873D01*
X0039880Y0227873D01*
X0040547Y0228540D01*
X0040880Y0229207D01*
X0040880Y0213853D02*
X0040880Y0212518D01*
X0039880Y0212518D01*
X0040213Y0213186D01*
X0040213Y0213519D01*
X0039880Y0213853D01*
X0039212Y0213853D01*
X0038879Y0213519D01*
X0038879Y0212852D01*
X0039212Y0212518D01*
X0038879Y0211643D02*
X0038879Y0210309D01*
X0038879Y0210976D02*
X0040880Y0210976D01*
X0040213Y0210309D01*
X0040547Y0209433D02*
X0040880Y0209100D01*
X0040880Y0208432D01*
X0040547Y0208099D01*
X0039212Y0208099D01*
X0038879Y0208432D01*
X0038879Y0209100D01*
X0039212Y0209433D01*
X0039880Y0150861D02*
X0039880Y0149526D01*
X0040880Y0150527D01*
X0038879Y0150527D01*
X0038879Y0148651D02*
X0038879Y0147316D01*
X0038879Y0147984D02*
X0040880Y0147984D01*
X0040213Y0147316D01*
X0040547Y0146441D02*
X0040880Y0146107D01*
X0040880Y0145440D01*
X0040547Y0145107D01*
X0039212Y0145107D01*
X0038879Y0145440D01*
X0038879Y0146107D01*
X0039212Y0146441D01*
X0039413Y0134699D02*
X0039080Y0134366D01*
X0039080Y0133699D01*
X0039413Y0133365D01*
X0039080Y0132489D02*
X0039080Y0131155D01*
X0039080Y0131822D02*
X0041081Y0131822D01*
X0040414Y0131155D01*
X0040748Y0130280D02*
X0041081Y0129946D01*
X0041081Y0129279D01*
X0040748Y0128945D01*
X0039413Y0128945D01*
X0039080Y0129279D01*
X0039080Y0129946D01*
X0039413Y0130280D01*
X0040748Y0133365D02*
X0041081Y0133699D01*
X0041081Y0134366D01*
X0040748Y0134699D01*
X0040414Y0134699D01*
X0040080Y0134366D01*
X0039747Y0134699D01*
X0039413Y0134699D01*
X0040080Y0134366D02*
X0040080Y0134032D01*
X0039880Y0111097D02*
X0039880Y0109763D01*
X0040880Y0110763D01*
X0038879Y0110763D01*
X0039212Y0108887D02*
X0038879Y0108554D01*
X0038879Y0107886D01*
X0039212Y0107553D01*
X0040547Y0107553D01*
X0040880Y0107886D01*
X0040880Y0108554D01*
X0040547Y0108887D01*
X0040547Y0095743D02*
X0040213Y0095743D01*
X0039880Y0095409D01*
X0039546Y0095743D01*
X0039212Y0095743D01*
X0038879Y0095409D01*
X0038879Y0094742D01*
X0039212Y0094408D01*
X0039212Y0093533D02*
X0038879Y0093199D01*
X0038879Y0092532D01*
X0039212Y0092198D01*
X0040547Y0092198D01*
X0040880Y0092532D01*
X0040880Y0093199D01*
X0040547Y0093533D01*
X0040547Y0094408D02*
X0040880Y0094742D01*
X0040880Y0095409D01*
X0040547Y0095743D01*
X0039880Y0095409D02*
X0039880Y0095075D01*
X0006357Y0092157D02*
X0006357Y0091156D01*
X0004355Y0091156D01*
X0004355Y0092157D01*
X0004689Y0092491D01*
X0006023Y0092491D01*
X0006357Y0092157D01*
X0006357Y0090281D02*
X0004355Y0090281D01*
X0006357Y0088946D01*
X0004355Y0088946D01*
X0004689Y0088071D02*
X0005356Y0088071D01*
X0005356Y0087404D01*
X0006023Y0088071D02*
X0006357Y0087737D01*
X0006357Y0087070D01*
X0006023Y0086736D01*
X0004689Y0086736D01*
X0004355Y0087070D01*
X0004355Y0087737D01*
X0004689Y0088071D01*
X0004689Y0099281D02*
X0004355Y0099615D01*
X0004355Y0100282D01*
X0004689Y0100615D01*
X0004689Y0101491D02*
X0004355Y0101825D01*
X0004355Y0102492D01*
X0004689Y0102825D01*
X0005022Y0102825D01*
X0005356Y0102492D01*
X0005356Y0101825D01*
X0005690Y0101491D01*
X0006023Y0101491D01*
X0006357Y0101825D01*
X0006357Y0102492D01*
X0006023Y0102825D01*
X0006023Y0100615D02*
X0006357Y0100282D01*
X0006357Y0099615D01*
X0006023Y0099281D01*
X0004689Y0099281D01*
X0004689Y0109768D02*
X0004355Y0110102D01*
X0004355Y0110769D01*
X0004689Y0111102D01*
X0005022Y0111102D01*
X0005356Y0110769D01*
X0005356Y0110102D01*
X0005690Y0109768D01*
X0006023Y0109768D01*
X0006357Y0110102D01*
X0006357Y0110769D01*
X0006023Y0111102D01*
X0006023Y0111978D02*
X0004689Y0111978D01*
X0004355Y0112311D01*
X0004355Y0112979D01*
X0004689Y0113312D01*
X0005022Y0114188D02*
X0006357Y0115522D01*
X0006357Y0114188D02*
X0004355Y0114188D01*
X0005356Y0114521D02*
X0004355Y0115522D01*
X0006023Y0113312D02*
X0006357Y0112979D01*
X0006357Y0112311D01*
X0006023Y0111978D01*
X0006357Y0122512D02*
X0004355Y0122512D01*
X0004355Y0123513D01*
X0004689Y0123847D01*
X0006023Y0123847D01*
X0006357Y0123513D01*
X0006357Y0122512D01*
X0006357Y0124722D02*
X0006357Y0125390D01*
X0006357Y0125056D02*
X0004355Y0125056D01*
X0004355Y0124722D02*
X0004355Y0125390D01*
X0004355Y0126196D02*
X0006357Y0126196D01*
X0004355Y0127530D01*
X0006357Y0127530D01*
X0006357Y0133882D02*
X0005022Y0133882D01*
X0004355Y0134549D01*
X0005022Y0135217D01*
X0006357Y0135217D01*
X0006023Y0136092D02*
X0004689Y0136092D01*
X0004355Y0136426D01*
X0004355Y0137093D01*
X0004689Y0137427D01*
X0004689Y0138302D02*
X0004355Y0138636D01*
X0004355Y0139303D01*
X0004689Y0139636D01*
X0004689Y0138302D02*
X0006023Y0138302D01*
X0006357Y0138636D01*
X0006357Y0139303D01*
X0006023Y0139636D01*
X0006023Y0137427D02*
X0006357Y0137093D01*
X0006357Y0136426D01*
X0006023Y0136092D01*
X0006357Y0147116D02*
X0005022Y0147116D01*
X0004355Y0147783D01*
X0005022Y0148450D01*
X0006357Y0148450D01*
X0005356Y0149326D02*
X0005356Y0150660D01*
X0006023Y0149993D02*
X0004689Y0149993D01*
X0156989Y0149860D02*
X0157323Y0149526D01*
X0158657Y0150861D01*
X0157323Y0150861D01*
X0156989Y0150527D01*
X0156989Y0149860D01*
X0157323Y0149526D02*
X0158657Y0149526D01*
X0158991Y0149860D01*
X0158991Y0150527D01*
X0158657Y0150861D01*
X0156989Y0148651D02*
X0156989Y0147316D01*
X0156989Y0147984D02*
X0158991Y0147984D01*
X0158323Y0147316D01*
X0158657Y0146441D02*
X0158991Y0146107D01*
X0158991Y0145440D01*
X0158657Y0145107D01*
X0157323Y0145107D01*
X0156989Y0145440D01*
X0156989Y0146107D01*
X0157323Y0146441D01*
X0157523Y0134699D02*
X0157190Y0134366D01*
X0157190Y0133699D01*
X0157523Y0133365D01*
X0158191Y0133699D02*
X0158191Y0134699D01*
X0158858Y0134699D02*
X0159191Y0134366D01*
X0159191Y0133699D01*
X0158858Y0133365D01*
X0158524Y0133365D01*
X0158191Y0133699D01*
X0157523Y0134699D02*
X0158858Y0134699D01*
X0158858Y0132490D02*
X0159191Y0132156D01*
X0159191Y0131489D01*
X0158858Y0131155D01*
X0157523Y0131155D01*
X0157190Y0131489D01*
X0157190Y0132156D01*
X0157523Y0132490D01*
X0157656Y0111097D02*
X0157323Y0111097D01*
X0156989Y0110763D01*
X0156989Y0110096D01*
X0157323Y0109763D01*
X0157656Y0109763D01*
X0157990Y0110096D01*
X0157990Y0110763D01*
X0157656Y0111097D01*
X0157990Y0110763D02*
X0158323Y0111097D01*
X0158657Y0111097D01*
X0158991Y0110763D01*
X0158991Y0110096D01*
X0158657Y0109763D01*
X0158323Y0109763D01*
X0157990Y0110096D01*
X0158657Y0108887D02*
X0158991Y0108554D01*
X0158991Y0107886D01*
X0158657Y0107553D01*
X0157323Y0107553D01*
X0156989Y0107886D01*
X0156989Y0108554D01*
X0157323Y0108887D01*
X0158657Y0095743D02*
X0157323Y0094408D01*
X0156989Y0094408D01*
X0157323Y0093533D02*
X0156989Y0093199D01*
X0156989Y0092532D01*
X0157323Y0092198D01*
X0158657Y0092198D01*
X0158991Y0092532D01*
X0158991Y0093199D01*
X0158657Y0093533D01*
X0158991Y0094408D02*
X0158991Y0095743D01*
X0158657Y0095743D01*
X0203405Y0101886D02*
X0205406Y0101886D01*
X0204406Y0101886D02*
X0204406Y0103220D01*
X0204406Y0104096D02*
X0204406Y0105097D01*
X0204072Y0105430D01*
X0203738Y0105430D01*
X0203405Y0105097D01*
X0203405Y0104096D01*
X0205406Y0104096D01*
X0205406Y0105097D01*
X0205073Y0105430D01*
X0204739Y0105430D01*
X0204406Y0105097D01*
X0204072Y0106306D02*
X0204072Y0107306D01*
X0204406Y0107640D01*
X0205073Y0107640D01*
X0205406Y0107306D01*
X0205406Y0106306D01*
X0203405Y0106306D01*
X0204072Y0106973D02*
X0203405Y0107640D01*
X0203738Y0108515D02*
X0203405Y0108849D01*
X0203405Y0109516D01*
X0203738Y0109850D01*
X0204072Y0109850D01*
X0204406Y0109516D01*
X0204406Y0108515D01*
X0203738Y0108515D01*
X0204406Y0108515D02*
X0205073Y0109183D01*
X0205406Y0109850D01*
X0205406Y0103220D02*
X0203405Y0103220D01*
X0235654Y0102984D02*
X0235654Y0102317D01*
X0235988Y0101983D01*
X0236655Y0102317D02*
X0236655Y0102984D01*
X0236322Y0103317D01*
X0235988Y0103317D01*
X0235654Y0102984D01*
X0236655Y0102317D02*
X0236989Y0101983D01*
X0237322Y0101983D01*
X0237656Y0102317D01*
X0237656Y0102984D01*
X0237322Y0103317D01*
X0237322Y0101108D02*
X0237656Y0100774D01*
X0237656Y0100107D01*
X0237322Y0099773D01*
X0235988Y0099773D01*
X0235654Y0100107D01*
X0235654Y0100774D01*
X0235988Y0101108D01*
X0235988Y0092983D02*
X0237322Y0092983D01*
X0237656Y0092649D01*
X0237656Y0091648D01*
X0235654Y0091648D01*
X0235654Y0092649D01*
X0235988Y0092983D01*
X0235654Y0090773D02*
X0237656Y0090773D01*
X0237656Y0089438D02*
X0235654Y0089438D01*
X0235988Y0088563D02*
X0236655Y0088563D01*
X0236655Y0087896D01*
X0235988Y0088563D02*
X0235654Y0088229D01*
X0235654Y0087562D01*
X0235988Y0087229D01*
X0237322Y0087229D01*
X0237656Y0087562D01*
X0237656Y0088229D01*
X0237322Y0088563D01*
X0237656Y0089438D02*
X0235654Y0090773D01*
X0235988Y0110260D02*
X0235654Y0110594D01*
X0235654Y0111261D01*
X0235988Y0111595D01*
X0236322Y0111595D01*
X0236655Y0111261D01*
X0236655Y0110594D01*
X0236989Y0110260D01*
X0237322Y0110260D01*
X0237656Y0110594D01*
X0237656Y0111261D01*
X0237322Y0111595D01*
X0237322Y0112470D02*
X0235988Y0112470D01*
X0235654Y0112804D01*
X0235654Y0113471D01*
X0235988Y0113804D01*
X0236322Y0114680D02*
X0237656Y0116014D01*
X0237656Y0114680D02*
X0235654Y0114680D01*
X0236655Y0115013D02*
X0235654Y0116014D01*
X0237322Y0113804D02*
X0237656Y0113471D01*
X0237656Y0112804D01*
X0237322Y0112470D01*
X0237656Y0120058D02*
X0235654Y0120058D01*
X0235654Y0121059D01*
X0235988Y0121393D01*
X0237322Y0121393D01*
X0237656Y0121059D01*
X0237656Y0120058D01*
X0237322Y0122268D02*
X0235988Y0122268D01*
X0235654Y0122602D01*
X0235654Y0123269D01*
X0235988Y0123602D01*
X0237322Y0123602D01*
X0237656Y0123269D01*
X0237656Y0122602D01*
X0237322Y0122268D01*
X0237656Y0124478D02*
X0235988Y0124478D01*
X0235654Y0124811D01*
X0235654Y0125479D01*
X0235988Y0125812D01*
X0237656Y0125812D01*
X0237656Y0126688D02*
X0237656Y0128022D01*
X0237656Y0127355D02*
X0235654Y0127355D01*
X0236322Y0134374D02*
X0235654Y0135042D01*
X0236322Y0135709D01*
X0237656Y0135709D01*
X0237322Y0136584D02*
X0235988Y0136584D01*
X0235654Y0136918D01*
X0235654Y0137585D01*
X0235988Y0137919D01*
X0235988Y0138794D02*
X0235654Y0139128D01*
X0235654Y0139795D01*
X0235988Y0140129D01*
X0237322Y0140129D02*
X0237656Y0139795D01*
X0237656Y0139128D01*
X0237322Y0138794D01*
X0235988Y0138794D01*
X0237322Y0137919D02*
X0237656Y0137585D01*
X0237656Y0136918D01*
X0237322Y0136584D01*
X0237656Y0134374D02*
X0236322Y0134374D01*
X0236322Y0147608D02*
X0235654Y0148275D01*
X0236322Y0148942D01*
X0237656Y0148942D01*
X0236655Y0149818D02*
X0236655Y0151152D01*
X0237322Y0150485D02*
X0235988Y0150485D01*
X0236322Y0147608D02*
X0237656Y0147608D01*
X0205406Y0148220D02*
X0205406Y0146886D01*
X0205073Y0146010D02*
X0204406Y0146010D01*
X0204072Y0145677D01*
X0204072Y0144676D01*
X0204072Y0145343D02*
X0203405Y0146010D01*
X0203405Y0146886D02*
X0203738Y0146886D01*
X0205073Y0148220D01*
X0205406Y0148220D01*
X0205073Y0146010D02*
X0205406Y0145677D01*
X0205406Y0144676D01*
X0203405Y0144676D01*
X0203738Y0143800D02*
X0203405Y0143467D01*
X0203405Y0142466D01*
X0205406Y0142466D01*
X0205406Y0143467D01*
X0205073Y0143800D01*
X0204739Y0143800D01*
X0204406Y0143467D01*
X0204406Y0142466D01*
X0204406Y0141590D02*
X0204406Y0140256D01*
X0205406Y0140256D02*
X0203405Y0140256D01*
X0203405Y0141590D02*
X0205406Y0141590D01*
X0204406Y0143467D02*
X0204072Y0143800D01*
X0203738Y0143800D01*
X0203405Y0179626D02*
X0205406Y0179626D01*
X0204406Y0179626D02*
X0204406Y0180960D01*
X0204406Y0181836D02*
X0204406Y0182837D01*
X0204072Y0183170D01*
X0203738Y0183170D01*
X0203405Y0182837D01*
X0203405Y0181836D01*
X0205406Y0181836D01*
X0205406Y0182837D01*
X0205073Y0183170D01*
X0204739Y0183170D01*
X0204406Y0182837D01*
X0204072Y0184046D02*
X0204072Y0185047D01*
X0204406Y0185380D01*
X0205073Y0185380D01*
X0205406Y0185047D01*
X0205406Y0184046D01*
X0203405Y0184046D01*
X0204072Y0184713D02*
X0203405Y0185380D01*
X0203738Y0186256D02*
X0204072Y0186256D01*
X0204406Y0186589D01*
X0204406Y0187256D01*
X0204072Y0187590D01*
X0203738Y0187590D01*
X0203405Y0187256D01*
X0203405Y0186589D01*
X0203738Y0186256D01*
X0204406Y0186589D02*
X0204739Y0186256D01*
X0205073Y0186256D01*
X0205406Y0186589D01*
X0205406Y0187256D01*
X0205073Y0187590D01*
X0204739Y0187590D01*
X0204406Y0187256D01*
X0205406Y0180960D02*
X0203405Y0180960D01*
X0203405Y0219996D02*
X0205406Y0219996D01*
X0204406Y0219996D02*
X0204406Y0221331D01*
X0204406Y0222206D02*
X0204406Y0223207D01*
X0204072Y0223540D01*
X0203738Y0223540D01*
X0203405Y0223207D01*
X0203405Y0222206D01*
X0205406Y0222206D01*
X0205406Y0223207D01*
X0205073Y0223540D01*
X0204739Y0223540D01*
X0204406Y0223207D01*
X0204072Y0224416D02*
X0204072Y0225417D01*
X0204406Y0225750D01*
X0205073Y0225750D01*
X0205406Y0225417D01*
X0205406Y0224416D01*
X0203405Y0224416D01*
X0204072Y0225083D02*
X0203405Y0225750D01*
X0203738Y0226626D02*
X0203405Y0226959D01*
X0203405Y0227627D01*
X0203738Y0227960D01*
X0205073Y0227960D01*
X0205406Y0227627D01*
X0205406Y0226959D01*
X0205073Y0226626D01*
X0204739Y0226626D01*
X0204406Y0226959D01*
X0204406Y0227960D01*
X0205406Y0221331D02*
X0203405Y0221331D01*
X0158991Y0223787D02*
X0158657Y0223453D01*
X0157323Y0223453D01*
X0156989Y0223787D01*
X0156989Y0224454D01*
X0157323Y0224787D01*
X0156989Y0225663D02*
X0156989Y0226997D01*
X0156989Y0226330D02*
X0158991Y0226330D01*
X0158323Y0225663D01*
X0158657Y0224787D02*
X0158991Y0224454D01*
X0158991Y0223787D01*
X0158657Y0227873D02*
X0158991Y0228206D01*
X0158991Y0228874D01*
X0158657Y0229207D01*
X0158323Y0229207D01*
X0156989Y0227873D01*
X0156989Y0229207D01*
X0156989Y0213853D02*
X0156989Y0212518D01*
X0156989Y0213186D02*
X0158991Y0213186D01*
X0158323Y0212518D01*
X0156989Y0211643D02*
X0156989Y0210309D01*
X0156989Y0210976D02*
X0158991Y0210976D01*
X0158323Y0210309D01*
X0158657Y0209433D02*
X0158991Y0209100D01*
X0158991Y0208432D01*
X0158657Y0208099D01*
X0157323Y0208099D01*
X0156989Y0208432D01*
X0156989Y0209100D01*
X0157323Y0209433D01*
X0203738Y0069480D02*
X0203405Y0069146D01*
X0203405Y0068479D01*
X0203738Y0068145D01*
X0204406Y0068145D02*
X0204739Y0068813D01*
X0204739Y0069146D01*
X0204406Y0069480D01*
X0203738Y0069480D01*
X0204406Y0068145D02*
X0205406Y0068145D01*
X0205406Y0069480D01*
X0205073Y0067270D02*
X0204406Y0067270D01*
X0204072Y0066936D01*
X0204072Y0065936D01*
X0204072Y0066603D02*
X0203405Y0067270D01*
X0203405Y0065936D02*
X0205406Y0065936D01*
X0205406Y0066936D01*
X0205073Y0067270D01*
X0205073Y0065060D02*
X0204739Y0065060D01*
X0204406Y0064726D01*
X0204406Y0063726D01*
X0204406Y0062850D02*
X0204406Y0061516D01*
X0205406Y0061516D02*
X0203405Y0061516D01*
X0203405Y0062850D02*
X0205406Y0062850D01*
X0205406Y0063726D02*
X0205406Y0064726D01*
X0205073Y0065060D01*
X0204406Y0064726D02*
X0204072Y0065060D01*
X0203738Y0065060D01*
X0203405Y0064726D01*
X0203405Y0063726D01*
X0205406Y0063726D01*
X0204406Y0030110D02*
X0204406Y0028775D01*
X0205406Y0029776D01*
X0203405Y0029776D01*
X0203405Y0027900D02*
X0204072Y0027233D01*
X0204072Y0027566D02*
X0204072Y0026565D01*
X0203405Y0026565D02*
X0205406Y0026565D01*
X0205406Y0027566D01*
X0205073Y0027900D01*
X0204406Y0027900D01*
X0204072Y0027566D01*
X0204072Y0025690D02*
X0203738Y0025690D01*
X0203405Y0025356D01*
X0203405Y0024356D01*
X0205406Y0024356D01*
X0205406Y0025356D01*
X0205073Y0025690D01*
X0204739Y0025690D01*
X0204406Y0025356D01*
X0204406Y0024356D01*
X0204406Y0023480D02*
X0204406Y0022146D01*
X0205406Y0022146D02*
X0203405Y0022146D01*
X0203405Y0023480D02*
X0205406Y0023480D01*
X0204406Y0025356D02*
X0204072Y0025690D01*
X0158991Y0029540D02*
X0158657Y0029206D01*
X0157323Y0029206D01*
X0156989Y0029540D01*
X0156989Y0030207D01*
X0157323Y0030541D01*
X0157323Y0031416D02*
X0156989Y0031750D01*
X0156989Y0032417D01*
X0157323Y0032751D01*
X0157656Y0032751D01*
X0157990Y0032417D01*
X0157990Y0031416D01*
X0157323Y0031416D01*
X0157990Y0031416D02*
X0158657Y0032083D01*
X0158991Y0032751D01*
X0158657Y0030541D02*
X0158991Y0030207D01*
X0158991Y0029540D01*
X0159191Y0016589D02*
X0159191Y0015255D01*
X0158191Y0015255D01*
X0158524Y0015922D01*
X0158524Y0016256D01*
X0158191Y0016589D01*
X0157523Y0016589D01*
X0157190Y0016256D01*
X0157190Y0015588D01*
X0157523Y0015255D01*
X0157523Y0014379D02*
X0157190Y0014046D01*
X0157190Y0013378D01*
X0157523Y0013045D01*
X0158858Y0013045D01*
X0159191Y0013378D01*
X0159191Y0014046D01*
X0158858Y0014379D01*
D11*
X0020233Y0008565D02*
X0019666Y0009132D01*
X0020233Y0008565D02*
X0022502Y0008565D01*
X0021935Y0007998D02*
X0021935Y0009132D01*
X0021935Y0011020D02*
X0021935Y0012155D01*
X0021368Y0012722D01*
X0019666Y0012722D01*
X0019666Y0011020D01*
X0020233Y0010453D01*
X0020800Y0011020D01*
X0020800Y0012722D01*
X0019666Y0014136D02*
X0019666Y0015838D01*
X0020233Y0016405D01*
X0021368Y0016405D01*
X0021935Y0015838D01*
X0021935Y0014136D01*
X0018532Y0014136D01*
X0018532Y0017819D02*
X0021935Y0017819D01*
X0021935Y0019521D01*
X0021368Y0020088D01*
X0020233Y0020088D01*
X0019666Y0019521D01*
X0019666Y0017819D01*
X0020233Y0021502D02*
X0019666Y0022070D01*
X0019666Y0023771D01*
X0019099Y0023771D02*
X0018532Y0023204D01*
X0018532Y0022637D01*
X0019099Y0023771D02*
X0021935Y0023771D01*
X0021935Y0025186D02*
X0021935Y0026320D01*
X0022502Y0025753D02*
X0020233Y0025753D01*
X0019666Y0026320D01*
X0020233Y0027641D02*
X0019666Y0028208D01*
X0019666Y0029910D01*
X0021368Y0029910D01*
X0021935Y0029343D01*
X0021935Y0028208D01*
X0020800Y0028208D02*
X0020800Y0029910D01*
X0020800Y0028208D02*
X0020233Y0027641D01*
X0019666Y0031324D02*
X0019666Y0033026D01*
X0020233Y0033593D01*
X0021368Y0033593D01*
X0021935Y0033026D01*
X0021935Y0031324D01*
X0018532Y0031324D01*
X0021935Y0038691D02*
X0019666Y0039825D01*
X0021935Y0040959D01*
X0021368Y0042374D02*
X0021935Y0043508D01*
X0021935Y0044075D01*
X0021368Y0044642D01*
X0020233Y0044642D01*
X0019666Y0044075D01*
X0019666Y0042941D01*
X0020233Y0042374D01*
X0021368Y0042374D02*
X0023069Y0042374D01*
X0023069Y0044642D01*
X0021368Y0049740D02*
X0021368Y0052009D01*
X0021368Y0057106D02*
X0021368Y0058808D01*
X0020800Y0059375D01*
X0020233Y0059375D01*
X0019666Y0058808D01*
X0019666Y0057673D01*
X0020233Y0057106D01*
X0021368Y0057106D01*
X0022502Y0058241D01*
X0023069Y0059375D01*
X0021935Y0060789D02*
X0019666Y0063058D01*
X0020233Y0064473D02*
X0019666Y0065040D01*
X0019666Y0066174D01*
X0020233Y0066741D01*
X0020800Y0066741D01*
X0021368Y0066174D01*
X0021368Y0064473D01*
X0020233Y0064473D01*
X0021368Y0064473D02*
X0022502Y0065607D01*
X0023069Y0066741D01*
X0021935Y0063058D02*
X0019666Y0060789D01*
X0019666Y0071839D02*
X0021935Y0071839D01*
X0021935Y0072973D02*
X0021935Y0073540D01*
X0021935Y0072973D02*
X0020800Y0071839D01*
X0019666Y0074908D02*
X0019666Y0077177D01*
X0019666Y0076042D02*
X0023069Y0076042D01*
X0021935Y0074908D01*
X0021935Y0021502D02*
X0020233Y0021502D01*
X0010656Y0158214D02*
X0010656Y0159348D01*
X0010656Y0158781D02*
X0007253Y0158781D01*
X0007253Y0158214D02*
X0007253Y0159348D01*
X0007253Y0160670D02*
X0010656Y0160670D01*
X0007253Y0162938D01*
X0010656Y0162938D01*
X0227343Y0162004D02*
X0227910Y0162571D01*
X0230746Y0162571D01*
X0230746Y0163986D02*
X0230746Y0166255D01*
X0230746Y0165120D02*
X0227343Y0165120D01*
X0227343Y0162004D02*
X0227343Y0160870D01*
X0227910Y0160303D01*
X0230746Y0160303D01*
X0230179Y0158888D02*
X0227910Y0158888D01*
X0227343Y0158321D01*
X0227343Y0157187D01*
X0227910Y0156620D01*
X0230179Y0156620D01*
X0230746Y0157187D01*
X0230746Y0158321D01*
X0230179Y0158888D01*
D12*
X0223106Y0154843D02*
X0223106Y0083977D01*
X0238854Y0083977D01*
X0238854Y0154843D01*
X0223106Y0154843D01*
X0202732Y0149233D02*
X0202732Y0133879D01*
X0168677Y0133879D01*
X0168677Y0149233D01*
X0202732Y0149233D01*
X0202732Y0173249D02*
X0168677Y0173249D01*
X0168677Y0188603D01*
X0202732Y0188603D01*
X0202732Y0173249D01*
X0202732Y0212619D02*
X0168677Y0212619D01*
X0168677Y0227973D01*
X0202732Y0227973D01*
X0202732Y0212619D01*
X0202732Y0109863D02*
X0168677Y0109863D01*
X0168677Y0094509D01*
X0202732Y0094509D01*
X0202732Y0109863D01*
X0202732Y0070493D02*
X0168677Y0070493D01*
X0168677Y0055139D01*
X0202732Y0055139D01*
X0202732Y0070493D01*
X0202732Y0031123D02*
X0168677Y0031123D01*
X0168677Y0015769D01*
X0202732Y0015769D01*
X0202732Y0031123D01*
X0084622Y0031123D02*
X0084622Y0015769D01*
X0050567Y0015769D01*
X0050567Y0031123D01*
X0084622Y0031123D01*
X0084622Y0055139D02*
X0050567Y0055139D01*
X0050567Y0070493D01*
X0084622Y0070493D01*
X0084622Y0055139D01*
X0084622Y0094509D02*
X0050567Y0094509D01*
X0050567Y0109863D01*
X0084622Y0109863D01*
X0084622Y0094509D01*
X0084622Y0133879D02*
X0050567Y0133879D01*
X0050567Y0149233D01*
X0084622Y0149233D01*
X0084622Y0133879D01*
X0084622Y0173249D02*
X0050567Y0173249D01*
X0050567Y0188603D01*
X0084622Y0188603D01*
X0084622Y0173249D01*
X0084622Y0212619D02*
X0050567Y0212619D01*
X0050567Y0227973D01*
X0084622Y0227973D01*
X0084622Y0212619D01*
X0018874Y0154843D02*
X0018874Y0083977D01*
X0003126Y0083977D01*
X0003126Y0154843D01*
X0018874Y0154843D01*
M02*
