G75*
%MOIN*%
%OFA0B0*%
%FSLAX25Y25*%
%IPPOS*%
%LPD*%
%AMOC8*
5,1,8,0,0,1.08239X$1,22.5*
%
%ADD10C,0.08674*%
%ADD11C,0.04737*%
D10*
X0014937Y0033603D03*
X0029701Y0033603D03*
X0054307Y0033603D03*
X0069071Y0033603D03*
X0093677Y0033603D03*
X0108441Y0033603D03*
X0120744Y0020985D03*
X0133047Y0033603D03*
X0147811Y0033603D03*
X0172417Y0033603D03*
X0187181Y0033603D03*
X0211787Y0033603D03*
X0226551Y0033603D03*
X0226551Y0072973D03*
X0211787Y0072973D03*
X0187181Y0072973D03*
X0172417Y0072973D03*
X0147811Y0072973D03*
X0133047Y0072973D03*
X0108441Y0072973D03*
X0093677Y0072973D03*
X0069071Y0072973D03*
X0054307Y0072973D03*
X0029701Y0072973D03*
X0014937Y0072973D03*
X0014937Y0112343D03*
X0029701Y0112343D03*
X0054307Y0112343D03*
X0069071Y0112343D03*
X0093677Y0112343D03*
X0108441Y0112343D03*
X0120744Y0119410D03*
X0133047Y0112343D03*
X0147811Y0112343D03*
X0172417Y0112343D03*
X0187181Y0112343D03*
X0211787Y0112343D03*
X0226551Y0112343D03*
X0226551Y0151713D03*
X0211787Y0151713D03*
X0187181Y0151713D03*
X0172417Y0151713D03*
X0147811Y0151713D03*
X0133047Y0151713D03*
X0108441Y0151713D03*
X0093677Y0151713D03*
X0069071Y0151713D03*
X0054307Y0151713D03*
X0029701Y0151713D03*
X0014937Y0151713D03*
X0014937Y0191083D03*
X0029701Y0191083D03*
X0054307Y0191083D03*
X0069071Y0191083D03*
X0093677Y0191083D03*
X0108441Y0191083D03*
X0133047Y0191083D03*
X0147811Y0191083D03*
X0172417Y0191083D03*
X0187181Y0191083D03*
X0211787Y0191083D03*
X0226551Y0191083D03*
X0226551Y0230454D03*
X0211787Y0230454D03*
X0187181Y0230454D03*
X0172417Y0230454D03*
X0147811Y0230454D03*
X0133047Y0230454D03*
X0120744Y0217835D03*
X0108441Y0230454D03*
X0093677Y0230454D03*
X0069071Y0230454D03*
X0054307Y0230454D03*
X0029701Y0230454D03*
X0014937Y0230454D03*
D11*
X0006571Y0005237D03*
X0234917Y0005237D03*
X0234917Y0233583D03*
X0006571Y0233583D03*
M02*
