G75*
%MOIN*%
%OFA0B0*%
%FSLAX25Y25*%
%IPPOS*%
%LPD*%
%AMOC8*
5,1,8,0,0,1.08239X$1,22.5*
%
%ADD10C,0.00800*%
%ADD11C,0.00600*%
%ADD12C,0.00500*%
%ADD13R,0.02000X0.02000*%
D10*
X0025500Y0031000D02*
X0030500Y0031000D01*
X0033000Y0033500D01*
X0033000Y0038500D01*
X0030500Y0041000D01*
X0025500Y0041000D01*
X0023000Y0038500D01*
X0023000Y0033500D01*
X0025500Y0031000D01*
X0004798Y0100826D02*
X0004798Y0102227D01*
X0004097Y0101527D02*
X0006899Y0101527D01*
X0007600Y0102227D01*
X0006899Y0103895D02*
X0006199Y0104596D01*
X0006199Y0106698D01*
X0005498Y0106698D02*
X0007600Y0106698D01*
X0007600Y0104596D01*
X0006899Y0103895D01*
X0004798Y0104596D02*
X0004798Y0105997D01*
X0005498Y0106698D01*
X0004798Y0108499D02*
X0004798Y0110601D01*
X0005498Y0111302D01*
X0006899Y0111302D01*
X0007600Y0110601D01*
X0007600Y0108499D01*
X0009001Y0108499D02*
X0004798Y0108499D01*
X0004798Y0113103D02*
X0004798Y0115205D01*
X0005498Y0115906D01*
X0006899Y0115906D01*
X0007600Y0115205D01*
X0007600Y0113103D01*
X0009001Y0113103D02*
X0004798Y0113103D01*
X0004798Y0117707D02*
X0006899Y0117707D01*
X0007600Y0118408D01*
X0007600Y0120509D01*
X0008301Y0120509D02*
X0009001Y0119809D01*
X0009001Y0119108D01*
X0008301Y0120509D02*
X0004798Y0120509D01*
X0004798Y0122311D02*
X0004798Y0123712D01*
X0004097Y0123012D02*
X0006899Y0123012D01*
X0007600Y0123712D01*
X0006899Y0125380D02*
X0006199Y0126081D01*
X0006199Y0128183D01*
X0005498Y0128183D02*
X0007600Y0128183D01*
X0007600Y0126081D01*
X0006899Y0125380D01*
X0004798Y0127482D02*
X0005498Y0128183D01*
X0004798Y0127482D02*
X0004798Y0126081D01*
X0004798Y0129984D02*
X0004798Y0132086D01*
X0005498Y0132787D01*
X0006899Y0132787D01*
X0007600Y0132086D01*
X0007600Y0129984D01*
X0009001Y0129984D02*
X0004798Y0129984D01*
X0004798Y0139192D02*
X0007600Y0140593D01*
X0004798Y0141994D01*
X0004798Y0143796D02*
X0003396Y0145197D01*
X0007600Y0145197D01*
X0007600Y0143796D02*
X0007600Y0146598D01*
D11*
X0005500Y0042000D02*
X0005500Y0012000D01*
X0008000Y0012000D01*
X0008000Y0042000D01*
X0005500Y0042000D01*
X0008000Y0042000D02*
X0018000Y0042000D01*
X0018000Y0012000D01*
X0008000Y0012000D01*
X0042201Y0013598D02*
X0043598Y0012201D01*
X0069799Y0012201D01*
X0069799Y0039799D01*
X0042201Y0039799D01*
X0042201Y0013598D01*
X0043786Y0015200D02*
X0043788Y0015275D01*
X0043794Y0015349D01*
X0043804Y0015423D01*
X0043817Y0015496D01*
X0043835Y0015569D01*
X0043856Y0015640D01*
X0043881Y0015711D01*
X0043910Y0015780D01*
X0043943Y0015847D01*
X0043979Y0015912D01*
X0044018Y0015976D01*
X0044060Y0016037D01*
X0044106Y0016096D01*
X0044155Y0016153D01*
X0044207Y0016206D01*
X0044261Y0016257D01*
X0044318Y0016306D01*
X0044378Y0016350D01*
X0044440Y0016392D01*
X0044504Y0016431D01*
X0044570Y0016466D01*
X0044637Y0016497D01*
X0044707Y0016525D01*
X0044777Y0016549D01*
X0044849Y0016570D01*
X0044922Y0016586D01*
X0044995Y0016599D01*
X0045070Y0016608D01*
X0045144Y0016613D01*
X0045219Y0016614D01*
X0045293Y0016611D01*
X0045368Y0016604D01*
X0045441Y0016593D01*
X0045515Y0016579D01*
X0045587Y0016560D01*
X0045658Y0016538D01*
X0045728Y0016512D01*
X0045797Y0016482D01*
X0045863Y0016449D01*
X0045928Y0016412D01*
X0045991Y0016372D01*
X0046052Y0016328D01*
X0046110Y0016282D01*
X0046166Y0016232D01*
X0046219Y0016180D01*
X0046270Y0016125D01*
X0046317Y0016067D01*
X0046361Y0016007D01*
X0046402Y0015944D01*
X0046440Y0015880D01*
X0046474Y0015814D01*
X0046505Y0015745D01*
X0046532Y0015676D01*
X0046555Y0015605D01*
X0046574Y0015533D01*
X0046590Y0015460D01*
X0046602Y0015386D01*
X0046610Y0015312D01*
X0046614Y0015237D01*
X0046614Y0015163D01*
X0046610Y0015088D01*
X0046602Y0015014D01*
X0046590Y0014940D01*
X0046574Y0014867D01*
X0046555Y0014795D01*
X0046532Y0014724D01*
X0046505Y0014655D01*
X0046474Y0014586D01*
X0046440Y0014520D01*
X0046402Y0014456D01*
X0046361Y0014393D01*
X0046317Y0014333D01*
X0046270Y0014275D01*
X0046219Y0014220D01*
X0046166Y0014168D01*
X0046110Y0014118D01*
X0046052Y0014072D01*
X0045991Y0014028D01*
X0045928Y0013988D01*
X0045863Y0013951D01*
X0045797Y0013918D01*
X0045728Y0013888D01*
X0045658Y0013862D01*
X0045587Y0013840D01*
X0045515Y0013821D01*
X0045441Y0013807D01*
X0045368Y0013796D01*
X0045293Y0013789D01*
X0045219Y0013786D01*
X0045144Y0013787D01*
X0045070Y0013792D01*
X0044995Y0013801D01*
X0044922Y0013814D01*
X0044849Y0013830D01*
X0044777Y0013851D01*
X0044707Y0013875D01*
X0044637Y0013903D01*
X0044570Y0013934D01*
X0044504Y0013969D01*
X0044440Y0014008D01*
X0044378Y0014050D01*
X0044318Y0014094D01*
X0044261Y0014143D01*
X0044207Y0014194D01*
X0044155Y0014247D01*
X0044106Y0014304D01*
X0044060Y0014363D01*
X0044018Y0014424D01*
X0043979Y0014488D01*
X0043943Y0014553D01*
X0043910Y0014620D01*
X0043881Y0014689D01*
X0043856Y0014760D01*
X0043835Y0014831D01*
X0043817Y0014904D01*
X0043804Y0014977D01*
X0043794Y0015051D01*
X0043788Y0015125D01*
X0043786Y0015200D01*
X0029000Y0090000D02*
X0019000Y0090000D01*
X0016500Y0090000D01*
X0016500Y0110000D01*
X0019000Y0110000D01*
X0029000Y0110000D01*
X0029000Y0090000D01*
X0019000Y0090000D02*
X0019000Y0110000D01*
X0019000Y0118000D02*
X0016500Y0118000D01*
X0016500Y0138000D01*
X0019000Y0138000D01*
X0029000Y0138000D01*
X0029000Y0118000D01*
X0019000Y0118000D01*
X0019000Y0138000D01*
X0019000Y0146000D02*
X0016500Y0146000D01*
X0016500Y0166000D01*
X0019000Y0166000D01*
X0029000Y0166000D01*
X0029000Y0146000D01*
X0019000Y0146000D01*
X0019000Y0166000D01*
X0059500Y0166000D02*
X0059500Y0146000D01*
X0062000Y0146000D01*
X0062000Y0166000D01*
X0059500Y0166000D01*
X0062000Y0166000D02*
X0072000Y0166000D01*
X0072000Y0146000D01*
X0062000Y0146000D01*
X0062000Y0138000D02*
X0059500Y0138000D01*
X0059500Y0118000D01*
X0062000Y0118000D01*
X0062000Y0138000D01*
X0072000Y0138000D01*
X0072000Y0118000D01*
X0062000Y0118000D01*
X0062000Y0110000D02*
X0059500Y0110000D01*
X0059500Y0090000D01*
X0062000Y0090000D01*
X0062000Y0110000D01*
X0072000Y0110000D01*
X0072000Y0090000D01*
X0062000Y0090000D01*
X0102500Y0090000D02*
X0102500Y0110000D01*
X0105000Y0110000D01*
X0115000Y0110000D01*
X0115000Y0090000D01*
X0105000Y0090000D01*
X0102500Y0090000D01*
X0105000Y0090000D02*
X0105000Y0110000D01*
X0105000Y0118000D02*
X0102500Y0118000D01*
X0102500Y0138000D01*
X0105000Y0138000D01*
X0115000Y0138000D01*
X0115000Y0118000D01*
X0105000Y0118000D01*
X0105000Y0138000D01*
X0105000Y0146000D02*
X0102500Y0146000D01*
X0102500Y0166000D01*
X0105000Y0166000D01*
X0115000Y0166000D01*
X0115000Y0146000D01*
X0105000Y0146000D01*
X0105000Y0166000D01*
X0119000Y0042000D02*
X0119000Y0012000D01*
X0129000Y0012000D01*
X0131500Y0012000D01*
X0131500Y0042000D01*
X0129000Y0042000D01*
X0129000Y0012000D01*
X0129000Y0042000D02*
X0119000Y0042000D01*
D12*
X0112848Y0031645D02*
X0112848Y0029843D01*
X0112848Y0030744D02*
X0115550Y0030744D01*
X0115100Y0028698D02*
X0112848Y0028698D01*
X0112848Y0026897D02*
X0115100Y0026897D01*
X0115550Y0027347D01*
X0115550Y0028248D01*
X0115100Y0028698D01*
X0115100Y0025752D02*
X0113298Y0025752D01*
X0112848Y0025301D01*
X0112848Y0024400D01*
X0113298Y0023950D01*
X0115100Y0023950D01*
X0115550Y0024400D01*
X0115550Y0025301D01*
X0115100Y0025752D01*
X0114000Y0002000D02*
X0086000Y0002000D01*
X0090548Y0019750D02*
X0090548Y0021101D01*
X0090998Y0021552D01*
X0091899Y0021552D01*
X0092349Y0021101D01*
X0092349Y0019750D01*
X0092349Y0020651D02*
X0093250Y0021552D01*
X0093250Y0022697D02*
X0090548Y0022697D01*
X0090548Y0024048D01*
X0090998Y0024498D01*
X0091899Y0024498D01*
X0092349Y0024048D01*
X0092349Y0022697D01*
X0092349Y0023597D02*
X0093250Y0024498D01*
X0092800Y0025643D02*
X0093250Y0026093D01*
X0093250Y0026994D01*
X0092800Y0027445D01*
X0092349Y0027445D01*
X0091899Y0026994D01*
X0091899Y0026093D01*
X0091448Y0025643D01*
X0090998Y0025643D01*
X0090548Y0026093D01*
X0090548Y0026994D01*
X0090998Y0027445D01*
X0090548Y0028590D02*
X0090548Y0030391D01*
X0090548Y0029490D02*
X0093250Y0029490D01*
X0093250Y0019750D02*
X0090548Y0019750D01*
X0063884Y0032250D02*
X0063884Y0034052D01*
X0062983Y0034952D01*
X0062083Y0034052D01*
X0062083Y0032250D01*
X0060938Y0032700D02*
X0060938Y0033601D01*
X0060037Y0033601D01*
X0060938Y0032700D02*
X0060487Y0032250D01*
X0059586Y0032250D01*
X0059136Y0032700D01*
X0059136Y0034502D01*
X0059586Y0034952D01*
X0060487Y0034952D01*
X0060938Y0034502D01*
X0062083Y0033601D02*
X0063884Y0033601D01*
X0057991Y0032250D02*
X0056190Y0032250D01*
X0056190Y0034952D01*
X0057991Y0034952D01*
X0057090Y0033601D02*
X0056190Y0033601D01*
X0055045Y0034952D02*
X0055045Y0032250D01*
X0054144Y0034052D02*
X0055045Y0034952D01*
X0054144Y0034052D02*
X0053243Y0034952D01*
X0053243Y0032250D01*
X0051197Y0032250D02*
X0051197Y0034952D01*
X0050297Y0034952D02*
X0052098Y0034952D01*
X0049152Y0034052D02*
X0049152Y0032250D01*
X0049152Y0033601D02*
X0047350Y0033601D01*
X0047350Y0034052D02*
X0048251Y0034952D01*
X0049152Y0034052D01*
X0047350Y0034052D02*
X0047350Y0032250D01*
X0032498Y0023452D02*
X0032498Y0021200D01*
X0032048Y0020750D01*
X0031147Y0020750D01*
X0030697Y0021200D01*
X0030697Y0023452D01*
X0029552Y0023002D02*
X0029101Y0023452D01*
X0028200Y0023452D01*
X0027750Y0023002D01*
X0027750Y0021200D01*
X0028200Y0020750D01*
X0029101Y0020750D01*
X0029552Y0021200D01*
X0024150Y0024639D02*
X0024150Y0025540D01*
X0024150Y0025090D02*
X0021448Y0025090D01*
X0021448Y0025540D02*
X0021448Y0024639D01*
X0021448Y0026603D02*
X0024150Y0028405D01*
X0021448Y0028405D01*
X0021448Y0026603D02*
X0024150Y0026603D01*
X0025700Y0042750D02*
X0026601Y0042750D01*
X0027052Y0043200D01*
X0028197Y0043200D02*
X0028647Y0042750D01*
X0029548Y0042750D01*
X0029998Y0043200D01*
X0029998Y0043651D01*
X0029548Y0044101D01*
X0028647Y0044101D01*
X0028197Y0044552D01*
X0028197Y0045002D01*
X0028647Y0045452D01*
X0029548Y0045452D01*
X0029998Y0045002D01*
X0027052Y0045002D02*
X0026601Y0045452D01*
X0025700Y0045452D01*
X0025250Y0045002D01*
X0025250Y0043200D01*
X0025700Y0042750D01*
X0041748Y0090857D02*
X0041748Y0092208D01*
X0042198Y0092659D01*
X0043099Y0092659D01*
X0043549Y0092208D01*
X0043549Y0090857D01*
X0043549Y0091758D02*
X0044450Y0092659D01*
X0044450Y0093803D02*
X0044450Y0095605D01*
X0044450Y0094704D02*
X0041748Y0094704D01*
X0042648Y0093803D01*
X0041748Y0090857D02*
X0044450Y0090857D01*
X0039875Y0101750D02*
X0036125Y0101750D01*
X0041748Y0105303D02*
X0044450Y0105303D01*
X0044450Y0107105D01*
X0044450Y0108250D02*
X0044450Y0110052D01*
X0044450Y0109151D02*
X0041748Y0109151D01*
X0042648Y0108250D01*
X0041748Y0118857D02*
X0041748Y0120208D01*
X0042198Y0120659D01*
X0043099Y0120659D01*
X0043549Y0120208D01*
X0043549Y0118857D01*
X0043549Y0119758D02*
X0044450Y0120659D01*
X0044450Y0121803D02*
X0042648Y0123605D01*
X0042198Y0123605D01*
X0041748Y0123155D01*
X0041748Y0122254D01*
X0042198Y0121803D01*
X0044450Y0121803D02*
X0044450Y0123605D01*
X0044450Y0118857D02*
X0041748Y0118857D01*
X0039875Y0129750D02*
X0036125Y0129750D01*
X0041748Y0133303D02*
X0044450Y0133303D01*
X0044450Y0135105D01*
X0044450Y0136250D02*
X0042648Y0138052D01*
X0042198Y0138052D01*
X0041748Y0137601D01*
X0041748Y0136700D01*
X0042198Y0136250D01*
X0044450Y0136250D02*
X0044450Y0138052D01*
X0044450Y0146857D02*
X0041748Y0146857D01*
X0041748Y0148208D01*
X0042198Y0148659D01*
X0043099Y0148659D01*
X0043549Y0148208D01*
X0043549Y0146857D01*
X0043549Y0147758D02*
X0044450Y0148659D01*
X0044000Y0149803D02*
X0044450Y0150254D01*
X0044450Y0151155D01*
X0044000Y0151605D01*
X0043549Y0151605D01*
X0043099Y0151155D01*
X0043099Y0150704D01*
X0043099Y0151155D02*
X0042648Y0151605D01*
X0042198Y0151605D01*
X0041748Y0151155D01*
X0041748Y0150254D01*
X0042198Y0149803D01*
X0039875Y0157750D02*
X0036125Y0157750D01*
X0041748Y0161303D02*
X0044450Y0161303D01*
X0044450Y0163105D01*
X0044000Y0164250D02*
X0044450Y0164700D01*
X0044450Y0165601D01*
X0044000Y0166052D01*
X0043549Y0166052D01*
X0043099Y0165601D01*
X0043099Y0165151D01*
X0043099Y0165601D02*
X0042648Y0166052D01*
X0042198Y0166052D01*
X0041748Y0165601D01*
X0041748Y0164700D01*
X0042198Y0164250D01*
X0054848Y0158698D02*
X0055298Y0157797D01*
X0056199Y0156897D01*
X0056199Y0158248D01*
X0056649Y0158698D01*
X0057100Y0158698D01*
X0057550Y0158248D01*
X0057550Y0157347D01*
X0057100Y0156897D01*
X0056199Y0156897D01*
X0056649Y0155752D02*
X0057100Y0155752D01*
X0057550Y0155301D01*
X0057550Y0154400D01*
X0057100Y0153950D01*
X0056199Y0154400D02*
X0056199Y0155301D01*
X0056649Y0155752D01*
X0055298Y0155752D02*
X0054848Y0155301D01*
X0054848Y0154400D01*
X0055298Y0153950D01*
X0055748Y0153950D01*
X0056199Y0154400D01*
X0056199Y0131698D02*
X0055748Y0131248D01*
X0055748Y0130797D01*
X0056199Y0129897D01*
X0054848Y0129897D01*
X0054848Y0131698D01*
X0056199Y0131698D02*
X0057100Y0131698D01*
X0057550Y0131248D01*
X0057550Y0130347D01*
X0057100Y0129897D01*
X0057100Y0128752D02*
X0057550Y0128301D01*
X0057550Y0127400D01*
X0057100Y0126950D01*
X0056199Y0127400D02*
X0056199Y0128301D01*
X0056649Y0128752D01*
X0057100Y0128752D01*
X0056199Y0127400D02*
X0055748Y0126950D01*
X0055298Y0126950D01*
X0054848Y0127400D01*
X0054848Y0128301D01*
X0055298Y0128752D01*
X0056199Y0101698D02*
X0056199Y0099897D01*
X0054848Y0101248D01*
X0057550Y0101248D01*
X0057100Y0098752D02*
X0057550Y0098301D01*
X0057550Y0097400D01*
X0057100Y0096950D01*
X0056199Y0097400D02*
X0056199Y0098301D01*
X0056649Y0098752D01*
X0057100Y0098752D01*
X0056199Y0097400D02*
X0055748Y0096950D01*
X0055298Y0096950D01*
X0054848Y0097400D01*
X0054848Y0098301D01*
X0055298Y0098752D01*
X0079125Y0101750D02*
X0082875Y0101750D01*
X0084748Y0105303D02*
X0087450Y0105303D01*
X0087450Y0107105D01*
X0086099Y0108250D02*
X0086099Y0110052D01*
X0087450Y0109601D02*
X0084748Y0109601D01*
X0086099Y0108250D01*
X0086549Y0118857D02*
X0086549Y0120208D01*
X0086099Y0120659D01*
X0085198Y0120659D01*
X0084748Y0120208D01*
X0084748Y0118857D01*
X0087450Y0118857D01*
X0086549Y0119758D02*
X0087450Y0120659D01*
X0087000Y0121803D02*
X0087450Y0122254D01*
X0087450Y0123155D01*
X0087000Y0123605D01*
X0086099Y0123605D01*
X0085648Y0123155D01*
X0085648Y0122704D01*
X0086099Y0121803D01*
X0084748Y0121803D01*
X0084748Y0123605D01*
X0082875Y0129750D02*
X0079125Y0129750D01*
X0084748Y0133303D02*
X0087450Y0133303D01*
X0087450Y0135105D01*
X0087000Y0136250D02*
X0087450Y0136700D01*
X0087450Y0137601D01*
X0087000Y0138052D01*
X0086099Y0138052D01*
X0085648Y0137601D01*
X0085648Y0137151D01*
X0086099Y0136250D01*
X0084748Y0136250D01*
X0084748Y0138052D01*
X0084748Y0146857D02*
X0084748Y0148208D01*
X0085198Y0148659D01*
X0086099Y0148659D01*
X0086549Y0148208D01*
X0086549Y0146857D01*
X0086549Y0147758D02*
X0087450Y0148659D01*
X0087000Y0149803D02*
X0086099Y0149803D01*
X0086099Y0151155D01*
X0086549Y0151605D01*
X0087000Y0151605D01*
X0087450Y0151155D01*
X0087450Y0150254D01*
X0087000Y0149803D01*
X0086099Y0149803D02*
X0085198Y0150704D01*
X0084748Y0151605D01*
X0084748Y0146857D02*
X0087450Y0146857D01*
X0082875Y0157750D02*
X0079125Y0157750D01*
X0084748Y0161303D02*
X0087450Y0161303D01*
X0087450Y0163105D01*
X0087000Y0164250D02*
X0086099Y0164250D01*
X0086099Y0165601D01*
X0086549Y0166052D01*
X0087000Y0166052D01*
X0087450Y0165601D01*
X0087450Y0164700D01*
X0087000Y0164250D01*
X0086099Y0164250D02*
X0085198Y0165151D01*
X0084748Y0166052D01*
X0097848Y0158248D02*
X0097848Y0157347D01*
X0098298Y0156897D01*
X0098748Y0156897D01*
X0099199Y0157347D01*
X0099199Y0158698D01*
X0100100Y0158698D02*
X0098298Y0158698D01*
X0097848Y0158248D01*
X0100100Y0158698D02*
X0100550Y0158248D01*
X0100550Y0157347D01*
X0100100Y0156897D01*
X0100100Y0155752D02*
X0099649Y0155752D01*
X0099199Y0155301D01*
X0099199Y0154400D01*
X0098748Y0153950D01*
X0098298Y0153950D01*
X0097848Y0154400D01*
X0097848Y0155301D01*
X0098298Y0155752D01*
X0100100Y0155752D02*
X0100550Y0155301D01*
X0100550Y0154400D01*
X0100100Y0153950D01*
X0100100Y0129698D02*
X0099649Y0129698D01*
X0099199Y0129248D01*
X0099199Y0128347D01*
X0098748Y0127897D01*
X0098298Y0127897D01*
X0097848Y0128347D01*
X0097848Y0129248D01*
X0098298Y0129698D01*
X0098748Y0129698D01*
X0099199Y0129248D01*
X0099199Y0128347D02*
X0099649Y0127897D01*
X0100100Y0127897D01*
X0100550Y0128347D01*
X0100550Y0129248D01*
X0100100Y0129698D01*
X0100100Y0126752D02*
X0099649Y0126752D01*
X0099199Y0126301D01*
X0099199Y0125400D01*
X0098748Y0124950D01*
X0098298Y0124950D01*
X0097848Y0125400D01*
X0097848Y0126301D01*
X0098298Y0126752D01*
X0100100Y0126752D02*
X0100550Y0126301D01*
X0100550Y0125400D01*
X0100100Y0124950D01*
X0098298Y0101698D02*
X0100100Y0099897D01*
X0100550Y0099897D01*
X0100100Y0098752D02*
X0099649Y0098752D01*
X0099199Y0098301D01*
X0099199Y0097400D01*
X0098748Y0096950D01*
X0098298Y0096950D01*
X0097848Y0097400D01*
X0097848Y0098301D01*
X0098298Y0098752D01*
X0097848Y0099897D02*
X0097848Y0101698D01*
X0098298Y0101698D01*
X0100100Y0098752D02*
X0100550Y0098301D01*
X0100550Y0097400D01*
X0100100Y0096950D01*
X0087450Y0095155D02*
X0084748Y0095155D01*
X0086099Y0093803D01*
X0086099Y0095605D01*
X0086099Y0092659D02*
X0086549Y0092208D01*
X0086549Y0090857D01*
X0086549Y0091758D02*
X0087450Y0092659D01*
X0086099Y0092659D02*
X0085198Y0092659D01*
X0084748Y0092208D01*
X0084748Y0090857D01*
X0087450Y0090857D01*
X0122125Y0101750D02*
X0125875Y0101750D01*
X0127748Y0105303D02*
X0130450Y0105303D01*
X0130450Y0107105D01*
X0130450Y0108250D02*
X0130000Y0108250D01*
X0128198Y0110052D01*
X0127748Y0110052D01*
X0127748Y0108250D01*
X0127748Y0118857D02*
X0127748Y0120208D01*
X0128198Y0120659D01*
X0129099Y0120659D01*
X0129549Y0120208D01*
X0129549Y0118857D01*
X0129549Y0119758D02*
X0130450Y0120659D01*
X0130000Y0121803D02*
X0129549Y0121803D01*
X0129099Y0122254D01*
X0129099Y0123155D01*
X0129549Y0123605D01*
X0130000Y0123605D01*
X0130450Y0123155D01*
X0130450Y0122254D01*
X0130000Y0121803D01*
X0129099Y0122254D02*
X0128648Y0121803D01*
X0128198Y0121803D01*
X0127748Y0122254D01*
X0127748Y0123155D01*
X0128198Y0123605D01*
X0128648Y0123605D01*
X0129099Y0123155D01*
X0130450Y0118857D02*
X0127748Y0118857D01*
X0125875Y0129750D02*
X0122125Y0129750D01*
X0127748Y0133303D02*
X0130450Y0133303D01*
X0130450Y0135105D01*
X0130000Y0136250D02*
X0129549Y0136250D01*
X0129099Y0136700D01*
X0129099Y0137601D01*
X0129549Y0138052D01*
X0130000Y0138052D01*
X0130450Y0137601D01*
X0130450Y0136700D01*
X0130000Y0136250D01*
X0129099Y0136700D02*
X0128648Y0136250D01*
X0128198Y0136250D01*
X0127748Y0136700D01*
X0127748Y0137601D01*
X0128198Y0138052D01*
X0128648Y0138052D01*
X0129099Y0137601D01*
X0129549Y0146857D02*
X0129549Y0148208D01*
X0129099Y0148659D01*
X0128198Y0148659D01*
X0127748Y0148208D01*
X0127748Y0146857D01*
X0130450Y0146857D01*
X0129549Y0147758D02*
X0130450Y0148659D01*
X0130000Y0149803D02*
X0130450Y0150254D01*
X0130450Y0151155D01*
X0130000Y0151605D01*
X0128198Y0151605D01*
X0127748Y0151155D01*
X0127748Y0150254D01*
X0128198Y0149803D01*
X0128648Y0149803D01*
X0129099Y0150254D01*
X0129099Y0151605D01*
X0125875Y0157750D02*
X0122125Y0157750D01*
X0127748Y0161303D02*
X0130450Y0161303D01*
X0130450Y0163105D01*
X0130000Y0164250D02*
X0130450Y0164700D01*
X0130450Y0165601D01*
X0130000Y0166052D01*
X0128198Y0166052D01*
X0127748Y0165601D01*
X0127748Y0164700D01*
X0128198Y0164250D01*
X0128648Y0164250D01*
X0129099Y0164700D01*
X0129099Y0166052D01*
X0128198Y0095605D02*
X0130000Y0093803D01*
X0130450Y0093803D01*
X0130450Y0092659D02*
X0129549Y0091758D01*
X0129549Y0092208D02*
X0129549Y0090857D01*
X0130450Y0090857D02*
X0127748Y0090857D01*
X0127748Y0092208D01*
X0128198Y0092659D01*
X0129099Y0092659D01*
X0129549Y0092208D01*
X0127748Y0093803D02*
X0127748Y0095605D01*
X0128198Y0095605D01*
X0014550Y0098400D02*
X0014100Y0097950D01*
X0014550Y0098400D02*
X0014550Y0099301D01*
X0014100Y0099752D01*
X0013649Y0099752D01*
X0013199Y0099301D01*
X0013199Y0098400D01*
X0012748Y0097950D01*
X0012298Y0097950D01*
X0011848Y0098400D01*
X0011848Y0099301D01*
X0012298Y0099752D01*
X0012748Y0100897D02*
X0011848Y0101797D01*
X0014550Y0101797D01*
X0014550Y0100897D02*
X0014550Y0102698D01*
X0014100Y0126950D02*
X0014550Y0127400D01*
X0014550Y0128301D01*
X0014100Y0128752D01*
X0013649Y0128752D01*
X0013199Y0128301D01*
X0013199Y0127400D01*
X0012748Y0126950D01*
X0012298Y0126950D01*
X0011848Y0127400D01*
X0011848Y0128301D01*
X0012298Y0128752D01*
X0012298Y0129897D02*
X0011848Y0130347D01*
X0011848Y0131248D01*
X0012298Y0131698D01*
X0012748Y0131698D01*
X0014550Y0129897D01*
X0014550Y0131698D01*
X0014100Y0152950D02*
X0014550Y0153400D01*
X0014550Y0154301D01*
X0014100Y0154752D01*
X0013649Y0154752D01*
X0013199Y0154301D01*
X0013199Y0153400D01*
X0012748Y0152950D01*
X0012298Y0152950D01*
X0011848Y0153400D01*
X0011848Y0154301D01*
X0012298Y0154752D01*
X0012298Y0155897D02*
X0011848Y0156347D01*
X0011848Y0157248D01*
X0012298Y0157698D01*
X0012748Y0157698D01*
X0013199Y0157248D01*
X0013649Y0157698D01*
X0014100Y0157698D01*
X0014550Y0157248D01*
X0014550Y0156347D01*
X0014100Y0155897D01*
X0013199Y0156797D02*
X0013199Y0157248D01*
D13*
X0024000Y0161000D03*
X0024000Y0151000D03*
X0024000Y0133000D03*
X0024000Y0123000D03*
X0024000Y0105000D03*
X0024000Y0095000D03*
X0067000Y0095000D03*
X0067000Y0105000D03*
X0067000Y0123000D03*
X0067000Y0133000D03*
X0067000Y0151000D03*
X0067000Y0161000D03*
X0110000Y0161000D03*
X0110000Y0151000D03*
X0110000Y0133000D03*
X0110000Y0123000D03*
X0110000Y0105000D03*
X0110000Y0095000D03*
X0124000Y0037000D03*
X0124000Y0027000D03*
X0124000Y0017000D03*
X0013000Y0017000D03*
X0013000Y0027000D03*
X0013000Y0037000D03*
M02*
