G75*
%MOIN*%
%OFA0B0*%
%FSLAX25Y25*%
%IPPOS*%
%LPD*%
%AMOC8*
5,1,8,0,0,1.08239X$1,22.5*
%
%ADD10R,0.03000X0.05800*%
%ADD11R,0.05800X0.03000*%
%ADD12R,0.04737X0.05131*%
%ADD13C,0.01421*%
%ADD14R,0.05131X0.04737*%
%ADD15C,0.07200*%
%ADD16R,0.06800X0.13800*%
%ADD17R,0.29000X0.16000*%
%ADD18C,0.08200*%
D10*
X0044976Y0009100D03*
X0048126Y0009100D03*
X0051276Y0009100D03*
X0054425Y0009100D03*
X0057575Y0009100D03*
X0060724Y0009100D03*
X0063874Y0009100D03*
X0067024Y0009100D03*
X0067024Y0042900D03*
X0063874Y0042900D03*
X0060724Y0042900D03*
X0057575Y0042900D03*
X0054425Y0042900D03*
X0051276Y0042900D03*
X0048126Y0042900D03*
X0044976Y0042900D03*
D11*
X0039100Y0037024D03*
X0039100Y0033874D03*
X0039100Y0030724D03*
X0039100Y0027575D03*
X0039100Y0024425D03*
X0039100Y0021276D03*
X0039100Y0018126D03*
X0039100Y0014976D03*
X0072900Y0014976D03*
X0072900Y0018126D03*
X0072900Y0021276D03*
X0072900Y0024425D03*
X0072900Y0027575D03*
X0072900Y0030724D03*
X0072900Y0033874D03*
X0072900Y0037024D03*
D12*
X0029000Y0017346D03*
X0029000Y0010654D03*
D13*
X0036342Y0106205D02*
X0039658Y0106205D01*
X0039658Y0102889D01*
X0036342Y0102889D01*
X0036342Y0106205D01*
X0036342Y0104309D02*
X0039658Y0104309D01*
X0039658Y0105729D02*
X0036342Y0105729D01*
X0036342Y0113111D02*
X0039658Y0113111D01*
X0039658Y0109795D01*
X0036342Y0109795D01*
X0036342Y0113111D01*
X0036342Y0111215D02*
X0039658Y0111215D01*
X0039658Y0112635D02*
X0036342Y0112635D01*
X0036342Y0134205D02*
X0039658Y0134205D01*
X0039658Y0130889D01*
X0036342Y0130889D01*
X0036342Y0134205D01*
X0036342Y0132309D02*
X0039658Y0132309D01*
X0039658Y0133729D02*
X0036342Y0133729D01*
X0036342Y0141111D02*
X0039658Y0141111D01*
X0039658Y0137795D01*
X0036342Y0137795D01*
X0036342Y0141111D01*
X0036342Y0139215D02*
X0039658Y0139215D01*
X0039658Y0140635D02*
X0036342Y0140635D01*
X0036342Y0162205D02*
X0039658Y0162205D01*
X0039658Y0158889D01*
X0036342Y0158889D01*
X0036342Y0162205D01*
X0036342Y0160309D02*
X0039658Y0160309D01*
X0039658Y0161729D02*
X0036342Y0161729D01*
X0036342Y0169111D02*
X0039658Y0169111D01*
X0039658Y0165795D01*
X0036342Y0165795D01*
X0036342Y0169111D01*
X0036342Y0167215D02*
X0039658Y0167215D01*
X0039658Y0168635D02*
X0036342Y0168635D01*
X0079342Y0169111D02*
X0082658Y0169111D01*
X0082658Y0165795D01*
X0079342Y0165795D01*
X0079342Y0169111D01*
X0079342Y0167215D02*
X0082658Y0167215D01*
X0082658Y0168635D02*
X0079342Y0168635D01*
X0079342Y0162205D02*
X0082658Y0162205D01*
X0082658Y0158889D01*
X0079342Y0158889D01*
X0079342Y0162205D01*
X0079342Y0160309D02*
X0082658Y0160309D01*
X0082658Y0161729D02*
X0079342Y0161729D01*
X0079342Y0141111D02*
X0082658Y0141111D01*
X0082658Y0137795D01*
X0079342Y0137795D01*
X0079342Y0141111D01*
X0079342Y0139215D02*
X0082658Y0139215D01*
X0082658Y0140635D02*
X0079342Y0140635D01*
X0079342Y0134205D02*
X0082658Y0134205D01*
X0082658Y0130889D01*
X0079342Y0130889D01*
X0079342Y0134205D01*
X0079342Y0132309D02*
X0082658Y0132309D01*
X0082658Y0133729D02*
X0079342Y0133729D01*
X0079342Y0113111D02*
X0082658Y0113111D01*
X0082658Y0109795D01*
X0079342Y0109795D01*
X0079342Y0113111D01*
X0079342Y0111215D02*
X0082658Y0111215D01*
X0082658Y0112635D02*
X0079342Y0112635D01*
X0079342Y0106205D02*
X0082658Y0106205D01*
X0082658Y0102889D01*
X0079342Y0102889D01*
X0079342Y0106205D01*
X0079342Y0104309D02*
X0082658Y0104309D01*
X0082658Y0105729D02*
X0079342Y0105729D01*
X0122342Y0106205D02*
X0125658Y0106205D01*
X0125658Y0102889D01*
X0122342Y0102889D01*
X0122342Y0106205D01*
X0122342Y0104309D02*
X0125658Y0104309D01*
X0125658Y0105729D02*
X0122342Y0105729D01*
X0122342Y0113111D02*
X0125658Y0113111D01*
X0125658Y0109795D01*
X0122342Y0109795D01*
X0122342Y0113111D01*
X0122342Y0111215D02*
X0125658Y0111215D01*
X0125658Y0112635D02*
X0122342Y0112635D01*
X0122342Y0134205D02*
X0125658Y0134205D01*
X0125658Y0130889D01*
X0122342Y0130889D01*
X0122342Y0134205D01*
X0122342Y0132309D02*
X0125658Y0132309D01*
X0125658Y0133729D02*
X0122342Y0133729D01*
X0122342Y0141111D02*
X0125658Y0141111D01*
X0125658Y0137795D01*
X0122342Y0137795D01*
X0122342Y0141111D01*
X0122342Y0139215D02*
X0125658Y0139215D01*
X0125658Y0140635D02*
X0122342Y0140635D01*
X0122342Y0162205D02*
X0125658Y0162205D01*
X0125658Y0158889D01*
X0122342Y0158889D01*
X0122342Y0162205D01*
X0122342Y0160309D02*
X0125658Y0160309D01*
X0125658Y0161729D02*
X0122342Y0161729D01*
X0122342Y0169111D02*
X0125658Y0169111D01*
X0125658Y0165795D01*
X0122342Y0165795D01*
X0122342Y0169111D01*
X0122342Y0167215D02*
X0125658Y0167215D01*
X0125658Y0168635D02*
X0122342Y0168635D01*
D14*
X0124000Y0153346D03*
X0124000Y0146654D03*
X0124000Y0125346D03*
X0124000Y0118654D03*
X0124000Y0097346D03*
X0124000Y0090654D03*
X0081000Y0090654D03*
X0081000Y0097346D03*
X0081000Y0118654D03*
X0081000Y0125346D03*
X0081000Y0146654D03*
X0081000Y0153346D03*
X0038000Y0153346D03*
X0038000Y0146654D03*
X0038000Y0125346D03*
X0038000Y0118654D03*
X0038000Y0097346D03*
X0038000Y0090654D03*
X0098000Y0028346D03*
X0098000Y0021654D03*
D15*
X0016200Y0017000D02*
X0009800Y0017000D01*
X0009800Y0027000D02*
X0016200Y0027000D01*
X0016200Y0037000D02*
X0009800Y0037000D01*
X0020800Y0095000D02*
X0027200Y0095000D01*
X0027200Y0105000D02*
X0020800Y0105000D01*
X0020800Y0123000D02*
X0027200Y0123000D01*
X0027200Y0133000D02*
X0020800Y0133000D01*
X0020800Y0151000D02*
X0027200Y0151000D01*
X0027200Y0161000D02*
X0020800Y0161000D01*
X0063800Y0161000D02*
X0070200Y0161000D01*
X0070200Y0151000D02*
X0063800Y0151000D01*
X0063800Y0133000D02*
X0070200Y0133000D01*
X0070200Y0123000D02*
X0063800Y0123000D01*
X0063800Y0105000D02*
X0070200Y0105000D01*
X0070200Y0095000D02*
X0063800Y0095000D01*
X0106800Y0095000D02*
X0113200Y0095000D01*
X0113200Y0105000D02*
X0106800Y0105000D01*
X0106800Y0123000D02*
X0113200Y0123000D01*
X0113200Y0133000D02*
X0106800Y0133000D01*
X0106800Y0151000D02*
X0113200Y0151000D01*
X0113200Y0161000D02*
X0106800Y0161000D01*
X0120800Y0037000D02*
X0127200Y0037000D01*
X0127200Y0027000D02*
X0120800Y0027000D01*
X0120800Y0017000D02*
X0127200Y0017000D01*
D16*
X0110000Y0009000D03*
X0100000Y0009000D03*
X0090000Y0009000D03*
D17*
X0100000Y0009000D03*
D18*
X0028000Y0036000D03*
M02*
