G75*
%MOIN*%
%OFA0B0*%
%FSLAX25Y25*%
%IPPOS*%
%LPD*%
%AMOC8*
5,1,8,0,0,1.08239X$1,22.5*
%
%ADD10C,0.00500*%
%ADD11C,0.00800*%
%ADD12C,0.00600*%
D10*
X0022395Y0045550D02*
X0024197Y0045550D01*
X0023296Y0045550D02*
X0023296Y0048252D01*
X0024197Y0047352D01*
X0025341Y0047802D02*
X0025341Y0046901D01*
X0025792Y0046451D01*
X0027143Y0046451D01*
X0026242Y0046451D02*
X0025341Y0045550D01*
X0027143Y0045550D02*
X0027143Y0048252D01*
X0025792Y0048252D01*
X0025341Y0047802D01*
X0028288Y0047802D02*
X0028288Y0047352D01*
X0028738Y0046901D01*
X0030090Y0046901D01*
X0031235Y0046901D02*
X0033036Y0046901D01*
X0033036Y0045550D02*
X0033036Y0048252D01*
X0031235Y0048252D02*
X0031235Y0045550D01*
X0030090Y0045550D02*
X0030090Y0048252D01*
X0028738Y0048252D01*
X0028288Y0047802D01*
X0028738Y0046901D02*
X0028288Y0046451D01*
X0028288Y0046000D01*
X0028738Y0045550D01*
X0030090Y0045550D01*
X0030677Y0048972D02*
X0015323Y0048972D01*
X0015323Y0083028D01*
X0030677Y0083028D01*
X0030677Y0048972D01*
X0045550Y0026052D02*
X0048252Y0026052D01*
X0048252Y0024250D02*
X0045550Y0026052D01*
X0045550Y0024250D02*
X0048252Y0024250D01*
X0048252Y0023105D02*
X0048252Y0021303D01*
X0045550Y0021303D01*
X0045550Y0023105D01*
X0046901Y0022204D02*
X0046901Y0021303D01*
X0054162Y0019002D02*
X0054613Y0019452D01*
X0055514Y0019452D01*
X0055964Y0019002D01*
X0057109Y0019002D02*
X0057559Y0019452D01*
X0058460Y0019452D01*
X0058910Y0019002D01*
X0058910Y0017200D01*
X0058460Y0016750D01*
X0057559Y0016750D01*
X0057109Y0017200D01*
X0057109Y0018101D01*
X0058010Y0018101D01*
X0060055Y0016750D02*
X0061857Y0016750D01*
X0061857Y0019452D01*
X0060055Y0019452D01*
X0060956Y0018101D02*
X0061857Y0018101D01*
X0063002Y0018101D02*
X0063452Y0017651D01*
X0064803Y0017651D01*
X0063903Y0017651D02*
X0063002Y0016750D01*
X0063002Y0018101D02*
X0063002Y0019002D01*
X0063452Y0019452D01*
X0064803Y0019452D01*
X0064803Y0016750D01*
X0065948Y0017200D02*
X0066399Y0016750D01*
X0067300Y0016750D01*
X0067750Y0017200D01*
X0067750Y0019002D01*
X0067300Y0019452D01*
X0066399Y0019452D01*
X0065948Y0019002D01*
X0055964Y0016750D02*
X0054162Y0018552D01*
X0054162Y0019002D01*
X0054162Y0016750D02*
X0055964Y0016750D01*
X0055464Y0033750D02*
X0053662Y0033750D01*
X0054563Y0033750D02*
X0054563Y0036452D01*
X0055464Y0035552D01*
X0056609Y0036002D02*
X0057059Y0036452D01*
X0057960Y0036452D01*
X0058410Y0036002D01*
X0058410Y0034200D01*
X0057960Y0033750D01*
X0057059Y0033750D01*
X0056609Y0034200D01*
X0056609Y0035101D01*
X0057510Y0035101D01*
X0059555Y0033750D02*
X0061357Y0033750D01*
X0061357Y0036452D01*
X0059555Y0036452D01*
X0060456Y0035101D02*
X0061357Y0035101D01*
X0062502Y0035101D02*
X0062952Y0034651D01*
X0064303Y0034651D01*
X0063403Y0034651D02*
X0062502Y0033750D01*
X0062502Y0035101D02*
X0062502Y0036002D01*
X0062952Y0036452D01*
X0064303Y0036452D01*
X0064303Y0033750D01*
X0065448Y0034200D02*
X0065899Y0033750D01*
X0066800Y0033750D01*
X0067250Y0034200D01*
X0067250Y0036002D01*
X0066800Y0036452D01*
X0065899Y0036452D01*
X0065448Y0036002D01*
X0065395Y0045550D02*
X0067197Y0045550D01*
X0065395Y0047352D01*
X0065395Y0047802D01*
X0065845Y0048252D01*
X0066746Y0048252D01*
X0067197Y0047802D01*
X0068341Y0047802D02*
X0068341Y0046901D01*
X0068792Y0046451D01*
X0070143Y0046451D01*
X0069242Y0046451D02*
X0068341Y0045550D01*
X0068341Y0047802D02*
X0068792Y0048252D01*
X0070143Y0048252D01*
X0070143Y0045550D01*
X0071288Y0046000D02*
X0071738Y0045550D01*
X0073090Y0045550D01*
X0073090Y0048252D01*
X0071738Y0048252D01*
X0071288Y0047802D01*
X0071288Y0047352D01*
X0071738Y0046901D01*
X0073090Y0046901D01*
X0074235Y0046901D02*
X0076036Y0046901D01*
X0076036Y0045550D02*
X0076036Y0048252D01*
X0074235Y0048252D02*
X0074235Y0045550D01*
X0071738Y0046901D02*
X0071288Y0046451D01*
X0071288Y0046000D01*
X0073677Y0048972D02*
X0058323Y0048972D01*
X0058323Y0083028D01*
X0073677Y0083028D01*
X0073677Y0048972D01*
X0096000Y0035244D02*
X0096000Y0034343D01*
X0096450Y0033893D01*
X0098252Y0033893D01*
X0098702Y0034343D01*
X0098702Y0035244D01*
X0098252Y0035695D01*
X0097351Y0035695D02*
X0097351Y0034794D01*
X0097351Y0035695D02*
X0096450Y0035695D01*
X0096000Y0035244D01*
X0096000Y0032748D02*
X0096000Y0030947D01*
X0098702Y0030947D01*
X0098702Y0032748D01*
X0097351Y0031847D02*
X0097351Y0030947D01*
X0097351Y0029802D02*
X0096901Y0029351D01*
X0096901Y0028000D01*
X0096901Y0028901D02*
X0096000Y0029802D01*
X0097351Y0029802D02*
X0098252Y0029802D01*
X0098702Y0029351D01*
X0098702Y0028000D01*
X0096000Y0028000D01*
X0109845Y0045550D02*
X0109395Y0046000D01*
X0109395Y0046451D01*
X0109845Y0046901D01*
X0110296Y0046901D01*
X0109845Y0046901D02*
X0109395Y0047352D01*
X0109395Y0047802D01*
X0109845Y0048252D01*
X0110746Y0048252D01*
X0111197Y0047802D01*
X0112341Y0047802D02*
X0112341Y0046901D01*
X0112792Y0046451D01*
X0114143Y0046451D01*
X0113242Y0046451D02*
X0112341Y0045550D01*
X0111197Y0046000D02*
X0110746Y0045550D01*
X0109845Y0045550D01*
X0112341Y0047802D02*
X0112792Y0048252D01*
X0114143Y0048252D01*
X0114143Y0045550D01*
X0115288Y0046000D02*
X0115738Y0045550D01*
X0117090Y0045550D01*
X0117090Y0048252D01*
X0115738Y0048252D01*
X0115288Y0047802D01*
X0115288Y0047352D01*
X0115738Y0046901D01*
X0117090Y0046901D01*
X0118235Y0046901D02*
X0120036Y0046901D01*
X0120036Y0045550D02*
X0120036Y0048252D01*
X0118235Y0048252D02*
X0118235Y0045550D01*
X0115738Y0046901D02*
X0115288Y0046451D01*
X0115288Y0046000D01*
X0116677Y0048972D02*
X0101323Y0048972D01*
X0101323Y0083028D01*
X0116677Y0083028D01*
X0116677Y0048972D01*
X0114000Y0002000D02*
X0086000Y0002000D01*
D11*
X0093500Y0019100D02*
X0106500Y0019100D01*
X0106500Y0044900D01*
X0093500Y0044900D01*
X0093500Y0019100D01*
D12*
X0058000Y0024600D02*
X0058000Y0031400D01*
X0057998Y0031460D01*
X0057993Y0031521D01*
X0057984Y0031580D01*
X0057971Y0031639D01*
X0057955Y0031698D01*
X0057935Y0031755D01*
X0057912Y0031810D01*
X0057885Y0031865D01*
X0057856Y0031917D01*
X0057823Y0031968D01*
X0057787Y0032017D01*
X0057749Y0032063D01*
X0057707Y0032107D01*
X0057663Y0032149D01*
X0057617Y0032187D01*
X0057568Y0032223D01*
X0057517Y0032256D01*
X0057465Y0032285D01*
X0057410Y0032312D01*
X0057355Y0032335D01*
X0057298Y0032355D01*
X0057239Y0032371D01*
X0057180Y0032384D01*
X0057121Y0032393D01*
X0057060Y0032398D01*
X0057000Y0032400D01*
X0051000Y0032400D01*
X0050940Y0032398D01*
X0050879Y0032393D01*
X0050820Y0032384D01*
X0050761Y0032371D01*
X0050702Y0032355D01*
X0050645Y0032335D01*
X0050590Y0032312D01*
X0050535Y0032285D01*
X0050483Y0032256D01*
X0050432Y0032223D01*
X0050383Y0032187D01*
X0050337Y0032149D01*
X0050293Y0032107D01*
X0050251Y0032063D01*
X0050213Y0032017D01*
X0050177Y0031968D01*
X0050144Y0031917D01*
X0050115Y0031865D01*
X0050088Y0031810D01*
X0050065Y0031755D01*
X0050045Y0031698D01*
X0050029Y0031639D01*
X0050016Y0031580D01*
X0050007Y0031521D01*
X0050002Y0031460D01*
X0050000Y0031400D01*
X0050000Y0024600D01*
X0050002Y0024540D01*
X0050007Y0024479D01*
X0050016Y0024420D01*
X0050029Y0024361D01*
X0050045Y0024302D01*
X0050065Y0024245D01*
X0050088Y0024190D01*
X0050115Y0024135D01*
X0050144Y0024083D01*
X0050177Y0024032D01*
X0050213Y0023983D01*
X0050251Y0023937D01*
X0050293Y0023893D01*
X0050337Y0023851D01*
X0050383Y0023813D01*
X0050432Y0023777D01*
X0050483Y0023744D01*
X0050535Y0023715D01*
X0050590Y0023688D01*
X0050645Y0023665D01*
X0050702Y0023645D01*
X0050761Y0023629D01*
X0050820Y0023616D01*
X0050879Y0023607D01*
X0050940Y0023602D01*
X0051000Y0023600D01*
X0057000Y0023600D01*
X0057060Y0023602D01*
X0057121Y0023607D01*
X0057180Y0023616D01*
X0057239Y0023629D01*
X0057298Y0023645D01*
X0057355Y0023665D01*
X0057410Y0023688D01*
X0057465Y0023715D01*
X0057517Y0023744D01*
X0057568Y0023777D01*
X0057617Y0023813D01*
X0057663Y0023851D01*
X0057707Y0023893D01*
X0057749Y0023937D01*
X0057787Y0023983D01*
X0057823Y0024032D01*
X0057856Y0024083D01*
X0057885Y0024135D01*
X0057912Y0024190D01*
X0057935Y0024245D01*
X0057955Y0024302D01*
X0057971Y0024361D01*
X0057984Y0024420D01*
X0057993Y0024479D01*
X0057998Y0024540D01*
X0058000Y0024600D01*
M02*
