G75*
%MOIN*%
%OFA0B0*%
%FSLAX25Y25*%
%IPPOS*%
%LPD*%
%AMOC8*
5,1,8,0,0,1.08239X$1,22.5*
%
%ADD10C,0.00000*%
%ADD11R,0.02200X0.05000*%
%ADD12R,0.05000X0.02200*%
%ADD13R,0.03937X0.04331*%
%ADD14C,0.01181*%
%ADD15R,0.04331X0.03937*%
%ADD16C,0.06400*%
%ADD17R,0.06000X0.13000*%
%ADD18C,0.07400*%
%ADD19OC8,0.04362*%
%ADD20C,0.01600*%
D10*
X0002000Y0002000D02*
X0002000Y0172000D01*
X0135000Y0172000D01*
X0135000Y0002000D01*
X0002000Y0002000D01*
D11*
X0044976Y0009100D03*
X0048126Y0009100D03*
X0051276Y0009100D03*
X0054425Y0009100D03*
X0057575Y0009100D03*
X0060724Y0009100D03*
X0063874Y0009100D03*
X0067024Y0009100D03*
X0067024Y0042900D03*
X0063874Y0042900D03*
X0060724Y0042900D03*
X0057575Y0042900D03*
X0054425Y0042900D03*
X0051276Y0042900D03*
X0048126Y0042900D03*
X0044976Y0042900D03*
D12*
X0039100Y0037024D03*
X0039100Y0033874D03*
X0039100Y0030724D03*
X0039100Y0027575D03*
X0039100Y0024425D03*
X0039100Y0021276D03*
X0039100Y0018126D03*
X0039100Y0014976D03*
X0072900Y0014976D03*
X0072900Y0018126D03*
X0072900Y0021276D03*
X0072900Y0024425D03*
X0072900Y0027575D03*
X0072900Y0030724D03*
X0072900Y0033874D03*
X0072900Y0037024D03*
D13*
X0029000Y0017346D03*
X0029000Y0010654D03*
D14*
X0036622Y0105925D02*
X0039378Y0105925D01*
X0039378Y0103169D01*
X0036622Y0103169D01*
X0036622Y0105925D01*
X0036622Y0104349D02*
X0039378Y0104349D01*
X0039378Y0105529D02*
X0036622Y0105529D01*
X0036622Y0112831D02*
X0039378Y0112831D01*
X0039378Y0110075D01*
X0036622Y0110075D01*
X0036622Y0112831D01*
X0036622Y0111255D02*
X0039378Y0111255D01*
X0039378Y0112435D02*
X0036622Y0112435D01*
X0036622Y0133925D02*
X0039378Y0133925D01*
X0039378Y0131169D01*
X0036622Y0131169D01*
X0036622Y0133925D01*
X0036622Y0132349D02*
X0039378Y0132349D01*
X0039378Y0133529D02*
X0036622Y0133529D01*
X0036622Y0140831D02*
X0039378Y0140831D01*
X0039378Y0138075D01*
X0036622Y0138075D01*
X0036622Y0140831D01*
X0036622Y0139255D02*
X0039378Y0139255D01*
X0039378Y0140435D02*
X0036622Y0140435D01*
X0036622Y0161925D02*
X0039378Y0161925D01*
X0039378Y0159169D01*
X0036622Y0159169D01*
X0036622Y0161925D01*
X0036622Y0160349D02*
X0039378Y0160349D01*
X0039378Y0161529D02*
X0036622Y0161529D01*
X0036622Y0168831D02*
X0039378Y0168831D01*
X0039378Y0166075D01*
X0036622Y0166075D01*
X0036622Y0168831D01*
X0036622Y0167255D02*
X0039378Y0167255D01*
X0039378Y0168435D02*
X0036622Y0168435D01*
X0079622Y0168831D02*
X0082378Y0168831D01*
X0082378Y0166075D01*
X0079622Y0166075D01*
X0079622Y0168831D01*
X0079622Y0167255D02*
X0082378Y0167255D01*
X0082378Y0168435D02*
X0079622Y0168435D01*
X0079622Y0161925D02*
X0082378Y0161925D01*
X0082378Y0159169D01*
X0079622Y0159169D01*
X0079622Y0161925D01*
X0079622Y0160349D02*
X0082378Y0160349D01*
X0082378Y0161529D02*
X0079622Y0161529D01*
X0079622Y0140831D02*
X0082378Y0140831D01*
X0082378Y0138075D01*
X0079622Y0138075D01*
X0079622Y0140831D01*
X0079622Y0139255D02*
X0082378Y0139255D01*
X0082378Y0140435D02*
X0079622Y0140435D01*
X0079622Y0133925D02*
X0082378Y0133925D01*
X0082378Y0131169D01*
X0079622Y0131169D01*
X0079622Y0133925D01*
X0079622Y0132349D02*
X0082378Y0132349D01*
X0082378Y0133529D02*
X0079622Y0133529D01*
X0079622Y0112831D02*
X0082378Y0112831D01*
X0082378Y0110075D01*
X0079622Y0110075D01*
X0079622Y0112831D01*
X0079622Y0111255D02*
X0082378Y0111255D01*
X0082378Y0112435D02*
X0079622Y0112435D01*
X0079622Y0105925D02*
X0082378Y0105925D01*
X0082378Y0103169D01*
X0079622Y0103169D01*
X0079622Y0105925D01*
X0079622Y0104349D02*
X0082378Y0104349D01*
X0082378Y0105529D02*
X0079622Y0105529D01*
X0122622Y0105925D02*
X0125378Y0105925D01*
X0125378Y0103169D01*
X0122622Y0103169D01*
X0122622Y0105925D01*
X0122622Y0104349D02*
X0125378Y0104349D01*
X0125378Y0105529D02*
X0122622Y0105529D01*
X0122622Y0112831D02*
X0125378Y0112831D01*
X0125378Y0110075D01*
X0122622Y0110075D01*
X0122622Y0112831D01*
X0122622Y0111255D02*
X0125378Y0111255D01*
X0125378Y0112435D02*
X0122622Y0112435D01*
X0122622Y0133925D02*
X0125378Y0133925D01*
X0125378Y0131169D01*
X0122622Y0131169D01*
X0122622Y0133925D01*
X0122622Y0132349D02*
X0125378Y0132349D01*
X0125378Y0133529D02*
X0122622Y0133529D01*
X0122622Y0140831D02*
X0125378Y0140831D01*
X0125378Y0138075D01*
X0122622Y0138075D01*
X0122622Y0140831D01*
X0122622Y0139255D02*
X0125378Y0139255D01*
X0125378Y0140435D02*
X0122622Y0140435D01*
X0122622Y0161925D02*
X0125378Y0161925D01*
X0125378Y0159169D01*
X0122622Y0159169D01*
X0122622Y0161925D01*
X0122622Y0160349D02*
X0125378Y0160349D01*
X0125378Y0161529D02*
X0122622Y0161529D01*
X0122622Y0168831D02*
X0125378Y0168831D01*
X0125378Y0166075D01*
X0122622Y0166075D01*
X0122622Y0168831D01*
X0122622Y0167255D02*
X0125378Y0167255D01*
X0125378Y0168435D02*
X0122622Y0168435D01*
D15*
X0124000Y0153346D03*
X0124000Y0146654D03*
X0124000Y0125346D03*
X0124000Y0118654D03*
X0124000Y0097346D03*
X0124000Y0090654D03*
X0081000Y0090654D03*
X0081000Y0097346D03*
X0081000Y0118654D03*
X0081000Y0125346D03*
X0081000Y0146654D03*
X0081000Y0153346D03*
X0038000Y0153346D03*
X0038000Y0146654D03*
X0038000Y0125346D03*
X0038000Y0118654D03*
X0038000Y0097346D03*
X0038000Y0090654D03*
X0098000Y0028346D03*
X0098000Y0021654D03*
D16*
X0120800Y0017000D02*
X0127200Y0017000D01*
X0127200Y0027000D02*
X0120800Y0027000D01*
X0120800Y0037000D02*
X0127200Y0037000D01*
X0113200Y0095000D02*
X0106800Y0095000D01*
X0106800Y0105000D02*
X0113200Y0105000D01*
X0113200Y0123000D02*
X0106800Y0123000D01*
X0106800Y0133000D02*
X0113200Y0133000D01*
X0113200Y0151000D02*
X0106800Y0151000D01*
X0106800Y0161000D02*
X0113200Y0161000D01*
X0070200Y0161000D02*
X0063800Y0161000D01*
X0063800Y0151000D02*
X0070200Y0151000D01*
X0070200Y0133000D02*
X0063800Y0133000D01*
X0063800Y0123000D02*
X0070200Y0123000D01*
X0070200Y0105000D02*
X0063800Y0105000D01*
X0063800Y0095000D02*
X0070200Y0095000D01*
X0027200Y0095000D02*
X0020800Y0095000D01*
X0020800Y0105000D02*
X0027200Y0105000D01*
X0027200Y0123000D02*
X0020800Y0123000D01*
X0020800Y0133000D02*
X0027200Y0133000D01*
X0027200Y0151000D02*
X0020800Y0151000D01*
X0020800Y0161000D02*
X0027200Y0161000D01*
X0016200Y0037000D02*
X0009800Y0037000D01*
X0009800Y0027000D02*
X0016200Y0027000D01*
X0016200Y0017000D02*
X0009800Y0017000D01*
D17*
X0090000Y0009000D03*
X0100000Y0009000D03*
X0110000Y0009000D03*
D18*
X0028000Y0036000D03*
D19*
X0037000Y0047000D03*
X0048000Y0030000D03*
X0048000Y0018000D03*
X0054000Y0018000D03*
X0064000Y0023575D03*
X0065000Y0017000D03*
X0072000Y0009000D03*
X0078000Y0010000D03*
X0080000Y0016000D03*
X0078500Y0022000D03*
X0064500Y0031500D03*
X0080000Y0039000D03*
X0082000Y0047000D03*
X0089000Y0048000D03*
X0101000Y0038000D03*
X0103000Y0029000D03*
X0113000Y0043000D03*
X0107000Y0056000D03*
X0111000Y0060000D03*
X0107000Y0064000D03*
X0111000Y0068000D03*
X0107000Y0072000D03*
X0111000Y0076000D03*
X0107000Y0080000D03*
X0101000Y0085000D03*
X0087000Y0087000D03*
X0082000Y0071000D03*
X0072000Y0086000D03*
X0064000Y0080000D03*
X0068000Y0076000D03*
X0064000Y0072000D03*
X0068000Y0068000D03*
X0064000Y0064000D03*
X0064000Y0056000D03*
X0058000Y0085000D03*
X0044000Y0087000D03*
X0039000Y0071000D03*
X0029000Y0086000D03*
X0021000Y0080000D03*
X0025000Y0076000D03*
X0021000Y0072000D03*
X0025000Y0068000D03*
X0021000Y0064000D03*
X0021000Y0056000D03*
X0019000Y0048000D03*
X0023000Y0014000D03*
X0015000Y0085000D03*
X0115000Y0086000D03*
X0130000Y0086000D03*
D20*
X0130000Y0112654D01*
X0124000Y0118654D01*
X0114346Y0118654D01*
X0110000Y0123000D01*
X0111447Y0118300D02*
X0113394Y0116354D01*
X0120335Y0116354D01*
X0120335Y0116064D01*
X0121213Y0115185D01*
X0124216Y0115185D01*
X0124480Y0114921D01*
X0121756Y0114921D01*
X0120588Y0113753D01*
X0115500Y0113753D01*
X0114153Y0112405D01*
X0111447Y0109700D01*
X0105865Y0109700D01*
X0104138Y0108984D01*
X0102816Y0107662D01*
X0102100Y0105935D01*
X0102100Y0104065D01*
X0102816Y0102338D01*
X0104138Y0101016D01*
X0105865Y0100300D01*
X0114135Y0100300D01*
X0115862Y0101016D01*
X0117184Y0102338D01*
X0117900Y0104065D01*
X0117900Y0105935D01*
X0117184Y0107662D01*
X0116550Y0108297D01*
X0117405Y0109153D01*
X0120588Y0109153D01*
X0121740Y0108000D01*
X0120531Y0106791D01*
X0120531Y0102303D01*
X0121700Y0101135D01*
X0121700Y0100815D01*
X0121213Y0100815D01*
X0120335Y0099936D01*
X0120335Y0094757D01*
X0121091Y0094000D01*
X0120335Y0093243D01*
X0120335Y0092954D01*
X0117440Y0092954D01*
X0117900Y0094065D01*
X0117900Y0095935D01*
X0117184Y0097662D01*
X0115862Y0098984D01*
X0114135Y0099700D01*
X0105865Y0099700D01*
X0104138Y0098984D01*
X0102816Y0097662D01*
X0102100Y0095935D01*
X0102100Y0094065D01*
X0102816Y0092338D01*
X0104138Y0091016D01*
X0105865Y0090300D01*
X0111447Y0090300D01*
X0112046Y0089701D01*
X0113394Y0088354D01*
X0120335Y0088354D01*
X0120335Y0088064D01*
X0121213Y0087185D01*
X0126319Y0087185D01*
X0126319Y0084475D01*
X0128475Y0082319D01*
X0131525Y0082319D01*
X0132200Y0082994D01*
X0132200Y0004800D01*
X0114500Y0004800D01*
X0114500Y0016121D01*
X0113621Y0017000D01*
X0112300Y0017000D01*
X0112300Y0031447D01*
X0116100Y0027647D01*
X0116100Y0026065D01*
X0116816Y0024338D01*
X0118138Y0023016D01*
X0119865Y0022300D01*
X0128135Y0022300D01*
X0129862Y0023016D01*
X0131184Y0024338D01*
X0131900Y0026065D01*
X0131900Y0027935D01*
X0131184Y0029662D01*
X0129862Y0030984D01*
X0128135Y0031700D01*
X0119865Y0031700D01*
X0118937Y0031316D01*
X0107300Y0042953D01*
X0106553Y0043700D01*
X0109047Y0043700D01*
X0109319Y0043428D01*
X0109319Y0041475D01*
X0111475Y0039319D01*
X0114525Y0039319D01*
X0116681Y0041475D01*
X0116681Y0043428D01*
X0122300Y0049047D01*
X0122300Y0064953D01*
X0120953Y0066300D01*
X0116953Y0070300D01*
X0113906Y0070300D01*
X0112525Y0071681D01*
X0110681Y0071681D01*
X0110681Y0072319D01*
X0112525Y0072319D01*
X0114681Y0074475D01*
X0114681Y0077525D01*
X0114506Y0077700D01*
X0118047Y0077700D01*
X0123700Y0072047D01*
X0123700Y0041700D01*
X0119865Y0041700D01*
X0118138Y0040984D01*
X0116816Y0039662D01*
X0116100Y0037935D01*
X0116100Y0036065D01*
X0116816Y0034338D01*
X0118138Y0033016D01*
X0119865Y0032300D01*
X0128135Y0032300D01*
X0129862Y0033016D01*
X0131184Y0034338D01*
X0131900Y0036065D01*
X0131900Y0037935D01*
X0131184Y0039662D01*
X0129862Y0040984D01*
X0128300Y0041632D01*
X0128300Y0073953D01*
X0126953Y0075300D01*
X0126953Y0075300D01*
X0119953Y0082300D01*
X0109906Y0082300D01*
X0108525Y0083681D01*
X0105475Y0083681D01*
X0104094Y0082300D01*
X0066906Y0082300D01*
X0065525Y0083681D01*
X0062475Y0083681D01*
X0061094Y0082300D01*
X0023906Y0082300D01*
X0022525Y0083681D01*
X0019475Y0083681D01*
X0018094Y0082300D01*
X0013047Y0082300D01*
X0004800Y0074053D01*
X0004800Y0169200D01*
X0028947Y0169200D01*
X0028153Y0168405D01*
X0025447Y0165700D01*
X0019865Y0165700D01*
X0018138Y0164984D01*
X0016816Y0163662D01*
X0016100Y0161935D01*
X0016100Y0160065D01*
X0016816Y0158338D01*
X0018138Y0157016D01*
X0019865Y0156300D01*
X0028135Y0156300D01*
X0029862Y0157016D01*
X0031184Y0158338D01*
X0031900Y0160065D01*
X0031900Y0161935D01*
X0031184Y0163662D01*
X0030550Y0164297D01*
X0031405Y0165153D01*
X0034588Y0165153D01*
X0035740Y0164000D01*
X0034531Y0162791D01*
X0034531Y0158303D01*
X0035700Y0157135D01*
X0035700Y0156815D01*
X0035213Y0156815D01*
X0034335Y0155936D01*
X0034335Y0150757D01*
X0035091Y0150000D01*
X0034335Y0149243D01*
X0034335Y0148954D01*
X0031440Y0148954D01*
X0031900Y0150065D01*
X0031900Y0151935D01*
X0031184Y0153662D01*
X0029862Y0154984D01*
X0028135Y0155700D01*
X0019865Y0155700D01*
X0018138Y0154984D01*
X0016816Y0153662D01*
X0016100Y0151935D01*
X0016100Y0150065D01*
X0016816Y0148338D01*
X0018138Y0147016D01*
X0019865Y0146300D01*
X0025447Y0146300D01*
X0027394Y0144354D01*
X0034335Y0144354D01*
X0034335Y0144064D01*
X0035213Y0143185D01*
X0040787Y0143185D01*
X0041665Y0144064D01*
X0041665Y0149243D01*
X0040909Y0150000D01*
X0041665Y0150757D01*
X0041665Y0155936D01*
X0040787Y0156815D01*
X0040300Y0156815D01*
X0040300Y0157135D01*
X0041468Y0158303D01*
X0041468Y0162791D01*
X0040260Y0164000D01*
X0041468Y0165209D01*
X0041468Y0169200D01*
X0071947Y0169200D01*
X0071153Y0168405D01*
X0068447Y0165700D01*
X0062865Y0165700D01*
X0061138Y0164984D01*
X0059816Y0163662D01*
X0059100Y0161935D01*
X0059100Y0160065D01*
X0059816Y0158338D01*
X0061138Y0157016D01*
X0062865Y0156300D01*
X0071135Y0156300D01*
X0072862Y0157016D01*
X0074184Y0158338D01*
X0074900Y0160065D01*
X0074900Y0161935D01*
X0074184Y0163662D01*
X0073550Y0164297D01*
X0074405Y0165153D01*
X0077588Y0165153D01*
X0078740Y0164000D01*
X0077531Y0162791D01*
X0077531Y0158303D01*
X0078700Y0157135D01*
X0078700Y0156815D01*
X0078213Y0156815D01*
X0077335Y0155936D01*
X0077335Y0150757D01*
X0078091Y0150000D01*
X0077335Y0149243D01*
X0077335Y0148954D01*
X0074440Y0148954D01*
X0074900Y0150065D01*
X0074900Y0151935D01*
X0074184Y0153662D01*
X0072862Y0154984D01*
X0071135Y0155700D01*
X0062865Y0155700D01*
X0061138Y0154984D01*
X0059816Y0153662D01*
X0059100Y0151935D01*
X0059100Y0150065D01*
X0059816Y0148338D01*
X0061138Y0147016D01*
X0062865Y0146300D01*
X0068447Y0146300D01*
X0069046Y0145701D01*
X0070394Y0144354D01*
X0077335Y0144354D01*
X0077335Y0144064D01*
X0078213Y0143185D01*
X0083787Y0143185D01*
X0084665Y0144064D01*
X0084665Y0149243D01*
X0083909Y0150000D01*
X0084665Y0150757D01*
X0084665Y0155936D01*
X0083787Y0156815D01*
X0083300Y0156815D01*
X0083300Y0157135D01*
X0084468Y0158303D01*
X0084468Y0162791D01*
X0083260Y0164000D01*
X0084468Y0165209D01*
X0084468Y0169200D01*
X0114947Y0169200D01*
X0114153Y0168405D01*
X0111447Y0165700D01*
X0105865Y0165700D01*
X0104138Y0164984D01*
X0102816Y0163662D01*
X0102100Y0161935D01*
X0102100Y0160065D01*
X0102816Y0158338D01*
X0104138Y0157016D01*
X0105865Y0156300D01*
X0114135Y0156300D01*
X0115862Y0157016D01*
X0117184Y0158338D01*
X0117900Y0160065D01*
X0117900Y0161935D01*
X0117184Y0163662D01*
X0116550Y0164297D01*
X0117405Y0165153D01*
X0120588Y0165153D01*
X0121740Y0164000D01*
X0120531Y0162791D01*
X0120531Y0158303D01*
X0121700Y0157135D01*
X0121700Y0156815D01*
X0121213Y0156815D01*
X0120335Y0155936D01*
X0120335Y0150757D01*
X0121091Y0150000D01*
X0120335Y0149243D01*
X0120335Y0148954D01*
X0117440Y0148954D01*
X0117900Y0150065D01*
X0117900Y0151935D01*
X0117184Y0153662D01*
X0115862Y0154984D01*
X0114135Y0155700D01*
X0105865Y0155700D01*
X0104138Y0154984D01*
X0102816Y0153662D01*
X0102100Y0151935D01*
X0102100Y0150065D01*
X0102816Y0148338D01*
X0104138Y0147016D01*
X0105865Y0146300D01*
X0111447Y0146300D01*
X0112046Y0145701D01*
X0113394Y0144354D01*
X0120335Y0144354D01*
X0120335Y0144064D01*
X0121213Y0143185D01*
X0126787Y0143185D01*
X0127665Y0144064D01*
X0127665Y0149243D01*
X0126909Y0150000D01*
X0127665Y0150757D01*
X0127665Y0155936D01*
X0126787Y0156815D01*
X0126300Y0156815D01*
X0126300Y0157135D01*
X0127468Y0158303D01*
X0127468Y0162791D01*
X0126260Y0164000D01*
X0127468Y0165209D01*
X0127468Y0169200D01*
X0132200Y0169200D01*
X0132200Y0113706D01*
X0127665Y0118241D01*
X0127665Y0121243D01*
X0126909Y0122000D01*
X0127665Y0122757D01*
X0127665Y0127936D01*
X0126787Y0128815D01*
X0126300Y0128815D01*
X0126300Y0129135D01*
X0127468Y0130303D01*
X0127468Y0134791D01*
X0126260Y0136000D01*
X0127468Y0137209D01*
X0127468Y0141697D01*
X0126244Y0142921D01*
X0121756Y0142921D01*
X0120588Y0141753D01*
X0115500Y0141753D01*
X0114153Y0140405D01*
X0111447Y0137700D01*
X0105865Y0137700D01*
X0104138Y0136984D01*
X0102816Y0135662D01*
X0102100Y0133935D01*
X0102100Y0132065D01*
X0102816Y0130338D01*
X0104138Y0129016D01*
X0105865Y0128300D01*
X0114135Y0128300D01*
X0115862Y0129016D01*
X0117184Y0130338D01*
X0117900Y0132065D01*
X0117900Y0133935D01*
X0117184Y0135662D01*
X0116550Y0136297D01*
X0117405Y0137153D01*
X0120588Y0137153D01*
X0121740Y0136000D01*
X0120531Y0134791D01*
X0120531Y0130303D01*
X0121700Y0129135D01*
X0121700Y0128815D01*
X0121213Y0128815D01*
X0120335Y0127936D01*
X0120335Y0122757D01*
X0121091Y0122000D01*
X0120335Y0121243D01*
X0120335Y0120954D01*
X0117440Y0120954D01*
X0117900Y0122065D01*
X0117900Y0123935D01*
X0117184Y0125662D01*
X0115862Y0126984D01*
X0114135Y0127700D01*
X0105865Y0127700D01*
X0104138Y0126984D01*
X0102816Y0125662D01*
X0102100Y0123935D01*
X0102100Y0122065D01*
X0102816Y0120338D01*
X0104138Y0119016D01*
X0105865Y0118300D01*
X0111447Y0118300D01*
X0112654Y0117093D02*
X0085813Y0117093D01*
X0084665Y0118241D02*
X0084665Y0121243D01*
X0083909Y0122000D01*
X0084665Y0122757D01*
X0084665Y0127936D01*
X0083787Y0128815D01*
X0083300Y0128815D01*
X0083300Y0129135D01*
X0084468Y0130303D01*
X0084468Y0134791D01*
X0083260Y0136000D01*
X0084468Y0137209D01*
X0084468Y0141697D01*
X0083244Y0142921D01*
X0078756Y0142921D01*
X0077588Y0141753D01*
X0072500Y0141753D01*
X0071153Y0140405D01*
X0068447Y0137700D01*
X0062865Y0137700D01*
X0061138Y0136984D01*
X0059816Y0135662D01*
X0059100Y0133935D01*
X0059100Y0132065D01*
X0059816Y0130338D01*
X0061138Y0129016D01*
X0062865Y0128300D01*
X0071135Y0128300D01*
X0072862Y0129016D01*
X0074184Y0130338D01*
X0074900Y0132065D01*
X0074900Y0133935D01*
X0074184Y0135662D01*
X0073550Y0136297D01*
X0074405Y0137153D01*
X0077588Y0137153D01*
X0078740Y0136000D01*
X0077531Y0134791D01*
X0077531Y0130303D01*
X0078700Y0129135D01*
X0078700Y0128815D01*
X0078213Y0128815D01*
X0077335Y0127936D01*
X0077335Y0122757D01*
X0078091Y0122000D01*
X0077335Y0121243D01*
X0077335Y0120954D01*
X0074440Y0120954D01*
X0074900Y0122065D01*
X0074900Y0123935D01*
X0074184Y0125662D01*
X0072862Y0126984D01*
X0071135Y0127700D01*
X0062865Y0127700D01*
X0061138Y0126984D01*
X0059816Y0125662D01*
X0059100Y0123935D01*
X0059100Y0122065D01*
X0059816Y0120338D01*
X0061138Y0119016D01*
X0062865Y0118300D01*
X0068447Y0118300D01*
X0069046Y0117701D01*
X0070394Y0116354D01*
X0077335Y0116354D01*
X0077335Y0116064D01*
X0078213Y0115185D01*
X0081216Y0115185D01*
X0081480Y0114921D01*
X0078756Y0114921D01*
X0077588Y0113753D01*
X0072500Y0113753D01*
X0071153Y0112405D01*
X0068447Y0109700D01*
X0062865Y0109700D01*
X0061138Y0108984D01*
X0059816Y0107662D01*
X0059100Y0105935D01*
X0059100Y0104065D01*
X0059816Y0102338D01*
X0061138Y0101016D01*
X0062865Y0100300D01*
X0071135Y0100300D01*
X0072862Y0101016D01*
X0074184Y0102338D01*
X0074900Y0104065D01*
X0074900Y0105935D01*
X0074184Y0107662D01*
X0073550Y0108297D01*
X0074405Y0109153D01*
X0077588Y0109153D01*
X0078740Y0108000D01*
X0077531Y0106791D01*
X0077531Y0102303D01*
X0078700Y0101135D01*
X0078700Y0100815D01*
X0078213Y0100815D01*
X0077335Y0099936D01*
X0077335Y0094757D01*
X0078091Y0094000D01*
X0077335Y0093243D01*
X0077335Y0092954D01*
X0074440Y0092954D01*
X0074900Y0094065D01*
X0074900Y0095935D01*
X0074184Y0097662D01*
X0072862Y0098984D01*
X0071135Y0099700D01*
X0062865Y0099700D01*
X0061138Y0098984D01*
X0059816Y0097662D01*
X0059100Y0095935D01*
X0059100Y0094065D01*
X0059816Y0092338D01*
X0061138Y0091016D01*
X0062865Y0090300D01*
X0068447Y0090300D01*
X0069046Y0089701D01*
X0070394Y0088354D01*
X0077335Y0088354D01*
X0077335Y0088064D01*
X0078213Y0087185D01*
X0083319Y0087185D01*
X0083319Y0085475D01*
X0085475Y0083319D01*
X0088525Y0083319D01*
X0090681Y0085475D01*
X0090681Y0088525D01*
X0089300Y0089906D01*
X0089300Y0113606D01*
X0084665Y0118241D01*
X0084665Y0118691D02*
X0104920Y0118691D01*
X0102863Y0120290D02*
X0084665Y0120290D01*
X0084020Y0121888D02*
X0102173Y0121888D01*
X0102100Y0123487D02*
X0084665Y0123487D01*
X0084665Y0125085D02*
X0102577Y0125085D01*
X0103837Y0126684D02*
X0084665Y0126684D01*
X0084319Y0128282D02*
X0120681Y0128282D01*
X0120954Y0129881D02*
X0116728Y0129881D01*
X0117657Y0131479D02*
X0120531Y0131479D01*
X0120531Y0133078D02*
X0117900Y0133078D01*
X0117593Y0134676D02*
X0120531Y0134676D01*
X0121465Y0136275D02*
X0116572Y0136275D01*
X0116453Y0139453D02*
X0124000Y0139453D01*
X0126535Y0136275D02*
X0132200Y0136275D01*
X0132200Y0137873D02*
X0127468Y0137873D01*
X0127468Y0139472D02*
X0132200Y0139472D01*
X0132200Y0141070D02*
X0127468Y0141070D01*
X0126496Y0142669D02*
X0132200Y0142669D01*
X0132200Y0144268D02*
X0127665Y0144268D01*
X0127665Y0145866D02*
X0132200Y0145866D01*
X0132200Y0147465D02*
X0127665Y0147465D01*
X0127665Y0149063D02*
X0132200Y0149063D01*
X0132200Y0150662D02*
X0127570Y0150662D01*
X0127665Y0152260D02*
X0132200Y0152260D01*
X0132200Y0153859D02*
X0127665Y0153859D01*
X0127665Y0155457D02*
X0132200Y0155457D01*
X0132200Y0157056D02*
X0126300Y0157056D01*
X0127468Y0158654D02*
X0132200Y0158654D01*
X0132200Y0160253D02*
X0127468Y0160253D01*
X0127468Y0161851D02*
X0132200Y0161851D01*
X0132200Y0163450D02*
X0126810Y0163450D01*
X0127308Y0165048D02*
X0132200Y0165048D01*
X0132200Y0166647D02*
X0127468Y0166647D01*
X0127468Y0168245D02*
X0132200Y0168245D01*
X0124000Y0167453D02*
X0116453Y0167453D01*
X0110000Y0161000D01*
X0112394Y0166647D02*
X0084468Y0166647D01*
X0084468Y0168245D02*
X0113992Y0168245D01*
X0117301Y0165048D02*
X0120692Y0165048D01*
X0121190Y0163450D02*
X0117273Y0163450D01*
X0117900Y0161851D02*
X0120531Y0161851D01*
X0120531Y0160253D02*
X0117900Y0160253D01*
X0117316Y0158654D02*
X0120531Y0158654D01*
X0121700Y0157056D02*
X0115902Y0157056D01*
X0114721Y0155457D02*
X0120335Y0155457D01*
X0120335Y0153859D02*
X0116988Y0153859D01*
X0117765Y0152260D02*
X0120335Y0152260D01*
X0120430Y0150662D02*
X0117900Y0150662D01*
X0117485Y0149063D02*
X0120335Y0149063D01*
X0120335Y0144268D02*
X0084665Y0144268D01*
X0084665Y0145866D02*
X0111881Y0145866D01*
X0114346Y0146654D02*
X0124000Y0146654D01*
X0121504Y0142669D02*
X0083496Y0142669D01*
X0084468Y0141070D02*
X0114818Y0141070D01*
X0113219Y0139472D02*
X0084468Y0139472D01*
X0084468Y0137873D02*
X0111621Y0137873D01*
X0116453Y0139453D02*
X0110000Y0133000D01*
X0116163Y0126684D02*
X0120335Y0126684D01*
X0120335Y0125085D02*
X0117423Y0125085D01*
X0117900Y0123487D02*
X0120335Y0123487D01*
X0120980Y0121888D02*
X0117827Y0121888D01*
X0124000Y0125346D02*
X0124000Y0132547D01*
X0127046Y0129881D02*
X0132200Y0129881D01*
X0132200Y0131479D02*
X0127468Y0131479D01*
X0127468Y0133078D02*
X0132200Y0133078D01*
X0132200Y0134676D02*
X0127468Y0134676D01*
X0127319Y0128282D02*
X0132200Y0128282D01*
X0132200Y0126684D02*
X0127665Y0126684D01*
X0127665Y0125085D02*
X0132200Y0125085D01*
X0132200Y0123487D02*
X0127665Y0123487D01*
X0127020Y0121888D02*
X0132200Y0121888D01*
X0132200Y0120290D02*
X0127665Y0120290D01*
X0127665Y0118691D02*
X0132200Y0118691D01*
X0132200Y0117093D02*
X0128813Y0117093D01*
X0130412Y0115494D02*
X0132200Y0115494D01*
X0132200Y0113896D02*
X0132010Y0113896D01*
X0127700Y0111701D02*
X0127700Y0088906D01*
X0127665Y0088871D01*
X0127665Y0093243D01*
X0126909Y0094000D01*
X0127665Y0094757D01*
X0127665Y0099936D01*
X0126787Y0100815D01*
X0126300Y0100815D01*
X0126300Y0101135D01*
X0127468Y0102303D01*
X0127468Y0106791D01*
X0126260Y0108000D01*
X0127468Y0109209D01*
X0127468Y0111932D01*
X0127700Y0111701D01*
X0127700Y0110699D02*
X0127468Y0110699D01*
X0127360Y0109100D02*
X0127700Y0109100D01*
X0127700Y0107502D02*
X0126758Y0107502D01*
X0127468Y0105903D02*
X0127700Y0105903D01*
X0127700Y0104305D02*
X0127468Y0104305D01*
X0127468Y0102706D02*
X0127700Y0102706D01*
X0127700Y0101108D02*
X0126300Y0101108D01*
X0127665Y0099509D02*
X0127700Y0099509D01*
X0127665Y0097911D02*
X0127700Y0097911D01*
X0127665Y0096312D02*
X0127700Y0096312D01*
X0127700Y0094714D02*
X0127622Y0094714D01*
X0127665Y0093115D02*
X0127700Y0093115D01*
X0127665Y0091517D02*
X0127700Y0091517D01*
X0127665Y0089918D02*
X0127700Y0089918D01*
X0126319Y0086721D02*
X0090681Y0086721D01*
X0090681Y0088320D02*
X0120335Y0088320D01*
X0119000Y0086000D02*
X0132000Y0073000D01*
X0132000Y0019000D01*
X0130000Y0017000D01*
X0124000Y0017000D01*
X0124200Y0017200D02*
X0123800Y0017200D01*
X0123800Y0022000D01*
X0120406Y0022000D01*
X0119629Y0021877D01*
X0118881Y0021634D01*
X0118179Y0021276D01*
X0117543Y0020814D01*
X0116986Y0020257D01*
X0116524Y0019621D01*
X0116166Y0018919D01*
X0115923Y0018171D01*
X0115800Y0017394D01*
X0115800Y0017200D01*
X0123800Y0017200D01*
X0123800Y0016800D01*
X0124200Y0016800D01*
X0124200Y0017200D01*
X0124200Y0022000D01*
X0127594Y0022000D01*
X0128371Y0021877D01*
X0129119Y0021634D01*
X0129821Y0021276D01*
X0130457Y0020814D01*
X0131014Y0020257D01*
X0131476Y0019621D01*
X0131834Y0018919D01*
X0132077Y0018171D01*
X0132200Y0017394D01*
X0132200Y0017200D01*
X0124200Y0017200D01*
X0124200Y0016800D02*
X0132200Y0016800D01*
X0132200Y0016606D01*
X0132077Y0015829D01*
X0131834Y0015081D01*
X0131476Y0014379D01*
X0131014Y0013743D01*
X0130457Y0013186D01*
X0129821Y0012724D01*
X0129119Y0012366D01*
X0128371Y0012123D01*
X0127594Y0012000D01*
X0124200Y0012000D01*
X0124200Y0016800D01*
X0123800Y0016800D02*
X0123800Y0012000D01*
X0120406Y0012000D01*
X0119629Y0012123D01*
X0118881Y0012366D01*
X0118179Y0012724D01*
X0117543Y0013186D01*
X0116986Y0013743D01*
X0116524Y0014379D01*
X0116166Y0015081D01*
X0115923Y0015829D01*
X0115800Y0016606D01*
X0115800Y0016800D01*
X0123800Y0016800D01*
X0123800Y0016387D02*
X0124200Y0016387D01*
X0124200Y0017985D02*
X0123800Y0017985D01*
X0123800Y0019584D02*
X0124200Y0019584D01*
X0124200Y0021182D02*
X0123800Y0021182D01*
X0124000Y0027000D02*
X0120000Y0027000D01*
X0105000Y0042000D01*
X0099500Y0042000D01*
X0082500Y0025000D01*
X0082500Y0018500D01*
X0080000Y0016000D01*
X0077113Y0018319D02*
X0076900Y0018106D01*
X0076900Y0018394D01*
X0076975Y0018319D01*
X0077113Y0018319D01*
X0078500Y0022000D02*
X0078500Y0025500D01*
X0099000Y0046000D01*
X0110000Y0046000D01*
X0113000Y0043000D01*
X0120000Y0050000D01*
X0120000Y0064000D01*
X0116000Y0068000D01*
X0111000Y0068000D01*
X0105000Y0068000D01*
X0099000Y0062000D01*
X0071000Y0062000D01*
X0068000Y0065000D01*
X0068000Y0068000D01*
X0062000Y0068000D01*
X0056000Y0062000D01*
X0028000Y0062000D01*
X0025000Y0065000D01*
X0025000Y0068000D01*
X0027729Y0065523D02*
X0028681Y0066475D01*
X0028681Y0067066D01*
X0031447Y0064300D01*
X0028953Y0064300D01*
X0027729Y0065523D01*
X0028146Y0065940D02*
X0029807Y0065940D01*
X0028911Y0064342D02*
X0031405Y0064342D01*
X0034000Y0065000D02*
X0055161Y0065000D01*
X0062161Y0072000D01*
X0064000Y0072000D01*
X0070000Y0072000D01*
X0077000Y0065000D01*
X0098161Y0065000D01*
X0105161Y0072000D01*
X0107000Y0072000D01*
X0103494Y0073700D02*
X0103319Y0073525D01*
X0103319Y0073410D01*
X0102861Y0072953D01*
X0097209Y0067300D01*
X0077953Y0067300D01*
X0071229Y0074023D01*
X0071681Y0074475D01*
X0071681Y0077525D01*
X0071506Y0077700D01*
X0085447Y0077700D01*
X0084700Y0076953D01*
X0082428Y0074681D01*
X0080475Y0074681D01*
X0078319Y0072525D01*
X0078319Y0069475D01*
X0080475Y0067319D01*
X0083525Y0067319D01*
X0085681Y0069475D01*
X0085681Y0071428D01*
X0087953Y0073700D01*
X0103494Y0073700D01*
X0102243Y0072334D02*
X0086587Y0072334D01*
X0085681Y0070736D02*
X0100645Y0070736D01*
X0099046Y0069137D02*
X0085343Y0069137D01*
X0083745Y0067539D02*
X0097448Y0067539D01*
X0102000Y0059000D02*
X0107000Y0064000D01*
X0113000Y0064000D01*
X0116000Y0061000D01*
X0116000Y0055000D01*
X0110000Y0049000D01*
X0098000Y0049000D01*
X0079724Y0030724D01*
X0072900Y0030724D01*
X0065276Y0030724D01*
X0064500Y0031500D01*
X0067236Y0033970D02*
X0068900Y0033970D01*
X0068900Y0033024D02*
X0068181Y0033024D01*
X0068181Y0033025D01*
X0066025Y0035181D01*
X0065934Y0035181D01*
X0066453Y0035700D01*
X0068900Y0035700D01*
X0068900Y0033024D01*
X0068900Y0035569D02*
X0066321Y0035569D01*
X0065500Y0038000D02*
X0058500Y0031000D01*
X0058500Y0027500D01*
X0062425Y0023575D01*
X0064000Y0023575D01*
X0068000Y0027575D01*
X0072900Y0027575D01*
X0076900Y0027576D02*
X0077324Y0027576D01*
X0076900Y0027153D02*
X0078172Y0028424D01*
X0076900Y0028424D01*
X0076900Y0027153D01*
X0075874Y0033874D02*
X0072900Y0033874D01*
X0075874Y0033874D02*
X0076000Y0034000D01*
X0079000Y0034000D01*
X0080000Y0035000D01*
X0080000Y0039000D01*
X0080000Y0045000D01*
X0082000Y0047000D01*
X0078319Y0047066D02*
X0078319Y0046572D01*
X0078300Y0046553D01*
X0078300Y0047047D01*
X0078319Y0047066D01*
X0078300Y0046758D02*
X0078319Y0046758D01*
X0076000Y0048000D02*
X0080000Y0052000D01*
X0086000Y0052000D01*
X0089000Y0049000D01*
X0089000Y0048000D01*
X0086634Y0045160D02*
X0085366Y0045160D01*
X0085681Y0045475D02*
X0083525Y0043319D01*
X0082300Y0043319D01*
X0082300Y0041906D01*
X0083681Y0040525D01*
X0083681Y0037934D01*
X0090066Y0044319D01*
X0087475Y0044319D01*
X0085681Y0046113D01*
X0085681Y0045475D01*
X0083767Y0043561D02*
X0089309Y0043561D01*
X0087710Y0041963D02*
X0082300Y0041963D01*
X0083681Y0040364D02*
X0086112Y0040364D01*
X0084513Y0038766D02*
X0083681Y0038766D01*
X0076000Y0038000D02*
X0075000Y0037000D01*
X0072924Y0037000D01*
X0072900Y0037024D01*
X0072876Y0039624D02*
X0073700Y0040447D01*
X0073700Y0039624D01*
X0072876Y0039624D01*
X0073617Y0040364D02*
X0073700Y0040364D01*
X0072000Y0042000D02*
X0068000Y0038000D01*
X0065500Y0038000D01*
X0063874Y0039874D02*
X0056000Y0032000D01*
X0056000Y0026000D01*
X0065000Y0017000D01*
X0062000Y0014000D01*
X0059000Y0014000D01*
X0060724Y0012276D01*
X0060724Y0009100D01*
X0057575Y0009100D02*
X0057575Y0004800D01*
X0058912Y0004800D01*
X0059370Y0004923D01*
X0059677Y0005100D01*
X0068745Y0005100D01*
X0069624Y0005979D01*
X0069624Y0006171D01*
X0070475Y0005319D01*
X0072428Y0005319D01*
X0072700Y0005047D01*
X0072947Y0004800D01*
X0004800Y0004800D01*
X0004800Y0015947D01*
X0005395Y0015352D01*
X0005816Y0014338D01*
X0007138Y0013016D01*
X0008865Y0012300D01*
X0017135Y0012300D01*
X0018862Y0013016D01*
X0020184Y0014338D01*
X0020900Y0016065D01*
X0020900Y0017935D01*
X0020469Y0018976D01*
X0025231Y0018976D01*
X0025231Y0017531D01*
X0028816Y0017531D01*
X0028816Y0017162D01*
X0025231Y0017162D01*
X0025231Y0014944D01*
X0025354Y0014486D01*
X0025591Y0014076D01*
X0025879Y0013788D01*
X0025531Y0013440D01*
X0025531Y0007867D01*
X0026410Y0006988D01*
X0031590Y0006988D01*
X0032468Y0007867D01*
X0032468Y0008354D01*
X0041606Y0008354D01*
X0042376Y0009124D01*
X0042376Y0005979D01*
X0043255Y0005100D01*
X0049174Y0005100D01*
X0049481Y0004923D01*
X0049939Y0004800D01*
X0051276Y0004800D01*
X0052613Y0004800D01*
X0053070Y0004923D01*
X0053378Y0005100D01*
X0055473Y0005100D01*
X0055780Y0004923D01*
X0056238Y0004800D01*
X0057575Y0004800D01*
X0057575Y0009100D01*
X0057575Y0009100D01*
X0057575Y0005575D01*
X0057000Y0005000D01*
X0052000Y0005000D01*
X0027000Y0005000D01*
X0023000Y0009000D01*
X0023000Y0014000D01*
X0026346Y0017346D01*
X0029000Y0017346D01*
X0029184Y0017162D02*
X0029184Y0017531D01*
X0032768Y0017531D01*
X0032768Y0018976D01*
X0035100Y0018976D01*
X0035100Y0016698D01*
X0035100Y0013255D01*
X0035402Y0012954D01*
X0032468Y0012954D01*
X0032468Y0013440D01*
X0032121Y0013788D01*
X0032409Y0014076D01*
X0032646Y0014486D01*
X0032768Y0014944D01*
X0032768Y0017162D01*
X0029184Y0017162D01*
X0032768Y0016387D02*
X0035100Y0016387D01*
X0035100Y0017985D02*
X0032768Y0017985D01*
X0032727Y0014788D02*
X0035100Y0014788D01*
X0035165Y0013190D02*
X0032468Y0013190D01*
X0029000Y0010654D02*
X0040654Y0010654D01*
X0044000Y0014000D01*
X0056000Y0014000D01*
X0059000Y0014000D01*
X0057506Y0016300D02*
X0057681Y0016475D01*
X0057681Y0019525D01*
X0055525Y0021681D01*
X0053572Y0021681D01*
X0049875Y0025378D01*
X0048934Y0026319D01*
X0049525Y0026319D01*
X0051681Y0028475D01*
X0051681Y0031525D01*
X0050300Y0032906D01*
X0050300Y0034953D01*
X0046353Y0038900D01*
X0046698Y0038900D01*
X0052323Y0038900D01*
X0052630Y0038723D01*
X0053088Y0038600D01*
X0054425Y0038600D01*
X0054425Y0042900D01*
X0054425Y0047200D01*
X0053088Y0047200D01*
X0052630Y0047077D01*
X0052323Y0046900D01*
X0043255Y0046900D01*
X0042376Y0046021D01*
X0042376Y0042876D01*
X0042300Y0042953D01*
X0040953Y0044300D01*
X0034953Y0044300D01*
X0029553Y0049700D01*
X0063047Y0049700D01*
X0064700Y0048047D01*
X0064700Y0046900D01*
X0062446Y0046900D01*
X0056527Y0046900D01*
X0056220Y0047077D01*
X0055762Y0047200D01*
X0054425Y0047200D01*
X0054425Y0042900D01*
X0054425Y0042900D01*
X0054425Y0042900D01*
X0054425Y0046575D01*
X0053000Y0048000D01*
X0038000Y0048000D01*
X0037000Y0047000D01*
X0034093Y0045160D02*
X0042376Y0045160D01*
X0042376Y0043561D02*
X0041691Y0043561D01*
X0042300Y0042953D02*
X0042300Y0042953D01*
X0040000Y0042000D02*
X0048000Y0034000D01*
X0048000Y0030000D01*
X0045218Y0027576D02*
X0043100Y0027576D01*
X0043100Y0026725D02*
X0043100Y0035647D01*
X0045700Y0033047D01*
X0045700Y0032906D01*
X0044319Y0031525D01*
X0044319Y0028475D01*
X0046069Y0026725D01*
X0043100Y0026725D01*
X0043100Y0029175D02*
X0044319Y0029175D01*
X0044319Y0030773D02*
X0043100Y0030773D01*
X0043100Y0032372D02*
X0045166Y0032372D01*
X0044777Y0033970D02*
X0043100Y0033970D01*
X0043100Y0035569D02*
X0043179Y0035569D01*
X0046487Y0038766D02*
X0052556Y0038766D01*
X0054425Y0038766D02*
X0054425Y0038766D01*
X0054425Y0038600D02*
X0055762Y0038600D01*
X0056220Y0038723D01*
X0056527Y0038900D01*
X0059647Y0038900D01*
X0055047Y0034300D01*
X0053700Y0032953D01*
X0053700Y0025047D01*
X0061319Y0017428D01*
X0061319Y0016572D01*
X0061047Y0016300D01*
X0057506Y0016300D01*
X0057592Y0016387D02*
X0061134Y0016387D01*
X0060762Y0017985D02*
X0057681Y0017985D01*
X0057622Y0019584D02*
X0059164Y0019584D01*
X0057565Y0021182D02*
X0056024Y0021182D01*
X0055967Y0022781D02*
X0052472Y0022781D01*
X0050873Y0024379D02*
X0054368Y0024379D01*
X0053700Y0025978D02*
X0049275Y0025978D01*
X0049875Y0025378D02*
X0049875Y0025378D01*
X0050782Y0027576D02*
X0053700Y0027576D01*
X0053700Y0029175D02*
X0051681Y0029175D01*
X0051681Y0030773D02*
X0053700Y0030773D01*
X0053700Y0032372D02*
X0050834Y0032372D01*
X0050300Y0033970D02*
X0054718Y0033970D01*
X0056316Y0035569D02*
X0049684Y0035569D01*
X0048085Y0037167D02*
X0057915Y0037167D01*
X0059513Y0038766D02*
X0056295Y0038766D01*
X0054425Y0038600D02*
X0054425Y0042900D01*
X0054425Y0043561D02*
X0054425Y0043561D01*
X0054425Y0041963D02*
X0054425Y0041963D01*
X0054425Y0040364D02*
X0054425Y0040364D01*
X0054425Y0045160D02*
X0054425Y0045160D01*
X0054425Y0046758D02*
X0054425Y0046758D01*
X0063874Y0042900D02*
X0063874Y0039874D01*
X0064000Y0042774D02*
X0063874Y0042900D01*
X0064000Y0043026D01*
X0067000Y0042924D02*
X0067024Y0042900D01*
X0067000Y0042924D02*
X0067000Y0049000D01*
X0064000Y0052000D01*
X0026000Y0052000D01*
X0026000Y0050000D01*
X0034000Y0042000D01*
X0040000Y0042000D01*
X0039047Y0039700D02*
X0039124Y0039624D01*
X0035979Y0039624D01*
X0035100Y0038745D01*
X0035100Y0023576D01*
X0019677Y0023576D01*
X0019550Y0023703D01*
X0020184Y0024338D01*
X0020900Y0026065D01*
X0020900Y0027935D01*
X0020184Y0029662D01*
X0018862Y0030984D01*
X0017135Y0031700D01*
X0008865Y0031700D01*
X0007300Y0031052D01*
X0007300Y0032662D01*
X0007881Y0032366D01*
X0008629Y0032123D01*
X0009406Y0032000D01*
X0012800Y0032000D01*
X0012800Y0036800D01*
X0013200Y0036800D01*
X0013200Y0037200D01*
X0012800Y0037200D01*
X0012800Y0042000D01*
X0009406Y0042000D01*
X0008629Y0041877D01*
X0007881Y0041634D01*
X0007300Y0041338D01*
X0007300Y0056447D01*
X0015319Y0048428D01*
X0015319Y0046475D01*
X0017475Y0044319D01*
X0020525Y0044319D01*
X0022681Y0046475D01*
X0022681Y0049525D01*
X0022506Y0049700D01*
X0023700Y0049700D01*
X0023700Y0049047D01*
X0031700Y0041047D01*
X0033047Y0039700D01*
X0039047Y0039700D01*
X0035121Y0038766D02*
X0032483Y0038766D01*
X0032408Y0038946D02*
X0030946Y0040408D01*
X0029034Y0041200D01*
X0026966Y0041200D01*
X0025054Y0040408D01*
X0023592Y0038946D01*
X0022800Y0037034D01*
X0022800Y0034966D01*
X0023592Y0033054D01*
X0025054Y0031592D01*
X0026966Y0030800D01*
X0029034Y0030800D01*
X0030946Y0031592D01*
X0032408Y0033054D01*
X0033200Y0034966D01*
X0033200Y0037034D01*
X0032408Y0038946D01*
X0032383Y0040364D02*
X0030990Y0040364D01*
X0030785Y0041963D02*
X0016828Y0041963D01*
X0016594Y0042000D02*
X0013200Y0042000D01*
X0013200Y0037200D01*
X0021200Y0037200D01*
X0021200Y0037394D01*
X0021077Y0038171D01*
X0020834Y0038919D01*
X0020476Y0039621D01*
X0020014Y0040257D01*
X0019457Y0040814D01*
X0018821Y0041276D01*
X0018119Y0041634D01*
X0017371Y0041877D01*
X0016594Y0042000D01*
X0016634Y0045160D02*
X0007300Y0045160D01*
X0007300Y0046758D02*
X0015319Y0046758D01*
X0015319Y0048357D02*
X0007300Y0048357D01*
X0007300Y0049955D02*
X0013792Y0049955D01*
X0012193Y0051554D02*
X0007300Y0051554D01*
X0007300Y0053152D02*
X0010595Y0053152D01*
X0008996Y0054751D02*
X0007300Y0054751D01*
X0007300Y0056349D02*
X0007398Y0056349D01*
X0009000Y0058000D02*
X0019000Y0048000D01*
X0021366Y0045160D02*
X0027587Y0045160D01*
X0029186Y0043561D02*
X0007300Y0043561D01*
X0007300Y0041963D02*
X0009172Y0041963D01*
X0012800Y0041963D02*
X0013200Y0041963D01*
X0013200Y0040364D02*
X0012800Y0040364D01*
X0012800Y0038766D02*
X0013200Y0038766D01*
X0013200Y0037167D02*
X0022855Y0037167D01*
X0022800Y0035569D02*
X0020992Y0035569D01*
X0021077Y0035829D02*
X0021200Y0036606D01*
X0021200Y0036800D01*
X0013200Y0036800D01*
X0013200Y0032000D01*
X0016594Y0032000D01*
X0017371Y0032123D01*
X0018119Y0032366D01*
X0018821Y0032724D01*
X0019457Y0033186D01*
X0020014Y0033743D01*
X0020476Y0034379D01*
X0020834Y0035081D01*
X0021077Y0035829D01*
X0020179Y0033970D02*
X0023212Y0033970D01*
X0024274Y0032372D02*
X0018130Y0032372D01*
X0019074Y0030773D02*
X0035100Y0030773D01*
X0035100Y0029175D02*
X0020386Y0029175D01*
X0020900Y0027576D02*
X0035100Y0027576D01*
X0035100Y0025978D02*
X0020864Y0025978D01*
X0020202Y0024379D02*
X0035100Y0024379D01*
X0039100Y0024425D02*
X0047575Y0024425D01*
X0054000Y0018000D01*
X0056000Y0014000D02*
X0054425Y0012425D01*
X0054425Y0009100D01*
X0051276Y0009100D02*
X0051276Y0004800D01*
X0051276Y0009100D01*
X0051276Y0009100D01*
X0051276Y0005724D01*
X0052000Y0005000D01*
X0051276Y0005197D02*
X0051276Y0005197D01*
X0051276Y0006796D02*
X0051276Y0006796D01*
X0051276Y0008394D02*
X0051276Y0008394D01*
X0057575Y0008394D02*
X0057575Y0008394D01*
X0057575Y0006796D02*
X0057575Y0006796D01*
X0057575Y0005197D02*
X0057575Y0005197D01*
X0064353Y0013100D02*
X0064572Y0013319D01*
X0066525Y0013319D01*
X0068681Y0015475D01*
X0068681Y0018525D01*
X0066525Y0020681D01*
X0066312Y0020681D01*
X0067681Y0022050D01*
X0067681Y0024003D01*
X0068900Y0025222D01*
X0068900Y0016405D01*
X0068900Y0013255D01*
X0069779Y0012376D01*
X0070171Y0012376D01*
X0069624Y0011829D01*
X0069624Y0012221D01*
X0068745Y0013100D01*
X0064353Y0013100D01*
X0064442Y0013190D02*
X0068965Y0013190D01*
X0068900Y0014788D02*
X0067994Y0014788D01*
X0068681Y0016387D02*
X0068900Y0016387D01*
X0068900Y0017985D02*
X0068681Y0017985D01*
X0068900Y0019584D02*
X0067622Y0019584D01*
X0066813Y0021182D02*
X0068900Y0021182D01*
X0068900Y0022781D02*
X0067681Y0022781D01*
X0068057Y0024379D02*
X0068900Y0024379D01*
X0064991Y0027819D02*
X0064428Y0027256D01*
X0062475Y0027256D01*
X0062236Y0027017D01*
X0060800Y0028453D01*
X0060800Y0030047D01*
X0060819Y0030066D01*
X0060819Y0029975D01*
X0062975Y0027819D01*
X0064991Y0027819D01*
X0064749Y0027576D02*
X0061676Y0027576D01*
X0061619Y0029175D02*
X0060800Y0029175D01*
X0069624Y0042876D02*
X0069624Y0046021D01*
X0069300Y0046345D01*
X0069300Y0049953D01*
X0067953Y0051300D01*
X0066229Y0053023D01*
X0066906Y0053700D01*
X0069700Y0053700D01*
X0069700Y0042953D01*
X0069624Y0042876D01*
X0069624Y0043561D02*
X0069700Y0043561D01*
X0069700Y0045160D02*
X0069624Y0045160D01*
X0069700Y0046758D02*
X0069300Y0046758D01*
X0069300Y0048357D02*
X0069700Y0048357D01*
X0069700Y0049955D02*
X0069297Y0049955D01*
X0069700Y0051554D02*
X0067699Y0051554D01*
X0066358Y0053152D02*
X0069700Y0053152D01*
X0072000Y0056000D02*
X0072000Y0042000D01*
X0076000Y0038000D02*
X0076000Y0048000D01*
X0074300Y0049553D02*
X0074300Y0053700D01*
X0078447Y0053700D01*
X0074300Y0049553D01*
X0074300Y0049955D02*
X0074703Y0049955D01*
X0074300Y0051554D02*
X0076301Y0051554D01*
X0077900Y0053152D02*
X0074300Y0053152D01*
X0072000Y0056000D02*
X0107000Y0056000D01*
X0107319Y0059681D02*
X0105934Y0059681D01*
X0106572Y0060319D01*
X0107319Y0060319D01*
X0107319Y0059681D01*
X0111000Y0060000D02*
X0113000Y0058000D01*
X0113000Y0056000D01*
X0109000Y0052000D01*
X0086000Y0052000D01*
X0085047Y0049700D02*
X0084506Y0049700D01*
X0085319Y0048887D01*
X0085319Y0049428D01*
X0085047Y0049700D01*
X0092506Y0049700D02*
X0095447Y0049700D01*
X0092681Y0046934D01*
X0092681Y0049525D01*
X0092506Y0049700D01*
X0092681Y0048357D02*
X0094104Y0048357D01*
X0097319Y0036566D02*
X0097319Y0036475D01*
X0097494Y0036300D01*
X0097053Y0036300D01*
X0097319Y0036566D01*
X0096000Y0034000D02*
X0085000Y0023000D01*
X0085000Y0015000D01*
X0080000Y0010000D01*
X0078000Y0010000D01*
X0077113Y0013681D02*
X0076900Y0013681D01*
X0076900Y0013894D01*
X0077113Y0013681D01*
X0075171Y0012376D02*
X0074500Y0011706D01*
X0073829Y0012376D01*
X0075171Y0012376D01*
X0072000Y0009000D02*
X0075000Y0006000D01*
X0087000Y0006000D01*
X0090000Y0009000D01*
X0090000Y0016000D01*
X0095654Y0021654D01*
X0098000Y0021654D01*
X0099932Y0018185D02*
X0095438Y0018185D01*
X0093937Y0016684D01*
X0094500Y0016121D01*
X0094500Y0004800D01*
X0095500Y0004800D01*
X0095500Y0016121D01*
X0096379Y0017000D01*
X0098747Y0017000D01*
X0099932Y0018185D01*
X0099732Y0017985D02*
X0095238Y0017985D01*
X0095765Y0016387D02*
X0094235Y0016387D01*
X0094500Y0014788D02*
X0095500Y0014788D01*
X0095500Y0013190D02*
X0094500Y0013190D01*
X0094500Y0011591D02*
X0095500Y0011591D01*
X0095500Y0009993D02*
X0094500Y0009993D01*
X0094500Y0008394D02*
X0095500Y0008394D01*
X0095500Y0006796D02*
X0094500Y0006796D01*
X0094500Y0005197D02*
X0095500Y0005197D01*
X0100000Y0009000D02*
X0100000Y0015000D01*
X0107000Y0022000D01*
X0107000Y0032000D01*
X0105000Y0034000D01*
X0096000Y0034000D01*
X0094335Y0029082D02*
X0087300Y0022047D01*
X0087300Y0017000D01*
X0087747Y0017000D01*
X0089047Y0018300D01*
X0094335Y0023587D01*
X0094335Y0024243D01*
X0095091Y0025000D01*
X0094335Y0025757D01*
X0094335Y0029082D01*
X0094335Y0027576D02*
X0092829Y0027576D01*
X0094335Y0025978D02*
X0091230Y0025978D01*
X0089632Y0024379D02*
X0094470Y0024379D01*
X0093528Y0022781D02*
X0088033Y0022781D01*
X0087300Y0021182D02*
X0091929Y0021182D01*
X0090331Y0019584D02*
X0087300Y0019584D01*
X0087300Y0017985D02*
X0088732Y0017985D01*
X0085500Y0012247D02*
X0085500Y0008300D01*
X0081553Y0008300D01*
X0085500Y0012247D01*
X0085500Y0011591D02*
X0084844Y0011591D01*
X0085500Y0009993D02*
X0083245Y0009993D01*
X0081647Y0008394D02*
X0085500Y0008394D01*
X0090000Y0009000D02*
X0090000Y0012000D01*
X0101665Y0024243D02*
X0100909Y0025000D01*
X0101351Y0025443D01*
X0101475Y0025319D01*
X0104525Y0025319D01*
X0104700Y0025494D01*
X0104700Y0022953D01*
X0101665Y0019918D01*
X0101665Y0024243D01*
X0101530Y0024379D02*
X0104700Y0024379D01*
X0104528Y0022781D02*
X0101665Y0022781D01*
X0101665Y0021182D02*
X0102929Y0021182D01*
X0106238Y0017985D02*
X0107700Y0017985D01*
X0107700Y0017000D02*
X0106379Y0017000D01*
X0105500Y0016121D01*
X0105500Y0004800D01*
X0104500Y0004800D01*
X0104500Y0016121D01*
X0104437Y0016184D01*
X0107700Y0019447D01*
X0107700Y0017000D01*
X0105765Y0016387D02*
X0104639Y0016387D01*
X0104500Y0014788D02*
X0105500Y0014788D01*
X0105500Y0013190D02*
X0104500Y0013190D01*
X0104500Y0011591D02*
X0105500Y0011591D01*
X0105500Y0009993D02*
X0104500Y0009993D01*
X0104500Y0008394D02*
X0105500Y0008394D01*
X0105500Y0006796D02*
X0104500Y0006796D01*
X0104500Y0005197D02*
X0105500Y0005197D01*
X0110000Y0009000D02*
X0110000Y0033000D01*
X0105000Y0038000D01*
X0101000Y0038000D01*
X0106691Y0043561D02*
X0109186Y0043561D01*
X0109319Y0041963D02*
X0108290Y0041963D01*
X0107300Y0042953D02*
X0107300Y0042953D01*
X0109888Y0040364D02*
X0110430Y0040364D01*
X0111487Y0038766D02*
X0116444Y0038766D01*
X0116100Y0037167D02*
X0113085Y0037167D01*
X0114684Y0035569D02*
X0116306Y0035569D01*
X0116282Y0033970D02*
X0117183Y0033970D01*
X0117881Y0032372D02*
X0119692Y0032372D01*
X0116100Y0027576D02*
X0112300Y0027576D01*
X0112300Y0025978D02*
X0116136Y0025978D01*
X0116798Y0024379D02*
X0112300Y0024379D01*
X0112300Y0022781D02*
X0118705Y0022781D01*
X0118050Y0021182D02*
X0112300Y0021182D01*
X0112300Y0019584D02*
X0116505Y0019584D01*
X0115894Y0017985D02*
X0112300Y0017985D01*
X0114235Y0016387D02*
X0115835Y0016387D01*
X0116315Y0014788D02*
X0114500Y0014788D01*
X0114500Y0013190D02*
X0117539Y0013190D01*
X0114500Y0011591D02*
X0132200Y0011591D01*
X0132200Y0009993D02*
X0114500Y0009993D01*
X0114500Y0008394D02*
X0132200Y0008394D01*
X0132200Y0006796D02*
X0114500Y0006796D01*
X0114500Y0005197D02*
X0132200Y0005197D01*
X0132200Y0013190D02*
X0130461Y0013190D01*
X0131685Y0014788D02*
X0132200Y0014788D01*
X0132165Y0016387D02*
X0132200Y0016387D01*
X0132200Y0017985D02*
X0132106Y0017985D01*
X0132200Y0019584D02*
X0131495Y0019584D01*
X0132200Y0021182D02*
X0129950Y0021182D01*
X0129295Y0022781D02*
X0132200Y0022781D01*
X0132200Y0024379D02*
X0131202Y0024379D01*
X0131864Y0025978D02*
X0132200Y0025978D01*
X0132200Y0027576D02*
X0131900Y0027576D01*
X0132200Y0029175D02*
X0131386Y0029175D01*
X0132200Y0030773D02*
X0130074Y0030773D01*
X0128308Y0032372D02*
X0132200Y0032372D01*
X0132200Y0033970D02*
X0130817Y0033970D01*
X0131694Y0035569D02*
X0132200Y0035569D01*
X0132200Y0037167D02*
X0131900Y0037167D01*
X0132200Y0038766D02*
X0131556Y0038766D01*
X0132200Y0040364D02*
X0130483Y0040364D01*
X0132200Y0041963D02*
X0128300Y0041963D01*
X0128300Y0043561D02*
X0132200Y0043561D01*
X0132200Y0045160D02*
X0128300Y0045160D01*
X0128300Y0046758D02*
X0132200Y0046758D01*
X0132200Y0048357D02*
X0128300Y0048357D01*
X0128300Y0049955D02*
X0132200Y0049955D01*
X0132200Y0051554D02*
X0128300Y0051554D01*
X0128300Y0053152D02*
X0132200Y0053152D01*
X0132200Y0054751D02*
X0128300Y0054751D01*
X0128300Y0056349D02*
X0132200Y0056349D01*
X0132200Y0057948D02*
X0128300Y0057948D01*
X0128300Y0059546D02*
X0132200Y0059546D01*
X0132200Y0061145D02*
X0128300Y0061145D01*
X0128300Y0062743D02*
X0132200Y0062743D01*
X0132200Y0064342D02*
X0128300Y0064342D01*
X0128300Y0065940D02*
X0132200Y0065940D01*
X0132200Y0067539D02*
X0128300Y0067539D01*
X0128300Y0069137D02*
X0132200Y0069137D01*
X0132200Y0070736D02*
X0128300Y0070736D01*
X0128300Y0072334D02*
X0132200Y0072334D01*
X0132200Y0073933D02*
X0128300Y0073933D01*
X0126721Y0075532D02*
X0132200Y0075532D01*
X0132200Y0077130D02*
X0125123Y0077130D01*
X0123524Y0078729D02*
X0132200Y0078729D01*
X0132200Y0080327D02*
X0121926Y0080327D01*
X0120327Y0081926D02*
X0132200Y0081926D01*
X0127270Y0083524D02*
X0108682Y0083524D01*
X0107000Y0080000D02*
X0119000Y0080000D01*
X0126000Y0073000D01*
X0126000Y0039000D01*
X0124000Y0037000D01*
X0123700Y0041963D02*
X0116681Y0041963D01*
X0116814Y0043561D02*
X0123700Y0043561D01*
X0123700Y0045160D02*
X0118412Y0045160D01*
X0120011Y0046758D02*
X0123700Y0046758D01*
X0123700Y0048357D02*
X0121610Y0048357D01*
X0122300Y0049955D02*
X0123700Y0049955D01*
X0123700Y0051554D02*
X0122300Y0051554D01*
X0122300Y0053152D02*
X0123700Y0053152D01*
X0123700Y0054751D02*
X0122300Y0054751D01*
X0122300Y0056349D02*
X0123700Y0056349D01*
X0123700Y0057948D02*
X0122300Y0057948D01*
X0122300Y0059546D02*
X0123700Y0059546D01*
X0123700Y0061145D02*
X0122300Y0061145D01*
X0122300Y0062743D02*
X0123700Y0062743D01*
X0123700Y0064342D02*
X0122300Y0064342D01*
X0121312Y0065940D02*
X0123700Y0065940D01*
X0123700Y0067539D02*
X0119714Y0067539D01*
X0118115Y0069137D02*
X0123700Y0069137D01*
X0123700Y0070736D02*
X0113470Y0070736D01*
X0112540Y0072334D02*
X0123413Y0072334D01*
X0121814Y0073933D02*
X0114139Y0073933D01*
X0114681Y0075532D02*
X0120216Y0075532D01*
X0118617Y0077130D02*
X0114681Y0077130D01*
X0111000Y0076000D02*
X0087000Y0076000D01*
X0082000Y0071000D01*
X0078319Y0070736D02*
X0074517Y0070736D01*
X0076115Y0069137D02*
X0078657Y0069137D01*
X0077714Y0067539D02*
X0080255Y0067539D01*
X0078319Y0072334D02*
X0072918Y0072334D01*
X0071320Y0073933D02*
X0079727Y0073933D01*
X0083279Y0075532D02*
X0071681Y0075532D01*
X0071681Y0077130D02*
X0084877Y0077130D01*
X0085270Y0083524D02*
X0065682Y0083524D01*
X0064000Y0080000D02*
X0107000Y0080000D01*
X0105318Y0083524D02*
X0088730Y0083524D01*
X0090328Y0085123D02*
X0126319Y0085123D01*
X0124000Y0090654D02*
X0114346Y0090654D01*
X0110000Y0095000D01*
X0111829Y0089918D02*
X0089300Y0089918D01*
X0089300Y0091517D02*
X0103637Y0091517D01*
X0102493Y0093115D02*
X0089300Y0093115D01*
X0089300Y0094714D02*
X0102100Y0094714D01*
X0102256Y0096312D02*
X0089300Y0096312D01*
X0089300Y0097911D02*
X0103064Y0097911D01*
X0105404Y0099509D02*
X0089300Y0099509D01*
X0089300Y0101108D02*
X0104045Y0101108D01*
X0102663Y0102706D02*
X0089300Y0102706D01*
X0089300Y0104305D02*
X0102100Y0104305D01*
X0102100Y0105903D02*
X0089300Y0105903D01*
X0089300Y0107502D02*
X0102749Y0107502D01*
X0104417Y0109100D02*
X0089300Y0109100D01*
X0089300Y0110699D02*
X0112446Y0110699D01*
X0114045Y0112297D02*
X0089300Y0112297D01*
X0089010Y0113896D02*
X0120731Y0113896D01*
X0120904Y0115494D02*
X0087412Y0115494D01*
X0087000Y0112654D02*
X0081000Y0118654D01*
X0071346Y0118654D01*
X0067000Y0123000D01*
X0069654Y0117093D02*
X0045160Y0117093D01*
X0046300Y0115953D02*
X0042646Y0119606D01*
X0041665Y0120587D01*
X0041665Y0121243D01*
X0040909Y0122000D01*
X0041665Y0122757D01*
X0041665Y0127936D01*
X0040787Y0128815D01*
X0040300Y0128815D01*
X0040300Y0129135D01*
X0041468Y0130303D01*
X0041468Y0134791D01*
X0040260Y0136000D01*
X0041468Y0137209D01*
X0041468Y0141697D01*
X0040244Y0142921D01*
X0035756Y0142921D01*
X0034588Y0141753D01*
X0029500Y0141753D01*
X0028153Y0140405D01*
X0025447Y0137700D01*
X0019865Y0137700D01*
X0018138Y0136984D01*
X0016816Y0135662D01*
X0016100Y0133935D01*
X0016100Y0132065D01*
X0016816Y0130338D01*
X0018138Y0129016D01*
X0019865Y0128300D01*
X0028135Y0128300D01*
X0029862Y0129016D01*
X0031184Y0130338D01*
X0031900Y0132065D01*
X0031900Y0133935D01*
X0031184Y0135662D01*
X0030550Y0136297D01*
X0031405Y0137153D01*
X0034588Y0137153D01*
X0035740Y0136000D01*
X0034531Y0134791D01*
X0034531Y0130303D01*
X0035700Y0129135D01*
X0035700Y0128815D01*
X0035213Y0128815D01*
X0034335Y0127936D01*
X0034335Y0122757D01*
X0035091Y0122000D01*
X0034335Y0121243D01*
X0034335Y0120954D01*
X0031440Y0120954D01*
X0031900Y0122065D01*
X0031900Y0123935D01*
X0031184Y0125662D01*
X0029862Y0126984D01*
X0028135Y0127700D01*
X0019865Y0127700D01*
X0018138Y0126984D01*
X0016816Y0125662D01*
X0016100Y0123935D01*
X0016100Y0122065D01*
X0016816Y0120338D01*
X0018138Y0119016D01*
X0019865Y0118300D01*
X0025447Y0118300D01*
X0026046Y0117701D01*
X0027394Y0116354D01*
X0034335Y0116354D01*
X0034335Y0116064D01*
X0035213Y0115185D01*
X0040562Y0115185D01*
X0041700Y0114047D01*
X0041700Y0089906D01*
X0041665Y0089871D01*
X0041665Y0093243D01*
X0040909Y0094000D01*
X0041665Y0094757D01*
X0041665Y0099936D01*
X0040787Y0100815D01*
X0040300Y0100815D01*
X0040300Y0101135D01*
X0041468Y0102303D01*
X0041468Y0106791D01*
X0040260Y0108000D01*
X0041468Y0109209D01*
X0041468Y0113697D01*
X0040244Y0114921D01*
X0035756Y0114921D01*
X0034588Y0113753D01*
X0029500Y0113753D01*
X0028153Y0112405D01*
X0025447Y0109700D01*
X0019865Y0109700D01*
X0018138Y0108984D01*
X0016816Y0107662D01*
X0016100Y0105935D01*
X0016100Y0104065D01*
X0016816Y0102338D01*
X0018138Y0101016D01*
X0019865Y0100300D01*
X0028135Y0100300D01*
X0029862Y0101016D01*
X0031184Y0102338D01*
X0031900Y0104065D01*
X0031900Y0105935D01*
X0031184Y0107662D01*
X0030550Y0108297D01*
X0031405Y0109153D01*
X0034588Y0109153D01*
X0035740Y0108000D01*
X0034531Y0106791D01*
X0034531Y0102303D01*
X0035700Y0101135D01*
X0035700Y0100815D01*
X0035213Y0100815D01*
X0034335Y0099936D01*
X0034335Y0094757D01*
X0035091Y0094000D01*
X0034335Y0093243D01*
X0034335Y0092954D01*
X0031440Y0092954D01*
X0031900Y0094065D01*
X0031900Y0095935D01*
X0031184Y0097662D01*
X0029862Y0098984D01*
X0028135Y0099700D01*
X0019865Y0099700D01*
X0018138Y0098984D01*
X0016816Y0097662D01*
X0016100Y0095935D01*
X0016100Y0094065D01*
X0016816Y0092338D01*
X0018138Y0091016D01*
X0019865Y0090300D01*
X0025447Y0090300D01*
X0026046Y0089701D01*
X0027394Y0088354D01*
X0034335Y0088354D01*
X0034335Y0088064D01*
X0035213Y0087185D01*
X0040319Y0087185D01*
X0040319Y0085475D01*
X0042475Y0083319D01*
X0045525Y0083319D01*
X0047681Y0085475D01*
X0047681Y0088525D01*
X0046300Y0089906D01*
X0046300Y0115953D01*
X0046300Y0115494D02*
X0077904Y0115494D01*
X0077731Y0113896D02*
X0046300Y0113896D01*
X0046300Y0112297D02*
X0071045Y0112297D01*
X0069446Y0110699D02*
X0046300Y0110699D01*
X0046300Y0109100D02*
X0061417Y0109100D01*
X0059749Y0107502D02*
X0046300Y0107502D01*
X0046300Y0105903D02*
X0059100Y0105903D01*
X0059100Y0104305D02*
X0046300Y0104305D01*
X0046300Y0102706D02*
X0059663Y0102706D01*
X0061045Y0101108D02*
X0046300Y0101108D01*
X0046300Y0099509D02*
X0062404Y0099509D01*
X0060064Y0097911D02*
X0046300Y0097911D01*
X0046300Y0096312D02*
X0059256Y0096312D01*
X0059100Y0094714D02*
X0046300Y0094714D01*
X0046300Y0093115D02*
X0059493Y0093115D01*
X0060637Y0091517D02*
X0046300Y0091517D01*
X0046300Y0089918D02*
X0068829Y0089918D01*
X0071346Y0090654D02*
X0081000Y0090654D01*
X0084665Y0089918D02*
X0084700Y0089918D01*
X0084700Y0089906D02*
X0084665Y0089871D01*
X0084665Y0093243D01*
X0083909Y0094000D01*
X0084665Y0094757D01*
X0084665Y0099936D01*
X0083787Y0100815D01*
X0083300Y0100815D01*
X0083300Y0101135D01*
X0084468Y0102303D01*
X0084468Y0106791D01*
X0083260Y0108000D01*
X0084468Y0109209D01*
X0084468Y0111932D01*
X0084700Y0111701D01*
X0084700Y0089906D01*
X0084665Y0091517D02*
X0084700Y0091517D01*
X0084665Y0093115D02*
X0084700Y0093115D01*
X0084700Y0094714D02*
X0084622Y0094714D01*
X0084665Y0096312D02*
X0084700Y0096312D01*
X0084665Y0097911D02*
X0084700Y0097911D01*
X0084665Y0099509D02*
X0084700Y0099509D01*
X0084700Y0101108D02*
X0083300Y0101108D01*
X0084468Y0102706D02*
X0084700Y0102706D01*
X0084700Y0104305D02*
X0084468Y0104305D01*
X0084468Y0105903D02*
X0084700Y0105903D01*
X0084700Y0107502D02*
X0083758Y0107502D01*
X0084360Y0109100D02*
X0084700Y0109100D01*
X0084700Y0110699D02*
X0084468Y0110699D01*
X0087000Y0112654D02*
X0087000Y0087000D01*
X0083672Y0085123D02*
X0047328Y0085123D01*
X0047681Y0086721D02*
X0083319Y0086721D01*
X0077335Y0088320D02*
X0047681Y0088320D01*
X0044000Y0087000D02*
X0044000Y0115000D01*
X0040346Y0118654D01*
X0038000Y0118654D01*
X0028346Y0118654D01*
X0024000Y0123000D01*
X0026654Y0117093D02*
X0004800Y0117093D01*
X0004800Y0118691D02*
X0018920Y0118691D01*
X0016863Y0120290D02*
X0004800Y0120290D01*
X0004800Y0121888D02*
X0016173Y0121888D01*
X0016100Y0123487D02*
X0004800Y0123487D01*
X0004800Y0125085D02*
X0016577Y0125085D01*
X0017837Y0126684D02*
X0004800Y0126684D01*
X0004800Y0128282D02*
X0034681Y0128282D01*
X0034954Y0129881D02*
X0030728Y0129881D01*
X0031657Y0131479D02*
X0034531Y0131479D01*
X0034531Y0133078D02*
X0031900Y0133078D01*
X0031593Y0134676D02*
X0034531Y0134676D01*
X0035465Y0136275D02*
X0030572Y0136275D01*
X0030453Y0139453D02*
X0038000Y0139453D01*
X0040535Y0136275D02*
X0060428Y0136275D01*
X0059407Y0134676D02*
X0041468Y0134676D01*
X0041468Y0133078D02*
X0059100Y0133078D01*
X0059343Y0131479D02*
X0041468Y0131479D01*
X0041046Y0129881D02*
X0060272Y0129881D01*
X0060837Y0126684D02*
X0041665Y0126684D01*
X0041665Y0125085D02*
X0059577Y0125085D01*
X0059100Y0123487D02*
X0041665Y0123487D01*
X0041020Y0121888D02*
X0059173Y0121888D01*
X0059863Y0120290D02*
X0041963Y0120290D01*
X0043561Y0118691D02*
X0061920Y0118691D01*
X0073453Y0111453D02*
X0067000Y0105000D01*
X0071596Y0099509D02*
X0077335Y0099509D01*
X0077335Y0097911D02*
X0073936Y0097911D01*
X0074744Y0096312D02*
X0077335Y0096312D01*
X0077378Y0094714D02*
X0074900Y0094714D01*
X0074506Y0093115D02*
X0077335Y0093115D01*
X0081000Y0097346D02*
X0081000Y0104547D01*
X0078242Y0107502D02*
X0074251Y0107502D01*
X0074353Y0109100D02*
X0077640Y0109100D01*
X0077531Y0105903D02*
X0074900Y0105903D01*
X0074900Y0104305D02*
X0077531Y0104305D01*
X0077531Y0102706D02*
X0074337Y0102706D01*
X0072955Y0101108D02*
X0078700Y0101108D01*
X0081000Y0111453D02*
X0073453Y0111453D01*
X0074827Y0121888D02*
X0077980Y0121888D01*
X0077335Y0123487D02*
X0074900Y0123487D01*
X0074423Y0125085D02*
X0077335Y0125085D01*
X0077335Y0126684D02*
X0073163Y0126684D01*
X0073728Y0129881D02*
X0077954Y0129881D01*
X0077681Y0128282D02*
X0041319Y0128282D01*
X0038000Y0125346D02*
X0038000Y0132547D01*
X0041468Y0137873D02*
X0068621Y0137873D01*
X0070219Y0139472D02*
X0041468Y0139472D01*
X0041468Y0141070D02*
X0071818Y0141070D01*
X0073453Y0139453D02*
X0081000Y0139453D01*
X0078465Y0136275D02*
X0073572Y0136275D01*
X0074593Y0134676D02*
X0077531Y0134676D01*
X0077531Y0133078D02*
X0074900Y0133078D01*
X0074657Y0131479D02*
X0077531Y0131479D01*
X0081000Y0132547D02*
X0081000Y0125346D01*
X0084046Y0129881D02*
X0103272Y0129881D01*
X0102343Y0131479D02*
X0084468Y0131479D01*
X0084468Y0133078D02*
X0102100Y0133078D01*
X0102407Y0134676D02*
X0084468Y0134676D01*
X0083535Y0136275D02*
X0103428Y0136275D01*
X0103689Y0147465D02*
X0084665Y0147465D01*
X0084665Y0149063D02*
X0102515Y0149063D01*
X0102100Y0150662D02*
X0084570Y0150662D01*
X0084665Y0152260D02*
X0102235Y0152260D01*
X0103012Y0153859D02*
X0084665Y0153859D01*
X0084665Y0155457D02*
X0105279Y0155457D01*
X0104098Y0157056D02*
X0083300Y0157056D01*
X0084468Y0158654D02*
X0102684Y0158654D01*
X0102100Y0160253D02*
X0084468Y0160253D01*
X0084468Y0161851D02*
X0102100Y0161851D01*
X0102727Y0163450D02*
X0083810Y0163450D01*
X0084308Y0165048D02*
X0104291Y0165048D01*
X0110000Y0151000D02*
X0114346Y0146654D01*
X0124000Y0153346D02*
X0124000Y0160547D01*
X0124000Y0111453D02*
X0116453Y0111453D01*
X0110000Y0105000D01*
X0114596Y0099509D02*
X0120335Y0099509D01*
X0120335Y0097911D02*
X0116936Y0097911D01*
X0117744Y0096312D02*
X0120335Y0096312D01*
X0120378Y0094714D02*
X0117900Y0094714D01*
X0117506Y0093115D02*
X0120335Y0093115D01*
X0124000Y0097346D02*
X0124000Y0104547D01*
X0120531Y0104305D02*
X0117900Y0104305D01*
X0117900Y0105903D02*
X0120531Y0105903D01*
X0121242Y0107502D02*
X0117251Y0107502D01*
X0117353Y0109100D02*
X0120640Y0109100D01*
X0120531Y0102706D02*
X0117337Y0102706D01*
X0115955Y0101108D02*
X0121700Y0101108D01*
X0119000Y0086000D02*
X0115000Y0086000D01*
X0114000Y0085000D01*
X0101000Y0085000D01*
X0099000Y0083000D01*
X0075000Y0083000D01*
X0072000Y0086000D01*
X0071000Y0085000D01*
X0058000Y0085000D01*
X0056000Y0083000D01*
X0032000Y0083000D01*
X0029000Y0086000D01*
X0028000Y0085000D01*
X0015000Y0085000D01*
X0012673Y0081926D02*
X0004800Y0081926D01*
X0004800Y0083524D02*
X0019318Y0083524D01*
X0022682Y0083524D02*
X0042270Y0083524D01*
X0040672Y0085123D02*
X0004800Y0085123D01*
X0004800Y0086721D02*
X0040319Y0086721D01*
X0041665Y0089918D02*
X0041700Y0089918D01*
X0041665Y0091517D02*
X0041700Y0091517D01*
X0041665Y0093115D02*
X0041700Y0093115D01*
X0041700Y0094714D02*
X0041622Y0094714D01*
X0041665Y0096312D02*
X0041700Y0096312D01*
X0041665Y0097911D02*
X0041700Y0097911D01*
X0041665Y0099509D02*
X0041700Y0099509D01*
X0041700Y0101108D02*
X0040300Y0101108D01*
X0041468Y0102706D02*
X0041700Y0102706D01*
X0041700Y0104305D02*
X0041468Y0104305D01*
X0041468Y0105903D02*
X0041700Y0105903D01*
X0041700Y0107502D02*
X0040758Y0107502D01*
X0041360Y0109100D02*
X0041700Y0109100D01*
X0041700Y0110699D02*
X0041468Y0110699D01*
X0041468Y0112297D02*
X0041700Y0112297D01*
X0041700Y0113896D02*
X0041269Y0113896D01*
X0038000Y0111453D02*
X0030453Y0111453D01*
X0024000Y0105000D01*
X0026446Y0110699D02*
X0004800Y0110699D01*
X0004800Y0112297D02*
X0028045Y0112297D01*
X0031353Y0109100D02*
X0034640Y0109100D01*
X0035242Y0107502D02*
X0031251Y0107502D01*
X0031900Y0105903D02*
X0034531Y0105903D01*
X0034531Y0104305D02*
X0031900Y0104305D01*
X0031337Y0102706D02*
X0034531Y0102706D01*
X0035700Y0101108D02*
X0029955Y0101108D01*
X0028596Y0099509D02*
X0034335Y0099509D01*
X0034335Y0097911D02*
X0030936Y0097911D01*
X0031744Y0096312D02*
X0034335Y0096312D01*
X0034378Y0094714D02*
X0031900Y0094714D01*
X0031506Y0093115D02*
X0034335Y0093115D01*
X0038000Y0090654D02*
X0028346Y0090654D01*
X0024000Y0095000D01*
X0025829Y0089918D02*
X0004800Y0089918D01*
X0004800Y0088320D02*
X0034335Y0088320D01*
X0038000Y0097346D02*
X0038000Y0104547D01*
X0034731Y0113896D02*
X0004800Y0113896D01*
X0004800Y0115494D02*
X0034904Y0115494D01*
X0034980Y0121888D02*
X0031827Y0121888D01*
X0031900Y0123487D02*
X0034335Y0123487D01*
X0034335Y0125085D02*
X0031423Y0125085D01*
X0030163Y0126684D02*
X0034335Y0126684D01*
X0025621Y0137873D02*
X0004800Y0137873D01*
X0004800Y0136275D02*
X0017428Y0136275D01*
X0016407Y0134676D02*
X0004800Y0134676D01*
X0004800Y0133078D02*
X0016100Y0133078D01*
X0016343Y0131479D02*
X0004800Y0131479D01*
X0004800Y0129881D02*
X0017272Y0129881D01*
X0024000Y0133000D02*
X0030453Y0139453D01*
X0028818Y0141070D02*
X0004800Y0141070D01*
X0004800Y0139472D02*
X0027219Y0139472D01*
X0025881Y0145866D02*
X0004800Y0145866D01*
X0004800Y0144268D02*
X0034335Y0144268D01*
X0035504Y0142669D02*
X0004800Y0142669D01*
X0004800Y0147465D02*
X0017689Y0147465D01*
X0016515Y0149063D02*
X0004800Y0149063D01*
X0004800Y0150662D02*
X0016100Y0150662D01*
X0016235Y0152260D02*
X0004800Y0152260D01*
X0004800Y0153859D02*
X0017012Y0153859D01*
X0019279Y0155457D02*
X0004800Y0155457D01*
X0004800Y0157056D02*
X0018098Y0157056D01*
X0016684Y0158654D02*
X0004800Y0158654D01*
X0004800Y0160253D02*
X0016100Y0160253D01*
X0016100Y0161851D02*
X0004800Y0161851D01*
X0004800Y0163450D02*
X0016727Y0163450D01*
X0018291Y0165048D02*
X0004800Y0165048D01*
X0004800Y0166647D02*
X0026394Y0166647D01*
X0027992Y0168245D02*
X0004800Y0168245D01*
X0024000Y0161000D02*
X0030453Y0167453D01*
X0038000Y0167453D01*
X0034692Y0165048D02*
X0031301Y0165048D01*
X0031273Y0163450D02*
X0035190Y0163450D01*
X0034531Y0161851D02*
X0031900Y0161851D01*
X0031900Y0160253D02*
X0034531Y0160253D01*
X0034531Y0158654D02*
X0031316Y0158654D01*
X0029902Y0157056D02*
X0035700Y0157056D01*
X0034335Y0155457D02*
X0028721Y0155457D01*
X0030988Y0153859D02*
X0034335Y0153859D01*
X0034335Y0152260D02*
X0031765Y0152260D01*
X0031900Y0150662D02*
X0034430Y0150662D01*
X0034335Y0149063D02*
X0031485Y0149063D01*
X0028346Y0146654D02*
X0024000Y0151000D01*
X0028346Y0146654D02*
X0038000Y0146654D01*
X0040496Y0142669D02*
X0078504Y0142669D01*
X0077335Y0144268D02*
X0041665Y0144268D01*
X0041665Y0145866D02*
X0068881Y0145866D01*
X0071346Y0146654D02*
X0081000Y0146654D01*
X0077335Y0149063D02*
X0074485Y0149063D01*
X0074900Y0150662D02*
X0077430Y0150662D01*
X0077335Y0152260D02*
X0074765Y0152260D01*
X0073988Y0153859D02*
X0077335Y0153859D01*
X0077335Y0155457D02*
X0071721Y0155457D01*
X0072902Y0157056D02*
X0078700Y0157056D01*
X0077531Y0158654D02*
X0074316Y0158654D01*
X0074900Y0160253D02*
X0077531Y0160253D01*
X0077531Y0161851D02*
X0074900Y0161851D01*
X0074273Y0163450D02*
X0078190Y0163450D01*
X0077692Y0165048D02*
X0074301Y0165048D01*
X0073453Y0167453D02*
X0081000Y0167453D01*
X0081000Y0160547D02*
X0081000Y0153346D01*
X0071346Y0146654D02*
X0067000Y0151000D01*
X0062279Y0155457D02*
X0041665Y0155457D01*
X0041665Y0153859D02*
X0060012Y0153859D01*
X0059235Y0152260D02*
X0041665Y0152260D01*
X0041570Y0150662D02*
X0059100Y0150662D01*
X0059515Y0149063D02*
X0041665Y0149063D01*
X0041665Y0147465D02*
X0060689Y0147465D01*
X0061098Y0157056D02*
X0040300Y0157056D01*
X0041468Y0158654D02*
X0059684Y0158654D01*
X0059100Y0160253D02*
X0041468Y0160253D01*
X0041468Y0161851D02*
X0059100Y0161851D01*
X0059727Y0163450D02*
X0040810Y0163450D01*
X0041308Y0165048D02*
X0061291Y0165048D01*
X0067000Y0161000D02*
X0073453Y0167453D01*
X0070993Y0168245D02*
X0041468Y0168245D01*
X0041468Y0166647D02*
X0069394Y0166647D01*
X0073453Y0139453D02*
X0067000Y0133000D01*
X0038000Y0153346D02*
X0038000Y0160547D01*
X0018417Y0109100D02*
X0004800Y0109100D01*
X0004800Y0107502D02*
X0016749Y0107502D01*
X0016100Y0105903D02*
X0004800Y0105903D01*
X0004800Y0104305D02*
X0016100Y0104305D01*
X0016663Y0102706D02*
X0004800Y0102706D01*
X0004800Y0101108D02*
X0018045Y0101108D01*
X0019404Y0099509D02*
X0004800Y0099509D01*
X0004800Y0097911D02*
X0017064Y0097911D01*
X0016256Y0096312D02*
X0004800Y0096312D01*
X0004800Y0094714D02*
X0016100Y0094714D01*
X0016493Y0093115D02*
X0004800Y0093115D01*
X0004800Y0091517D02*
X0017637Y0091517D01*
X0021000Y0080000D02*
X0014000Y0080000D01*
X0005000Y0071000D01*
X0005000Y0019000D01*
X0007000Y0017000D01*
X0013000Y0017000D01*
X0015047Y0021700D02*
X0008865Y0021700D01*
X0007300Y0021052D01*
X0007300Y0022948D01*
X0008865Y0022300D01*
X0014447Y0022300D01*
X0015047Y0021700D01*
X0018724Y0021276D02*
X0013000Y0027000D01*
X0012800Y0032372D02*
X0013200Y0032372D01*
X0013200Y0033970D02*
X0012800Y0033970D01*
X0012800Y0035569D02*
X0013200Y0035569D01*
X0007870Y0032372D02*
X0007300Y0032372D01*
X0007300Y0022781D02*
X0007705Y0022781D01*
X0007615Y0021182D02*
X0007300Y0021182D01*
X0005629Y0014788D02*
X0004800Y0014788D01*
X0004800Y0013190D02*
X0006964Y0013190D01*
X0004800Y0011591D02*
X0025531Y0011591D01*
X0025531Y0009993D02*
X0004800Y0009993D01*
X0004800Y0008394D02*
X0025531Y0008394D01*
X0025531Y0013190D02*
X0019036Y0013190D01*
X0020371Y0014788D02*
X0025273Y0014788D01*
X0025231Y0016387D02*
X0020900Y0016387D01*
X0020879Y0017985D02*
X0025231Y0017985D01*
X0018724Y0021276D02*
X0039100Y0021276D01*
X0039100Y0018126D02*
X0039226Y0018000D01*
X0048000Y0018000D01*
X0045094Y0020300D02*
X0046475Y0021681D01*
X0047066Y0021681D01*
X0046622Y0022125D01*
X0043100Y0022125D01*
X0043100Y0020300D01*
X0045094Y0020300D01*
X0045976Y0021182D02*
X0043100Y0021182D01*
X0035100Y0032372D02*
X0031726Y0032372D01*
X0032788Y0033970D02*
X0035100Y0033970D01*
X0035100Y0035569D02*
X0033200Y0035569D01*
X0033145Y0037167D02*
X0035100Y0037167D01*
X0032494Y0046758D02*
X0043113Y0046758D01*
X0030896Y0048357D02*
X0064390Y0048357D01*
X0064000Y0056000D02*
X0072000Y0056000D01*
X0069000Y0059000D02*
X0102000Y0059000D01*
X0112300Y0048047D02*
X0111753Y0047500D01*
X0112572Y0046681D01*
X0113428Y0046681D01*
X0117700Y0050953D01*
X0117700Y0053447D01*
X0116953Y0052700D01*
X0112300Y0048047D01*
X0112300Y0048047D01*
X0112609Y0048357D02*
X0115104Y0048357D01*
X0114208Y0049955D02*
X0116703Y0049955D01*
X0115807Y0051554D02*
X0117700Y0051554D01*
X0117700Y0053152D02*
X0117405Y0053152D01*
X0113506Y0046758D02*
X0112494Y0046758D01*
X0115570Y0040364D02*
X0117517Y0040364D01*
X0112974Y0030773D02*
X0112300Y0030773D01*
X0112300Y0029175D02*
X0114573Y0029175D01*
X0103000Y0029000D02*
X0102346Y0028346D01*
X0098000Y0028346D01*
X0072550Y0005197D02*
X0068842Y0005197D01*
X0043158Y0005197D02*
X0004800Y0005197D01*
X0004800Y0006796D02*
X0042376Y0006796D01*
X0042376Y0008394D02*
X0041647Y0008394D01*
X0023517Y0038766D02*
X0020884Y0038766D01*
X0019907Y0040364D02*
X0025010Y0040364D01*
X0025989Y0046758D02*
X0022681Y0046758D01*
X0022681Y0048357D02*
X0024390Y0048357D01*
X0026000Y0052000D02*
X0019000Y0052000D01*
X0015000Y0056000D01*
X0015000Y0066000D01*
X0021000Y0072000D01*
X0027000Y0072000D01*
X0034000Y0065000D01*
X0034953Y0067300D02*
X0028229Y0074023D01*
X0028681Y0074475D01*
X0028681Y0077525D01*
X0028506Y0077700D01*
X0042447Y0077700D01*
X0041700Y0076953D01*
X0039428Y0074681D01*
X0037475Y0074681D01*
X0035319Y0072525D01*
X0035319Y0069475D01*
X0037475Y0067319D01*
X0040525Y0067319D01*
X0042681Y0069475D01*
X0042681Y0071428D01*
X0044953Y0073700D01*
X0060494Y0073700D01*
X0060319Y0073525D01*
X0060319Y0073410D01*
X0059861Y0072953D01*
X0054209Y0067300D01*
X0034953Y0067300D01*
X0034714Y0067539D02*
X0037255Y0067539D01*
X0035657Y0069137D02*
X0033115Y0069137D01*
X0031517Y0070736D02*
X0035319Y0070736D01*
X0035319Y0072334D02*
X0029918Y0072334D01*
X0028320Y0073933D02*
X0036727Y0073933D01*
X0039000Y0071000D02*
X0044000Y0076000D01*
X0068000Y0076000D01*
X0064000Y0080000D02*
X0021000Y0080000D01*
X0025000Y0076000D02*
X0015000Y0076000D01*
X0009000Y0070000D01*
X0009000Y0058000D01*
X0011300Y0058953D02*
X0011300Y0069047D01*
X0015953Y0073700D01*
X0017494Y0073700D01*
X0017319Y0073525D01*
X0017319Y0071572D01*
X0014047Y0068300D01*
X0012700Y0066953D01*
X0012700Y0057553D01*
X0011300Y0058953D01*
X0011300Y0059546D02*
X0012700Y0059546D01*
X0012700Y0057948D02*
X0012305Y0057948D01*
X0012700Y0061145D02*
X0011300Y0061145D01*
X0011300Y0062743D02*
X0012700Y0062743D01*
X0012700Y0064342D02*
X0011300Y0064342D01*
X0011300Y0065940D02*
X0012700Y0065940D01*
X0013286Y0067539D02*
X0011300Y0067539D01*
X0011390Y0069137D02*
X0014885Y0069137D01*
X0016483Y0070736D02*
X0012989Y0070736D01*
X0014587Y0072334D02*
X0017319Y0072334D01*
X0020572Y0068319D02*
X0019934Y0067681D01*
X0021319Y0067681D01*
X0021319Y0068319D01*
X0020572Y0068319D01*
X0021000Y0064000D02*
X0026000Y0059000D01*
X0059000Y0059000D01*
X0064000Y0064000D01*
X0069000Y0059000D01*
X0065066Y0059681D02*
X0062934Y0059681D01*
X0063572Y0060319D01*
X0064428Y0060319D01*
X0065066Y0059681D01*
X0064000Y0056000D02*
X0021000Y0056000D01*
X0022066Y0059681D02*
X0019475Y0059681D01*
X0017319Y0057525D01*
X0017319Y0056934D01*
X0017300Y0056953D01*
X0017300Y0065047D01*
X0017319Y0065066D01*
X0017319Y0062475D01*
X0019475Y0060319D01*
X0021428Y0060319D01*
X0022066Y0059681D01*
X0019341Y0059546D02*
X0017300Y0059546D01*
X0017300Y0057948D02*
X0017742Y0057948D01*
X0017300Y0061145D02*
X0018649Y0061145D01*
X0017319Y0062743D02*
X0017300Y0062743D01*
X0017300Y0064342D02*
X0017319Y0064342D01*
X0007877Y0077130D02*
X0004800Y0077130D01*
X0004800Y0075532D02*
X0006279Y0075532D01*
X0004800Y0078729D02*
X0009476Y0078729D01*
X0011074Y0080327D02*
X0004800Y0080327D01*
X0028681Y0077130D02*
X0041877Y0077130D01*
X0040279Y0075532D02*
X0028681Y0075532D01*
X0040745Y0067539D02*
X0054448Y0067539D01*
X0056046Y0069137D02*
X0042343Y0069137D01*
X0042681Y0070736D02*
X0057645Y0070736D01*
X0059243Y0072334D02*
X0043587Y0072334D01*
X0045730Y0083524D02*
X0062318Y0083524D01*
X0071346Y0090654D02*
X0067000Y0095000D01*
X0071681Y0067066D02*
X0074447Y0064300D01*
X0071953Y0064300D01*
X0070729Y0065523D01*
X0071681Y0066475D01*
X0071681Y0067066D01*
X0071146Y0065940D02*
X0072807Y0065940D01*
X0071911Y0064342D02*
X0074405Y0064342D01*
X0114553Y0065700D02*
X0115047Y0065700D01*
X0117700Y0063047D01*
X0117700Y0062553D01*
X0115300Y0064953D01*
X0114553Y0065700D01*
X0115911Y0064342D02*
X0116405Y0064342D01*
X0117509Y0062743D02*
X0117700Y0062743D01*
X0123800Y0014788D02*
X0124200Y0014788D01*
X0124200Y0013190D02*
X0123800Y0013190D01*
M02*
