G75*
%MOIN*%
%OFA0B0*%
%FSLAX25Y25*%
%IPPOS*%
%LPD*%
%AMOC8*
5,1,8,0,0,1.08239X$1,22.5*
%
%ADD10R,0.03937X0.04331*%
%ADD11R,0.08800X0.04800*%
%ADD12R,0.08661X0.14173*%
%ADD13C,0.06400*%
%ADD14R,0.06000X0.13000*%
%ADD15C,0.07400*%
%ADD16R,0.04409X0.01654*%
%ADD17R,0.05000X0.02500*%
%ADD18OC8,0.04362*%
%ADD19C,0.01600*%
D10*
X0073000Y0017154D03*
X0073000Y0023846D03*
X0073000Y0030654D03*
X0073000Y0037346D03*
D11*
X0087800Y0041100D03*
X0087800Y0032000D03*
X0087800Y0022900D03*
D12*
X0112201Y0032000D03*
D13*
X0120800Y0027000D02*
X0127200Y0027000D01*
X0127200Y0017000D02*
X0120800Y0017000D01*
X0120800Y0037000D02*
X0127200Y0037000D01*
X0113200Y0095000D02*
X0106800Y0095000D01*
X0106800Y0105000D02*
X0113200Y0105000D01*
X0113200Y0123000D02*
X0106800Y0123000D01*
X0106800Y0133000D02*
X0113200Y0133000D01*
X0113200Y0151000D02*
X0106800Y0151000D01*
X0106800Y0161000D02*
X0113200Y0161000D01*
X0070200Y0161000D02*
X0063800Y0161000D01*
X0063800Y0151000D02*
X0070200Y0151000D01*
X0070200Y0133000D02*
X0063800Y0133000D01*
X0063800Y0123000D02*
X0070200Y0123000D01*
X0070200Y0105000D02*
X0063800Y0105000D01*
X0063800Y0095000D02*
X0070200Y0095000D01*
X0027200Y0095000D02*
X0020800Y0095000D01*
X0020800Y0105000D02*
X0027200Y0105000D01*
X0027200Y0123000D02*
X0020800Y0123000D01*
X0020800Y0133000D02*
X0027200Y0133000D01*
X0027200Y0151000D02*
X0020800Y0151000D01*
X0020800Y0161000D02*
X0027200Y0161000D01*
X0016200Y0037000D02*
X0009800Y0037000D01*
X0009800Y0027000D02*
X0016200Y0027000D01*
X0016200Y0017000D02*
X0009800Y0017000D01*
D14*
X0090000Y0009000D03*
X0100000Y0009000D03*
X0110000Y0009000D03*
D15*
X0028000Y0036000D03*
D16*
X0033394Y0051925D03*
X0033394Y0054484D03*
X0033394Y0057043D03*
X0033394Y0059602D03*
X0033394Y0062161D03*
X0033394Y0064720D03*
X0033394Y0067280D03*
X0033394Y0069839D03*
X0033394Y0072398D03*
X0033394Y0074957D03*
X0033394Y0077516D03*
X0033394Y0080075D03*
X0012606Y0080075D03*
X0012606Y0077516D03*
X0012606Y0074957D03*
X0012606Y0072398D03*
X0012606Y0069839D03*
X0012606Y0067280D03*
X0012606Y0064720D03*
X0012606Y0062161D03*
X0012606Y0059602D03*
X0012606Y0057043D03*
X0012606Y0054484D03*
X0012606Y0051925D03*
X0055606Y0051925D03*
X0055606Y0054484D03*
X0055606Y0057043D03*
X0055606Y0059602D03*
X0055606Y0062161D03*
X0055606Y0064720D03*
X0055606Y0067280D03*
X0055606Y0069839D03*
X0055606Y0072398D03*
X0055606Y0074957D03*
X0055606Y0077516D03*
X0055606Y0080075D03*
X0076394Y0080075D03*
X0076394Y0077516D03*
X0076394Y0074957D03*
X0076394Y0072398D03*
X0076394Y0069839D03*
X0076394Y0067280D03*
X0076394Y0064720D03*
X0076394Y0062161D03*
X0076394Y0059602D03*
X0076394Y0057043D03*
X0076394Y0054484D03*
X0076394Y0051925D03*
X0098606Y0051925D03*
X0098606Y0054484D03*
X0098606Y0057043D03*
X0098606Y0059602D03*
X0098606Y0062161D03*
X0098606Y0064720D03*
X0098606Y0067280D03*
X0098606Y0069839D03*
X0098606Y0072398D03*
X0098606Y0074957D03*
X0098606Y0077516D03*
X0098606Y0080075D03*
X0119394Y0080075D03*
X0119394Y0077516D03*
X0119394Y0074957D03*
X0119394Y0072398D03*
X0119394Y0069839D03*
X0119394Y0067280D03*
X0119394Y0064720D03*
X0119394Y0062161D03*
X0119394Y0059602D03*
X0119394Y0057043D03*
X0119394Y0054484D03*
X0119394Y0051925D03*
D17*
X0054000Y0029600D03*
X0054000Y0026400D03*
D18*
X0048000Y0030000D03*
X0048000Y0018000D03*
X0054000Y0018000D03*
X0064000Y0023575D03*
X0065000Y0017000D03*
X0072000Y0009000D03*
X0078000Y0010000D03*
X0080000Y0016000D03*
X0078500Y0022000D03*
X0064500Y0031500D03*
X0080000Y0039000D03*
X0082000Y0047000D03*
X0089000Y0048000D03*
X0101000Y0038000D03*
X0103000Y0029000D03*
X0113000Y0043000D03*
X0107000Y0056000D03*
X0111000Y0060000D03*
X0107000Y0064000D03*
X0111000Y0068000D03*
X0107000Y0072000D03*
X0111000Y0076000D03*
X0107000Y0080000D03*
X0101000Y0085000D03*
X0087000Y0087000D03*
X0082000Y0071000D03*
X0072000Y0086000D03*
X0064000Y0080000D03*
X0068000Y0076000D03*
X0064000Y0072000D03*
X0068000Y0068000D03*
X0064000Y0064000D03*
X0064000Y0056000D03*
X0058000Y0085000D03*
X0044000Y0087000D03*
X0039000Y0071000D03*
X0029000Y0086000D03*
X0021000Y0080000D03*
X0025000Y0076000D03*
X0021000Y0072000D03*
X0025000Y0068000D03*
X0021000Y0064000D03*
X0021000Y0056000D03*
X0019000Y0048000D03*
X0037000Y0047000D03*
X0023000Y0014000D03*
X0015000Y0085000D03*
X0115000Y0086000D03*
X0130000Y0086000D03*
D19*
X0004800Y0054947D02*
X0004800Y0004800D01*
X0057947Y0004800D01*
X0048428Y0014319D01*
X0046475Y0014319D01*
X0044319Y0016475D01*
X0044319Y0019525D01*
X0046475Y0021681D01*
X0048066Y0021681D01*
X0047700Y0022047D01*
X0045700Y0024047D01*
X0045700Y0027094D01*
X0044319Y0028475D01*
X0044319Y0031525D01*
X0046475Y0033681D01*
X0049525Y0033681D01*
X0050867Y0032339D01*
X0050879Y0032350D01*
X0057121Y0032350D01*
X0057571Y0031900D01*
X0057853Y0031900D01*
X0062497Y0027256D01*
X0065525Y0027256D01*
X0067681Y0025100D01*
X0067681Y0022050D01*
X0066312Y0020681D01*
X0066525Y0020681D01*
X0067906Y0019300D01*
X0069531Y0019300D01*
X0069531Y0019940D01*
X0069879Y0020288D01*
X0069591Y0020576D01*
X0069354Y0020986D01*
X0069231Y0021444D01*
X0069231Y0023662D01*
X0072816Y0023662D01*
X0072816Y0024031D01*
X0072816Y0027812D01*
X0072816Y0030469D01*
X0073184Y0030469D01*
X0073184Y0024031D01*
X0072816Y0024031D01*
X0069231Y0024031D01*
X0069231Y0026249D01*
X0069354Y0026707D01*
X0069591Y0027117D01*
X0069724Y0027250D01*
X0069591Y0027383D01*
X0069354Y0027793D01*
X0069231Y0028251D01*
X0069231Y0030469D01*
X0072816Y0030469D01*
X0072816Y0030838D01*
X0069231Y0030838D01*
X0069231Y0033056D01*
X0069354Y0033514D01*
X0069591Y0033924D01*
X0069879Y0034212D01*
X0069531Y0034560D01*
X0069531Y0040133D01*
X0070410Y0041012D01*
X0070700Y0041012D01*
X0070700Y0041953D01*
X0072700Y0043953D01*
X0073447Y0044700D01*
X0049953Y0044700D01*
X0046553Y0041300D01*
X0057953Y0041300D01*
X0059300Y0039953D01*
X0059300Y0039953D01*
X0064072Y0035181D01*
X0066025Y0035181D01*
X0068181Y0033025D01*
X0068181Y0029975D01*
X0066025Y0027819D01*
X0062975Y0027819D01*
X0060819Y0029975D01*
X0060819Y0031928D01*
X0056047Y0036700D01*
X0033200Y0036700D01*
X0033200Y0034966D01*
X0032408Y0033054D01*
X0030946Y0031592D01*
X0029034Y0030800D01*
X0026966Y0030800D01*
X0025054Y0031592D01*
X0023592Y0033054D01*
X0022800Y0034966D01*
X0022800Y0037034D01*
X0023592Y0038946D01*
X0024346Y0039700D01*
X0024047Y0039700D01*
X0022700Y0041047D01*
X0019428Y0044319D01*
X0017475Y0044319D01*
X0015319Y0046475D01*
X0015319Y0049371D01*
X0015048Y0049298D01*
X0012606Y0049298D01*
X0012606Y0051925D01*
X0008602Y0051925D01*
X0008602Y0050861D01*
X0008724Y0050404D01*
X0008961Y0049993D01*
X0009296Y0049658D01*
X0009707Y0049421D01*
X0010165Y0049298D01*
X0012606Y0049298D01*
X0012606Y0051925D01*
X0012606Y0051925D01*
X0012606Y0051925D01*
X0008602Y0051925D01*
X0008602Y0052184D01*
X0007563Y0052184D01*
X0006216Y0053532D01*
X0004800Y0054947D01*
X0004800Y0054751D02*
X0004996Y0054751D01*
X0004800Y0053152D02*
X0006595Y0053152D01*
X0007925Y0051925D02*
X0012606Y0051925D01*
X0015925Y0051925D01*
X0016000Y0052000D01*
X0034000Y0052000D01*
X0033394Y0051925D02*
X0037398Y0051925D01*
X0033394Y0051925D01*
X0033394Y0051925D01*
X0033394Y0049298D01*
X0035835Y0049298D01*
X0036293Y0049421D01*
X0036704Y0049658D01*
X0037039Y0049993D01*
X0037276Y0050404D01*
X0037398Y0050861D01*
X0037398Y0051925D01*
X0037398Y0052184D01*
X0041437Y0052184D01*
X0042784Y0053532D01*
X0046000Y0056747D01*
X0047047Y0055700D01*
X0049216Y0053532D01*
X0050563Y0052184D01*
X0051602Y0052184D01*
X0051602Y0051925D01*
X0051602Y0050861D01*
X0051724Y0050404D01*
X0051961Y0049993D01*
X0052296Y0049658D01*
X0052707Y0049421D01*
X0053159Y0049300D01*
X0048047Y0049300D01*
X0043047Y0044300D01*
X0025953Y0044300D01*
X0022681Y0047572D01*
X0022681Y0049525D01*
X0020525Y0051681D01*
X0017475Y0051681D01*
X0016595Y0050801D01*
X0016611Y0050861D01*
X0016611Y0051925D01*
X0012606Y0051925D01*
X0012606Y0051925D01*
X0016611Y0051925D01*
X0016611Y0052989D01*
X0016488Y0053447D01*
X0016311Y0053754D01*
X0016311Y0060333D01*
X0016488Y0060640D01*
X0016611Y0061098D01*
X0016611Y0062161D01*
X0015300Y0062161D01*
X0015301Y0062161D01*
X0016611Y0062161D01*
X0016611Y0063225D01*
X0016553Y0063441D01*
X0016611Y0063657D01*
X0016611Y0064720D01*
X0015301Y0064720D01*
X0015300Y0064721D01*
X0016611Y0064721D01*
X0016611Y0064980D01*
X0016768Y0064980D01*
X0017319Y0064428D01*
X0017319Y0062475D01*
X0019475Y0060319D01*
X0022066Y0060319D01*
X0021428Y0059681D01*
X0019475Y0059681D01*
X0017319Y0057525D01*
X0017319Y0054475D01*
X0019475Y0052319D01*
X0022525Y0052319D01*
X0024681Y0054475D01*
X0024681Y0056428D01*
X0028114Y0059861D01*
X0029689Y0059861D01*
X0029689Y0053754D01*
X0029512Y0053447D01*
X0029389Y0052989D01*
X0029389Y0051925D01*
X0029389Y0050861D01*
X0029512Y0050404D01*
X0029749Y0049993D01*
X0030084Y0049658D01*
X0030494Y0049421D01*
X0030952Y0049298D01*
X0033394Y0049298D01*
X0033394Y0051925D01*
X0033394Y0051925D01*
X0033394Y0050606D01*
X0037000Y0047000D01*
X0037001Y0049955D02*
X0051999Y0049955D01*
X0051602Y0051554D02*
X0037398Y0051554D01*
X0040484Y0054484D02*
X0033394Y0054484D01*
X0033394Y0057043D02*
X0039043Y0057043D01*
X0043000Y0061000D01*
X0043000Y0081000D01*
X0038000Y0086000D01*
X0038000Y0137000D01*
X0024000Y0151000D01*
X0025447Y0146300D02*
X0029447Y0142300D01*
X0028047Y0142300D01*
X0022953Y0142300D01*
X0018307Y0146945D01*
X0019865Y0146300D01*
X0025447Y0146300D01*
X0025881Y0145866D02*
X0019387Y0145866D01*
X0020985Y0144268D02*
X0027480Y0144268D01*
X0029078Y0142669D02*
X0022584Y0142669D01*
X0022000Y0140000D02*
X0029000Y0140000D01*
X0035000Y0134000D01*
X0035000Y0085000D01*
X0038000Y0082000D01*
X0038000Y0076000D01*
X0036957Y0074957D01*
X0033394Y0074957D01*
X0033394Y0077516D02*
X0029484Y0077516D01*
X0016000Y0091000D01*
X0016000Y0102000D01*
X0019000Y0105000D01*
X0024000Y0105000D01*
X0019865Y0100300D02*
X0028135Y0100300D01*
X0029700Y0100948D01*
X0029700Y0099953D01*
X0029063Y0099316D01*
X0028135Y0099700D01*
X0019865Y0099700D01*
X0018300Y0099052D01*
X0018300Y0100948D01*
X0019865Y0100300D01*
X0019404Y0099509D02*
X0018300Y0099509D01*
X0013700Y0099509D02*
X0010300Y0099509D01*
X0010300Y0100047D02*
X0016100Y0105847D01*
X0016100Y0105353D01*
X0015047Y0104300D01*
X0013700Y0102953D01*
X0013700Y0090047D01*
X0020066Y0083681D01*
X0019475Y0083681D01*
X0017319Y0081525D01*
X0017319Y0079572D01*
X0016557Y0078810D01*
X0016611Y0079011D01*
X0016611Y0080075D01*
X0016611Y0081139D01*
X0016488Y0081596D01*
X0016251Y0082007D01*
X0015916Y0082342D01*
X0015506Y0082579D01*
X0015048Y0082702D01*
X0012606Y0082702D01*
X0010300Y0082702D01*
X0010300Y0100047D01*
X0011360Y0101108D02*
X0013700Y0101108D01*
X0013700Y0102706D02*
X0012959Y0102706D01*
X0014557Y0104305D02*
X0015052Y0104305D01*
X0012848Y0109100D02*
X0007300Y0109100D01*
X0007300Y0107502D02*
X0011249Y0107502D01*
X0009651Y0105903D02*
X0007300Y0105903D01*
X0007300Y0104305D02*
X0008052Y0104305D01*
X0007300Y0103553D02*
X0007300Y0113047D01*
X0016164Y0121911D01*
X0016816Y0120338D01*
X0018138Y0119016D01*
X0019865Y0118300D01*
X0028135Y0118300D01*
X0029862Y0119016D01*
X0031184Y0120338D01*
X0031900Y0122065D01*
X0031900Y0123935D01*
X0031184Y0125662D01*
X0029862Y0126984D01*
X0028135Y0127700D01*
X0021953Y0127700D01*
X0022553Y0128300D01*
X0028135Y0128300D01*
X0029862Y0129016D01*
X0031184Y0130338D01*
X0031900Y0132065D01*
X0031900Y0133847D01*
X0032700Y0133047D01*
X0032700Y0110553D01*
X0031300Y0111953D01*
X0029953Y0113300D01*
X0017047Y0113300D01*
X0007300Y0103553D01*
X0008000Y0101000D02*
X0008000Y0079000D01*
X0009484Y0077516D01*
X0012606Y0077516D01*
X0012606Y0080075D02*
X0012606Y0080075D01*
X0012606Y0082702D01*
X0012606Y0080075D01*
X0012606Y0080075D01*
X0012606Y0082606D01*
X0015000Y0085000D01*
X0016298Y0081926D02*
X0017720Y0081926D01*
X0017319Y0080327D02*
X0016611Y0080327D01*
X0016611Y0080075D02*
X0012606Y0080075D01*
X0016611Y0080075D01*
X0019318Y0083524D02*
X0010300Y0083524D01*
X0010300Y0085123D02*
X0018625Y0085123D01*
X0017026Y0086721D02*
X0010300Y0086721D01*
X0010300Y0088320D02*
X0015428Y0088320D01*
X0013829Y0089918D02*
X0010300Y0089918D01*
X0010300Y0091517D02*
X0013700Y0091517D01*
X0013700Y0093115D02*
X0010300Y0093115D01*
X0010300Y0094714D02*
X0013700Y0094714D01*
X0013700Y0096312D02*
X0010300Y0096312D01*
X0010300Y0097911D02*
X0013700Y0097911D01*
X0008000Y0101000D02*
X0018000Y0111000D01*
X0029000Y0111000D01*
X0032000Y0108000D01*
X0032000Y0099000D01*
X0028000Y0095000D01*
X0024000Y0095000D01*
X0019953Y0090300D02*
X0028135Y0090300D01*
X0029862Y0091016D01*
X0031184Y0092338D01*
X0031900Y0094065D01*
X0031900Y0095647D01*
X0032700Y0096447D01*
X0032700Y0084047D01*
X0034046Y0082702D01*
X0033394Y0082702D01*
X0033394Y0080075D01*
X0033394Y0080075D01*
X0029000Y0084469D01*
X0029000Y0086000D01*
X0026729Y0083524D02*
X0033223Y0083524D01*
X0033394Y0082702D02*
X0030952Y0082702D01*
X0030494Y0082579D01*
X0030084Y0082342D01*
X0029749Y0082007D01*
X0029512Y0081596D01*
X0029389Y0081139D01*
X0029389Y0080864D01*
X0019953Y0090300D01*
X0020335Y0089918D02*
X0032700Y0089918D01*
X0032700Y0088320D02*
X0021933Y0088320D01*
X0023532Y0086721D02*
X0032700Y0086721D01*
X0032700Y0085123D02*
X0025130Y0085123D01*
X0028327Y0081926D02*
X0029702Y0081926D01*
X0033394Y0081926D02*
X0033394Y0081926D01*
X0033394Y0082702D02*
X0033394Y0080075D01*
X0033394Y0080327D02*
X0033394Y0080327D01*
X0029689Y0075216D02*
X0029689Y0073846D01*
X0029689Y0072564D01*
X0028229Y0074023D01*
X0028681Y0074475D01*
X0028681Y0075216D01*
X0029689Y0075216D01*
X0029689Y0073933D02*
X0028320Y0073933D01*
X0025000Y0074000D02*
X0029000Y0070000D01*
X0029161Y0069839D01*
X0033394Y0069839D01*
X0033394Y0067280D02*
X0025720Y0067280D01*
X0025000Y0068000D01*
X0024681Y0064319D02*
X0026066Y0064319D01*
X0024861Y0063114D01*
X0024681Y0062934D01*
X0024681Y0064319D01*
X0026667Y0064461D02*
X0027185Y0064980D01*
X0029689Y0064980D01*
X0029689Y0064461D01*
X0026667Y0064461D01*
X0027161Y0062161D02*
X0033394Y0062161D01*
X0033394Y0064720D02*
X0037720Y0064720D01*
X0039000Y0066000D01*
X0039000Y0071000D01*
X0039934Y0074681D02*
X0040300Y0075047D01*
X0040300Y0080447D01*
X0040700Y0080047D01*
X0040700Y0074506D01*
X0040525Y0074681D01*
X0039934Y0074681D01*
X0040300Y0075532D02*
X0040700Y0075532D01*
X0040700Y0077130D02*
X0040300Y0077130D01*
X0040300Y0078729D02*
X0040700Y0078729D01*
X0040420Y0080327D02*
X0040300Y0080327D01*
X0040319Y0086934D02*
X0040300Y0086953D01*
X0040300Y0137953D01*
X0038953Y0139300D01*
X0038953Y0139300D01*
X0030550Y0147703D01*
X0031184Y0148338D01*
X0031900Y0150065D01*
X0031900Y0151935D01*
X0031184Y0153662D01*
X0029862Y0154984D01*
X0028135Y0155700D01*
X0019865Y0155700D01*
X0018138Y0154984D01*
X0016816Y0153662D01*
X0016300Y0152418D01*
X0016300Y0156047D01*
X0017703Y0157450D01*
X0018138Y0157016D01*
X0019865Y0156300D01*
X0028135Y0156300D01*
X0029862Y0157016D01*
X0031184Y0158338D01*
X0031900Y0160065D01*
X0031900Y0161935D01*
X0031184Y0163662D01*
X0029862Y0164984D01*
X0028135Y0165700D01*
X0019865Y0165700D01*
X0018138Y0164984D01*
X0016816Y0163662D01*
X0016395Y0162648D01*
X0013047Y0159300D01*
X0011700Y0157953D01*
X0011700Y0147047D01*
X0019700Y0139047D01*
X0021047Y0137700D01*
X0028047Y0137700D01*
X0028047Y0137700D01*
X0019865Y0137700D01*
X0018138Y0136984D01*
X0016816Y0135662D01*
X0016100Y0133935D01*
X0016100Y0132065D01*
X0016816Y0130338D01*
X0017450Y0129703D01*
X0004800Y0117053D01*
X0004800Y0169200D01*
X0132200Y0169200D01*
X0132200Y0089006D01*
X0131525Y0089681D01*
X0128475Y0089681D01*
X0126319Y0087525D01*
X0126319Y0086934D01*
X0126300Y0086953D01*
X0126300Y0137953D01*
X0124953Y0139300D01*
X0116550Y0147703D01*
X0117184Y0148338D01*
X0117900Y0150065D01*
X0117900Y0151935D01*
X0117184Y0153662D01*
X0115862Y0154984D01*
X0114135Y0155700D01*
X0105865Y0155700D01*
X0104138Y0154984D01*
X0102816Y0153662D01*
X0102300Y0152418D01*
X0102300Y0156047D01*
X0103703Y0157450D01*
X0104138Y0157016D01*
X0105865Y0156300D01*
X0114135Y0156300D01*
X0115862Y0157016D01*
X0117184Y0158338D01*
X0117900Y0160065D01*
X0117900Y0161935D01*
X0117184Y0163662D01*
X0115862Y0164984D01*
X0114135Y0165700D01*
X0105865Y0165700D01*
X0104138Y0164984D01*
X0102816Y0163662D01*
X0102395Y0162648D01*
X0099047Y0159300D01*
X0097700Y0157953D01*
X0097700Y0148047D01*
X0099047Y0146700D01*
X0099047Y0146700D01*
X0105700Y0140047D01*
X0107047Y0138700D01*
X0114047Y0138700D01*
X0115693Y0137055D01*
X0114135Y0137700D01*
X0105865Y0137700D01*
X0104138Y0136984D01*
X0102816Y0135662D01*
X0102100Y0133935D01*
X0102100Y0132065D01*
X0102816Y0130338D01*
X0103450Y0129703D01*
X0088700Y0114953D01*
X0088700Y0090506D01*
X0088525Y0090681D01*
X0085475Y0090681D01*
X0083319Y0088525D01*
X0083319Y0086934D01*
X0083300Y0086953D01*
X0083300Y0137953D01*
X0081953Y0139300D01*
X0073550Y0147703D01*
X0074184Y0148338D01*
X0074900Y0150065D01*
X0074900Y0151935D01*
X0074184Y0153662D01*
X0072862Y0154984D01*
X0071135Y0155700D01*
X0062865Y0155700D01*
X0061138Y0154984D01*
X0059816Y0153662D01*
X0059300Y0152418D01*
X0059300Y0156047D01*
X0060703Y0157450D01*
X0061138Y0157016D01*
X0062865Y0156300D01*
X0071135Y0156300D01*
X0072862Y0157016D01*
X0074184Y0158338D01*
X0074900Y0160065D01*
X0074900Y0161935D01*
X0074184Y0163662D01*
X0072862Y0164984D01*
X0071135Y0165700D01*
X0062865Y0165700D01*
X0061138Y0164984D01*
X0059816Y0163662D01*
X0059395Y0162648D01*
X0056047Y0159300D01*
X0054700Y0157953D01*
X0054700Y0148047D01*
X0063700Y0139047D01*
X0065047Y0137700D01*
X0071047Y0137700D01*
X0071047Y0137700D01*
X0062865Y0137700D01*
X0061138Y0136984D01*
X0059816Y0135662D01*
X0059100Y0133935D01*
X0059100Y0132065D01*
X0059816Y0130338D01*
X0060450Y0129703D01*
X0045700Y0114953D01*
X0045700Y0090506D01*
X0045525Y0090681D01*
X0042475Y0090681D01*
X0040319Y0088525D01*
X0040319Y0086934D01*
X0040300Y0088320D02*
X0040319Y0088320D01*
X0040300Y0089918D02*
X0041712Y0089918D01*
X0040300Y0091517D02*
X0045700Y0091517D01*
X0045700Y0093115D02*
X0040300Y0093115D01*
X0040300Y0094714D02*
X0045700Y0094714D01*
X0045700Y0096312D02*
X0040300Y0096312D01*
X0040300Y0097911D02*
X0045700Y0097911D01*
X0045700Y0099509D02*
X0040300Y0099509D01*
X0040300Y0101108D02*
X0045700Y0101108D01*
X0045700Y0102706D02*
X0040300Y0102706D01*
X0040300Y0104305D02*
X0045700Y0104305D01*
X0045700Y0105903D02*
X0040300Y0105903D01*
X0040300Y0107502D02*
X0045700Y0107502D01*
X0045700Y0109100D02*
X0040300Y0109100D01*
X0040300Y0110699D02*
X0045700Y0110699D01*
X0045700Y0112297D02*
X0040300Y0112297D01*
X0040300Y0113896D02*
X0045700Y0113896D01*
X0046242Y0115494D02*
X0040300Y0115494D01*
X0040300Y0117093D02*
X0047840Y0117093D01*
X0049439Y0118691D02*
X0040300Y0118691D01*
X0040300Y0120290D02*
X0051037Y0120290D01*
X0052636Y0121888D02*
X0040300Y0121888D01*
X0040300Y0123487D02*
X0054234Y0123487D01*
X0055833Y0125085D02*
X0040300Y0125085D01*
X0040300Y0126684D02*
X0057431Y0126684D01*
X0059030Y0128282D02*
X0040300Y0128282D01*
X0040300Y0129881D02*
X0060272Y0129881D01*
X0059343Y0131479D02*
X0040300Y0131479D01*
X0040300Y0133078D02*
X0059100Y0133078D01*
X0059407Y0134676D02*
X0040300Y0134676D01*
X0040300Y0136275D02*
X0060428Y0136275D01*
X0063275Y0139472D02*
X0038781Y0139472D01*
X0040300Y0137873D02*
X0064874Y0137873D01*
X0066000Y0140000D02*
X0072000Y0140000D01*
X0078000Y0134000D01*
X0078000Y0085000D01*
X0081000Y0082000D01*
X0081000Y0076000D01*
X0079957Y0074957D01*
X0076394Y0074957D01*
X0076394Y0077516D02*
X0073484Y0077516D01*
X0059000Y0092000D01*
X0059000Y0102000D01*
X0062000Y0105000D01*
X0067000Y0105000D01*
X0062865Y0100300D02*
X0071135Y0100300D01*
X0072700Y0100948D01*
X0072700Y0099953D01*
X0072063Y0099316D01*
X0071135Y0099700D01*
X0062865Y0099700D01*
X0061300Y0099052D01*
X0061300Y0100948D01*
X0062865Y0100300D01*
X0062404Y0099509D02*
X0061300Y0099509D01*
X0056700Y0099509D02*
X0053300Y0099509D01*
X0053300Y0100047D02*
X0059100Y0105847D01*
X0059100Y0105353D01*
X0058047Y0104300D01*
X0056700Y0102953D01*
X0056700Y0091047D01*
X0064066Y0083681D01*
X0062475Y0083681D01*
X0060319Y0081525D01*
X0060319Y0079572D01*
X0059557Y0078810D01*
X0059611Y0079011D01*
X0059611Y0080075D01*
X0059611Y0081139D01*
X0059488Y0081596D01*
X0059251Y0082007D01*
X0058916Y0082342D01*
X0058506Y0082579D01*
X0058048Y0082702D01*
X0055606Y0082702D01*
X0053300Y0082702D01*
X0053300Y0100047D01*
X0054360Y0101108D02*
X0056700Y0101108D01*
X0056700Y0102706D02*
X0055959Y0102706D01*
X0057557Y0104305D02*
X0058052Y0104305D01*
X0055848Y0109100D02*
X0050300Y0109100D01*
X0050300Y0107502D02*
X0054249Y0107502D01*
X0052651Y0105903D02*
X0050300Y0105903D01*
X0050300Y0104305D02*
X0051052Y0104305D01*
X0050300Y0103553D02*
X0050300Y0113047D01*
X0059164Y0121911D01*
X0059816Y0120338D01*
X0061138Y0119016D01*
X0062865Y0118300D01*
X0071135Y0118300D01*
X0072862Y0119016D01*
X0074184Y0120338D01*
X0074900Y0122065D01*
X0074900Y0123935D01*
X0074184Y0125662D01*
X0072862Y0126984D01*
X0071135Y0127700D01*
X0064953Y0127700D01*
X0065553Y0128300D01*
X0071135Y0128300D01*
X0072862Y0129016D01*
X0074184Y0130338D01*
X0074900Y0132065D01*
X0074900Y0133847D01*
X0075700Y0133047D01*
X0075700Y0110553D01*
X0074300Y0111953D01*
X0072953Y0113300D01*
X0060047Y0113300D01*
X0050300Y0103553D01*
X0051000Y0101000D02*
X0051000Y0079000D01*
X0052484Y0077516D01*
X0055606Y0077516D01*
X0055606Y0080075D02*
X0055606Y0080075D01*
X0055606Y0082702D01*
X0055606Y0080075D01*
X0055606Y0080075D01*
X0055606Y0082606D01*
X0058000Y0085000D01*
X0059298Y0081926D02*
X0060720Y0081926D01*
X0060319Y0080327D02*
X0059611Y0080327D01*
X0059611Y0080075D02*
X0055606Y0080075D01*
X0059611Y0080075D01*
X0062318Y0083524D02*
X0053300Y0083524D01*
X0053300Y0085123D02*
X0062625Y0085123D01*
X0061026Y0086721D02*
X0053300Y0086721D01*
X0053300Y0088320D02*
X0059428Y0088320D01*
X0057829Y0089918D02*
X0053300Y0089918D01*
X0053300Y0091517D02*
X0056700Y0091517D01*
X0056700Y0093115D02*
X0053300Y0093115D01*
X0053300Y0094714D02*
X0056700Y0094714D01*
X0056700Y0096312D02*
X0053300Y0096312D01*
X0053300Y0097911D02*
X0056700Y0097911D01*
X0051000Y0101000D02*
X0061000Y0111000D01*
X0072000Y0111000D01*
X0075000Y0108000D01*
X0075000Y0099000D01*
X0071000Y0095000D01*
X0067000Y0095000D01*
X0063953Y0090300D02*
X0071135Y0090300D01*
X0072862Y0091016D01*
X0074184Y0092338D01*
X0074900Y0094065D01*
X0074900Y0095647D01*
X0075700Y0096447D01*
X0075700Y0084047D01*
X0077046Y0082702D01*
X0076394Y0082702D01*
X0076394Y0080075D01*
X0076394Y0080075D01*
X0074925Y0080075D01*
X0072000Y0083000D01*
X0072000Y0086000D01*
X0070729Y0083524D02*
X0076223Y0083524D01*
X0076394Y0082702D02*
X0073952Y0082702D01*
X0073494Y0082579D01*
X0073084Y0082342D01*
X0072749Y0082007D01*
X0072565Y0081688D01*
X0063953Y0090300D01*
X0064335Y0089918D02*
X0075700Y0089918D01*
X0075700Y0088320D02*
X0065933Y0088320D01*
X0067532Y0086721D02*
X0075700Y0086721D01*
X0075700Y0085123D02*
X0069130Y0085123D01*
X0072327Y0081926D02*
X0072702Y0081926D01*
X0074178Y0080075D02*
X0076394Y0080075D01*
X0076394Y0082702D01*
X0076394Y0081926D02*
X0076394Y0081926D01*
X0076394Y0080327D02*
X0076394Y0080327D01*
X0076394Y0080075D02*
X0076394Y0080075D01*
X0074178Y0080075D01*
X0074178Y0080075D01*
X0071681Y0076066D02*
X0072532Y0075216D01*
X0072689Y0075216D01*
X0072689Y0073846D01*
X0072689Y0072564D01*
X0071229Y0074023D01*
X0071681Y0074475D01*
X0071681Y0076066D01*
X0071681Y0075532D02*
X0072216Y0075532D01*
X0072689Y0073933D02*
X0071320Y0073933D01*
X0068000Y0074000D02*
X0072161Y0069839D01*
X0076394Y0069839D01*
X0076394Y0067280D02*
X0068720Y0067280D01*
X0068000Y0068000D01*
X0067681Y0064319D02*
X0069525Y0064319D01*
X0070185Y0064980D01*
X0072689Y0064980D01*
X0072689Y0064461D01*
X0072209Y0064461D01*
X0070861Y0063114D01*
X0069700Y0061953D01*
X0069700Y0058300D01*
X0066906Y0058300D01*
X0065525Y0059681D01*
X0062475Y0059681D01*
X0060319Y0057525D01*
X0060319Y0054475D01*
X0062475Y0052319D01*
X0065525Y0052319D01*
X0066906Y0053700D01*
X0071953Y0053700D01*
X0072689Y0054436D01*
X0072689Y0053754D01*
X0072512Y0053447D01*
X0072389Y0052989D01*
X0072389Y0051925D01*
X0072389Y0050861D01*
X0072512Y0050404D01*
X0072749Y0049993D01*
X0073084Y0049658D01*
X0073494Y0049421D01*
X0073946Y0049300D01*
X0058054Y0049300D01*
X0058506Y0049421D01*
X0058916Y0049658D01*
X0059251Y0049993D01*
X0059488Y0050404D01*
X0059611Y0050861D01*
X0059611Y0051925D01*
X0055606Y0051925D01*
X0051602Y0051925D01*
X0055606Y0051925D01*
X0055606Y0051925D01*
X0033394Y0051925D01*
X0029389Y0051925D01*
X0033394Y0051925D01*
X0033394Y0051925D01*
X0033394Y0051554D02*
X0033394Y0051554D01*
X0033394Y0049955D02*
X0033394Y0049955D01*
X0029786Y0049955D02*
X0022251Y0049955D01*
X0022681Y0048357D02*
X0047104Y0048357D01*
X0045506Y0046758D02*
X0023494Y0046758D01*
X0025093Y0045160D02*
X0043907Y0045160D01*
X0044000Y0042000D02*
X0025000Y0042000D01*
X0019000Y0048000D01*
X0016634Y0045160D02*
X0004800Y0045160D01*
X0004800Y0046758D02*
X0015319Y0046758D01*
X0015319Y0048357D02*
X0004800Y0048357D01*
X0004800Y0049955D02*
X0008999Y0049955D01*
X0008602Y0051554D02*
X0004800Y0051554D01*
X0007000Y0051000D02*
X0007000Y0044000D01*
X0013000Y0038000D01*
X0013000Y0037000D01*
X0019000Y0037000D01*
X0029000Y0027000D01*
X0036000Y0034000D01*
X0056000Y0034000D01*
X0062500Y0027500D01*
X0073000Y0027500D01*
X0073000Y0030654D01*
X0075846Y0030654D01*
X0083154Y0023346D01*
X0087354Y0023346D01*
X0087800Y0022900D01*
X0090000Y0020700D01*
X0090000Y0009000D01*
X0090700Y0008394D02*
X0095500Y0008394D01*
X0094800Y0008300D02*
X0090700Y0008300D01*
X0090700Y0009700D01*
X0089300Y0009700D01*
X0089300Y0017300D01*
X0086763Y0017300D01*
X0086305Y0017177D01*
X0085895Y0016940D01*
X0085560Y0016605D01*
X0085323Y0016195D01*
X0085200Y0015737D01*
X0085200Y0009700D01*
X0089300Y0009700D01*
X0089300Y0008300D01*
X0085200Y0008300D01*
X0085200Y0004800D01*
X0082053Y0004800D01*
X0082953Y0005700D01*
X0084300Y0007047D01*
X0084300Y0014953D01*
X0083681Y0015572D01*
X0083681Y0017525D01*
X0081525Y0019681D01*
X0081387Y0019681D01*
X0081678Y0019972D01*
X0081723Y0019805D01*
X0081960Y0019395D01*
X0082295Y0019060D01*
X0082705Y0018823D01*
X0083163Y0018700D01*
X0087400Y0018700D01*
X0087400Y0022500D01*
X0088200Y0022500D01*
X0088200Y0023300D01*
X0094000Y0023300D01*
X0094000Y0025200D01*
X0094547Y0025200D01*
X0097700Y0022047D01*
X0097700Y0017000D01*
X0096379Y0017000D01*
X0095500Y0016121D01*
X0095500Y0004800D01*
X0094800Y0004800D01*
X0094800Y0008300D01*
X0094800Y0009700D02*
X0094800Y0015737D01*
X0094677Y0016195D01*
X0094440Y0016605D01*
X0094105Y0016940D01*
X0093695Y0017177D01*
X0093237Y0017300D01*
X0090700Y0017300D01*
X0090700Y0009700D01*
X0094800Y0009700D01*
X0094800Y0009993D02*
X0095500Y0009993D01*
X0095500Y0011591D02*
X0094800Y0011591D01*
X0094800Y0013190D02*
X0095500Y0013190D01*
X0095500Y0014788D02*
X0094800Y0014788D01*
X0094567Y0016387D02*
X0095765Y0016387D01*
X0097700Y0017985D02*
X0083221Y0017985D01*
X0083681Y0016387D02*
X0085433Y0016387D01*
X0085200Y0014788D02*
X0084300Y0014788D01*
X0084300Y0013190D02*
X0085200Y0013190D01*
X0085200Y0011591D02*
X0084300Y0011591D01*
X0084300Y0009993D02*
X0085200Y0009993D01*
X0084300Y0008394D02*
X0089300Y0008394D01*
X0089300Y0009993D02*
X0090700Y0009993D01*
X0090700Y0011591D02*
X0089300Y0011591D01*
X0089300Y0013190D02*
X0090700Y0013190D01*
X0090700Y0014788D02*
X0089300Y0014788D01*
X0089300Y0016387D02*
X0090700Y0016387D01*
X0092437Y0018700D02*
X0092895Y0018823D01*
X0093305Y0019060D01*
X0093640Y0019395D01*
X0093877Y0019805D01*
X0094000Y0020263D01*
X0094000Y0022500D01*
X0088200Y0022500D01*
X0088200Y0018700D01*
X0092437Y0018700D01*
X0093749Y0019584D02*
X0097700Y0019584D01*
X0097700Y0021182D02*
X0094000Y0021182D01*
X0094000Y0024379D02*
X0095368Y0024379D01*
X0096967Y0022781D02*
X0088200Y0022781D01*
X0088200Y0021182D02*
X0087400Y0021182D01*
X0087400Y0019584D02*
X0088200Y0019584D01*
X0083000Y0027500D02*
X0080000Y0030500D01*
X0080000Y0039000D01*
X0077700Y0036094D02*
X0077700Y0029547D01*
X0079047Y0028200D01*
X0081623Y0025624D01*
X0081600Y0025537D01*
X0081600Y0024106D01*
X0080025Y0025681D01*
X0076975Y0025681D01*
X0076768Y0025474D01*
X0076768Y0026249D01*
X0076646Y0026707D01*
X0076409Y0027117D01*
X0076276Y0027250D01*
X0076409Y0027383D01*
X0076646Y0027793D01*
X0076768Y0028251D01*
X0076768Y0030469D01*
X0073184Y0030469D01*
X0073184Y0030838D01*
X0076768Y0030838D01*
X0076768Y0033056D01*
X0076646Y0033514D01*
X0076409Y0033924D01*
X0076121Y0034212D01*
X0076468Y0034560D01*
X0076468Y0037326D01*
X0077700Y0036094D01*
X0077700Y0035569D02*
X0076468Y0035569D01*
X0076468Y0037167D02*
X0076627Y0037167D01*
X0076319Y0040283D02*
X0075927Y0040674D01*
X0075953Y0040700D01*
X0076494Y0040700D01*
X0076319Y0040525D01*
X0076319Y0040283D01*
X0076319Y0040364D02*
X0076237Y0040364D01*
X0075000Y0043000D02*
X0085900Y0043000D01*
X0087800Y0041100D01*
X0088000Y0041300D01*
X0095300Y0034000D01*
X0103000Y0034000D01*
X0105000Y0036000D01*
X0105000Y0043000D01*
X0109000Y0047000D01*
X0119000Y0047000D01*
X0124000Y0042000D01*
X0124000Y0037000D01*
X0126300Y0041700D02*
X0126300Y0042953D01*
X0119954Y0049298D01*
X0121835Y0049298D01*
X0122293Y0049421D01*
X0122704Y0049658D01*
X0123039Y0049993D01*
X0123276Y0050404D01*
X0123398Y0050861D01*
X0123398Y0051925D01*
X0119394Y0051925D01*
X0119394Y0051925D01*
X0123398Y0051925D01*
X0123398Y0052184D01*
X0127437Y0052184D01*
X0128784Y0053532D01*
X0130953Y0055700D01*
X0132200Y0056947D01*
X0132200Y0004800D01*
X0114500Y0004800D01*
X0114500Y0016121D01*
X0113621Y0017000D01*
X0112300Y0017000D01*
X0112300Y0023413D01*
X0117153Y0023413D01*
X0117446Y0023707D01*
X0118138Y0023016D01*
X0119865Y0022300D01*
X0128135Y0022300D01*
X0129862Y0023016D01*
X0131184Y0024338D01*
X0131900Y0026065D01*
X0131900Y0027935D01*
X0131184Y0029662D01*
X0129862Y0030984D01*
X0128135Y0031700D01*
X0119865Y0031700D01*
X0118138Y0030984D01*
X0118031Y0030878D01*
X0118031Y0033122D01*
X0118138Y0033016D01*
X0119865Y0032300D01*
X0128135Y0032300D01*
X0129862Y0033016D01*
X0131184Y0034338D01*
X0131900Y0036065D01*
X0131900Y0037935D01*
X0131184Y0039662D01*
X0129862Y0040984D01*
X0128135Y0041700D01*
X0126300Y0041700D01*
X0126300Y0041963D02*
X0132200Y0041963D01*
X0132200Y0043561D02*
X0125691Y0043561D01*
X0124093Y0045160D02*
X0132200Y0045160D01*
X0132200Y0046758D02*
X0122494Y0046758D01*
X0120896Y0048357D02*
X0132200Y0048357D01*
X0132000Y0047000D02*
X0132000Y0019000D01*
X0130000Y0017000D01*
X0124000Y0017000D01*
X0124200Y0017200D02*
X0123800Y0017200D01*
X0123800Y0022000D01*
X0120406Y0022000D01*
X0119629Y0021877D01*
X0118881Y0021634D01*
X0118179Y0021276D01*
X0117543Y0020814D01*
X0116986Y0020257D01*
X0116524Y0019621D01*
X0116166Y0018919D01*
X0115923Y0018171D01*
X0115800Y0017394D01*
X0115800Y0017200D01*
X0123800Y0017200D01*
X0123800Y0016800D01*
X0124200Y0016800D01*
X0124200Y0017200D01*
X0124200Y0022000D01*
X0127594Y0022000D01*
X0128371Y0021877D01*
X0129119Y0021634D01*
X0129821Y0021276D01*
X0130457Y0020814D01*
X0131014Y0020257D01*
X0131476Y0019621D01*
X0131834Y0018919D01*
X0132077Y0018171D01*
X0132200Y0017394D01*
X0132200Y0017200D01*
X0124200Y0017200D01*
X0124200Y0016800D02*
X0132200Y0016800D01*
X0132200Y0016606D01*
X0132077Y0015829D01*
X0131834Y0015081D01*
X0131476Y0014379D01*
X0131014Y0013743D01*
X0130457Y0013186D01*
X0129821Y0012724D01*
X0129119Y0012366D01*
X0128371Y0012123D01*
X0127594Y0012000D01*
X0124200Y0012000D01*
X0124200Y0016800D01*
X0123800Y0016800D02*
X0123800Y0012000D01*
X0120406Y0012000D01*
X0119629Y0012123D01*
X0118881Y0012366D01*
X0118179Y0012724D01*
X0117543Y0013186D01*
X0116986Y0013743D01*
X0116524Y0014379D01*
X0116166Y0015081D01*
X0115923Y0015829D01*
X0115800Y0016606D01*
X0115800Y0016800D01*
X0123800Y0016800D01*
X0123800Y0016387D02*
X0124200Y0016387D01*
X0124200Y0017985D02*
X0123800Y0017985D01*
X0123800Y0019584D02*
X0124200Y0019584D01*
X0124200Y0021182D02*
X0123800Y0021182D01*
X0118705Y0022781D02*
X0112300Y0022781D01*
X0112300Y0021182D02*
X0118050Y0021182D01*
X0116505Y0019584D02*
X0112300Y0019584D01*
X0112300Y0017985D02*
X0115894Y0017985D01*
X0115835Y0016387D02*
X0114235Y0016387D01*
X0114500Y0014788D02*
X0116315Y0014788D01*
X0117539Y0013190D02*
X0114500Y0013190D01*
X0114500Y0011591D02*
X0132200Y0011591D01*
X0132200Y0009993D02*
X0114500Y0009993D01*
X0114500Y0008394D02*
X0132200Y0008394D01*
X0132200Y0006796D02*
X0114500Y0006796D01*
X0114500Y0005197D02*
X0132200Y0005197D01*
X0132200Y0013190D02*
X0130461Y0013190D01*
X0131685Y0014788D02*
X0132200Y0014788D01*
X0132165Y0016387D02*
X0132200Y0016387D01*
X0132200Y0017985D02*
X0132106Y0017985D01*
X0132200Y0019584D02*
X0131495Y0019584D01*
X0132200Y0021182D02*
X0129950Y0021182D01*
X0129295Y0022781D02*
X0132200Y0022781D01*
X0132200Y0024379D02*
X0131202Y0024379D01*
X0131864Y0025978D02*
X0132200Y0025978D01*
X0132200Y0027576D02*
X0131900Y0027576D01*
X0132200Y0029175D02*
X0131386Y0029175D01*
X0132200Y0030773D02*
X0130074Y0030773D01*
X0128308Y0032372D02*
X0132200Y0032372D01*
X0132200Y0033970D02*
X0130817Y0033970D01*
X0131694Y0035569D02*
X0132200Y0035569D01*
X0132200Y0037167D02*
X0131900Y0037167D01*
X0132200Y0038766D02*
X0131556Y0038766D01*
X0132200Y0040364D02*
X0130483Y0040364D01*
X0132000Y0047000D02*
X0127000Y0052000D01*
X0120000Y0052000D01*
X0119925Y0051925D01*
X0103000Y0051925D01*
X0103000Y0063000D01*
X0102161Y0062161D01*
X0098606Y0062161D01*
X0098606Y0062162D02*
X0098606Y0064720D01*
X0098606Y0064720D01*
X0098606Y0062162D01*
X0098606Y0062162D01*
X0098606Y0062743D02*
X0098606Y0062743D01*
X0098606Y0064342D02*
X0098606Y0064342D01*
X0098606Y0064720D02*
X0102280Y0064720D01*
X0103000Y0064000D01*
X0103000Y0063000D01*
X0103319Y0062743D02*
X0102611Y0062743D01*
X0102611Y0063225D02*
X0102553Y0063441D01*
X0102611Y0063657D01*
X0102611Y0064720D01*
X0101301Y0064720D01*
X0101300Y0064721D01*
X0102611Y0064721D01*
X0102611Y0064980D01*
X0102768Y0064980D01*
X0103319Y0064428D01*
X0103319Y0062475D01*
X0105475Y0060319D01*
X0107319Y0060319D01*
X0107319Y0059681D01*
X0105475Y0059681D01*
X0103319Y0057525D01*
X0103319Y0054475D01*
X0105475Y0052319D01*
X0108525Y0052319D01*
X0109906Y0053700D01*
X0114953Y0053700D01*
X0115689Y0054436D01*
X0115689Y0053754D01*
X0115512Y0053447D01*
X0115389Y0052989D01*
X0115389Y0051925D01*
X0115389Y0050861D01*
X0115512Y0050404D01*
X0115749Y0049993D01*
X0116084Y0049658D01*
X0116494Y0049421D01*
X0116946Y0049300D01*
X0108047Y0049300D01*
X0106700Y0047953D01*
X0102700Y0043953D01*
X0102700Y0041506D01*
X0102525Y0041681D01*
X0100572Y0041681D01*
X0093300Y0048953D01*
X0091953Y0050300D01*
X0091906Y0050300D01*
X0090525Y0051681D01*
X0087475Y0051681D01*
X0085319Y0049525D01*
X0085319Y0048887D01*
X0083525Y0050681D01*
X0080475Y0050681D01*
X0080304Y0050510D01*
X0080398Y0050861D01*
X0080398Y0051925D01*
X0076394Y0051925D01*
X0076394Y0051925D01*
X0080398Y0051925D01*
X0080398Y0052184D01*
X0084437Y0052184D01*
X0085784Y0053532D01*
X0089000Y0056747D01*
X0090047Y0055700D01*
X0092216Y0053532D01*
X0093563Y0052184D01*
X0094602Y0052184D01*
X0094602Y0051925D01*
X0094602Y0050861D01*
X0094724Y0050404D01*
X0094961Y0049993D01*
X0095296Y0049658D01*
X0095707Y0049421D01*
X0096165Y0049298D01*
X0098606Y0049298D01*
X0098606Y0051925D01*
X0094602Y0051925D01*
X0098606Y0051925D01*
X0098606Y0051925D01*
X0098606Y0051925D01*
X0103000Y0051925D01*
X0102611Y0051925D02*
X0102611Y0052989D01*
X0102488Y0053447D01*
X0102311Y0053754D01*
X0102311Y0060333D01*
X0102488Y0060640D01*
X0102611Y0061098D01*
X0102611Y0062161D01*
X0101300Y0062161D01*
X0101301Y0062161D01*
X0102611Y0062161D01*
X0102611Y0063225D01*
X0102611Y0064342D02*
X0103319Y0064342D01*
X0103720Y0067280D02*
X0098606Y0067280D01*
X0098606Y0069839D02*
X0104839Y0069839D01*
X0107000Y0072000D01*
X0107319Y0075681D02*
X0105934Y0075681D01*
X0106572Y0076319D01*
X0107319Y0076319D01*
X0107319Y0075681D01*
X0110681Y0079681D02*
X0110681Y0080066D01*
X0111066Y0079681D01*
X0110681Y0079681D01*
X0111000Y0076000D02*
X0111000Y0074000D01*
X0115161Y0069839D01*
X0119394Y0069839D01*
X0119394Y0067280D02*
X0111720Y0067280D01*
X0111000Y0068000D01*
X0113720Y0064720D02*
X0119394Y0064720D01*
X0119394Y0062161D02*
X0116161Y0062161D01*
X0115000Y0061000D01*
X0115000Y0057000D01*
X0114000Y0056000D01*
X0107000Y0056000D01*
X0109358Y0053152D02*
X0115433Y0053152D01*
X0115389Y0051925D02*
X0119394Y0051925D01*
X0115389Y0051925D01*
X0115389Y0051554D02*
X0102611Y0051554D01*
X0102611Y0051925D02*
X0098606Y0051925D01*
X0076394Y0051925D01*
X0072389Y0051925D01*
X0076394Y0051925D01*
X0076394Y0051925D01*
X0077925Y0051925D02*
X0078000Y0052000D01*
X0077925Y0051925D02*
X0058925Y0051925D01*
X0055606Y0051925D01*
X0055606Y0051925D01*
X0059611Y0051925D01*
X0059611Y0052989D01*
X0059488Y0053447D01*
X0059311Y0053754D01*
X0059311Y0060333D01*
X0059488Y0060640D01*
X0059611Y0061098D01*
X0059611Y0062161D01*
X0058300Y0062161D01*
X0058301Y0062161D01*
X0059611Y0062161D01*
X0059611Y0063225D01*
X0059553Y0063441D01*
X0059611Y0063657D01*
X0059611Y0064720D01*
X0058301Y0064720D01*
X0058300Y0064721D01*
X0059611Y0064721D01*
X0059611Y0064980D01*
X0059768Y0064980D01*
X0060319Y0064428D01*
X0060319Y0062475D01*
X0062475Y0060319D01*
X0065525Y0060319D01*
X0067681Y0062475D01*
X0067681Y0064319D01*
X0067681Y0062743D02*
X0070491Y0062743D01*
X0070861Y0063114D02*
X0070861Y0063114D01*
X0072089Y0064342D02*
X0069548Y0064342D01*
X0069700Y0061145D02*
X0066351Y0061145D01*
X0065659Y0059546D02*
X0069700Y0059546D01*
X0072000Y0061000D02*
X0072000Y0057000D01*
X0071000Y0056000D01*
X0064000Y0056000D01*
X0066358Y0053152D02*
X0072433Y0053152D01*
X0072389Y0051554D02*
X0059611Y0051554D01*
X0058925Y0051925D02*
X0060000Y0053000D01*
X0060000Y0063000D01*
X0059161Y0062161D01*
X0055606Y0062161D01*
X0055606Y0062162D02*
X0055606Y0064720D01*
X0055606Y0064720D01*
X0055606Y0062162D01*
X0055606Y0062162D01*
X0055606Y0062743D02*
X0055606Y0062743D01*
X0055606Y0064342D02*
X0055606Y0064342D01*
X0055606Y0064720D02*
X0059280Y0064720D01*
X0060000Y0064000D01*
X0060000Y0063000D01*
X0060319Y0062743D02*
X0059611Y0062743D01*
X0059611Y0061145D02*
X0061649Y0061145D01*
X0062341Y0059546D02*
X0059311Y0059546D01*
X0059311Y0057948D02*
X0060742Y0057948D01*
X0060319Y0056349D02*
X0059311Y0056349D01*
X0059311Y0054751D02*
X0060319Y0054751D01*
X0059567Y0053152D02*
X0061642Y0053152D01*
X0059214Y0049955D02*
X0072786Y0049955D01*
X0076394Y0054484D02*
X0083484Y0054484D01*
X0088500Y0059500D01*
X0088500Y0085500D01*
X0087000Y0087000D01*
X0084712Y0089918D02*
X0083300Y0089918D01*
X0083300Y0088320D02*
X0083319Y0088320D01*
X0081000Y0086000D02*
X0086000Y0081000D01*
X0086000Y0061000D01*
X0082043Y0057043D01*
X0076394Y0057043D01*
X0080098Y0059343D02*
X0080098Y0061050D01*
X0080098Y0062420D01*
X0080673Y0062420D01*
X0082953Y0064700D01*
X0083700Y0065447D01*
X0083700Y0061953D01*
X0081091Y0059343D01*
X0080098Y0059343D01*
X0080098Y0059546D02*
X0081294Y0059546D01*
X0080098Y0061145D02*
X0082892Y0061145D01*
X0083700Y0062743D02*
X0080996Y0062743D01*
X0082595Y0064342D02*
X0083700Y0064342D01*
X0082000Y0067000D02*
X0082000Y0071000D01*
X0082934Y0074681D02*
X0083300Y0075047D01*
X0083300Y0080447D01*
X0083700Y0080047D01*
X0083700Y0074506D01*
X0083525Y0074681D01*
X0082934Y0074681D01*
X0083300Y0075532D02*
X0083700Y0075532D01*
X0083700Y0077130D02*
X0083300Y0077130D01*
X0083300Y0078729D02*
X0083700Y0078729D01*
X0083420Y0080327D02*
X0083300Y0080327D01*
X0081000Y0086000D02*
X0081000Y0137000D01*
X0067000Y0151000D01*
X0068447Y0146300D02*
X0062953Y0146300D01*
X0066953Y0142300D01*
X0071047Y0142300D01*
X0072447Y0142300D01*
X0068447Y0146300D01*
X0068881Y0145866D02*
X0063387Y0145866D01*
X0064985Y0144268D02*
X0070480Y0144268D01*
X0072078Y0142669D02*
X0066584Y0142669D01*
X0066000Y0140000D02*
X0057000Y0149000D01*
X0057000Y0157000D01*
X0061000Y0161000D01*
X0067000Y0161000D01*
X0062279Y0155457D02*
X0059300Y0155457D01*
X0059300Y0153859D02*
X0060012Y0153859D01*
X0060308Y0157056D02*
X0061098Y0157056D01*
X0057000Y0160253D02*
X0031900Y0160253D01*
X0031900Y0161851D02*
X0058598Y0161851D01*
X0059727Y0163450D02*
X0031273Y0163450D01*
X0029709Y0165048D02*
X0061291Y0165048D01*
X0055401Y0158654D02*
X0031316Y0158654D01*
X0029902Y0157056D02*
X0054700Y0157056D01*
X0054700Y0155457D02*
X0028721Y0155457D01*
X0030988Y0153859D02*
X0054700Y0153859D01*
X0054700Y0152260D02*
X0031765Y0152260D01*
X0031900Y0150662D02*
X0054700Y0150662D01*
X0054700Y0149063D02*
X0031485Y0149063D01*
X0030788Y0147465D02*
X0055283Y0147465D01*
X0056881Y0145866D02*
X0032387Y0145866D01*
X0033985Y0144268D02*
X0058480Y0144268D01*
X0060078Y0142669D02*
X0035584Y0142669D01*
X0037182Y0141070D02*
X0061677Y0141070D01*
X0067000Y0133000D02*
X0048000Y0114000D01*
X0048000Y0058000D01*
X0051516Y0054484D01*
X0055606Y0054484D01*
X0055606Y0059602D02*
X0052398Y0059602D01*
X0051000Y0061000D01*
X0051000Y0071000D01*
X0052398Y0072398D01*
X0055606Y0072398D01*
X0059398Y0072398D01*
X0060000Y0073000D01*
X0060000Y0076000D01*
X0064000Y0080000D01*
X0067681Y0080066D02*
X0067681Y0079681D01*
X0068066Y0079681D01*
X0067681Y0080066D01*
X0068000Y0076000D02*
X0068000Y0074000D01*
X0064319Y0075681D02*
X0062934Y0075681D01*
X0063572Y0076319D01*
X0064319Y0076319D01*
X0064319Y0075681D01*
X0064000Y0072000D02*
X0061839Y0069839D01*
X0055606Y0069839D01*
X0055606Y0067280D02*
X0060720Y0067280D01*
X0064000Y0064000D01*
X0064319Y0067681D02*
X0063572Y0067681D01*
X0063253Y0068000D01*
X0063572Y0068319D01*
X0064319Y0068319D01*
X0064319Y0067681D01*
X0060319Y0064342D02*
X0059611Y0064342D01*
X0051902Y0074698D02*
X0051902Y0075216D01*
X0051532Y0075216D01*
X0050300Y0076447D01*
X0050300Y0073553D01*
X0051445Y0074698D01*
X0051902Y0074698D01*
X0051216Y0075532D02*
X0050300Y0075532D01*
X0050300Y0073933D02*
X0050680Y0073933D01*
X0055606Y0080327D02*
X0055606Y0080327D01*
X0055606Y0081926D02*
X0055606Y0081926D01*
X0045500Y0085500D02*
X0044000Y0087000D01*
X0045500Y0085500D02*
X0045500Y0059500D01*
X0040484Y0054484D01*
X0042405Y0053152D02*
X0049595Y0053152D01*
X0047996Y0054751D02*
X0044004Y0054751D01*
X0045602Y0056349D02*
X0046398Y0056349D01*
X0040700Y0061953D02*
X0038091Y0059343D01*
X0037098Y0059343D01*
X0037098Y0061050D01*
X0037098Y0062420D01*
X0038673Y0062420D01*
X0039953Y0063700D01*
X0040700Y0064447D01*
X0040700Y0061953D01*
X0040700Y0062743D02*
X0038996Y0062743D01*
X0039892Y0061145D02*
X0037098Y0061145D01*
X0037098Y0059546D02*
X0038294Y0059546D01*
X0040595Y0064342D02*
X0040700Y0064342D01*
X0029689Y0059546D02*
X0027799Y0059546D01*
X0026201Y0057948D02*
X0029689Y0057948D01*
X0029689Y0056349D02*
X0024681Y0056349D01*
X0024681Y0054751D02*
X0029689Y0054751D01*
X0029433Y0053152D02*
X0023358Y0053152D01*
X0020652Y0051554D02*
X0029389Y0051554D01*
X0021000Y0056000D02*
X0027161Y0062161D01*
X0021000Y0064000D02*
X0017720Y0067280D01*
X0012606Y0067280D01*
X0012606Y0064720D02*
X0016280Y0064720D01*
X0017000Y0064000D01*
X0017000Y0063000D01*
X0017000Y0053000D01*
X0016000Y0052000D01*
X0016611Y0051554D02*
X0017348Y0051554D01*
X0016567Y0053152D02*
X0018642Y0053152D01*
X0017319Y0054751D02*
X0016311Y0054751D01*
X0016311Y0056349D02*
X0017319Y0056349D01*
X0017742Y0057948D02*
X0016311Y0057948D01*
X0016311Y0059546D02*
X0019341Y0059546D01*
X0018649Y0061145D02*
X0016611Y0061145D01*
X0016161Y0062161D02*
X0017000Y0063000D01*
X0017319Y0062743D02*
X0016611Y0062743D01*
X0016161Y0062161D02*
X0012606Y0062161D01*
X0012606Y0062162D02*
X0012606Y0064720D01*
X0012606Y0064720D01*
X0012606Y0062162D01*
X0012606Y0062162D01*
X0012606Y0062743D02*
X0012606Y0062743D01*
X0012606Y0064342D02*
X0012606Y0064342D01*
X0016611Y0064342D02*
X0017319Y0064342D01*
X0020572Y0067681D02*
X0020253Y0068000D01*
X0020572Y0068319D01*
X0021319Y0068319D01*
X0021319Y0067681D01*
X0020572Y0067681D01*
X0018839Y0069839D02*
X0012606Y0069839D01*
X0012606Y0072398D02*
X0009398Y0072398D01*
X0008000Y0071000D01*
X0008000Y0061000D01*
X0009398Y0059602D01*
X0012606Y0059602D01*
X0012606Y0054484D02*
X0008516Y0054484D01*
X0005000Y0058000D01*
X0005000Y0114000D01*
X0024000Y0133000D01*
X0022535Y0128282D02*
X0032700Y0128282D01*
X0032700Y0126684D02*
X0030163Y0126684D01*
X0031423Y0125085D02*
X0032700Y0125085D01*
X0032700Y0123487D02*
X0031900Y0123487D01*
X0031827Y0121888D02*
X0032700Y0121888D01*
X0032700Y0120290D02*
X0031137Y0120290D01*
X0032700Y0118691D02*
X0029080Y0118691D01*
X0032700Y0117093D02*
X0011345Y0117093D01*
X0009747Y0115494D02*
X0032700Y0115494D01*
X0032700Y0113896D02*
X0008148Y0113896D01*
X0007300Y0112297D02*
X0016045Y0112297D01*
X0014446Y0110699D02*
X0007300Y0110699D01*
X0004840Y0117093D02*
X0004800Y0117093D01*
X0004800Y0118691D02*
X0006439Y0118691D01*
X0008037Y0120290D02*
X0004800Y0120290D01*
X0004800Y0121888D02*
X0009636Y0121888D01*
X0011234Y0123487D02*
X0004800Y0123487D01*
X0004800Y0125085D02*
X0012833Y0125085D01*
X0014431Y0126684D02*
X0004800Y0126684D01*
X0004800Y0128282D02*
X0016030Y0128282D01*
X0017272Y0129881D02*
X0004800Y0129881D01*
X0004800Y0131479D02*
X0016343Y0131479D01*
X0016100Y0133078D02*
X0004800Y0133078D01*
X0004800Y0134676D02*
X0016407Y0134676D01*
X0017428Y0136275D02*
X0004800Y0136275D01*
X0004800Y0137873D02*
X0020874Y0137873D01*
X0019275Y0139472D02*
X0004800Y0139472D01*
X0004800Y0141070D02*
X0017677Y0141070D01*
X0016078Y0142669D02*
X0004800Y0142669D01*
X0004800Y0144268D02*
X0014480Y0144268D01*
X0012881Y0145866D02*
X0004800Y0145866D01*
X0004800Y0147465D02*
X0011700Y0147465D01*
X0011700Y0149063D02*
X0004800Y0149063D01*
X0004800Y0150662D02*
X0011700Y0150662D01*
X0011700Y0152260D02*
X0004800Y0152260D01*
X0004800Y0153859D02*
X0011700Y0153859D01*
X0011700Y0155457D02*
X0004800Y0155457D01*
X0004800Y0157056D02*
X0011700Y0157056D01*
X0012401Y0158654D02*
X0004800Y0158654D01*
X0004800Y0160253D02*
X0014000Y0160253D01*
X0015598Y0161851D02*
X0004800Y0161851D01*
X0004800Y0163450D02*
X0016727Y0163450D01*
X0018291Y0165048D02*
X0004800Y0165048D01*
X0004800Y0166647D02*
X0132200Y0166647D01*
X0132200Y0168245D02*
X0004800Y0168245D01*
X0014000Y0157000D02*
X0014000Y0148000D01*
X0022000Y0140000D01*
X0016745Y0148507D02*
X0016300Y0148953D01*
X0016300Y0149582D01*
X0016745Y0148507D01*
X0016515Y0149063D02*
X0016300Y0149063D01*
X0016300Y0153859D02*
X0017012Y0153859D01*
X0016300Y0155457D02*
X0019279Y0155457D01*
X0018098Y0157056D02*
X0017308Y0157056D01*
X0014000Y0157000D02*
X0018000Y0161000D01*
X0024000Y0161000D01*
X0031900Y0133078D02*
X0032669Y0133078D01*
X0032700Y0131479D02*
X0031657Y0131479D01*
X0030728Y0129881D02*
X0032700Y0129881D01*
X0032700Y0112297D02*
X0030955Y0112297D01*
X0032554Y0110699D02*
X0032700Y0110699D01*
X0029257Y0099509D02*
X0028596Y0099509D01*
X0032565Y0096312D02*
X0032700Y0096312D01*
X0032700Y0094714D02*
X0031900Y0094714D01*
X0031506Y0093115D02*
X0032700Y0093115D01*
X0032700Y0091517D02*
X0030363Y0091517D01*
X0021000Y0080000D02*
X0017000Y0076000D01*
X0017000Y0073000D01*
X0016398Y0072398D01*
X0012606Y0072398D01*
X0008902Y0074698D02*
X0008445Y0074698D01*
X0007300Y0073553D01*
X0007300Y0076447D01*
X0008532Y0075216D01*
X0008902Y0075216D01*
X0008902Y0074698D01*
X0008216Y0075532D02*
X0007300Y0075532D01*
X0007300Y0073933D02*
X0007680Y0073933D01*
X0012606Y0080327D02*
X0012606Y0080327D01*
X0012606Y0081926D02*
X0012606Y0081926D01*
X0019934Y0075681D02*
X0020572Y0076319D01*
X0021319Y0076319D01*
X0021319Y0075681D01*
X0019934Y0075681D01*
X0021000Y0072000D02*
X0018839Y0069839D01*
X0025000Y0074000D02*
X0025000Y0076000D01*
X0012606Y0051554D02*
X0012606Y0051554D01*
X0012606Y0049955D02*
X0012606Y0049955D01*
X0007925Y0051925D02*
X0007000Y0051000D01*
X0004800Y0043561D02*
X0020186Y0043561D01*
X0021785Y0041963D02*
X0016828Y0041963D01*
X0016594Y0042000D02*
X0013200Y0042000D01*
X0013200Y0037200D01*
X0012800Y0037200D01*
X0012800Y0042000D01*
X0009406Y0042000D01*
X0008629Y0041877D01*
X0007881Y0041634D01*
X0007179Y0041276D01*
X0006543Y0040814D01*
X0005986Y0040257D01*
X0005524Y0039621D01*
X0005166Y0038919D01*
X0004923Y0038171D01*
X0004800Y0037394D01*
X0004800Y0037200D01*
X0012800Y0037200D01*
X0012800Y0036800D01*
X0013200Y0036800D01*
X0013200Y0037200D01*
X0021200Y0037200D01*
X0021200Y0037394D01*
X0021077Y0038171D01*
X0020834Y0038919D01*
X0020476Y0039621D01*
X0020014Y0040257D01*
X0019457Y0040814D01*
X0018821Y0041276D01*
X0018119Y0041634D01*
X0017371Y0041877D01*
X0016594Y0042000D01*
X0019907Y0040364D02*
X0023383Y0040364D01*
X0023517Y0038766D02*
X0020884Y0038766D01*
X0021200Y0036800D02*
X0013200Y0036800D01*
X0013200Y0032000D01*
X0016594Y0032000D01*
X0017371Y0032123D01*
X0018119Y0032366D01*
X0018821Y0032724D01*
X0019457Y0033186D01*
X0020014Y0033743D01*
X0020476Y0034379D01*
X0020834Y0035081D01*
X0021077Y0035829D01*
X0021200Y0036606D01*
X0021200Y0036800D01*
X0020992Y0035569D02*
X0022800Y0035569D01*
X0022855Y0037167D02*
X0013200Y0037167D01*
X0012800Y0037167D02*
X0004800Y0037167D01*
X0004800Y0036800D02*
X0004800Y0036606D01*
X0004923Y0035829D01*
X0005166Y0035081D01*
X0005524Y0034379D01*
X0005986Y0033743D01*
X0006543Y0033186D01*
X0007179Y0032724D01*
X0007881Y0032366D01*
X0008629Y0032123D01*
X0009406Y0032000D01*
X0012800Y0032000D01*
X0012800Y0036800D01*
X0004800Y0036800D01*
X0004800Y0035569D02*
X0005008Y0035569D01*
X0004800Y0033970D02*
X0005821Y0033970D01*
X0004800Y0032372D02*
X0007870Y0032372D01*
X0008865Y0031700D02*
X0007138Y0030984D01*
X0005816Y0029662D01*
X0005100Y0027935D01*
X0005100Y0026065D01*
X0005816Y0024338D01*
X0007138Y0023016D01*
X0008865Y0022300D01*
X0017135Y0022300D01*
X0018862Y0023016D01*
X0020184Y0024338D01*
X0020900Y0026065D01*
X0020900Y0027935D01*
X0020184Y0029662D01*
X0018862Y0030984D01*
X0017135Y0031700D01*
X0008865Y0031700D01*
X0006926Y0030773D02*
X0004800Y0030773D01*
X0004800Y0029175D02*
X0005614Y0029175D01*
X0005100Y0027576D02*
X0004800Y0027576D01*
X0004800Y0025978D02*
X0005136Y0025978D01*
X0004800Y0024379D02*
X0005798Y0024379D01*
X0004800Y0022781D02*
X0007705Y0022781D01*
X0008865Y0021700D02*
X0007138Y0020984D01*
X0005816Y0019662D01*
X0005100Y0017935D01*
X0005100Y0016065D01*
X0005816Y0014338D01*
X0007138Y0013016D01*
X0008865Y0012300D01*
X0017135Y0012300D01*
X0018862Y0013016D01*
X0020184Y0014338D01*
X0020900Y0016065D01*
X0020900Y0017935D01*
X0020184Y0019662D01*
X0018862Y0020984D01*
X0017135Y0021700D01*
X0008865Y0021700D01*
X0007615Y0021182D02*
X0004800Y0021182D01*
X0004800Y0019584D02*
X0005783Y0019584D01*
X0005121Y0017985D02*
X0004800Y0017985D01*
X0004800Y0016387D02*
X0005100Y0016387D01*
X0004800Y0014788D02*
X0005629Y0014788D01*
X0004800Y0013190D02*
X0006964Y0013190D01*
X0004800Y0011591D02*
X0051156Y0011591D01*
X0049558Y0013190D02*
X0019036Y0013190D01*
X0020371Y0014788D02*
X0046006Y0014788D01*
X0044408Y0016387D02*
X0020900Y0016387D01*
X0020879Y0017985D02*
X0044319Y0017985D01*
X0044378Y0019584D02*
X0020217Y0019584D01*
X0018385Y0021182D02*
X0045976Y0021182D01*
X0046967Y0022781D02*
X0018295Y0022781D01*
X0020202Y0024379D02*
X0045700Y0024379D01*
X0045700Y0025978D02*
X0020864Y0025978D01*
X0020900Y0027576D02*
X0045218Y0027576D01*
X0044319Y0029175D02*
X0020386Y0029175D01*
X0019074Y0030773D02*
X0044319Y0030773D01*
X0045166Y0032372D02*
X0031726Y0032372D01*
X0032788Y0033970D02*
X0058777Y0033970D01*
X0057179Y0035569D02*
X0033200Y0035569D01*
X0031000Y0039000D02*
X0057000Y0039000D01*
X0064500Y0031500D01*
X0067236Y0033970D02*
X0069637Y0033970D01*
X0069531Y0035569D02*
X0063684Y0035569D01*
X0062085Y0037167D02*
X0069531Y0037167D01*
X0069531Y0038766D02*
X0060487Y0038766D01*
X0058888Y0040364D02*
X0069763Y0040364D01*
X0070710Y0041963D02*
X0047215Y0041963D01*
X0048814Y0043561D02*
X0072309Y0043561D01*
X0073000Y0041000D02*
X0075000Y0043000D01*
X0073000Y0041000D02*
X0073000Y0037346D01*
X0076363Y0033970D02*
X0077700Y0033970D01*
X0077700Y0032372D02*
X0076768Y0032372D01*
X0077700Y0030773D02*
X0073184Y0030773D01*
X0073000Y0030654D02*
X0074346Y0030654D01*
X0072816Y0030773D02*
X0068181Y0030773D01*
X0068181Y0032372D02*
X0069231Y0032372D01*
X0069231Y0029175D02*
X0067381Y0029175D01*
X0069480Y0027576D02*
X0062176Y0027576D01*
X0061619Y0029175D02*
X0060578Y0029175D01*
X0060819Y0030773D02*
X0058979Y0030773D01*
X0060376Y0032372D02*
X0050834Y0032372D01*
X0048000Y0030000D02*
X0048000Y0025000D01*
X0050000Y0023000D01*
X0055000Y0023000D01*
X0059000Y0019000D01*
X0059000Y0017000D01*
X0063000Y0013000D01*
X0075000Y0013000D01*
X0078000Y0010000D01*
X0082000Y0008000D02*
X0082000Y0014000D01*
X0080000Y0016000D01*
X0081622Y0019584D02*
X0081851Y0019584D01*
X0078500Y0021500D02*
X0078500Y0022000D01*
X0078500Y0021500D02*
X0074154Y0017154D01*
X0073000Y0017154D01*
X0072846Y0017000D01*
X0065000Y0017000D01*
X0055600Y0026400D01*
X0054000Y0026400D01*
X0054000Y0029600D02*
X0056900Y0029600D01*
X0062925Y0023575D01*
X0064000Y0023575D01*
X0066803Y0025978D02*
X0069231Y0025978D01*
X0069231Y0024379D02*
X0067681Y0024379D01*
X0067681Y0022781D02*
X0069231Y0022781D01*
X0069302Y0021182D02*
X0066813Y0021182D01*
X0067622Y0019584D02*
X0069531Y0019584D01*
X0073000Y0023846D02*
X0073000Y0027500D01*
X0072816Y0027576D02*
X0073184Y0027576D01*
X0073184Y0025978D02*
X0072816Y0025978D01*
X0072816Y0024379D02*
X0073184Y0024379D01*
X0076520Y0027576D02*
X0079671Y0027576D01*
X0081270Y0025978D02*
X0076768Y0025978D01*
X0076768Y0029175D02*
X0078073Y0029175D01*
X0081327Y0024379D02*
X0081600Y0024379D01*
X0083000Y0027500D02*
X0095500Y0027500D01*
X0100000Y0023000D01*
X0100000Y0009000D01*
X0104500Y0008394D02*
X0105500Y0008394D01*
X0105500Y0006796D02*
X0104500Y0006796D01*
X0104500Y0005197D02*
X0105500Y0005197D01*
X0105500Y0004800D02*
X0104500Y0004800D01*
X0104500Y0016121D01*
X0103621Y0017000D01*
X0102300Y0017000D01*
X0102300Y0023953D01*
X0098553Y0027700D01*
X0099319Y0027700D01*
X0099319Y0027475D01*
X0101475Y0025319D01*
X0104525Y0025319D01*
X0105906Y0026700D01*
X0106370Y0026700D01*
X0106370Y0024292D01*
X0107249Y0023413D01*
X0107700Y0023413D01*
X0107700Y0017000D01*
X0106379Y0017000D01*
X0105500Y0016121D01*
X0105500Y0004800D01*
X0105500Y0009993D02*
X0104500Y0009993D01*
X0104500Y0011591D02*
X0105500Y0011591D01*
X0105500Y0013190D02*
X0104500Y0013190D01*
X0104500Y0014788D02*
X0105500Y0014788D01*
X0105765Y0016387D02*
X0104235Y0016387D01*
X0102300Y0017985D02*
X0107700Y0017985D01*
X0107700Y0019584D02*
X0102300Y0019584D01*
X0102300Y0021182D02*
X0107700Y0021182D01*
X0107700Y0022781D02*
X0102300Y0022781D01*
X0101874Y0024379D02*
X0106370Y0024379D01*
X0106370Y0025978D02*
X0105184Y0025978D01*
X0103000Y0029000D02*
X0108000Y0029000D01*
X0110000Y0031000D01*
X0110000Y0032000D01*
X0112201Y0032000D01*
X0113000Y0032799D01*
X0113000Y0043000D01*
X0115792Y0040587D02*
X0116681Y0041475D01*
X0116681Y0044525D01*
X0116506Y0044700D01*
X0118047Y0044700D01*
X0121047Y0041700D01*
X0119865Y0041700D01*
X0118138Y0040984D01*
X0117446Y0040293D01*
X0117153Y0040587D01*
X0115792Y0040587D01*
X0117375Y0040364D02*
X0117517Y0040364D01*
X0116681Y0041963D02*
X0120785Y0041963D01*
X0119186Y0043561D02*
X0116681Y0043561D01*
X0115786Y0049955D02*
X0102214Y0049955D01*
X0102251Y0049993D02*
X0102488Y0050404D01*
X0102611Y0050861D01*
X0102611Y0051925D01*
X0098606Y0051925D01*
X0098606Y0049298D01*
X0101048Y0049298D01*
X0101506Y0049421D01*
X0101916Y0049658D01*
X0102251Y0049993D01*
X0102567Y0053152D02*
X0104642Y0053152D01*
X0103319Y0054751D02*
X0102311Y0054751D01*
X0102311Y0056349D02*
X0103319Y0056349D01*
X0103742Y0057948D02*
X0102311Y0057948D01*
X0102311Y0059546D02*
X0105341Y0059546D01*
X0104649Y0061145D02*
X0102611Y0061145D01*
X0098606Y0059602D02*
X0095398Y0059602D01*
X0094000Y0061000D01*
X0094000Y0071000D01*
X0095398Y0072398D01*
X0098606Y0072398D01*
X0102398Y0072398D01*
X0103000Y0073000D01*
X0103000Y0076000D01*
X0107000Y0080000D01*
X0107066Y0083681D02*
X0105475Y0083681D01*
X0103319Y0081525D01*
X0103319Y0079572D01*
X0102557Y0078810D01*
X0102611Y0079011D01*
X0102611Y0080075D01*
X0102611Y0081139D01*
X0102488Y0081596D01*
X0102251Y0082007D01*
X0101916Y0082342D01*
X0101506Y0082579D01*
X0101048Y0082702D01*
X0098606Y0082702D01*
X0096300Y0082702D01*
X0096300Y0100047D01*
X0102100Y0105847D01*
X0102100Y0105353D01*
X0101047Y0104300D01*
X0099700Y0102953D01*
X0099700Y0091047D01*
X0107066Y0083681D01*
X0105625Y0085123D02*
X0096300Y0085123D01*
X0096300Y0086721D02*
X0104026Y0086721D01*
X0105318Y0083524D02*
X0096300Y0083524D01*
X0098606Y0082702D02*
X0098606Y0080075D01*
X0098606Y0080075D01*
X0098606Y0082606D01*
X0101000Y0085000D01*
X0098606Y0082702D02*
X0098606Y0080075D01*
X0102611Y0080075D01*
X0098606Y0080075D01*
X0098606Y0080075D01*
X0098606Y0080327D02*
X0098606Y0080327D01*
X0098606Y0081926D02*
X0098606Y0081926D01*
X0102298Y0081926D02*
X0103720Y0081926D01*
X0103319Y0080327D02*
X0102611Y0080327D01*
X0098606Y0077516D02*
X0095484Y0077516D01*
X0094000Y0079000D01*
X0094000Y0101000D01*
X0104000Y0111000D01*
X0115000Y0111000D01*
X0118000Y0108000D01*
X0118000Y0099000D01*
X0114000Y0095000D01*
X0110000Y0095000D01*
X0106953Y0090300D02*
X0114135Y0090300D01*
X0115862Y0091016D01*
X0117184Y0092338D01*
X0117900Y0094065D01*
X0117900Y0095647D01*
X0118700Y0096447D01*
X0118700Y0083047D01*
X0119046Y0082702D01*
X0116952Y0082702D01*
X0116494Y0082579D01*
X0116084Y0082342D01*
X0115749Y0082007D01*
X0115565Y0081688D01*
X0106953Y0090300D01*
X0107335Y0089918D02*
X0118700Y0089918D01*
X0118700Y0088320D02*
X0108933Y0088320D01*
X0110532Y0086721D02*
X0118700Y0086721D01*
X0118700Y0085123D02*
X0112130Y0085123D01*
X0113729Y0083524D02*
X0118700Y0083524D01*
X0121000Y0084000D02*
X0124000Y0081000D01*
X0124000Y0076000D01*
X0123000Y0075000D01*
X0119437Y0075000D01*
X0119394Y0074957D01*
X0119394Y0077516D02*
X0116484Y0077516D01*
X0102000Y0092000D01*
X0102000Y0102000D01*
X0105000Y0105000D01*
X0110000Y0105000D01*
X0105865Y0100300D02*
X0104300Y0100948D01*
X0104300Y0099052D01*
X0105865Y0099700D01*
X0114135Y0099700D01*
X0115063Y0099316D01*
X0115700Y0099953D01*
X0115700Y0100948D01*
X0114135Y0100300D01*
X0105865Y0100300D01*
X0105404Y0099509D02*
X0104300Y0099509D01*
X0101052Y0104305D02*
X0100557Y0104305D01*
X0099700Y0102706D02*
X0098959Y0102706D01*
X0099700Y0101108D02*
X0097360Y0101108D01*
X0096300Y0099509D02*
X0099700Y0099509D01*
X0099700Y0097911D02*
X0096300Y0097911D01*
X0096300Y0096312D02*
X0099700Y0096312D01*
X0099700Y0094714D02*
X0096300Y0094714D01*
X0096300Y0093115D02*
X0099700Y0093115D01*
X0099700Y0091517D02*
X0096300Y0091517D01*
X0096300Y0089918D02*
X0100829Y0089918D01*
X0102428Y0088320D02*
X0096300Y0088320D01*
X0088700Y0091517D02*
X0083300Y0091517D01*
X0083300Y0093115D02*
X0088700Y0093115D01*
X0088700Y0094714D02*
X0083300Y0094714D01*
X0083300Y0096312D02*
X0088700Y0096312D01*
X0088700Y0097911D02*
X0083300Y0097911D01*
X0083300Y0099509D02*
X0088700Y0099509D01*
X0088700Y0101108D02*
X0083300Y0101108D01*
X0083300Y0102706D02*
X0088700Y0102706D01*
X0088700Y0104305D02*
X0083300Y0104305D01*
X0083300Y0105903D02*
X0088700Y0105903D01*
X0088700Y0107502D02*
X0083300Y0107502D01*
X0083300Y0109100D02*
X0088700Y0109100D01*
X0088700Y0110699D02*
X0083300Y0110699D01*
X0083300Y0112297D02*
X0088700Y0112297D01*
X0088700Y0113896D02*
X0083300Y0113896D01*
X0083300Y0115494D02*
X0089242Y0115494D01*
X0090840Y0117093D02*
X0083300Y0117093D01*
X0083300Y0118691D02*
X0092439Y0118691D01*
X0094037Y0120290D02*
X0083300Y0120290D01*
X0083300Y0121888D02*
X0095636Y0121888D01*
X0097234Y0123487D02*
X0083300Y0123487D01*
X0083300Y0125085D02*
X0098833Y0125085D01*
X0100431Y0126684D02*
X0083300Y0126684D01*
X0083300Y0128282D02*
X0102030Y0128282D01*
X0103272Y0129881D02*
X0083300Y0129881D01*
X0083300Y0131479D02*
X0102343Y0131479D01*
X0102100Y0133078D02*
X0083300Y0133078D01*
X0083300Y0134676D02*
X0102407Y0134676D01*
X0103428Y0136275D02*
X0083300Y0136275D01*
X0083300Y0137873D02*
X0114874Y0137873D01*
X0115000Y0141000D02*
X0121000Y0135000D01*
X0121000Y0084000D01*
X0124000Y0086000D02*
X0127000Y0083000D01*
X0127000Y0059000D01*
X0125043Y0057043D01*
X0119394Y0057043D01*
X0119394Y0054484D02*
X0126484Y0054484D01*
X0130000Y0058000D01*
X0130000Y0086000D01*
X0132200Y0089918D02*
X0126300Y0089918D01*
X0126300Y0088320D02*
X0127114Y0088320D01*
X0126300Y0091517D02*
X0132200Y0091517D01*
X0132200Y0093115D02*
X0126300Y0093115D01*
X0126300Y0094714D02*
X0132200Y0094714D01*
X0132200Y0096312D02*
X0126300Y0096312D01*
X0126300Y0097911D02*
X0132200Y0097911D01*
X0132200Y0099509D02*
X0126300Y0099509D01*
X0126300Y0101108D02*
X0132200Y0101108D01*
X0132200Y0102706D02*
X0126300Y0102706D01*
X0126300Y0104305D02*
X0132200Y0104305D01*
X0132200Y0105903D02*
X0126300Y0105903D01*
X0126300Y0107502D02*
X0132200Y0107502D01*
X0132200Y0109100D02*
X0126300Y0109100D01*
X0126300Y0110699D02*
X0132200Y0110699D01*
X0132200Y0112297D02*
X0126300Y0112297D01*
X0126300Y0113896D02*
X0132200Y0113896D01*
X0132200Y0115494D02*
X0126300Y0115494D01*
X0126300Y0117093D02*
X0132200Y0117093D01*
X0132200Y0118691D02*
X0126300Y0118691D01*
X0126300Y0120290D02*
X0132200Y0120290D01*
X0132200Y0121888D02*
X0126300Y0121888D01*
X0126300Y0123487D02*
X0132200Y0123487D01*
X0132200Y0125085D02*
X0126300Y0125085D01*
X0126300Y0126684D02*
X0132200Y0126684D01*
X0132200Y0128282D02*
X0126300Y0128282D01*
X0126300Y0129881D02*
X0132200Y0129881D01*
X0132200Y0131479D02*
X0126300Y0131479D01*
X0126300Y0133078D02*
X0132200Y0133078D01*
X0132200Y0134676D02*
X0126300Y0134676D01*
X0126300Y0136275D02*
X0132200Y0136275D01*
X0132200Y0137873D02*
X0126300Y0137873D01*
X0124781Y0139472D02*
X0132200Y0139472D01*
X0132200Y0141070D02*
X0123182Y0141070D01*
X0121584Y0142669D02*
X0132200Y0142669D01*
X0132200Y0144268D02*
X0119985Y0144268D01*
X0118387Y0145866D02*
X0132200Y0145866D01*
X0132200Y0147465D02*
X0116788Y0147465D01*
X0117485Y0149063D02*
X0132200Y0149063D01*
X0132200Y0150662D02*
X0117900Y0150662D01*
X0117765Y0152260D02*
X0132200Y0152260D01*
X0132200Y0153859D02*
X0116988Y0153859D01*
X0114721Y0155457D02*
X0132200Y0155457D01*
X0132200Y0157056D02*
X0115902Y0157056D01*
X0117316Y0158654D02*
X0132200Y0158654D01*
X0132200Y0160253D02*
X0117900Y0160253D01*
X0117900Y0161851D02*
X0132200Y0161851D01*
X0132200Y0163450D02*
X0117273Y0163450D01*
X0115709Y0165048D02*
X0132200Y0165048D01*
X0111447Y0146300D02*
X0114447Y0143300D01*
X0114047Y0143300D01*
X0108953Y0143300D01*
X0105953Y0146300D01*
X0111447Y0146300D01*
X0111881Y0145866D02*
X0106387Y0145866D01*
X0107985Y0144268D02*
X0113480Y0144268D01*
X0115000Y0141000D02*
X0108000Y0141000D01*
X0100000Y0149000D01*
X0100000Y0157000D01*
X0104000Y0161000D01*
X0110000Y0161000D01*
X0104291Y0165048D02*
X0072709Y0165048D01*
X0074273Y0163450D02*
X0102727Y0163450D01*
X0101598Y0161851D02*
X0074900Y0161851D01*
X0074900Y0160253D02*
X0100000Y0160253D01*
X0098401Y0158654D02*
X0074316Y0158654D01*
X0072902Y0157056D02*
X0097700Y0157056D01*
X0097700Y0155457D02*
X0071721Y0155457D01*
X0073988Y0153859D02*
X0097700Y0153859D01*
X0097700Y0152260D02*
X0074765Y0152260D01*
X0074900Y0150662D02*
X0097700Y0150662D01*
X0097700Y0149063D02*
X0074485Y0149063D01*
X0073788Y0147465D02*
X0098283Y0147465D01*
X0099881Y0145866D02*
X0075387Y0145866D01*
X0076985Y0144268D02*
X0101480Y0144268D01*
X0103078Y0142669D02*
X0078584Y0142669D01*
X0080182Y0141070D02*
X0104677Y0141070D01*
X0105700Y0140047D02*
X0105700Y0140047D01*
X0106275Y0139472D02*
X0081781Y0139472D01*
X0075669Y0133078D02*
X0074900Y0133078D01*
X0074657Y0131479D02*
X0075700Y0131479D01*
X0075700Y0129881D02*
X0073728Y0129881D01*
X0075700Y0128282D02*
X0065535Y0128282D01*
X0059173Y0121888D02*
X0059141Y0121888D01*
X0059863Y0120290D02*
X0057543Y0120290D01*
X0055944Y0118691D02*
X0061920Y0118691D01*
X0059045Y0112297D02*
X0050300Y0112297D01*
X0050300Y0110699D02*
X0057446Y0110699D01*
X0052747Y0115494D02*
X0075700Y0115494D01*
X0075700Y0113896D02*
X0051148Y0113896D01*
X0054345Y0117093D02*
X0075700Y0117093D01*
X0075700Y0118691D02*
X0072080Y0118691D01*
X0074137Y0120290D02*
X0075700Y0120290D01*
X0075700Y0121888D02*
X0074827Y0121888D01*
X0074900Y0123487D02*
X0075700Y0123487D01*
X0075700Y0125085D02*
X0074423Y0125085D01*
X0073163Y0126684D02*
X0075700Y0126684D01*
X0075700Y0112297D02*
X0073955Y0112297D01*
X0075554Y0110699D02*
X0075700Y0110699D01*
X0072257Y0099509D02*
X0071596Y0099509D01*
X0075565Y0096312D02*
X0075700Y0096312D01*
X0075700Y0094714D02*
X0074900Y0094714D01*
X0074506Y0093115D02*
X0075700Y0093115D01*
X0075700Y0091517D02*
X0073363Y0091517D01*
X0091000Y0114000D02*
X0110000Y0133000D01*
X0108553Y0128300D02*
X0107953Y0127700D01*
X0114135Y0127700D01*
X0115862Y0126984D01*
X0117184Y0125662D01*
X0117900Y0123935D01*
X0117900Y0122065D01*
X0117184Y0120338D01*
X0115862Y0119016D01*
X0114135Y0118300D01*
X0105865Y0118300D01*
X0104138Y0119016D01*
X0102816Y0120338D01*
X0102164Y0121911D01*
X0093300Y0113047D01*
X0093300Y0103553D01*
X0101700Y0111953D01*
X0103047Y0113300D01*
X0115953Y0113300D01*
X0118700Y0110553D01*
X0118700Y0134047D01*
X0117255Y0135493D01*
X0117900Y0133935D01*
X0117900Y0132065D01*
X0117184Y0130338D01*
X0115862Y0129016D01*
X0114135Y0128300D01*
X0108553Y0128300D01*
X0108535Y0128282D02*
X0118700Y0128282D01*
X0118700Y0126684D02*
X0116163Y0126684D01*
X0117423Y0125085D02*
X0118700Y0125085D01*
X0118700Y0123487D02*
X0117900Y0123487D01*
X0117827Y0121888D02*
X0118700Y0121888D01*
X0118700Y0120290D02*
X0117137Y0120290D01*
X0118700Y0118691D02*
X0115080Y0118691D01*
X0118700Y0117093D02*
X0097345Y0117093D01*
X0098944Y0118691D02*
X0104920Y0118691D01*
X0102863Y0120290D02*
X0100543Y0120290D01*
X0102141Y0121888D02*
X0102173Y0121888D01*
X0095747Y0115494D02*
X0118700Y0115494D01*
X0118700Y0113896D02*
X0094148Y0113896D01*
X0093300Y0112297D02*
X0102045Y0112297D01*
X0100446Y0110699D02*
X0093300Y0110699D01*
X0093300Y0109100D02*
X0098848Y0109100D01*
X0097249Y0107502D02*
X0093300Y0107502D01*
X0093300Y0105903D02*
X0095651Y0105903D01*
X0094052Y0104305D02*
X0093300Y0104305D01*
X0091000Y0114000D02*
X0091000Y0058000D01*
X0094516Y0054484D01*
X0098606Y0054484D01*
X0098606Y0051925D02*
X0098606Y0051925D01*
X0098606Y0051554D02*
X0098606Y0051554D01*
X0098606Y0049955D02*
X0098606Y0049955D01*
X0094999Y0049955D02*
X0092297Y0049955D01*
X0093896Y0048357D02*
X0107104Y0048357D01*
X0105506Y0046758D02*
X0095494Y0046758D01*
X0097093Y0045160D02*
X0103907Y0045160D01*
X0102700Y0043561D02*
X0098691Y0043561D01*
X0100290Y0041963D02*
X0102700Y0041963D01*
X0101000Y0038000D02*
X0091000Y0048000D01*
X0089000Y0048000D01*
X0086494Y0045300D02*
X0085506Y0045300D01*
X0085681Y0045475D01*
X0085681Y0046113D01*
X0086494Y0045300D01*
X0085749Y0049955D02*
X0084251Y0049955D01*
X0085405Y0053152D02*
X0092595Y0053152D01*
X0090996Y0054751D02*
X0087004Y0054751D01*
X0088602Y0056349D02*
X0089398Y0056349D01*
X0090652Y0051554D02*
X0094602Y0051554D01*
X0093700Y0042047D02*
X0097319Y0038428D01*
X0097319Y0036475D01*
X0097494Y0036300D01*
X0096253Y0036300D01*
X0093700Y0038853D01*
X0093700Y0042047D01*
X0093700Y0041963D02*
X0093785Y0041963D01*
X0093700Y0040364D02*
X0095383Y0040364D01*
X0093787Y0038766D02*
X0096982Y0038766D01*
X0097319Y0037167D02*
X0095385Y0037167D01*
X0093000Y0032000D02*
X0087800Y0032000D01*
X0090147Y0035900D02*
X0082779Y0035900D01*
X0082300Y0035421D01*
X0082300Y0036094D01*
X0083406Y0037200D01*
X0088847Y0037200D01*
X0090147Y0035900D01*
X0088880Y0037167D02*
X0083373Y0037167D01*
X0082447Y0035569D02*
X0082300Y0035569D01*
X0073184Y0029175D02*
X0072816Y0029175D01*
X0082000Y0047000D02*
X0049000Y0047000D01*
X0044000Y0042000D01*
X0031000Y0039000D02*
X0028000Y0036000D01*
X0024274Y0032372D02*
X0018130Y0032372D01*
X0020179Y0033970D02*
X0023212Y0033970D01*
X0029000Y0027000D02*
X0029000Y0020000D01*
X0023000Y0014000D01*
X0013200Y0032372D02*
X0012800Y0032372D01*
X0012800Y0033970D02*
X0013200Y0033970D01*
X0013200Y0035569D02*
X0012800Y0035569D01*
X0012800Y0038766D02*
X0013200Y0038766D01*
X0013200Y0040364D02*
X0012800Y0040364D01*
X0012800Y0041963D02*
X0013200Y0041963D01*
X0009172Y0041963D02*
X0004800Y0041963D01*
X0004800Y0040364D02*
X0006093Y0040364D01*
X0005116Y0038766D02*
X0004800Y0038766D01*
X0004800Y0009993D02*
X0052755Y0009993D01*
X0054353Y0008394D02*
X0004800Y0008394D01*
X0004800Y0006796D02*
X0055952Y0006796D01*
X0057550Y0005197D02*
X0004800Y0005197D01*
X0048000Y0018000D02*
X0061000Y0005000D01*
X0079000Y0005000D01*
X0082000Y0008000D01*
X0084048Y0006796D02*
X0085200Y0006796D01*
X0085200Y0005197D02*
X0082450Y0005197D01*
X0072000Y0009000D02*
X0063000Y0009000D01*
X0054000Y0018000D01*
X0051494Y0020700D02*
X0050506Y0020700D01*
X0051000Y0020206D01*
X0051494Y0020700D01*
X0078841Y0049300D02*
X0079187Y0049393D01*
X0079094Y0049300D01*
X0078841Y0049300D01*
X0080398Y0051554D02*
X0087348Y0051554D01*
X0079720Y0064720D02*
X0076394Y0064720D01*
X0076394Y0062161D02*
X0073161Y0062161D01*
X0072000Y0061000D01*
X0079720Y0064720D02*
X0082000Y0067000D01*
X0093300Y0073553D02*
X0093300Y0076447D01*
X0094532Y0075216D01*
X0094902Y0075216D01*
X0094902Y0074698D01*
X0094445Y0074698D01*
X0093300Y0073553D01*
X0093300Y0073933D02*
X0093680Y0073933D01*
X0093300Y0075532D02*
X0094216Y0075532D01*
X0103720Y0067280D02*
X0107000Y0064000D01*
X0107319Y0067681D02*
X0106572Y0067681D01*
X0106253Y0068000D01*
X0106572Y0068319D01*
X0107319Y0068319D01*
X0107319Y0067681D01*
X0111000Y0062000D02*
X0111000Y0060000D01*
X0111000Y0062000D02*
X0113720Y0064720D01*
X0115689Y0072564D02*
X0114229Y0074023D01*
X0114681Y0074475D01*
X0114681Y0076066D01*
X0115532Y0075216D01*
X0115689Y0075216D01*
X0115689Y0073846D01*
X0115689Y0072564D01*
X0115689Y0073933D02*
X0114320Y0073933D01*
X0114681Y0075532D02*
X0115216Y0075532D01*
X0118000Y0080000D02*
X0120000Y0080000D01*
X0118000Y0080000D02*
X0115000Y0083000D01*
X0115000Y0086000D01*
X0115327Y0081926D02*
X0115702Y0081926D01*
X0116363Y0091517D02*
X0118700Y0091517D01*
X0118700Y0093115D02*
X0117506Y0093115D01*
X0117900Y0094714D02*
X0118700Y0094714D01*
X0118700Y0096312D02*
X0118565Y0096312D01*
X0115257Y0099509D02*
X0114596Y0099509D01*
X0118554Y0110699D02*
X0118700Y0110699D01*
X0118700Y0112297D02*
X0116955Y0112297D01*
X0116728Y0129881D02*
X0118700Y0129881D01*
X0118700Y0131479D02*
X0117657Y0131479D01*
X0117900Y0133078D02*
X0118700Y0133078D01*
X0118071Y0134676D02*
X0117593Y0134676D01*
X0124000Y0137000D02*
X0124000Y0086000D01*
X0124700Y0073447D02*
X0124700Y0059953D01*
X0124091Y0059343D01*
X0123098Y0059343D01*
X0123098Y0061050D01*
X0123098Y0072700D01*
X0123953Y0072700D01*
X0124700Y0073447D01*
X0124700Y0072334D02*
X0123098Y0072334D01*
X0123098Y0070736D02*
X0124700Y0070736D01*
X0124700Y0069137D02*
X0123098Y0069137D01*
X0123098Y0067539D02*
X0124700Y0067539D01*
X0124700Y0065940D02*
X0123098Y0065940D01*
X0123098Y0064342D02*
X0124700Y0064342D01*
X0124700Y0062743D02*
X0123098Y0062743D01*
X0123098Y0061145D02*
X0124700Y0061145D01*
X0124294Y0059546D02*
X0123098Y0059546D01*
X0128405Y0053152D02*
X0132200Y0053152D01*
X0132200Y0051554D02*
X0123398Y0051554D01*
X0123001Y0049955D02*
X0132200Y0049955D01*
X0132200Y0054751D02*
X0130004Y0054751D01*
X0131602Y0056349D02*
X0132200Y0056349D01*
X0119394Y0051925D02*
X0119394Y0051925D01*
X0109319Y0041475D02*
X0110208Y0040587D01*
X0107300Y0040587D01*
X0107300Y0042047D01*
X0109319Y0044066D01*
X0109319Y0041475D01*
X0109319Y0041963D02*
X0107300Y0041963D01*
X0108814Y0043561D02*
X0109319Y0043561D01*
X0106370Y0034117D02*
X0106370Y0031300D01*
X0105906Y0031300D01*
X0104729Y0032477D01*
X0105953Y0033700D01*
X0106370Y0034117D01*
X0106370Y0033970D02*
X0106223Y0033970D01*
X0106370Y0032372D02*
X0104834Y0032372D01*
X0102000Y0030000D02*
X0103000Y0029000D01*
X0102000Y0030000D02*
X0095000Y0030000D01*
X0093000Y0032000D01*
X0098676Y0027576D02*
X0099319Y0027576D01*
X0100275Y0025978D02*
X0100816Y0025978D01*
X0110000Y0031000D02*
X0110000Y0009000D01*
X0123800Y0013190D02*
X0124200Y0013190D01*
X0124200Y0014788D02*
X0123800Y0014788D01*
X0119692Y0032372D02*
X0118031Y0032372D01*
X0095500Y0006796D02*
X0094800Y0006796D01*
X0094800Y0005197D02*
X0095500Y0005197D01*
X0018920Y0118691D02*
X0012944Y0118691D01*
X0014543Y0120290D02*
X0016863Y0120290D01*
X0016173Y0121888D02*
X0016141Y0121888D01*
X0102300Y0153859D02*
X0103012Y0153859D01*
X0102300Y0155457D02*
X0105279Y0155457D01*
X0104098Y0157056D02*
X0103308Y0157056D01*
X0110000Y0151000D02*
X0124000Y0137000D01*
M02*
