%
M48
M72
T01C0.02362
T02C0.04000
%
T01
X23000Y14000
X48000Y18000
X54000Y18000
X64000Y23575
X65000Y17000
X72000Y9000
X78000Y10000
X80000Y16000
X78500Y22000
X64500Y31500
X80000Y39000
X82000Y47000
X89000Y48000
X101000Y38000
X103000Y29000
X113000Y43000
X107000Y56000
X111000Y60000
X107000Y64000
X111000Y68000
X107000Y72000
X111000Y76000
X107000Y80000
X101000Y85000
X87000Y87000
X82000Y71000
X72000Y86000
X64000Y80000
X68000Y76000
X64000Y72000
X68000Y68000
X64000Y64000
X64000Y56000
X48000Y30000
X37000Y47000
X21000Y56000
X21000Y64000
X25000Y68000
X21000Y72000
X25000Y76000
X21000Y80000
X15000Y85000
X29000Y86000
X39000Y71000
X44000Y87000
X58000Y85000
X19000Y48000
X115000Y86000
X130000Y86000
T02
X13000Y17000
X13000Y27000
X13000Y37000
X28000Y36000
X24000Y95000
X24000Y105000
X24000Y123000
X24000Y133000
X24000Y151000
X24000Y161000
X67000Y161000
X67000Y151000
X67000Y133000
X67000Y123000
X67000Y105000
X67000Y95000
X110000Y95000
X110000Y105000
X110000Y123000
X110000Y133000
X110000Y151000
X110000Y161000
X124000Y37000
X124000Y27000
X124000Y17000
M30
