G75*
%MOIN*%
%OFA0B0*%
%FSLAX25Y25*%
%IPPOS*%
%LPD*%
%AMOC8*
5,1,8,0,0,1.08239X$1,22.5*
%
%ADD10C,0.00400*%
%ADD11C,0.00500*%
D10*
X0032374Y0013499D02*
X0033709Y0013499D01*
X0033042Y0013499D02*
X0033042Y0015501D01*
X0033709Y0014833D01*
X0034584Y0015167D02*
X0034584Y0014500D01*
X0034918Y0014166D01*
X0035919Y0014166D01*
X0035919Y0013499D02*
X0035919Y0015501D01*
X0034918Y0015501D01*
X0034584Y0015167D01*
X0035251Y0014166D02*
X0034584Y0013499D01*
X0036794Y0013832D02*
X0037128Y0013499D01*
X0038129Y0013499D01*
X0038129Y0015501D01*
X0037128Y0015501D01*
X0036794Y0015167D01*
X0036794Y0014833D01*
X0037128Y0014500D01*
X0038129Y0014500D01*
X0039004Y0014500D02*
X0040338Y0014500D01*
X0040338Y0013499D02*
X0040338Y0015501D01*
X0039004Y0015501D02*
X0039004Y0013499D01*
X0037128Y0014500D02*
X0036794Y0014166D01*
X0036794Y0013832D01*
X0071744Y0013499D02*
X0073079Y0013499D01*
X0071744Y0014833D01*
X0071744Y0015167D01*
X0072078Y0015501D01*
X0072745Y0015501D01*
X0073079Y0015167D01*
X0073954Y0015167D02*
X0073954Y0014500D01*
X0074288Y0014166D01*
X0075289Y0014166D01*
X0075289Y0013499D02*
X0075289Y0015501D01*
X0074288Y0015501D01*
X0073954Y0015167D01*
X0074622Y0014166D02*
X0073954Y0013499D01*
X0076164Y0013832D02*
X0076498Y0013499D01*
X0077499Y0013499D01*
X0077499Y0015501D01*
X0076498Y0015501D01*
X0076164Y0015167D01*
X0076164Y0014833D01*
X0076498Y0014500D01*
X0077499Y0014500D01*
X0078374Y0014500D02*
X0079709Y0014500D01*
X0079709Y0013499D02*
X0079709Y0015501D01*
X0078374Y0015501D02*
X0078374Y0013499D01*
X0076498Y0014500D02*
X0076164Y0014166D01*
X0076164Y0013832D01*
X0112114Y0013832D02*
X0112448Y0013499D01*
X0113115Y0013499D01*
X0113449Y0013832D01*
X0114324Y0013499D02*
X0114992Y0014166D01*
X0114658Y0014166D02*
X0115659Y0014166D01*
X0115659Y0013499D02*
X0115659Y0015501D01*
X0114658Y0015501D01*
X0114324Y0015167D01*
X0114324Y0014500D01*
X0114658Y0014166D01*
X0113449Y0015167D02*
X0113115Y0015501D01*
X0112448Y0015501D01*
X0112114Y0015167D01*
X0112114Y0014833D01*
X0112448Y0014500D01*
X0112114Y0014166D01*
X0112114Y0013832D01*
X0112448Y0014500D02*
X0112782Y0014500D01*
X0116534Y0014833D02*
X0116868Y0014500D01*
X0117869Y0014500D01*
X0118744Y0014500D02*
X0120079Y0014500D01*
X0120079Y0013499D02*
X0120079Y0015501D01*
X0118744Y0015501D02*
X0118744Y0013499D01*
X0117869Y0013499D02*
X0116868Y0013499D01*
X0116534Y0013832D01*
X0116534Y0014166D01*
X0116868Y0014500D01*
X0116534Y0014833D02*
X0116534Y0015167D01*
X0116868Y0015501D01*
X0117869Y0015501D01*
X0117869Y0013499D01*
X0118115Y0059915D02*
X0118115Y0061916D01*
X0119116Y0060915D01*
X0117781Y0060915D01*
X0119991Y0060248D02*
X0120325Y0059915D01*
X0120992Y0059915D01*
X0121326Y0060248D01*
X0121326Y0061583D01*
X0120992Y0061916D01*
X0120325Y0061916D01*
X0119991Y0061583D01*
X0105971Y0061583D02*
X0105971Y0060248D01*
X0105638Y0059915D01*
X0104970Y0059915D01*
X0104637Y0060248D01*
X0103761Y0060248D02*
X0103428Y0059915D01*
X0102761Y0059915D01*
X0102427Y0060248D01*
X0102427Y0060582D01*
X0102761Y0060915D01*
X0103094Y0060915D01*
X0102761Y0060915D02*
X0102427Y0061249D01*
X0102427Y0061583D01*
X0102761Y0061916D01*
X0103428Y0061916D01*
X0103761Y0061583D01*
X0104637Y0061583D02*
X0104970Y0061916D01*
X0105638Y0061916D01*
X0105971Y0061583D01*
X0042979Y0061583D02*
X0042979Y0060248D01*
X0042646Y0059915D01*
X0041978Y0059915D01*
X0041645Y0060248D01*
X0040769Y0059915D02*
X0039435Y0059915D01*
X0040769Y0059915D02*
X0039435Y0061249D01*
X0039435Y0061583D01*
X0039768Y0061916D01*
X0040436Y0061916D01*
X0040769Y0061583D01*
X0041645Y0061583D02*
X0041978Y0061916D01*
X0042646Y0061916D01*
X0042979Y0061583D01*
X0026818Y0061382D02*
X0026818Y0060047D01*
X0026484Y0059714D01*
X0025817Y0059714D01*
X0025483Y0060047D01*
X0024608Y0059714D02*
X0023273Y0059714D01*
X0023941Y0059714D02*
X0023941Y0061716D01*
X0024608Y0061048D01*
X0025483Y0061382D02*
X0025817Y0061716D01*
X0026484Y0061716D01*
X0026818Y0061382D01*
D11*
X0025522Y0050226D02*
X0040876Y0050226D01*
X0040876Y0016171D01*
X0025522Y0016171D01*
X0025522Y0050226D01*
X0064892Y0050226D02*
X0080246Y0050226D01*
X0080246Y0016171D01*
X0064892Y0016171D01*
X0064892Y0050226D01*
X0104262Y0050226D02*
X0119616Y0050226D01*
X0119616Y0016171D01*
X0104262Y0016171D01*
X0104262Y0050226D01*
M02*
