G75*
%MOIN*%
%OFA0B0*%
%FSLAX25Y25*%
%IPPOS*%
%LPD*%
%AMOC8*
5,1,8,0,0,1.08239X$1,22.5*
%
%ADD10R,0.04331X0.03937*%
%ADD11R,0.04724X0.01378*%
%ADD12C,0.07400*%
%ADD13C,0.01378*%
%ADD14OC8,0.03969*%
D10*
X0021585Y0056821D03*
X0028278Y0056821D03*
X0037726Y0056821D03*
X0044419Y0056821D03*
X0100719Y0056821D03*
X0107411Y0056821D03*
X0116467Y0056821D03*
X0123159Y0056821D03*
D11*
X0122490Y0047274D03*
X0122490Y0044715D03*
X0122490Y0042156D03*
X0122490Y0039597D03*
X0122490Y0037037D03*
X0122490Y0034478D03*
X0122490Y0031919D03*
X0122490Y0029360D03*
X0122490Y0026801D03*
X0122490Y0024242D03*
X0122490Y0021683D03*
X0122490Y0019124D03*
X0101388Y0019124D03*
X0101388Y0021683D03*
X0101388Y0024242D03*
X0101388Y0026801D03*
X0101388Y0029360D03*
X0101388Y0031919D03*
X0101388Y0034478D03*
X0101388Y0037037D03*
X0101388Y0039597D03*
X0101388Y0042156D03*
X0101388Y0044715D03*
X0101388Y0047274D03*
X0083120Y0047274D03*
X0083120Y0044715D03*
X0083120Y0042156D03*
X0083120Y0039597D03*
X0083120Y0037037D03*
X0083120Y0034478D03*
X0083120Y0031919D03*
X0083120Y0029360D03*
X0083120Y0026801D03*
X0083120Y0024242D03*
X0083120Y0021683D03*
X0083120Y0019124D03*
X0062018Y0019124D03*
X0062018Y0021683D03*
X0062018Y0024242D03*
X0062018Y0026801D03*
X0062018Y0029360D03*
X0062018Y0031919D03*
X0062018Y0034478D03*
X0062018Y0037037D03*
X0062018Y0039597D03*
X0062018Y0042156D03*
X0062018Y0044715D03*
X0062018Y0047274D03*
X0043750Y0047274D03*
X0043750Y0044715D03*
X0043750Y0042156D03*
X0043750Y0039597D03*
X0043750Y0037037D03*
X0043750Y0034478D03*
X0043750Y0031919D03*
X0043750Y0029360D03*
X0043750Y0026801D03*
X0043750Y0024242D03*
X0043750Y0021683D03*
X0043750Y0019124D03*
X0022648Y0019124D03*
X0022648Y0021683D03*
X0022648Y0024242D03*
X0022648Y0026801D03*
X0022648Y0029360D03*
X0022648Y0031919D03*
X0022648Y0034478D03*
X0022648Y0037037D03*
X0022648Y0039597D03*
X0022648Y0042156D03*
X0022648Y0044715D03*
X0022648Y0047274D03*
D12*
X0009577Y0045876D03*
X0009577Y0035876D03*
X0009577Y0025876D03*
X0009577Y0015876D03*
X0009577Y0055876D03*
X0135561Y0055876D03*
X0135561Y0045876D03*
X0135561Y0035876D03*
X0135561Y0025876D03*
X0135561Y0015876D03*
D13*
X0004278Y0003683D02*
X0003683Y0004278D01*
X0003395Y0005069D01*
X0003392Y0005198D01*
X0003392Y0005566D01*
X0003446Y0006190D01*
X0003392Y0006255D01*
X0003392Y0060143D01*
X0003446Y0060208D01*
X0003392Y0060832D01*
X0003392Y0061200D01*
X0003395Y0061329D01*
X0003683Y0062120D01*
X0004278Y0062715D01*
X0005069Y0063003D01*
X0005198Y0063006D01*
X0005566Y0063006D01*
X0006190Y0062951D01*
X0006255Y0063006D01*
X0138883Y0063006D01*
X0138948Y0062951D01*
X0139572Y0063006D01*
X0139940Y0063006D01*
X0140069Y0063003D01*
X0140860Y0062715D01*
X0141455Y0062120D01*
X0141743Y0061329D01*
X0141746Y0061199D01*
X0141746Y0060832D01*
X0141692Y0060208D01*
X0141746Y0060143D01*
X0141746Y0006255D01*
X0141692Y0006190D01*
X0141746Y0005566D01*
X0141746Y0005198D01*
X0141743Y0005069D01*
X0141455Y0004278D01*
X0140860Y0003683D01*
X0140069Y0003395D01*
X0139940Y0003392D01*
X0139572Y0003392D01*
X0138948Y0003446D01*
X0138883Y0003392D01*
X0006255Y0003392D01*
X0006190Y0003446D01*
X0005566Y0003392D01*
X0005198Y0003392D01*
X0005069Y0003395D01*
X0004278Y0003683D01*
X0003697Y0004263D02*
X0141441Y0004263D01*
X0141740Y0005640D02*
X0003398Y0005640D01*
X0003392Y0007016D02*
X0141746Y0007016D01*
X0141746Y0008393D02*
X0003392Y0008393D01*
X0003392Y0009769D02*
X0054362Y0009769D01*
X0055071Y0009059D02*
X0057783Y0009059D01*
X0059700Y0010977D01*
X0059700Y0013689D01*
X0057783Y0015606D01*
X0057224Y0015606D01*
X0057224Y0030805D01*
X0057967Y0031547D01*
X0057967Y0031008D01*
X0058065Y0030640D01*
X0057967Y0030272D01*
X0057967Y0029360D01*
X0057967Y0028449D01*
X0058082Y0028019D01*
X0058304Y0027634D01*
X0058367Y0027572D01*
X0058367Y0025578D01*
X0058423Y0025522D01*
X0058367Y0025465D01*
X0058367Y0023019D01*
X0058423Y0022963D01*
X0058367Y0022906D01*
X0058367Y0020913D01*
X0058304Y0020850D01*
X0058082Y0020465D01*
X0057967Y0020035D01*
X0057967Y0019124D01*
X0057967Y0018213D01*
X0058082Y0017783D01*
X0058304Y0017398D01*
X0058619Y0017084D01*
X0059004Y0016861D01*
X0059433Y0016746D01*
X0062018Y0016746D01*
X0064602Y0016746D01*
X0065032Y0016861D01*
X0065417Y0017084D01*
X0065731Y0017398D01*
X0065954Y0017783D01*
X0066069Y0018213D01*
X0066069Y0019124D01*
X0062018Y0019124D01*
X0062018Y0019124D01*
X0066069Y0019124D01*
X0066069Y0019705D01*
X0067778Y0019705D01*
X0068937Y0020864D01*
X0072185Y0024112D01*
X0072185Y0024642D01*
X0073480Y0025938D01*
X0073480Y0028649D01*
X0071563Y0030567D01*
X0068851Y0030567D01*
X0068641Y0030357D01*
X0068641Y0036298D01*
X0072439Y0032500D01*
X0076497Y0032500D01*
X0076497Y0028541D01*
X0077655Y0027382D01*
X0079469Y0027382D01*
X0079469Y0025578D01*
X0079526Y0025522D01*
X0079469Y0025465D01*
X0079469Y0023019D01*
X0079526Y0022963D01*
X0079469Y0022906D01*
X0079469Y0020913D01*
X0079406Y0020850D01*
X0079184Y0020465D01*
X0079069Y0020035D01*
X0079069Y0019124D01*
X0079069Y0018213D01*
X0079184Y0017783D01*
X0079406Y0017398D01*
X0079721Y0017084D01*
X0080106Y0016861D01*
X0080292Y0016811D01*
X0079532Y0016051D01*
X0079532Y0013339D01*
X0081449Y0011422D01*
X0084161Y0011422D01*
X0084650Y0011911D01*
X0084650Y0010977D01*
X0086567Y0009059D01*
X0089279Y0009059D01*
X0091196Y0010977D01*
X0091196Y0012809D01*
X0095829Y0017441D01*
X0096988Y0018600D01*
X0096988Y0031198D01*
X0097337Y0031547D01*
X0097337Y0031008D01*
X0097435Y0030640D01*
X0097337Y0030272D01*
X0097337Y0029360D01*
X0097337Y0028449D01*
X0097452Y0028019D01*
X0097674Y0027634D01*
X0097737Y0027572D01*
X0097737Y0025578D01*
X0097793Y0025522D01*
X0097737Y0025465D01*
X0097737Y0023019D01*
X0097793Y0022963D01*
X0097737Y0022906D01*
X0097737Y0020913D01*
X0097674Y0020850D01*
X0097452Y0020465D01*
X0097337Y0020035D01*
X0097337Y0019124D01*
X0097337Y0018213D01*
X0097452Y0017783D01*
X0097674Y0017398D01*
X0097989Y0017084D01*
X0098374Y0016861D01*
X0098803Y0016746D01*
X0101388Y0016746D01*
X0103972Y0016746D01*
X0104402Y0016861D01*
X0104787Y0017084D01*
X0105102Y0017398D01*
X0105324Y0017783D01*
X0105439Y0018213D01*
X0105439Y0019124D01*
X0101388Y0019124D01*
X0101388Y0019124D01*
X0105439Y0019124D01*
X0105439Y0019705D01*
X0107542Y0019705D01*
X0108700Y0020864D01*
X0109961Y0022124D01*
X0109961Y0020175D01*
X0111536Y0018600D01*
X0112695Y0017441D01*
X0117876Y0017441D01*
X0118483Y0018048D01*
X0118554Y0017783D01*
X0118776Y0017398D01*
X0119091Y0017084D01*
X0119476Y0016861D01*
X0119906Y0016746D01*
X0122490Y0016746D01*
X0122490Y0019124D01*
X0122490Y0019124D01*
X0132313Y0019124D01*
X0135561Y0015876D01*
X0141073Y0021388D01*
X0141073Y0058789D01*
X0138317Y0061545D01*
X0127884Y0061545D01*
X0123159Y0056821D01*
X0123159Y0048357D01*
X0122490Y0048310D02*
X0122490Y0048310D01*
X0123159Y0048357D02*
X0123157Y0048297D01*
X0123152Y0048236D01*
X0123143Y0048177D01*
X0123130Y0048118D01*
X0123114Y0048059D01*
X0123094Y0048002D01*
X0123071Y0047947D01*
X0123044Y0047892D01*
X0123015Y0047840D01*
X0122982Y0047789D01*
X0122946Y0047740D01*
X0122908Y0047694D01*
X0122866Y0047650D01*
X0122867Y0047650D02*
X0122490Y0047274D01*
X0122490Y0049652D01*
X0120724Y0049652D01*
X0120724Y0051878D01*
X0119038Y0053563D01*
X0119166Y0053563D01*
X0119560Y0053958D01*
X0119643Y0053815D01*
X0119957Y0053501D01*
X0120342Y0053279D01*
X0120772Y0053163D01*
X0122864Y0053163D01*
X0122864Y0056526D01*
X0123455Y0056526D01*
X0123455Y0057116D01*
X0127014Y0057116D01*
X0127014Y0059012D01*
X0126899Y0059441D01*
X0126676Y0059826D01*
X0126362Y0060141D01*
X0125977Y0060363D01*
X0125547Y0060478D01*
X0123455Y0060478D01*
X0123455Y0057116D01*
X0122864Y0057116D01*
X0122864Y0060478D01*
X0120772Y0060478D01*
X0120342Y0060363D01*
X0119957Y0060141D01*
X0119643Y0059826D01*
X0119560Y0059684D01*
X0119166Y0060078D01*
X0113767Y0060078D01*
X0113012Y0059323D01*
X0113012Y0058799D01*
X0110866Y0058799D01*
X0110866Y0059323D01*
X0110111Y0060078D01*
X0109193Y0060078D01*
X0109193Y0060396D01*
X0108034Y0061555D01*
X0107247Y0062342D01*
X0087891Y0062342D01*
X0086733Y0061184D01*
X0085250Y0059700D01*
X0083418Y0059700D01*
X0081500Y0057783D01*
X0081500Y0055071D01*
X0083418Y0053154D01*
X0086129Y0053154D01*
X0088047Y0055071D01*
X0088047Y0056903D01*
X0089530Y0058386D01*
X0096864Y0058386D01*
X0096864Y0057116D01*
X0100423Y0057116D01*
X0100423Y0056526D01*
X0096864Y0056526D01*
X0096864Y0054630D01*
X0096979Y0054200D01*
X0097202Y0053815D01*
X0097516Y0053501D01*
X0097901Y0053279D01*
X0098331Y0053163D01*
X0100423Y0053163D01*
X0100423Y0056526D01*
X0101014Y0056526D01*
X0101014Y0053163D01*
X0103106Y0053163D01*
X0103536Y0053279D01*
X0103662Y0053351D01*
X0103662Y0049652D01*
X0101388Y0049652D01*
X0101388Y0047274D01*
X0101388Y0047274D01*
X0101388Y0049652D01*
X0098803Y0049652D01*
X0098374Y0049537D01*
X0097989Y0049314D01*
X0097674Y0049000D01*
X0097452Y0048615D01*
X0097337Y0048185D01*
X0097337Y0047274D01*
X0101388Y0047274D01*
X0100719Y0047943D01*
X0100719Y0054852D01*
X0100325Y0055246D01*
X0088711Y0055246D01*
X0085955Y0052490D01*
X0083413Y0049948D01*
X0083120Y0049652D02*
X0083120Y0047274D01*
X0083120Y0049652D01*
X0080536Y0049652D01*
X0080106Y0049537D01*
X0079721Y0049314D01*
X0079406Y0049000D01*
X0079184Y0048615D01*
X0079069Y0048185D01*
X0079069Y0047274D01*
X0083120Y0047274D01*
X0083120Y0047274D01*
X0083120Y0047274D01*
X0083120Y0049241D01*
X0083120Y0049652D02*
X0085705Y0049652D01*
X0086134Y0049537D01*
X0086519Y0049314D01*
X0086665Y0049168D01*
X0087231Y0049734D01*
X0087012Y0049953D01*
X0087012Y0052665D01*
X0088930Y0054582D01*
X0091641Y0054582D01*
X0093559Y0052665D01*
X0093559Y0050833D01*
X0097337Y0047055D01*
X0097337Y0047274D01*
X0101388Y0047274D01*
X0101388Y0047274D01*
X0101388Y0048310D02*
X0101388Y0048310D01*
X0103662Y0049687D02*
X0094705Y0049687D01*
X0093559Y0051063D02*
X0103662Y0051063D01*
X0103662Y0052440D02*
X0093559Y0052440D01*
X0092408Y0053816D02*
X0097201Y0053816D01*
X0096864Y0055193D02*
X0088047Y0055193D01*
X0088163Y0053816D02*
X0086792Y0053816D01*
X0087012Y0052440D02*
X0068641Y0052440D01*
X0068641Y0053816D02*
X0082756Y0053816D01*
X0081500Y0055193D02*
X0067939Y0055193D01*
X0067483Y0055649D02*
X0064727Y0058405D01*
X0055535Y0058405D01*
X0054240Y0059700D01*
X0052408Y0059700D01*
X0050925Y0061184D01*
X0049766Y0062342D01*
X0037891Y0062342D01*
X0036907Y0061358D01*
X0035748Y0060199D01*
X0035748Y0060078D01*
X0035027Y0060078D01*
X0034272Y0059323D01*
X0034272Y0058799D01*
X0031732Y0058799D01*
X0031732Y0059323D01*
X0030977Y0060078D01*
X0025578Y0060078D01*
X0025184Y0059684D01*
X0025102Y0059826D01*
X0024787Y0060141D01*
X0024402Y0060363D01*
X0023972Y0060478D01*
X0021880Y0060478D01*
X0021880Y0057116D01*
X0021289Y0057116D01*
X0021289Y0056526D01*
X0017730Y0056526D01*
X0017730Y0054630D01*
X0017845Y0054200D01*
X0018068Y0053815D01*
X0018382Y0053501D01*
X0018767Y0053279D01*
X0019197Y0053163D01*
X0021289Y0053163D01*
X0021289Y0056526D01*
X0021880Y0056526D01*
X0021880Y0053163D01*
X0022559Y0053163D01*
X0022559Y0050096D01*
X0023004Y0049652D01*
X0022648Y0049652D01*
X0022648Y0047274D01*
X0022648Y0047274D01*
X0022648Y0049652D01*
X0020063Y0049652D01*
X0019634Y0049537D01*
X0019248Y0049314D01*
X0018934Y0049000D01*
X0018712Y0048615D01*
X0018597Y0048185D01*
X0018597Y0047843D01*
X0017818Y0048622D01*
X0018756Y0049560D01*
X0018756Y0052271D01*
X0016838Y0054189D01*
X0014278Y0054189D01*
X0014566Y0054884D01*
X0014566Y0056868D01*
X0013806Y0058702D01*
X0012403Y0060105D01*
X0010569Y0060865D01*
X0008584Y0060865D01*
X0006751Y0060105D01*
X0005347Y0058702D01*
X0004588Y0056868D01*
X0004588Y0054884D01*
X0005347Y0053050D01*
X0006751Y0051647D01*
X0008584Y0050887D01*
X0010569Y0050887D01*
X0012209Y0051566D01*
X0012209Y0050186D01*
X0010569Y0050865D01*
X0008584Y0050865D01*
X0006751Y0050105D01*
X0005347Y0048702D01*
X0004588Y0046868D01*
X0004588Y0044884D01*
X0005347Y0043050D01*
X0006751Y0041647D01*
X0008584Y0040887D01*
X0010569Y0040887D01*
X0012403Y0041647D01*
X0013806Y0043050D01*
X0014566Y0044884D01*
X0014566Y0046279D01*
X0016949Y0043895D01*
X0018108Y0042737D01*
X0018997Y0042737D01*
X0018997Y0040933D01*
X0019053Y0040876D01*
X0018997Y0040819D01*
X0018997Y0039015D01*
X0013493Y0039015D01*
X0012403Y0040105D01*
X0010569Y0040865D01*
X0008584Y0040865D01*
X0006751Y0040105D01*
X0005347Y0038702D01*
X0004588Y0036868D01*
X0004588Y0034884D01*
X0005347Y0033050D01*
X0006751Y0031647D01*
X0008584Y0030887D01*
X0010569Y0030887D01*
X0012403Y0031647D01*
X0013806Y0033050D01*
X0014566Y0034884D01*
X0014566Y0035059D01*
X0015963Y0035059D01*
X0011417Y0030514D01*
X0010569Y0030865D01*
X0008584Y0030865D01*
X0006751Y0030105D01*
X0005347Y0028702D01*
X0004588Y0026868D01*
X0004588Y0024884D01*
X0005347Y0023050D01*
X0006751Y0021647D01*
X0008134Y0021074D01*
X0007508Y0020870D01*
X0006752Y0020485D01*
X0006066Y0019987D01*
X0005466Y0019387D01*
X0004968Y0018700D01*
X0004583Y0017945D01*
X0004321Y0017138D01*
X0004188Y0016300D01*
X0004188Y0016187D01*
X0009266Y0016187D01*
X0009266Y0020887D01*
X0009888Y0020887D01*
X0009888Y0016187D01*
X0014966Y0016187D01*
X0014966Y0016300D01*
X0014833Y0017138D01*
X0014571Y0017945D01*
X0014186Y0018700D01*
X0013687Y0019387D01*
X0013087Y0019987D01*
X0012401Y0020485D01*
X0011645Y0020870D01*
X0011019Y0021074D01*
X0012403Y0021647D01*
X0013806Y0023050D01*
X0014566Y0024884D01*
X0014566Y0026868D01*
X0014214Y0027716D01*
X0018597Y0032098D01*
X0018597Y0031919D01*
X0018597Y0031008D01*
X0018695Y0030640D01*
X0018597Y0030272D01*
X0018597Y0029360D01*
X0018597Y0028449D01*
X0018712Y0028019D01*
X0018934Y0027634D01*
X0018997Y0027572D01*
X0018997Y0025578D01*
X0019053Y0025522D01*
X0018997Y0025465D01*
X0018997Y0023019D01*
X0019053Y0022963D01*
X0018997Y0022906D01*
X0018997Y0020913D01*
X0018934Y0020850D01*
X0018712Y0020465D01*
X0018597Y0020035D01*
X0018597Y0019124D01*
X0018597Y0018213D01*
X0018712Y0017783D01*
X0018934Y0017398D01*
X0019248Y0017084D01*
X0019634Y0016861D01*
X0020063Y0016746D01*
X0022648Y0016746D01*
X0025201Y0016746D01*
X0025201Y0015701D01*
X0027119Y0013784D01*
X0029830Y0013784D01*
X0031748Y0015701D01*
X0031748Y0018413D01*
X0030452Y0019708D01*
X0030452Y0021026D01*
X0029294Y0022185D01*
X0027817Y0023661D01*
X0026299Y0023661D01*
X0026299Y0024823D01*
X0028113Y0024823D01*
X0028395Y0025106D01*
X0030268Y0023233D01*
X0032100Y0023233D01*
X0035628Y0019705D01*
X0039699Y0019705D01*
X0039699Y0019124D01*
X0039699Y0018213D01*
X0039814Y0017783D01*
X0040036Y0017398D01*
X0040351Y0017084D01*
X0040736Y0016861D01*
X0041165Y0016746D01*
X0043750Y0016746D01*
X0043750Y0019124D01*
X0046486Y0019124D01*
X0047372Y0018238D01*
X0047372Y0013514D01*
X0052591Y0008295D01*
X0053298Y0008002D02*
X0059183Y0008002D01*
X0059577Y0008002D02*
X0070207Y0008002D01*
X0081329Y0019124D01*
X0083120Y0019124D01*
X0079069Y0019124D01*
X0083120Y0019124D01*
X0083120Y0019124D01*
X0079069Y0019404D02*
X0066069Y0019404D01*
X0066019Y0018028D02*
X0079118Y0018028D01*
X0080133Y0016652D02*
X0057224Y0016652D01*
X0057224Y0018028D02*
X0058016Y0018028D01*
X0058002Y0019124D02*
X0060758Y0016368D01*
X0060758Y0009183D01*
X0059855Y0008280D01*
X0059577Y0008002D02*
X0060758Y0009183D01*
X0059855Y0008280D02*
X0059813Y0008241D01*
X0059769Y0008204D01*
X0059723Y0008170D01*
X0059674Y0008139D01*
X0059624Y0008111D01*
X0059573Y0008086D01*
X0059520Y0008064D01*
X0059466Y0008045D01*
X0059410Y0008030D01*
X0059354Y0008018D01*
X0059298Y0008009D01*
X0059240Y0008004D01*
X0059183Y0008002D01*
X0058493Y0009769D02*
X0085858Y0009769D01*
X0084650Y0011146D02*
X0059700Y0011146D01*
X0059700Y0012522D02*
X0080349Y0012522D01*
X0079532Y0013899D02*
X0059490Y0013899D01*
X0058114Y0015275D02*
X0079532Y0015275D01*
X0082805Y0014695D02*
X0084380Y0016270D01*
X0088317Y0016270D01*
X0092648Y0020600D01*
X0092648Y0033593D01*
X0096093Y0037037D01*
X0101388Y0037037D01*
X0101388Y0039597D02*
X0105640Y0039597D01*
X0105640Y0037136D01*
X0108297Y0034478D01*
X0117845Y0034478D01*
X0117845Y0029360D01*
X0122490Y0029360D01*
X0126141Y0029040D02*
X0131669Y0029040D01*
X0131332Y0028702D02*
X0130572Y0026868D01*
X0130572Y0024884D01*
X0131332Y0023050D01*
X0132735Y0021647D01*
X0134118Y0021074D01*
X0133492Y0020870D01*
X0132737Y0020485D01*
X0132050Y0019987D01*
X0131451Y0019387D01*
X0130952Y0018700D01*
X0130567Y0017945D01*
X0130305Y0017138D01*
X0130172Y0016300D01*
X0130172Y0016187D01*
X0135250Y0016187D01*
X0135250Y0015565D01*
X0130172Y0015565D01*
X0130172Y0015452D01*
X0130305Y0014614D01*
X0130567Y0013807D01*
X0130952Y0013052D01*
X0131451Y0012365D01*
X0132050Y0011766D01*
X0132737Y0011267D01*
X0133492Y0010882D01*
X0134299Y0010620D01*
X0135137Y0010487D01*
X0135250Y0010487D01*
X0135250Y0015565D01*
X0135872Y0015565D01*
X0135872Y0010487D01*
X0135985Y0010487D01*
X0136823Y0010620D01*
X0137630Y0010882D01*
X0138386Y0011267D01*
X0139072Y0011766D01*
X0139672Y0012365D01*
X0140170Y0013052D01*
X0140555Y0013807D01*
X0140817Y0014614D01*
X0140950Y0015452D01*
X0140950Y0015565D01*
X0135872Y0015565D01*
X0135872Y0016187D01*
X0140950Y0016187D01*
X0140950Y0016300D01*
X0140817Y0017138D01*
X0140555Y0017945D01*
X0140170Y0018700D01*
X0139672Y0019387D01*
X0139072Y0019987D01*
X0138386Y0020485D01*
X0137630Y0020870D01*
X0137004Y0021074D01*
X0138387Y0021647D01*
X0139791Y0023050D01*
X0140550Y0024884D01*
X0140550Y0026868D01*
X0139791Y0028702D01*
X0138387Y0030105D01*
X0136553Y0030865D01*
X0134569Y0030865D01*
X0132735Y0030105D01*
X0131332Y0028702D01*
X0130901Y0027663D02*
X0126141Y0027663D01*
X0126141Y0028024D02*
X0126085Y0028081D01*
X0126141Y0028137D01*
X0126141Y0029941D01*
X0127227Y0029941D01*
X0130475Y0033189D01*
X0131040Y0033754D01*
X0131332Y0033050D01*
X0132735Y0031647D01*
X0134569Y0030887D01*
X0136553Y0030887D01*
X0138387Y0031647D01*
X0139791Y0033050D01*
X0140550Y0034884D01*
X0140550Y0036868D01*
X0139791Y0038702D01*
X0138387Y0040105D01*
X0136553Y0040865D01*
X0134569Y0040865D01*
X0132735Y0040105D01*
X0131634Y0039004D01*
X0131634Y0039151D01*
X0133721Y0041238D01*
X0134569Y0040887D01*
X0136553Y0040887D01*
X0138387Y0041647D01*
X0139791Y0043050D01*
X0140550Y0044884D01*
X0140550Y0046868D01*
X0139791Y0048702D01*
X0138387Y0050105D01*
X0136553Y0050865D01*
X0134569Y0050865D01*
X0132735Y0050105D01*
X0131332Y0048702D01*
X0130572Y0046868D01*
X0130572Y0044884D01*
X0130923Y0044036D01*
X0129271Y0042383D01*
X0129271Y0047871D01*
X0130567Y0049166D01*
X0130567Y0051878D01*
X0128649Y0053795D01*
X0126656Y0053795D01*
X0126676Y0053815D01*
X0126899Y0054200D01*
X0127014Y0054630D01*
X0127014Y0056526D01*
X0123455Y0056526D01*
X0123455Y0053163D01*
X0125306Y0053163D01*
X0124020Y0051878D01*
X0124020Y0049652D01*
X0122490Y0049652D01*
X0122490Y0047274D01*
X0122490Y0047274D01*
X0124020Y0049687D02*
X0120724Y0049687D01*
X0120724Y0051063D02*
X0124020Y0051063D01*
X0124582Y0052440D02*
X0120162Y0052440D01*
X0119642Y0053816D02*
X0119418Y0053816D01*
X0122864Y0053816D02*
X0123455Y0053816D01*
X0123455Y0055193D02*
X0122864Y0055193D01*
X0123455Y0056569D02*
X0130572Y0056569D01*
X0130572Y0056868D02*
X0130572Y0054884D01*
X0131332Y0053050D01*
X0132735Y0051647D01*
X0134569Y0050887D01*
X0136553Y0050887D01*
X0138387Y0051647D01*
X0139791Y0053050D01*
X0140550Y0054884D01*
X0140550Y0056868D01*
X0139791Y0058702D01*
X0138387Y0060105D01*
X0136553Y0060865D01*
X0134569Y0060865D01*
X0132735Y0060105D01*
X0131332Y0058702D01*
X0130572Y0056868D01*
X0131018Y0057945D02*
X0127014Y0057945D01*
X0126931Y0059322D02*
X0131951Y0059322D01*
X0134166Y0060698D02*
X0108890Y0060698D01*
X0107514Y0062075D02*
X0141472Y0062075D01*
X0141734Y0060698D02*
X0136956Y0060698D01*
X0139171Y0059322D02*
X0141746Y0059322D01*
X0141746Y0057945D02*
X0140104Y0057945D01*
X0140550Y0056569D02*
X0141746Y0056569D01*
X0141746Y0055193D02*
X0140550Y0055193D01*
X0140108Y0053816D02*
X0141746Y0053816D01*
X0141746Y0052440D02*
X0139180Y0052440D01*
X0136979Y0051063D02*
X0141746Y0051063D01*
X0141746Y0049687D02*
X0138806Y0049687D01*
X0139953Y0048310D02*
X0141746Y0048310D01*
X0141746Y0046934D02*
X0140523Y0046934D01*
X0140550Y0045557D02*
X0141746Y0045557D01*
X0141746Y0044181D02*
X0140259Y0044181D01*
X0139545Y0042804D02*
X0141746Y0042804D01*
X0141746Y0041428D02*
X0137859Y0041428D01*
X0138441Y0040051D02*
X0141746Y0040051D01*
X0141746Y0038675D02*
X0139802Y0038675D01*
X0140372Y0037298D02*
X0141746Y0037298D01*
X0141746Y0035922D02*
X0140550Y0035922D01*
X0140410Y0034546D02*
X0141746Y0034546D01*
X0141746Y0033169D02*
X0139840Y0033169D01*
X0138533Y0031793D02*
X0141746Y0031793D01*
X0141746Y0030416D02*
X0137637Y0030416D01*
X0139453Y0029040D02*
X0141746Y0029040D01*
X0141746Y0027663D02*
X0140221Y0027663D01*
X0140550Y0026287D02*
X0141746Y0026287D01*
X0141746Y0024910D02*
X0140550Y0024910D01*
X0139991Y0023534D02*
X0141746Y0023534D01*
X0141746Y0022157D02*
X0138898Y0022157D01*
X0137805Y0020781D02*
X0141746Y0020781D01*
X0141746Y0019404D02*
X0139654Y0019404D01*
X0140513Y0018028D02*
X0141746Y0018028D01*
X0141746Y0016652D02*
X0140894Y0016652D01*
X0140922Y0015275D02*
X0141746Y0015275D01*
X0141746Y0013899D02*
X0140585Y0013899D01*
X0139785Y0012522D02*
X0141746Y0012522D01*
X0141746Y0011146D02*
X0138147Y0011146D01*
X0135872Y0011146D02*
X0135250Y0011146D01*
X0135250Y0012522D02*
X0135872Y0012522D01*
X0135872Y0013899D02*
X0135250Y0013899D01*
X0135250Y0015275D02*
X0135872Y0015275D01*
X0131337Y0012522D02*
X0091196Y0012522D01*
X0091196Y0011146D02*
X0132975Y0011146D01*
X0130537Y0013899D02*
X0092286Y0013899D01*
X0093663Y0015275D02*
X0130200Y0015275D01*
X0130228Y0016652D02*
X0095039Y0016652D01*
X0096416Y0018028D02*
X0097386Y0018028D01*
X0097372Y0019124D02*
X0097372Y0014301D01*
X0092254Y0009183D01*
X0089989Y0009769D02*
X0141746Y0009769D01*
X0126426Y0017783D02*
X0126204Y0017398D01*
X0125889Y0017084D01*
X0125504Y0016861D01*
X0125075Y0016746D01*
X0122490Y0016746D01*
X0122490Y0019124D01*
X0122490Y0019124D01*
X0126541Y0019124D01*
X0126541Y0018213D01*
X0126426Y0017783D01*
X0126492Y0018028D02*
X0130609Y0018028D01*
X0131468Y0019404D02*
X0126541Y0019404D01*
X0126541Y0019124D02*
X0126541Y0020035D01*
X0126426Y0020465D01*
X0126204Y0020850D01*
X0126141Y0020913D01*
X0126141Y0022906D01*
X0126085Y0022963D01*
X0126141Y0023019D01*
X0126141Y0025465D01*
X0126085Y0025522D01*
X0126141Y0025578D01*
X0126141Y0028024D01*
X0126141Y0026287D02*
X0130572Y0026287D01*
X0130572Y0024910D02*
X0126141Y0024910D01*
X0122490Y0024242D02*
X0116368Y0024242D01*
X0115876Y0023750D01*
X0113908Y0027293D02*
X0111939Y0025325D01*
X0111939Y0020994D01*
X0113514Y0019419D01*
X0117057Y0019419D01*
X0119321Y0021683D01*
X0122490Y0021683D01*
X0126141Y0022157D02*
X0132224Y0022157D01*
X0133317Y0020781D02*
X0126244Y0020781D01*
X0126541Y0019124D02*
X0122490Y0019124D01*
X0122490Y0018028D02*
X0122490Y0018028D01*
X0118489Y0018028D02*
X0118463Y0018028D01*
X0112108Y0018028D02*
X0105390Y0018028D01*
X0105439Y0019404D02*
X0110731Y0019404D01*
X0111536Y0018600D02*
X0111536Y0018600D01*
X0109961Y0020781D02*
X0108618Y0020781D01*
X0106722Y0021683D02*
X0101388Y0021683D01*
X0097737Y0022157D02*
X0096988Y0022157D01*
X0096988Y0020781D02*
X0097634Y0020781D01*
X0097337Y0019404D02*
X0096988Y0019404D01*
X0097337Y0019124D02*
X0101388Y0019124D01*
X0101388Y0016746D01*
X0101388Y0019124D01*
X0101388Y0019124D01*
X0097372Y0019124D01*
X0097372Y0028081D01*
X0098652Y0029360D01*
X0101388Y0029360D01*
X0101388Y0031919D01*
X0101388Y0029541D01*
X0101388Y0029360D01*
X0097337Y0029360D01*
X0101388Y0029360D01*
X0101388Y0029360D01*
X0101388Y0029360D01*
X0101388Y0031919D01*
X0101388Y0031919D01*
X0101388Y0031793D02*
X0101388Y0031793D01*
X0101388Y0030416D02*
X0101388Y0030416D01*
X0097375Y0030416D02*
X0096988Y0030416D01*
X0096988Y0029040D02*
X0097337Y0029040D01*
X0097657Y0027663D02*
X0096988Y0027663D01*
X0096988Y0026287D02*
X0097737Y0026287D01*
X0097737Y0024910D02*
X0096988Y0024910D01*
X0096988Y0023534D02*
X0097737Y0023534D01*
X0101388Y0026801D02*
X0105640Y0026801D01*
X0105640Y0037136D01*
X0105640Y0039597D02*
X0105640Y0055049D01*
X0107411Y0056821D01*
X0107215Y0057018D01*
X0107215Y0059577D01*
X0106427Y0060364D01*
X0088711Y0060364D01*
X0084774Y0056427D01*
X0088047Y0056569D02*
X0100423Y0056569D01*
X0100719Y0056821D02*
X0100719Y0054852D01*
X0101014Y0055193D02*
X0100423Y0055193D01*
X0100423Y0053816D02*
X0101014Y0053816D01*
X0106427Y0055837D02*
X0107411Y0056821D01*
X0116467Y0056821D01*
X0113012Y0059322D02*
X0110866Y0059322D01*
X0122864Y0059322D02*
X0123455Y0059322D01*
X0123455Y0057945D02*
X0122864Y0057945D01*
X0127014Y0055193D02*
X0130572Y0055193D01*
X0131014Y0053816D02*
X0126677Y0053816D01*
X0130004Y0052440D02*
X0131942Y0052440D01*
X0130567Y0051063D02*
X0134144Y0051063D01*
X0132316Y0049687D02*
X0130567Y0049687D01*
X0131169Y0048310D02*
X0129711Y0048310D01*
X0129271Y0046934D02*
X0130599Y0046934D01*
X0130572Y0045557D02*
X0129271Y0045557D01*
X0129271Y0044181D02*
X0130863Y0044181D01*
X0129692Y0042804D02*
X0129271Y0042804D01*
X0129656Y0039971D02*
X0135561Y0045876D01*
X0127293Y0050522D02*
X0127293Y0038317D01*
X0126014Y0037037D01*
X0122490Y0037037D01*
X0122490Y0034478D02*
X0117845Y0034478D01*
X0122490Y0031919D02*
X0126408Y0031919D01*
X0129656Y0035167D01*
X0129656Y0039971D01*
X0132534Y0040051D02*
X0132681Y0040051D01*
X0122490Y0042156D02*
X0118927Y0042156D01*
X0116663Y0039892D01*
X0117746Y0044715D02*
X0122490Y0044715D01*
X0117746Y0044715D02*
X0115876Y0046585D01*
X0115876Y0048947D01*
X0117451Y0050522D01*
X0101388Y0044715D02*
X0096880Y0044715D01*
X0090285Y0051309D01*
X0087012Y0051063D02*
X0068641Y0051063D01*
X0068641Y0049687D02*
X0072223Y0049687D01*
X0072394Y0049858D02*
X0070477Y0047941D01*
X0070477Y0045527D01*
X0069638Y0045527D01*
X0068641Y0044530D01*
X0068641Y0054491D01*
X0067483Y0055649D01*
X0066563Y0056569D02*
X0081500Y0056569D01*
X0081663Y0057945D02*
X0065187Y0057945D01*
X0063908Y0056427D02*
X0066663Y0053671D01*
X0066663Y0039597D01*
X0068140Y0039597D01*
X0073258Y0034478D01*
X0078474Y0034478D01*
X0083120Y0034478D01*
X0078474Y0034478D02*
X0078474Y0029360D01*
X0083120Y0029360D01*
X0088317Y0028081D02*
X0088317Y0026506D01*
X0086053Y0024242D01*
X0083120Y0024242D01*
X0079469Y0024910D02*
X0072453Y0024910D01*
X0070207Y0024931D02*
X0066959Y0021683D01*
X0062018Y0021683D01*
X0058367Y0022157D02*
X0057224Y0022157D01*
X0057224Y0020781D02*
X0058264Y0020781D01*
X0057967Y0019404D02*
X0057224Y0019404D01*
X0057608Y0019518D02*
X0058002Y0019124D01*
X0062018Y0019124D01*
X0062018Y0016746D01*
X0062018Y0019124D01*
X0062018Y0019124D01*
X0057967Y0019124D01*
X0062018Y0019124D01*
X0062018Y0019124D01*
X0062018Y0018028D02*
X0062018Y0018028D01*
X0057608Y0019518D02*
X0057608Y0027687D01*
X0059282Y0029360D01*
X0061841Y0031919D01*
X0062018Y0031919D01*
X0062018Y0029541D01*
X0062018Y0029360D01*
X0059282Y0029360D01*
X0057967Y0029360D02*
X0062018Y0029360D01*
X0062018Y0029360D01*
X0062018Y0029360D01*
X0057967Y0029360D01*
X0057967Y0029040D02*
X0057224Y0029040D01*
X0057224Y0030416D02*
X0058005Y0030416D01*
X0055246Y0031624D02*
X0055246Y0013514D01*
X0056427Y0012333D01*
X0053154Y0011911D02*
X0053154Y0010977D01*
X0055071Y0009059D01*
X0053298Y0008002D02*
X0053238Y0008004D01*
X0053177Y0008009D01*
X0053118Y0008018D01*
X0053059Y0008031D01*
X0053000Y0008047D01*
X0052943Y0008067D01*
X0052888Y0008090D01*
X0052833Y0008117D01*
X0052781Y0008146D01*
X0052730Y0008179D01*
X0052681Y0008215D01*
X0052635Y0008253D01*
X0052591Y0008295D01*
X0053154Y0011146D02*
X0012163Y0011146D01*
X0012401Y0011267D02*
X0013087Y0011766D01*
X0013687Y0012365D01*
X0014186Y0013052D01*
X0014571Y0013807D01*
X0014833Y0014614D01*
X0014966Y0015452D01*
X0014966Y0015565D01*
X0009888Y0015565D01*
X0009888Y0016187D01*
X0009266Y0016187D01*
X0009266Y0015565D01*
X0009888Y0015565D01*
X0009888Y0010487D01*
X0010001Y0010487D01*
X0010839Y0010620D01*
X0011645Y0010882D01*
X0012401Y0011267D01*
X0013801Y0012522D02*
X0048853Y0012522D01*
X0048036Y0013339D02*
X0049953Y0011422D01*
X0052665Y0011422D01*
X0053154Y0011911D01*
X0048036Y0013339D02*
X0048036Y0016051D01*
X0049953Y0017968D01*
X0050906Y0017968D01*
X0050906Y0024093D01*
X0049766Y0022953D01*
X0049077Y0022264D01*
X0047401Y0022264D01*
X0047401Y0020913D01*
X0047464Y0020850D01*
X0047686Y0020465D01*
X0047801Y0020035D01*
X0047801Y0019124D01*
X0043750Y0019124D01*
X0043750Y0019124D01*
X0039699Y0019124D01*
X0043750Y0019124D01*
X0043750Y0019124D01*
X0043750Y0016746D01*
X0046335Y0016746D01*
X0046764Y0016861D01*
X0047149Y0017084D01*
X0047464Y0017398D01*
X0047686Y0017783D01*
X0047801Y0018213D01*
X0047801Y0019124D01*
X0043750Y0019124D01*
X0043750Y0019124D01*
X0043750Y0018028D02*
X0043750Y0018028D01*
X0047752Y0018028D02*
X0050906Y0018028D01*
X0050906Y0019404D02*
X0047801Y0019404D01*
X0047504Y0020781D02*
X0050906Y0020781D01*
X0050906Y0022157D02*
X0047401Y0022157D01*
X0050347Y0023534D02*
X0050906Y0023534D01*
X0048947Y0024931D02*
X0048258Y0024242D01*
X0043750Y0024242D01*
X0048947Y0024931D02*
X0048947Y0028081D01*
X0043750Y0029360D02*
X0039104Y0029360D01*
X0039104Y0034478D01*
X0037825Y0034478D01*
X0033593Y0038711D01*
X0027293Y0038711D01*
X0027293Y0026801D01*
X0022648Y0026801D01*
X0018997Y0026287D02*
X0014566Y0026287D01*
X0014566Y0024910D02*
X0018997Y0024910D01*
X0018997Y0023534D02*
X0014007Y0023534D01*
X0012914Y0022157D02*
X0018997Y0022157D01*
X0018894Y0020781D02*
X0011821Y0020781D01*
X0011250Y0019124D02*
X0009577Y0017451D01*
X0009577Y0015876D01*
X0003671Y0021782D01*
X0003671Y0058396D01*
X0006821Y0061545D01*
X0017254Y0061545D01*
X0017451Y0061545D02*
X0021585Y0057411D01*
X0021585Y0056821D01*
X0021289Y0056569D02*
X0014566Y0056569D01*
X0014120Y0057945D02*
X0017730Y0057945D01*
X0017730Y0057116D02*
X0017730Y0059012D01*
X0017845Y0059441D01*
X0018068Y0059826D01*
X0018382Y0060141D01*
X0018767Y0060363D01*
X0019197Y0060478D01*
X0021289Y0060478D01*
X0021289Y0057116D01*
X0017730Y0057116D01*
X0021289Y0057945D02*
X0021880Y0057945D01*
X0021880Y0059322D02*
X0021289Y0059322D01*
X0017813Y0059322D02*
X0013186Y0059322D01*
X0010971Y0060698D02*
X0036248Y0060698D01*
X0037624Y0062075D02*
X0003666Y0062075D01*
X0003403Y0060698D02*
X0008182Y0060698D01*
X0005967Y0059322D02*
X0003392Y0059322D01*
X0003392Y0057945D02*
X0005034Y0057945D01*
X0004588Y0056569D02*
X0003392Y0056569D01*
X0003392Y0055193D02*
X0004588Y0055193D01*
X0005030Y0053816D02*
X0003392Y0053816D01*
X0003392Y0052440D02*
X0005958Y0052440D01*
X0008159Y0051063D02*
X0003392Y0051063D01*
X0003392Y0049687D02*
X0006332Y0049687D01*
X0005185Y0048310D02*
X0003392Y0048310D01*
X0003392Y0046934D02*
X0004615Y0046934D01*
X0004588Y0045557D02*
X0003392Y0045557D01*
X0003392Y0044181D02*
X0004879Y0044181D01*
X0005593Y0042804D02*
X0003392Y0042804D01*
X0003392Y0041428D02*
X0007279Y0041428D01*
X0006697Y0040051D02*
X0003392Y0040051D01*
X0003392Y0038675D02*
X0005336Y0038675D01*
X0004766Y0037298D02*
X0003392Y0037298D01*
X0003392Y0035922D02*
X0004588Y0035922D01*
X0004728Y0034546D02*
X0003392Y0034546D01*
X0003392Y0033169D02*
X0005298Y0033169D01*
X0006605Y0031793D02*
X0003392Y0031793D01*
X0003392Y0030416D02*
X0007501Y0030416D01*
X0005685Y0029040D02*
X0003392Y0029040D01*
X0003392Y0027663D02*
X0004917Y0027663D01*
X0004588Y0026287D02*
X0003392Y0026287D01*
X0003392Y0024910D02*
X0004588Y0024910D01*
X0005147Y0023534D02*
X0003392Y0023534D01*
X0003392Y0022157D02*
X0006240Y0022157D01*
X0007333Y0020781D02*
X0003392Y0020781D01*
X0003392Y0019404D02*
X0005484Y0019404D01*
X0004625Y0018028D02*
X0003392Y0018028D01*
X0003392Y0016652D02*
X0004244Y0016652D01*
X0004188Y0015565D02*
X0004188Y0015452D01*
X0004321Y0014614D01*
X0004583Y0013807D01*
X0004968Y0013052D01*
X0005466Y0012365D01*
X0006066Y0011766D01*
X0006752Y0011267D01*
X0007508Y0010882D01*
X0008315Y0010620D01*
X0009153Y0010487D01*
X0009266Y0010487D01*
X0009266Y0015565D01*
X0004188Y0015565D01*
X0004216Y0015275D02*
X0003392Y0015275D01*
X0003392Y0013899D02*
X0004553Y0013899D01*
X0005352Y0012522D02*
X0003392Y0012522D01*
X0003392Y0011146D02*
X0006990Y0011146D01*
X0009266Y0011146D02*
X0009888Y0011146D01*
X0009888Y0012522D02*
X0009266Y0012522D01*
X0009266Y0013899D02*
X0009888Y0013899D01*
X0009888Y0015275D02*
X0009266Y0015275D01*
X0009266Y0016652D02*
X0009888Y0016652D01*
X0009888Y0018028D02*
X0009266Y0018028D01*
X0009266Y0019404D02*
X0009888Y0019404D01*
X0011250Y0019124D02*
X0017451Y0019124D01*
X0017451Y0027293D01*
X0019518Y0029360D01*
X0022648Y0029360D01*
X0022648Y0031919D01*
X0022648Y0029541D01*
X0022648Y0029360D01*
X0018597Y0029360D01*
X0022648Y0029360D01*
X0022648Y0029360D01*
X0022648Y0029360D01*
X0022648Y0031919D01*
X0022648Y0031919D01*
X0018597Y0031919D01*
X0022648Y0031919D01*
X0022648Y0031919D01*
X0022648Y0031793D02*
X0022648Y0031793D01*
X0022648Y0030416D02*
X0022648Y0030416D01*
X0018635Y0030416D02*
X0016914Y0030416D01*
X0015538Y0029040D02*
X0018597Y0029040D01*
X0018917Y0027663D02*
X0014237Y0027663D01*
X0009577Y0025876D02*
X0018179Y0034478D01*
X0022648Y0034478D01*
X0022648Y0037037D02*
X0010738Y0037037D01*
X0009577Y0035876D01*
X0014426Y0034546D02*
X0015449Y0034546D01*
X0014073Y0033169D02*
X0013856Y0033169D01*
X0012696Y0031793D02*
X0012549Y0031793D01*
X0018291Y0031793D02*
X0018597Y0031793D01*
X0031624Y0026506D02*
X0036447Y0021683D01*
X0043750Y0021683D01*
X0039699Y0019404D02*
X0030756Y0019404D01*
X0030452Y0020781D02*
X0034552Y0020781D01*
X0033175Y0022157D02*
X0029321Y0022157D01*
X0029967Y0023534D02*
X0027945Y0023534D01*
X0026998Y0021683D02*
X0028474Y0020207D01*
X0028474Y0017057D01*
X0025201Y0016652D02*
X0014910Y0016652D01*
X0014938Y0015275D02*
X0025627Y0015275D01*
X0027004Y0013899D02*
X0014601Y0013899D01*
X0022648Y0016746D02*
X0022648Y0019124D01*
X0022648Y0016746D01*
X0022648Y0018028D02*
X0022648Y0018028D01*
X0022648Y0019124D02*
X0022648Y0019124D01*
X0017451Y0019124D01*
X0018597Y0019124D02*
X0022648Y0019124D01*
X0022648Y0019124D01*
X0018597Y0019124D01*
X0018597Y0019404D02*
X0013670Y0019404D01*
X0014529Y0018028D02*
X0018646Y0018028D01*
X0022648Y0021683D02*
X0026998Y0021683D01*
X0028200Y0024910D02*
X0028591Y0024910D01*
X0031748Y0018028D02*
X0039748Y0018028D01*
X0031748Y0016652D02*
X0048637Y0016652D01*
X0048036Y0015275D02*
X0031321Y0015275D01*
X0029945Y0013899D02*
X0048036Y0013899D01*
X0051309Y0014695D02*
X0052884Y0016270D01*
X0052884Y0033199D01*
X0056722Y0037037D01*
X0062018Y0037037D01*
X0062018Y0039597D02*
X0066663Y0039597D01*
X0066663Y0026801D01*
X0062018Y0026801D01*
X0058367Y0026287D02*
X0057224Y0026287D01*
X0057224Y0027663D02*
X0058287Y0027663D01*
X0062018Y0029360D02*
X0062018Y0031919D01*
X0062018Y0031919D01*
X0058339Y0031919D01*
X0062018Y0031919D01*
X0062018Y0031919D01*
X0062018Y0031793D02*
X0062018Y0031793D01*
X0062018Y0030416D02*
X0062018Y0030416D01*
X0058339Y0031919D02*
X0058339Y0031919D01*
X0058100Y0034478D02*
X0055246Y0031624D01*
X0058100Y0034478D02*
X0062018Y0034478D01*
X0068641Y0034546D02*
X0070394Y0034546D01*
X0071770Y0033169D02*
X0068641Y0033169D01*
X0068641Y0031793D02*
X0076497Y0031793D01*
X0076497Y0030416D02*
X0071713Y0030416D01*
X0073089Y0029040D02*
X0076497Y0029040D01*
X0077374Y0027663D02*
X0073480Y0027663D01*
X0073480Y0026287D02*
X0079469Y0026287D01*
X0079469Y0023534D02*
X0071607Y0023534D01*
X0070230Y0022157D02*
X0079469Y0022157D01*
X0079366Y0020781D02*
X0068854Y0020781D01*
X0070207Y0024931D02*
X0070207Y0027293D01*
X0068701Y0030416D02*
X0068641Y0030416D01*
X0068641Y0035922D02*
X0069017Y0035922D01*
X0070994Y0042254D02*
X0076211Y0037037D01*
X0083120Y0037037D01*
X0086644Y0031919D02*
X0092648Y0037923D01*
X0092648Y0043435D01*
X0088711Y0044222D02*
X0088711Y0046585D01*
X0088711Y0044222D02*
X0086644Y0042156D01*
X0083120Y0042156D01*
X0083120Y0044715D02*
X0075620Y0044715D01*
X0073750Y0046585D01*
X0070477Y0046934D02*
X0068641Y0046934D01*
X0068641Y0048310D02*
X0070847Y0048310D01*
X0072394Y0049858D02*
X0075106Y0049858D01*
X0077023Y0047941D01*
X0077023Y0046693D01*
X0079069Y0046693D01*
X0079069Y0047274D01*
X0083120Y0047274D01*
X0083120Y0048310D02*
X0083120Y0048310D01*
X0083120Y0049241D02*
X0083122Y0049301D01*
X0083127Y0049362D01*
X0083136Y0049421D01*
X0083149Y0049480D01*
X0083165Y0049539D01*
X0083185Y0049596D01*
X0083208Y0049651D01*
X0083235Y0049706D01*
X0083264Y0049758D01*
X0083297Y0049809D01*
X0083333Y0049858D01*
X0083371Y0049904D01*
X0083413Y0049948D01*
X0085955Y0052490D02*
X0076900Y0052490D01*
X0066663Y0062726D01*
X0018632Y0062726D01*
X0017451Y0061545D01*
X0024537Y0053278D02*
X0027884Y0056624D01*
X0028081Y0056624D01*
X0028278Y0056821D01*
X0037726Y0056821D01*
X0037726Y0059380D01*
X0038711Y0060364D01*
X0048947Y0060364D01*
X0052884Y0056427D01*
X0063908Y0056427D01*
X0063088Y0054449D02*
X0064685Y0052852D01*
X0064685Y0049629D01*
X0064602Y0049652D01*
X0062018Y0049652D01*
X0062018Y0047274D01*
X0062018Y0047274D01*
X0062018Y0049652D01*
X0059433Y0049652D01*
X0059004Y0049537D01*
X0058619Y0049314D01*
X0058304Y0049000D01*
X0058126Y0048691D01*
X0058126Y0049909D01*
X0056208Y0051826D01*
X0053497Y0051826D01*
X0051579Y0049909D01*
X0051579Y0048283D01*
X0049166Y0048283D01*
X0047801Y0046918D01*
X0047801Y0047274D01*
X0047801Y0048185D01*
X0047686Y0048615D01*
X0047464Y0049000D01*
X0047149Y0049314D01*
X0046764Y0049537D01*
X0046335Y0049652D01*
X0043750Y0049652D01*
X0041165Y0049652D01*
X0040736Y0049537D01*
X0040351Y0049314D01*
X0040036Y0049000D01*
X0039814Y0048615D01*
X0039714Y0048242D01*
X0039279Y0048677D01*
X0036567Y0048677D01*
X0034971Y0047080D01*
X0033767Y0048283D01*
X0031056Y0048283D01*
X0029271Y0046499D01*
X0029271Y0048979D01*
X0028113Y0050137D01*
X0026515Y0051735D01*
X0026515Y0052458D01*
X0027621Y0053563D01*
X0030977Y0053563D01*
X0031732Y0054318D01*
X0031732Y0054843D01*
X0034272Y0054843D01*
X0034272Y0054318D01*
X0035027Y0053563D01*
X0040426Y0053563D01*
X0040820Y0053958D01*
X0040902Y0053815D01*
X0041217Y0053501D01*
X0041602Y0053279D01*
X0042032Y0053163D01*
X0044124Y0053163D01*
X0044124Y0056526D01*
X0044715Y0056526D01*
X0044715Y0057116D01*
X0048274Y0057116D01*
X0048274Y0058240D01*
X0049611Y0056903D01*
X0049611Y0055071D01*
X0051528Y0053154D01*
X0054240Y0053154D01*
X0055535Y0054449D01*
X0063088Y0054449D01*
X0063721Y0053816D02*
X0054902Y0053816D01*
X0055226Y0052490D02*
X0045010Y0052490D01*
X0044616Y0052097D01*
X0028474Y0052097D01*
X0026515Y0052440D02*
X0064685Y0052440D01*
X0064685Y0051063D02*
X0056972Y0051063D01*
X0055933Y0052197D02*
X0055889Y0052239D01*
X0055843Y0052277D01*
X0055794Y0052313D01*
X0055743Y0052346D01*
X0055691Y0052375D01*
X0055636Y0052402D01*
X0055581Y0052425D01*
X0055524Y0052445D01*
X0055465Y0052461D01*
X0055406Y0052474D01*
X0055347Y0052483D01*
X0055286Y0052488D01*
X0055226Y0052490D01*
X0055933Y0052197D02*
X0060563Y0047567D01*
X0061271Y0047274D02*
X0062018Y0047274D01*
X0058929Y0047274D01*
X0058929Y0047274D01*
X0062018Y0047274D01*
X0062018Y0047274D01*
X0062018Y0048310D02*
X0062018Y0048310D01*
X0061271Y0047274D02*
X0061211Y0047276D01*
X0061150Y0047281D01*
X0061091Y0047290D01*
X0061032Y0047303D01*
X0060973Y0047319D01*
X0060916Y0047339D01*
X0060861Y0047362D01*
X0060806Y0047389D01*
X0060754Y0047418D01*
X0060703Y0047451D01*
X0060654Y0047487D01*
X0060608Y0047525D01*
X0060564Y0047567D01*
X0058126Y0049687D02*
X0064685Y0049687D01*
X0068641Y0045557D02*
X0070477Y0045557D01*
X0076654Y0048310D02*
X0079102Y0048310D01*
X0079069Y0046934D02*
X0077023Y0046934D01*
X0075277Y0049687D02*
X0087184Y0049687D01*
X0096082Y0048310D02*
X0097370Y0048310D01*
X0096864Y0057945D02*
X0089089Y0057945D01*
X0086248Y0060698D02*
X0051410Y0060698D01*
X0050925Y0061184D02*
X0050925Y0061184D01*
X0050034Y0062075D02*
X0087624Y0062075D01*
X0083039Y0059322D02*
X0054618Y0059322D01*
X0049611Y0056569D02*
X0044715Y0056569D01*
X0044715Y0056526D02*
X0048274Y0056526D01*
X0048274Y0054630D01*
X0048159Y0054200D01*
X0047936Y0053815D01*
X0047622Y0053501D01*
X0047237Y0053279D01*
X0046807Y0053163D01*
X0044715Y0053163D01*
X0044715Y0056526D01*
X0044419Y0056821D02*
X0044419Y0052884D01*
X0044419Y0047963D01*
X0043829Y0047372D01*
X0043750Y0047274D02*
X0043750Y0047274D01*
X0043750Y0049652D01*
X0043750Y0047274D01*
X0047801Y0047274D01*
X0043750Y0047274D01*
X0043750Y0047274D01*
X0043750Y0048310D02*
X0043750Y0048310D01*
X0047768Y0048310D02*
X0051579Y0048310D01*
X0051579Y0049687D02*
X0028563Y0049687D01*
X0029271Y0048310D02*
X0036201Y0048310D01*
X0039646Y0048310D02*
X0039732Y0048310D01*
X0037923Y0045404D02*
X0038612Y0044715D01*
X0043750Y0044715D01*
X0047801Y0046934D02*
X0047817Y0046934D01*
X0050522Y0045010D02*
X0047667Y0042156D01*
X0043750Y0042156D01*
X0043750Y0037037D02*
X0040384Y0037037D01*
X0032411Y0045010D01*
X0029706Y0046934D02*
X0029271Y0046934D01*
X0027293Y0048159D02*
X0027293Y0039597D01*
X0022648Y0039597D01*
X0018997Y0040051D02*
X0012457Y0040051D01*
X0011875Y0041428D02*
X0018997Y0041428D01*
X0018040Y0042804D02*
X0013561Y0042804D01*
X0014275Y0044181D02*
X0016664Y0044181D01*
X0015287Y0045557D02*
X0014566Y0045557D01*
X0015482Y0048159D02*
X0018927Y0044715D01*
X0022648Y0044715D01*
X0022648Y0047274D02*
X0019165Y0047274D01*
X0022648Y0047274D01*
X0021880Y0047274D01*
X0020600Y0048553D01*
X0020600Y0052097D01*
X0020600Y0054852D01*
X0022175Y0056427D01*
X0021880Y0055193D02*
X0021289Y0055193D01*
X0021289Y0053816D02*
X0021880Y0053816D01*
X0024537Y0053278D02*
X0024537Y0050915D01*
X0027293Y0048159D01*
X0022969Y0049687D02*
X0018756Y0049687D01*
X0018756Y0051063D02*
X0022559Y0051063D01*
X0022559Y0052440D02*
X0018587Y0052440D01*
X0018067Y0053816D02*
X0017211Y0053816D01*
X0017730Y0055193D02*
X0014566Y0055193D01*
X0015482Y0050915D02*
X0015482Y0048159D01*
X0018129Y0048310D02*
X0018630Y0048310D01*
X0019165Y0047274D02*
X0019165Y0047274D01*
X0022648Y0047274D02*
X0022648Y0047274D01*
X0022648Y0048310D02*
X0022648Y0048310D01*
X0027187Y0051063D02*
X0052733Y0051063D01*
X0054852Y0048553D02*
X0058691Y0044715D01*
X0062018Y0044715D01*
X0054065Y0041467D02*
X0048159Y0035561D01*
X0048159Y0033199D01*
X0046880Y0031919D01*
X0043750Y0031919D01*
X0043750Y0034478D02*
X0039104Y0034478D01*
X0027293Y0038711D02*
X0027293Y0039597D01*
X0012209Y0051063D02*
X0010994Y0051063D01*
X0031229Y0053816D02*
X0034775Y0053816D01*
X0040678Y0053816D02*
X0040902Y0053816D01*
X0044124Y0053816D02*
X0044715Y0053816D01*
X0044419Y0052884D02*
X0044813Y0052490D01*
X0045010Y0052490D01*
X0047937Y0053816D02*
X0050866Y0053816D01*
X0049611Y0055193D02*
X0048274Y0055193D01*
X0044715Y0055193D02*
X0044124Y0055193D01*
X0048274Y0057945D02*
X0048568Y0057945D01*
X0034272Y0059322D02*
X0031732Y0059322D01*
X0083120Y0031919D02*
X0086644Y0031919D01*
X0095010Y0032018D02*
X0097471Y0034478D01*
X0101388Y0034478D01*
X0095010Y0032018D02*
X0095010Y0019419D01*
X0087923Y0012333D01*
X0101388Y0018028D02*
X0101388Y0018028D01*
X0101388Y0019124D02*
X0097337Y0019124D01*
X0101388Y0019124D02*
X0101388Y0019124D01*
X0106722Y0021683D02*
X0109183Y0024144D01*
X0109183Y0028081D01*
X0113908Y0027293D02*
X0113908Y0029262D01*
X0126141Y0023534D02*
X0131131Y0023534D01*
X0133485Y0030416D02*
X0127702Y0030416D01*
X0129078Y0031793D02*
X0132589Y0031793D01*
X0131282Y0033169D02*
X0130455Y0033169D01*
X0088317Y0021388D02*
X0088022Y0021683D01*
X0083120Y0021683D01*
X0058367Y0023534D02*
X0057224Y0023534D01*
X0057224Y0024910D02*
X0058367Y0024910D01*
X0009888Y0020781D02*
X0009266Y0020781D01*
D14*
X0028474Y0017057D03*
X0031624Y0026506D03*
X0048947Y0028081D03*
X0070207Y0027293D03*
X0088317Y0028081D03*
X0088317Y0021388D03*
X0082805Y0014695D03*
X0087923Y0012333D03*
X0092254Y0009183D03*
X0115876Y0023750D03*
X0109183Y0028081D03*
X0113908Y0029262D03*
X0116663Y0039892D03*
X0117451Y0050522D03*
X0127293Y0050522D03*
X0092648Y0043435D03*
X0088711Y0046585D03*
X0090285Y0051309D03*
X0084774Y0056427D03*
X0073750Y0046585D03*
X0070994Y0042254D03*
X0054065Y0041467D03*
X0050522Y0045010D03*
X0054852Y0048553D03*
X0052884Y0056427D03*
X0037923Y0045404D03*
X0032411Y0045010D03*
X0028474Y0052097D03*
X0020600Y0052097D03*
X0015482Y0050915D03*
X0051309Y0014695D03*
X0056427Y0012333D03*
X0060758Y0009183D03*
M02*
