G75*
%MOIN*%
%OFA0B0*%
%FSLAX25Y25*%
%IPPOS*%
%LPD*%
%AMOC8*
5,1,8,0,0,1.08239X$1,22.5*
%
%ADD10R,0.04331X0.03937*%
%ADD11R,0.04409X0.01654*%
%ADD12C,0.07400*%
%ADD13C,0.01600*%
%ADD14OC8,0.03969*%
D10*
X0021696Y0056932D03*
X0028389Y0056932D03*
X0037837Y0056932D03*
X0044530Y0056932D03*
X0100830Y0056932D03*
X0107522Y0056932D03*
X0116578Y0056932D03*
X0123271Y0056932D03*
D11*
X0122444Y0047385D03*
X0122444Y0044826D03*
X0122444Y0042267D03*
X0122444Y0039708D03*
X0122444Y0037148D03*
X0122444Y0034589D03*
X0122444Y0032030D03*
X0122444Y0029471D03*
X0122444Y0026912D03*
X0122444Y0024353D03*
X0122444Y0021794D03*
X0122444Y0019235D03*
X0101656Y0019235D03*
X0101656Y0021794D03*
X0101656Y0024353D03*
X0101656Y0026912D03*
X0101656Y0029471D03*
X0101656Y0032030D03*
X0101656Y0034589D03*
X0101656Y0037148D03*
X0101656Y0039708D03*
X0101656Y0042267D03*
X0101656Y0044826D03*
X0101656Y0047385D03*
X0083074Y0047385D03*
X0083074Y0044826D03*
X0083074Y0042267D03*
X0083074Y0039708D03*
X0083074Y0037148D03*
X0083074Y0034589D03*
X0083074Y0032030D03*
X0083074Y0029471D03*
X0083074Y0026912D03*
X0083074Y0024353D03*
X0083074Y0021794D03*
X0083074Y0019235D03*
X0062286Y0019235D03*
X0062286Y0021794D03*
X0062286Y0024353D03*
X0062286Y0026912D03*
X0062286Y0029471D03*
X0062286Y0032030D03*
X0062286Y0034589D03*
X0062286Y0037148D03*
X0062286Y0039708D03*
X0062286Y0042267D03*
X0062286Y0044826D03*
X0062286Y0047385D03*
X0043704Y0047385D03*
X0043704Y0044826D03*
X0043704Y0042267D03*
X0043704Y0039708D03*
X0043704Y0037148D03*
X0043704Y0034589D03*
X0043704Y0032030D03*
X0043704Y0029471D03*
X0043704Y0026912D03*
X0043704Y0024353D03*
X0043704Y0021794D03*
X0043704Y0019235D03*
X0022916Y0019235D03*
X0022916Y0021794D03*
X0022916Y0024353D03*
X0022916Y0026912D03*
X0022916Y0029471D03*
X0022916Y0032030D03*
X0022916Y0034589D03*
X0022916Y0037148D03*
X0022916Y0039708D03*
X0022916Y0042267D03*
X0022916Y0044826D03*
X0022916Y0047385D03*
D12*
X0009688Y0045987D03*
X0009688Y0035987D03*
X0009688Y0025987D03*
X0009688Y0015987D03*
X0009688Y0055987D03*
X0135672Y0055987D03*
X0135672Y0045987D03*
X0135672Y0035987D03*
X0135672Y0025987D03*
X0135672Y0015987D03*
D13*
X0004449Y0003887D02*
X0003887Y0004449D01*
X0003616Y0005195D01*
X0003614Y0005280D01*
X0003614Y0005672D01*
X0003672Y0006337D01*
X0003614Y0006406D01*
X0003614Y0060214D01*
X0003672Y0060283D01*
X0003614Y0060947D01*
X0003614Y0061340D01*
X0003616Y0061425D01*
X0003887Y0062171D01*
X0004449Y0062733D01*
X0005195Y0063004D01*
X0005280Y0063006D01*
X0005672Y0063006D01*
X0006337Y0062948D01*
X0006406Y0063006D01*
X0138954Y0063006D01*
X0139023Y0062948D01*
X0139688Y0063006D01*
X0140080Y0063006D01*
X0140165Y0063004D01*
X0140911Y0062733D01*
X0141473Y0062171D01*
X0141744Y0061425D01*
X0141746Y0061340D01*
X0141746Y0060947D01*
X0141688Y0060283D01*
X0141746Y0060214D01*
X0141746Y0006406D01*
X0141688Y0006337D01*
X0141746Y0005672D01*
X0141746Y0005280D01*
X0141744Y0005195D01*
X0141473Y0004449D01*
X0140911Y0003887D01*
X0140165Y0003616D01*
X0140080Y0003614D01*
X0139688Y0003614D01*
X0139023Y0003672D01*
X0138954Y0003614D01*
X0006406Y0003614D01*
X0006337Y0003672D01*
X0005672Y0003614D01*
X0005280Y0003614D01*
X0005195Y0003616D01*
X0004449Y0003887D01*
X0004184Y0004152D02*
X0141176Y0004152D01*
X0141739Y0005751D02*
X0003621Y0005751D01*
X0003614Y0007349D02*
X0141746Y0007349D01*
X0141746Y0008948D02*
X0003614Y0008948D01*
X0003614Y0010546D02*
X0008880Y0010546D01*
X0009255Y0010487D02*
X0009488Y0010487D01*
X0009488Y0015787D01*
X0009888Y0015787D01*
X0009888Y0016187D01*
X0015188Y0016187D01*
X0015188Y0016420D01*
X0015052Y0017275D01*
X0014785Y0018098D01*
X0014392Y0018870D01*
X0013883Y0019570D01*
X0013271Y0020182D01*
X0012570Y0020691D01*
X0011799Y0021084D01*
X0011451Y0021197D01*
X0012577Y0021663D01*
X0014011Y0023098D01*
X0014788Y0024973D01*
X0014788Y0027002D01*
X0014502Y0027690D01*
X0018911Y0032099D01*
X0018911Y0032030D01*
X0018911Y0030967D01*
X0018969Y0030751D01*
X0018911Y0030535D01*
X0018911Y0029471D01*
X0018911Y0028408D01*
X0019034Y0027950D01*
X0019271Y0027539D01*
X0019311Y0027499D01*
X0019311Y0021207D01*
X0019271Y0021167D01*
X0019034Y0020757D01*
X0018911Y0020299D01*
X0018911Y0019235D01*
X0018911Y0018171D01*
X0019034Y0017714D01*
X0019271Y0017303D01*
X0019606Y0016968D01*
X0020017Y0016731D01*
X0020474Y0016608D01*
X0022916Y0016608D01*
X0022916Y0019235D01*
X0018911Y0019235D01*
X0022916Y0019235D01*
X0022916Y0019235D01*
X0022916Y0019235D01*
X0017562Y0019235D01*
X0017562Y0027404D01*
X0019629Y0029471D01*
X0022916Y0029471D01*
X0022916Y0032030D01*
X0022916Y0032030D01*
X0022916Y0029471D01*
X0022916Y0029471D01*
X0022916Y0032030D01*
X0022916Y0031327D02*
X0022916Y0031327D01*
X0022916Y0029729D02*
X0022916Y0029729D01*
X0020222Y0029471D02*
X0018911Y0029471D01*
X0020222Y0029471D01*
X0020222Y0029471D01*
X0018911Y0029729D02*
X0016541Y0029729D01*
X0018139Y0031327D02*
X0018911Y0031327D01*
X0018911Y0032030D02*
X0020222Y0032030D01*
X0020222Y0032030D01*
X0018911Y0032030D01*
X0018290Y0034589D02*
X0009688Y0025987D01*
X0005055Y0028130D02*
X0003614Y0028130D01*
X0004588Y0027002D02*
X0004588Y0024973D01*
X0005364Y0023098D01*
X0006799Y0021663D01*
X0007925Y0021197D01*
X0007577Y0021084D01*
X0006805Y0020691D01*
X0006105Y0020182D01*
X0005493Y0019570D01*
X0004984Y0018870D01*
X0004591Y0018098D01*
X0004323Y0017275D01*
X0004188Y0016420D01*
X0004188Y0016187D01*
X0009488Y0016187D01*
X0009488Y0020887D01*
X0009888Y0020887D01*
X0009888Y0016187D01*
X0009488Y0016187D01*
X0009488Y0015787D01*
X0004188Y0015787D01*
X0004188Y0015554D01*
X0004323Y0014699D01*
X0004591Y0013876D01*
X0004984Y0013104D01*
X0005493Y0012404D01*
X0006105Y0011792D01*
X0006805Y0011283D01*
X0007577Y0010890D01*
X0008400Y0010622D01*
X0009255Y0010487D01*
X0009488Y0010546D02*
X0009888Y0010546D01*
X0009888Y0010487D02*
X0010121Y0010487D01*
X0010976Y0010622D01*
X0011799Y0010890D01*
X0012570Y0011283D01*
X0013271Y0011792D01*
X0013883Y0012404D01*
X0014392Y0013104D01*
X0014785Y0013876D01*
X0015052Y0014699D01*
X0015188Y0015554D01*
X0015188Y0015787D01*
X0009888Y0015787D01*
X0009888Y0010487D01*
X0010495Y0010546D02*
X0053650Y0010546D01*
X0053154Y0011042D02*
X0055136Y0009059D01*
X0057940Y0009059D01*
X0059922Y0011042D01*
X0059922Y0013846D01*
X0057940Y0015828D01*
X0057557Y0015828D01*
X0057557Y0030824D01*
X0058282Y0031548D01*
X0058282Y0030967D01*
X0058339Y0030751D01*
X0058282Y0030535D01*
X0058282Y0029471D01*
X0058282Y0028408D01*
X0058404Y0027950D01*
X0058641Y0027539D01*
X0058682Y0027499D01*
X0058682Y0021207D01*
X0058641Y0021167D01*
X0058404Y0020757D01*
X0058282Y0020299D01*
X0058282Y0019235D01*
X0058282Y0018171D01*
X0058404Y0017714D01*
X0058641Y0017303D01*
X0058976Y0016968D01*
X0059387Y0016731D01*
X0059845Y0016608D01*
X0062286Y0016608D01*
X0062286Y0019235D01*
X0058282Y0019235D01*
X0062286Y0019235D01*
X0062286Y0019235D01*
X0062286Y0019235D01*
X0058113Y0019235D01*
X0060869Y0016479D01*
X0060869Y0009294D01*
X0059688Y0008113D01*
X0070318Y0008113D01*
X0081440Y0019235D01*
X0083074Y0019235D01*
X0079069Y0019235D01*
X0079069Y0018171D01*
X0079192Y0017714D01*
X0079429Y0017303D01*
X0079764Y0016968D01*
X0080099Y0016775D01*
X0079532Y0016208D01*
X0079532Y0013404D01*
X0081514Y0011422D01*
X0084318Y0011422D01*
X0084650Y0011754D01*
X0084650Y0011042D01*
X0086632Y0009059D01*
X0089436Y0009059D01*
X0091419Y0011042D01*
X0091419Y0012717D01*
X0096032Y0017330D01*
X0097321Y0018619D01*
X0097321Y0031218D01*
X0097652Y0031548D01*
X0097652Y0030967D01*
X0097709Y0030751D01*
X0097652Y0030535D01*
X0097652Y0029471D01*
X0097652Y0028408D01*
X0097774Y0027950D01*
X0098011Y0027539D01*
X0098052Y0027499D01*
X0098052Y0021207D01*
X0098011Y0021167D01*
X0097774Y0020757D01*
X0097652Y0020299D01*
X0097652Y0019235D01*
X0097652Y0018171D01*
X0097774Y0017714D01*
X0098011Y0017303D01*
X0098346Y0016968D01*
X0098757Y0016731D01*
X0099215Y0016608D01*
X0101656Y0016608D01*
X0101656Y0019235D01*
X0097652Y0019235D01*
X0101656Y0019235D01*
X0101656Y0019235D01*
X0101656Y0019235D01*
X0097483Y0019235D01*
X0097483Y0014412D01*
X0092365Y0009294D01*
X0090923Y0010546D02*
X0134865Y0010546D01*
X0135239Y0010487D02*
X0134384Y0010622D01*
X0133561Y0010890D01*
X0132789Y0011283D01*
X0132089Y0011792D01*
X0131477Y0012404D01*
X0130968Y0013104D01*
X0130575Y0013876D01*
X0130308Y0014699D01*
X0130172Y0015554D01*
X0130172Y0015787D01*
X0135472Y0015787D01*
X0135472Y0016187D01*
X0130172Y0016187D01*
X0130172Y0016420D01*
X0130308Y0017275D01*
X0130575Y0018098D01*
X0130968Y0018870D01*
X0131477Y0019570D01*
X0132089Y0020182D01*
X0132789Y0020691D01*
X0133561Y0021084D01*
X0133909Y0021197D01*
X0132783Y0021663D01*
X0131349Y0023098D01*
X0130572Y0024973D01*
X0130572Y0027002D01*
X0131349Y0028876D01*
X0132783Y0030311D01*
X0134416Y0030987D01*
X0132783Y0031663D01*
X0131349Y0033098D01*
X0131158Y0033558D01*
X0130678Y0033078D01*
X0127430Y0029830D01*
X0126048Y0029830D01*
X0126048Y0021207D01*
X0126089Y0021167D01*
X0126326Y0020757D01*
X0126448Y0020299D01*
X0126448Y0019235D01*
X0122444Y0019235D01*
X0122444Y0019235D01*
X0126448Y0019235D01*
X0126448Y0018171D01*
X0126326Y0017714D01*
X0126089Y0017303D01*
X0125754Y0016968D01*
X0125343Y0016731D01*
X0124885Y0016608D01*
X0122444Y0016608D01*
X0122444Y0019235D01*
X0122444Y0019235D01*
X0132424Y0019235D01*
X0135672Y0015987D01*
X0141184Y0021499D01*
X0141184Y0058900D01*
X0138428Y0061656D01*
X0127995Y0061656D01*
X0123271Y0056932D01*
X0123271Y0048211D01*
X0122444Y0047385D01*
X0122444Y0047385D01*
X0122444Y0050011D01*
X0124020Y0050011D01*
X0124020Y0052035D01*
X0125149Y0053163D01*
X0123455Y0053163D01*
X0123455Y0056748D01*
X0123455Y0057116D01*
X0127236Y0057116D01*
X0127236Y0059137D01*
X0127113Y0059595D01*
X0126876Y0060006D01*
X0126541Y0060341D01*
X0126131Y0060578D01*
X0125673Y0060700D01*
X0123455Y0060700D01*
X0123455Y0057116D01*
X0123086Y0057116D01*
X0123086Y0060700D01*
X0120868Y0060700D01*
X0120410Y0060578D01*
X0120000Y0060341D01*
X0119665Y0060006D01*
X0119648Y0059976D01*
X0119323Y0060300D01*
X0113832Y0060300D01*
X0113012Y0059480D01*
X0113012Y0059132D01*
X0111088Y0059132D01*
X0111088Y0059480D01*
X0110268Y0060300D01*
X0109526Y0060300D01*
X0109526Y0060599D01*
X0108237Y0061888D01*
X0107450Y0062675D01*
X0087910Y0062675D01*
X0086622Y0061387D01*
X0085158Y0059922D01*
X0083483Y0059922D01*
X0081500Y0057940D01*
X0081500Y0055136D01*
X0083483Y0053154D01*
X0086286Y0053154D01*
X0088269Y0055136D01*
X0088269Y0056811D01*
X0089733Y0058275D01*
X0096864Y0058275D01*
X0096864Y0057116D01*
X0100645Y0057116D01*
X0100645Y0056748D01*
X0096864Y0056748D01*
X0096864Y0054726D01*
X0096987Y0054269D01*
X0097224Y0053858D01*
X0097559Y0053523D01*
X0097969Y0053286D01*
X0098427Y0053163D01*
X0100645Y0053163D01*
X0100645Y0056748D01*
X0101014Y0056748D01*
X0101014Y0053163D01*
X0103232Y0053163D01*
X0103551Y0053249D01*
X0103551Y0050011D01*
X0101656Y0050011D01*
X0099215Y0050011D01*
X0098757Y0049889D01*
X0098346Y0049652D01*
X0098011Y0049317D01*
X0097774Y0048906D01*
X0097652Y0048448D01*
X0097652Y0047385D01*
X0101656Y0047385D01*
X0101656Y0050011D01*
X0101656Y0047385D01*
X0101656Y0047385D01*
X0101656Y0047385D01*
X0097652Y0047385D01*
X0097652Y0047276D01*
X0093781Y0051147D01*
X0093781Y0052822D01*
X0091798Y0054804D01*
X0088995Y0054804D01*
X0087012Y0052822D01*
X0087012Y0050018D01*
X0087185Y0049845D01*
X0086688Y0049348D01*
X0086384Y0049652D01*
X0085973Y0049889D01*
X0085515Y0050011D01*
X0083074Y0050011D01*
X0083074Y0047385D01*
X0083074Y0047385D01*
X0083074Y0050011D01*
X0080632Y0050011D01*
X0080174Y0049889D01*
X0079764Y0049652D01*
X0079429Y0049317D01*
X0079192Y0048906D01*
X0079069Y0048448D01*
X0079069Y0047385D01*
X0083074Y0047385D01*
X0086066Y0050377D01*
X0086066Y0052601D01*
X0077011Y0052601D01*
X0066774Y0062837D01*
X0018743Y0062837D01*
X0017562Y0061656D01*
X0021696Y0057522D01*
X0021696Y0056932D01*
X0021511Y0056903D02*
X0014788Y0056903D01*
X0014788Y0057002D02*
X0014011Y0058876D01*
X0012577Y0060311D01*
X0010702Y0061087D01*
X0008673Y0061087D01*
X0006799Y0060311D01*
X0005364Y0058876D01*
X0004588Y0057002D01*
X0004588Y0054973D01*
X0005364Y0053098D01*
X0006799Y0051663D01*
X0008432Y0050987D01*
X0006799Y0050311D01*
X0005364Y0048876D01*
X0004588Y0047002D01*
X0004588Y0044973D01*
X0005364Y0043098D01*
X0006799Y0041663D01*
X0008432Y0040987D01*
X0006799Y0040311D01*
X0005364Y0038876D01*
X0004588Y0037002D01*
X0004588Y0034973D01*
X0005364Y0033098D01*
X0006799Y0031663D01*
X0008432Y0030987D01*
X0006799Y0030311D01*
X0005364Y0028876D01*
X0004588Y0027002D01*
X0004588Y0026531D02*
X0003614Y0026531D01*
X0003614Y0024933D02*
X0004604Y0024933D01*
X0005266Y0023334D02*
X0003614Y0023334D01*
X0003782Y0021893D02*
X0009688Y0015987D01*
X0009688Y0017562D01*
X0011361Y0019235D01*
X0017562Y0019235D01*
X0018911Y0018539D02*
X0014560Y0018539D01*
X0015105Y0016940D02*
X0019654Y0016940D01*
X0022916Y0016940D02*
X0022916Y0016940D01*
X0022916Y0016608D02*
X0025201Y0016608D01*
X0025201Y0015766D01*
X0027184Y0013784D01*
X0029987Y0013784D01*
X0031970Y0015766D01*
X0031970Y0018570D01*
X0030785Y0019754D01*
X0030785Y0021229D01*
X0029497Y0022518D01*
X0028020Y0023994D01*
X0026521Y0023994D01*
X0026521Y0024712D01*
X0028316Y0024712D01*
X0028585Y0024981D01*
X0030333Y0023233D01*
X0032008Y0023233D01*
X0035647Y0019594D01*
X0039699Y0019594D01*
X0039699Y0019235D01*
X0039699Y0018171D01*
X0039822Y0017714D01*
X0040059Y0017303D01*
X0040394Y0016968D01*
X0040804Y0016731D01*
X0041262Y0016608D01*
X0043704Y0016608D01*
X0046145Y0016608D01*
X0046603Y0016731D01*
X0047014Y0016968D01*
X0047349Y0017303D01*
X0047586Y0017714D01*
X0047708Y0018171D01*
X0047708Y0019235D01*
X0043704Y0019235D01*
X0043704Y0019235D01*
X0047708Y0019235D01*
X0047708Y0020299D01*
X0047586Y0020757D01*
X0047349Y0021167D01*
X0047308Y0021207D01*
X0047308Y0022153D01*
X0049280Y0022153D01*
X0049969Y0022842D01*
X0050795Y0023668D01*
X0050795Y0018190D01*
X0050018Y0018190D01*
X0048036Y0016208D01*
X0048036Y0013404D01*
X0050018Y0011422D01*
X0052822Y0011422D01*
X0053154Y0011754D01*
X0053154Y0011042D01*
X0055357Y0013625D02*
X0056538Y0012444D01*
X0055357Y0013625D02*
X0055357Y0031735D01*
X0058211Y0034589D01*
X0062286Y0034589D01*
X0062286Y0032030D02*
X0062286Y0029471D01*
X0062286Y0029471D01*
X0062286Y0029139D01*
X0062286Y0029139D01*
X0062286Y0029404D01*
X0062286Y0029471D01*
X0059393Y0029471D01*
X0057719Y0027798D01*
X0057719Y0019629D01*
X0058113Y0019235D01*
X0058282Y0018539D02*
X0057557Y0018539D01*
X0057557Y0020137D02*
X0058282Y0020137D01*
X0062286Y0019235D02*
X0062286Y0016608D01*
X0064728Y0016608D01*
X0065186Y0016731D01*
X0065596Y0016968D01*
X0065931Y0017303D01*
X0066168Y0017714D01*
X0066291Y0018171D01*
X0066291Y0019235D01*
X0062286Y0019235D01*
X0062286Y0019235D01*
X0066291Y0019235D01*
X0066291Y0019594D01*
X0067981Y0019594D01*
X0069270Y0020883D01*
X0072518Y0024131D01*
X0072518Y0024818D01*
X0073702Y0026003D01*
X0073702Y0028806D01*
X0071720Y0030789D01*
X0068974Y0030789D01*
X0068974Y0035873D01*
X0072458Y0032389D01*
X0076385Y0032389D01*
X0076385Y0028560D01*
X0077674Y0027271D01*
X0079469Y0027271D01*
X0079469Y0021207D01*
X0079429Y0021167D01*
X0079192Y0020757D01*
X0079069Y0020299D01*
X0079069Y0019235D01*
X0083074Y0019235D01*
X0083074Y0019235D01*
X0079811Y0016940D02*
X0065549Y0016940D01*
X0066291Y0018539D02*
X0079069Y0018539D01*
X0079069Y0020137D02*
X0068524Y0020137D01*
X0067070Y0021794D02*
X0062286Y0021794D01*
X0058682Y0021736D02*
X0057557Y0021736D01*
X0057557Y0023334D02*
X0058682Y0023334D01*
X0058682Y0024933D02*
X0057557Y0024933D01*
X0057557Y0026531D02*
X0058682Y0026531D01*
X0058356Y0028130D02*
X0057557Y0028130D01*
X0058282Y0029471D02*
X0059592Y0029471D01*
X0059592Y0029471D01*
X0058282Y0029471D01*
X0058282Y0029729D02*
X0057557Y0029729D01*
X0058060Y0031327D02*
X0058282Y0031327D01*
X0062286Y0031327D02*
X0062286Y0031327D01*
X0062286Y0032030D02*
X0062286Y0029471D01*
X0062286Y0029373D01*
X0062286Y0029471D02*
X0062286Y0032030D01*
X0062286Y0032030D01*
X0062286Y0029729D02*
X0062286Y0029729D01*
X0062286Y0029471D02*
X0062286Y0029471D01*
X0062286Y0026912D02*
X0066774Y0026912D01*
X0066774Y0039708D01*
X0068251Y0039708D01*
X0073369Y0034589D01*
X0078585Y0034589D01*
X0083074Y0034589D01*
X0078585Y0034589D02*
X0078585Y0029471D01*
X0083074Y0029471D01*
X0088428Y0028192D02*
X0088428Y0026617D01*
X0086164Y0024353D01*
X0083074Y0024353D01*
X0079469Y0024933D02*
X0072632Y0024933D01*
X0070318Y0025042D02*
X0067070Y0021794D01*
X0070123Y0021736D02*
X0079469Y0021736D01*
X0079469Y0023334D02*
X0071721Y0023334D01*
X0070318Y0025042D02*
X0070318Y0027404D01*
X0073702Y0028130D02*
X0076816Y0028130D01*
X0079469Y0026531D02*
X0073702Y0026531D01*
X0072780Y0029729D02*
X0076385Y0029729D01*
X0076385Y0031327D02*
X0068974Y0031327D01*
X0068974Y0032926D02*
X0071922Y0032926D01*
X0070323Y0034524D02*
X0068974Y0034524D01*
X0062286Y0037148D02*
X0056834Y0037148D01*
X0052995Y0033310D01*
X0052995Y0016381D01*
X0051420Y0014806D01*
X0048036Y0015342D02*
X0031545Y0015342D01*
X0031970Y0016940D02*
X0040441Y0016940D01*
X0039699Y0018539D02*
X0031970Y0018539D01*
X0030785Y0020137D02*
X0035103Y0020137D01*
X0036558Y0021794D02*
X0031735Y0026617D01*
X0028633Y0024933D02*
X0028536Y0024933D01*
X0028680Y0023334D02*
X0030232Y0023334D01*
X0030279Y0021736D02*
X0033505Y0021736D01*
X0036558Y0021794D02*
X0043704Y0021794D01*
X0047308Y0021736D02*
X0050795Y0021736D01*
X0050795Y0023334D02*
X0050461Y0023334D01*
X0049058Y0025042D02*
X0048369Y0024353D01*
X0043704Y0024353D01*
X0049058Y0025042D02*
X0049058Y0028192D01*
X0043704Y0029471D02*
X0039215Y0029471D01*
X0039215Y0034589D01*
X0037936Y0034589D01*
X0033704Y0038822D01*
X0027404Y0038822D01*
X0027404Y0026912D01*
X0022916Y0026912D01*
X0019311Y0026531D02*
X0014788Y0026531D01*
X0014942Y0028130D02*
X0018986Y0028130D01*
X0019311Y0024933D02*
X0014771Y0024933D01*
X0014109Y0023334D02*
X0019311Y0023334D01*
X0019311Y0021736D02*
X0012649Y0021736D01*
X0013316Y0020137D02*
X0018911Y0020137D01*
X0022916Y0019235D02*
X0022916Y0016608D01*
X0025626Y0015342D02*
X0015154Y0015342D01*
X0014717Y0013743D02*
X0048036Y0013743D01*
X0049295Y0012145D02*
X0013624Y0012145D01*
X0009888Y0012145D02*
X0009488Y0012145D01*
X0009488Y0013743D02*
X0009888Y0013743D01*
X0009888Y0015342D02*
X0009488Y0015342D01*
X0009488Y0016940D02*
X0009888Y0016940D01*
X0009888Y0018539D02*
X0009488Y0018539D01*
X0009488Y0020137D02*
X0009888Y0020137D01*
X0006060Y0020137D02*
X0003614Y0020137D01*
X0003614Y0018539D02*
X0004815Y0018539D01*
X0004270Y0016940D02*
X0003614Y0016940D01*
X0003614Y0015342D02*
X0004221Y0015342D01*
X0004658Y0013743D02*
X0003614Y0013743D01*
X0003614Y0012145D02*
X0005752Y0012145D01*
X0022916Y0018539D02*
X0022916Y0018539D01*
X0027109Y0021794D02*
X0028585Y0020318D01*
X0028585Y0017168D01*
X0027109Y0021794D02*
X0022916Y0021794D01*
X0006726Y0021736D02*
X0003614Y0021736D01*
X0003782Y0021893D02*
X0003782Y0058507D01*
X0006932Y0061656D01*
X0017365Y0061656D01*
X0018425Y0060341D02*
X0018090Y0060006D01*
X0017853Y0059595D01*
X0017730Y0059137D01*
X0017730Y0057116D01*
X0021511Y0057116D01*
X0021511Y0056748D01*
X0017730Y0056748D01*
X0017730Y0054726D01*
X0017853Y0054269D01*
X0018090Y0053858D01*
X0018425Y0053523D01*
X0018836Y0053286D01*
X0019293Y0053163D01*
X0021511Y0053163D01*
X0021511Y0056748D01*
X0021880Y0056748D01*
X0021880Y0053163D01*
X0022448Y0053163D01*
X0022448Y0050115D01*
X0022552Y0050011D01*
X0020474Y0050011D01*
X0020017Y0049889D01*
X0019606Y0049652D01*
X0019271Y0049317D01*
X0019034Y0048906D01*
X0018911Y0048448D01*
X0018911Y0048064D01*
X0018164Y0048811D01*
X0018978Y0049625D01*
X0018978Y0052428D01*
X0016995Y0054411D01*
X0014555Y0054411D01*
X0014788Y0054973D01*
X0014788Y0057002D01*
X0014166Y0058502D02*
X0017730Y0058502D01*
X0021511Y0058502D02*
X0021880Y0058502D01*
X0021880Y0057116D02*
X0021511Y0057116D01*
X0021511Y0060700D01*
X0019293Y0060700D01*
X0018836Y0060578D01*
X0018425Y0060341D01*
X0018185Y0060100D02*
X0012787Y0060100D01*
X0006589Y0060100D02*
X0003614Y0060100D01*
X0003715Y0061699D02*
X0036934Y0061699D01*
X0036926Y0061691D02*
X0035637Y0060402D01*
X0035637Y0060300D01*
X0035092Y0060300D01*
X0034272Y0059480D01*
X0034272Y0059132D01*
X0031954Y0059132D01*
X0031954Y0059480D01*
X0031134Y0060300D01*
X0025643Y0060300D01*
X0025319Y0059976D01*
X0025301Y0060006D01*
X0024966Y0060341D01*
X0024556Y0060578D01*
X0024098Y0060700D01*
X0021880Y0060700D01*
X0021880Y0057116D01*
X0022286Y0056538D02*
X0020711Y0054963D01*
X0020711Y0052208D01*
X0020711Y0048664D01*
X0021991Y0047385D01*
X0022916Y0047385D01*
X0019590Y0047385D01*
X0019591Y0047385D01*
X0022916Y0047385D01*
X0022916Y0047385D01*
X0019037Y0048911D02*
X0018264Y0048911D01*
X0018978Y0050509D02*
X0022448Y0050509D01*
X0024648Y0051026D02*
X0027404Y0048271D01*
X0027404Y0039708D01*
X0022916Y0039708D01*
X0022916Y0037148D02*
X0010849Y0037148D01*
X0009688Y0035987D01*
X0004588Y0036123D02*
X0003614Y0036123D01*
X0003614Y0037721D02*
X0004886Y0037721D01*
X0005808Y0039320D02*
X0003614Y0039320D01*
X0003614Y0040918D02*
X0008266Y0040918D01*
X0005946Y0042517D02*
X0003614Y0042517D01*
X0003614Y0044115D02*
X0004943Y0044115D01*
X0004588Y0045714D02*
X0003614Y0045714D01*
X0003614Y0047312D02*
X0004717Y0047312D01*
X0005399Y0048911D02*
X0003614Y0048911D01*
X0003614Y0050509D02*
X0007278Y0050509D01*
X0006355Y0052108D02*
X0003614Y0052108D01*
X0003614Y0053706D02*
X0005112Y0053706D01*
X0004588Y0055305D02*
X0003614Y0055305D01*
X0003614Y0056903D02*
X0004588Y0056903D01*
X0005209Y0058502D02*
X0003614Y0058502D01*
X0014788Y0055305D02*
X0017730Y0055305D01*
X0021511Y0055305D02*
X0021880Y0055305D01*
X0021880Y0053706D02*
X0021511Y0053706D01*
X0022448Y0052108D02*
X0018978Y0052108D01*
X0018242Y0053706D02*
X0017700Y0053706D01*
X0015593Y0051026D02*
X0015593Y0048271D01*
X0019038Y0044826D01*
X0022916Y0044826D01*
X0029604Y0046989D02*
X0029604Y0049182D01*
X0028316Y0050471D01*
X0026848Y0051938D01*
X0026848Y0052477D01*
X0027935Y0053563D01*
X0031134Y0053563D01*
X0031954Y0054384D01*
X0031954Y0054732D01*
X0034272Y0054732D01*
X0034272Y0054384D01*
X0035092Y0053563D01*
X0040583Y0053563D01*
X0040907Y0053888D01*
X0040925Y0053858D01*
X0041260Y0053523D01*
X0041670Y0053286D01*
X0042128Y0053163D01*
X0044346Y0053163D01*
X0044346Y0056748D01*
X0044715Y0056748D01*
X0044715Y0057116D01*
X0048496Y0057116D01*
X0048496Y0057926D01*
X0049611Y0056811D01*
X0049611Y0055136D01*
X0051593Y0053154D01*
X0054397Y0053154D01*
X0055581Y0054338D01*
X0063107Y0054338D01*
X0064574Y0052871D01*
X0064574Y0050011D01*
X0062286Y0050011D01*
X0059845Y0050011D01*
X0059387Y0049889D01*
X0058976Y0049652D01*
X0058641Y0049317D01*
X0058404Y0048906D01*
X0058348Y0048695D01*
X0058348Y0050066D01*
X0056365Y0052048D01*
X0053562Y0052048D01*
X0051579Y0050066D01*
X0051579Y0048505D01*
X0049231Y0048505D01*
X0047708Y0046983D01*
X0047708Y0047385D01*
X0047708Y0048448D01*
X0047586Y0048906D01*
X0047349Y0049317D01*
X0047014Y0049652D01*
X0046603Y0049889D01*
X0046145Y0050011D01*
X0043704Y0050011D01*
X0043704Y0047385D01*
X0047708Y0047385D01*
X0043704Y0047385D01*
X0043704Y0047385D01*
X0043704Y0047385D01*
X0043704Y0050011D01*
X0041262Y0050011D01*
X0040804Y0049889D01*
X0040394Y0049652D01*
X0040059Y0049317D01*
X0039822Y0048906D01*
X0039739Y0048596D01*
X0039436Y0048899D01*
X0036632Y0048899D01*
X0035082Y0047348D01*
X0033924Y0048505D01*
X0031121Y0048505D01*
X0029604Y0046989D01*
X0029604Y0047312D02*
X0029928Y0047312D01*
X0029604Y0048911D02*
X0039824Y0048911D01*
X0043704Y0048911D02*
X0043704Y0048911D01*
X0044530Y0048211D02*
X0043704Y0047385D01*
X0044530Y0048211D02*
X0044530Y0052995D01*
X0044924Y0052601D01*
X0045121Y0052601D01*
X0044727Y0052208D01*
X0028585Y0052208D01*
X0026848Y0052108D02*
X0064574Y0052108D01*
X0063739Y0053706D02*
X0054949Y0053706D01*
X0051041Y0053706D02*
X0047984Y0053706D01*
X0048136Y0053858D02*
X0048373Y0054269D01*
X0048496Y0054726D01*
X0048496Y0056748D01*
X0044715Y0056748D01*
X0044715Y0053163D01*
X0046933Y0053163D01*
X0047390Y0053286D01*
X0047801Y0053523D01*
X0048136Y0053858D01*
X0045121Y0052601D02*
X0060082Y0052601D01*
X0062286Y0050397D01*
X0062286Y0047385D01*
X0062286Y0050011D01*
X0062286Y0047385D01*
X0062286Y0047385D01*
X0062286Y0048911D02*
X0062286Y0048911D01*
X0064574Y0050509D02*
X0057905Y0050509D01*
X0058348Y0048911D02*
X0058407Y0048911D01*
X0054963Y0048664D02*
X0058802Y0044826D01*
X0062286Y0044826D01*
X0068974Y0045020D02*
X0068974Y0054694D01*
X0067686Y0055982D01*
X0064930Y0058738D01*
X0055581Y0058738D01*
X0054397Y0059922D01*
X0052722Y0059922D01*
X0051258Y0061387D01*
X0049969Y0062675D01*
X0037910Y0062675D01*
X0036926Y0061691D01*
X0038822Y0060475D02*
X0037837Y0059491D01*
X0037837Y0056932D01*
X0028389Y0056932D01*
X0028192Y0056735D01*
X0027995Y0056735D01*
X0024648Y0053389D01*
X0024648Y0051026D01*
X0028277Y0050509D02*
X0052022Y0050509D01*
X0051579Y0048911D02*
X0047583Y0048911D01*
X0047708Y0047312D02*
X0048038Y0047312D01*
X0050633Y0045121D02*
X0047778Y0042267D01*
X0043704Y0042267D01*
X0043704Y0044826D02*
X0038723Y0044826D01*
X0038034Y0045515D01*
X0032522Y0045121D02*
X0040495Y0037148D01*
X0043704Y0037148D01*
X0048271Y0035672D02*
X0054176Y0041578D01*
X0062286Y0039708D02*
X0066774Y0039708D01*
X0066774Y0053782D01*
X0064019Y0056538D01*
X0052995Y0056538D01*
X0049058Y0060475D01*
X0038822Y0060475D01*
X0034892Y0060100D02*
X0031334Y0060100D01*
X0025443Y0060100D02*
X0025207Y0060100D01*
X0021880Y0060100D02*
X0021511Y0060100D01*
X0031277Y0053706D02*
X0034949Y0053706D01*
X0040725Y0053706D02*
X0041077Y0053706D01*
X0044346Y0053706D02*
X0044715Y0053706D01*
X0044530Y0052995D02*
X0044530Y0056932D01*
X0044715Y0056903D02*
X0049519Y0056903D01*
X0049611Y0055305D02*
X0048496Y0055305D01*
X0044715Y0055305D02*
X0044346Y0055305D01*
X0052544Y0060100D02*
X0085335Y0060100D01*
X0086934Y0061699D02*
X0050946Y0061699D01*
X0051258Y0061387D02*
X0051258Y0061387D01*
X0065166Y0058502D02*
X0082062Y0058502D01*
X0081500Y0056903D02*
X0066765Y0056903D01*
X0068363Y0055305D02*
X0081500Y0055305D01*
X0084885Y0056538D02*
X0088822Y0060475D01*
X0106538Y0060475D01*
X0107326Y0059688D01*
X0107326Y0057129D01*
X0107522Y0056932D01*
X0105751Y0055160D01*
X0105751Y0039708D01*
X0101656Y0039708D01*
X0101656Y0037148D02*
X0096204Y0037148D01*
X0092759Y0033704D01*
X0092759Y0020711D01*
X0088428Y0016381D01*
X0084491Y0016381D01*
X0082916Y0014806D01*
X0080791Y0012145D02*
X0059922Y0012145D01*
X0059922Y0013743D02*
X0079532Y0013743D01*
X0079532Y0015342D02*
X0058426Y0015342D01*
X0059024Y0016940D02*
X0057557Y0016940D01*
X0062286Y0016940D02*
X0062286Y0016940D01*
X0062286Y0018539D02*
X0062286Y0018539D01*
X0050795Y0018539D02*
X0047708Y0018539D01*
X0047708Y0020137D02*
X0050795Y0020137D01*
X0048769Y0016940D02*
X0046966Y0016940D01*
X0043704Y0016940D02*
X0043704Y0016940D01*
X0043704Y0016608D02*
X0043704Y0019235D01*
X0043704Y0019235D01*
X0043704Y0011893D01*
X0047483Y0008113D01*
X0059688Y0008113D01*
X0059427Y0010546D02*
X0085146Y0010546D01*
X0088034Y0012444D02*
X0095121Y0019530D01*
X0095121Y0032129D01*
X0097582Y0034589D01*
X0101656Y0034589D01*
X0101656Y0032030D02*
X0101656Y0029471D01*
X0098763Y0029471D01*
X0097483Y0028192D01*
X0097483Y0019235D01*
X0097652Y0018539D02*
X0097241Y0018539D01*
X0097321Y0020137D02*
X0097652Y0020137D01*
X0101656Y0019235D02*
X0101656Y0016608D01*
X0104098Y0016608D01*
X0104556Y0016731D01*
X0104966Y0016968D01*
X0105301Y0017303D01*
X0105538Y0017714D01*
X0105661Y0018171D01*
X0105661Y0019235D01*
X0101656Y0019235D01*
X0101656Y0019235D01*
X0105661Y0019235D01*
X0105661Y0019594D01*
X0107745Y0019594D01*
X0109034Y0020883D01*
X0109850Y0021699D01*
X0109850Y0020194D01*
X0111425Y0018619D01*
X0112714Y0017330D01*
X0118079Y0017330D01*
X0118541Y0017792D01*
X0118562Y0017714D01*
X0118799Y0017303D01*
X0119134Y0016968D01*
X0119544Y0016731D01*
X0120002Y0016608D01*
X0122444Y0016608D01*
X0122444Y0019235D01*
X0122444Y0018539D02*
X0122444Y0018539D01*
X0122444Y0016940D02*
X0122444Y0016940D01*
X0125706Y0016940D02*
X0130255Y0016940D01*
X0130800Y0018539D02*
X0126448Y0018539D01*
X0126448Y0020137D02*
X0132044Y0020137D01*
X0132711Y0021736D02*
X0126048Y0021736D01*
X0126048Y0023334D02*
X0131251Y0023334D01*
X0130588Y0024933D02*
X0126048Y0024933D01*
X0122444Y0024353D02*
X0116479Y0024353D01*
X0115987Y0023861D01*
X0114019Y0027404D02*
X0112050Y0025436D01*
X0112050Y0021105D01*
X0113625Y0019530D01*
X0117168Y0019530D01*
X0119432Y0021794D01*
X0122444Y0021794D01*
X0119181Y0016940D02*
X0104919Y0016940D01*
X0105661Y0018539D02*
X0111505Y0018539D01*
X0111425Y0018619D02*
X0111425Y0018619D01*
X0109906Y0020137D02*
X0108288Y0020137D01*
X0106834Y0021794D02*
X0101656Y0021794D01*
X0098052Y0021736D02*
X0097321Y0021736D01*
X0097321Y0023334D02*
X0098052Y0023334D01*
X0098052Y0024933D02*
X0097321Y0024933D01*
X0097321Y0026531D02*
X0098052Y0026531D01*
X0097726Y0028130D02*
X0097321Y0028130D01*
X0097652Y0029471D02*
X0098962Y0029471D01*
X0098962Y0029471D01*
X0097652Y0029471D01*
X0097652Y0029729D02*
X0097321Y0029729D01*
X0097430Y0031327D02*
X0097652Y0031327D01*
X0101656Y0031327D02*
X0101656Y0031327D01*
X0101656Y0032030D02*
X0101656Y0029471D01*
X0101656Y0032030D01*
X0101656Y0032030D01*
X0101656Y0029729D02*
X0101656Y0029729D01*
X0101656Y0029471D02*
X0101656Y0029471D01*
X0101656Y0026912D02*
X0105751Y0026912D01*
X0105751Y0037247D01*
X0108408Y0034589D01*
X0117956Y0034589D01*
X0117956Y0029471D01*
X0122444Y0029471D01*
X0126048Y0029729D02*
X0132201Y0029729D01*
X0133595Y0031327D02*
X0128926Y0031327D01*
X0126519Y0032030D02*
X0129767Y0035278D01*
X0129767Y0040082D01*
X0135672Y0045987D01*
X0140417Y0044115D02*
X0141746Y0044115D01*
X0140772Y0044973D02*
X0140772Y0047002D01*
X0139996Y0048876D01*
X0138561Y0050311D01*
X0136928Y0050987D01*
X0138561Y0051663D01*
X0139996Y0053098D01*
X0140772Y0054973D01*
X0140772Y0057002D01*
X0139996Y0058876D01*
X0138561Y0060311D01*
X0136687Y0061087D01*
X0134658Y0061087D01*
X0132783Y0060311D01*
X0131349Y0058876D01*
X0130572Y0057002D01*
X0130572Y0054973D01*
X0131349Y0053098D01*
X0132783Y0051663D01*
X0134416Y0050987D01*
X0132783Y0050311D01*
X0131349Y0048876D01*
X0130572Y0047002D01*
X0130572Y0044973D01*
X0130857Y0044284D01*
X0129604Y0043031D01*
X0129604Y0048047D01*
X0130789Y0049231D01*
X0130789Y0052035D01*
X0128806Y0054017D01*
X0126968Y0054017D01*
X0127113Y0054269D01*
X0127236Y0054726D01*
X0127236Y0056748D01*
X0123455Y0056748D01*
X0123086Y0056748D01*
X0123086Y0053163D01*
X0120868Y0053163D01*
X0120410Y0053286D01*
X0120000Y0053523D01*
X0119665Y0053858D01*
X0119648Y0053888D01*
X0119370Y0053611D01*
X0120946Y0052035D01*
X0120946Y0050011D01*
X0122444Y0050011D01*
X0122444Y0047385D01*
X0122444Y0048911D02*
X0122444Y0048911D01*
X0120946Y0050509D02*
X0124020Y0050509D01*
X0127404Y0050633D02*
X0127404Y0038428D01*
X0126125Y0037148D01*
X0122444Y0037148D01*
X0122444Y0034589D02*
X0117956Y0034589D01*
X0122444Y0032030D02*
X0126519Y0032030D01*
X0130525Y0032926D02*
X0131521Y0032926D01*
X0136928Y0030987D02*
X0138561Y0031663D01*
X0139996Y0033098D01*
X0140772Y0034973D01*
X0140772Y0037002D01*
X0139996Y0038876D01*
X0138561Y0040311D01*
X0136928Y0040987D01*
X0138561Y0041663D01*
X0139996Y0043098D01*
X0140772Y0044973D01*
X0140772Y0045714D02*
X0141746Y0045714D01*
X0141746Y0047312D02*
X0140643Y0047312D01*
X0139961Y0048911D02*
X0141746Y0048911D01*
X0141746Y0050509D02*
X0138082Y0050509D01*
X0139005Y0052108D02*
X0141746Y0052108D01*
X0141746Y0053706D02*
X0140248Y0053706D01*
X0140772Y0055305D02*
X0141746Y0055305D01*
X0141746Y0056903D02*
X0140772Y0056903D01*
X0140151Y0058502D02*
X0141746Y0058502D01*
X0141746Y0060100D02*
X0138771Y0060100D01*
X0141645Y0061699D02*
X0108426Y0061699D01*
X0110468Y0060100D02*
X0113632Y0060100D01*
X0119523Y0060100D02*
X0119759Y0060100D01*
X0123086Y0060100D02*
X0123455Y0060100D01*
X0123455Y0058502D02*
X0123086Y0058502D01*
X0123455Y0056903D02*
X0130572Y0056903D01*
X0130572Y0055305D02*
X0127236Y0055305D01*
X0129117Y0053706D02*
X0131097Y0053706D01*
X0130715Y0052108D02*
X0132339Y0052108D01*
X0133262Y0050509D02*
X0130789Y0050509D01*
X0130468Y0048911D02*
X0131383Y0048911D01*
X0130701Y0047312D02*
X0129604Y0047312D01*
X0129604Y0045714D02*
X0130572Y0045714D01*
X0130689Y0044115D02*
X0129604Y0044115D01*
X0122444Y0044826D02*
X0117857Y0044826D01*
X0115987Y0046696D01*
X0115987Y0049058D01*
X0117562Y0050633D01*
X0120873Y0052108D02*
X0124093Y0052108D01*
X0123455Y0053706D02*
X0123086Y0053706D01*
X0119817Y0053706D02*
X0119466Y0053706D01*
X0123086Y0055305D02*
X0123455Y0055305D01*
X0127236Y0058502D02*
X0131194Y0058502D01*
X0132573Y0060100D02*
X0126782Y0060100D01*
X0116578Y0056932D02*
X0107522Y0056932D01*
X0106538Y0055948D01*
X0101014Y0055305D02*
X0100645Y0055305D01*
X0100436Y0055357D02*
X0100830Y0054963D01*
X0100830Y0048211D01*
X0101656Y0047385D01*
X0101656Y0048911D02*
X0101656Y0048911D01*
X0103551Y0050509D02*
X0094419Y0050509D01*
X0096017Y0048911D02*
X0097777Y0048911D01*
X0097652Y0047312D02*
X0097616Y0047312D01*
X0096991Y0044826D02*
X0090397Y0051420D01*
X0093781Y0052108D02*
X0103551Y0052108D01*
X0101014Y0053706D02*
X0100645Y0053706D01*
X0100830Y0054963D02*
X0100830Y0056932D01*
X0100645Y0056903D02*
X0088361Y0056903D01*
X0088269Y0055305D02*
X0096864Y0055305D01*
X0097376Y0053706D02*
X0092896Y0053706D01*
X0088822Y0055357D02*
X0100436Y0055357D01*
X0088822Y0055357D02*
X0086066Y0052601D01*
X0087012Y0052108D02*
X0068974Y0052108D01*
X0068974Y0053706D02*
X0082931Y0053706D01*
X0086839Y0053706D02*
X0087897Y0053706D01*
X0087012Y0050509D02*
X0068974Y0050509D01*
X0068974Y0048911D02*
X0071290Y0048911D01*
X0070477Y0048098D02*
X0070477Y0045749D01*
X0069703Y0045749D01*
X0068974Y0045020D01*
X0068974Y0045714D02*
X0069668Y0045714D01*
X0068974Y0047312D02*
X0070477Y0047312D01*
X0070477Y0048098D02*
X0072459Y0050080D01*
X0075263Y0050080D01*
X0077245Y0048098D01*
X0077245Y0047026D01*
X0079069Y0047026D01*
X0079069Y0047385D01*
X0083074Y0047385D01*
X0083074Y0047385D01*
X0083074Y0048911D02*
X0083074Y0048911D01*
X0079194Y0048911D02*
X0076432Y0048911D01*
X0077245Y0047312D02*
X0079069Y0047312D01*
X0075731Y0044826D02*
X0073861Y0046696D01*
X0075731Y0044826D02*
X0083074Y0044826D01*
X0083074Y0042267D02*
X0086755Y0042267D01*
X0088822Y0044334D01*
X0088822Y0046696D01*
X0092759Y0043546D02*
X0092759Y0038034D01*
X0086755Y0032030D01*
X0083074Y0032030D01*
X0083074Y0037148D02*
X0076322Y0037148D01*
X0071105Y0042365D01*
X0048271Y0035672D02*
X0048271Y0033310D01*
X0046991Y0032030D01*
X0043704Y0032030D01*
X0043704Y0034589D02*
X0039215Y0034589D01*
X0027404Y0038822D02*
X0027404Y0039708D01*
X0022916Y0034589D02*
X0018290Y0034589D01*
X0007611Y0031327D02*
X0003614Y0031327D01*
X0003614Y0029729D02*
X0006217Y0029729D01*
X0005537Y0032926D02*
X0003614Y0032926D01*
X0003614Y0034524D02*
X0004774Y0034524D01*
X0039699Y0019235D02*
X0043703Y0019235D01*
X0039699Y0019235D01*
X0043703Y0019235D02*
X0043703Y0019235D01*
X0043704Y0019235D02*
X0043704Y0016608D01*
X0043704Y0018539D02*
X0043704Y0018539D01*
X0083074Y0021794D02*
X0088133Y0021794D01*
X0088428Y0021499D01*
X0095642Y0016940D02*
X0098394Y0016940D01*
X0101656Y0016940D02*
X0101656Y0016940D01*
X0101656Y0018539D02*
X0101656Y0018539D01*
X0106834Y0021794D02*
X0109294Y0024255D01*
X0109294Y0028192D01*
X0114019Y0027404D02*
X0114019Y0029373D01*
X0126048Y0028130D02*
X0131040Y0028130D01*
X0130572Y0026531D02*
X0126048Y0026531D01*
X0136928Y0030987D02*
X0138561Y0030311D01*
X0139996Y0028876D01*
X0140772Y0027002D01*
X0140772Y0024973D01*
X0139996Y0023098D01*
X0138561Y0021663D01*
X0137435Y0021197D01*
X0137783Y0021084D01*
X0138555Y0020691D01*
X0139255Y0020182D01*
X0139867Y0019570D01*
X0140376Y0018870D01*
X0140769Y0018098D01*
X0141037Y0017275D01*
X0141172Y0016420D01*
X0141172Y0016187D01*
X0135872Y0016187D01*
X0135872Y0015787D01*
X0135872Y0010487D01*
X0136105Y0010487D01*
X0136960Y0010622D01*
X0137783Y0010890D01*
X0138555Y0011283D01*
X0139255Y0011792D01*
X0139867Y0012404D01*
X0140376Y0013104D01*
X0140769Y0013876D01*
X0141037Y0014699D01*
X0141172Y0015554D01*
X0141172Y0015787D01*
X0135872Y0015787D01*
X0135472Y0015787D01*
X0135472Y0010487D01*
X0135239Y0010487D01*
X0135472Y0010546D02*
X0135872Y0010546D01*
X0136479Y0010546D02*
X0141746Y0010546D01*
X0141746Y0012145D02*
X0139608Y0012145D01*
X0140702Y0013743D02*
X0141746Y0013743D01*
X0141746Y0015342D02*
X0141138Y0015342D01*
X0141090Y0016940D02*
X0141746Y0016940D01*
X0141746Y0018539D02*
X0140545Y0018539D01*
X0141746Y0020137D02*
X0139300Y0020137D01*
X0138633Y0021736D02*
X0141746Y0021736D01*
X0141746Y0023334D02*
X0140094Y0023334D01*
X0140756Y0024933D02*
X0141746Y0024933D01*
X0141746Y0026531D02*
X0140772Y0026531D01*
X0140305Y0028130D02*
X0141746Y0028130D01*
X0141746Y0029729D02*
X0139143Y0029729D01*
X0137749Y0031327D02*
X0141746Y0031327D01*
X0141746Y0032926D02*
X0139823Y0032926D01*
X0140586Y0034524D02*
X0141746Y0034524D01*
X0141746Y0036123D02*
X0140772Y0036123D01*
X0140474Y0037721D02*
X0141746Y0037721D01*
X0141746Y0039320D02*
X0139552Y0039320D01*
X0141746Y0040918D02*
X0137094Y0040918D01*
X0139414Y0042517D02*
X0141746Y0042517D01*
X0122444Y0042267D02*
X0119038Y0042267D01*
X0116774Y0040003D01*
X0105751Y0039708D02*
X0105751Y0037247D01*
X0101656Y0044826D02*
X0096991Y0044826D01*
X0094044Y0015342D02*
X0130206Y0015342D01*
X0130642Y0013743D02*
X0092445Y0013743D01*
X0091419Y0012145D02*
X0131736Y0012145D01*
X0135472Y0012145D02*
X0135872Y0012145D01*
X0135872Y0013743D02*
X0135472Y0013743D01*
X0135472Y0015342D02*
X0135872Y0015342D01*
D14*
X0115987Y0023861D03*
X0109294Y0028192D03*
X0114019Y0029373D03*
X0116774Y0040003D03*
X0117562Y0050633D03*
X0127404Y0050633D03*
X0092759Y0043546D03*
X0088822Y0046696D03*
X0090397Y0051420D03*
X0084885Y0056538D03*
X0073861Y0046696D03*
X0071105Y0042365D03*
X0054176Y0041578D03*
X0050633Y0045121D03*
X0054963Y0048664D03*
X0052995Y0056538D03*
X0038034Y0045515D03*
X0032522Y0045121D03*
X0028585Y0052208D03*
X0020711Y0052208D03*
X0015593Y0051026D03*
X0049058Y0028192D03*
X0031735Y0026617D03*
X0028585Y0017168D03*
X0051420Y0014806D03*
X0056538Y0012444D03*
X0060869Y0009294D03*
X0082916Y0014806D03*
X0088034Y0012444D03*
X0092365Y0009294D03*
X0088428Y0021499D03*
X0088428Y0028192D03*
X0070318Y0027404D03*
M02*
