%
M48
M72
T01C0.01969
T02C0.04000
%
T01
X28474Y17057
X31624Y26506
X48947Y28081
X70207Y27293
X88317Y28081
X88317Y21388
X82805Y14695
X87923Y12333
X92254Y9183
X115876Y23750
X109183Y28081
X113908Y29262
X116663Y39892
X117451Y50522
X127293Y50522
X92648Y43435
X88711Y46585
X90285Y51309
X84774Y56427
X73750Y46585
X70994Y42254
X54065Y41467
X50522Y45010
X54852Y48553
X52884Y56427
X37923Y45404
X32411Y45010
X28474Y52097
X20600Y52097
X15482Y50915
X51309Y14695
X56427Y12333
X60758Y9183
T02
X9577Y15876
X9577Y25876
X9577Y35876
X9577Y45876
X9577Y55876
X135561Y55876
X135561Y45876
X135561Y35876
X135561Y25876
X135561Y15876
M30
