%
M48
M72
T01C0.01969
T02C0.04000
%
T01
X28585Y17168
X31735Y26617
X49058Y28192
X70318Y27404
X88428Y28192
X88428Y21499
X82916Y14806
X88034Y12444
X92365Y9294
X115987Y23861
X109294Y28192
X114019Y29373
X116774Y40003
X117562Y50633
X127404Y50633
X92759Y43546
X88822Y46696
X90397Y51420
X84885Y56538
X73861Y46696
X71105Y42365
X54176Y41578
X50633Y45121
X54963Y48664
X52995Y56538
X38034Y45515
X32522Y45121
X28585Y52208
X20711Y52208
X15593Y51026
X51420Y14806
X56538Y12444
X60869Y9294
T02
X9688Y15987
X9688Y25987
X9688Y35987
X9688Y45987
X9688Y55987
X135672Y55987
X135672Y45987
X135672Y35987
X135672Y25987
X135672Y15987
M30
