G75*
%MOIN*%
%OFA0B0*%
%FSLAX25Y25*%
%IPPOS*%
%LPD*%
%AMOC8*
5,1,8,0,0,1.08239X$1,22.5*
%
%ADD10C,0.00000*%
%ADD11C,0.07874*%
%ADD12C,0.07400*%
%ADD13C,0.02400*%
%ADD14OC8,0.03969*%
%ADD15C,0.01600*%
D10*
X0005751Y0001814D02*
X0139609Y0001814D01*
X0139729Y0001805D01*
X0139848Y0001801D01*
X0139968Y0001800D01*
X0140088Y0001804D01*
X0140207Y0001811D01*
X0140326Y0001822D01*
X0140445Y0001837D01*
X0140563Y0001856D01*
X0140680Y0001879D01*
X0140797Y0001906D01*
X0140913Y0001937D01*
X0141027Y0001971D01*
X0141141Y0002009D01*
X0141253Y0002051D01*
X0141364Y0002096D01*
X0141473Y0002146D01*
X0141580Y0002198D01*
X0141686Y0002254D01*
X0141789Y0002314D01*
X0141891Y0002377D01*
X0141991Y0002444D01*
X0142088Y0002513D01*
X0142183Y0002586D01*
X0142276Y0002662D01*
X0142366Y0002741D01*
X0142453Y0002822D01*
X0142538Y0002907D01*
X0142619Y0002994D01*
X0142698Y0003084D01*
X0142774Y0003177D01*
X0142847Y0003272D01*
X0142916Y0003369D01*
X0142983Y0003469D01*
X0143046Y0003571D01*
X0143106Y0003674D01*
X0143162Y0003780D01*
X0143214Y0003887D01*
X0143264Y0003996D01*
X0143309Y0004107D01*
X0143351Y0004219D01*
X0143389Y0004333D01*
X0143423Y0004447D01*
X0143454Y0004563D01*
X0143481Y0004680D01*
X0143504Y0004797D01*
X0143523Y0004915D01*
X0143538Y0005034D01*
X0143549Y0005153D01*
X0143556Y0005272D01*
X0143560Y0005392D01*
X0143559Y0005512D01*
X0143555Y0005631D01*
X0143546Y0005751D01*
X0143546Y0060869D01*
X0143555Y0060989D01*
X0143559Y0061108D01*
X0143560Y0061228D01*
X0143556Y0061348D01*
X0143549Y0061467D01*
X0143538Y0061586D01*
X0143523Y0061705D01*
X0143504Y0061823D01*
X0143481Y0061940D01*
X0143454Y0062057D01*
X0143423Y0062173D01*
X0143389Y0062287D01*
X0143351Y0062401D01*
X0143309Y0062513D01*
X0143264Y0062624D01*
X0143214Y0062733D01*
X0143162Y0062840D01*
X0143106Y0062946D01*
X0143046Y0063049D01*
X0142983Y0063151D01*
X0142916Y0063251D01*
X0142847Y0063348D01*
X0142774Y0063443D01*
X0142698Y0063536D01*
X0142619Y0063626D01*
X0142538Y0063713D01*
X0142453Y0063798D01*
X0142366Y0063879D01*
X0142276Y0063958D01*
X0142183Y0064034D01*
X0142088Y0064107D01*
X0141991Y0064176D01*
X0141891Y0064243D01*
X0141789Y0064306D01*
X0141686Y0064366D01*
X0141580Y0064422D01*
X0141473Y0064474D01*
X0141364Y0064524D01*
X0141253Y0064569D01*
X0141141Y0064611D01*
X0141027Y0064649D01*
X0140913Y0064683D01*
X0140797Y0064714D01*
X0140680Y0064741D01*
X0140563Y0064764D01*
X0140445Y0064783D01*
X0140326Y0064798D01*
X0140207Y0064809D01*
X0140088Y0064816D01*
X0139968Y0064820D01*
X0139848Y0064819D01*
X0139729Y0064815D01*
X0139609Y0064806D01*
X0005751Y0064806D01*
X0005631Y0064815D01*
X0005512Y0064819D01*
X0005392Y0064820D01*
X0005272Y0064816D01*
X0005153Y0064809D01*
X0005034Y0064798D01*
X0004915Y0064783D01*
X0004797Y0064764D01*
X0004680Y0064741D01*
X0004563Y0064714D01*
X0004447Y0064683D01*
X0004333Y0064649D01*
X0004219Y0064611D01*
X0004107Y0064569D01*
X0003996Y0064524D01*
X0003887Y0064474D01*
X0003780Y0064422D01*
X0003674Y0064366D01*
X0003571Y0064306D01*
X0003469Y0064243D01*
X0003369Y0064176D01*
X0003272Y0064107D01*
X0003177Y0064034D01*
X0003084Y0063958D01*
X0002994Y0063879D01*
X0002907Y0063798D01*
X0002822Y0063713D01*
X0002741Y0063626D01*
X0002662Y0063536D01*
X0002586Y0063443D01*
X0002513Y0063348D01*
X0002444Y0063251D01*
X0002377Y0063151D01*
X0002314Y0063049D01*
X0002254Y0062946D01*
X0002198Y0062840D01*
X0002146Y0062733D01*
X0002096Y0062624D01*
X0002051Y0062513D01*
X0002009Y0062401D01*
X0001971Y0062287D01*
X0001937Y0062173D01*
X0001906Y0062057D01*
X0001879Y0061940D01*
X0001856Y0061823D01*
X0001837Y0061705D01*
X0001822Y0061586D01*
X0001811Y0061467D01*
X0001804Y0061348D01*
X0001800Y0061228D01*
X0001801Y0061108D01*
X0001805Y0060989D01*
X0001814Y0060869D01*
X0001814Y0005751D01*
X0001805Y0005631D01*
X0001801Y0005512D01*
X0001800Y0005392D01*
X0001804Y0005272D01*
X0001811Y0005153D01*
X0001822Y0005034D01*
X0001837Y0004915D01*
X0001856Y0004797D01*
X0001879Y0004680D01*
X0001906Y0004563D01*
X0001937Y0004447D01*
X0001971Y0004333D01*
X0002009Y0004219D01*
X0002051Y0004107D01*
X0002096Y0003996D01*
X0002146Y0003887D01*
X0002198Y0003780D01*
X0002254Y0003674D01*
X0002314Y0003571D01*
X0002377Y0003469D01*
X0002444Y0003369D01*
X0002513Y0003272D01*
X0002586Y0003177D01*
X0002662Y0003084D01*
X0002741Y0002994D01*
X0002822Y0002907D01*
X0002907Y0002822D01*
X0002994Y0002741D01*
X0003084Y0002662D01*
X0003177Y0002586D01*
X0003272Y0002513D01*
X0003369Y0002444D01*
X0003469Y0002377D01*
X0003571Y0002314D01*
X0003674Y0002254D01*
X0003780Y0002198D01*
X0003887Y0002146D01*
X0003996Y0002096D01*
X0004107Y0002051D01*
X0004219Y0002009D01*
X0004333Y0001971D01*
X0004447Y0001937D01*
X0004563Y0001906D01*
X0004680Y0001879D01*
X0004797Y0001856D01*
X0004915Y0001837D01*
X0005034Y0001822D01*
X0005153Y0001811D01*
X0005272Y0001804D01*
X0005392Y0001800D01*
X0005512Y0001801D01*
X0005631Y0001805D01*
X0005751Y0001814D01*
D11*
X0035278Y0020318D03*
X0047089Y0020318D03*
X0066774Y0020318D03*
X0078585Y0020318D03*
X0098271Y0020318D03*
X0110082Y0020318D03*
X0110082Y0036066D03*
X0098271Y0036066D03*
X0078585Y0036066D03*
X0066774Y0036066D03*
X0047089Y0036066D03*
X0035278Y0036066D03*
X0035278Y0051814D03*
X0047089Y0051814D03*
X0066774Y0051814D03*
X0078585Y0051814D03*
X0098271Y0051814D03*
X0110082Y0051814D03*
D12*
X0135672Y0055987D03*
X0135672Y0045987D03*
X0135672Y0035987D03*
X0135672Y0025987D03*
X0135672Y0015987D03*
X0009688Y0015987D03*
X0009688Y0025987D03*
X0009688Y0035987D03*
X0009688Y0045987D03*
X0009688Y0055987D03*
D13*
X0013782Y0060082D01*
X0052995Y0060082D01*
X0086418Y0060082D01*
X0131578Y0060082D01*
X0135672Y0055987D01*
X0135672Y0015987D02*
X0127798Y0008113D01*
X0091184Y0008113D01*
X0059688Y0008113D01*
X0017562Y0008113D01*
X0009688Y0015987D01*
D14*
X0028585Y0017168D03*
X0031735Y0026617D03*
X0049058Y0028192D03*
X0070318Y0027404D03*
X0088428Y0028192D03*
X0088428Y0021499D03*
X0082916Y0014806D03*
X0088034Y0012444D03*
X0092365Y0009294D03*
X0115987Y0023861D03*
X0109294Y0028192D03*
X0114019Y0029373D03*
X0116774Y0040003D03*
X0117562Y0050633D03*
X0127404Y0050633D03*
X0092759Y0043546D03*
X0088822Y0046696D03*
X0090397Y0051420D03*
X0084885Y0056538D03*
X0073861Y0046696D03*
X0071105Y0042365D03*
X0054176Y0041578D03*
X0050633Y0045121D03*
X0054963Y0048664D03*
X0052995Y0056538D03*
X0038034Y0045515D03*
X0032522Y0045121D03*
X0028585Y0052208D03*
X0020711Y0052208D03*
X0015593Y0051026D03*
X0051420Y0014806D03*
X0056538Y0012444D03*
X0060869Y0009294D03*
D15*
X0059688Y0008113D01*
X0057940Y0009059D02*
X0059912Y0011031D01*
X0061532Y0011031D01*
X0063895Y0008669D01*
X0087371Y0008669D01*
X0087761Y0009059D01*
X0089436Y0009059D01*
X0091408Y0011031D01*
X0093029Y0011031D01*
X0093708Y0010351D01*
X0094997Y0009063D01*
X0121859Y0009063D01*
X0130421Y0017625D01*
X0130308Y0017275D01*
X0130172Y0016420D01*
X0130172Y0016187D01*
X0135472Y0016187D01*
X0135472Y0015787D01*
X0130172Y0015787D01*
X0130172Y0015554D01*
X0130308Y0014699D01*
X0130575Y0013876D01*
X0130968Y0013104D01*
X0131477Y0012404D01*
X0132089Y0011792D01*
X0132789Y0011283D01*
X0133561Y0010890D01*
X0134384Y0010622D01*
X0135239Y0010487D01*
X0135472Y0010487D01*
X0135472Y0015787D01*
X0135872Y0015787D01*
X0135872Y0010487D01*
X0136105Y0010487D01*
X0136960Y0010622D01*
X0137783Y0010890D01*
X0138555Y0011283D01*
X0139255Y0011792D01*
X0139867Y0012404D01*
X0140376Y0013104D01*
X0140769Y0013876D01*
X0141037Y0014699D01*
X0141172Y0015554D01*
X0141172Y0015787D01*
X0135872Y0015787D01*
X0135872Y0016187D01*
X0141172Y0016187D01*
X0141172Y0016420D01*
X0141037Y0017275D01*
X0140769Y0018098D01*
X0140376Y0018870D01*
X0139867Y0019570D01*
X0139255Y0020182D01*
X0138555Y0020691D01*
X0137783Y0021084D01*
X0137435Y0021197D01*
X0138561Y0021663D01*
X0139996Y0023098D01*
X0140772Y0024973D01*
X0140772Y0027002D01*
X0139996Y0028876D01*
X0138561Y0030311D01*
X0136928Y0030987D01*
X0138561Y0031663D01*
X0139996Y0033098D01*
X0140772Y0034973D01*
X0140772Y0037002D01*
X0139996Y0038876D01*
X0138561Y0040311D01*
X0136928Y0040987D01*
X0138561Y0041663D01*
X0139996Y0043098D01*
X0140772Y0044973D01*
X0140772Y0047002D01*
X0139996Y0048876D01*
X0138561Y0050311D01*
X0136928Y0050987D01*
X0138561Y0051663D01*
X0139996Y0053098D01*
X0140772Y0054973D01*
X0140772Y0057002D01*
X0139996Y0058876D01*
X0138561Y0060311D01*
X0136687Y0061087D01*
X0134658Y0061087D01*
X0134369Y0060967D01*
X0133050Y0062286D01*
X0132095Y0062682D01*
X0013265Y0062682D01*
X0012310Y0062286D01*
X0011578Y0061554D01*
X0010991Y0060967D01*
X0010702Y0061087D01*
X0008673Y0061087D01*
X0006799Y0060311D01*
X0005364Y0058876D01*
X0004588Y0057002D01*
X0004588Y0054973D01*
X0005364Y0053098D01*
X0006799Y0051663D01*
X0008432Y0050987D01*
X0006799Y0050311D01*
X0005364Y0048876D01*
X0004588Y0047002D01*
X0004588Y0044973D01*
X0005364Y0043098D01*
X0006799Y0041663D01*
X0008432Y0040987D01*
X0006799Y0040311D01*
X0005364Y0038876D01*
X0004588Y0037002D01*
X0004588Y0034973D01*
X0005364Y0033098D01*
X0006799Y0031663D01*
X0008432Y0030987D01*
X0006799Y0030311D01*
X0005364Y0028876D01*
X0004588Y0027002D01*
X0004588Y0024973D01*
X0005364Y0023098D01*
X0006799Y0021663D01*
X0007925Y0021197D01*
X0007577Y0021084D01*
X0006805Y0020691D01*
X0006105Y0020182D01*
X0005493Y0019570D01*
X0004984Y0018870D01*
X0004591Y0018098D01*
X0004323Y0017275D01*
X0004188Y0016420D01*
X0004188Y0016187D01*
X0009488Y0016187D01*
X0009488Y0015787D01*
X0009888Y0015787D01*
X0009888Y0010487D01*
X0010121Y0010487D01*
X0010976Y0010622D01*
X0011799Y0010890D01*
X0012570Y0011283D01*
X0013271Y0011792D01*
X0013883Y0012404D01*
X0014392Y0013104D01*
X0014720Y0013749D01*
X0018511Y0009958D01*
X0019800Y0008669D01*
X0055875Y0008669D01*
X0056265Y0009059D01*
X0057940Y0009059D01*
X0056154Y0008948D02*
X0063616Y0008948D01*
X0062017Y0010546D02*
X0059427Y0010546D01*
X0057326Y0013231D02*
X0056538Y0012444D01*
X0054963Y0010869D01*
X0020711Y0010869D01*
X0015987Y0015593D01*
X0015987Y0019688D01*
X0009688Y0025987D01*
X0005055Y0028130D02*
X0003614Y0028130D01*
X0003614Y0026531D02*
X0004588Y0026531D01*
X0004604Y0024933D02*
X0003614Y0024933D01*
X0003614Y0023334D02*
X0005266Y0023334D01*
X0006726Y0021736D02*
X0003614Y0021736D01*
X0003614Y0020137D02*
X0006060Y0020137D01*
X0004815Y0018539D02*
X0003614Y0018539D01*
X0003614Y0016940D02*
X0004270Y0016940D01*
X0004188Y0015787D02*
X0004188Y0015554D01*
X0004323Y0014699D01*
X0004591Y0013876D01*
X0004984Y0013104D01*
X0005493Y0012404D01*
X0006105Y0011792D01*
X0006805Y0011283D01*
X0007577Y0010890D01*
X0008400Y0010622D01*
X0009255Y0010487D01*
X0009488Y0010487D01*
X0009488Y0015787D01*
X0004188Y0015787D01*
X0004221Y0015342D02*
X0003614Y0015342D01*
X0003614Y0013743D02*
X0004658Y0013743D01*
X0003614Y0012145D02*
X0005752Y0012145D01*
X0003614Y0010546D02*
X0008880Y0010546D01*
X0009488Y0010546D02*
X0009888Y0010546D01*
X0010495Y0010546D02*
X0017923Y0010546D01*
X0019521Y0008948D02*
X0003614Y0008948D01*
X0003614Y0007349D02*
X0141746Y0007349D01*
X0141746Y0006406D02*
X0141688Y0006337D01*
X0141746Y0005672D01*
X0141746Y0005280D01*
X0141744Y0005195D01*
X0141473Y0004449D01*
X0140911Y0003887D01*
X0140165Y0003616D01*
X0140080Y0003614D01*
X0139688Y0003614D01*
X0139023Y0003672D01*
X0138954Y0003614D01*
X0006406Y0003614D01*
X0006337Y0003672D01*
X0005672Y0003614D01*
X0005280Y0003614D01*
X0005195Y0003616D01*
X0004449Y0003887D01*
X0003887Y0004449D01*
X0003616Y0005195D01*
X0003614Y0005280D01*
X0003614Y0005672D01*
X0003672Y0006337D01*
X0003614Y0006406D01*
X0003614Y0060214D01*
X0003672Y0060283D01*
X0003614Y0060947D01*
X0003614Y0061340D01*
X0003616Y0061425D01*
X0003887Y0062171D01*
X0004449Y0062733D01*
X0005195Y0063004D01*
X0005280Y0063006D01*
X0005672Y0063006D01*
X0006337Y0062948D01*
X0006406Y0063006D01*
X0138954Y0063006D01*
X0139023Y0062948D01*
X0139688Y0063006D01*
X0140080Y0063006D01*
X0140165Y0063004D01*
X0140911Y0062733D01*
X0141473Y0062171D01*
X0141744Y0061425D01*
X0141746Y0061340D01*
X0141746Y0060947D01*
X0141688Y0060283D01*
X0141746Y0060214D01*
X0141746Y0006406D01*
X0141739Y0005751D02*
X0003621Y0005751D01*
X0004184Y0004152D02*
X0141176Y0004152D01*
X0141746Y0008948D02*
X0087650Y0008948D01*
X0091184Y0008113D02*
X0092365Y0009294D01*
X0093513Y0010546D02*
X0090923Y0010546D01*
X0088822Y0013231D02*
X0088034Y0012444D01*
X0086459Y0010869D01*
X0064806Y0010869D01*
X0062444Y0013231D01*
X0057326Y0013231D01*
X0052995Y0016381D02*
X0051420Y0014806D01*
X0049845Y0013231D01*
X0023467Y0013231D01*
X0018743Y0017956D01*
X0018743Y0026932D01*
X0009688Y0035987D01*
X0004588Y0036123D02*
X0003614Y0036123D01*
X0003614Y0037721D02*
X0004886Y0037721D01*
X0005808Y0039320D02*
X0003614Y0039320D01*
X0003614Y0040918D02*
X0008266Y0040918D01*
X0005946Y0042517D02*
X0003614Y0042517D01*
X0003614Y0044115D02*
X0004943Y0044115D01*
X0004588Y0045714D02*
X0003614Y0045714D01*
X0003614Y0047312D02*
X0004717Y0047312D01*
X0005399Y0048911D02*
X0003614Y0048911D01*
X0003614Y0050509D02*
X0007278Y0050509D01*
X0006355Y0052108D02*
X0003614Y0052108D01*
X0003614Y0053706D02*
X0005112Y0053706D01*
X0004588Y0055305D02*
X0003614Y0055305D01*
X0003614Y0056903D02*
X0004588Y0056903D01*
X0005209Y0058502D02*
X0003614Y0058502D01*
X0003614Y0060100D02*
X0006589Y0060100D01*
X0003715Y0061699D02*
X0011723Y0061699D01*
X0019530Y0057326D02*
X0015593Y0053389D01*
X0015593Y0051026D01*
X0018264Y0048911D02*
X0030704Y0048911D01*
X0030754Y0048791D02*
X0031080Y0048465D01*
X0030803Y0048187D01*
X0017540Y0048187D01*
X0018978Y0049625D01*
X0018978Y0052428D01*
X0018361Y0053045D01*
X0020442Y0055126D01*
X0031043Y0055126D01*
X0030754Y0054837D01*
X0029941Y0052875D01*
X0029941Y0050752D01*
X0030754Y0048791D01*
X0030042Y0050509D02*
X0018978Y0050509D01*
X0018978Y0052108D02*
X0029941Y0052108D01*
X0028585Y0052208D02*
X0020711Y0052208D01*
X0019022Y0053706D02*
X0030286Y0053706D01*
X0033310Y0051814D02*
X0038034Y0047089D01*
X0038034Y0045515D01*
X0032522Y0045121D02*
X0031656Y0045987D01*
X0009688Y0045987D01*
X0021499Y0033310D02*
X0024255Y0036066D01*
X0035278Y0036066D01*
X0037641Y0030554D02*
X0041184Y0034097D01*
X0041184Y0041184D01*
X0045121Y0045121D01*
X0050633Y0045121D01*
X0054176Y0041578D02*
X0070318Y0041578D01*
X0071105Y0042365D01*
X0072680Y0038822D02*
X0075731Y0041873D01*
X0083999Y0041873D01*
X0088822Y0046696D01*
X0092759Y0043546D02*
X0093152Y0043940D01*
X0120711Y0043940D01*
X0127404Y0050633D01*
X0117562Y0050633D02*
X0113231Y0046302D01*
X0103782Y0046302D01*
X0098271Y0051814D01*
X0095121Y0057326D02*
X0090397Y0052601D01*
X0090397Y0051420D01*
X0084885Y0056538D02*
X0086418Y0058071D01*
X0086418Y0060082D01*
X0095121Y0057326D02*
X0104570Y0057326D01*
X0110082Y0051814D01*
X0115200Y0041578D02*
X0095908Y0041578D01*
X0092759Y0038428D01*
X0092759Y0032916D01*
X0098271Y0027404D01*
X0098271Y0020318D01*
X0094334Y0016381D02*
X0096696Y0014019D01*
X0120318Y0014019D01*
X0130160Y0023861D01*
X0130160Y0030475D01*
X0135672Y0035987D01*
X0140772Y0036123D02*
X0141746Y0036123D01*
X0141746Y0037721D02*
X0140474Y0037721D01*
X0139552Y0039320D02*
X0141746Y0039320D01*
X0141746Y0040918D02*
X0137094Y0040918D01*
X0139414Y0042517D02*
X0141746Y0042517D01*
X0141746Y0044115D02*
X0140417Y0044115D01*
X0140772Y0045714D02*
X0141746Y0045714D01*
X0141746Y0047312D02*
X0140643Y0047312D01*
X0139961Y0048911D02*
X0141746Y0048911D01*
X0141746Y0050509D02*
X0138082Y0050509D01*
X0139005Y0052108D02*
X0141746Y0052108D01*
X0141746Y0053706D02*
X0140248Y0053706D01*
X0140772Y0055305D02*
X0141746Y0055305D01*
X0141746Y0056903D02*
X0140772Y0056903D01*
X0140151Y0058502D02*
X0141746Y0058502D01*
X0141746Y0060100D02*
X0138771Y0060100D01*
X0141645Y0061699D02*
X0133637Y0061699D01*
X0115200Y0041578D02*
X0116774Y0040003D01*
X0110082Y0036066D02*
X0114019Y0032129D01*
X0114019Y0029373D01*
X0109294Y0028192D02*
X0106145Y0028192D01*
X0098271Y0036066D01*
X0091971Y0029767D02*
X0091971Y0025042D01*
X0088428Y0021499D01*
X0088428Y0028192D02*
X0080554Y0020318D01*
X0078585Y0020318D01*
X0074255Y0023861D02*
X0074255Y0029767D01*
X0072680Y0031341D01*
X0072680Y0038822D01*
X0078585Y0036066D02*
X0085672Y0036066D01*
X0091971Y0029767D01*
X0074255Y0023861D02*
X0070711Y0020318D01*
X0066774Y0020318D01*
X0062837Y0016381D02*
X0065987Y0013231D01*
X0081341Y0013231D01*
X0082916Y0014806D01*
X0084491Y0016381D01*
X0094334Y0016381D01*
X0093940Y0013231D02*
X0088822Y0013231D01*
X0093940Y0013231D02*
X0095908Y0011263D01*
X0120948Y0011263D01*
X0135672Y0025987D01*
X0140305Y0028130D02*
X0141746Y0028130D01*
X0141746Y0026531D02*
X0140772Y0026531D01*
X0140756Y0024933D02*
X0141746Y0024933D01*
X0141746Y0023334D02*
X0140094Y0023334D01*
X0138633Y0021736D02*
X0141746Y0021736D01*
X0141746Y0020137D02*
X0139300Y0020137D01*
X0140545Y0018539D02*
X0141746Y0018539D01*
X0141746Y0016940D02*
X0141090Y0016940D01*
X0141138Y0015342D02*
X0141746Y0015342D01*
X0141746Y0013743D02*
X0140702Y0013743D01*
X0141746Y0012145D02*
X0139608Y0012145D01*
X0141746Y0010546D02*
X0136479Y0010546D01*
X0135872Y0010546D02*
X0135472Y0010546D01*
X0134865Y0010546D02*
X0123343Y0010546D01*
X0124941Y0012145D02*
X0131736Y0012145D01*
X0130642Y0013743D02*
X0126540Y0013743D01*
X0128138Y0015342D02*
X0130206Y0015342D01*
X0130255Y0016940D02*
X0129737Y0016940D01*
X0135472Y0015342D02*
X0135872Y0015342D01*
X0135872Y0013743D02*
X0135472Y0013743D01*
X0135472Y0012145D02*
X0135872Y0012145D01*
X0115987Y0023861D02*
X0113625Y0023861D01*
X0110082Y0020318D01*
X0137749Y0031327D02*
X0141746Y0031327D01*
X0141746Y0029729D02*
X0139143Y0029729D01*
X0139823Y0032926D02*
X0141746Y0032926D01*
X0141746Y0034524D02*
X0140586Y0034524D01*
X0078585Y0051814D02*
X0073074Y0057326D01*
X0064412Y0057326D01*
X0055751Y0048664D01*
X0054963Y0048664D01*
X0047089Y0051814D02*
X0041578Y0057326D01*
X0019530Y0057326D01*
X0033310Y0051814D02*
X0035278Y0051814D01*
X0052995Y0056538D02*
X0052995Y0060082D01*
X0066774Y0051814D02*
X0068743Y0051814D01*
X0073861Y0046696D01*
X0066774Y0036066D02*
X0066774Y0030948D01*
X0070318Y0027404D01*
X0049058Y0028192D02*
X0047089Y0026223D01*
X0047089Y0020318D01*
X0052995Y0016381D02*
X0062837Y0016381D01*
X0047089Y0036066D02*
X0037641Y0026617D01*
X0031735Y0026617D01*
X0028585Y0030554D02*
X0026617Y0028585D01*
X0026617Y0024255D01*
X0030554Y0020318D01*
X0035278Y0020318D01*
X0028585Y0017168D02*
X0021499Y0024255D01*
X0021499Y0033310D01*
X0028585Y0030554D02*
X0037641Y0030554D01*
X0007611Y0031327D02*
X0003614Y0031327D01*
X0003614Y0029729D02*
X0006217Y0029729D01*
X0005537Y0032926D02*
X0003614Y0032926D01*
X0003614Y0034524D02*
X0004774Y0034524D01*
X0009488Y0015342D02*
X0009888Y0015342D01*
X0009888Y0013743D02*
X0009488Y0013743D01*
X0009488Y0012145D02*
X0009888Y0012145D01*
X0013624Y0012145D02*
X0016324Y0012145D01*
X0014726Y0013743D02*
X0014717Y0013743D01*
M02*
