G75*
%MOIN*%
%OFA0B0*%
%FSLAX25Y25*%
%IPPOS*%
%LPD*%
%AMOC8*
5,1,8,0,0,1.08239X$1,22.5*
%
%ADD10C,0.01000*%
%ADD11C,0.00500*%
%ADD12C,0.00400*%
%ADD13C,0.00800*%
D10*
X0095059Y0004657D02*
X0095726Y0003990D01*
X0095059Y0004657D02*
X0095059Y0007326D01*
X0094392Y0006659D02*
X0095726Y0006659D01*
X0098128Y0006659D02*
X0099463Y0006659D01*
X0100130Y0005992D01*
X0100130Y0003990D01*
X0098128Y0003990D01*
X0097461Y0004657D01*
X0098128Y0005325D01*
X0100130Y0005325D01*
X0102065Y0006659D02*
X0104067Y0006659D01*
X0104734Y0005992D01*
X0104734Y0004657D01*
X0104067Y0003990D01*
X0102065Y0003990D01*
X0102065Y0002656D02*
X0102065Y0006659D01*
X0106669Y0006659D02*
X0108671Y0006659D01*
X0109338Y0005992D01*
X0109338Y0004657D01*
X0108671Y0003990D01*
X0106669Y0003990D01*
X0106669Y0002656D02*
X0106669Y0006659D01*
X0111273Y0006659D02*
X0111273Y0004657D01*
X0111940Y0003990D01*
X0113942Y0003990D01*
X0113942Y0003323D02*
X0113275Y0002656D01*
X0112607Y0002656D01*
X0113942Y0003323D02*
X0113942Y0006659D01*
X0115877Y0006659D02*
X0117211Y0006659D01*
X0116544Y0007326D02*
X0116544Y0004657D01*
X0117211Y0003990D01*
X0118946Y0004657D02*
X0119613Y0005325D01*
X0121615Y0005325D01*
X0121615Y0005992D02*
X0121615Y0003990D01*
X0119613Y0003990D01*
X0118946Y0004657D01*
X0120948Y0006659D02*
X0121615Y0005992D01*
X0120948Y0006659D02*
X0119613Y0006659D01*
X0123550Y0006659D02*
X0125552Y0006659D01*
X0126219Y0005992D01*
X0126219Y0004657D01*
X0125552Y0003990D01*
X0123550Y0003990D01*
X0123550Y0002656D02*
X0123550Y0006659D01*
X0132758Y0006659D02*
X0134092Y0003990D01*
X0135427Y0006659D01*
X0137362Y0007326D02*
X0138029Y0007994D01*
X0139363Y0007994D01*
X0140031Y0007326D01*
X0140031Y0006659D01*
X0137362Y0003990D01*
X0140031Y0003990D01*
D11*
X0115876Y0012333D02*
X0115876Y0028081D01*
X0092254Y0028081D01*
X0092254Y0012333D01*
X0115876Y0012333D01*
X0084380Y0012333D02*
X0084380Y0028081D01*
X0060758Y0028081D01*
X0060758Y0012333D01*
X0084380Y0012333D01*
X0052884Y0012333D02*
X0052884Y0028081D01*
X0029262Y0028081D01*
X0029262Y0012333D01*
X0052884Y0012333D01*
X0052884Y0028081D02*
X0029262Y0028081D01*
X0029262Y0043829D01*
X0052884Y0043829D01*
X0052884Y0028081D01*
X0060758Y0028081D02*
X0084380Y0028081D01*
X0084380Y0043829D01*
X0060758Y0043829D01*
X0060758Y0028081D01*
X0092254Y0028081D02*
X0115876Y0028081D01*
X0115876Y0043829D01*
X0092254Y0043829D01*
X0092254Y0028081D01*
X0092254Y0043829D02*
X0115876Y0043829D01*
X0115876Y0059577D01*
X0092254Y0059577D01*
X0092254Y0043829D01*
X0084380Y0043829D02*
X0084380Y0059577D01*
X0060758Y0059577D01*
X0060758Y0043829D01*
X0084380Y0043829D01*
X0052884Y0043829D02*
X0052884Y0059577D01*
X0029262Y0059577D01*
X0029262Y0043829D01*
X0052884Y0043829D01*
D12*
X0042054Y0037731D02*
X0042054Y0036396D01*
X0040720Y0037731D01*
X0040386Y0037731D01*
X0040052Y0037397D01*
X0040052Y0036730D01*
X0040386Y0036396D01*
X0040386Y0035521D02*
X0040052Y0035187D01*
X0040052Y0034520D01*
X0040386Y0034186D01*
X0040720Y0034186D01*
X0041053Y0034520D01*
X0041053Y0035187D01*
X0041387Y0035521D01*
X0041720Y0035521D01*
X0042054Y0035187D01*
X0042054Y0034520D01*
X0041720Y0034186D01*
X0018398Y0036443D02*
X0018398Y0037777D01*
X0018064Y0038653D02*
X0018064Y0039320D01*
X0018064Y0038986D02*
X0016063Y0038986D01*
X0016063Y0038653D02*
X0016063Y0039320D01*
X0016063Y0040126D02*
X0018064Y0041460D01*
X0016063Y0041460D01*
X0016063Y0040126D02*
X0018064Y0040126D01*
X0018064Y0035567D02*
X0016730Y0035567D01*
X0016063Y0034900D01*
X0016730Y0034233D01*
X0018064Y0034233D01*
X0017063Y0034233D02*
X0017063Y0035567D01*
X0016063Y0033358D02*
X0016063Y0032023D01*
X0016063Y0032690D02*
X0018064Y0032690D01*
X0018064Y0031148D02*
X0016730Y0031148D01*
X0016063Y0030480D01*
X0016730Y0029813D01*
X0018064Y0029813D01*
X0017063Y0029813D02*
X0017063Y0031148D01*
X0016396Y0028938D02*
X0016063Y0028604D01*
X0016063Y0027603D01*
X0018064Y0027603D01*
X0018064Y0028604D01*
X0017731Y0028938D01*
X0016396Y0028938D01*
X0040052Y0021649D02*
X0040052Y0020982D01*
X0040386Y0020648D01*
X0040386Y0019773D02*
X0040052Y0019439D01*
X0040052Y0018772D01*
X0040386Y0018438D01*
X0040720Y0018438D01*
X0041053Y0018772D01*
X0041053Y0019439D01*
X0041387Y0019773D01*
X0041720Y0019773D01*
X0042054Y0019439D01*
X0042054Y0018772D01*
X0041720Y0018438D01*
X0041720Y0020648D02*
X0042054Y0020982D01*
X0042054Y0021649D01*
X0041720Y0021983D01*
X0041387Y0021983D01*
X0041053Y0021649D01*
X0041053Y0021315D01*
X0041053Y0021649D02*
X0040720Y0021983D01*
X0040386Y0021983D01*
X0040052Y0021649D01*
X0071548Y0021983D02*
X0071882Y0021315D01*
X0072549Y0020648D01*
X0072549Y0021649D01*
X0072883Y0021983D01*
X0073216Y0021983D01*
X0073550Y0021649D01*
X0073550Y0020982D01*
X0073216Y0020648D01*
X0072549Y0020648D01*
X0072883Y0019773D02*
X0073216Y0019773D01*
X0073550Y0019439D01*
X0073550Y0018772D01*
X0073216Y0018438D01*
X0072549Y0018772D02*
X0072549Y0019439D01*
X0072883Y0019773D01*
X0071882Y0019773D02*
X0071548Y0019439D01*
X0071548Y0018772D01*
X0071882Y0018438D01*
X0072216Y0018438D01*
X0072549Y0018772D01*
X0103044Y0018772D02*
X0103378Y0018438D01*
X0103712Y0018438D01*
X0104045Y0018772D01*
X0104045Y0019439D01*
X0104379Y0019773D01*
X0104712Y0019773D01*
X0105046Y0019439D01*
X0105046Y0018772D01*
X0104712Y0018438D01*
X0103044Y0018772D02*
X0103044Y0019439D01*
X0103378Y0019773D01*
X0103378Y0020648D02*
X0103712Y0020648D01*
X0104045Y0020982D01*
X0104045Y0021983D01*
X0103378Y0021983D02*
X0103044Y0021649D01*
X0103044Y0020982D01*
X0103378Y0020648D01*
X0104712Y0020648D02*
X0105046Y0020982D01*
X0105046Y0021649D01*
X0104712Y0021983D01*
X0103378Y0021983D01*
X0127466Y0026430D02*
X0127466Y0027431D01*
X0127799Y0027765D01*
X0129134Y0027765D01*
X0129467Y0027431D01*
X0129467Y0026430D01*
X0127466Y0026430D01*
X0128133Y0028640D02*
X0127466Y0029307D01*
X0128133Y0029975D01*
X0129467Y0029975D01*
X0128467Y0029975D02*
X0128467Y0028640D01*
X0128133Y0028640D02*
X0129467Y0028640D01*
X0127466Y0030850D02*
X0127466Y0032185D01*
X0127466Y0031517D02*
X0129467Y0031517D01*
X0129467Y0033060D02*
X0128133Y0033060D01*
X0127466Y0033727D01*
X0128133Y0034394D01*
X0129467Y0034394D01*
X0129801Y0035270D02*
X0129801Y0036604D01*
X0129134Y0037480D02*
X0129467Y0037813D01*
X0129467Y0038481D01*
X0129134Y0038814D01*
X0127799Y0038814D01*
X0127466Y0038481D01*
X0127466Y0037813D01*
X0127799Y0037480D01*
X0129134Y0037480D01*
X0129134Y0039690D02*
X0127466Y0039690D01*
X0129134Y0039690D02*
X0129467Y0040023D01*
X0129467Y0040690D01*
X0129134Y0041024D01*
X0127466Y0041024D01*
X0127466Y0041900D02*
X0127466Y0043234D01*
X0127466Y0042567D02*
X0129467Y0042567D01*
X0128467Y0034394D02*
X0128467Y0033060D01*
X0105046Y0034520D02*
X0104712Y0034186D01*
X0105046Y0034520D02*
X0105046Y0035187D01*
X0104712Y0035521D01*
X0104379Y0035521D01*
X0104045Y0035187D01*
X0104045Y0034520D01*
X0103712Y0034186D01*
X0103378Y0034186D01*
X0103044Y0034520D01*
X0103044Y0035187D01*
X0103378Y0035521D01*
X0103378Y0036396D02*
X0103044Y0036730D01*
X0103044Y0037397D01*
X0103378Y0037731D01*
X0103712Y0037731D01*
X0104045Y0037397D01*
X0104045Y0036730D01*
X0103712Y0036396D01*
X0103378Y0036396D01*
X0104045Y0036730D02*
X0104379Y0036396D01*
X0104712Y0036396D01*
X0105046Y0036730D01*
X0105046Y0037397D01*
X0104712Y0037731D01*
X0104379Y0037731D01*
X0104045Y0037397D01*
X0103712Y0049934D02*
X0104045Y0050268D01*
X0104045Y0050935D01*
X0104379Y0051269D01*
X0104712Y0051269D01*
X0105046Y0050935D01*
X0105046Y0050268D01*
X0104712Y0049934D01*
X0103712Y0049934D02*
X0103378Y0049934D01*
X0103044Y0050268D01*
X0103044Y0050935D01*
X0103378Y0051269D01*
X0103044Y0052144D02*
X0103044Y0053479D01*
X0103378Y0053479D01*
X0104712Y0052144D01*
X0105046Y0052144D01*
X0073550Y0053145D02*
X0071548Y0053145D01*
X0072549Y0052144D01*
X0072549Y0053479D01*
X0072883Y0051269D02*
X0073216Y0051269D01*
X0073550Y0050935D01*
X0073550Y0050268D01*
X0073216Y0049934D01*
X0072549Y0050268D02*
X0072549Y0050935D01*
X0072883Y0051269D01*
X0071882Y0051269D02*
X0071548Y0050935D01*
X0071548Y0050268D01*
X0071882Y0049934D01*
X0072216Y0049934D01*
X0072549Y0050268D01*
X0072549Y0037731D02*
X0073216Y0037731D01*
X0073550Y0037397D01*
X0073550Y0036730D01*
X0073216Y0036396D01*
X0072549Y0036396D02*
X0072216Y0037063D01*
X0072216Y0037397D01*
X0072549Y0037731D01*
X0071548Y0037731D02*
X0071548Y0036396D01*
X0072549Y0036396D01*
X0072883Y0035521D02*
X0072549Y0035187D01*
X0072549Y0034520D01*
X0072216Y0034186D01*
X0071882Y0034186D01*
X0071548Y0034520D01*
X0071548Y0035187D01*
X0071882Y0035521D01*
X0072883Y0035521D02*
X0073216Y0035521D01*
X0073550Y0035187D01*
X0073550Y0034520D01*
X0073216Y0034186D01*
X0042054Y0050268D02*
X0041720Y0049934D01*
X0042054Y0050268D02*
X0042054Y0050935D01*
X0041720Y0051269D01*
X0041387Y0051269D01*
X0041053Y0050935D01*
X0041053Y0050268D01*
X0040720Y0049934D01*
X0040386Y0049934D01*
X0040052Y0050268D01*
X0040052Y0050935D01*
X0040386Y0051269D01*
X0040720Y0052144D02*
X0040052Y0052811D01*
X0042054Y0052811D01*
X0042054Y0052144D02*
X0042054Y0053479D01*
D13*
X0004577Y0013376D02*
X0007077Y0010876D01*
X0012077Y0010876D01*
X0014577Y0013376D01*
X0014577Y0018376D01*
X0012077Y0020876D01*
X0014577Y0023376D01*
X0014577Y0028376D01*
X0012077Y0030876D01*
X0014577Y0033376D01*
X0014577Y0038376D01*
X0012077Y0040876D01*
X0014577Y0043376D01*
X0014577Y0048376D01*
X0012077Y0050876D01*
X0014577Y0053376D01*
X0014577Y0058376D01*
X0012077Y0060876D01*
X0007077Y0060876D01*
X0004577Y0058376D01*
X0004577Y0053376D01*
X0007077Y0050876D01*
X0004577Y0048376D01*
X0004577Y0043376D01*
X0007077Y0040876D01*
X0004577Y0038376D01*
X0004577Y0033376D01*
X0007077Y0030876D01*
X0004577Y0028376D01*
X0004577Y0023376D01*
X0007077Y0020876D01*
X0004577Y0018376D01*
X0004577Y0013376D01*
X0130561Y0013376D02*
X0133061Y0010876D01*
X0138061Y0010876D01*
X0140561Y0013376D01*
X0140561Y0018376D01*
X0138061Y0020876D01*
X0140561Y0023376D01*
X0140561Y0028376D01*
X0138061Y0030876D01*
X0140561Y0033376D01*
X0140561Y0038376D01*
X0138061Y0040876D01*
X0140561Y0043376D01*
X0140561Y0048376D01*
X0138061Y0050876D01*
X0140561Y0053376D01*
X0140561Y0058376D01*
X0138061Y0060876D01*
X0133061Y0060876D01*
X0130561Y0058376D01*
X0130561Y0053376D01*
X0133061Y0050876D01*
X0130561Y0048376D01*
X0130561Y0043376D01*
X0133061Y0040876D01*
X0130561Y0038376D01*
X0130561Y0033376D01*
X0133061Y0030876D01*
X0130561Y0028376D01*
X0130561Y0023376D01*
X0133061Y0020876D01*
X0130561Y0018376D01*
X0130561Y0013376D01*
M02*
