G75*
%MOIN*%
%OFA0B0*%
%FSLAX25Y25*%
%IPPOS*%
%LPD*%
%AMOC8*
5,1,8,0,0,1.08239X$1,22.5*
%
%ADD10C,0.04800*%
D10*
X0019634Y0006717D03*
X0029398Y0006717D03*
X0050146Y0006717D03*
X0059910Y0006717D03*
X0080658Y0006717D03*
X0090422Y0006717D03*
X0111170Y0006717D03*
X0120934Y0006717D03*
X0141682Y0006717D03*
X0151445Y0006717D03*
X0172193Y0006717D03*
X0181957Y0006717D03*
X0202705Y0006717D03*
X0212469Y0006717D03*
X0233217Y0006717D03*
X0242981Y0006717D03*
X0263729Y0006717D03*
X0273493Y0006717D03*
X0294241Y0006717D03*
X0304004Y0006717D03*
X0324752Y0006717D03*
X0334516Y0006717D03*
X0355264Y0006717D03*
X0365028Y0006717D03*
X0385776Y0006717D03*
X0395540Y0006717D03*
X0416288Y0006717D03*
X0426052Y0006717D03*
X0446800Y0006717D03*
X0456563Y0006717D03*
X0477312Y0006717D03*
X0487075Y0006717D03*
X0507823Y0006717D03*
X0517587Y0006717D03*
X0538335Y0006717D03*
X0548099Y0006717D03*
X0568847Y0006717D03*
X0578611Y0006717D03*
X0599359Y0006717D03*
X0609123Y0006717D03*
X0629871Y0006717D03*
X0639634Y0006717D03*
X0660382Y0006717D03*
X0670146Y0006717D03*
X0690894Y0006717D03*
X0700658Y0006717D03*
X0721406Y0006717D03*
X0731170Y0006717D03*
X0751918Y0006717D03*
X0761682Y0006717D03*
X0782430Y0006717D03*
X0792193Y0006717D03*
X0812941Y0006717D03*
X0822705Y0006717D03*
X0843453Y0006717D03*
X0853217Y0006717D03*
X0873965Y0006717D03*
X0883729Y0006717D03*
X0904477Y0006717D03*
X0914241Y0006717D03*
X0934989Y0006717D03*
X0944752Y0006717D03*
X0965501Y0006717D03*
X0975264Y0006717D03*
M02*
