G75*
%MOIN*%
%OFA0B0*%
%FSLAX25Y25*%
%IPPOS*%
%LPD*%
%AMOC8*
5,1,8,0,0,1.08239X$1,22.5*
%
%ADD10R,0.01784X0.02178*%
%ADD11R,0.03162X0.08674*%
%ADD12R,0.01902X0.02493*%
%ADD13R,0.04737X0.02375*%
%ADD14R,0.04737X0.02178*%
D10*
X0011130Y0027287D03*
X0013099Y0027287D03*
X0041642Y0027287D03*
X0043611Y0027287D03*
X0072154Y0027287D03*
X0074123Y0027287D03*
X0102666Y0027287D03*
X0104634Y0027287D03*
X0133178Y0027287D03*
X0135146Y0027287D03*
X0163689Y0027287D03*
X0165658Y0027287D03*
X0194201Y0027287D03*
X0196170Y0027287D03*
X0224713Y0027287D03*
X0226682Y0027287D03*
X0255225Y0027287D03*
X0257193Y0027287D03*
X0285737Y0027287D03*
X0287705Y0027287D03*
X0316249Y0027287D03*
X0318217Y0027287D03*
X0346760Y0027287D03*
X0348729Y0027287D03*
X0377272Y0027287D03*
X0379241Y0027287D03*
X0407784Y0027287D03*
X0409752Y0027287D03*
X0438296Y0027287D03*
X0440264Y0027287D03*
X0468808Y0027287D03*
X0470776Y0027287D03*
X0499319Y0027287D03*
X0501288Y0027287D03*
X0529831Y0027287D03*
X0531800Y0027287D03*
X0560343Y0027287D03*
X0562312Y0027287D03*
X0590855Y0027287D03*
X0592823Y0027287D03*
X0621367Y0027287D03*
X0623335Y0027287D03*
X0651878Y0027287D03*
X0653847Y0027287D03*
X0682390Y0027287D03*
X0684359Y0027287D03*
X0712902Y0027287D03*
X0714871Y0027287D03*
X0743414Y0027287D03*
X0745382Y0027287D03*
X0773926Y0027287D03*
X0775894Y0027287D03*
X0804438Y0027287D03*
X0806406Y0027287D03*
X0834949Y0027287D03*
X0836918Y0027287D03*
X0865461Y0027287D03*
X0867430Y0027287D03*
X0895973Y0027287D03*
X0897941Y0027287D03*
X0926485Y0027287D03*
X0928453Y0027287D03*
X0956997Y0027287D03*
X0958965Y0027287D03*
D11*
X0962390Y0026992D03*
X0967390Y0026992D03*
X0972390Y0026992D03*
X0977390Y0026992D03*
X0946878Y0026992D03*
X0941878Y0026992D03*
X0936878Y0026992D03*
X0931878Y0026992D03*
X0916367Y0026992D03*
X0911367Y0026992D03*
X0906367Y0026992D03*
X0901367Y0026992D03*
X0885855Y0026992D03*
X0880855Y0026992D03*
X0875855Y0026992D03*
X0870855Y0026992D03*
X0855343Y0026992D03*
X0850343Y0026992D03*
X0845343Y0026992D03*
X0840343Y0026992D03*
X0824831Y0026992D03*
X0819831Y0026992D03*
X0814831Y0026992D03*
X0809831Y0026992D03*
X0794319Y0026992D03*
X0789319Y0026992D03*
X0784319Y0026992D03*
X0779319Y0026992D03*
X0763808Y0026992D03*
X0758808Y0026992D03*
X0753808Y0026992D03*
X0748808Y0026992D03*
X0733296Y0026992D03*
X0728296Y0026992D03*
X0723296Y0026992D03*
X0718296Y0026992D03*
X0702784Y0026992D03*
X0697784Y0026992D03*
X0692784Y0026992D03*
X0687784Y0026992D03*
X0672272Y0026992D03*
X0667272Y0026992D03*
X0662272Y0026992D03*
X0657272Y0026992D03*
X0641760Y0026992D03*
X0636760Y0026992D03*
X0631760Y0026992D03*
X0626760Y0026992D03*
X0611249Y0026992D03*
X0606249Y0026992D03*
X0601249Y0026992D03*
X0596249Y0026992D03*
X0580737Y0026992D03*
X0575737Y0026992D03*
X0570737Y0026992D03*
X0565737Y0026992D03*
X0550225Y0026992D03*
X0545225Y0026992D03*
X0540225Y0026992D03*
X0535225Y0026992D03*
X0519713Y0026992D03*
X0514713Y0026992D03*
X0509713Y0026992D03*
X0504713Y0026992D03*
X0489201Y0026992D03*
X0484201Y0026992D03*
X0479201Y0026992D03*
X0474201Y0026992D03*
X0458689Y0026992D03*
X0453689Y0026992D03*
X0448689Y0026992D03*
X0443689Y0026992D03*
X0428178Y0026992D03*
X0423178Y0026992D03*
X0418178Y0026992D03*
X0413178Y0026992D03*
X0397666Y0026992D03*
X0392666Y0026992D03*
X0387666Y0026992D03*
X0382666Y0026992D03*
X0367154Y0026992D03*
X0362154Y0026992D03*
X0357154Y0026992D03*
X0352154Y0026992D03*
X0336642Y0026992D03*
X0331642Y0026992D03*
X0326642Y0026992D03*
X0321642Y0026992D03*
X0306130Y0026992D03*
X0301130Y0026992D03*
X0296130Y0026992D03*
X0291130Y0026992D03*
X0275619Y0026992D03*
X0270619Y0026992D03*
X0265619Y0026992D03*
X0260619Y0026992D03*
X0245107Y0026992D03*
X0240107Y0026992D03*
X0235107Y0026992D03*
X0230107Y0026992D03*
X0214595Y0026992D03*
X0209595Y0026992D03*
X0204595Y0026992D03*
X0199595Y0026992D03*
X0184083Y0026992D03*
X0179083Y0026992D03*
X0174083Y0026992D03*
X0169083Y0026992D03*
X0153571Y0026992D03*
X0148571Y0026992D03*
X0143571Y0026992D03*
X0138571Y0026992D03*
X0123060Y0026992D03*
X0118060Y0026992D03*
X0113060Y0026992D03*
X0108060Y0026992D03*
X0092548Y0026992D03*
X0087548Y0026992D03*
X0082548Y0026992D03*
X0077548Y0026992D03*
X0062036Y0026992D03*
X0057036Y0026992D03*
X0052036Y0026992D03*
X0047036Y0026992D03*
X0031524Y0026992D03*
X0026524Y0026992D03*
X0021524Y0026992D03*
X0016524Y0026992D03*
X0016524Y0006520D03*
X0021524Y0006520D03*
X0026524Y0006520D03*
X0031524Y0006520D03*
X0047036Y0006520D03*
X0052036Y0006520D03*
X0057036Y0006520D03*
X0062036Y0006520D03*
X0077548Y0006520D03*
X0082548Y0006520D03*
X0087548Y0006520D03*
X0092548Y0006520D03*
X0108060Y0006520D03*
X0113060Y0006520D03*
X0118060Y0006520D03*
X0123060Y0006520D03*
X0138571Y0006520D03*
X0143571Y0006520D03*
X0148571Y0006520D03*
X0153571Y0006520D03*
X0169083Y0006520D03*
X0174083Y0006520D03*
X0179083Y0006520D03*
X0184083Y0006520D03*
X0199595Y0006520D03*
X0204595Y0006520D03*
X0209595Y0006520D03*
X0214595Y0006520D03*
X0230107Y0006520D03*
X0235107Y0006520D03*
X0240107Y0006520D03*
X0245107Y0006520D03*
X0260619Y0006520D03*
X0265619Y0006520D03*
X0270619Y0006520D03*
X0275619Y0006520D03*
X0291130Y0006520D03*
X0296130Y0006520D03*
X0301130Y0006520D03*
X0306130Y0006520D03*
X0321642Y0006520D03*
X0326642Y0006520D03*
X0331642Y0006520D03*
X0336642Y0006520D03*
X0352154Y0006520D03*
X0357154Y0006520D03*
X0362154Y0006520D03*
X0367154Y0006520D03*
X0382666Y0006520D03*
X0387666Y0006520D03*
X0392666Y0006520D03*
X0397666Y0006520D03*
X0413178Y0006520D03*
X0418178Y0006520D03*
X0423178Y0006520D03*
X0428178Y0006520D03*
X0443689Y0006520D03*
X0448689Y0006520D03*
X0453689Y0006520D03*
X0458689Y0006520D03*
X0474201Y0006520D03*
X0479201Y0006520D03*
X0484201Y0006520D03*
X0489201Y0006520D03*
X0504713Y0006520D03*
X0509713Y0006520D03*
X0514713Y0006520D03*
X0519713Y0006520D03*
X0535225Y0006520D03*
X0540225Y0006520D03*
X0545225Y0006520D03*
X0550225Y0006520D03*
X0565737Y0006520D03*
X0570737Y0006520D03*
X0575737Y0006520D03*
X0580737Y0006520D03*
X0596249Y0006520D03*
X0601249Y0006520D03*
X0606249Y0006520D03*
X0611249Y0006520D03*
X0626760Y0006520D03*
X0631760Y0006520D03*
X0636760Y0006520D03*
X0641760Y0006520D03*
X0657272Y0006520D03*
X0662272Y0006520D03*
X0667272Y0006520D03*
X0672272Y0006520D03*
X0687784Y0006520D03*
X0692784Y0006520D03*
X0697784Y0006520D03*
X0702784Y0006520D03*
X0718296Y0006520D03*
X0723296Y0006520D03*
X0728296Y0006520D03*
X0733296Y0006520D03*
X0748808Y0006520D03*
X0753808Y0006520D03*
X0758808Y0006520D03*
X0763808Y0006520D03*
X0779319Y0006520D03*
X0784319Y0006520D03*
X0789319Y0006520D03*
X0794319Y0006520D03*
X0809831Y0006520D03*
X0814831Y0006520D03*
X0819831Y0006520D03*
X0824831Y0006520D03*
X0840343Y0006520D03*
X0845343Y0006520D03*
X0850343Y0006520D03*
X0855343Y0006520D03*
X0870855Y0006520D03*
X0875855Y0006520D03*
X0880855Y0006520D03*
X0885855Y0006520D03*
X0901367Y0006520D03*
X0906367Y0006520D03*
X0911367Y0006520D03*
X0916367Y0006520D03*
X0931878Y0006520D03*
X0936878Y0006520D03*
X0941878Y0006520D03*
X0946878Y0006520D03*
X0962390Y0006520D03*
X0967390Y0006520D03*
X0972390Y0006520D03*
X0977390Y0006520D03*
D12*
X0035323Y0005437D03*
X0037331Y0005437D03*
X0065835Y0005437D03*
X0067843Y0005437D03*
X0096347Y0005437D03*
X0098355Y0005437D03*
X0126859Y0005437D03*
X0128867Y0005437D03*
X0157371Y0005437D03*
X0159378Y0005437D03*
X0187882Y0005437D03*
X0189890Y0005437D03*
X0218394Y0005437D03*
X0220402Y0005437D03*
X0248906Y0005437D03*
X0250914Y0005437D03*
X0279418Y0005437D03*
X0281426Y0005437D03*
X0309930Y0005437D03*
X0311938Y0005437D03*
X0340441Y0005437D03*
X0342449Y0005437D03*
X0370953Y0005437D03*
X0372961Y0005437D03*
X0401465Y0005437D03*
X0403473Y0005437D03*
X0431977Y0005437D03*
X0433985Y0005437D03*
X0462489Y0005437D03*
X0464497Y0005437D03*
X0493001Y0005437D03*
X0495008Y0005437D03*
X0523512Y0005437D03*
X0525520Y0005437D03*
X0554024Y0005437D03*
X0556032Y0005437D03*
X0584536Y0005437D03*
X0586544Y0005437D03*
X0615048Y0005437D03*
X0617056Y0005437D03*
X0645560Y0005437D03*
X0647567Y0005437D03*
X0676071Y0005437D03*
X0678079Y0005437D03*
X0706583Y0005437D03*
X0708591Y0005437D03*
X0737095Y0005437D03*
X0739103Y0005437D03*
X0767607Y0005437D03*
X0769615Y0005437D03*
X0798119Y0005437D03*
X0800126Y0005437D03*
X0828630Y0005437D03*
X0830638Y0005437D03*
X0859142Y0005437D03*
X0861150Y0005437D03*
X0889654Y0005437D03*
X0891662Y0005437D03*
X0920166Y0005437D03*
X0922174Y0005437D03*
X0950678Y0005437D03*
X0952686Y0005437D03*
X0981189Y0005437D03*
X0983197Y0005437D03*
X0983689Y0028075D03*
X0981682Y0028075D03*
X0953178Y0028075D03*
X0951170Y0028075D03*
X0922666Y0028075D03*
X0920658Y0028075D03*
X0892154Y0028075D03*
X0890146Y0028075D03*
X0861642Y0028075D03*
X0859634Y0028075D03*
X0831130Y0028075D03*
X0829123Y0028075D03*
X0800619Y0028075D03*
X0798611Y0028075D03*
X0770107Y0028075D03*
X0768099Y0028075D03*
X0739595Y0028075D03*
X0737587Y0028075D03*
X0709083Y0028075D03*
X0707075Y0028075D03*
X0678571Y0028075D03*
X0676563Y0028075D03*
X0648060Y0028075D03*
X0646052Y0028075D03*
X0617548Y0028075D03*
X0615540Y0028075D03*
X0587036Y0028075D03*
X0585028Y0028075D03*
X0556524Y0028075D03*
X0554516Y0028075D03*
X0526012Y0028075D03*
X0524004Y0028075D03*
X0495501Y0028075D03*
X0493493Y0028075D03*
X0464989Y0028075D03*
X0462981Y0028075D03*
X0434477Y0028075D03*
X0432469Y0028075D03*
X0403965Y0028075D03*
X0401957Y0028075D03*
X0373453Y0028075D03*
X0371445Y0028075D03*
X0342941Y0028075D03*
X0340934Y0028075D03*
X0312430Y0028075D03*
X0310422Y0028075D03*
X0281918Y0028075D03*
X0279910Y0028075D03*
X0251406Y0028075D03*
X0249398Y0028075D03*
X0220894Y0028075D03*
X0218886Y0028075D03*
X0190382Y0028075D03*
X0188375Y0028075D03*
X0159871Y0028075D03*
X0157863Y0028075D03*
X0129359Y0028075D03*
X0127351Y0028075D03*
X0098847Y0028075D03*
X0096839Y0028075D03*
X0068335Y0028075D03*
X0066327Y0028075D03*
X0037823Y0028075D03*
X0035815Y0028075D03*
X0041623Y0030142D03*
X0043630Y0030142D03*
X0072134Y0030142D03*
X0074142Y0030142D03*
X0102646Y0030142D03*
X0104654Y0030142D03*
X0133158Y0030142D03*
X0135166Y0030142D03*
X0163670Y0030142D03*
X0165678Y0030142D03*
X0194182Y0030142D03*
X0196189Y0030142D03*
X0224693Y0030142D03*
X0226701Y0030142D03*
X0255205Y0030142D03*
X0257213Y0030142D03*
X0285717Y0030142D03*
X0287725Y0030142D03*
X0316229Y0030142D03*
X0318237Y0030142D03*
X0346741Y0030142D03*
X0348749Y0030142D03*
X0377252Y0030142D03*
X0379260Y0030142D03*
X0407764Y0030142D03*
X0409772Y0030142D03*
X0438276Y0030142D03*
X0440284Y0030142D03*
X0468788Y0030142D03*
X0470796Y0030142D03*
X0499300Y0030142D03*
X0501308Y0030142D03*
X0529812Y0030142D03*
X0531819Y0030142D03*
X0560323Y0030142D03*
X0562331Y0030142D03*
X0590835Y0030142D03*
X0592843Y0030142D03*
X0621347Y0030142D03*
X0623355Y0030142D03*
X0651859Y0030142D03*
X0653867Y0030142D03*
X0682371Y0030142D03*
X0684378Y0030142D03*
X0712882Y0030142D03*
X0714890Y0030142D03*
X0743394Y0030142D03*
X0745402Y0030142D03*
X0773906Y0030142D03*
X0775914Y0030142D03*
X0804418Y0030142D03*
X0806426Y0030142D03*
X0834930Y0030142D03*
X0836938Y0030142D03*
X0865441Y0030142D03*
X0867449Y0030142D03*
X0895953Y0030142D03*
X0897961Y0030142D03*
X0926465Y0030142D03*
X0928473Y0030142D03*
X0956977Y0030142D03*
X0958985Y0030142D03*
X0013119Y0030142D03*
X0011111Y0030142D03*
D13*
X0011229Y0011047D03*
X0037804Y0011047D03*
X0041741Y0011047D03*
X0068315Y0011047D03*
X0072252Y0011047D03*
X0098827Y0011047D03*
X0102764Y0011047D03*
X0129339Y0011047D03*
X0133276Y0011047D03*
X0159851Y0011047D03*
X0163788Y0011047D03*
X0190363Y0011047D03*
X0194300Y0011047D03*
X0220875Y0011047D03*
X0224812Y0011047D03*
X0251386Y0011047D03*
X0255323Y0011047D03*
X0281898Y0011047D03*
X0285835Y0011047D03*
X0312410Y0011047D03*
X0316347Y0011047D03*
X0342922Y0011047D03*
X0346859Y0011047D03*
X0373434Y0011047D03*
X0377371Y0011047D03*
X0403945Y0011047D03*
X0407882Y0011047D03*
X0434457Y0011047D03*
X0438394Y0011047D03*
X0464969Y0011047D03*
X0468906Y0011047D03*
X0495481Y0011047D03*
X0499418Y0011047D03*
X0525993Y0011047D03*
X0529930Y0011047D03*
X0556504Y0011047D03*
X0560441Y0011047D03*
X0587016Y0011047D03*
X0590953Y0011047D03*
X0617528Y0011047D03*
X0621465Y0011047D03*
X0648040Y0011047D03*
X0651977Y0011047D03*
X0678552Y0011047D03*
X0682489Y0011047D03*
X0709063Y0011047D03*
X0713001Y0011047D03*
X0739575Y0011047D03*
X0743512Y0011047D03*
X0770087Y0011047D03*
X0774024Y0011047D03*
X0800599Y0011047D03*
X0804536Y0011047D03*
X0831111Y0011047D03*
X0835048Y0011047D03*
X0861623Y0011047D03*
X0865560Y0011047D03*
X0892134Y0011047D03*
X0896071Y0011047D03*
X0922646Y0011047D03*
X0926583Y0011047D03*
X0953158Y0011047D03*
X0957095Y0011047D03*
X0983670Y0011047D03*
D14*
X0983670Y0014591D03*
X0957095Y0014591D03*
X0953158Y0014591D03*
X0926583Y0014591D03*
X0922646Y0014591D03*
X0896071Y0014591D03*
X0892134Y0014591D03*
X0865560Y0014591D03*
X0861623Y0014591D03*
X0835048Y0014591D03*
X0831111Y0014591D03*
X0804536Y0014591D03*
X0800599Y0014591D03*
X0774024Y0014591D03*
X0770087Y0014591D03*
X0743512Y0014591D03*
X0739575Y0014591D03*
X0713001Y0014591D03*
X0709063Y0014591D03*
X0682489Y0014591D03*
X0678552Y0014591D03*
X0651977Y0014591D03*
X0648040Y0014591D03*
X0621465Y0014591D03*
X0617528Y0014591D03*
X0590953Y0014591D03*
X0587016Y0014591D03*
X0560441Y0014591D03*
X0556504Y0014591D03*
X0529930Y0014591D03*
X0525993Y0014591D03*
X0499418Y0014591D03*
X0495481Y0014591D03*
X0468906Y0014591D03*
X0464969Y0014591D03*
X0438394Y0014591D03*
X0434457Y0014591D03*
X0407882Y0014591D03*
X0403945Y0014591D03*
X0377371Y0014591D03*
X0373434Y0014591D03*
X0346859Y0014591D03*
X0342922Y0014591D03*
X0316347Y0014591D03*
X0312410Y0014591D03*
X0285835Y0014591D03*
X0281898Y0014591D03*
X0255323Y0014591D03*
X0251386Y0014591D03*
X0224812Y0014591D03*
X0220875Y0014591D03*
X0194300Y0014591D03*
X0190363Y0014591D03*
X0163788Y0014591D03*
X0159851Y0014591D03*
X0133276Y0014591D03*
X0129339Y0014591D03*
X0102764Y0014591D03*
X0098827Y0014591D03*
X0072252Y0014591D03*
X0068315Y0014591D03*
X0041741Y0014591D03*
X0037804Y0014591D03*
X0011229Y0014591D03*
X0011229Y0018134D03*
X0037804Y0018134D03*
X0041741Y0018134D03*
X0068315Y0018134D03*
X0072252Y0018134D03*
X0098827Y0018134D03*
X0102764Y0018134D03*
X0129339Y0018134D03*
X0133276Y0018134D03*
X0159851Y0018134D03*
X0163788Y0018134D03*
X0190363Y0018134D03*
X0194300Y0018134D03*
X0220875Y0018134D03*
X0224812Y0018134D03*
X0251386Y0018134D03*
X0255323Y0018134D03*
X0281898Y0018134D03*
X0285835Y0018134D03*
X0312410Y0018134D03*
X0316347Y0018134D03*
X0342922Y0018134D03*
X0346859Y0018134D03*
X0373434Y0018134D03*
X0377371Y0018134D03*
X0403945Y0018134D03*
X0407882Y0018134D03*
X0434457Y0018134D03*
X0438394Y0018134D03*
X0464969Y0018134D03*
X0468906Y0018134D03*
X0495481Y0018134D03*
X0499418Y0018134D03*
X0525993Y0018134D03*
X0529930Y0018134D03*
X0556504Y0018134D03*
X0560441Y0018134D03*
X0587016Y0018134D03*
X0590953Y0018134D03*
X0617528Y0018134D03*
X0621465Y0018134D03*
X0648040Y0018134D03*
X0651977Y0018134D03*
X0678552Y0018134D03*
X0682489Y0018134D03*
X0709063Y0018134D03*
X0713001Y0018134D03*
X0739575Y0018134D03*
X0743512Y0018134D03*
X0770087Y0018134D03*
X0774024Y0018134D03*
X0800599Y0018134D03*
X0804536Y0018134D03*
X0831111Y0018134D03*
X0835048Y0018134D03*
X0861623Y0018134D03*
X0865560Y0018134D03*
X0892134Y0018134D03*
X0896071Y0018134D03*
X0922646Y0018134D03*
X0926583Y0018134D03*
X0953158Y0018134D03*
X0957095Y0018134D03*
X0983670Y0018134D03*
X0983670Y0021677D03*
X0957095Y0021677D03*
X0953158Y0021677D03*
X0926583Y0021677D03*
X0922646Y0021677D03*
X0896071Y0021677D03*
X0892134Y0021677D03*
X0865560Y0021677D03*
X0861623Y0021677D03*
X0835048Y0021677D03*
X0831111Y0021677D03*
X0804536Y0021677D03*
X0800599Y0021677D03*
X0774024Y0021677D03*
X0770087Y0021677D03*
X0743512Y0021677D03*
X0739575Y0021677D03*
X0713001Y0021677D03*
X0709063Y0021677D03*
X0682489Y0021677D03*
X0678552Y0021677D03*
X0651977Y0021677D03*
X0648040Y0021677D03*
X0621465Y0021677D03*
X0617528Y0021677D03*
X0590953Y0021677D03*
X0587016Y0021677D03*
X0560441Y0021677D03*
X0556504Y0021677D03*
X0529930Y0021677D03*
X0525993Y0021677D03*
X0499418Y0021677D03*
X0495481Y0021677D03*
X0468906Y0021677D03*
X0464969Y0021677D03*
X0438394Y0021677D03*
X0434457Y0021677D03*
X0407882Y0021677D03*
X0403945Y0021677D03*
X0377371Y0021677D03*
X0373434Y0021677D03*
X0346859Y0021677D03*
X0342922Y0021677D03*
X0316347Y0021677D03*
X0312410Y0021677D03*
X0285835Y0021677D03*
X0281898Y0021677D03*
X0255323Y0021677D03*
X0251386Y0021677D03*
X0224812Y0021677D03*
X0220875Y0021677D03*
X0194300Y0021677D03*
X0190363Y0021677D03*
X0163788Y0021677D03*
X0159851Y0021677D03*
X0133276Y0021677D03*
X0129339Y0021677D03*
X0102764Y0021677D03*
X0098827Y0021677D03*
X0072252Y0021677D03*
X0068315Y0021677D03*
X0041741Y0021677D03*
X0037804Y0021677D03*
X0011229Y0021677D03*
M02*
