G75*
%MOIN*%
%OFA0B0*%
%FSLAX25Y25*%
%IPPOS*%
%LPD*%
%AMOC8*
5,1,8,0,0,1.08239X$1,22.5*
%
%ADD10C,0.01000*%
%ADD11C,0.00200*%
%ADD12R,0.01181X0.01181*%
D10*
X0039772Y0001500D02*
X0039772Y0032012D01*
X0070284Y0032012D02*
X0070284Y0001500D01*
X0100796Y0001500D02*
X0100796Y0032012D01*
X0131308Y0032012D02*
X0131308Y0001500D01*
X0161819Y0001500D02*
X0161819Y0032012D01*
X0192331Y0032012D02*
X0192331Y0001500D01*
X0222843Y0001500D02*
X0222843Y0032012D01*
X0253355Y0032012D02*
X0253355Y0001500D01*
X0283867Y0001500D02*
X0283867Y0032012D01*
X0314378Y0032012D02*
X0314378Y0001500D01*
X0344890Y0001500D02*
X0344890Y0032012D01*
X0375402Y0032012D02*
X0375402Y0001500D01*
X0405914Y0001500D02*
X0405914Y0032012D01*
X0436426Y0032012D02*
X0436426Y0001500D01*
X0466938Y0001500D02*
X0466938Y0032012D01*
X0497449Y0032012D02*
X0497449Y0001500D01*
X0527961Y0001500D02*
X0527961Y0032012D01*
X0558473Y0032012D02*
X0558473Y0001500D01*
X0588985Y0001500D02*
X0588985Y0032012D01*
X0619497Y0032012D02*
X0619497Y0001500D01*
X0650008Y0001500D02*
X0650008Y0032012D01*
X0680520Y0032012D02*
X0680520Y0001500D01*
X0711032Y0001500D02*
X0711032Y0032012D01*
X0741544Y0032012D02*
X0741544Y0001500D01*
X0772056Y0001500D02*
X0772056Y0032012D01*
X0802567Y0032012D02*
X0802567Y0001500D01*
X0833079Y0001500D02*
X0833079Y0032012D01*
X0863591Y0032012D02*
X0863591Y0001500D01*
X0894103Y0001500D02*
X0894103Y0032012D01*
X0924615Y0032012D02*
X0924615Y0001500D01*
X0955126Y0001500D02*
X0955126Y0032012D01*
X0985638Y0032012D02*
X0985638Y0001500D01*
D11*
X0983568Y0003185D02*
X0983401Y0003018D01*
X0983068Y0003018D01*
X0982901Y0003185D01*
X0982901Y0003519D02*
X0983235Y0003685D01*
X0983401Y0003685D01*
X0983568Y0003519D01*
X0983568Y0003185D01*
X0982901Y0003519D02*
X0982901Y0004019D01*
X0983568Y0004019D01*
X0982463Y0003852D02*
X0982297Y0004019D01*
X0981963Y0004019D01*
X0981796Y0003852D01*
X0981796Y0003685D01*
X0981963Y0003519D01*
X0982463Y0003519D01*
X0982463Y0003852D02*
X0982463Y0003185D01*
X0982297Y0003018D01*
X0981963Y0003018D01*
X0981796Y0003185D01*
X0981358Y0003018D02*
X0981025Y0003352D01*
X0981192Y0003352D02*
X0980691Y0003352D01*
X0980691Y0003018D02*
X0980691Y0004019D01*
X0981192Y0004019D01*
X0981358Y0003852D01*
X0981358Y0003519D01*
X0981192Y0003352D01*
X0953056Y0003685D02*
X0952389Y0003018D01*
X0953056Y0003018D01*
X0951952Y0003185D02*
X0951952Y0003852D01*
X0951785Y0004019D01*
X0951451Y0004019D01*
X0951284Y0003852D01*
X0951284Y0003685D01*
X0951451Y0003519D01*
X0951952Y0003519D01*
X0951952Y0003185D02*
X0951785Y0003018D01*
X0951451Y0003018D01*
X0951284Y0003185D01*
X0950847Y0003018D02*
X0950513Y0003352D01*
X0950680Y0003352D02*
X0950179Y0003352D01*
X0950179Y0003018D02*
X0950179Y0004019D01*
X0950680Y0004019D01*
X0950847Y0003852D01*
X0950847Y0003519D01*
X0950680Y0003352D01*
X0952389Y0003852D02*
X0952556Y0004019D01*
X0952890Y0004019D01*
X0953056Y0003852D01*
X0953056Y0003685D01*
X0922545Y0003519D02*
X0922044Y0003519D01*
X0921877Y0003685D01*
X0921877Y0003852D01*
X0922044Y0004019D01*
X0922378Y0004019D01*
X0922545Y0003852D01*
X0922545Y0003185D01*
X0922378Y0003018D01*
X0922044Y0003018D01*
X0921877Y0003185D01*
X0921440Y0003185D02*
X0921273Y0003018D01*
X0920939Y0003018D01*
X0920773Y0003185D01*
X0920773Y0003352D01*
X0920939Y0003519D01*
X0921273Y0003519D01*
X0921440Y0003352D01*
X0921440Y0003185D01*
X0921273Y0003519D02*
X0921440Y0003685D01*
X0921440Y0003852D01*
X0921273Y0004019D01*
X0920939Y0004019D01*
X0920773Y0003852D01*
X0920773Y0003685D01*
X0920939Y0003519D01*
X0920335Y0003519D02*
X0920168Y0003352D01*
X0919668Y0003352D01*
X0920001Y0003352D02*
X0920335Y0003018D01*
X0920335Y0003519D02*
X0920335Y0003852D01*
X0920168Y0004019D01*
X0919668Y0004019D01*
X0919668Y0003018D01*
X0892033Y0003185D02*
X0892033Y0003352D01*
X0891866Y0003519D01*
X0891366Y0003519D01*
X0891366Y0003185D01*
X0891532Y0003018D01*
X0891866Y0003018D01*
X0892033Y0003185D01*
X0891699Y0003852D02*
X0891366Y0003519D01*
X0890928Y0003685D02*
X0890761Y0003519D01*
X0890427Y0003519D01*
X0890261Y0003685D01*
X0890261Y0003852D01*
X0890427Y0004019D01*
X0890761Y0004019D01*
X0890928Y0003852D01*
X0890928Y0003685D01*
X0890761Y0003519D02*
X0890928Y0003352D01*
X0890928Y0003185D01*
X0890761Y0003018D01*
X0890427Y0003018D01*
X0890261Y0003185D01*
X0890261Y0003352D01*
X0890427Y0003519D01*
X0889823Y0003519D02*
X0889656Y0003352D01*
X0889156Y0003352D01*
X0889489Y0003352D02*
X0889823Y0003018D01*
X0889823Y0003519D02*
X0889823Y0003852D01*
X0889656Y0004019D01*
X0889156Y0004019D01*
X0889156Y0003018D01*
X0891699Y0003852D02*
X0892033Y0004019D01*
X0861521Y0003852D02*
X0861521Y0003685D01*
X0861354Y0003519D01*
X0861521Y0003352D01*
X0861521Y0003185D01*
X0861354Y0003018D01*
X0861021Y0003018D01*
X0860854Y0003185D01*
X0860416Y0003185D02*
X0860249Y0003018D01*
X0859916Y0003018D01*
X0859749Y0003185D01*
X0859749Y0003352D01*
X0859916Y0003519D01*
X0860249Y0003519D01*
X0860416Y0003352D01*
X0860416Y0003185D01*
X0860249Y0003519D02*
X0860416Y0003685D01*
X0860416Y0003852D01*
X0860249Y0004019D01*
X0859916Y0004019D01*
X0859749Y0003852D01*
X0859749Y0003685D01*
X0859916Y0003519D01*
X0859311Y0003519D02*
X0859144Y0003352D01*
X0858644Y0003352D01*
X0858978Y0003352D02*
X0859311Y0003018D01*
X0859311Y0003519D02*
X0859311Y0003852D01*
X0859144Y0004019D01*
X0858644Y0004019D01*
X0858644Y0003018D01*
X0861187Y0003519D02*
X0861354Y0003519D01*
X0861521Y0003852D02*
X0861354Y0004019D01*
X0861021Y0004019D01*
X0860854Y0003852D01*
X0831009Y0003852D02*
X0831009Y0003185D01*
X0830842Y0003018D01*
X0830509Y0003018D01*
X0830342Y0003185D01*
X0831009Y0003852D01*
X0830842Y0004019D01*
X0830509Y0004019D01*
X0830342Y0003852D01*
X0830342Y0003185D01*
X0829904Y0003185D02*
X0829737Y0003018D01*
X0829404Y0003018D01*
X0829237Y0003185D01*
X0829237Y0003352D01*
X0829404Y0003519D01*
X0829737Y0003519D01*
X0829904Y0003352D01*
X0829904Y0003185D01*
X0829737Y0003519D02*
X0829904Y0003685D01*
X0829904Y0003852D01*
X0829737Y0004019D01*
X0829404Y0004019D01*
X0829237Y0003852D01*
X0829237Y0003685D01*
X0829404Y0003519D01*
X0828799Y0003519D02*
X0828633Y0003352D01*
X0828132Y0003352D01*
X0828466Y0003352D02*
X0828799Y0003018D01*
X0828799Y0003519D02*
X0828799Y0003852D01*
X0828633Y0004019D01*
X0828132Y0004019D01*
X0828132Y0003018D01*
X0800497Y0003852D02*
X0799830Y0003185D01*
X0799830Y0003018D01*
X0799392Y0003852D02*
X0798725Y0003185D01*
X0798725Y0003018D01*
X0798288Y0003018D02*
X0797954Y0003352D01*
X0798121Y0003352D02*
X0797620Y0003352D01*
X0797620Y0003018D02*
X0797620Y0004019D01*
X0798121Y0004019D01*
X0798288Y0003852D01*
X0798288Y0003519D01*
X0798121Y0003352D01*
X0798725Y0004019D02*
X0799392Y0004019D01*
X0799392Y0003852D01*
X0799830Y0004019D02*
X0800497Y0004019D01*
X0800497Y0003852D01*
X0769986Y0003519D02*
X0769318Y0003519D01*
X0769819Y0004019D01*
X0769819Y0003018D01*
X0768881Y0003852D02*
X0768213Y0003185D01*
X0768213Y0003018D01*
X0767776Y0003018D02*
X0767442Y0003352D01*
X0767609Y0003352D02*
X0767109Y0003352D01*
X0767109Y0003018D02*
X0767109Y0004019D01*
X0767609Y0004019D01*
X0767776Y0003852D01*
X0767776Y0003519D01*
X0767609Y0003352D01*
X0768213Y0004019D02*
X0768881Y0004019D01*
X0768881Y0003852D01*
X0739474Y0003018D02*
X0738807Y0003018D01*
X0739140Y0003018D02*
X0739140Y0004019D01*
X0738807Y0003685D01*
X0738369Y0003852D02*
X0737702Y0003185D01*
X0737702Y0003018D01*
X0737264Y0003018D02*
X0736930Y0003352D01*
X0737097Y0003352D02*
X0736597Y0003352D01*
X0736597Y0003018D02*
X0736597Y0004019D01*
X0737097Y0004019D01*
X0737264Y0003852D01*
X0737264Y0003519D01*
X0737097Y0003352D01*
X0737702Y0004019D02*
X0738369Y0004019D01*
X0738369Y0003852D01*
X0708962Y0003852D02*
X0708962Y0003685D01*
X0708795Y0003519D01*
X0708462Y0003519D01*
X0708295Y0003685D01*
X0708295Y0003852D01*
X0708462Y0004019D01*
X0708795Y0004019D01*
X0708962Y0003852D01*
X0708795Y0003519D02*
X0708962Y0003352D01*
X0708962Y0003185D01*
X0708795Y0003018D01*
X0708462Y0003018D01*
X0708295Y0003185D01*
X0708295Y0003352D01*
X0708462Y0003519D01*
X0707857Y0003352D02*
X0707690Y0003519D01*
X0707190Y0003519D01*
X0707190Y0003185D01*
X0707357Y0003018D01*
X0707690Y0003018D01*
X0707857Y0003185D01*
X0707857Y0003352D01*
X0707523Y0003852D02*
X0707190Y0003519D01*
X0706752Y0003519D02*
X0706585Y0003352D01*
X0706085Y0003352D01*
X0706419Y0003352D02*
X0706752Y0003018D01*
X0706752Y0003519D02*
X0706752Y0003852D01*
X0706585Y0004019D01*
X0706085Y0004019D01*
X0706085Y0003018D01*
X0707523Y0003852D02*
X0707857Y0004019D01*
X0678450Y0004019D02*
X0677783Y0004019D01*
X0677783Y0003519D01*
X0678117Y0003685D01*
X0678283Y0003685D01*
X0678450Y0003519D01*
X0678450Y0003185D01*
X0678283Y0003018D01*
X0677950Y0003018D01*
X0677783Y0003185D01*
X0677345Y0003185D02*
X0677345Y0003352D01*
X0677178Y0003519D01*
X0676678Y0003519D01*
X0676678Y0003185D01*
X0676845Y0003018D01*
X0677178Y0003018D01*
X0677345Y0003185D01*
X0677012Y0003852D02*
X0676678Y0003519D01*
X0676240Y0003519D02*
X0676073Y0003352D01*
X0675573Y0003352D01*
X0675907Y0003352D02*
X0676240Y0003018D01*
X0676240Y0003519D02*
X0676240Y0003852D01*
X0676073Y0004019D01*
X0675573Y0004019D01*
X0675573Y0003018D01*
X0677012Y0003852D02*
X0677345Y0004019D01*
X0647938Y0003852D02*
X0647772Y0004019D01*
X0647438Y0004019D01*
X0647271Y0003852D01*
X0646833Y0004019D02*
X0646500Y0003852D01*
X0646166Y0003519D01*
X0646667Y0003519D01*
X0646833Y0003352D01*
X0646833Y0003185D01*
X0646667Y0003018D01*
X0646333Y0003018D01*
X0646166Y0003185D01*
X0646166Y0003519D01*
X0645729Y0003519D02*
X0645562Y0003352D01*
X0645061Y0003352D01*
X0645395Y0003352D02*
X0645729Y0003018D01*
X0645729Y0003519D02*
X0645729Y0003852D01*
X0645562Y0004019D01*
X0645061Y0004019D01*
X0645061Y0003018D01*
X0647271Y0003018D02*
X0647938Y0003685D01*
X0647938Y0003852D01*
X0647938Y0003018D02*
X0647271Y0003018D01*
X0617427Y0003185D02*
X0617427Y0003852D01*
X0617260Y0004019D01*
X0616926Y0004019D01*
X0616759Y0003852D01*
X0616759Y0003685D01*
X0616926Y0003519D01*
X0617427Y0003519D01*
X0617427Y0003185D02*
X0617260Y0003018D01*
X0616926Y0003018D01*
X0616759Y0003185D01*
X0616322Y0003185D02*
X0616155Y0003018D01*
X0615821Y0003018D01*
X0615654Y0003185D01*
X0615654Y0003519D02*
X0615988Y0003685D01*
X0616155Y0003685D01*
X0616322Y0003519D01*
X0616322Y0003185D01*
X0615654Y0003519D02*
X0615654Y0004019D01*
X0616322Y0004019D01*
X0615217Y0003852D02*
X0615217Y0003519D01*
X0615050Y0003352D01*
X0614549Y0003352D01*
X0614549Y0003018D02*
X0614549Y0004019D01*
X0615050Y0004019D01*
X0615217Y0003852D01*
X0614883Y0003352D02*
X0615217Y0003018D01*
X0586915Y0003185D02*
X0586915Y0003352D01*
X0586748Y0003519D01*
X0586248Y0003519D01*
X0586248Y0003185D01*
X0586414Y0003018D01*
X0586748Y0003018D01*
X0586915Y0003185D01*
X0586581Y0003852D02*
X0586248Y0003519D01*
X0585810Y0003519D02*
X0585810Y0003185D01*
X0585643Y0003018D01*
X0585309Y0003018D01*
X0585143Y0003185D01*
X0585143Y0003519D02*
X0585476Y0003685D01*
X0585643Y0003685D01*
X0585810Y0003519D01*
X0585810Y0004019D02*
X0585143Y0004019D01*
X0585143Y0003519D01*
X0584705Y0003519D02*
X0584538Y0003352D01*
X0584038Y0003352D01*
X0584371Y0003352D02*
X0584705Y0003018D01*
X0584705Y0003519D02*
X0584705Y0003852D01*
X0584538Y0004019D01*
X0584038Y0004019D01*
X0584038Y0003018D01*
X0586581Y0003852D02*
X0586915Y0004019D01*
X0556403Y0003852D02*
X0556403Y0003685D01*
X0556236Y0003519D01*
X0556403Y0003352D01*
X0556403Y0003185D01*
X0556236Y0003018D01*
X0555903Y0003018D01*
X0555736Y0003185D01*
X0555298Y0003185D02*
X0555131Y0003018D01*
X0554798Y0003018D01*
X0554631Y0003185D01*
X0554631Y0003519D02*
X0554964Y0003685D01*
X0555131Y0003685D01*
X0555298Y0003519D01*
X0555298Y0003185D01*
X0554631Y0003519D02*
X0554631Y0004019D01*
X0555298Y0004019D01*
X0555736Y0003852D02*
X0555903Y0004019D01*
X0556236Y0004019D01*
X0556403Y0003852D01*
X0556236Y0003519D02*
X0556069Y0003519D01*
X0554193Y0003519D02*
X0554026Y0003352D01*
X0553526Y0003352D01*
X0553859Y0003352D02*
X0554193Y0003018D01*
X0554193Y0003519D02*
X0554193Y0003852D01*
X0554026Y0004019D01*
X0553526Y0004019D01*
X0553526Y0003018D01*
X0525891Y0003185D02*
X0525891Y0003852D01*
X0525224Y0003185D01*
X0525391Y0003018D01*
X0525724Y0003018D01*
X0525891Y0003185D01*
X0525224Y0003185D02*
X0525224Y0003852D01*
X0525391Y0004019D01*
X0525724Y0004019D01*
X0525891Y0003852D01*
X0524786Y0004019D02*
X0524119Y0004019D01*
X0524119Y0003519D01*
X0524453Y0003685D01*
X0524619Y0003685D01*
X0524786Y0003519D01*
X0524786Y0003185D01*
X0524619Y0003018D01*
X0524286Y0003018D01*
X0524119Y0003185D01*
X0523681Y0003018D02*
X0523348Y0003352D01*
X0523514Y0003352D02*
X0523014Y0003352D01*
X0523014Y0003018D02*
X0523014Y0004019D01*
X0523514Y0004019D01*
X0523681Y0003852D01*
X0523681Y0003519D01*
X0523514Y0003352D01*
X0495379Y0003852D02*
X0494712Y0003185D01*
X0494712Y0003018D01*
X0494108Y0003018D02*
X0494108Y0004019D01*
X0493607Y0003519D01*
X0494274Y0003519D01*
X0494712Y0004019D02*
X0495379Y0004019D01*
X0495379Y0003852D01*
X0493169Y0003852D02*
X0493169Y0003519D01*
X0493003Y0003352D01*
X0492502Y0003352D01*
X0492836Y0003352D02*
X0493169Y0003018D01*
X0492502Y0003018D02*
X0492502Y0004019D01*
X0493003Y0004019D01*
X0493169Y0003852D01*
X0464868Y0003519D02*
X0464200Y0003519D01*
X0464701Y0004019D01*
X0464701Y0003018D01*
X0463763Y0003519D02*
X0463095Y0003519D01*
X0463596Y0004019D01*
X0463596Y0003018D01*
X0462658Y0003018D02*
X0462324Y0003352D01*
X0462491Y0003352D02*
X0461990Y0003352D01*
X0461990Y0003018D02*
X0461990Y0004019D01*
X0462491Y0004019D01*
X0462658Y0003852D01*
X0462658Y0003519D01*
X0462491Y0003352D01*
X0434356Y0003018D02*
X0433688Y0003018D01*
X0434022Y0003018D02*
X0434022Y0004019D01*
X0433688Y0003685D01*
X0433251Y0003519D02*
X0432584Y0003519D01*
X0433084Y0004019D01*
X0433084Y0003018D01*
X0432146Y0003018D02*
X0431812Y0003352D01*
X0431979Y0003352D02*
X0431479Y0003352D01*
X0431479Y0003018D02*
X0431479Y0004019D01*
X0431979Y0004019D01*
X0432146Y0003852D01*
X0432146Y0003519D01*
X0431979Y0003352D01*
X0403844Y0003352D02*
X0403844Y0003185D01*
X0403677Y0003018D01*
X0403343Y0003018D01*
X0403177Y0003185D01*
X0403177Y0003352D01*
X0403343Y0003519D01*
X0403677Y0003519D01*
X0403844Y0003352D01*
X0403677Y0003519D02*
X0403844Y0003685D01*
X0403844Y0003852D01*
X0403677Y0004019D01*
X0403343Y0004019D01*
X0403177Y0003852D01*
X0403177Y0003685D01*
X0403343Y0003519D01*
X0402739Y0003685D02*
X0402572Y0003519D01*
X0402739Y0003352D01*
X0402739Y0003185D01*
X0402572Y0003018D01*
X0402239Y0003018D01*
X0402072Y0003185D01*
X0401634Y0003018D02*
X0401300Y0003352D01*
X0401467Y0003352D02*
X0400967Y0003352D01*
X0400967Y0003018D02*
X0400967Y0004019D01*
X0401467Y0004019D01*
X0401634Y0003852D01*
X0401634Y0003519D01*
X0401467Y0003352D01*
X0402072Y0003852D02*
X0402239Y0004019D01*
X0402572Y0004019D01*
X0402739Y0003852D01*
X0402739Y0003685D01*
X0402572Y0003519D02*
X0402405Y0003519D01*
X0373332Y0003519D02*
X0373332Y0003185D01*
X0373165Y0003018D01*
X0372832Y0003018D01*
X0372665Y0003185D01*
X0372665Y0003519D02*
X0372998Y0003685D01*
X0373165Y0003685D01*
X0373332Y0003519D01*
X0373332Y0004019D02*
X0372665Y0004019D01*
X0372665Y0003519D01*
X0372227Y0003685D02*
X0372060Y0003519D01*
X0372227Y0003352D01*
X0372227Y0003185D01*
X0372060Y0003018D01*
X0371727Y0003018D01*
X0371560Y0003185D01*
X0371122Y0003018D02*
X0370789Y0003352D01*
X0370955Y0003352D02*
X0370455Y0003352D01*
X0370455Y0003018D02*
X0370455Y0004019D01*
X0370955Y0004019D01*
X0371122Y0003852D01*
X0371122Y0003519D01*
X0370955Y0003352D01*
X0371560Y0003852D02*
X0371727Y0004019D01*
X0372060Y0004019D01*
X0372227Y0003852D01*
X0372227Y0003685D01*
X0372060Y0003519D02*
X0371894Y0003519D01*
X0342820Y0003685D02*
X0342153Y0003018D01*
X0342820Y0003018D01*
X0341715Y0003185D02*
X0341549Y0003018D01*
X0341215Y0003018D01*
X0341048Y0003185D01*
X0340610Y0003018D02*
X0340277Y0003352D01*
X0340444Y0003352D02*
X0339943Y0003352D01*
X0339943Y0003018D02*
X0339943Y0004019D01*
X0340444Y0004019D01*
X0340610Y0003852D01*
X0340610Y0003519D01*
X0340444Y0003352D01*
X0341048Y0003852D02*
X0341215Y0004019D01*
X0341549Y0004019D01*
X0341715Y0003852D01*
X0341715Y0003685D01*
X0341549Y0003519D01*
X0341715Y0003352D01*
X0341715Y0003185D01*
X0341549Y0003519D02*
X0341382Y0003519D01*
X0342153Y0003852D02*
X0342320Y0004019D01*
X0342653Y0004019D01*
X0342820Y0003852D01*
X0342820Y0003685D01*
X0312308Y0003519D02*
X0311808Y0003519D01*
X0311641Y0003685D01*
X0311641Y0003852D01*
X0311808Y0004019D01*
X0312142Y0004019D01*
X0312308Y0003852D01*
X0312308Y0003185D01*
X0312142Y0003018D01*
X0311808Y0003018D01*
X0311641Y0003185D01*
X0311204Y0003018D02*
X0310536Y0003018D01*
X0311204Y0003685D01*
X0311204Y0003852D01*
X0311037Y0004019D01*
X0310703Y0004019D01*
X0310536Y0003852D01*
X0310099Y0003852D02*
X0310099Y0003519D01*
X0309932Y0003352D01*
X0309431Y0003352D01*
X0309431Y0003018D02*
X0309431Y0004019D01*
X0309932Y0004019D01*
X0310099Y0003852D01*
X0309765Y0003352D02*
X0310099Y0003018D01*
X0281797Y0003185D02*
X0281797Y0003352D01*
X0281630Y0003519D01*
X0281129Y0003519D01*
X0281129Y0003185D01*
X0281296Y0003018D01*
X0281630Y0003018D01*
X0281797Y0003185D01*
X0281463Y0003852D02*
X0281129Y0003519D01*
X0280692Y0003685D02*
X0280024Y0003018D01*
X0280692Y0003018D01*
X0279587Y0003018D02*
X0279253Y0003352D01*
X0279420Y0003352D02*
X0278920Y0003352D01*
X0278920Y0003018D02*
X0278920Y0004019D01*
X0279420Y0004019D01*
X0279587Y0003852D01*
X0279587Y0003519D01*
X0279420Y0003352D01*
X0280024Y0003852D02*
X0280191Y0004019D01*
X0280525Y0004019D01*
X0280692Y0003852D01*
X0280692Y0003685D01*
X0281463Y0003852D02*
X0281797Y0004019D01*
X0251285Y0003852D02*
X0251285Y0003685D01*
X0251118Y0003519D01*
X0251285Y0003352D01*
X0251285Y0003185D01*
X0251118Y0003018D01*
X0250784Y0003018D01*
X0250618Y0003185D01*
X0250180Y0003018D02*
X0249513Y0003018D01*
X0250180Y0003685D01*
X0250180Y0003852D01*
X0250013Y0004019D01*
X0249679Y0004019D01*
X0249513Y0003852D01*
X0249075Y0003852D02*
X0249075Y0003519D01*
X0248908Y0003352D01*
X0248408Y0003352D01*
X0248741Y0003352D02*
X0249075Y0003018D01*
X0248408Y0003018D02*
X0248408Y0004019D01*
X0248908Y0004019D01*
X0249075Y0003852D01*
X0250618Y0003852D02*
X0250784Y0004019D01*
X0251118Y0004019D01*
X0251285Y0003852D01*
X0251118Y0003519D02*
X0250951Y0003519D01*
X0220773Y0003852D02*
X0220106Y0003185D01*
X0220273Y0003018D01*
X0220606Y0003018D01*
X0220773Y0003185D01*
X0220773Y0003852D01*
X0220606Y0004019D01*
X0220273Y0004019D01*
X0220106Y0003852D01*
X0220106Y0003185D01*
X0219668Y0003018D02*
X0219001Y0003018D01*
X0219668Y0003685D01*
X0219668Y0003852D01*
X0219501Y0004019D01*
X0219168Y0004019D01*
X0219001Y0003852D01*
X0218563Y0003852D02*
X0218563Y0003519D01*
X0218396Y0003352D01*
X0217896Y0003352D01*
X0218230Y0003352D02*
X0218563Y0003018D01*
X0217896Y0003018D02*
X0217896Y0004019D01*
X0218396Y0004019D01*
X0218563Y0003852D01*
X0190261Y0003852D02*
X0189594Y0003185D01*
X0189594Y0003018D01*
X0189156Y0003018D02*
X0188489Y0003018D01*
X0188823Y0003018D02*
X0188823Y0004019D01*
X0188489Y0003685D01*
X0188051Y0003852D02*
X0188051Y0003519D01*
X0187885Y0003352D01*
X0187384Y0003352D01*
X0187718Y0003352D02*
X0188051Y0003018D01*
X0187384Y0003018D02*
X0187384Y0004019D01*
X0187885Y0004019D01*
X0188051Y0003852D01*
X0189594Y0004019D02*
X0190261Y0004019D01*
X0190261Y0003852D01*
X0159749Y0003519D02*
X0159082Y0003519D01*
X0159583Y0004019D01*
X0159583Y0003018D01*
X0158644Y0003018D02*
X0157977Y0003018D01*
X0158311Y0003018D02*
X0158311Y0004019D01*
X0157977Y0003685D01*
X0157540Y0003852D02*
X0157540Y0003519D01*
X0157373Y0003352D01*
X0156872Y0003352D01*
X0156872Y0003018D02*
X0156872Y0004019D01*
X0157373Y0004019D01*
X0157540Y0003852D01*
X0157206Y0003352D02*
X0157540Y0003018D01*
X0129238Y0003018D02*
X0128570Y0003018D01*
X0128904Y0003018D02*
X0128904Y0004019D01*
X0128570Y0003685D01*
X0127799Y0004019D02*
X0127799Y0003018D01*
X0127465Y0003018D02*
X0128133Y0003018D01*
X0127028Y0003018D02*
X0126694Y0003352D01*
X0126861Y0003352D02*
X0126360Y0003352D01*
X0126360Y0003018D02*
X0126360Y0004019D01*
X0126861Y0004019D01*
X0127028Y0003852D01*
X0127028Y0003519D01*
X0126861Y0003352D01*
X0127465Y0003685D02*
X0127799Y0004019D01*
X0098726Y0003852D02*
X0098726Y0003685D01*
X0098559Y0003519D01*
X0098225Y0003519D01*
X0098059Y0003685D01*
X0098059Y0003852D01*
X0098225Y0004019D01*
X0098559Y0004019D01*
X0098726Y0003852D01*
X0098559Y0003519D02*
X0098726Y0003352D01*
X0098726Y0003185D01*
X0098559Y0003018D01*
X0098225Y0003018D01*
X0098059Y0003185D01*
X0098059Y0003352D01*
X0098225Y0003519D01*
X0097621Y0003519D02*
X0097454Y0003352D01*
X0096954Y0003352D01*
X0097287Y0003352D02*
X0097621Y0003018D01*
X0097621Y0003519D02*
X0097621Y0003852D01*
X0097454Y0004019D01*
X0096954Y0004019D01*
X0096954Y0003018D01*
X0068214Y0003018D02*
X0067547Y0003018D01*
X0068214Y0003685D01*
X0068214Y0003852D01*
X0068047Y0004019D01*
X0067714Y0004019D01*
X0067547Y0003852D01*
X0067109Y0003852D02*
X0067109Y0003519D01*
X0066942Y0003352D01*
X0066442Y0003352D01*
X0066775Y0003352D02*
X0067109Y0003018D01*
X0066442Y0003018D02*
X0066442Y0004019D01*
X0066942Y0004019D01*
X0067109Y0003852D01*
X0037702Y0004019D02*
X0037035Y0004019D01*
X0037035Y0003519D01*
X0037369Y0003685D01*
X0037535Y0003685D01*
X0037702Y0003519D01*
X0037702Y0003185D01*
X0037535Y0003018D01*
X0037202Y0003018D01*
X0037035Y0003185D01*
X0036597Y0003018D02*
X0036264Y0003352D01*
X0036430Y0003352D02*
X0035930Y0003352D01*
X0035930Y0003018D02*
X0035930Y0004019D01*
X0036430Y0004019D01*
X0036597Y0003852D01*
X0036597Y0003519D01*
X0036430Y0003352D01*
X0042935Y0009356D02*
X0043769Y0009356D01*
X0043936Y0009523D01*
X0043936Y0009856D01*
X0043769Y0010023D01*
X0042935Y0010023D01*
X0043102Y0010461D02*
X0042935Y0010628D01*
X0042935Y0010961D01*
X0043102Y0011128D01*
X0043269Y0011128D01*
X0043936Y0010461D01*
X0043936Y0011128D01*
X0073447Y0010961D02*
X0073614Y0011128D01*
X0073781Y0011128D01*
X0073947Y0010961D01*
X0074114Y0011128D01*
X0074281Y0011128D01*
X0074448Y0010961D01*
X0074448Y0010628D01*
X0074281Y0010461D01*
X0074281Y0010023D02*
X0073447Y0010023D01*
X0073614Y0010461D02*
X0073447Y0010628D01*
X0073447Y0010961D01*
X0073947Y0010961D02*
X0073947Y0010794D01*
X0074281Y0010023D02*
X0074448Y0009856D01*
X0074448Y0009523D01*
X0074281Y0009356D01*
X0073447Y0009356D01*
X0103959Y0009356D02*
X0104793Y0009356D01*
X0104960Y0009523D01*
X0104960Y0009856D01*
X0104793Y0010023D01*
X0103959Y0010023D01*
X0104459Y0010461D02*
X0104459Y0011128D01*
X0103959Y0010961D02*
X0104459Y0010461D01*
X0104960Y0010961D02*
X0103959Y0010961D01*
X0134471Y0011128D02*
X0134471Y0010461D01*
X0134971Y0010461D01*
X0134804Y0010794D01*
X0134804Y0010961D01*
X0134971Y0011128D01*
X0135305Y0011128D01*
X0135471Y0010961D01*
X0135471Y0010628D01*
X0135305Y0010461D01*
X0135305Y0010023D02*
X0134471Y0010023D01*
X0134471Y0009356D02*
X0135305Y0009356D01*
X0135471Y0009523D01*
X0135471Y0009856D01*
X0135305Y0010023D01*
X0164982Y0010023D02*
X0165816Y0010023D01*
X0165983Y0009856D01*
X0165983Y0009523D01*
X0165816Y0009356D01*
X0164982Y0009356D01*
X0165483Y0010461D02*
X0165483Y0010961D01*
X0165650Y0011128D01*
X0165816Y0011128D01*
X0165983Y0010961D01*
X0165983Y0010628D01*
X0165816Y0010461D01*
X0165483Y0010461D01*
X0165149Y0010794D01*
X0164982Y0011128D01*
X0195494Y0011128D02*
X0195494Y0010461D01*
X0195494Y0010023D02*
X0196328Y0010023D01*
X0196495Y0009856D01*
X0196495Y0009523D01*
X0196328Y0009356D01*
X0195494Y0009356D01*
X0196328Y0010461D02*
X0196495Y0010461D01*
X0196328Y0010461D02*
X0195661Y0011128D01*
X0195494Y0011128D01*
X0226006Y0010961D02*
X0226173Y0011128D01*
X0226340Y0011128D01*
X0226506Y0010961D01*
X0226506Y0010628D01*
X0226340Y0010461D01*
X0226173Y0010461D01*
X0226006Y0010628D01*
X0226006Y0010961D01*
X0226506Y0010961D02*
X0226673Y0011128D01*
X0226840Y0011128D01*
X0227007Y0010961D01*
X0227007Y0010628D01*
X0226840Y0010461D01*
X0226673Y0010461D01*
X0226506Y0010628D01*
X0226840Y0010023D02*
X0226006Y0010023D01*
X0226006Y0009356D02*
X0226840Y0009356D01*
X0227007Y0009523D01*
X0227007Y0009856D01*
X0226840Y0010023D01*
X0256518Y0010023D02*
X0257352Y0010023D01*
X0257519Y0009856D01*
X0257519Y0009523D01*
X0257352Y0009356D01*
X0256518Y0009356D01*
X0256685Y0010461D02*
X0256851Y0010461D01*
X0257018Y0010628D01*
X0257018Y0011128D01*
X0256685Y0011128D02*
X0256518Y0010961D01*
X0256518Y0010628D01*
X0256685Y0010461D01*
X0257352Y0010461D02*
X0257519Y0010628D01*
X0257519Y0010961D01*
X0257352Y0011128D01*
X0256685Y0011128D01*
X0287030Y0010794D02*
X0287363Y0010461D01*
X0287030Y0010794D02*
X0288030Y0010794D01*
X0288030Y0010461D02*
X0288030Y0011128D01*
X0287864Y0011566D02*
X0287196Y0012233D01*
X0287864Y0012233D01*
X0288030Y0012066D01*
X0288030Y0011733D01*
X0287864Y0011566D01*
X0287196Y0011566D01*
X0287030Y0011733D01*
X0287030Y0012066D01*
X0287196Y0012233D01*
X0317541Y0011899D02*
X0317875Y0011566D01*
X0317541Y0011899D02*
X0318542Y0011899D01*
X0318542Y0011566D02*
X0318542Y0012233D01*
X0318542Y0011128D02*
X0318542Y0010461D01*
X0318542Y0010794D02*
X0317541Y0010794D01*
X0317875Y0010461D01*
X0317541Y0010023D02*
X0318375Y0010023D01*
X0318542Y0009856D01*
X0318542Y0009523D01*
X0318375Y0009356D01*
X0317541Y0009356D01*
X0288030Y0009523D02*
X0288030Y0009856D01*
X0287864Y0010023D01*
X0287030Y0010023D01*
X0287030Y0009356D02*
X0287864Y0009356D01*
X0288030Y0009523D01*
X0348053Y0009356D02*
X0348887Y0009356D01*
X0349054Y0009523D01*
X0349054Y0009856D01*
X0348887Y0010023D01*
X0348053Y0010023D01*
X0348387Y0010461D02*
X0348053Y0010794D01*
X0349054Y0010794D01*
X0349054Y0010461D02*
X0349054Y0011128D01*
X0349054Y0011566D02*
X0348387Y0012233D01*
X0348220Y0012233D01*
X0348053Y0012066D01*
X0348053Y0011733D01*
X0348220Y0011566D01*
X0349054Y0011566D02*
X0349054Y0012233D01*
X0378565Y0012066D02*
X0378565Y0011733D01*
X0378732Y0011566D01*
X0379065Y0011899D02*
X0379065Y0012066D01*
X0379232Y0012233D01*
X0379399Y0012233D01*
X0379566Y0012066D01*
X0379566Y0011733D01*
X0379399Y0011566D01*
X0379566Y0011128D02*
X0379566Y0010461D01*
X0379566Y0010794D02*
X0378565Y0010794D01*
X0378899Y0010461D01*
X0378565Y0010023D02*
X0379399Y0010023D01*
X0379566Y0009856D01*
X0379566Y0009523D01*
X0379399Y0009356D01*
X0378565Y0009356D01*
X0409077Y0009356D02*
X0409911Y0009356D01*
X0410078Y0009523D01*
X0410078Y0009856D01*
X0409911Y0010023D01*
X0409077Y0010023D01*
X0409410Y0010461D02*
X0409077Y0010794D01*
X0410078Y0010794D01*
X0410078Y0010461D02*
X0410078Y0011128D01*
X0409577Y0011566D02*
X0409577Y0012233D01*
X0409077Y0012066D02*
X0409577Y0011566D01*
X0410078Y0012066D02*
X0409077Y0012066D01*
X0379065Y0012066D02*
X0378899Y0012233D01*
X0378732Y0012233D01*
X0378565Y0012066D01*
X0439589Y0012233D02*
X0439589Y0011566D01*
X0440089Y0011566D01*
X0439922Y0011899D01*
X0439922Y0012066D01*
X0440089Y0012233D01*
X0440423Y0012233D01*
X0440589Y0012066D01*
X0440589Y0011733D01*
X0440423Y0011566D01*
X0440589Y0011128D02*
X0440589Y0010461D01*
X0440589Y0010794D02*
X0439589Y0010794D01*
X0439922Y0010461D01*
X0439589Y0010023D02*
X0440423Y0010023D01*
X0440589Y0009856D01*
X0440589Y0009523D01*
X0440423Y0009356D01*
X0439589Y0009356D01*
X0470100Y0009356D02*
X0470934Y0009356D01*
X0471101Y0009523D01*
X0471101Y0009856D01*
X0470934Y0010023D01*
X0470100Y0010023D01*
X0470434Y0010461D02*
X0470100Y0010794D01*
X0471101Y0010794D01*
X0471101Y0010461D02*
X0471101Y0011128D01*
X0470934Y0011566D02*
X0471101Y0011733D01*
X0471101Y0012066D01*
X0470934Y0012233D01*
X0470768Y0012233D01*
X0470601Y0012066D01*
X0470601Y0011566D01*
X0470934Y0011566D01*
X0470601Y0011566D02*
X0470267Y0011899D01*
X0470100Y0012233D01*
X0500612Y0012233D02*
X0500612Y0011566D01*
X0500779Y0012233D02*
X0501446Y0011566D01*
X0501613Y0011566D01*
X0501613Y0011128D02*
X0501613Y0010461D01*
X0501613Y0010794D02*
X0500612Y0010794D01*
X0500946Y0010461D01*
X0500612Y0010023D02*
X0501446Y0010023D01*
X0501613Y0009856D01*
X0501613Y0009523D01*
X0501446Y0009356D01*
X0500612Y0009356D01*
X0531124Y0009356D02*
X0531958Y0009356D01*
X0532125Y0009523D01*
X0532125Y0009856D01*
X0531958Y0010023D01*
X0531124Y0010023D01*
X0531458Y0010461D02*
X0531124Y0010794D01*
X0532125Y0010794D01*
X0532125Y0010461D02*
X0532125Y0011128D01*
X0531958Y0011566D02*
X0531791Y0011566D01*
X0531624Y0011733D01*
X0531624Y0012066D01*
X0531791Y0012233D01*
X0531958Y0012233D01*
X0532125Y0012066D01*
X0532125Y0011733D01*
X0531958Y0011566D01*
X0531624Y0011733D02*
X0531458Y0011566D01*
X0531291Y0011566D01*
X0531124Y0011733D01*
X0531124Y0012066D01*
X0531291Y0012233D01*
X0531458Y0012233D01*
X0531624Y0012066D01*
X0561636Y0012066D02*
X0561636Y0011733D01*
X0561803Y0011566D01*
X0561969Y0011566D01*
X0562136Y0011733D01*
X0562136Y0012233D01*
X0561803Y0012233D02*
X0561636Y0012066D01*
X0561803Y0012233D02*
X0562470Y0012233D01*
X0562637Y0012066D01*
X0562637Y0011733D01*
X0562470Y0011566D01*
X0562637Y0011128D02*
X0562637Y0010461D01*
X0562637Y0010794D02*
X0561636Y0010794D01*
X0561969Y0010461D01*
X0561636Y0010023D02*
X0562470Y0010023D01*
X0562637Y0009856D01*
X0562637Y0009523D01*
X0562470Y0009356D01*
X0561636Y0009356D01*
X0592148Y0009356D02*
X0592982Y0009356D01*
X0593149Y0009523D01*
X0593149Y0009856D01*
X0592982Y0010023D01*
X0592148Y0010023D01*
X0592314Y0010461D02*
X0592148Y0010628D01*
X0592148Y0010961D01*
X0592314Y0011128D01*
X0592481Y0011128D01*
X0593149Y0010461D01*
X0593149Y0011128D01*
X0592982Y0011566D02*
X0592314Y0012233D01*
X0592982Y0012233D01*
X0593149Y0012066D01*
X0593149Y0011733D01*
X0592982Y0011566D01*
X0592314Y0011566D01*
X0592148Y0011733D01*
X0592148Y0012066D01*
X0592314Y0012233D01*
X0622659Y0011899D02*
X0623660Y0011899D01*
X0623660Y0011566D02*
X0623660Y0012233D01*
X0622993Y0011566D02*
X0622659Y0011899D01*
X0622826Y0011128D02*
X0622659Y0010961D01*
X0622659Y0010628D01*
X0622826Y0010461D01*
X0622659Y0010023D02*
X0623494Y0010023D01*
X0623660Y0009856D01*
X0623660Y0009523D01*
X0623494Y0009356D01*
X0622659Y0009356D01*
X0623660Y0010461D02*
X0622993Y0011128D01*
X0622826Y0011128D01*
X0623660Y0011128D02*
X0623660Y0010461D01*
X0653171Y0010628D02*
X0653338Y0010461D01*
X0653171Y0010628D02*
X0653171Y0010961D01*
X0653338Y0011128D01*
X0653505Y0011128D01*
X0654172Y0010461D01*
X0654172Y0011128D01*
X0654172Y0011566D02*
X0653505Y0012233D01*
X0653338Y0012233D01*
X0653171Y0012066D01*
X0653171Y0011733D01*
X0653338Y0011566D01*
X0654172Y0011566D02*
X0654172Y0012233D01*
X0683683Y0012066D02*
X0683683Y0011733D01*
X0683850Y0011566D01*
X0683850Y0011128D02*
X0683683Y0010961D01*
X0683683Y0010628D01*
X0683850Y0010461D01*
X0683683Y0010023D02*
X0684517Y0010023D01*
X0684684Y0009856D01*
X0684684Y0009523D01*
X0684517Y0009356D01*
X0683683Y0009356D01*
X0684684Y0010461D02*
X0684017Y0011128D01*
X0683850Y0011128D01*
X0684517Y0011566D02*
X0684684Y0011733D01*
X0684684Y0012066D01*
X0684517Y0012233D01*
X0684350Y0012233D01*
X0684184Y0012066D01*
X0684184Y0011899D01*
X0684184Y0012066D02*
X0684017Y0012233D01*
X0683850Y0012233D01*
X0683683Y0012066D01*
X0684684Y0011128D02*
X0684684Y0010461D01*
X0714195Y0010628D02*
X0714362Y0010461D01*
X0714195Y0010628D02*
X0714195Y0010961D01*
X0714362Y0011128D01*
X0714529Y0011128D01*
X0715196Y0010461D01*
X0715196Y0011128D01*
X0714695Y0011566D02*
X0714695Y0012233D01*
X0714195Y0012066D02*
X0714695Y0011566D01*
X0715196Y0012066D02*
X0714195Y0012066D01*
X0744707Y0012233D02*
X0744707Y0011566D01*
X0745207Y0011566D01*
X0745040Y0011899D01*
X0745040Y0012066D01*
X0745207Y0012233D01*
X0745541Y0012233D01*
X0745708Y0012066D01*
X0745708Y0011733D01*
X0745541Y0011566D01*
X0745708Y0011128D02*
X0745708Y0010461D01*
X0745040Y0011128D01*
X0744874Y0011128D01*
X0744707Y0010961D01*
X0744707Y0010628D01*
X0744874Y0010461D01*
X0744707Y0010023D02*
X0745541Y0010023D01*
X0745708Y0009856D01*
X0745708Y0009523D01*
X0745541Y0009356D01*
X0744707Y0009356D01*
X0715196Y0009523D02*
X0715196Y0009856D01*
X0715029Y0010023D01*
X0714195Y0010023D01*
X0714195Y0009356D02*
X0715029Y0009356D01*
X0715196Y0009523D01*
X0775219Y0009356D02*
X0776053Y0009356D01*
X0776219Y0009523D01*
X0776219Y0009856D01*
X0776053Y0010023D01*
X0775219Y0010023D01*
X0775385Y0010461D02*
X0775219Y0010628D01*
X0775219Y0010961D01*
X0775385Y0011128D01*
X0775552Y0011128D01*
X0776219Y0010461D01*
X0776219Y0011128D01*
X0776053Y0011566D02*
X0776219Y0011733D01*
X0776219Y0012066D01*
X0776053Y0012233D01*
X0775886Y0012233D01*
X0775719Y0012066D01*
X0775719Y0011566D01*
X0776053Y0011566D01*
X0775719Y0011566D02*
X0775385Y0011899D01*
X0775219Y0012233D01*
X0805730Y0012233D02*
X0805730Y0011566D01*
X0805897Y0011128D02*
X0805730Y0010961D01*
X0805730Y0010628D01*
X0805897Y0010461D01*
X0805730Y0010023D02*
X0806564Y0010023D01*
X0806731Y0009856D01*
X0806731Y0009523D01*
X0806564Y0009356D01*
X0805730Y0009356D01*
X0806731Y0010461D02*
X0806064Y0011128D01*
X0805897Y0011128D01*
X0806564Y0011566D02*
X0806731Y0011566D01*
X0806564Y0011566D02*
X0805897Y0012233D01*
X0805730Y0012233D01*
X0806731Y0011128D02*
X0806731Y0010461D01*
X0836242Y0010628D02*
X0836409Y0010461D01*
X0836242Y0010628D02*
X0836242Y0010961D01*
X0836409Y0011128D01*
X0836576Y0011128D01*
X0837243Y0010461D01*
X0837243Y0011128D01*
X0837076Y0011566D02*
X0836909Y0011566D01*
X0836743Y0011733D01*
X0836743Y0012066D01*
X0836909Y0012233D01*
X0837076Y0012233D01*
X0837243Y0012066D01*
X0837243Y0011733D01*
X0837076Y0011566D01*
X0836743Y0011733D02*
X0836576Y0011566D01*
X0836409Y0011566D01*
X0836242Y0011733D01*
X0836242Y0012066D01*
X0836409Y0012233D01*
X0836576Y0012233D01*
X0836743Y0012066D01*
X0866754Y0012066D02*
X0866754Y0011733D01*
X0866921Y0011566D01*
X0867088Y0011566D01*
X0867254Y0011733D01*
X0867254Y0012233D01*
X0866921Y0012233D02*
X0866754Y0012066D01*
X0866921Y0012233D02*
X0867588Y0012233D01*
X0867755Y0012066D01*
X0867755Y0011733D01*
X0867588Y0011566D01*
X0867755Y0011128D02*
X0867755Y0010461D01*
X0867088Y0011128D01*
X0866921Y0011128D01*
X0866754Y0010961D01*
X0866754Y0010628D01*
X0866921Y0010461D01*
X0866754Y0010023D02*
X0867588Y0010023D01*
X0867755Y0009856D01*
X0867755Y0009523D01*
X0867588Y0009356D01*
X0866754Y0009356D01*
X0837243Y0009523D02*
X0837243Y0009856D01*
X0837076Y0010023D01*
X0836242Y0010023D01*
X0836242Y0009356D02*
X0837076Y0009356D01*
X0837243Y0009523D01*
X0897266Y0009356D02*
X0898100Y0009356D01*
X0898267Y0009523D01*
X0898267Y0009856D01*
X0898100Y0010023D01*
X0897266Y0010023D01*
X0897433Y0010461D02*
X0897266Y0010628D01*
X0897266Y0010961D01*
X0897433Y0011128D01*
X0897599Y0011128D01*
X0897766Y0010961D01*
X0897933Y0011128D01*
X0898100Y0011128D01*
X0898267Y0010961D01*
X0898267Y0010628D01*
X0898100Y0010461D01*
X0897766Y0010794D02*
X0897766Y0010961D01*
X0897433Y0011566D02*
X0897266Y0011733D01*
X0897266Y0012066D01*
X0897433Y0012233D01*
X0898100Y0011566D01*
X0898267Y0011733D01*
X0898267Y0012066D01*
X0898100Y0012233D01*
X0897433Y0012233D01*
X0897433Y0011566D02*
X0898100Y0011566D01*
X0927778Y0011899D02*
X0928111Y0011566D01*
X0928111Y0011128D02*
X0928278Y0010961D01*
X0928445Y0011128D01*
X0928612Y0011128D01*
X0928778Y0010961D01*
X0928778Y0010628D01*
X0928612Y0010461D01*
X0928612Y0010023D02*
X0927778Y0010023D01*
X0927944Y0010461D02*
X0927778Y0010628D01*
X0927778Y0010961D01*
X0927944Y0011128D01*
X0928111Y0011128D01*
X0928278Y0010961D02*
X0928278Y0010794D01*
X0928612Y0010023D02*
X0928778Y0009856D01*
X0928778Y0009523D01*
X0928612Y0009356D01*
X0927778Y0009356D01*
X0958289Y0009356D02*
X0959123Y0009356D01*
X0959290Y0009523D01*
X0959290Y0009856D01*
X0959123Y0010023D01*
X0958289Y0010023D01*
X0958456Y0010461D02*
X0958289Y0010628D01*
X0958289Y0010961D01*
X0958456Y0011128D01*
X0958623Y0011128D01*
X0958790Y0010961D01*
X0958957Y0011128D01*
X0959123Y0011128D01*
X0959290Y0010961D01*
X0959290Y0010628D01*
X0959123Y0010461D01*
X0958790Y0010794D02*
X0958790Y0010961D01*
X0958456Y0011566D02*
X0958289Y0011733D01*
X0958289Y0012066D01*
X0958456Y0012233D01*
X0958623Y0012233D01*
X0959290Y0011566D01*
X0959290Y0012233D01*
X0928778Y0012233D02*
X0928778Y0011566D01*
X0928778Y0011899D02*
X0927778Y0011899D01*
X0654172Y0009856D02*
X0654172Y0009523D01*
X0654005Y0009356D01*
X0653171Y0009356D01*
X0653171Y0010023D02*
X0654005Y0010023D01*
X0654172Y0009856D01*
X0500779Y0012233D02*
X0500612Y0012233D01*
X0500642Y0025576D02*
X0501310Y0025576D01*
X0500976Y0025576D02*
X0500976Y0026577D01*
X0500642Y0026244D01*
X0500205Y0026410D02*
X0500038Y0026577D01*
X0499704Y0026577D01*
X0499538Y0026410D01*
X0499538Y0025743D01*
X0499704Y0025576D01*
X0500038Y0025576D01*
X0500205Y0025743D01*
X0501747Y0025743D02*
X0501747Y0025576D01*
X0501747Y0025743D02*
X0502415Y0026410D01*
X0502415Y0026577D01*
X0501747Y0026577D01*
X0530049Y0026410D02*
X0530049Y0025743D01*
X0530216Y0025576D01*
X0530550Y0025576D01*
X0530717Y0025743D01*
X0531154Y0025576D02*
X0531821Y0025576D01*
X0531488Y0025576D02*
X0531488Y0026577D01*
X0531154Y0026244D01*
X0530717Y0026410D02*
X0530550Y0026577D01*
X0530216Y0026577D01*
X0530049Y0026410D01*
X0532259Y0026410D02*
X0532259Y0026244D01*
X0532426Y0026077D01*
X0532760Y0026077D01*
X0532926Y0025910D01*
X0532926Y0025743D01*
X0532760Y0025576D01*
X0532426Y0025576D01*
X0532259Y0025743D01*
X0532259Y0025910D01*
X0532426Y0026077D01*
X0532760Y0026077D02*
X0532926Y0026244D01*
X0532926Y0026410D01*
X0532760Y0026577D01*
X0532426Y0026577D01*
X0532259Y0026410D01*
X0560561Y0026410D02*
X0560561Y0025743D01*
X0560728Y0025576D01*
X0561062Y0025576D01*
X0561228Y0025743D01*
X0561666Y0025576D02*
X0562333Y0025576D01*
X0562000Y0025576D02*
X0562000Y0026577D01*
X0561666Y0026244D01*
X0561228Y0026410D02*
X0561062Y0026577D01*
X0560728Y0026577D01*
X0560561Y0026410D01*
X0562771Y0026410D02*
X0562771Y0026244D01*
X0562938Y0026077D01*
X0563438Y0026077D01*
X0563438Y0026410D02*
X0563271Y0026577D01*
X0562938Y0026577D01*
X0562771Y0026410D01*
X0562771Y0025743D02*
X0562938Y0025576D01*
X0563271Y0025576D01*
X0563438Y0025743D01*
X0563438Y0026410D01*
X0591073Y0026410D02*
X0591073Y0025743D01*
X0591240Y0025576D01*
X0591573Y0025576D01*
X0591740Y0025743D01*
X0592178Y0025576D02*
X0592845Y0026244D01*
X0592845Y0026410D01*
X0592678Y0026577D01*
X0592345Y0026577D01*
X0592178Y0026410D01*
X0591740Y0026410D02*
X0591573Y0026577D01*
X0591240Y0026577D01*
X0591073Y0026410D01*
X0593283Y0026410D02*
X0593283Y0025743D01*
X0593950Y0026410D01*
X0593950Y0025743D01*
X0593783Y0025576D01*
X0593450Y0025576D01*
X0593283Y0025743D01*
X0592845Y0025576D02*
X0592178Y0025576D01*
X0593283Y0026410D02*
X0593450Y0026577D01*
X0593783Y0026577D01*
X0593950Y0026410D01*
X0621585Y0026410D02*
X0621585Y0025743D01*
X0621752Y0025576D01*
X0622085Y0025576D01*
X0622252Y0025743D01*
X0622690Y0025576D02*
X0623357Y0026244D01*
X0623357Y0026410D01*
X0623190Y0026577D01*
X0622856Y0026577D01*
X0622690Y0026410D01*
X0622252Y0026410D02*
X0622085Y0026577D01*
X0621752Y0026577D01*
X0621585Y0026410D01*
X0623795Y0026244D02*
X0624128Y0026577D01*
X0624128Y0025576D01*
X0623795Y0025576D02*
X0624462Y0025576D01*
X0623357Y0025576D02*
X0622690Y0025576D01*
X0652097Y0025743D02*
X0652263Y0025576D01*
X0652597Y0025576D01*
X0652764Y0025743D01*
X0653202Y0025576D02*
X0653869Y0026244D01*
X0653869Y0026410D01*
X0653702Y0026577D01*
X0653368Y0026577D01*
X0653202Y0026410D01*
X0652764Y0026410D02*
X0652597Y0026577D01*
X0652263Y0026577D01*
X0652097Y0026410D01*
X0652097Y0025743D01*
X0653202Y0025576D02*
X0653869Y0025576D01*
X0654306Y0025576D02*
X0654974Y0026244D01*
X0654974Y0026410D01*
X0654807Y0026577D01*
X0654473Y0026577D01*
X0654306Y0026410D01*
X0654306Y0025576D02*
X0654974Y0025576D01*
X0682608Y0025743D02*
X0682775Y0025576D01*
X0683109Y0025576D01*
X0683276Y0025743D01*
X0683713Y0025576D02*
X0684381Y0026244D01*
X0684381Y0026410D01*
X0684214Y0026577D01*
X0683880Y0026577D01*
X0683713Y0026410D01*
X0683276Y0026410D02*
X0683109Y0026577D01*
X0682775Y0026577D01*
X0682608Y0026410D01*
X0682608Y0025743D01*
X0683713Y0025576D02*
X0684381Y0025576D01*
X0684818Y0025743D02*
X0684985Y0025576D01*
X0685319Y0025576D01*
X0685485Y0025743D01*
X0685485Y0025910D01*
X0685319Y0026077D01*
X0685152Y0026077D01*
X0685319Y0026077D02*
X0685485Y0026244D01*
X0685485Y0026410D01*
X0685319Y0026577D01*
X0684985Y0026577D01*
X0684818Y0026410D01*
X0713120Y0026410D02*
X0713120Y0025743D01*
X0713287Y0025576D01*
X0713621Y0025576D01*
X0713787Y0025743D01*
X0714225Y0025576D02*
X0714892Y0026244D01*
X0714892Y0026410D01*
X0714726Y0026577D01*
X0714392Y0026577D01*
X0714225Y0026410D01*
X0713787Y0026410D02*
X0713621Y0026577D01*
X0713287Y0026577D01*
X0713120Y0026410D01*
X0715330Y0026077D02*
X0715997Y0026077D01*
X0715830Y0026577D02*
X0715330Y0026077D01*
X0715830Y0025576D02*
X0715830Y0026577D01*
X0714892Y0025576D02*
X0714225Y0025576D01*
X0743632Y0025743D02*
X0743799Y0025576D01*
X0744132Y0025576D01*
X0744299Y0025743D01*
X0744737Y0025576D02*
X0745404Y0026244D01*
X0745404Y0026410D01*
X0745237Y0026577D01*
X0744904Y0026577D01*
X0744737Y0026410D01*
X0744299Y0026410D02*
X0744132Y0026577D01*
X0743799Y0026577D01*
X0743632Y0026410D01*
X0743632Y0025743D01*
X0744737Y0025576D02*
X0745404Y0025576D01*
X0745842Y0025743D02*
X0746009Y0025576D01*
X0746342Y0025576D01*
X0746509Y0025743D01*
X0746509Y0026077D01*
X0746342Y0026244D01*
X0746175Y0026244D01*
X0745842Y0026077D01*
X0745842Y0026577D01*
X0746509Y0026577D01*
X0774144Y0026410D02*
X0774144Y0025743D01*
X0774311Y0025576D01*
X0774644Y0025576D01*
X0774811Y0025743D01*
X0775249Y0025576D02*
X0775916Y0026244D01*
X0775916Y0026410D01*
X0775749Y0026577D01*
X0775416Y0026577D01*
X0775249Y0026410D01*
X0774811Y0026410D02*
X0774644Y0026577D01*
X0774311Y0026577D01*
X0774144Y0026410D01*
X0776354Y0026077D02*
X0776854Y0026077D01*
X0777021Y0025910D01*
X0777021Y0025743D01*
X0776854Y0025576D01*
X0776520Y0025576D01*
X0776354Y0025743D01*
X0776354Y0026077D01*
X0776687Y0026410D01*
X0777021Y0026577D01*
X0775916Y0025576D02*
X0775249Y0025576D01*
X0804656Y0025743D02*
X0804822Y0025576D01*
X0805156Y0025576D01*
X0805323Y0025743D01*
X0805761Y0025576D02*
X0806428Y0026244D01*
X0806428Y0026410D01*
X0806261Y0026577D01*
X0805927Y0026577D01*
X0805761Y0026410D01*
X0805323Y0026410D02*
X0805156Y0026577D01*
X0804822Y0026577D01*
X0804656Y0026410D01*
X0804656Y0025743D01*
X0805761Y0025576D02*
X0806428Y0025576D01*
X0806865Y0025576D02*
X0806865Y0025743D01*
X0807533Y0026410D01*
X0807533Y0026577D01*
X0806865Y0026577D01*
X0835167Y0026410D02*
X0835167Y0025743D01*
X0835334Y0025576D01*
X0835668Y0025576D01*
X0835835Y0025743D01*
X0836272Y0025576D02*
X0836940Y0026244D01*
X0836940Y0026410D01*
X0836773Y0026577D01*
X0836439Y0026577D01*
X0836272Y0026410D01*
X0835835Y0026410D02*
X0835668Y0026577D01*
X0835334Y0026577D01*
X0835167Y0026410D01*
X0837377Y0026410D02*
X0837377Y0026244D01*
X0837544Y0026077D01*
X0837878Y0026077D01*
X0838045Y0025910D01*
X0838045Y0025743D01*
X0837878Y0025576D01*
X0837544Y0025576D01*
X0837377Y0025743D01*
X0837377Y0025910D01*
X0837544Y0026077D01*
X0837878Y0026077D02*
X0838045Y0026244D01*
X0838045Y0026410D01*
X0837878Y0026577D01*
X0837544Y0026577D01*
X0837377Y0026410D01*
X0836940Y0025576D02*
X0836272Y0025576D01*
X0865679Y0025743D02*
X0865846Y0025576D01*
X0866180Y0025576D01*
X0866346Y0025743D01*
X0866784Y0025576D02*
X0867451Y0026244D01*
X0867451Y0026410D01*
X0867285Y0026577D01*
X0866951Y0026577D01*
X0866784Y0026410D01*
X0866346Y0026410D02*
X0866180Y0026577D01*
X0865846Y0026577D01*
X0865679Y0026410D01*
X0865679Y0025743D01*
X0866784Y0025576D02*
X0867451Y0025576D01*
X0867889Y0025743D02*
X0868056Y0025576D01*
X0868390Y0025576D01*
X0868556Y0025743D01*
X0868556Y0026410D01*
X0868390Y0026577D01*
X0868056Y0026577D01*
X0867889Y0026410D01*
X0867889Y0026244D01*
X0868056Y0026077D01*
X0868556Y0026077D01*
X0896191Y0025743D02*
X0896358Y0025576D01*
X0896691Y0025576D01*
X0896858Y0025743D01*
X0897296Y0025743D02*
X0897463Y0025576D01*
X0897796Y0025576D01*
X0897963Y0025743D01*
X0897963Y0025910D01*
X0897796Y0026077D01*
X0897630Y0026077D01*
X0897796Y0026077D02*
X0897963Y0026244D01*
X0897963Y0026410D01*
X0897796Y0026577D01*
X0897463Y0026577D01*
X0897296Y0026410D01*
X0896858Y0026410D02*
X0896691Y0026577D01*
X0896358Y0026577D01*
X0896191Y0026410D01*
X0896191Y0025743D01*
X0898401Y0025743D02*
X0899068Y0026410D01*
X0899068Y0025743D01*
X0898901Y0025576D01*
X0898568Y0025576D01*
X0898401Y0025743D01*
X0898401Y0026410D01*
X0898568Y0026577D01*
X0898901Y0026577D01*
X0899068Y0026410D01*
X0926703Y0026410D02*
X0926703Y0025743D01*
X0926870Y0025576D01*
X0927203Y0025576D01*
X0927370Y0025743D01*
X0927808Y0025743D02*
X0927975Y0025576D01*
X0928308Y0025576D01*
X0928475Y0025743D01*
X0928475Y0025910D01*
X0928308Y0026077D01*
X0928141Y0026077D01*
X0928308Y0026077D02*
X0928475Y0026244D01*
X0928475Y0026410D01*
X0928308Y0026577D01*
X0927975Y0026577D01*
X0927808Y0026410D01*
X0927370Y0026410D02*
X0927203Y0026577D01*
X0926870Y0026577D01*
X0926703Y0026410D01*
X0928913Y0026244D02*
X0929246Y0026577D01*
X0929246Y0025576D01*
X0928913Y0025576D02*
X0929580Y0025576D01*
X0957215Y0025743D02*
X0957215Y0026410D01*
X0957381Y0026577D01*
X0957715Y0026577D01*
X0957882Y0026410D01*
X0958320Y0026410D02*
X0958486Y0026577D01*
X0958820Y0026577D01*
X0958987Y0026410D01*
X0958987Y0026244D01*
X0958820Y0026077D01*
X0958987Y0025910D01*
X0958987Y0025743D01*
X0958820Y0025576D01*
X0958486Y0025576D01*
X0958320Y0025743D01*
X0957882Y0025743D02*
X0957715Y0025576D01*
X0957381Y0025576D01*
X0957215Y0025743D01*
X0958653Y0026077D02*
X0958820Y0026077D01*
X0959425Y0026410D02*
X0959591Y0026577D01*
X0959925Y0026577D01*
X0960092Y0026410D01*
X0960092Y0026244D01*
X0959425Y0025576D01*
X0960092Y0025576D01*
X0959689Y0028076D02*
X0959856Y0028243D01*
X0959856Y0028410D01*
X0959689Y0028577D01*
X0959188Y0028577D01*
X0959188Y0028243D01*
X0959355Y0028076D01*
X0959689Y0028076D01*
X0959188Y0028577D02*
X0959522Y0028910D01*
X0959856Y0029077D01*
X0958751Y0028910D02*
X0958584Y0029077D01*
X0958250Y0029077D01*
X0958083Y0028910D01*
X0958083Y0028744D01*
X0958250Y0028577D01*
X0958751Y0028577D01*
X0958751Y0028910D02*
X0958751Y0028243D01*
X0958584Y0028076D01*
X0958250Y0028076D01*
X0958083Y0028243D01*
X0957646Y0028076D02*
X0957312Y0028410D01*
X0957479Y0028410D02*
X0956978Y0028410D01*
X0956978Y0028076D02*
X0956978Y0029077D01*
X0957479Y0029077D01*
X0957646Y0028910D01*
X0957646Y0028577D01*
X0957479Y0028410D01*
X0954265Y0029376D02*
X0953598Y0029376D01*
X0953931Y0029376D02*
X0953931Y0030376D01*
X0953598Y0030043D01*
X0953160Y0030210D02*
X0953160Y0029542D01*
X0952993Y0029376D01*
X0952660Y0029376D01*
X0952493Y0029542D01*
X0952660Y0029876D02*
X0953160Y0029876D01*
X0953160Y0030210D02*
X0952993Y0030376D01*
X0952660Y0030376D01*
X0952493Y0030210D01*
X0952493Y0030043D01*
X0952660Y0029876D01*
X0952055Y0029876D02*
X0951888Y0029709D01*
X0951388Y0029709D01*
X0951388Y0029376D02*
X0951388Y0030376D01*
X0951888Y0030376D01*
X0952055Y0030210D01*
X0952055Y0029876D01*
X0951722Y0029709D02*
X0952055Y0029376D01*
X0929344Y0028910D02*
X0929344Y0028744D01*
X0929177Y0028577D01*
X0929344Y0028410D01*
X0929344Y0028243D01*
X0929177Y0028076D01*
X0928843Y0028076D01*
X0928677Y0028243D01*
X0928239Y0028243D02*
X0928239Y0028910D01*
X0928072Y0029077D01*
X0927738Y0029077D01*
X0927572Y0028910D01*
X0927572Y0028744D01*
X0927738Y0028577D01*
X0928239Y0028577D01*
X0928239Y0028243D02*
X0928072Y0028076D01*
X0927738Y0028076D01*
X0927572Y0028243D01*
X0927134Y0028076D02*
X0926800Y0028410D01*
X0926967Y0028410D02*
X0926467Y0028410D01*
X0926467Y0028076D02*
X0926467Y0029077D01*
X0926967Y0029077D01*
X0927134Y0028910D01*
X0927134Y0028577D01*
X0926967Y0028410D01*
X0929010Y0028577D02*
X0929177Y0028577D01*
X0929344Y0028910D02*
X0929177Y0029077D01*
X0928843Y0029077D01*
X0928677Y0028910D01*
X0923753Y0029542D02*
X0923586Y0029376D01*
X0923253Y0029376D01*
X0923086Y0029542D01*
X0923086Y0029709D01*
X0923253Y0029876D01*
X0923586Y0029876D01*
X0923753Y0029709D01*
X0923753Y0029542D01*
X0923586Y0029876D02*
X0923753Y0030043D01*
X0923753Y0030210D01*
X0923586Y0030376D01*
X0923253Y0030376D01*
X0923086Y0030210D01*
X0923086Y0030043D01*
X0923253Y0029876D01*
X0922648Y0029709D02*
X0922648Y0029542D01*
X0922481Y0029376D01*
X0922148Y0029376D01*
X0921981Y0029542D01*
X0921981Y0029709D01*
X0922148Y0029876D01*
X0922481Y0029876D01*
X0922648Y0029709D01*
X0922481Y0029876D02*
X0922648Y0030043D01*
X0922648Y0030210D01*
X0922481Y0030376D01*
X0922148Y0030376D01*
X0921981Y0030210D01*
X0921981Y0030043D01*
X0922148Y0029876D01*
X0921543Y0029876D02*
X0921377Y0029709D01*
X0920876Y0029709D01*
X0920876Y0029376D02*
X0920876Y0030376D01*
X0921377Y0030376D01*
X0921543Y0030210D01*
X0921543Y0029876D01*
X0921210Y0029709D02*
X0921543Y0029376D01*
X0898832Y0028910D02*
X0898165Y0028243D01*
X0898332Y0028076D01*
X0898665Y0028076D01*
X0898832Y0028243D01*
X0898832Y0028910D01*
X0898665Y0029077D01*
X0898332Y0029077D01*
X0898165Y0028910D01*
X0898165Y0028243D01*
X0897727Y0028243D02*
X0897727Y0028910D01*
X0897560Y0029077D01*
X0897227Y0029077D01*
X0897060Y0028910D01*
X0897060Y0028744D01*
X0897227Y0028577D01*
X0897727Y0028577D01*
X0897727Y0028243D02*
X0897560Y0028076D01*
X0897227Y0028076D01*
X0897060Y0028243D01*
X0896622Y0028076D02*
X0896288Y0028410D01*
X0896455Y0028410D02*
X0895955Y0028410D01*
X0895955Y0028076D02*
X0895955Y0029077D01*
X0896455Y0029077D01*
X0896622Y0028910D01*
X0896622Y0028577D01*
X0896455Y0028410D01*
X0893241Y0029542D02*
X0893075Y0029376D01*
X0892741Y0029376D01*
X0892574Y0029542D01*
X0892574Y0029876D02*
X0892908Y0030043D01*
X0893075Y0030043D01*
X0893241Y0029876D01*
X0893241Y0029542D01*
X0892574Y0029876D02*
X0892574Y0030376D01*
X0893241Y0030376D01*
X0892136Y0030210D02*
X0892136Y0030043D01*
X0891970Y0029876D01*
X0891636Y0029876D01*
X0891469Y0030043D01*
X0891469Y0030210D01*
X0891636Y0030376D01*
X0891970Y0030376D01*
X0892136Y0030210D01*
X0891970Y0029876D02*
X0892136Y0029709D01*
X0892136Y0029542D01*
X0891970Y0029376D01*
X0891636Y0029376D01*
X0891469Y0029542D01*
X0891469Y0029709D01*
X0891636Y0029876D01*
X0891032Y0029876D02*
X0890865Y0029709D01*
X0890364Y0029709D01*
X0890364Y0029376D02*
X0890364Y0030376D01*
X0890865Y0030376D01*
X0891032Y0030210D01*
X0891032Y0029876D01*
X0890698Y0029709D02*
X0891032Y0029376D01*
X0868320Y0029077D02*
X0868320Y0028910D01*
X0867653Y0028243D01*
X0867653Y0028076D01*
X0867215Y0028243D02*
X0867048Y0028076D01*
X0866715Y0028076D01*
X0866548Y0028243D01*
X0866548Y0028410D01*
X0866715Y0028577D01*
X0867048Y0028577D01*
X0867215Y0028410D01*
X0867215Y0028243D01*
X0867048Y0028577D02*
X0867215Y0028744D01*
X0867215Y0028910D01*
X0867048Y0029077D01*
X0866715Y0029077D01*
X0866548Y0028910D01*
X0866548Y0028744D01*
X0866715Y0028577D01*
X0866110Y0028577D02*
X0865943Y0028410D01*
X0865443Y0028410D01*
X0865443Y0028076D02*
X0865443Y0029077D01*
X0865943Y0029077D01*
X0866110Y0028910D01*
X0866110Y0028577D01*
X0865777Y0028410D02*
X0866110Y0028076D01*
X0867653Y0029077D02*
X0868320Y0029077D01*
X0862730Y0029376D02*
X0862062Y0029376D01*
X0862730Y0030043D01*
X0862730Y0030210D01*
X0862563Y0030376D01*
X0862229Y0030376D01*
X0862062Y0030210D01*
X0861625Y0030210D02*
X0861625Y0030043D01*
X0861458Y0029876D01*
X0861124Y0029876D01*
X0860957Y0030043D01*
X0860957Y0030210D01*
X0861124Y0030376D01*
X0861458Y0030376D01*
X0861625Y0030210D01*
X0861458Y0029876D02*
X0861625Y0029709D01*
X0861625Y0029542D01*
X0861458Y0029376D01*
X0861124Y0029376D01*
X0860957Y0029542D01*
X0860957Y0029709D01*
X0861124Y0029876D01*
X0860520Y0029876D02*
X0860353Y0029709D01*
X0859852Y0029709D01*
X0859852Y0029376D02*
X0859852Y0030376D01*
X0860353Y0030376D01*
X0860520Y0030210D01*
X0860520Y0029876D01*
X0860186Y0029709D02*
X0860520Y0029376D01*
X0837808Y0028577D02*
X0837141Y0028577D01*
X0837641Y0029077D01*
X0837641Y0028076D01*
X0836703Y0028243D02*
X0836537Y0028076D01*
X0836203Y0028076D01*
X0836036Y0028243D01*
X0836036Y0028410D01*
X0836203Y0028577D01*
X0836537Y0028577D01*
X0836703Y0028410D01*
X0836703Y0028243D01*
X0836537Y0028577D02*
X0836703Y0028744D01*
X0836703Y0028910D01*
X0836537Y0029077D01*
X0836203Y0029077D01*
X0836036Y0028910D01*
X0836036Y0028744D01*
X0836203Y0028577D01*
X0835598Y0028577D02*
X0835432Y0028410D01*
X0834931Y0028410D01*
X0834931Y0028076D02*
X0834931Y0029077D01*
X0835432Y0029077D01*
X0835598Y0028910D01*
X0835598Y0028577D01*
X0835265Y0028410D02*
X0835598Y0028076D01*
X0832218Y0029542D02*
X0832218Y0030210D01*
X0832051Y0030376D01*
X0831717Y0030376D01*
X0831551Y0030210D01*
X0831551Y0030043D01*
X0831717Y0029876D01*
X0832218Y0029876D01*
X0832218Y0029542D02*
X0832051Y0029376D01*
X0831717Y0029376D01*
X0831551Y0029542D01*
X0831113Y0030210D02*
X0830446Y0029542D01*
X0830446Y0029376D01*
X0830008Y0029376D02*
X0829674Y0029709D01*
X0829841Y0029709D02*
X0829341Y0029709D01*
X0829341Y0029376D02*
X0829341Y0030376D01*
X0829841Y0030376D01*
X0830008Y0030210D01*
X0830008Y0029876D01*
X0829841Y0029709D01*
X0830446Y0030376D02*
X0831113Y0030376D01*
X0831113Y0030210D01*
X0806963Y0029077D02*
X0806963Y0028076D01*
X0806629Y0028076D02*
X0807297Y0028076D01*
X0806629Y0028744D02*
X0806963Y0029077D01*
X0806192Y0028910D02*
X0806192Y0028744D01*
X0806025Y0028577D01*
X0805691Y0028577D01*
X0805524Y0028744D01*
X0805524Y0028910D01*
X0805691Y0029077D01*
X0806025Y0029077D01*
X0806192Y0028910D01*
X0806025Y0028577D02*
X0806192Y0028410D01*
X0806192Y0028243D01*
X0806025Y0028076D01*
X0805691Y0028076D01*
X0805524Y0028243D01*
X0805524Y0028410D01*
X0805691Y0028577D01*
X0805087Y0028577D02*
X0804920Y0028410D01*
X0804419Y0028410D01*
X0804419Y0028076D02*
X0804419Y0029077D01*
X0804920Y0029077D01*
X0805087Y0028910D01*
X0805087Y0028577D01*
X0804753Y0028410D02*
X0805087Y0028076D01*
X0801706Y0029542D02*
X0801706Y0029709D01*
X0801539Y0029876D01*
X0801039Y0029876D01*
X0801039Y0029542D01*
X0801206Y0029376D01*
X0801539Y0029376D01*
X0801706Y0029542D01*
X0801039Y0029876D02*
X0801372Y0030210D01*
X0801706Y0030376D01*
X0800601Y0030376D02*
X0800601Y0030210D01*
X0799934Y0029542D01*
X0799934Y0029376D01*
X0799496Y0029376D02*
X0799162Y0029709D01*
X0799329Y0029709D02*
X0798829Y0029709D01*
X0798829Y0029376D02*
X0798829Y0030376D01*
X0799329Y0030376D01*
X0799496Y0030210D01*
X0799496Y0029876D01*
X0799329Y0029709D01*
X0799934Y0030376D02*
X0800601Y0030376D01*
X0771194Y0030210D02*
X0771194Y0030043D01*
X0771027Y0029876D01*
X0771194Y0029709D01*
X0771194Y0029542D01*
X0771027Y0029376D01*
X0770694Y0029376D01*
X0770527Y0029542D01*
X0770861Y0029876D02*
X0771027Y0029876D01*
X0771194Y0030210D02*
X0771027Y0030376D01*
X0770694Y0030376D01*
X0770527Y0030210D01*
X0770089Y0030210D02*
X0769422Y0029542D01*
X0769422Y0029376D01*
X0768984Y0029376D02*
X0768651Y0029709D01*
X0768817Y0029709D02*
X0768317Y0029709D01*
X0768317Y0029376D02*
X0768317Y0030376D01*
X0768817Y0030376D01*
X0768984Y0030210D01*
X0768984Y0029876D01*
X0768817Y0029709D01*
X0769422Y0030376D02*
X0770089Y0030376D01*
X0770089Y0030210D01*
X0773908Y0029077D02*
X0774408Y0029077D01*
X0774575Y0028910D01*
X0774575Y0028577D01*
X0774408Y0028410D01*
X0773908Y0028410D01*
X0774241Y0028410D02*
X0774575Y0028076D01*
X0775013Y0028076D02*
X0775013Y0028243D01*
X0775680Y0028910D01*
X0775680Y0029077D01*
X0775013Y0029077D01*
X0773908Y0029077D02*
X0773908Y0028076D01*
X0776117Y0028243D02*
X0776117Y0028410D01*
X0776284Y0028577D01*
X0776618Y0028577D01*
X0776785Y0028410D01*
X0776785Y0028243D01*
X0776618Y0028076D01*
X0776284Y0028076D01*
X0776117Y0028243D01*
X0776284Y0028577D02*
X0776117Y0028744D01*
X0776117Y0028910D01*
X0776284Y0029077D01*
X0776618Y0029077D01*
X0776785Y0028910D01*
X0776785Y0028744D01*
X0776618Y0028577D01*
X0746273Y0028577D02*
X0746273Y0028243D01*
X0746106Y0028076D01*
X0745772Y0028076D01*
X0745606Y0028243D01*
X0745606Y0028577D02*
X0745939Y0028744D01*
X0746106Y0028744D01*
X0746273Y0028577D01*
X0746273Y0029077D02*
X0745606Y0029077D01*
X0745606Y0028577D01*
X0745168Y0028910D02*
X0744501Y0028243D01*
X0744501Y0028076D01*
X0744063Y0028076D02*
X0743729Y0028410D01*
X0743896Y0028410D02*
X0743396Y0028410D01*
X0743396Y0028076D02*
X0743396Y0029077D01*
X0743896Y0029077D01*
X0744063Y0028910D01*
X0744063Y0028577D01*
X0743896Y0028410D01*
X0744501Y0029077D02*
X0745168Y0029077D01*
X0745168Y0028910D01*
X0740682Y0029542D02*
X0740516Y0029376D01*
X0740182Y0029376D01*
X0740015Y0029542D01*
X0740682Y0030210D01*
X0740682Y0029542D01*
X0740015Y0029542D02*
X0740015Y0030210D01*
X0740182Y0030376D01*
X0740516Y0030376D01*
X0740682Y0030210D01*
X0739577Y0030210D02*
X0738910Y0029542D01*
X0738910Y0029376D01*
X0738472Y0029376D02*
X0738139Y0029709D01*
X0738306Y0029709D02*
X0737805Y0029709D01*
X0737805Y0029376D02*
X0737805Y0030376D01*
X0738306Y0030376D01*
X0738472Y0030210D01*
X0738472Y0029876D01*
X0738306Y0029709D01*
X0738910Y0030376D02*
X0739577Y0030376D01*
X0739577Y0030210D01*
X0715761Y0028910D02*
X0715594Y0029077D01*
X0715261Y0029077D01*
X0715094Y0028910D01*
X0714656Y0028910D02*
X0713989Y0028243D01*
X0713989Y0028076D01*
X0713551Y0028076D02*
X0713218Y0028410D01*
X0713384Y0028410D02*
X0712884Y0028410D01*
X0712884Y0028076D02*
X0712884Y0029077D01*
X0713384Y0029077D01*
X0713551Y0028910D01*
X0713551Y0028577D01*
X0713384Y0028410D01*
X0715094Y0028076D02*
X0715761Y0028744D01*
X0715761Y0028910D01*
X0714656Y0028910D02*
X0714656Y0029077D01*
X0713989Y0029077D01*
X0710171Y0030210D02*
X0709503Y0029542D01*
X0709503Y0029376D01*
X0709066Y0029542D02*
X0709066Y0029709D01*
X0708899Y0029876D01*
X0708398Y0029876D01*
X0708398Y0029542D01*
X0708565Y0029376D01*
X0708899Y0029376D01*
X0709066Y0029542D01*
X0708732Y0030210D02*
X0708398Y0029876D01*
X0707961Y0029876D02*
X0707794Y0029709D01*
X0707293Y0029709D01*
X0707293Y0029376D02*
X0707293Y0030376D01*
X0707794Y0030376D01*
X0707961Y0030210D01*
X0707961Y0029876D01*
X0707627Y0029709D02*
X0707961Y0029376D01*
X0708732Y0030210D02*
X0709066Y0030376D01*
X0709503Y0030376D02*
X0710171Y0030376D01*
X0710171Y0030210D01*
X0685249Y0028910D02*
X0685082Y0029077D01*
X0684749Y0029077D01*
X0684582Y0028910D01*
X0684582Y0028744D01*
X0684749Y0028577D01*
X0685249Y0028577D01*
X0685249Y0028910D02*
X0685249Y0028243D01*
X0685082Y0028076D01*
X0684749Y0028076D01*
X0684582Y0028243D01*
X0684144Y0028243D02*
X0684144Y0028410D01*
X0683978Y0028577D01*
X0683477Y0028577D01*
X0683477Y0028243D01*
X0683644Y0028076D01*
X0683978Y0028076D01*
X0684144Y0028243D01*
X0683811Y0028910D02*
X0683477Y0028577D01*
X0683039Y0028577D02*
X0682873Y0028410D01*
X0682372Y0028410D01*
X0682372Y0028076D02*
X0682372Y0029077D01*
X0682873Y0029077D01*
X0683039Y0028910D01*
X0683039Y0028577D01*
X0682706Y0028410D02*
X0683039Y0028076D01*
X0683811Y0028910D02*
X0684144Y0029077D01*
X0679492Y0029376D02*
X0679492Y0030376D01*
X0678991Y0029876D01*
X0679659Y0029876D01*
X0678554Y0029709D02*
X0678387Y0029876D01*
X0677887Y0029876D01*
X0677887Y0029542D01*
X0678053Y0029376D01*
X0678387Y0029376D01*
X0678554Y0029542D01*
X0678554Y0029709D01*
X0678220Y0030210D02*
X0677887Y0029876D01*
X0677449Y0029876D02*
X0677282Y0029709D01*
X0676782Y0029709D01*
X0677115Y0029709D02*
X0677449Y0029376D01*
X0677449Y0029876D02*
X0677449Y0030210D01*
X0677282Y0030376D01*
X0676782Y0030376D01*
X0676782Y0029376D01*
X0678220Y0030210D02*
X0678554Y0030376D01*
X0654737Y0029077D02*
X0654404Y0028910D01*
X0654070Y0028577D01*
X0654571Y0028577D01*
X0654737Y0028410D01*
X0654737Y0028243D01*
X0654571Y0028076D01*
X0654237Y0028076D01*
X0654070Y0028243D01*
X0654070Y0028577D01*
X0653633Y0028410D02*
X0653466Y0028577D01*
X0652965Y0028577D01*
X0652965Y0028243D01*
X0653132Y0028076D01*
X0653466Y0028076D01*
X0653633Y0028243D01*
X0653633Y0028410D01*
X0653299Y0028910D02*
X0652965Y0028577D01*
X0652528Y0028577D02*
X0652361Y0028410D01*
X0651860Y0028410D01*
X0651860Y0028076D02*
X0651860Y0029077D01*
X0652361Y0029077D01*
X0652528Y0028910D01*
X0652528Y0028577D01*
X0652194Y0028410D02*
X0652528Y0028076D01*
X0653299Y0028910D02*
X0653633Y0029077D01*
X0649147Y0029376D02*
X0648480Y0029376D01*
X0648813Y0029376D02*
X0648813Y0030376D01*
X0648480Y0030043D01*
X0648042Y0030376D02*
X0647708Y0030210D01*
X0647375Y0029876D01*
X0647875Y0029876D01*
X0648042Y0029709D01*
X0648042Y0029542D01*
X0647875Y0029376D01*
X0647542Y0029376D01*
X0647375Y0029542D01*
X0647375Y0029876D01*
X0646937Y0029876D02*
X0646770Y0029709D01*
X0646270Y0029709D01*
X0646603Y0029709D02*
X0646937Y0029376D01*
X0646937Y0029876D02*
X0646937Y0030210D01*
X0646770Y0030376D01*
X0646270Y0030376D01*
X0646270Y0029376D01*
X0624226Y0028910D02*
X0624226Y0028744D01*
X0624059Y0028577D01*
X0624226Y0028410D01*
X0624226Y0028243D01*
X0624059Y0028076D01*
X0623725Y0028076D01*
X0623558Y0028243D01*
X0623121Y0028243D02*
X0623121Y0028410D01*
X0622954Y0028577D01*
X0622453Y0028577D01*
X0622453Y0028243D01*
X0622620Y0028076D01*
X0622954Y0028076D01*
X0623121Y0028243D01*
X0622787Y0028910D02*
X0622453Y0028577D01*
X0622016Y0028577D02*
X0621849Y0028410D01*
X0621349Y0028410D01*
X0621682Y0028410D02*
X0622016Y0028076D01*
X0622016Y0028577D02*
X0622016Y0028910D01*
X0621849Y0029077D01*
X0621349Y0029077D01*
X0621349Y0028076D01*
X0623892Y0028577D02*
X0624059Y0028577D01*
X0624226Y0028910D02*
X0624059Y0029077D01*
X0623725Y0029077D01*
X0623558Y0028910D01*
X0623121Y0029077D02*
X0622787Y0028910D01*
X0618635Y0029542D02*
X0618468Y0029376D01*
X0618135Y0029376D01*
X0617968Y0029542D01*
X0617968Y0029709D01*
X0618135Y0029876D01*
X0618468Y0029876D01*
X0618635Y0029709D01*
X0618635Y0029542D01*
X0618468Y0029876D02*
X0618635Y0030043D01*
X0618635Y0030210D01*
X0618468Y0030376D01*
X0618135Y0030376D01*
X0617968Y0030210D01*
X0617968Y0030043D01*
X0618135Y0029876D01*
X0617530Y0029876D02*
X0617530Y0029542D01*
X0617363Y0029376D01*
X0617030Y0029376D01*
X0616863Y0029542D01*
X0616863Y0029876D02*
X0617197Y0030043D01*
X0617363Y0030043D01*
X0617530Y0029876D01*
X0617530Y0030376D02*
X0616863Y0030376D01*
X0616863Y0029876D01*
X0616425Y0029876D02*
X0616258Y0029709D01*
X0615758Y0029709D01*
X0615758Y0029376D02*
X0615758Y0030376D01*
X0616258Y0030376D01*
X0616425Y0030210D01*
X0616425Y0029876D01*
X0616092Y0029709D02*
X0616425Y0029376D01*
X0593714Y0028910D02*
X0593047Y0028243D01*
X0593213Y0028076D01*
X0593547Y0028076D01*
X0593714Y0028243D01*
X0593714Y0028910D01*
X0593547Y0029077D01*
X0593213Y0029077D01*
X0593047Y0028910D01*
X0593047Y0028243D01*
X0592609Y0028243D02*
X0592609Y0028410D01*
X0592442Y0028577D01*
X0591942Y0028577D01*
X0591942Y0028243D01*
X0592108Y0028076D01*
X0592442Y0028076D01*
X0592609Y0028243D01*
X0592275Y0028910D02*
X0591942Y0028577D01*
X0591504Y0028577D02*
X0591337Y0028410D01*
X0590837Y0028410D01*
X0591170Y0028410D02*
X0591504Y0028076D01*
X0591504Y0028577D02*
X0591504Y0028910D01*
X0591337Y0029077D01*
X0590837Y0029077D01*
X0590837Y0028076D01*
X0592275Y0028910D02*
X0592609Y0029077D01*
X0588123Y0029542D02*
X0587956Y0029376D01*
X0587623Y0029376D01*
X0587456Y0029542D01*
X0587456Y0029876D02*
X0587790Y0030043D01*
X0587956Y0030043D01*
X0588123Y0029876D01*
X0588123Y0029542D01*
X0587456Y0029876D02*
X0587456Y0030376D01*
X0588123Y0030376D01*
X0587018Y0030376D02*
X0586351Y0030376D01*
X0586351Y0029876D01*
X0586685Y0030043D01*
X0586852Y0030043D01*
X0587018Y0029876D01*
X0587018Y0029542D01*
X0586852Y0029376D01*
X0586518Y0029376D01*
X0586351Y0029542D01*
X0585913Y0029376D02*
X0585580Y0029709D01*
X0585747Y0029709D02*
X0585246Y0029709D01*
X0585246Y0029376D02*
X0585246Y0030376D01*
X0585747Y0030376D01*
X0585913Y0030210D01*
X0585913Y0029876D01*
X0585747Y0029709D01*
X0563202Y0029077D02*
X0563202Y0028910D01*
X0562535Y0028243D01*
X0562535Y0028076D01*
X0562097Y0028243D02*
X0561930Y0028076D01*
X0561597Y0028076D01*
X0561430Y0028243D01*
X0561430Y0028577D02*
X0561763Y0028744D01*
X0561930Y0028744D01*
X0562097Y0028577D01*
X0562097Y0028243D01*
X0561430Y0028577D02*
X0561430Y0029077D01*
X0562097Y0029077D01*
X0562535Y0029077D02*
X0563202Y0029077D01*
X0560992Y0028910D02*
X0560992Y0028577D01*
X0560825Y0028410D01*
X0560325Y0028410D01*
X0560659Y0028410D02*
X0560992Y0028076D01*
X0560325Y0028076D02*
X0560325Y0029077D01*
X0560825Y0029077D01*
X0560992Y0028910D01*
X0557611Y0029376D02*
X0556944Y0029376D01*
X0557611Y0030043D01*
X0557611Y0030210D01*
X0557445Y0030376D01*
X0557111Y0030376D01*
X0556944Y0030210D01*
X0556507Y0030376D02*
X0555839Y0030376D01*
X0555839Y0029876D01*
X0556173Y0030043D01*
X0556340Y0030043D01*
X0556507Y0029876D01*
X0556507Y0029542D01*
X0556340Y0029376D01*
X0556006Y0029376D01*
X0555839Y0029542D01*
X0555402Y0029376D02*
X0555068Y0029709D01*
X0555235Y0029709D02*
X0554734Y0029709D01*
X0554734Y0029376D02*
X0554734Y0030376D01*
X0555235Y0030376D01*
X0555402Y0030210D01*
X0555402Y0029876D01*
X0555235Y0029709D01*
X0532690Y0028577D02*
X0532023Y0028577D01*
X0532523Y0029077D01*
X0532523Y0028076D01*
X0531585Y0028243D02*
X0531418Y0028076D01*
X0531085Y0028076D01*
X0530918Y0028243D01*
X0530918Y0028577D02*
X0531252Y0028744D01*
X0531418Y0028744D01*
X0531585Y0028577D01*
X0531585Y0028243D01*
X0530918Y0028577D02*
X0530918Y0029077D01*
X0531585Y0029077D01*
X0530480Y0028910D02*
X0530480Y0028577D01*
X0530314Y0028410D01*
X0529813Y0028410D01*
X0529813Y0028076D02*
X0529813Y0029077D01*
X0530314Y0029077D01*
X0530480Y0028910D01*
X0527100Y0029542D02*
X0527100Y0030210D01*
X0526933Y0030376D01*
X0526599Y0030376D01*
X0526432Y0030210D01*
X0526432Y0030043D01*
X0526599Y0029876D01*
X0527100Y0029876D01*
X0527100Y0029542D02*
X0526933Y0029376D01*
X0526599Y0029376D01*
X0526432Y0029542D01*
X0525995Y0029876D02*
X0525327Y0029876D01*
X0525828Y0030376D01*
X0525828Y0029376D01*
X0524890Y0029376D02*
X0524556Y0029709D01*
X0524723Y0029709D02*
X0524223Y0029709D01*
X0524223Y0029376D02*
X0524223Y0030376D01*
X0524723Y0030376D01*
X0524890Y0030210D01*
X0524890Y0029876D01*
X0524723Y0029709D01*
X0501845Y0029077D02*
X0501511Y0028744D01*
X0501073Y0028577D02*
X0501073Y0028243D01*
X0500907Y0028076D01*
X0500573Y0028076D01*
X0500406Y0028243D01*
X0500406Y0028577D02*
X0500740Y0028744D01*
X0500907Y0028744D01*
X0501073Y0028577D01*
X0501073Y0029077D02*
X0500406Y0029077D01*
X0500406Y0028577D01*
X0499969Y0028577D02*
X0499802Y0028410D01*
X0499301Y0028410D01*
X0499301Y0028076D02*
X0499301Y0029077D01*
X0499802Y0029077D01*
X0499969Y0028910D01*
X0499969Y0028577D01*
X0499635Y0028410D02*
X0499969Y0028076D01*
X0501511Y0028076D02*
X0502178Y0028076D01*
X0501845Y0028076D02*
X0501845Y0029077D01*
X0496588Y0029542D02*
X0496588Y0029709D01*
X0496421Y0029876D01*
X0495921Y0029876D01*
X0495921Y0029542D01*
X0496087Y0029376D01*
X0496421Y0029376D01*
X0496588Y0029542D01*
X0495921Y0029876D02*
X0496254Y0030210D01*
X0496588Y0030376D01*
X0495483Y0029876D02*
X0494816Y0029876D01*
X0495316Y0030376D01*
X0495316Y0029376D01*
X0494378Y0029376D02*
X0494044Y0029709D01*
X0494211Y0029709D02*
X0493711Y0029709D01*
X0493711Y0029376D02*
X0493711Y0030376D01*
X0494211Y0030376D01*
X0494378Y0030210D01*
X0494378Y0029876D01*
X0494211Y0029709D01*
X0471667Y0028910D02*
X0471667Y0028744D01*
X0471500Y0028577D01*
X0471166Y0028577D01*
X0470999Y0028744D01*
X0470999Y0028910D01*
X0471166Y0029077D01*
X0471500Y0029077D01*
X0471667Y0028910D01*
X0471500Y0028577D02*
X0471667Y0028410D01*
X0471667Y0028243D01*
X0471500Y0028076D01*
X0471166Y0028076D01*
X0470999Y0028243D01*
X0470999Y0028410D01*
X0471166Y0028577D01*
X0470562Y0028577D02*
X0469894Y0028577D01*
X0470395Y0029077D01*
X0470395Y0028076D01*
X0469457Y0028076D02*
X0469123Y0028410D01*
X0469290Y0028410D02*
X0468789Y0028410D01*
X0468789Y0028076D02*
X0468789Y0029077D01*
X0469290Y0029077D01*
X0469457Y0028910D01*
X0469457Y0028577D01*
X0469290Y0028410D01*
X0466076Y0029542D02*
X0465909Y0029376D01*
X0465576Y0029376D01*
X0465409Y0029542D01*
X0465742Y0029876D02*
X0465909Y0029876D01*
X0466076Y0029709D01*
X0466076Y0029542D01*
X0465909Y0029876D02*
X0466076Y0030043D01*
X0466076Y0030210D01*
X0465909Y0030376D01*
X0465576Y0030376D01*
X0465409Y0030210D01*
X0464971Y0029876D02*
X0464304Y0029876D01*
X0464804Y0030376D01*
X0464804Y0029376D01*
X0463866Y0029376D02*
X0463533Y0029709D01*
X0463699Y0029709D02*
X0463199Y0029709D01*
X0463199Y0029376D02*
X0463199Y0030376D01*
X0463699Y0030376D01*
X0463866Y0030210D01*
X0463866Y0029876D01*
X0463699Y0029709D01*
X0441155Y0029077D02*
X0440488Y0029077D01*
X0440488Y0028577D01*
X0440821Y0028744D01*
X0440988Y0028744D01*
X0441155Y0028577D01*
X0441155Y0028243D01*
X0440988Y0028076D01*
X0440654Y0028076D01*
X0440488Y0028243D01*
X0440050Y0028577D02*
X0439383Y0028577D01*
X0439883Y0029077D01*
X0439883Y0028076D01*
X0438945Y0028076D02*
X0438611Y0028410D01*
X0438778Y0028410D02*
X0438278Y0028410D01*
X0438278Y0028076D02*
X0438278Y0029077D01*
X0438778Y0029077D01*
X0438945Y0028910D01*
X0438945Y0028577D01*
X0438778Y0028410D01*
X0435564Y0029542D02*
X0435397Y0029376D01*
X0435064Y0029376D01*
X0434897Y0029542D01*
X0435564Y0030210D01*
X0435564Y0029542D01*
X0434897Y0029542D02*
X0434897Y0030210D01*
X0435064Y0030376D01*
X0435397Y0030376D01*
X0435564Y0030210D01*
X0434459Y0029876D02*
X0433792Y0029876D01*
X0434292Y0030376D01*
X0434292Y0029376D01*
X0433354Y0029376D02*
X0433021Y0029709D01*
X0433188Y0029709D02*
X0432687Y0029709D01*
X0432687Y0029376D02*
X0432687Y0030376D01*
X0433188Y0030376D01*
X0433354Y0030210D01*
X0433354Y0029876D01*
X0433188Y0029709D01*
X0410643Y0028910D02*
X0410476Y0029077D01*
X0410143Y0029077D01*
X0409976Y0028910D01*
X0409538Y0028577D02*
X0408871Y0028577D01*
X0409371Y0029077D01*
X0409371Y0028076D01*
X0409976Y0028076D02*
X0410643Y0028744D01*
X0410643Y0028910D01*
X0408433Y0028910D02*
X0408433Y0028577D01*
X0408266Y0028410D01*
X0407766Y0028410D01*
X0408099Y0028410D02*
X0408433Y0028076D01*
X0407766Y0028076D02*
X0407766Y0029077D01*
X0408266Y0029077D01*
X0408433Y0028910D01*
X0405052Y0030210D02*
X0404385Y0029542D01*
X0404385Y0029376D01*
X0403947Y0029542D02*
X0403781Y0029376D01*
X0403447Y0029376D01*
X0403280Y0029542D01*
X0402843Y0029376D02*
X0402509Y0029709D01*
X0402676Y0029709D02*
X0402175Y0029709D01*
X0402175Y0029376D02*
X0402175Y0030376D01*
X0402676Y0030376D01*
X0402843Y0030210D01*
X0402843Y0029876D01*
X0402676Y0029709D01*
X0403280Y0030210D02*
X0403447Y0030376D01*
X0403781Y0030376D01*
X0403947Y0030210D01*
X0403947Y0030043D01*
X0403781Y0029876D01*
X0403947Y0029709D01*
X0403947Y0029542D01*
X0403781Y0029876D02*
X0403614Y0029876D01*
X0404385Y0030376D02*
X0405052Y0030376D01*
X0405052Y0030210D01*
X0380131Y0028910D02*
X0379964Y0029077D01*
X0379631Y0029077D01*
X0379464Y0028910D01*
X0379464Y0028744D01*
X0379631Y0028577D01*
X0380131Y0028577D01*
X0380131Y0028910D02*
X0380131Y0028243D01*
X0379964Y0028076D01*
X0379631Y0028076D01*
X0379464Y0028243D01*
X0379026Y0028243D02*
X0378859Y0028076D01*
X0378526Y0028076D01*
X0378359Y0028243D01*
X0377921Y0028076D02*
X0377588Y0028410D01*
X0377754Y0028410D02*
X0377254Y0028410D01*
X0377254Y0028076D02*
X0377254Y0029077D01*
X0377754Y0029077D01*
X0377921Y0028910D01*
X0377921Y0028577D01*
X0377754Y0028410D01*
X0378693Y0028577D02*
X0378859Y0028577D01*
X0379026Y0028410D01*
X0379026Y0028243D01*
X0378859Y0028577D02*
X0379026Y0028744D01*
X0379026Y0028910D01*
X0378859Y0029077D01*
X0378526Y0029077D01*
X0378359Y0028910D01*
X0374374Y0029376D02*
X0374374Y0030376D01*
X0373873Y0029876D01*
X0374541Y0029876D01*
X0373436Y0029709D02*
X0373436Y0029542D01*
X0373269Y0029376D01*
X0372935Y0029376D01*
X0372768Y0029542D01*
X0372331Y0029376D02*
X0371997Y0029709D01*
X0372164Y0029709D02*
X0371663Y0029709D01*
X0371663Y0029376D02*
X0371663Y0030376D01*
X0372164Y0030376D01*
X0372331Y0030210D01*
X0372331Y0029876D01*
X0372164Y0029709D01*
X0372768Y0030210D02*
X0372935Y0030376D01*
X0373269Y0030376D01*
X0373436Y0030210D01*
X0373436Y0030043D01*
X0373269Y0029876D01*
X0373436Y0029709D01*
X0373269Y0029876D02*
X0373102Y0029876D01*
X0349619Y0029077D02*
X0349286Y0028910D01*
X0348952Y0028577D01*
X0349453Y0028577D01*
X0349619Y0028410D01*
X0349619Y0028243D01*
X0349453Y0028076D01*
X0349119Y0028076D01*
X0348952Y0028243D01*
X0348952Y0028577D01*
X0348514Y0028744D02*
X0348348Y0028577D01*
X0348514Y0028410D01*
X0348514Y0028243D01*
X0348348Y0028076D01*
X0348014Y0028076D01*
X0347847Y0028243D01*
X0347409Y0028076D02*
X0347076Y0028410D01*
X0347243Y0028410D02*
X0346742Y0028410D01*
X0346742Y0028076D02*
X0346742Y0029077D01*
X0347243Y0029077D01*
X0347409Y0028910D01*
X0347409Y0028577D01*
X0347243Y0028410D01*
X0348181Y0028577D02*
X0348348Y0028577D01*
X0348514Y0028744D02*
X0348514Y0028910D01*
X0348348Y0029077D01*
X0348014Y0029077D01*
X0347847Y0028910D01*
X0344029Y0029376D02*
X0343362Y0029376D01*
X0343695Y0029376D02*
X0343695Y0030376D01*
X0343362Y0030043D01*
X0342924Y0030043D02*
X0342757Y0029876D01*
X0342924Y0029709D01*
X0342924Y0029542D01*
X0342757Y0029376D01*
X0342423Y0029376D01*
X0342257Y0029542D01*
X0341819Y0029376D02*
X0341485Y0029709D01*
X0341652Y0029709D02*
X0341152Y0029709D01*
X0341152Y0029376D02*
X0341152Y0030376D01*
X0341652Y0030376D01*
X0341819Y0030210D01*
X0341819Y0029876D01*
X0341652Y0029709D01*
X0342257Y0030210D02*
X0342423Y0030376D01*
X0342757Y0030376D01*
X0342924Y0030210D01*
X0342924Y0030043D01*
X0342757Y0029876D02*
X0342590Y0029876D01*
X0319108Y0028910D02*
X0319108Y0028744D01*
X0318941Y0028577D01*
X0319108Y0028410D01*
X0319108Y0028243D01*
X0318941Y0028076D01*
X0318607Y0028076D01*
X0318440Y0028243D01*
X0318003Y0028243D02*
X0317836Y0028076D01*
X0317502Y0028076D01*
X0317335Y0028243D01*
X0316898Y0028076D02*
X0316564Y0028410D01*
X0316731Y0028410D02*
X0316230Y0028410D01*
X0316230Y0028076D02*
X0316230Y0029077D01*
X0316731Y0029077D01*
X0316898Y0028910D01*
X0316898Y0028577D01*
X0316731Y0028410D01*
X0317669Y0028577D02*
X0317836Y0028577D01*
X0318003Y0028410D01*
X0318003Y0028243D01*
X0317836Y0028577D02*
X0318003Y0028744D01*
X0318003Y0028910D01*
X0317836Y0029077D01*
X0317502Y0029077D01*
X0317335Y0028910D01*
X0318440Y0028910D02*
X0318607Y0029077D01*
X0318941Y0029077D01*
X0319108Y0028910D01*
X0318941Y0028577D02*
X0318774Y0028577D01*
X0313517Y0029542D02*
X0313350Y0029376D01*
X0313017Y0029376D01*
X0312850Y0029542D01*
X0312850Y0029709D01*
X0313017Y0029876D01*
X0313350Y0029876D01*
X0313517Y0029709D01*
X0313517Y0029542D01*
X0313350Y0029876D02*
X0313517Y0030043D01*
X0313517Y0030210D01*
X0313350Y0030376D01*
X0313017Y0030376D01*
X0312850Y0030210D01*
X0312850Y0030043D01*
X0313017Y0029876D01*
X0312412Y0030043D02*
X0312412Y0030210D01*
X0312245Y0030376D01*
X0311912Y0030376D01*
X0311745Y0030210D01*
X0311307Y0030210D02*
X0311307Y0029876D01*
X0311140Y0029709D01*
X0310640Y0029709D01*
X0310640Y0029376D02*
X0310640Y0030376D01*
X0311140Y0030376D01*
X0311307Y0030210D01*
X0310973Y0029709D02*
X0311307Y0029376D01*
X0311745Y0029376D02*
X0312412Y0030043D01*
X0312412Y0029376D02*
X0311745Y0029376D01*
X0288596Y0028910D02*
X0287928Y0028243D01*
X0288095Y0028076D01*
X0288429Y0028076D01*
X0288596Y0028243D01*
X0288596Y0028910D01*
X0288429Y0029077D01*
X0288095Y0029077D01*
X0287928Y0028910D01*
X0287928Y0028243D01*
X0287491Y0028243D02*
X0287324Y0028076D01*
X0286990Y0028076D01*
X0286824Y0028243D01*
X0286386Y0028076D02*
X0286052Y0028410D01*
X0286219Y0028410D02*
X0285719Y0028410D01*
X0285719Y0028076D02*
X0285719Y0029077D01*
X0286219Y0029077D01*
X0286386Y0028910D01*
X0286386Y0028577D01*
X0286219Y0028410D01*
X0287157Y0028577D02*
X0287324Y0028577D01*
X0287491Y0028410D01*
X0287491Y0028243D01*
X0287324Y0028577D02*
X0287491Y0028744D01*
X0287491Y0028910D01*
X0287324Y0029077D01*
X0286990Y0029077D01*
X0286824Y0028910D01*
X0283005Y0029542D02*
X0282838Y0029376D01*
X0282505Y0029376D01*
X0282338Y0029542D01*
X0282338Y0029876D02*
X0282672Y0030043D01*
X0282838Y0030043D01*
X0283005Y0029876D01*
X0283005Y0029542D01*
X0282338Y0029876D02*
X0282338Y0030376D01*
X0283005Y0030376D01*
X0281900Y0030210D02*
X0281733Y0030376D01*
X0281400Y0030376D01*
X0281233Y0030210D01*
X0280795Y0030210D02*
X0280795Y0029876D01*
X0280628Y0029709D01*
X0280128Y0029709D01*
X0280128Y0029376D02*
X0280128Y0030376D01*
X0280628Y0030376D01*
X0280795Y0030210D01*
X0280462Y0029709D02*
X0280795Y0029376D01*
X0281233Y0029376D02*
X0281900Y0030043D01*
X0281900Y0030210D01*
X0281900Y0029376D02*
X0281233Y0029376D01*
X0258084Y0029077D02*
X0258084Y0028910D01*
X0257417Y0028243D01*
X0257417Y0028076D01*
X0256979Y0028076D02*
X0256312Y0028076D01*
X0256979Y0028744D01*
X0256979Y0028910D01*
X0256812Y0029077D01*
X0256479Y0029077D01*
X0256312Y0028910D01*
X0255874Y0028910D02*
X0255874Y0028577D01*
X0255707Y0028410D01*
X0255207Y0028410D01*
X0255540Y0028410D02*
X0255874Y0028076D01*
X0255207Y0028076D02*
X0255207Y0029077D01*
X0255707Y0029077D01*
X0255874Y0028910D01*
X0257417Y0029077D02*
X0258084Y0029077D01*
X0252493Y0029376D02*
X0251826Y0029376D01*
X0252493Y0030043D01*
X0252493Y0030210D01*
X0252327Y0030376D01*
X0251993Y0030376D01*
X0251826Y0030210D01*
X0251388Y0030210D02*
X0251222Y0030376D01*
X0250888Y0030376D01*
X0250721Y0030210D01*
X0250283Y0030210D02*
X0250283Y0029876D01*
X0250117Y0029709D01*
X0249616Y0029709D01*
X0249616Y0029376D02*
X0249616Y0030376D01*
X0250117Y0030376D01*
X0250283Y0030210D01*
X0249950Y0029709D02*
X0250283Y0029376D01*
X0250721Y0029376D02*
X0251388Y0030043D01*
X0251388Y0030210D01*
X0251388Y0029376D02*
X0250721Y0029376D01*
X0227572Y0028577D02*
X0226905Y0028577D01*
X0227405Y0029077D01*
X0227405Y0028076D01*
X0226467Y0028076D02*
X0225800Y0028076D01*
X0226467Y0028744D01*
X0226467Y0028910D01*
X0226300Y0029077D01*
X0225967Y0029077D01*
X0225800Y0028910D01*
X0225362Y0028910D02*
X0225362Y0028577D01*
X0225195Y0028410D01*
X0224695Y0028410D01*
X0225029Y0028410D02*
X0225362Y0028076D01*
X0224695Y0028076D02*
X0224695Y0029077D01*
X0225195Y0029077D01*
X0225362Y0028910D01*
X0221982Y0029542D02*
X0221982Y0030210D01*
X0221815Y0030376D01*
X0221481Y0030376D01*
X0221314Y0030210D01*
X0221314Y0030043D01*
X0221481Y0029876D01*
X0221982Y0029876D01*
X0221982Y0029542D02*
X0221815Y0029376D01*
X0221481Y0029376D01*
X0221314Y0029542D01*
X0220877Y0029376D02*
X0220209Y0029376D01*
X0220543Y0029376D02*
X0220543Y0030376D01*
X0220209Y0030043D01*
X0219772Y0030210D02*
X0219772Y0029876D01*
X0219605Y0029709D01*
X0219104Y0029709D01*
X0219104Y0029376D02*
X0219104Y0030376D01*
X0219605Y0030376D01*
X0219772Y0030210D01*
X0219438Y0029709D02*
X0219772Y0029376D01*
X0197060Y0028076D02*
X0196393Y0028076D01*
X0196727Y0028076D02*
X0196727Y0029077D01*
X0196393Y0028744D01*
X0195955Y0028744D02*
X0195955Y0028910D01*
X0195789Y0029077D01*
X0195455Y0029077D01*
X0195288Y0028910D01*
X0194850Y0028910D02*
X0194850Y0028577D01*
X0194684Y0028410D01*
X0194183Y0028410D01*
X0194183Y0028076D02*
X0194183Y0029077D01*
X0194684Y0029077D01*
X0194850Y0028910D01*
X0195288Y0028076D02*
X0195955Y0028744D01*
X0195955Y0028076D02*
X0195288Y0028076D01*
X0194850Y0028076D02*
X0194517Y0028410D01*
X0191470Y0029542D02*
X0191470Y0029709D01*
X0191303Y0029876D01*
X0190802Y0029876D01*
X0190802Y0029542D01*
X0190969Y0029376D01*
X0191303Y0029376D01*
X0191470Y0029542D01*
X0191136Y0030210D02*
X0190802Y0029876D01*
X0191136Y0030210D02*
X0191470Y0030376D01*
X0190031Y0030376D02*
X0190031Y0029376D01*
X0189698Y0029376D02*
X0190365Y0029376D01*
X0189698Y0030043D02*
X0190031Y0030376D01*
X0189260Y0030210D02*
X0189260Y0029876D01*
X0189093Y0029709D01*
X0188593Y0029709D01*
X0188926Y0029709D02*
X0189260Y0029376D01*
X0188593Y0029376D02*
X0188593Y0030376D01*
X0189093Y0030376D01*
X0189260Y0030210D01*
X0166548Y0028910D02*
X0166548Y0028744D01*
X0166382Y0028577D01*
X0166048Y0028577D01*
X0165881Y0028744D01*
X0165881Y0028910D01*
X0166048Y0029077D01*
X0166382Y0029077D01*
X0166548Y0028910D01*
X0166382Y0028577D02*
X0166548Y0028410D01*
X0166548Y0028243D01*
X0166382Y0028076D01*
X0166048Y0028076D01*
X0165881Y0028243D01*
X0165881Y0028410D01*
X0166048Y0028577D01*
X0165444Y0028076D02*
X0164776Y0028076D01*
X0165110Y0028076D02*
X0165110Y0029077D01*
X0164776Y0028744D01*
X0164339Y0028910D02*
X0164339Y0028577D01*
X0164172Y0028410D01*
X0163671Y0028410D01*
X0163671Y0028076D02*
X0163671Y0029077D01*
X0164172Y0029077D01*
X0164339Y0028910D01*
X0160958Y0029542D02*
X0160791Y0029376D01*
X0160457Y0029376D01*
X0160291Y0029542D01*
X0159853Y0029376D02*
X0159186Y0029376D01*
X0159519Y0029376D02*
X0159519Y0030376D01*
X0159186Y0030043D01*
X0158748Y0030210D02*
X0158748Y0029876D01*
X0158581Y0029709D01*
X0158081Y0029709D01*
X0158081Y0029376D02*
X0158081Y0030376D01*
X0158581Y0030376D01*
X0158748Y0030210D01*
X0158414Y0029709D02*
X0158748Y0029376D01*
X0160624Y0029876D02*
X0160791Y0029876D01*
X0160958Y0029709D01*
X0160958Y0029542D01*
X0160791Y0029876D02*
X0160958Y0030043D01*
X0160958Y0030210D01*
X0160791Y0030376D01*
X0160457Y0030376D01*
X0160291Y0030210D01*
X0136037Y0029077D02*
X0135369Y0029077D01*
X0135369Y0028577D01*
X0135703Y0028744D01*
X0135870Y0028744D01*
X0136037Y0028577D01*
X0136037Y0028243D01*
X0135870Y0028076D01*
X0135536Y0028076D01*
X0135369Y0028243D01*
X0134932Y0028076D02*
X0134264Y0028076D01*
X0134598Y0028076D02*
X0134598Y0029077D01*
X0134264Y0028744D01*
X0133827Y0028910D02*
X0133827Y0028577D01*
X0133660Y0028410D01*
X0133160Y0028410D01*
X0133493Y0028410D02*
X0133827Y0028076D01*
X0133160Y0028076D02*
X0133160Y0029077D01*
X0133660Y0029077D01*
X0133827Y0028910D01*
X0130446Y0029542D02*
X0130279Y0029376D01*
X0129946Y0029376D01*
X0129779Y0029542D01*
X0130446Y0030210D01*
X0130446Y0029542D01*
X0129779Y0029542D02*
X0129779Y0030210D01*
X0129946Y0030376D01*
X0130279Y0030376D01*
X0130446Y0030210D01*
X0129008Y0030376D02*
X0129008Y0029376D01*
X0129341Y0029376D02*
X0128674Y0029376D01*
X0128236Y0029376D02*
X0127903Y0029709D01*
X0128069Y0029709D02*
X0127569Y0029709D01*
X0127569Y0029376D02*
X0127569Y0030376D01*
X0128069Y0030376D01*
X0128236Y0030210D01*
X0128236Y0029876D01*
X0128069Y0029709D01*
X0128674Y0030043D02*
X0129008Y0030376D01*
X0105525Y0028910D02*
X0105358Y0029077D01*
X0105024Y0029077D01*
X0104858Y0028910D01*
X0105525Y0028910D02*
X0105525Y0028744D01*
X0104858Y0028076D01*
X0105525Y0028076D01*
X0104420Y0028076D02*
X0103753Y0028076D01*
X0104086Y0028076D02*
X0104086Y0029077D01*
X0103753Y0028744D01*
X0103315Y0028910D02*
X0103315Y0028577D01*
X0103148Y0028410D01*
X0102648Y0028410D01*
X0102981Y0028410D02*
X0103315Y0028076D01*
X0102648Y0028076D02*
X0102648Y0029077D01*
X0103148Y0029077D01*
X0103315Y0028910D01*
X0098829Y0030210D02*
X0098162Y0029542D01*
X0098162Y0029376D01*
X0097724Y0029376D02*
X0097391Y0029709D01*
X0097558Y0029709D02*
X0097057Y0029709D01*
X0097057Y0029376D02*
X0097057Y0030376D01*
X0097558Y0030376D01*
X0097724Y0030210D01*
X0097724Y0029876D01*
X0097558Y0029709D01*
X0098162Y0030376D02*
X0098829Y0030376D01*
X0098829Y0030210D01*
X0073908Y0028910D02*
X0073741Y0029077D01*
X0073408Y0029077D01*
X0073241Y0028910D01*
X0073241Y0028744D01*
X0073408Y0028577D01*
X0073908Y0028577D01*
X0073908Y0028910D02*
X0073908Y0028243D01*
X0073741Y0028076D01*
X0073408Y0028076D01*
X0073241Y0028243D01*
X0072803Y0028076D02*
X0072470Y0028410D01*
X0072636Y0028410D02*
X0072136Y0028410D01*
X0072136Y0028076D02*
X0072136Y0029077D01*
X0072636Y0029077D01*
X0072803Y0028910D01*
X0072803Y0028577D01*
X0072636Y0028410D01*
X0068318Y0029376D02*
X0067650Y0029376D01*
X0067984Y0029376D02*
X0067984Y0030376D01*
X0067650Y0030043D01*
X0067213Y0030210D02*
X0067213Y0029876D01*
X0067046Y0029709D01*
X0066545Y0029709D01*
X0066545Y0029376D02*
X0066545Y0030376D01*
X0067046Y0030376D01*
X0067213Y0030210D01*
X0066879Y0029709D02*
X0067213Y0029376D01*
X0043396Y0028910D02*
X0043396Y0028744D01*
X0043229Y0028577D01*
X0043396Y0028410D01*
X0043396Y0028243D01*
X0043229Y0028076D01*
X0042896Y0028076D01*
X0042729Y0028243D01*
X0042291Y0028076D02*
X0041958Y0028410D01*
X0042125Y0028410D02*
X0041624Y0028410D01*
X0041624Y0028076D02*
X0041624Y0029077D01*
X0042125Y0029077D01*
X0042291Y0028910D01*
X0042291Y0028577D01*
X0042125Y0028410D01*
X0043063Y0028577D02*
X0043229Y0028577D01*
X0043396Y0028910D02*
X0043229Y0029077D01*
X0042896Y0029077D01*
X0042729Y0028910D01*
X0037639Y0029376D02*
X0037639Y0030376D01*
X0037139Y0029876D01*
X0037806Y0029876D01*
X0036701Y0029876D02*
X0036534Y0029709D01*
X0036034Y0029709D01*
X0036367Y0029709D02*
X0036701Y0029376D01*
X0036701Y0029876D02*
X0036701Y0030210D01*
X0036534Y0030376D01*
X0036034Y0030376D01*
X0036034Y0029376D01*
X0012884Y0029077D02*
X0012551Y0028910D01*
X0012217Y0028577D01*
X0012718Y0028577D01*
X0012884Y0028410D01*
X0012884Y0028243D01*
X0012718Y0028076D01*
X0012384Y0028076D01*
X0012217Y0028243D01*
X0012217Y0028577D01*
X0011780Y0028577D02*
X0011613Y0028410D01*
X0011112Y0028410D01*
X0011112Y0028076D02*
X0011112Y0029077D01*
X0011613Y0029077D01*
X0011780Y0028910D01*
X0011780Y0028577D01*
X0011446Y0028410D02*
X0011780Y0028076D01*
X0011849Y0026577D02*
X0011515Y0026577D01*
X0011349Y0026410D01*
X0011349Y0025743D01*
X0011515Y0025576D01*
X0011849Y0025576D01*
X0012016Y0025743D01*
X0012453Y0025576D02*
X0013121Y0026244D01*
X0013121Y0026410D01*
X0012954Y0026577D01*
X0012620Y0026577D01*
X0012453Y0026410D01*
X0012016Y0026410D02*
X0011849Y0026577D01*
X0012453Y0025576D02*
X0013121Y0025576D01*
X0041860Y0025743D02*
X0042027Y0025576D01*
X0042361Y0025576D01*
X0042528Y0025743D01*
X0042965Y0025576D02*
X0043633Y0025576D01*
X0043299Y0025576D02*
X0043299Y0026577D01*
X0042965Y0026244D01*
X0042528Y0026410D02*
X0042361Y0026577D01*
X0042027Y0026577D01*
X0041860Y0026410D01*
X0041860Y0025743D01*
X0072372Y0025743D02*
X0072539Y0025576D01*
X0072873Y0025576D01*
X0073039Y0025743D01*
X0073477Y0025743D02*
X0073644Y0025576D01*
X0073978Y0025576D01*
X0074144Y0025743D01*
X0074144Y0025910D01*
X0073978Y0026077D01*
X0073811Y0026077D01*
X0073978Y0026077D02*
X0074144Y0026244D01*
X0074144Y0026410D01*
X0073978Y0026577D01*
X0073644Y0026577D01*
X0073477Y0026410D01*
X0073039Y0026410D02*
X0072873Y0026577D01*
X0072539Y0026577D01*
X0072372Y0026410D01*
X0072372Y0025743D01*
X0102884Y0025743D02*
X0103051Y0025576D01*
X0103384Y0025576D01*
X0103551Y0025743D01*
X0103989Y0026077D02*
X0104656Y0026077D01*
X0104489Y0026577D02*
X0103989Y0026077D01*
X0103551Y0026410D02*
X0103384Y0026577D01*
X0103051Y0026577D01*
X0102884Y0026410D01*
X0102884Y0025743D01*
X0104489Y0025576D02*
X0104489Y0026577D01*
X0133396Y0026410D02*
X0133396Y0025743D01*
X0133563Y0025576D01*
X0133896Y0025576D01*
X0134063Y0025743D01*
X0134501Y0025743D02*
X0134668Y0025576D01*
X0135001Y0025576D01*
X0135168Y0025743D01*
X0135168Y0026077D01*
X0135001Y0026244D01*
X0134834Y0026244D01*
X0134501Y0026077D01*
X0134501Y0026577D01*
X0135168Y0026577D01*
X0134063Y0026410D02*
X0133896Y0026577D01*
X0133563Y0026577D01*
X0133396Y0026410D01*
X0163908Y0026410D02*
X0163908Y0025743D01*
X0164074Y0025576D01*
X0164408Y0025576D01*
X0164575Y0025743D01*
X0165013Y0025743D02*
X0165179Y0025576D01*
X0165513Y0025576D01*
X0165680Y0025743D01*
X0165680Y0025910D01*
X0165513Y0026077D01*
X0165013Y0026077D01*
X0165013Y0025743D01*
X0165013Y0026077D02*
X0165346Y0026410D01*
X0165680Y0026577D01*
X0164575Y0026410D02*
X0164408Y0026577D01*
X0164074Y0026577D01*
X0163908Y0026410D01*
X0194419Y0026410D02*
X0194419Y0025743D01*
X0194586Y0025576D01*
X0194920Y0025576D01*
X0195087Y0025743D01*
X0195524Y0025743D02*
X0195524Y0025576D01*
X0195524Y0025743D02*
X0196192Y0026410D01*
X0196192Y0026577D01*
X0195524Y0026577D01*
X0195087Y0026410D02*
X0194920Y0026577D01*
X0194586Y0026577D01*
X0194419Y0026410D01*
X0224931Y0026410D02*
X0224931Y0025743D01*
X0225098Y0025576D01*
X0225432Y0025576D01*
X0225598Y0025743D01*
X0226036Y0025743D02*
X0226036Y0025910D01*
X0226203Y0026077D01*
X0226537Y0026077D01*
X0226703Y0025910D01*
X0226703Y0025743D01*
X0226537Y0025576D01*
X0226203Y0025576D01*
X0226036Y0025743D01*
X0226203Y0026077D02*
X0226036Y0026244D01*
X0226036Y0026410D01*
X0226203Y0026577D01*
X0226537Y0026577D01*
X0226703Y0026410D01*
X0226703Y0026244D01*
X0226537Y0026077D01*
X0225598Y0026410D02*
X0225432Y0026577D01*
X0225098Y0026577D01*
X0224931Y0026410D01*
X0255443Y0026410D02*
X0255443Y0025743D01*
X0255610Y0025576D01*
X0255943Y0025576D01*
X0256110Y0025743D01*
X0256548Y0025743D02*
X0256715Y0025576D01*
X0257048Y0025576D01*
X0257215Y0025743D01*
X0257215Y0026410D01*
X0257048Y0026577D01*
X0256715Y0026577D01*
X0256548Y0026410D01*
X0256548Y0026244D01*
X0256715Y0026077D01*
X0257215Y0026077D01*
X0256110Y0026410D02*
X0255943Y0026577D01*
X0255610Y0026577D01*
X0255443Y0026410D01*
X0285955Y0026410D02*
X0285955Y0025743D01*
X0286122Y0025576D01*
X0286455Y0025576D01*
X0286622Y0025743D01*
X0287060Y0025576D02*
X0287727Y0025576D01*
X0287393Y0025576D02*
X0287393Y0026577D01*
X0287060Y0026244D01*
X0286622Y0026410D02*
X0286455Y0026577D01*
X0286122Y0026577D01*
X0285955Y0026410D01*
X0288165Y0026410D02*
X0288165Y0025743D01*
X0288832Y0026410D01*
X0288832Y0025743D01*
X0288665Y0025576D01*
X0288332Y0025576D01*
X0288165Y0025743D01*
X0288165Y0026410D02*
X0288332Y0026577D01*
X0288665Y0026577D01*
X0288832Y0026410D01*
X0316467Y0026410D02*
X0316467Y0025743D01*
X0316633Y0025576D01*
X0316967Y0025576D01*
X0317134Y0025743D01*
X0317572Y0025576D02*
X0318239Y0025576D01*
X0317905Y0025576D02*
X0317905Y0026577D01*
X0317572Y0026244D01*
X0317134Y0026410D02*
X0316967Y0026577D01*
X0316633Y0026577D01*
X0316467Y0026410D01*
X0318677Y0026244D02*
X0319010Y0026577D01*
X0319010Y0025576D01*
X0318677Y0025576D02*
X0319344Y0025576D01*
X0346978Y0025743D02*
X0347145Y0025576D01*
X0347479Y0025576D01*
X0347646Y0025743D01*
X0348083Y0025576D02*
X0348751Y0025576D01*
X0348417Y0025576D02*
X0348417Y0026577D01*
X0348083Y0026244D01*
X0347646Y0026410D02*
X0347479Y0026577D01*
X0347145Y0026577D01*
X0346978Y0026410D01*
X0346978Y0025743D01*
X0349188Y0025576D02*
X0349856Y0026244D01*
X0349856Y0026410D01*
X0349689Y0026577D01*
X0349355Y0026577D01*
X0349188Y0026410D01*
X0349188Y0025576D02*
X0349856Y0025576D01*
X0377490Y0025743D02*
X0377657Y0025576D01*
X0377991Y0025576D01*
X0378158Y0025743D01*
X0378595Y0025576D02*
X0379262Y0025576D01*
X0378929Y0025576D02*
X0378929Y0026577D01*
X0378595Y0026244D01*
X0378158Y0026410D02*
X0377991Y0026577D01*
X0377657Y0026577D01*
X0377490Y0026410D01*
X0377490Y0025743D01*
X0379700Y0025743D02*
X0379867Y0025576D01*
X0380201Y0025576D01*
X0380367Y0025743D01*
X0380367Y0025910D01*
X0380201Y0026077D01*
X0380034Y0026077D01*
X0380201Y0026077D02*
X0380367Y0026244D01*
X0380367Y0026410D01*
X0380201Y0026577D01*
X0379867Y0026577D01*
X0379700Y0026410D01*
X0408002Y0026410D02*
X0408002Y0025743D01*
X0408169Y0025576D01*
X0408502Y0025576D01*
X0408669Y0025743D01*
X0409107Y0025576D02*
X0409774Y0025576D01*
X0409441Y0025576D02*
X0409441Y0026577D01*
X0409107Y0026244D01*
X0408669Y0026410D02*
X0408502Y0026577D01*
X0408169Y0026577D01*
X0408002Y0026410D01*
X0410212Y0026077D02*
X0410879Y0026077D01*
X0410712Y0026577D02*
X0410212Y0026077D01*
X0410712Y0025576D02*
X0410712Y0026577D01*
X0438514Y0026410D02*
X0438514Y0025743D01*
X0438681Y0025576D01*
X0439014Y0025576D01*
X0439181Y0025743D01*
X0439619Y0025576D02*
X0440286Y0025576D01*
X0439952Y0025576D02*
X0439952Y0026577D01*
X0439619Y0026244D01*
X0439181Y0026410D02*
X0439014Y0026577D01*
X0438681Y0026577D01*
X0438514Y0026410D01*
X0440724Y0026577D02*
X0440724Y0026077D01*
X0441057Y0026244D01*
X0441224Y0026244D01*
X0441391Y0026077D01*
X0441391Y0025743D01*
X0441224Y0025576D01*
X0440891Y0025576D01*
X0440724Y0025743D01*
X0440724Y0026577D02*
X0441391Y0026577D01*
X0469026Y0026410D02*
X0469026Y0025743D01*
X0469193Y0025576D01*
X0469526Y0025576D01*
X0469693Y0025743D01*
X0470131Y0025576D02*
X0470798Y0025576D01*
X0470464Y0025576D02*
X0470464Y0026577D01*
X0470131Y0026244D01*
X0469693Y0026410D02*
X0469526Y0026577D01*
X0469193Y0026577D01*
X0469026Y0026410D01*
X0471236Y0026077D02*
X0471736Y0026077D01*
X0471903Y0025910D01*
X0471903Y0025743D01*
X0471736Y0025576D01*
X0471402Y0025576D01*
X0471236Y0025743D01*
X0471236Y0026077D01*
X0471569Y0026410D01*
X0471903Y0026577D01*
X0530147Y0028410D02*
X0530480Y0028076D01*
X0410643Y0028076D02*
X0409976Y0028076D01*
X0164339Y0028076D02*
X0164005Y0028410D01*
X0013424Y0011128D02*
X0013424Y0010461D01*
X0013424Y0010794D02*
X0012423Y0010794D01*
X0012757Y0010461D01*
X0012423Y0010023D02*
X0013257Y0010023D01*
X0013424Y0009856D01*
X0013424Y0009523D01*
X0013257Y0009356D01*
X0012423Y0009356D01*
X0715094Y0028076D02*
X0715761Y0028076D01*
X0981900Y0029376D02*
X0981900Y0030376D01*
X0982400Y0030376D01*
X0982567Y0030210D01*
X0982567Y0029876D01*
X0982400Y0029709D01*
X0981900Y0029709D01*
X0982233Y0029709D02*
X0982567Y0029376D01*
X0983005Y0029542D02*
X0983171Y0029376D01*
X0983505Y0029376D01*
X0983672Y0029542D01*
X0983672Y0030210D01*
X0983505Y0030376D01*
X0983171Y0030376D01*
X0983005Y0030210D01*
X0983005Y0030043D01*
X0983171Y0029876D01*
X0983672Y0029876D01*
X0984110Y0029876D02*
X0984777Y0029876D01*
X0984610Y0029376D02*
X0984610Y0030376D01*
X0984110Y0029876D01*
D12*
X0957981Y0030142D03*
X0927469Y0030142D03*
X0896957Y0030142D03*
X0866445Y0030142D03*
X0835934Y0030142D03*
X0805422Y0030142D03*
X0774910Y0030142D03*
X0744398Y0030142D03*
X0713886Y0030142D03*
X0683375Y0030142D03*
X0652863Y0030142D03*
X0622351Y0030142D03*
X0591839Y0030142D03*
X0561327Y0030142D03*
X0530815Y0030142D03*
X0500304Y0030142D03*
X0469792Y0030142D03*
X0439280Y0030142D03*
X0408768Y0030142D03*
X0378256Y0030142D03*
X0347745Y0030142D03*
X0317233Y0030142D03*
X0286721Y0030142D03*
X0256209Y0030142D03*
X0225697Y0030142D03*
X0195186Y0030142D03*
X0164674Y0030142D03*
X0134162Y0030142D03*
X0103650Y0030142D03*
X0073138Y0030142D03*
X0042626Y0030142D03*
X0012115Y0030142D03*
X0036819Y0028075D03*
X0067331Y0028075D03*
X0097843Y0028075D03*
X0128355Y0028075D03*
X0158867Y0028075D03*
X0189378Y0028075D03*
X0219890Y0028075D03*
X0250402Y0028075D03*
X0280914Y0028075D03*
X0311426Y0028075D03*
X0341938Y0028075D03*
X0372449Y0028075D03*
X0402961Y0028075D03*
X0433473Y0028075D03*
X0463985Y0028075D03*
X0494497Y0028075D03*
X0525008Y0028075D03*
X0555520Y0028075D03*
X0586032Y0028075D03*
X0616544Y0028075D03*
X0647056Y0028075D03*
X0677567Y0028075D03*
X0708079Y0028075D03*
X0738591Y0028075D03*
X0769103Y0028075D03*
X0799615Y0028075D03*
X0830126Y0028075D03*
X0860638Y0028075D03*
X0891150Y0028075D03*
X0921662Y0028075D03*
X0952174Y0028075D03*
X0982686Y0028075D03*
X0982193Y0005437D03*
X0951682Y0005437D03*
X0921170Y0005437D03*
X0890658Y0005437D03*
X0860146Y0005437D03*
X0829634Y0005437D03*
X0799123Y0005437D03*
X0768611Y0005437D03*
X0738099Y0005437D03*
X0707587Y0005437D03*
X0677075Y0005437D03*
X0646563Y0005437D03*
X0616052Y0005437D03*
X0585540Y0005437D03*
X0555028Y0005437D03*
X0524516Y0005437D03*
X0494004Y0005437D03*
X0463493Y0005437D03*
X0432981Y0005437D03*
X0402469Y0005437D03*
X0371957Y0005437D03*
X0341445Y0005437D03*
X0310934Y0005437D03*
X0280422Y0005437D03*
X0249910Y0005437D03*
X0219398Y0005437D03*
X0188886Y0005437D03*
X0158375Y0005437D03*
X0127863Y0005437D03*
X0097351Y0005437D03*
X0066839Y0005437D03*
X0036327Y0005437D03*
M02*
